<svg version="1.1" id="Layer_1" xmlns="http://www.w3.org/2000/svg" xmlns:xlink="http://www.w3.org/1999/xlink" x="0px" y="0px"
	 width="100%" viewBox="0 0 192 240" enable-background="new 0 0 192 240" xml:space="preserve">
<path fill="#000000" opacity="1.000000" stroke="none" 
	d="
M193.000000,177.531342 
	C188.348053,177.547821 189.814880,182.063156 188.803482,183.981842 
	C183.271774,194.475815 177.064484,203.573959 165.694275,209.115173 
	C154.770218,214.438980 143.497147,216.624786 132.026108,215.011993 
	C124.011864,213.885223 115.492798,211.968445 109.415009,204.889816 
	C104.074585,198.669968 97.636894,199.143082 92.348236,205.328568 
	C91.599739,206.203995 90.691559,206.261276 89.853935,206.707657 
	C81.994263,210.896179 73.629211,212.043777 64.826447,211.456650 
	C58.703682,211.048264 52.313400,212.421631 46.930500,208.173965 
	C45.133934,206.756317 43.168976,206.244766 40.902988,206.461227 
	C40.124706,206.535583 38.812332,206.381332 38.571442,205.909271 
	C35.296928,199.492218 27.580732,198.199265 23.541758,192.179214 
	C19.388828,185.989304 15.888657,179.882370 13.209612,172.881836 
	C11.472345,168.342239 11.424123,163.537521 9.589434,158.931778 
	C7.442096,153.541199 6.533481,146.150406 10.700747,139.990341 
	C12.747163,136.965317 12.325223,133.028915 13.165185,129.585114 
	C16.117735,117.479790 22.688543,108.394264 32.777382,101.499313 
	C34.485790,100.331741 36.465084,99.625412 38.222939,98.577515 
	C42.813843,95.840752 43.648350,93.685081 42.589191,87.985275 
	C41.871620,84.123711 43.014946,78.433350 44.396553,73.691689 
	C46.928135,65.003265 51.426842,57.111847 55.245132,49.083721 
	C58.652603,41.919373 65.522400,36.793503 73.635834,33.782921 
	C83.720215,30.041000 93.873444,28.350990 104.644318,28.452579 
	C113.376137,28.534941 119.929268,33.393658 127.306725,36.510475 
	C134.752441,39.656136 138.785553,46.064369 142.473984,52.785728 
	C143.790817,55.185383 146.426865,56.610931 147.357712,59.383446 
	C150.581085,68.984062 153.853912,78.520958 153.409027,88.917343 
	C153.110947,95.883400 154.203964,96.849922 161.103867,97.657425 
	C162.240372,97.790436 163.504456,97.587563 164.163116,98.866325 
	C166.460388,103.326485 171.502945,104.890511 175.131607,107.083755 
	C181.295486,110.809334 182.999054,116.673698 186.338547,121.834366 
	C188.673447,125.442596 189.619232,129.794220 192.711914,133.073486 
	C193.000000,147.687561 193.000000,162.375122 193.000000,177.531342 
M128.811111,141.130936 
	C127.831902,144.334503 122.405960,144.390869 123.337738,148.996017 
	C124.656425,155.513428 121.244453,161.556244 121.305267,167.960815 
	C121.313255,168.802414 121.141792,169.716858 120.286514,170.091370 
	C116.398582,171.793732 116.284554,175.940598 114.583794,179.010498 
	C113.180099,181.544189 112.783028,184.643814 111.336250,187.143234 
	C109.755142,189.874710 105.825142,192.392410 110.160698,195.306091 
	C112.739853,197.039413 113.525269,201.414963 117.816551,200.661362 
	C120.513596,200.187729 122.831650,201.863785 124.606476,203.176010 
	C129.946259,207.123947 136.428329,207.488907 142.055099,207.143127 
	C148.859329,206.724960 155.654953,203.688126 162.130920,201.004272 
	C171.201385,197.245209 176.972412,189.699432 181.566452,181.396408 
	C184.895096,175.380402 186.009293,168.395691 187.334930,161.825394 
	C189.555161,150.821091 186.817307,139.716080 182.455383,129.687500 
	C177.206024,117.618652 166.444641,110.348740 155.245514,104.059212 
	C153.061737,102.832802 151.741653,103.800301 151.461166,106.188530 
	C150.857712,111.326515 147.721848,115.566666 146.428070,120.431282 
	C145.236115,124.913071 140.314758,126.629036 138.932434,130.463684 
	C137.109100,135.521744 134.049744,138.689331 128.811111,141.130936 
M54.100773,200.866882 
	C55.911980,202.159958 57.910580,202.527451 60.145733,202.689148 
	C67.959198,203.254410 75.567329,201.974655 83.173592,200.569550 
	C91.043327,199.115784 94.773788,191.587784 90.970772,184.795624 
	C90.494034,183.944199 89.892464,183.243683 89.679375,182.207138 
	C87.675789,172.460861 84.562309,162.877167 85.608788,152.704758 
	C85.869469,150.170807 84.507721,149.209335 82.207901,148.079056 
	C78.226219,146.122162 73.569748,145.615509 70.047287,143.316345 
	C65.294685,140.214218 61.187359,135.956970 57.333023,131.714050 
	C55.348595,129.529556 53.536053,127.065788 52.216915,124.055267 
	C50.755386,120.719765 51.847050,116.090187 47.901276,113.952888 
	C45.978439,112.911346 45.557419,111.416077 45.607456,109.440475 
	C45.643459,108.019081 45.996014,106.207085 43.944435,105.785263 
	C42.354103,105.458267 41.316105,106.424210 40.101410,107.485558 
	C38.010632,109.312386 37.207577,112.557770 34.293949,113.309341 
	C28.407713,114.827721 25.586983,120.130486 22.853886,124.251556 
	C17.763424,131.927185 17.600698,141.566574 16.430550,150.574158 
	C15.368434,158.750122 19.530161,166.166916 21.084850,173.970947 
	C21.519604,176.153275 23.128754,178.664047 25.328638,180.769623 
	C30.488977,185.708755 35.205906,190.986725 40.893620,195.512604 
	C44.819710,198.636703 48.290668,200.932220 54.100773,200.866882 
M127.678566,46.791866 
	C125.065750,45.182384 122.429558,43.609295 119.847977,41.951180 
	C117.992027,40.759129 115.694443,41.921703 113.744942,40.333488 
	C110.697678,37.850922 106.898720,36.975883 102.983475,36.329308 
	C96.022064,35.179684 89.892349,39.729340 83.030685,38.891506 
	C82.630798,38.842678 82.148109,39.281681 81.736877,39.545067 
	C76.762474,42.731129 72.163933,46.552460 66.466637,48.516861 
	C65.872795,48.721619 65.039345,49.025421 64.852127,49.496101 
	C62.161510,56.260277 55.290218,60.324223 53.791485,68.098961 
	C52.325886,75.701820 50.318565,83.087807 51.818829,90.593262 
	C61.456455,91.399826 70.746132,89.596344 80.205246,92.233818 
	C85.894699,93.820198 90.121956,96.990967 94.934349,99.683853 
	C98.487885,101.672325 101.607246,106.178856 106.305809,104.246719 
	C112.366020,101.754631 117.596848,97.535629 124.472092,96.616386 
	C129.496002,95.944664 134.411530,94.025970 139.329605,92.923920 
	C146.549057,91.306175 146.743805,92.137718 146.642578,84.729111 
	C146.615601,82.753624 145.723206,80.801605 145.547379,79.053139 
	C145.122879,74.832245 142.625229,71.562492 141.296326,67.851593 
	C138.539902,60.154430 135.735489,52.096745 127.678566,46.791866 
M68.658981,130.657578 
	C74.317787,133.942215 79.468910,138.436920 86.130768,138.791519 
	C90.340378,130.678192 90.397522,121.568512 96.680984,115.154388 
	C97.791359,114.020935 96.859436,112.819550 96.035973,112.111725 
	C92.595146,109.154083 89.452469,105.333626 85.437698,103.667534 
	C77.186340,100.243286 68.368813,98.514015 59.273991,98.884918 
	C55.013817,99.058662 52.594402,101.230560 53.400730,105.366989 
	C55.344704,115.339531 58.900917,124.487854 68.658981,130.657578 
M115.819458,110.036339 
	C112.881653,111.085083 109.490692,113.076591 111.250908,116.149147 
	C114.187981,121.275986 115.963562,126.855728 118.759544,131.965424 
	C119.702217,133.688187 121.846527,136.210358 123.791206,134.911987 
	C127.411758,132.494720 130.790924,129.429901 133.522141,126.032890 
	C137.736588,120.791054 139.659546,114.242355 142.423676,108.176346 
	C142.947037,107.027824 145.183228,106.536530 144.216782,104.681122 
	C143.389694,103.093231 141.605988,103.597748 140.165344,103.399086 
	C131.342453,102.182404 123.595047,105.081497 115.819458,110.036339 
M109.588875,172.147064 
	C112.556755,166.658585 111.873360,160.348282 113.460381,154.525757 
	C114.045677,152.378372 114.841705,148.635681 110.574142,148.484604 
	C105.435143,148.302658 100.280167,148.562881 95.132324,148.645386 
	C93.325928,148.674347 92.372452,149.580307 92.376457,151.428131 
	C92.387634,156.579453 91.851212,161.806107 92.553978,166.860809 
	C93.251289,171.876251 95.542625,176.609604 98.099411,181.025223 
	C99.313072,183.121231 100.875900,184.317535 103.597351,181.836166 
	C106.427773,179.255417 107.655495,175.955780 109.588875,172.147064 
M102.432983,122.469368 
	C99.885529,128.329437 94.160530,132.665039 93.944290,139.814697 
	C98.493454,141.231461 102.970695,140.458740 107.399002,140.491028 
	C111.275749,140.519302 111.818733,138.031418 110.906700,135.141647 
	C109.789261,131.601013 107.805840,128.401260 107.423149,124.531609 
	C107.201370,122.289146 105.479774,120.929199 102.432983,122.469368 
z"/>
</svg>