<svg version="1.1" id="Layer_1" xmlns="http://www.w3.org/2000/svg" xmlns:xlink="http://www.w3.org/1999/xlink" x="0px" y="0px"
	 width="100%" viewBox="0 0 192 224" enable-background="new 0 0 192 224" xml:space="preserve">
<path fill="#000000" opacity="1.000000" stroke="none" 
	d="
M193.000000,88.531731 
	C191.374344,88.500046 190.387360,88.928734 190.380600,90.794868 
	C190.346466,100.232277 185.661240,108.485947 181.151611,115.826149 
	C177.350693,122.012840 172.559464,128.880707 164.876297,132.169540 
	C160.288391,134.133438 158.776611,139.451294 161.060989,144.244324 
	C162.893738,148.089798 163.017548,151.815384 161.112259,155.570709 
	C160.473846,156.829010 160.098572,158.176010 160.396805,159.425079 
	C162.009064,166.177536 157.823273,171.898346 155.549667,177.173340 
	C153.247269,182.515137 150.161880,188.875763 144.869064,192.559921 
	C140.247986,195.776474 138.112518,201.447632 132.614212,203.711136 
	C126.602631,206.185928 121.295662,210.492798 114.345665,210.427765 
	C111.346161,210.399689 108.307549,210.122162 105.353378,210.491394 
	C95.758850,211.690552 87.907936,207.304581 79.603516,203.577820 
	C76.000069,201.960709 73.021088,199.408432 69.316498,197.934525 
	C67.114960,197.058609 65.328194,193.812485 63.964897,191.501831 
	C62.820366,189.561951 61.679565,187.713013 60.262047,185.916824 
	C54.293129,178.353516 51.036335,169.678970 50.694576,160.050827 
	C50.464153,153.559402 50.529327,147.049957 50.698151,140.554718 
	C50.797733,136.723419 50.293671,134.385834 45.944546,132.425552 
	C37.107582,128.442459 31.177525,120.628304 24.737219,113.550896 
	C20.055397,108.405930 19.849300,101.816704 17.438702,95.960472 
	C14.971326,89.966293 15.090183,83.538460 14.766245,77.685043 
	C14.477019,72.458885 14.574720,66.306351 16.425468,60.804981 
	C17.567301,57.410870 18.930313,54.020710 19.467941,50.517349 
	C19.858088,47.975018 20.716158,46.149673 22.737692,44.749588 
	C23.145401,44.467213 23.783817,44.274723 23.929253,43.893353 
	C26.123150,38.140404 31.305515,35.176914 35.422302,31.162069 
	C39.208603,27.469522 43.259674,24.499092 48.169331,22.580416 
	C50.289890,21.751705 52.688133,20.960424 54.189274,19.407085 
	C55.724010,17.818987 57.252251,17.714527 59.063393,17.641573 
	C61.514992,17.542818 64.593872,16.138975 66.094986,16.496508 
	C72.960915,18.131811 80.398216,15.733210 86.880989,19.638721 
	C88.946877,20.883305 90.924850,22.702372 93.555069,22.573957 
	C96.022049,22.453512 97.582191,23.753117 99.091110,25.373611 
	C102.089821,28.594070 105.099953,28.486650 108.053986,25.204449 
	C109.130051,24.008839 110.220360,22.992634 111.953476,22.366249 
	C123.978180,18.020250 136.643967,15.584704 148.881760,18.242422 
	C154.731247,19.512770 161.900879,21.662403 166.783188,26.694696 
	C168.930542,28.908009 171.744003,30.268017 174.141357,32.099174 
	C183.435089,39.197933 185.199921,50.247059 189.893494,59.719227 
	C190.838364,61.626060 190.134354,64.311974 190.376266,66.619217 
	C190.523468,68.023140 189.457977,70.301575 192.701736,70.085938 
	C193.000000,76.021156 193.000000,82.042305 193.000000,88.531731 
M146.147507,138.546616 
	C136.755066,137.211502 126.826317,141.171051 117.841141,135.473373 
	C114.662323,133.457611 110.670914,132.542297 107.873184,130.158875 
	C105.220421,127.898933 103.925667,128.510727 101.205925,129.931107 
	C93.740921,133.829636 86.529343,138.787994 77.617256,138.841965 
	C72.300430,138.874130 66.982178,138.526672 61.663143,138.423065 
	C60.034492,138.391342 58.209633,138.217087 57.548210,140.346771 
	C56.535271,143.608292 55.339687,146.708038 55.142391,150.307251 
	C54.937332,154.048080 57.748039,156.908447 57.239414,160.317398 
	C56.499729,165.275009 59.823154,168.896347 61.327969,172.906845 
	C64.298164,180.822739 70.643181,186.808990 76.595055,192.764954 
	C78.494583,194.665771 80.819839,196.521378 83.302902,197.391830 
	C93.131439,200.837311 103.280624,202.833542 113.749138,201.578323 
	C121.261650,200.677536 128.204315,197.613174 133.919357,192.897812 
	C139.536880,188.262955 143.105011,181.651810 146.656967,175.305603 
	C152.119003,165.546753 153.302490,154.895218 152.730331,143.889389 
	C152.580429,141.005600 152.465637,138.380386 149.902359,136.456375 
	C149.221024,137.690475 148.388916,138.674026 146.147507,138.546616 
M67.585098,102.873489 
	C73.642456,101.159203 76.617195,94.497826 82.911522,93.851509 
	C75.430069,71.167404 86.453186,53.232521 95.627289,34.600941 
	C92.263580,27.408552 83.794334,27.445782 77.618248,26.043486 
	C69.741127,24.254961 60.437561,23.053965 52.827198,29.828880 
	C48.844173,33.374657 43.475475,34.856667 39.646748,39.347538 
	C37.205315,42.211185 35.026894,45.616188 31.834867,48.195889 
	C26.786560,52.275799 24.077446,58.882462 22.756649,64.811974 
	C21.130680,72.111496 22.344238,80.049110 22.399570,87.710449 
	C22.406450,88.663048 22.555429,89.841148 23.114698,90.525848 
	C26.328747,94.460701 26.354223,99.681358 29.033335,104.035271 
	C32.417667,109.535255 36.350658,114.287903 40.869770,118.711349 
	C43.209076,121.001129 46.272011,122.143280 49.031643,123.774750 
	C53.212143,126.246216 54.028515,126.303146 54.585575,121.774834 
	C54.780949,120.186684 55.432171,119.021057 56.259007,117.750603 
	C59.534462,112.717766 62.930408,107.786758 67.585098,102.873489 
M159.398071,31.683867 
	C155.779816,28.080914 150.361084,26.668499 146.270386,26.063232 
	C138.373062,24.894730 129.445557,22.749056 122.142151,29.045958 
	C120.812187,30.192635 119.418327,31.187717 117.693077,30.849880 
	C114.464508,30.217665 113.685646,33.076412 112.656998,34.729038 
	C111.485748,36.610786 112.846588,38.598129 114.296791,40.478912 
	C117.419724,44.529091 122.185966,47.786591 122.978455,53.059330 
	C123.570343,56.997364 124.963371,60.653175 125.892677,64.420074 
	C128.116257,73.433220 128.245544,82.248245 125.884560,91.145355 
	C125.502190,92.586273 125.262291,94.364693 126.909081,94.292877 
	C131.167389,94.107185 133.218307,97.057289 135.966156,99.378059 
	C142.289185,104.718353 149.084427,109.465897 151.887634,117.917557 
	C152.777130,120.599365 154.579254,123.157913 157.850464,124.519470 
	C160.928314,121.767532 166.130630,122.180634 168.819016,119.037270 
	C176.804642,109.700157 184.345673,99.978912 183.693024,86.535538 
	C183.418732,80.885201 183.444870,75.202072 183.694000,69.549690 
	C183.940384,63.959824 181.607697,59.078068 180.271606,53.889355 
	C178.684586,47.726204 173.056992,45.102112 169.741592,40.500511 
	C167.150360,36.904003 163.736603,34.174110 159.398071,31.683867 
M97.132812,47.615055 
	C90.616570,57.487122 89.165894,68.795113 88.619698,80.147545 
	C88.480904,83.032326 90.606659,86.216621 90.643517,89.631653 
	C98.525665,89.631653 106.139206,89.736504 113.748116,89.593994 
	C118.640747,89.502357 120.788551,87.374603 120.587311,82.534103 
	C120.362228,77.120247 121.505638,71.802055 118.115845,66.352730 
	C116.016060,62.977200 115.747887,57.925491 113.450478,54.223072 
	C110.439468,49.370655 109.045723,43.113701 102.987160,40.603264 
	C100.020561,41.923733 99.149994,44.824062 97.132812,47.615055 
M146.906906,128.290710 
	C147.368317,127.614098 147.389038,126.995796 147.328842,126.097572 
	C147.065689,122.172211 142.861359,120.647293 142.015152,117.722679 
	C140.468307,112.376671 136.647446,109.011765 133.007645,105.748970 
	C130.903137,103.862442 126.084595,100.201126 124.102852,103.775543 
	C120.572105,110.143898 112.866669,113.576523 112.582207,122.195274 
	C119.663208,129.003754 128.986847,131.406448 139.371964,130.649918 
	C140.858551,130.541611 142.358475,130.619461 143.852173,130.605316 
	C145.120377,130.593307 146.097000,130.100845 146.906906,128.290710 
M61.275101,126.520515 
	C59.361214,129.885056 61.256500,130.871552 64.130463,130.586197 
	C70.314369,129.972168 76.356140,131.396713 82.794304,128.274628 
	C87.390396,126.045807 92.861725,125.742332 96.492043,120.844589 
	C90.085007,116.353760 89.501465,108.795319 86.484932,102.707085 
	C82.445564,103.614723 79.586143,105.986076 76.439346,107.758621 
	C69.158714,111.859703 64.769867,118.370651 61.275101,126.520515 
M96.547867,106.928413 
	C97.454323,108.069206 98.729355,109.082825 99.177521,110.381744 
	C99.790482,112.158348 100.084076,114.382751 102.310524,114.125351 
	C104.371140,113.887123 106.823357,113.986305 108.040138,111.151802 
	C109.304695,108.206032 111.514359,105.681244 113.011406,102.815971 
	C114.709175,99.566536 113.357697,97.565788 109.496483,97.421364 
	C106.358955,97.304001 103.212357,97.339233 100.072243,97.412315 
	C97.963188,97.461403 95.415878,97.098984 94.409348,99.494339 
	C93.354424,102.004829 93.720711,104.581894 96.547867,106.928413 
z"/>
</svg>