<svg version="1.1" id="Layer_1" xmlns="http://www.w3.org/2000/svg" xmlns:xlink="http://www.w3.org/1999/xlink" x="0px" y="0px"
	 width="100%" viewBox="0 0 192 224" enable-background="new 0 0 192 224" xml:space="preserve">
<path fill="#000000" opacity="1.000000" stroke="none" 
	d="
M193.000000,92.531342 
	C189.968155,95.034157 190.739883,98.803444 190.109238,101.459755 
	C188.925873,106.444206 186.654633,110.917992 184.834290,115.504799 
	C182.235565,122.052956 177.518860,127.347992 171.146011,130.902649 
	C168.383636,132.443436 166.687683,135.570389 162.942764,135.797668 
	C161.206619,135.903046 161.584045,138.113129 161.329117,139.567017 
	C160.524429,144.155884 163.527985,148.395905 163.119858,152.569107 
	C162.101410,162.982849 160.896332,173.549850 154.215225,182.394409 
	C152.742126,184.344528 151.455872,186.510971 150.485489,188.751846 
	C147.285049,196.142593 141.892181,201.675110 135.299652,205.860153 
	C130.869904,208.672211 126.267426,211.753418 120.508652,211.401794 
	C118.316681,211.267975 116.607552,211.799393 114.783768,213.555695 
	C112.079361,216.160065 100.564873,215.168549 97.393578,212.618057 
	C94.251488,210.091019 90.130478,210.737854 86.637047,209.903854 
	C76.844223,207.565964 70.949501,200.848236 64.650047,194.150345 
	C61.508202,190.809769 60.082703,186.402496 56.795265,183.046951 
	C54.436535,180.639389 54.911160,176.317871 53.829361,172.894531 
	C50.798702,163.304047 51.681423,153.281311 51.622227,143.386627 
	C51.614250,142.053894 51.597740,140.720505 51.546970,139.388885 
	C51.489429,137.879562 50.250271,136.340210 49.377007,136.279053 
	C42.535183,135.799866 40.438995,128.587555 35.609921,126.424049 
	C28.169985,123.090820 26.495728,116.044617 22.716127,110.629906 
	C18.180435,104.132011 16.213741,96.095833 16.611147,87.781830 
	C16.857546,82.627052 16.578188,77.449425 16.675892,72.284729 
	C16.850040,63.078968 20.686441,55.293190 25.142027,47.351799 
	C29.977730,38.732914 37.510998,33.230160 44.977211,27.959471 
	C56.392582,19.900919 69.227425,17.620277 83.456009,20.802250 
	C89.017677,22.046022 94.413399,23.995428 98.236244,26.940519 
	C103.343559,30.875160 105.667313,29.771933 110.676735,27.110361 
	C116.713158,23.903131 123.629898,21.247595 130.456757,20.167469 
	C136.263275,19.248777 142.399307,19.355345 148.582397,20.443161 
	C156.429138,21.823666 162.283401,26.507420 168.852097,29.960440 
	C172.740555,32.004520 176.403320,35.266064 178.211441,39.333260 
	C179.462082,42.146458 182.975723,40.920265 183.837341,44.281063 
	C185.107849,49.236816 187.774918,53.819096 189.539673,58.672268 
	C190.127426,60.288567 191.037277,60.678085 192.699799,60.942627 
	C193.000000,71.354225 193.000000,81.708458 193.000000,92.531342 
M128.341904,84.426163 
	C128.134399,88.184341 129.066376,92.051300 127.004959,95.818550 
	C130.810867,97.515793 134.923431,99.384590 133.097000,104.371460 
	C131.277161,109.340385 127.819710,103.963615 124.963135,105.007416 
	C123.827515,111.295830 119.150887,115.326332 115.140785,119.831955 
	C111.612503,123.796249 112.017059,125.510475 116.609268,127.987473 
	C120.706535,130.197495 124.825409,132.104965 129.671387,131.687073 
	C130.930725,131.578461 132.298630,131.455566 133.236786,132.853607 
	C135.259476,135.867889 138.923660,135.329346 140.824921,134.187576 
	C143.299896,132.701294 146.024017,131.863220 148.759644,130.575272 
	C147.893311,127.455498 146.945908,124.393784 150.774338,123.078537 
	C154.273788,123.837463 156.757584,126.396706 159.861816,127.504280 
	C163.824203,128.918060 165.169983,124.946808 167.282883,122.924980 
	C172.792480,117.652863 178.259537,112.330124 181.860001,105.413521 
	C183.113113,103.006226 182.773270,100.370430 183.845947,97.840324 
	C185.937042,92.908035 185.911636,86.932320 185.800247,82.003281 
	C185.692780,77.247650 185.529083,71.922874 184.534424,67.000221 
	C183.507690,61.918758 182.902237,56.156071 179.668198,52.288475 
	C171.889297,42.985718 163.742188,33.821346 150.970947,30.845737 
	C146.592728,29.825644 141.735367,32.058380 137.790955,28.712976 
	C132.400101,32.374348 125.901505,30.385963 120.022667,32.242641 
	C112.845428,34.509384 111.602348,37.045578 115.647850,43.154446 
	C117.762459,46.347569 120.554260,49.228378 122.124931,52.530609 
	C126.733849,62.220604 129.559326,72.487183 128.341904,84.426163 
M140.225922,188.928345 
	C140.996140,187.868057 141.535614,186.308563 142.574066,185.828537 
	C149.279358,182.729019 148.717819,175.311188 151.082199,170.100372 
	C154.227661,163.168121 154.210556,154.782562 153.723877,146.785187 
	C153.305344,139.907608 153.620712,139.924637 147.260910,142.060272 
	C146.187851,142.420624 144.952667,142.482666 143.808304,142.414703 
	C138.436508,142.095673 133.188766,142.642883 127.704735,140.775345 
	C121.348915,138.610901 115.067162,136.824005 109.318146,133.102707 
	C106.563484,131.319626 102.470367,128.575989 100.022873,134.275589 
	C99.781990,134.836533 98.691284,135.094269 97.949074,135.368286 
	C93.010628,137.191483 88.821190,140.317429 83.206512,141.216461 
	C76.584702,142.276733 70.386047,143.177032 63.908024,141.010254 
	C60.973221,140.028610 58.112038,140.008896 58.328243,144.551422 
	C58.413788,146.348709 58.100590,148.011780 57.217377,149.778824 
	C55.788528,152.637497 56.057941,155.671082 57.333355,158.839615 
	C58.808235,162.503693 60.095188,166.413940 61.022034,170.134354 
	C63.616741,180.549698 70.004402,187.891281 77.330460,195.052704 
	C80.220215,197.877518 84.690338,197.362915 86.648781,199.612823 
	C91.012993,204.626526 98.031769,201.903732 102.339996,206.228836 
	C102.954987,206.846222 104.894157,206.528748 105.656662,204.929947 
	C106.606171,202.939072 107.944496,202.613205 109.407402,204.494675 
	C109.734756,204.915695 109.417740,205.728241 110.619217,205.173309 
	C116.780518,202.327484 124.250740,204.116089 129.987885,198.856354 
	C133.308914,195.811691 138.251862,194.536057 140.225922,188.928345 
M41.357361,121.204948 
	C44.924263,125.316521 49.495983,127.694969 55.422935,129.560135 
	C54.246696,123.564003 58.649551,120.578438 60.963364,116.615356 
	C65.429657,108.965515 71.247978,102.505394 79.461967,98.647537 
	C81.651154,97.619339 82.463005,96.622589 82.067245,93.765503 
	C81.156609,87.191528 80.022179,79.955353 82.330437,74.002396 
	C84.782776,67.677872 86.282715,61.081726 88.253258,54.717888 
	C90.175858,48.508896 94.047302,43.691845 96.113052,38.092262 
	C91.990662,28.870918 81.487892,32.237835 74.559586,27.697361 
	C70.974976,25.348185 66.337227,29.529556 62.271801,30.096079 
	C53.447353,31.325779 47.112640,36.127388 41.060558,41.736984 
	C37.028946,45.473839 33.651501,49.642208 30.693796,54.516632 
	C27.447197,59.867165 25.157961,65.815231 23.985285,71.252327 
	C21.861805,81.097786 23.263826,91.262100 27.445787,101.128914 
	C30.700251,108.807404 35.678307,114.687630 41.357361,121.204948 
M121.645172,75.692352 
	C121.508240,73.707123 122.066940,71.265472 121.115166,69.814880 
	C116.761841,63.180023 114.590988,55.359135 109.505539,49.112373 
	C107.968956,47.224895 108.266212,43.883865 104.132393,43.259563 
	C100.164360,49.650482 94.242096,54.940800 93.071037,63.789932 
	C91.924774,72.451691 87.275635,80.514839 91.138054,89.819466 
	C92.648750,93.458771 93.670509,94.305222 97.036354,92.869690 
	C102.787575,90.416779 108.828964,91.340218 114.644112,92.197586 
	C118.806290,92.811241 121.183426,91.983116 121.519867,87.631142 
	C121.801704,83.985504 121.621902,80.304176 121.645172,75.692352 
M91.028229,129.531677 
	C93.037483,128.547791 95.046738,127.563904 97.102341,126.557327 
	C94.688484,119.610672 89.623833,114.195023 88.124886,106.950935 
	C86.482597,106.950935 84.578583,106.351067 83.624603,107.049278 
	C77.865417,111.264320 71.965340,115.405235 66.853958,120.339188 
	C64.126709,122.971764 63.574207,127.402031 62.520901,131.230515 
	C69.307716,132.333466 76.069542,131.275848 82.796577,131.655304 
	C85.562157,131.811310 88.017799,131.246674 91.028229,129.531677 
M94.245071,105.410179 
	C96.576744,108.722923 98.773659,112.142044 101.279785,115.317085 
	C103.567513,118.215431 107.041771,118.489563 108.361107,116.080948 
	C110.813698,111.603432 113.138100,107.055710 115.613968,102.350800 
	C112.965500,101.397064 110.140907,99.283386 108.179092,99.902725 
	C104.150078,101.174637 100.136871,100.978294 96.129189,101.464706 
	C94.072876,101.714272 93.079956,102.677521 94.245071,105.410179 
z"/>
</svg>