<svg version="1.1" id="Layer_1" xmlns="http://www.w3.org/2000/svg" xmlns:xlink="http://www.w3.org/1999/xlink" x="0px" y="0px"
	 width="100%" viewBox="0 0 192 240" enable-background="new 0 0 192 240" xml:space="preserve">
<path fill="#000000" opacity="1.000000" stroke="none" 
	d="
M18.373344,133.447083 
	C15.656279,130.584930 15.302429,126.556946 15.210976,123.977142 
	C14.804348,112.506470 12.316933,100.658180 17.182669,89.631767 
	C18.525721,86.588226 18.777515,83.402809 20.128382,80.359871 
	C24.247166,71.081978 31.240778,65.036957 39.107838,59.096870 
	C43.564899,55.731533 48.309208,53.626675 53.224167,52.141205 
	C59.280907,50.310658 65.028236,46.731468 71.784584,47.605045 
	C74.890839,48.006676 76.886169,47.355545 78.039169,43.698303 
	C80.010361,37.445862 85.747406,33.696487 89.528160,28.612041 
	C96.118889,19.748693 105.374893,16.013102 115.859360,14.614344 
	C118.495071,14.262709 119.846214,11.926416 122.802773,11.485354 
	C129.610992,10.469697 134.873505,14.552609 141.008148,15.420425 
	C146.520447,16.200209 151.068481,19.481581 156.023041,21.731642 
	C159.621811,23.365986 161.862732,26.262703 164.529846,28.820778 
	C170.463531,34.511879 174.847549,41.133297 178.653030,48.508755 
	C182.913315,56.765678 182.906952,65.255707 183.544113,74.003792 
	C184.443527,86.352898 180.649872,97.384720 175.501694,108.140732 
	C174.430664,110.378418 174.795120,111.532196 176.052490,113.413368 
	C180.389404,119.901840 184.818314,125.900108 186.035812,134.496964 
	C186.891159,140.536682 186.646210,147.008224 188.868683,153.245560 
	C190.247787,157.115997 188.252655,163.235367 186.642212,167.717224 
	C185.190109,171.758469 185.478439,175.982117 183.751221,180.029922 
	C182.130615,183.827896 180.938309,187.643692 178.393341,191.084656 
	C174.118637,196.864349 169.095490,202.609253 162.918472,205.208786 
	C154.646225,208.690109 146.909485,214.977173 136.883209,213.448792 
	C134.083923,213.022095 131.179565,213.349518 129.136307,216.602234 
	C126.004044,211.371002 120.628220,213.689392 116.422020,211.745682 
	C105.989067,206.924576 95.575150,201.832779 89.716118,191.845795 
	C86.218651,185.884232 80.402176,180.920258 79.678627,173.415512 
	C79.414665,170.677643 77.584061,170.111679 75.437485,170.447113 
	C67.575363,171.675629 60.045216,169.201508 52.470371,168.083755 
	C48.250732,167.461105 44.103264,164.643341 40.493771,162.027588 
	C36.072674,158.823700 31.199766,155.881805 28.279896,151.016785 
	C24.888620,145.366348 19.853994,140.635468 18.373344,133.447083 
M181.779434,144.564713 
	C180.179398,140.263489 180.512817,135.464279 177.701065,131.397552 
	C175.040970,127.550133 173.644073,122.911224 169.917938,119.655762 
	C168.532547,118.445374 167.486267,117.903961 166.087097,118.924873 
	C163.728790,120.645676 161.263474,122.321869 159.274597,124.424866 
	C155.590500,128.320358 150.376419,129.535675 145.976105,132.046280 
	C141.093445,134.832077 134.923035,135.123932 129.125168,134.350174 
	C124.359589,133.714188 121.535225,136.607193 118.498711,139.383881 
	C116.815315,140.923233 117.214661,143.246292 115.842873,145.097443 
	C111.436363,151.043732 105.127884,155.222443 101.122101,161.484604 
	C100.283760,162.795151 98.801430,163.077820 97.334541,163.555878 
	C91.139000,165.575027 87.790504,169.482666 89.562157,174.118088 
	C92.520157,181.857529 95.462044,189.841446 103.656296,194.277054 
	C105.480644,195.264587 107.871147,194.912750 109.251442,196.959122 
	C113.985245,203.977310 121.880814,204.474442 129.043839,205.434845 
	C135.932602,206.358475 142.428223,205.111664 149.185303,201.312820 
	C156.054108,197.451157 163.112473,194.721771 168.770523,188.610229 
	C173.789642,183.188812 177.740631,176.860519 179.985413,170.582016 
	C182.748764,162.853149 184.202194,153.977814 181.779434,144.564713 
M71.139336,162.643219 
	C75.824875,162.849411 77.814323,160.450104 77.629372,155.938049 
	C77.121094,143.538101 77.730820,131.472488 85.882065,121.024849 
	C87.387253,119.095612 87.980637,115.011742 85.237648,113.975761 
	C80.296455,112.109550 80.190819,107.310913 77.758194,104.028061 
	C73.554077,98.354568 73.088707,90.956551 71.339684,84.472656 
	C69.163246,76.404259 69.967369,67.322777 71.375900,58.532101 
	C69.982277,58.532101 68.459229,58.738724 67.009995,58.499069 
	C56.427841,56.749134 49.003086,63.852673 40.473907,67.854866 
	C38.860996,74.431152 32.197300,76.980942 28.946049,82.456703 
	C24.650879,89.690643 21.057430,96.798004 21.316057,105.441162 
	C21.492796,111.347702 21.594168,117.121628 23.121277,123.006218 
	C24.733612,129.219223 27.178568,135.164505 30.863155,139.881577 
	C36.710449,147.367371 42.616550,154.926605 52.804649,158.200638 
	C58.609119,160.065964 64.267021,161.857635 71.139336,162.643219 
M93.748001,54.600845 
	C95.565102,55.787182 96.857880,57.418732 99.262917,58.172977 
	C101.796112,58.967415 104.198830,61.002964 106.508987,62.879410 
	C111.856384,67.222878 114.435692,73.378510 117.920639,78.764732 
	C120.388046,82.578247 125.387901,85.325775 124.732628,91.192245 
	C124.481049,93.444557 127.167572,93.553795 128.984802,93.583527 
	C133.815033,93.662582 138.647537,93.591286 143.478470,93.642975 
	C149.044785,93.702530 154.828995,95.597771 158.511292,98.701668 
	C162.144974,101.764580 164.958649,102.364548 168.524094,101.928429 
	C174.180695,91.693367 175.617920,81.061325 175.841782,69.816048 
	C176.069214,58.389511 170.571381,49.591770 164.819351,41.011776 
	C158.968811,32.284847 150.005844,26.964653 139.826263,24.169003 
	C127.166893,20.692322 114.684280,20.876637 103.248909,28.051092 
	C100.705177,29.647003 96.800507,30.540974 95.800362,33.068569 
	C93.427246,39.065983 88.285934,43.376579 86.731392,50.016243 
	C87.949989,52.225536 90.687149,53.130367 93.748001,54.600845 
M110.848572,83.439224 
	C111.203331,79.083389 106.885178,78.115723 104.984138,75.390305 
	C100.077682,68.356209 92.705750,64.417236 85.620064,60.092022 
	C82.853348,58.403175 81.358612,58.619434 79.844109,61.723251 
	C78.931015,63.594551 78.220573,65.296852 78.360336,67.328972 
	C78.785782,73.514999 78.010178,79.620865 79.998795,85.910545 
	C81.877960,91.854065 83.303276,97.672714 87.828072,102.203400 
	C88.538879,102.915131 89.009064,103.661636 89.351334,104.665077 
	C91.212837,110.122536 92.947578,110.592422 97.256058,106.850395 
	C98.232956,106.001930 98.835777,104.735291 99.764244,103.816154 
	C102.427124,101.179993 103.958748,97.718636 108.852478,97.224380 
	C114.763809,96.627357 115.395477,94.064926 112.732086,88.326096 
	C112.107803,86.980942 111.692833,85.538651 110.848572,83.439224 
M138.817871,125.364235 
	C145.312592,119.991470 155.182938,119.749283 159.875778,111.898956 
	C157.842239,105.638100 151.283905,106.743858 147.435150,103.497398 
	C142.743271,99.539734 136.660553,101.878746 131.190643,101.406265 
	C127.651283,101.100533 126.119064,102.496918 126.270355,106.282272 
	C126.527786,112.723534 126.341217,119.182526 126.341217,125.931541 
	C130.144073,126.893311 134.163696,127.197258 138.817871,125.364235 
M87.361183,140.695694 
	C85.454987,147.166611 84.027580,153.640884 86.479996,160.494705 
	C88.491318,158.656281 89.769180,157.073471 91.402252,156.066925 
	C98.733253,151.548309 105.776848,146.790710 109.677933,138.679199 
	C110.505302,136.958862 113.928551,136.020538 111.726768,133.456390 
	C110.302574,131.797821 108.210129,129.853531 106.263969,129.671082 
	C101.317245,129.207336 97.901405,125.835121 93.757172,124.193291 
	C88.879448,128.318909 90.123108,134.873245 87.361183,140.695694 
M116.049706,123.056236 
	C116.735451,118.565247 119.421257,114.531319 118.704613,109.671219 
	C118.278282,106.779907 117.496086,105.495338 114.300003,106.160011 
	C107.765060,107.519043 102.685753,110.828705 98.598213,116.866852 
	C103.718826,121.038788 109.564743,122.639832 116.049706,123.056236 
z"/>
</svg>