<svg version="1.1" id="Layer_1" xmlns="http://www.w3.org/2000/svg" xmlns:xlink="http://www.w3.org/1999/xlink" x="0px" y="0px"
	 width="100%" viewBox="0 0 240 272" enable-background="new 0 0 240 272" xml:space="preserve">
<path fill="#000000" opacity="1.000000" stroke="none" 
	d="
M109.651901,206.236267 
	C105.149803,199.978210 104.387856,192.617157 101.555809,186.123672 
	C98.870201,179.965927 97.186600,173.491013 93.743767,167.442932 
	C90.963913,162.559509 87.976410,156.795639 87.421616,150.438950 
	C87.153435,147.366211 84.996582,144.321198 83.242577,141.549911 
	C81.046150,138.079605 80.904549,128.781799 83.507843,125.357056 
	C84.148155,124.514694 84.634209,123.694290 84.604416,122.670029 
	C84.460030,117.705658 87.233879,113.967049 89.739937,110.080757 
	C91.163963,107.872429 92.040031,105.015884 92.267525,102.775284 
	C93.049385,95.074692 97.544441,89.274277 100.914917,82.874207 
	C102.469368,79.922493 102.413498,76.443130 102.961578,73.400337 
	C104.660545,63.968082 110.836739,56.182159 111.876465,46.592323 
	C112.128220,44.270267 114.740845,42.534130 115.234917,39.757740 
	C115.549973,37.987404 120.692566,38.324780 120.983994,40.197060 
	C122.169052,47.810364 126.395859,54.219753 129.772202,60.734898 
	C133.321487,67.583740 134.890533,75.273430 139.688904,81.647865 
	C142.544617,85.441551 143.385773,90.714912 145.350983,95.227959 
	C146.787918,98.527916 148.659607,101.635788 150.194031,104.896797 
	C151.998108,108.730904 152.189117,113.051064 153.036774,117.095078 
	C153.693115,120.226242 154.765244,122.536385 156.798416,124.704689 
	C160.189072,128.320679 159.609909,131.284378 157.520798,135.880585 
	C155.867889,139.517105 153.807312,143.050659 152.893219,147.315979 
	C151.977829,151.587372 153.017960,156.935120 148.879303,160.485382 
	C148.141937,161.117920 148.504227,163.012894 148.323898,164.320145 
	C148.166885,165.458344 148.377853,167.087799 147.711014,167.646423 
	C141.623230,172.746292 141.080338,180.914688 136.899887,186.844818 
	C133.810669,191.227005 134.555603,196.163513 132.521149,200.571426 
	C131.469284,202.850433 130.037506,205.115402 128.954575,207.296768 
	C126.309296,212.625183 125.646324,218.581757 122.814758,223.720001 
	C121.626076,225.877029 120.227638,227.911057 117.037247,227.295303 
	C113.987274,226.706619 115.333961,224.236343 114.583420,222.648422 
	C112.163544,217.528671 111.642914,211.868683 109.651901,206.236267 
M96.075630,113.239960 
	C95.038963,114.641357 93.304436,115.445999 93.313385,117.691422 
	C93.331909,122.336922 91.729698,126.400696 89.014053,130.300949 
	C87.637703,132.277649 87.288925,135.512695 89.792328,137.544479 
	C91.023987,138.544098 91.296677,139.620850 91.314560,140.972839 
	C91.432762,149.908234 96.789581,156.924164 100.767082,164.156342 
	C104.011436,170.055466 103.931137,176.745987 107.193352,182.469299 
	C108.125366,184.104431 108.478058,186.244385 109.239944,188.133621 
	C111.266724,193.159424 114.222939,198.012787 115.098389,203.287720 
	C115.702881,206.930038 116.904449,209.107193 121.059013,211.729538 
	C118.240540,203.027191 126.086128,198.855438 126.559135,191.599808 
	C126.807365,187.792084 130.330002,183.477127 132.334976,179.367081 
	C133.773071,176.419067 132.634064,173.252762 134.089493,170.776993 
	C138.032074,164.070435 142.574570,157.773514 145.361084,150.354767 
	C147.582840,144.439621 150.592422,138.897873 150.735123,132.320679 
	C150.826462,128.110153 148.593018,124.460632 148.133438,120.787254 
	C147.349503,114.521286 142.755341,110.718552 140.857178,105.335625 
	C139.041672,100.187126 136.046906,95.462692 133.695953,90.492508 
	C131.225830,85.270416 132.728165,78.204521 126.382431,74.764229 
	C126.142075,74.633919 125.909988,74.195824 125.930367,73.920090 
	C126.398781,67.581650 121.273621,62.997585 120.651009,57.018940 
	C120.490303,55.475788 119.933838,54.486050 118.227226,54.507736 
	C116.450722,54.530312 115.460815,55.282951 115.374405,57.190594 
	C115.292557,58.997566 115.628578,61.242599 114.707619,62.523132 
	C109.468079,69.808380 108.074478,78.682236 104.819901,86.725777 
	C102.428993,92.634811 102.048561,99.452568 99.548042,105.638245 
	C98.584702,108.021355 95.356430,109.287254 96.075630,113.239960 
z"/>
</svg>