<svg version="1.1" id="Layer_1" xmlns="http://www.w3.org/2000/svg" xmlns:xlink="http://www.w3.org/1999/xlink" x="0px" y="0px"
	 width="100%" viewBox="0 0 256 256" enable-background="new 0 0 256 256" xml:space="preserve">
<path fill="#000000" opacity="1.000000" stroke="none" 
	d="
M122.764389,88.768555 
	C125.950203,90.969551 129.499542,92.100990 131.761597,94.911049 
	C133.549667,97.132301 136.229355,98.961143 135.425446,102.571442 
	C134.951035,104.702049 135.702545,106.948792 137.949249,107.335938 
	C139.779190,107.651268 141.419540,106.405777 142.843033,104.730209 
	C147.895035,98.783615 153.299789,93.138199 158.439056,87.263336 
	C160.018707,85.457573 160.895309,85.247910 162.630569,87.213448 
	C171.115051,96.823822 179.889816,106.180092 188.272385,115.876526 
	C190.098862,117.989258 190.869736,121.283264 186.661346,122.414833 
	C183.647156,123.225319 184.802628,125.966835 183.727859,127.967491 
	C176.505722,128.054306 174.851395,135.201218 170.410095,138.993256 
	C167.461945,141.510422 165.040695,144.678589 162.566376,147.704803 
	C160.947327,149.684967 159.959351,149.516418 158.313751,147.625153 
	C153.274612,141.833801 147.860611,136.362564 142.952591,130.466980 
	C141.546219,128.777634 139.373367,128.166107 138.465469,126.068153 
	C136.405930,128.357513 135.269714,130.618362 135.281799,133.680084 
	C135.301117,138.572083 130.998047,140.826050 127.783188,143.107986 
	C124.575699,145.384689 120.815392,147.561615 116.267410,146.669495 
	C113.544891,146.135452 112.501282,149.701477 109.290115,149.525330 
	C97.897461,148.900421 85.839798,141.775909 82.594742,129.244141 
	C81.497063,125.005112 78.880486,121.313889 79.501701,116.466942 
	C80.078056,111.969955 80.838837,108.022781 82.847778,103.635483 
	C85.879173,97.015259 91.545784,93.245735 95.366997,87.721352 
	C95.819016,87.067848 96.457458,85.976051 96.954269,86.005920 
	C104.335159,86.449608 112.009789,83.322441 119.087074,87.788460 
	C120.009186,88.370346 121.276276,88.405563 122.764389,88.768555 
M98.104027,95.527985 
	C94.756699,100.753136 87.453682,103.496704 88.222633,111.321587 
	C88.306374,112.173729 87.619728,112.740288 87.026558,113.370178 
	C84.482742,116.071434 84.337029,119.010544 87.034782,121.599495 
	C88.350494,122.862137 88.254494,124.216156 88.331062,125.664200 
	C88.691200,132.475204 94.519356,135.527679 98.724747,139.149017 
	C100.223473,140.439590 102.832939,142.901520 106.263664,142.781830 
	C111.479027,142.599884 115.651077,139.771149 120.259064,138.205566 
	C124.939613,136.615295 127.938690,132.857529 130.050446,127.865944 
	C132.828079,121.300323 132.264420,114.715385 130.831650,108.587303 
	C129.630737,103.450851 125.815689,98.668518 120.215431,96.558350 
	C115.423607,94.752815 111.097931,91.607971 105.339951,92.582176 
	C102.724442,93.024696 101.679314,96.201012 98.104027,95.527985 
M143.493774,119.796921 
	C148.257355,126.863045 154.875824,132.234573 160.618393,139.176346 
	C167.170425,131.795441 173.402893,124.774551 179.754211,117.619751 
	C173.352417,110.348824 166.961823,103.090591 160.739761,96.023788 
	C155.995316,99.410362 153.492477,104.299103 149.409912,107.878532 
	C146.274414,110.627609 142.275223,113.665024 143.493774,119.796921 
z"/>
</svg>