<svg version="1.1" id="Layer_1" xmlns="http://www.w3.org/2000/svg" xmlns:xlink="http://www.w3.org/1999/xlink" x="0px" y="0px"
	 width="100%" viewBox="0 0 256 256" enable-background="new 0 0 256 256" xml:space="preserve">
<path fill="#000000" opacity="1.000000" stroke="none" 
	d="
M1.000000,93.468658 
	C2.663141,96.077744 1.409884,99.553459 2.385112,102.779243 
	C1.732474,94.377594 6.387525,87.249069 7.897390,79.370667 
	C8.215666,77.709915 10.213544,76.337646 11.517344,74.905113 
	C16.469778,69.463715 21.074162,63.618759 26.569189,58.790161 
	C29.922722,55.843342 33.850372,53.333611 37.606106,50.761475 
	C38.609833,50.074062 39.956959,49.964870 40.793793,48.731319 
	C43.004738,45.472260 46.125469,44.712303 50.070110,44.376957 
	C54.208050,44.025185 58.440887,42.300961 62.167488,40.307652 
	C65.806915,38.360973 68.775108,36.834698 71.869751,40.805748 
	C72.832230,42.040798 74.347275,41.717335 75.613022,41.604671 
	C86.675407,40.620049 96.133087,44.558907 105.482796,50.103725 
	C115.157974,55.841564 123.734421,62.796692 130.051712,71.843285 
	C134.772232,78.603210 139.308319,85.920776 139.492401,94.924637 
	C139.569443,98.693466 143.389160,101.486259 143.493729,105.827263 
	C146.464676,101.742218 150.774170,99.543953 153.010727,94.777489 
	C154.757782,91.054260 156.473022,85.404556 162.970306,86.235123 
	C163.386475,83.446632 163.024155,80.399849 166.987411,80.297607 
	C168.249222,80.265053 168.529800,78.717949 168.617477,77.512657 
	C168.722168,76.073662 169.090714,74.797455 170.826859,74.750023 
	C173.507431,74.676781 174.756760,73.354393 174.748825,70.695114 
	C174.747482,70.244537 174.972290,69.565834 175.309326,69.374756 
	C185.375839,63.667637 191.074036,53.622208 198.969666,45.768188 
	C200.873550,43.874352 203.659943,43.398178 205.603821,46.517612 
	C207.197250,49.074673 208.851013,51.678558 212.661652,50.573101 
	C213.425095,53.626690 213.333893,56.516571 217.200226,57.154743 
	C219.526108,57.538654 218.111618,60.933258 220.041061,62.894348 
	C224.192383,67.113716 229.997360,69.168716 233.457565,74.268654 
	C235.828110,77.762543 240.031631,80.012115 240.449432,84.830765 
	C240.606003,86.636536 242.491791,86.831894 243.443741,87.938957 
	C247.079971,92.167633 252.183792,94.624229 256.718506,98.066315 
	C257.000000,111.354225 257.000000,124.708458 257.000000,138.531342 
	C253.931931,138.151779 251.200546,137.839249 251.336105,142.386353 
	C251.361694,143.244812 251.057693,144.015671 250.183151,144.421066 
	C243.114532,147.697510 238.126343,152.950302 235.056458,160.112442 
	C234.097260,162.350250 231.142776,160.595612 229.856201,162.364120 
	C223.005234,171.781311 214.137985,179.386612 206.659149,188.234741 
	C205.128250,190.045944 203.912598,191.927109 201.054108,191.319016 
	C198.336609,190.740921 197.143967,188.562775 196.854584,186.436905 
	C196.499329,183.827164 195.762619,182.528183 193.017426,182.398468 
	C190.417755,182.275620 189.195267,179.822296 187.879395,178.200531 
	C179.085205,167.362030 168.863876,157.880386 159.396118,147.688721 
	C154.045792,141.929291 148.767578,136.102875 143.819565,130.702454 
	C137.722031,135.810791 140.285385,143.493774 137.646851,149.744034 
	C136.385849,152.731125 134.955185,155.809204 133.102280,158.043900 
	C126.682709,165.786240 119.607109,172.992264 112.653122,180.280212 
	C109.759033,183.313278 106.375633,185.943512 101.842896,185.375885 
	C98.541908,184.962524 96.711311,187.765472 94.908081,189.093994 
	C91.659073,191.487656 88.570496,191.189941 85.223709,191.399658 
	C82.208237,191.588577 78.802574,190.380096 76.587212,193.750702 
	C76.361771,194.093689 75.069710,194.239807 74.769012,193.954361 
	C69.366104,188.825562 62.762913,191.827805 56.794117,191.591537 
	C51.428871,191.379166 47.543240,189.268967 43.240192,186.539612 
	C39.425396,184.119949 34.937023,182.782593 31.330986,179.730484 
	C28.527367,177.357559 26.840109,173.459808 22.584208,172.956909 
	C23.016991,168.115265 17.510855,167.308533 16.029102,163.209412 
	C14.776423,159.743988 11.256683,156.572647 8.732898,153.274445 
	C7.009572,151.022324 5.371915,148.910187 5.601666,145.781616 
	C5.897699,141.750443 1.869642,139.273392 1.273940,135.199615 
	C1.000000,121.312439 1.000000,107.624878 1.000000,93.468658 
M63.021038,54.405140 
	C58.050716,55.297977 52.989540,53.000511 47.904076,56.893295 
	C44.267605,59.676910 41.645924,63.653946 37.749512,65.716751 
	C30.222147,69.701828 25.692677,75.756104 21.768276,83.112267 
	C20.102579,86.234566 20.096550,90.336006 17.219797,92.552902 
	C12.868350,95.906219 12.752995,101.484001 11.967650,105.498360 
	C9.788380,116.637924 10.398505,128.430832 14.837065,139.013672 
	C17.827906,146.144730 21.695938,153.210892 27.335136,159.065308 
	C35.136433,167.164352 43.512657,174.466537 54.133018,178.351715 
	C61.254902,180.957062 68.740669,182.849411 76.560287,181.656021 
	C78.014465,181.434097 79.815674,181.950409 80.701042,180.503983 
	C82.025192,178.340698 83.943871,178.580185 85.946381,178.606323 
	C88.706604,178.642380 91.045830,178.499435 93.614548,176.363068 
	C95.296875,174.963928 97.231979,172.686874 100.117111,172.441422 
	C103.578362,172.146942 105.992096,169.532211 108.760445,167.760941 
	C114.346916,164.186508 116.059433,157.532425 120.362587,152.963669 
	C126.710815,146.223602 129.688278,138.161453 130.681534,129.129761 
	C131.199753,124.417519 128.915726,119.320221 133.181870,115.016876 
	C134.371048,113.817329 134.352112,110.422249 132.593658,108.995224 
	C130.483109,107.282455 130.422134,105.277733 130.698456,103.222649 
	C131.384506,98.120209 128.662827,93.798409 126.093376,90.461334 
	C122.002457,85.148247 118.877869,79.206116 114.617493,74.073486 
	C108.774033,67.033669 101.400787,61.936718 93.781082,56.907166 
	C86.353828,52.004650 77.222511,57.310272 70.127983,51.583641 
	C67.781685,49.689735 66.390167,54.268742 63.021038,54.405140 
M241.659027,134.214569 
	C245.579697,130.543839 248.274323,125.780571 252.482407,122.330025 
	C255.299835,120.019791 255.100983,116.951759 252.523590,114.729118 
	C243.664795,107.089645 237.521484,97.035690 228.948898,89.058105 
	C220.274704,80.985947 212.818802,71.600853 204.878662,62.746525 
	C203.050415,60.707787 201.116425,59.740341 199.301804,62.374512 
	C195.116287,68.450356 189.383789,73.098976 184.622604,78.660309 
	C174.223297,90.807274 163.284836,102.503494 152.281799,114.113930 
	C149.975403,116.547653 149.409500,120.011276 150.808716,121.148064 
	C155.330215,124.821495 157.080414,131.747269 163.922379,132.303986 
	C164.205658,137.648361 169.493164,139.284821 171.249832,143.574020 
	C173.091187,148.069931 178.828003,149.217529 181.951981,152.746323 
	C188.057281,159.642792 197.059799,164.159363 199.657013,173.988251 
	C199.944748,175.077164 200.891220,175.500397 201.982300,175.504044 
	C203.300415,175.508453 204.194351,174.920212 204.529633,173.592575 
	C204.872360,172.235428 204.403183,170.714432 206.208588,169.773621 
	C211.513809,167.009094 215.603943,163.138474 217.914749,157.337677 
	C218.718674,155.319580 220.314606,152.881287 223.163406,152.713333 
	C225.035965,152.602905 225.994644,151.618851 227.147659,150.255600 
	C231.656540,144.924637 236.394394,139.787323 241.659027,134.214569 
z"/>
</svg>