<svg version="1.1" id="Layer_1" xmlns="http://www.w3.org/2000/svg" xmlns:xlink="http://www.w3.org/1999/xlink" x="0px" y="0px"
	 width="100%" viewBox="0 0 256 240" enable-background="new 0 0 256 240" xml:space="preserve">
<path fill="#000000" opacity="1.000000" stroke="none" 
	d="
M64.876984,171.125092 
	C59.765366,170.501831 56.164463,167.918106 52.690815,164.912750 
	C50.146809,162.711700 46.579876,161.036591 44.675377,158.929352 
	C41.770737,155.715500 37.837147,152.342178 36.848213,147.933365 
	C35.534805,142.077942 33.074493,136.453247 30.899927,131.217026 
	C26.598993,120.860657 28.444082,110.609268 29.315357,100.731453 
	C29.973236,93.272911 33.816940,85.430374 37.556652,78.575882 
	C39.546074,74.929489 44.013905,71.248215 45.986740,67.780083 
	C50.741238,59.421928 59.891441,59.220676 66.182930,54.134277 
	C68.136551,52.554863 72.310913,53.662331 75.469040,53.649170 
	C78.822563,53.635197 82.216537,53.877621 84.560860,50.199062 
	C87.208389,53.585323 90.622894,53.617516 94.164612,53.656826 
	C99.542633,53.716518 103.982750,56.839687 108.876747,58.493176 
	C114.610878,60.430504 118.611572,64.770393 122.932442,68.329308 
	C131.463318,75.355812 137.915680,84.180290 138.330307,95.974396 
	C138.444016,99.209114 143.136917,98.446617 141.932892,103.233383 
	C146.306870,98.553406 150.158218,96.144539 152.114349,91.262077 
	C153.249390,88.429100 157.676651,87.117897 160.172409,84.232803 
	C168.373810,74.752029 177.155457,65.775864 185.583878,56.487583 
	C189.382431,52.301476 191.238785,52.590271 193.604126,57.622803 
	C194.667130,59.884449 196.581528,61.813522 198.348953,63.665028 
	C206.973267,72.699692 214.777924,82.503304 223.963776,91.007385 
	C225.819824,92.725677 227.341187,94.684669 228.354446,96.966080 
	C229.441391,99.413422 231.985962,98.098091 233.891083,99.461769 
	C234.072479,102.979088 236.004715,105.722649 238.903809,108.251465 
	C243.797882,112.520424 244.142212,117.578087 239.269379,122.413811 
	C235.804169,125.852646 233.243561,130.093582 229.221252,133.030609 
	C224.214539,136.686478 218.768814,140.041199 215.669525,145.637436 
	C212.862091,150.706711 208.197449,153.886902 204.384583,157.931900 
	C200.507858,162.044586 198.270264,167.397064 194.014877,171.293930 
	C190.896301,174.149750 188.834198,174.215790 185.898148,170.929688 
	C180.652054,165.058060 175.107178,159.416580 169.303772,154.097214 
	C166.869720,151.866180 166.125580,148.526047 163.000626,146.749817 
	C155.092529,142.254807 152.324554,132.727951 144.931137,127.621582 
	C144.418427,127.267471 143.938141,126.866425 142.935852,126.099136 
	C140.805161,132.074936 136.549286,136.758652 136.373901,143.101181 
	C136.315536,145.212067 135.658340,146.630203 134.144043,148.241470 
	C132.380829,150.117599 129.935211,151.738037 129.924896,155.118652 
	C129.920914,156.423035 127.897041,158.236099 126.385933,158.930008 
	C120.505211,161.630539 115.127342,164.918213 110.856354,169.868759 
	C110.469910,170.316681 109.585045,170.773163 109.103661,170.633377 
	C103.813965,169.097122 99.085922,172.113785 94.976830,173.907303 
	C90.363708,175.920837 86.068375,176.627823 81.474998,176.322418 
	C75.740471,175.941162 70.541328,173.355835 64.876984,171.125092 
M101.118675,66.517708 
	C96.570686,66.846756 93.426872,62.869076 88.478355,63.142780 
	C80.130074,63.604530 71.521713,62.787495 64.112900,67.098190 
	C60.834003,69.005966 56.766262,69.739525 54.261280,73.696320 
	C50.717861,79.293396 44.914501,83.028999 42.614643,90.036781 
	C40.894234,95.278961 37.347507,100.269188 37.543400,105.840363 
	C37.841610,114.321526 35.660107,122.865593 39.859867,131.443268 
	C41.509754,134.813019 42.336143,139.738144 44.452919,142.766266 
	C49.990101,150.687378 56.919464,157.516388 66.762054,160.453827 
	C70.907051,161.690857 74.515343,164.170517 79.305817,163.749222 
	C86.390427,163.126160 93.308235,163.204239 100.454613,161.138596 
	C105.608772,159.648788 110.077194,158.364487 113.302444,154.262192 
	C115.635887,151.294205 117.986099,148.411926 120.880211,145.988708 
	C127.555847,140.399216 131.428818,132.513885 132.163055,124.615356 
	C132.999130,115.621429 135.062637,105.978218 129.776596,97.051102 
	C126.811050,92.042885 125.730255,85.912560 120.832939,82.043243 
	C117.993614,79.799942 115.763931,77.042130 113.552780,74.201294 
	C110.556725,70.352028 106.604126,67.737541 101.118675,66.517708 
M160.471191,129.997269 
	C161.486969,131.056641 162.416122,132.218948 163.532806,133.158371 
	C169.941605,138.549759 172.922379,147.572876 181.900635,150.328186 
	C183.212311,150.730728 184.387939,152.492065 185.064850,153.895569 
	C188.817047,161.675400 188.669540,161.626144 193.819336,155.810654 
	C205.361008,142.776978 216.900284,129.737747 228.688202,116.928696 
	C230.838348,114.592285 230.468079,113.757019 228.821579,111.343475 
	C221.620575,100.787880 210.208450,94.206978 203.154465,83.504829 
	C200.836166,79.987526 197.384109,77.280632 195.066345,73.544456 
	C191.836823,68.338478 189.148697,68.595383 185.629257,73.645782 
	C185.075516,74.440422 184.271225,75.072090 183.779709,75.896523 
	C181.145538,80.314880 175.673447,81.205681 172.536804,84.801910 
	C164.577484,93.927467 156.292953,102.741463 147.876465,111.434090 
	C146.468079,112.888680 145.880524,114.264984 147.212494,115.726112 
	C151.432632,120.355415 155.804703,124.846214 160.471191,129.997269 
z"/>
</svg>