<?xml version="1.0" encoding="UTF-8"?>
<svg version="1.1" xmlns="http://www.w3.org/2000/svg" width="203" height="209">
<path d="M0 0 C66.99 0 133.98 0 203 0 C203 68.97 203 137.94 203 209 C136.01 209 69.02 209 0 209 C0 140.03 0 71.06 0 0 Z " fill="#FDFDFD" transform="translate(0,0)"/>
<path d="M0 0 C1.98 0.495 1.98 0.495 4 1 C5.50064988 5.70281597 6.24928532 9.63873976 6.24291992 14.61962891 C6.24595627 15.9058313 6.24899261 17.19203369 6.25212097 18.51721191 C6.24518481 19.92033019 6.23795829 21.32344706 6.23046875 22.7265625 C6.2296097 24.21057104 6.22953219 25.69458022 6.23017883 27.17858887 C6.22902607 31.16743495 6.21466592 35.15613141 6.19723511 39.14493561 C6.18750221 41.62443802 6.18166535 44.10391782 6.17724609 46.58343506 C6.11992433 78.72782337 5.67115299 110.86288553 5 143 C3.35 143 1.7 143 0 143 C-1.19520345 139.2577727 -1.13536283 135.5724046 -1.11523438 131.6875 C-1.1152092 130.94781479 -1.11518402 130.20812958 -1.11515808 129.44602966 C-1.11332346 126.96398042 -1.10374268 124.48202895 -1.09375 122 C-1.0899467 120.22143593 -1.08632997 118.44287145 -1.08288574 116.66430664 C-1.026257 94.56234621 -0.77787426 72.46132749 -0.53643799 50.36077881 C-0.47455674 44.65329601 -0.41513643 38.94578754 -0.35546875 33.23828125 C-0.23929887 22.15882873 -0.12054629 11.07940571 0 0 Z " fill="#0B0B0B" transform="translate(95,29)"/>
</svg>
