<?xml version="1.0" encoding="UTF-8"?>
<svg version="1.1" xmlns="http://www.w3.org/2000/svg" width="207" height="229">
<path d="M0 0 C68.31 0 136.62 0 207 0 C207 75.57 207 151.14 207 229 C138.69 229 70.38 229 0 229 C0 153.43 0 77.86 0 0 Z " fill="#FDFDFD" transform="translate(0,0)"/>
<path d="M0 0 C0.66 0 1.32 0 2 0 C3.2881656 15.03218066 2.9106701 29.99397595 2.5625 45.0625 C2.50914819 47.58657557 2.45640925 50.11066416 2.40429688 52.63476562 C2.2765897 58.75667847 2.14134408 64.8783876 2 71 C1.01 71 0.02 71 -1 71 C-1.02314078 62.03806296 -1.04092397 53.07613616 -1.05181217 44.1141758 C-1.05703719 39.95305961 -1.06412795 35.79196382 -1.07543945 31.63085938 C-1.08628184 27.61734185 -1.09227972 23.60384399 -1.09487724 19.59031296 C-1.09672905 18.05686509 -1.100345 16.52341832 -1.10573006 14.98997879 C-1.1129584 12.84697368 -1.11399018 10.70405044 -1.11352539 8.56103516 C-1.115746 7.33969879 -1.11796661 6.11836243 -1.12025452 4.86001587 C-1 2 -1 2 0 0 Z " fill="#131313" transform="translate(101,86)"/>
</svg>
