<svg version="1.1" id="Layer_1" xmlns="http://www.w3.org/2000/svg" xmlns:xlink="http://www.w3.org/1999/xlink" x="0px" y="0px"
	 width="100%" viewBox="0 0 270 324" enable-background="new 0 0 270 324" xml:space="preserve">
<path fill="#FEFEFE" opacity="1.000000" stroke="none" 
	d="
M110.000000,325.000000 
	C73.333344,325.000000 37.166679,325.000000 1.000015,325.000000 
	C1.000010,217.000031 1.000010,109.000053 1.000005,1.000058 
	C90.999962,1.000039 180.999924,1.000039 270.999908,1.000019 
	C270.999939,108.999939 270.999939,216.999878 270.999969,324.999908 
	C217.500000,325.000000 164.000000,325.000000 110.000000,325.000000 
M228.432404,244.000000 
	C223.516891,244.117737 221.478424,246.666214 220.857620,251.350479 
	C220.321518,255.395660 223.645645,256.526947 225.133163,259.016937 
	C226.468674,261.252502 227.600983,264.826202 229.558990,259.271851 
	C230.013962,257.981171 231.725464,257.169037 232.741989,256.032257 
	C234.206131,254.394913 237.014374,251.503586 236.735382,251.154160 
	C234.611984,248.494415 231.876465,246.323380 228.432404,244.000000 
M50.414963,71.000000 
	C55.150486,70.914597 58.685081,66.075783 56.711178,62.380569 
	C54.244267,57.762432 49.976791,55.712997 45.713329,56.250584 
	C43.905060,58.797279 42.605350,60.536266 41.423611,62.352028 
	C41.100849,62.847954 41.079014,63.568661 41.010105,64.196205 
	C40.540905,68.469231 43.696751,70.991920 50.414963,71.000000 
M11.552048,149.000000 
	C8.954905,148.310699 7.705512,149.969131 7.277207,151.986649 
	C6.681076,154.794708 5.793662,157.933594 6.519065,160.512268 
	C7.164516,162.806732 9.492736,164.912140 12.926380,164.078262 
	C14.746406,163.636276 16.762100,164.000000 18.999908,164.000000 
	C18.999908,160.766541 19.356428,157.934891 18.910463,155.235855 
	C18.341677,151.793472 16.741249,148.861206 11.552048,149.000000 
M236.999802,64.580826 
	C235.111115,61.762325 233.480942,58.691540 231.150726,56.303947 
	C230.573303,55.712292 226.839081,54.018730 225.798752,58.023533 
	C225.383057,59.623817 222.947342,60.628967 221.675858,62.114487 
	C221.213791,62.654312 221.100525,64.011070 221.457184,64.636192 
	C222.530487,66.517387 223.913391,68.221962 225.722504,70.764000 
	C234.084991,71.755547 235.032928,71.371239 236.999802,64.580826 
M144.425949,23.074087 
	C142.548233,22.239885 139.114700,24.931122 138.728653,20.559572 
	C138.708832,20.335108 137.613327,20.004551 137.061234,20.072002 
	C136.057236,20.194660 130.511642,29.261524 131.060699,30.095615 
	C132.846146,32.807961 134.852142,35.379978 136.884857,37.916573 
	C137.070892,38.148731 138.168442,37.915150 138.647644,37.600628 
	C140.461655,36.409988 142.195282,35.096867 144.957626,33.112007 
	C144.957626,31.085287 144.957626,27.459986 144.425949,23.074087 
M48.950993,241.669510 
	C47.504498,242.177689 46.057999,242.685867 44.433945,243.256439 
	C44.005043,242.827454 42.972301,241.794540 41.255318,240.077271 
	C41.255318,246.256042 41.255318,250.997849 41.255318,255.988098 
	C45.798775,255.696762 50.733883,257.691010 53.647598,252.899933 
	C54.535381,251.440140 54.458061,248.698944 53.679379,247.102203 
	C52.778080,245.254013 50.615589,244.020844 48.950993,241.669510 
M264.364349,163.999802 
	C268.144379,162.854507 271.348480,158.253571 269.917847,155.816650 
	C268.657349,153.669525 267.097534,151.698105 265.018188,148.713745 
	C259.768250,145.781464 258.671692,153.294846 254.679169,155.085190 
	C254.346542,155.234360 253.940323,156.078735 254.062836,156.253601 
	C255.671783,158.550110 257.156403,161.003143 259.140320,162.936630 
	C260.056793,163.829834 261.991791,163.678009 264.364349,163.999802 
M134.000244,288.657715 
	C134.000488,290.989777 133.870575,293.330841 134.031097,295.651825 
	C134.279755,299.246613 137.723450,302.282379 140.411667,300.816650 
	C142.387558,299.739349 144.179474,297.280609 144.826187,295.077301 
	C145.612732,292.397522 145.250610,289.656219 142.130188,287.544495 
	C139.798523,285.966583 136.374298,285.284821 134.000244,288.657715 
z"/>
<path fill="#000000" opacity="1.000000" stroke="none" 
	d="
M228.881989,244.000076 
	C231.876465,246.323380 234.611984,248.494415 236.735382,251.154160 
	C237.014374,251.503586 234.206131,254.394913 232.741989,256.032257 
	C231.725464,257.169037 230.013962,257.981171 229.558990,259.271851 
	C227.600983,264.826202 226.468674,261.252502 225.133163,259.016937 
	C223.645645,256.526947 220.321518,255.395660 220.857620,251.350479 
	C221.478424,246.666214 223.516891,244.117737 228.881989,244.000076 
z"/>
<path fill="#000000" opacity="1.000000" stroke="none" 
	d="
M49.955383,71.000000 
	C43.696751,70.991920 40.540905,68.469231 41.010105,64.196205 
	C41.079014,63.568661 41.100849,62.847954 41.423611,62.352028 
	C42.605350,60.536266 43.905060,58.797279 45.713329,56.250584 
	C49.976791,55.712997 54.244267,57.762432 56.711178,62.380569 
	C58.685081,66.075783 55.150486,70.914597 49.955383,71.000000 
z"/>
<path fill="#000000" opacity="1.000000" stroke="none" 
	d="
M12.004337,149.000000 
	C16.741249,148.861206 18.341677,151.793472 18.910463,155.235855 
	C19.356428,157.934891 18.999908,160.766541 18.999908,164.000000 
	C16.762100,164.000000 14.746406,163.636276 12.926380,164.078262 
	C9.492736,164.912140 7.164516,162.806732 6.519065,160.512268 
	C5.793662,157.933594 6.681076,154.794708 7.277207,151.986649 
	C7.705512,149.969131 8.954905,148.310699 12.004337,149.000000 
z"/>
<path fill="#000000" opacity="1.000000" stroke="none" 
	d="
M236.999786,65.021088 
	C235.032928,71.371239 234.084991,71.755547 225.722504,70.764000 
	C223.913391,68.221962 222.530487,66.517387 221.457184,64.636192 
	C221.100525,64.011070 221.213791,62.654312 221.675858,62.114487 
	C222.947342,60.628967 225.383057,59.623817 225.798752,58.023533 
	C226.839081,54.018730 230.573303,55.712292 231.150726,56.303947 
	C233.480942,58.691540 235.111115,61.762325 236.999786,65.021088 
z"/>
<path fill="#000000" opacity="1.000000" stroke="none" 
	d="
M144.691788,23.454386 
	C144.957626,27.459986 144.957626,31.085287 144.957626,33.112007 
	C142.195282,35.096867 140.461655,36.409988 138.647644,37.600628 
	C138.168442,37.915150 137.070892,38.148731 136.884857,37.916573 
	C134.852142,35.379978 132.846146,32.807961 131.060699,30.095615 
	C130.511642,29.261524 136.057236,20.194660 137.061234,20.072002 
	C137.613327,20.004551 138.708832,20.335108 138.728653,20.559572 
	C139.114700,24.931122 142.548233,22.239885 144.691788,23.454386 
z"/>
<path fill="#000000" opacity="1.000000" stroke="none" 
	d="
M48.975815,242.095093 
	C50.615589,244.020844 52.778080,245.254013 53.679379,247.102203 
	C54.458061,248.698944 54.535381,251.440140 53.647598,252.899933 
	C50.733883,257.691010 45.798775,255.696762 41.255318,255.988098 
	C41.255318,250.997849 41.255318,246.256042 41.255318,240.077271 
	C42.972301,241.794540 44.005043,242.827454 44.433945,243.256439 
	C46.057999,242.685867 47.504498,242.177689 48.975815,242.095093 
z"/>
<path fill="#000000" opacity="1.000000" stroke="none" 
	d="
M263.914673,163.999908 
	C261.991791,163.678009 260.056793,163.829834 259.140320,162.936630 
	C257.156403,161.003143 255.671783,158.550110 254.062836,156.253601 
	C253.940323,156.078735 254.346542,155.234360 254.679169,155.085190 
	C258.671692,153.294846 259.768250,145.781464 265.018188,148.713745 
	C267.097534,151.698105 268.657349,153.669525 269.917847,155.816650 
	C271.348480,158.253571 268.144379,162.854507 263.914673,163.999908 
z"/>
<path fill="#000000" opacity="1.000000" stroke="none" 
	d="
M134.001877,288.189178 
	C136.374298,285.284821 139.798523,285.966583 142.130188,287.544495 
	C145.250610,289.656219 145.612732,292.397522 144.826187,295.077301 
	C144.179474,297.280609 142.387558,299.739349 140.411667,300.816650 
	C137.723450,302.282379 134.279755,299.246613 134.031097,295.651825 
	C133.870575,293.330841 134.000488,290.989777 134.001877,288.189178 
z"/>
</svg>