<svg version="1.1" id="Layer_1" xmlns="http://www.w3.org/2000/svg" xmlns:xlink="http://www.w3.org/1999/xlink" x="0px" y="0px"
	 width="100%" viewBox="0 0 256 256" enable-background="new 0 0 256 256" xml:space="preserve">
<path fill="#000000" opacity="1.000000" stroke="none" 
	d="
M59.941551,132.369080 
	C52.413261,131.601486 57.018589,126.311127 55.448299,123.319183 
	C63.549763,121.678078 66.356377,122.420204 66.635513,126.754677 
	C66.880043,130.551804 64.537056,132.789368 59.941551,132.369080 
z"/>
<path fill="#000000" opacity="1.000000" stroke="none" 
	d="
M203.751587,128.171234 
	C203.799011,126.099915 205.162521,125.183487 205.932297,123.957985 
	C207.020920,122.224922 208.833328,122.692543 210.422852,122.961571 
	C212.097183,123.244949 212.197372,124.697418 212.279907,126.035889 
	C212.340775,127.022858 212.494812,128.048660 212.306152,128.997269 
	C211.900131,131.038986 213.399384,134.993347 210.524094,134.587006 
	C208.061935,134.239029 203.400543,133.438416 203.751587,128.171234 
z"/>
<path fill="#000000" opacity="1.000000" stroke="none" 
	d="
M186.900681,189.911377 
	C186.124054,188.780792 185.299866,188.039047 185.044800,187.136475 
	C184.043137,183.592102 185.656738,180.969757 188.563019,179.214081 
	C189.796280,178.469070 192.023956,178.213547 192.558548,179.800339 
	C193.530426,182.685211 194.564148,185.960098 191.441208,188.429520 
	C190.192917,189.416580 189.556992,192.059341 186.900681,189.911377 
z"/>
<path fill="#000000" opacity="1.000000" stroke="none" 
	d="
M78.126488,180.358948 
	C80.471657,177.933121 82.954033,178.343048 85.155441,179.596375 
	C86.581711,180.408356 86.484985,182.408447 85.901451,183.703400 
	C84.855957,186.023499 83.899063,188.782379 80.350380,188.233475 
	C76.744179,187.675674 77.951126,184.893143 77.779892,182.765915 
	C77.727562,182.115753 77.906128,181.447006 78.126488,180.358948 
z"/>
<path fill="#000000" opacity="1.000000" stroke="none" 
	d="
M185.140549,72.323166 
	C186.842529,69.242287 189.153885,67.329422 192.036133,69.151443 
	C194.551743,70.741684 193.803757,74.103203 193.060822,76.377602 
	C192.010452,79.593208 189.074631,78.815697 187.138336,77.287041 
	C185.943573,76.343803 184.338547,74.840118 185.140549,72.323166 
z"/>
<path fill="#000000" opacity="1.000000" stroke="none" 
	d="
M138.768097,55.476875 
	C137.039886,58.286945 134.408585,58.121578 133.321518,56.348392 
	C131.917175,54.057674 131.630417,50.463146 133.598129,48.456833 
	C135.863693,46.146812 137.743149,48.793053 139.682159,50.328968 
	C142.602585,52.642273 140.738174,53.794182 138.768097,55.476875 
z"/>
<path fill="#000000" opacity="1.000000" stroke="none" 
	d="
M86.328674,73.935371 
	C86.407776,76.885101 85.622116,78.937119 82.732224,78.104889 
	C80.456863,77.449646 77.759720,75.634720 78.164772,73.291512 
	C78.486313,71.431427 80.331429,68.945076 83.146332,68.756424 
	C86.828423,68.509666 86.234612,71.251862 86.328674,73.935371 
z"/>
<path fill="#000000" opacity="1.000000" stroke="none" 
	d="
M136.376816,212.195526 
	C134.053650,212.341141 132.688171,211.721420 132.741959,209.523834 
	C132.793442,207.420670 131.957291,205.055664 133.576370,203.339539 
	C134.467545,202.394928 136.318970,202.415604 137.279327,203.309616 
	C138.573593,204.514496 139.748367,206.267044 139.196609,208.117813 
	C138.767242,209.558014 138.678421,211.481155 136.376816,212.195526 
z"/>
</svg>