<svg version="1.1" id="Layer_1" xmlns="http://www.w3.org/2000/svg" xmlns:xlink="http://www.w3.org/1999/xlink" x="0px" y="0px"
	 width="100%" viewBox="0 0 268 292" enable-background="new 0 0 268 292" xml:space="preserve">
<path fill="#FEFEFE" opacity="1.000000" stroke="none" 
	d="
M115.000000,293.000000 
	C76.666664,293.000000 38.833332,293.000000 1.000000,293.000000 
	C1.000000,195.666672 1.000000,98.333336 1.000000,1.000000 
	C90.333336,1.000000 179.666672,1.000000 269.000000,1.000000 
	C269.000000,98.333336 269.000000,195.666672 269.000000,293.000000 
	C217.833328,293.000000 166.666672,293.000000 115.000000,293.000000 
M89.002449,246.618790 
	C91.539703,247.225327 94.076958,247.831863 96.749580,248.470749 
	C97.551941,233.767410 96.829468,232.430466 89.451431,233.442276 
	C89.012596,235.318970 89.157677,237.668762 88.053101,238.849472 
	C85.077919,242.029678 85.113838,243.954071 89.002449,246.618790 
M47.942532,104.399078 
	C48.159946,103.655220 48.137371,102.578529 48.633305,102.220917 
	C52.138763,99.693207 52.180004,96.518402 47.913120,91.278015 
	C45.481812,88.291985 44.363667,91.260498 42.180851,92.558899 
	C37.892265,95.109856 39.772602,98.758446 40.427986,100.838577 
	C40.993454,102.633301 43.420582,106.206062 47.942532,104.399078 
M235.259018,107.952950 
	C235.733078,107.000397 235.974487,105.771667 236.721115,105.142662 
	C240.122803,102.276886 240.185822,99.150894 235.895462,94.176796 
	C233.451965,91.343880 232.280701,94.215683 230.071213,95.614983 
	C226.087097,98.138168 227.919830,101.391335 228.374741,103.504997 
	C228.771286,105.347511 232.257065,106.525162 235.259018,107.952950 
M106.610435,39.002197 
	C104.232239,35.709606 101.042526,35.249355 97.339890,36.363503 
	C97.339890,40.216995 97.339890,44.060734 97.339890,47.688347 
	C101.086357,47.688347 104.484055,47.688347 108.220024,47.688347 
	C107.968674,44.601391 107.744003,41.842144 106.610435,39.002197 
M181.995438,240.633560 
	C178.519821,239.860718 175.044189,239.087875 171.350189,238.266479 
	C171.350189,243.263977 171.350189,247.101547 171.350189,250.923187 
	C180.655319,251.125992 181.999786,249.904266 181.995438,240.633560 
M186.605072,44.865406 
	C186.736176,42.575283 187.472412,40.092445 186.822296,38.051121 
	C186.214417,36.142410 184.136154,34.701981 182.705032,33.055450 
	C182.400131,37.675953 178.141418,35.088367 176.280731,36.318794 
	C176.280731,39.397175 176.280731,42.140133 176.280731,44.999935 
	C177.379089,44.999935 178.201981,44.941788 179.013000,45.015003 
	C179.974854,45.101841 181.195068,44.977879 181.835785,45.509136 
	C184.527420,47.740971 184.463486,47.818073 186.605072,44.865406 
M237.538315,181.999878 
	C235.348450,177.987701 231.742279,179.071701 228.211945,179.062103 
	C228.211945,183.184753 228.211945,186.925171 228.211945,190.642136 
	C237.379822,191.522491 239.822220,189.423477 237.538315,181.999878 
M38.860348,174.001907 
	C34.678158,174.721756 34.211685,178.063950 35.188103,180.904907 
	C36.688740,185.271133 40.454685,185.954529 44.801952,184.572678 
	C44.801952,181.188904 44.801952,177.776276 44.801952,174.000168 
	C42.990913,174.000168 41.372105,174.000168 38.860348,174.001907 
z"/>
<path fill="#000000" opacity="1.000000" stroke="none" 
	d="
M88.977783,246.173126 
	C85.113838,243.954071 85.077919,242.029678 88.053101,238.849472 
	C89.157677,237.668762 89.012596,235.318970 89.451431,233.442276 
	C96.829468,232.430466 97.551941,233.767410 96.749580,248.470749 
	C94.076958,247.831863 91.539703,247.225327 88.977783,246.173126 
z"/>
<path fill="#000000" opacity="1.000000" stroke="none" 
	d="
M47.598682,104.676346 
	C43.420582,106.206062 40.993454,102.633301 40.427986,100.838577 
	C39.772602,98.758446 37.892265,95.109856 42.180851,92.558899 
	C44.363667,91.260498 45.481812,88.291985 47.913120,91.278015 
	C52.180004,96.518402 52.138763,99.693207 48.633305,102.220917 
	C48.137371,102.578529 48.159946,103.655220 47.598682,104.676346 
z"/>
<path fill="#000000" opacity="1.000000" stroke="none" 
	d="
M234.818436,107.974770 
	C232.257065,106.525162 228.771286,105.347511 228.374741,103.504997 
	C227.919830,101.391335 226.087097,98.138168 230.071213,95.614983 
	C232.280701,94.215683 233.451965,91.343880 235.895462,94.176796 
	C240.185822,99.150894 240.122803,102.276886 236.721115,105.142662 
	C235.974487,105.771667 235.733078,107.000397 234.818436,107.974770 
z"/>
<path fill="#000000" opacity="1.000000" stroke="none" 
	d="
M107.064888,39.042549 
	C107.744003,41.842144 107.968674,44.601391 108.220024,47.688347 
	C104.484055,47.688347 101.086357,47.688347 97.339890,47.688347 
	C97.339890,44.060734 97.339890,40.216995 97.339890,36.363503 
	C101.042526,35.249355 104.232239,35.709606 107.064888,39.042549 
z"/>
<path fill="#000000" opacity="1.000000" stroke="none" 
	d="
M181.997559,241.102661 
	C181.999786,249.904266 180.655319,251.125992 171.350189,250.923187 
	C171.350189,247.101547 171.350189,243.263977 171.350189,238.266479 
	C175.044189,239.087875 178.519821,239.860718 181.997559,241.102661 
z"/>
<path fill="#000000" opacity="1.000000" stroke="none" 
	d="
M186.174316,44.949181 
	C184.463486,47.818073 184.527420,47.740971 181.835785,45.509136 
	C181.195068,44.977879 179.974854,45.101841 179.013000,45.015003 
	C178.201981,44.941788 177.379089,44.999935 176.280731,44.999935 
	C176.280731,42.140133 176.280731,39.397175 176.280731,36.318794 
	C178.141418,35.088367 182.400131,37.675953 182.705032,33.055450 
	C184.136154,34.701981 186.214417,36.142410 186.822296,38.051121 
	C187.472412,40.092445 186.736176,42.575283 186.174316,44.949181 
z"/>
<path fill="#000000" opacity="1.000000" stroke="none" 
	d="
M237.984619,182.031113 
	C239.822220,189.423477 237.379822,191.522491 228.211945,190.642136 
	C228.211945,186.925171 228.211945,183.184753 228.211945,179.062103 
	C231.742279,179.071701 235.348450,177.987701 237.984619,182.031113 
z"/>
<path fill="#000000" opacity="1.000000" stroke="none" 
	d="
M39.306824,174.001038 
	C41.372105,174.000168 42.990913,174.000168 44.801952,174.000168 
	C44.801952,177.776276 44.801952,181.188904 44.801952,184.572678 
	C40.454685,185.954529 36.688740,185.271133 35.188103,180.904907 
	C34.211685,178.063950 34.678158,174.721756 39.306824,174.001038 
z"/>
</svg>