<svg version="1.1" id="Layer_1" xmlns="http://www.w3.org/2000/svg" xmlns:xlink="http://www.w3.org/1999/xlink" x="0px" y="0px"
	 width="100%" viewBox="0 0 269 292" enable-background="new 0 0 269 292" xml:space="preserve">
<path fill="#FEFEFE" opacity="1.000000" stroke="none" 
	d="
M142.000000,293.000000 
	C94.666664,293.000000 47.833332,293.000000 1.000000,293.000000 
	C1.000000,195.666672 1.000000,98.333336 1.000000,1.000000 
	C90.666664,1.000000 180.333328,1.000000 270.000000,1.000000 
	C270.000000,98.333336 270.000000,195.666672 270.000000,293.000000 
	C227.500000,293.000000 185.000000,293.000000 142.000000,293.000000 
M71.477188,61.005135 
	C69.473328,60.340370 67.469467,59.675606 65.289062,58.952274 
	C61.582729,67.398125 61.582729,67.398125 62.548336,72.805984 
	C72.042786,73.342918 74.371162,70.564476 71.477188,61.005135 
M144.000000,38.429043 
	C144.000000,36.015472 144.000000,33.601902 144.000000,31.262928 
	C140.014755,31.262928 136.618576,31.262928 133.001541,31.262928 
	C133.001541,33.646217 132.618362,35.861866 133.086075,37.880356 
	C133.908325,41.428913 135.886826,43.525860 140.183533,43.138123 
	C142.988571,42.884995 144.651840,42.624710 144.000000,38.429043 
M216.997864,217.835007 
	C215.424072,211.436386 210.633209,213.012863 206.233276,213.148483 
	C206.233276,217.239365 206.233276,220.963959 206.233276,224.790863 
	C209.863632,224.790863 213.258011,224.790863 216.999863,224.790863 
	C216.999863,222.641647 216.999863,220.696045 216.997864,217.835007 
M144.000000,252.476044 
	C144.000000,250.385757 144.000000,248.295471 144.000000,246.248337 
	C133.631119,245.607941 131.404785,248.268814 133.684433,257.859375 
	C136.960175,257.859375 140.228653,257.859375 144.000000,257.859375 
	C144.000000,256.296326 144.000000,254.866623 144.000000,252.476044 
M37.808350,135.963577 
	C37.282990,134.945282 36.757629,133.926987 36.680378,133.777252 
	C33.990074,134.934998 31.731525,135.906952 29.001394,137.081833 
	C29.001394,138.574005 28.887753,140.704269 29.030945,142.817123 
	C29.199549,145.304916 34.190445,148.837997 36.109737,147.959900 
	C39.975590,146.191208 41.267052,140.208359 37.808350,135.963577 
M243.694382,136.006866 
	C242.397156,135.020523 241.099945,134.034180 239.802719,133.047836 
	C239.162613,135.859802 234.722702,136.507278 235.884644,140.559692 
	C236.527954,142.803299 236.000000,145.382751 236.000000,147.719421 
	C239.314209,147.719421 242.049942,147.719421 245.163193,147.719421 
	C244.961319,143.660736 244.773972,139.893951 243.694382,136.006866 
M70.000000,217.426834 
	C69.920044,216.005096 69.840088,214.583344 69.767082,213.285126 
	C65.982826,213.285126 62.580029,213.285126 59.206627,213.285126 
	C58.795803,220.777252 60.704517,225.378326 64.296188,224.842804 
	C67.466576,224.370117 70.131432,222.299988 70.000000,217.426834 
z"/>
<path fill="#000000" opacity="1.000000" stroke="none" 
	d="
M71.931923,61.035545 
	C74.371162,70.564476 72.042786,73.342918 62.548336,72.805984 
	C61.582729,67.398125 61.582729,67.398125 65.289062,58.952274 
	C67.469467,59.675606 69.473328,60.340370 71.931923,61.035545 
z"/>
<path fill="#000000" opacity="1.000000" stroke="none" 
	d="
M144.000000,38.903954 
	C144.651840,42.624710 142.988571,42.884995 140.183533,43.138123 
	C135.886826,43.525860 133.908325,41.428913 133.086075,37.880356 
	C132.618362,35.861866 133.001541,33.646217 133.001541,31.262928 
	C136.618576,31.262928 140.014755,31.262928 144.000000,31.262928 
	C144.000000,33.601902 144.000000,36.015472 144.000000,38.903954 
z"/>
<path fill="#000000" opacity="1.000000" stroke="none" 
	d="
M216.998871,218.292725 
	C216.999863,220.696045 216.999863,222.641647 216.999863,224.790863 
	C213.258011,224.790863 209.863632,224.790863 206.233276,224.790863 
	C206.233276,220.963959 206.233276,217.239365 206.233276,213.148483 
	C210.633209,213.012863 215.424072,211.436386 216.998871,218.292725 
z"/>
<path fill="#000000" opacity="1.000000" stroke="none" 
	d="
M144.000000,252.956482 
	C144.000000,254.866623 144.000000,256.296326 144.000000,257.859375 
	C140.228653,257.859375 136.960175,257.859375 133.684433,257.859375 
	C131.404785,248.268814 133.631119,245.607941 144.000000,246.248337 
	C144.000000,248.295471 144.000000,250.385757 144.000000,252.956482 
z"/>
<path fill="#000000" opacity="1.000000" stroke="none" 
	d="
M38.249245,135.984711 
	C41.267052,140.208359 39.975590,146.191208 36.109737,147.959900 
	C34.190445,148.837997 29.199549,145.304916 29.030945,142.817123 
	C28.887753,140.704269 29.001394,138.574005 29.001394,137.081833 
	C31.731525,135.906952 33.990074,134.934998 36.680378,133.777252 
	C36.757629,133.926987 37.282990,134.945282 38.249245,135.984711 
z"/>
<path fill="#000000" opacity="1.000000" stroke="none" 
	d="
M244.140503,136.067017 
	C244.773972,139.893951 244.961319,143.660736 245.163193,147.719421 
	C242.049942,147.719421 239.314209,147.719421 236.000000,147.719421 
	C236.000000,145.382751 236.527954,142.803299 235.884644,140.559692 
	C234.722702,136.507278 239.162613,135.859802 239.802719,133.047836 
	C241.099945,134.034180 242.397156,135.020523 244.140503,136.067017 
z"/>
<path fill="#000000" opacity="1.000000" stroke="none" 
	d="
M70.000000,217.890381 
	C70.131432,222.299988 67.466576,224.370117 64.296188,224.842804 
	C60.704517,225.378326 58.795803,220.777252 59.206627,213.285126 
	C62.580029,213.285126 65.982826,213.285126 69.767082,213.285126 
	C69.840088,214.583344 69.920044,216.005096 70.000000,217.890381 
z"/>
</svg>