<svg version="1.1" id="Layer_1" xmlns="http://www.w3.org/2000/svg" xmlns:xlink="http://www.w3.org/1999/xlink" x="0px" y="0px"
	 width="100%" viewBox="0 0 268 285" enable-background="new 0 0 268 285" xml:space="preserve">
<path fill="#FEFEFE" opacity="1.000000" stroke="none" 
	d="
M115.000000,286.000000 
	C76.666664,286.000000 38.833332,286.000000 1.000000,286.000000 
	C1.000000,191.000000 1.000000,96.000000 1.000000,1.000000 
	C90.333336,1.000000 179.666672,1.000000 269.000000,1.000000 
	C269.000000,96.000000 269.000000,191.000000 269.000000,286.000000 
	C217.833328,286.000000 166.666672,286.000000 115.000000,286.000000 
M66.232224,217.958542 
	C68.142662,215.963150 70.161102,214.055420 71.896103,211.917648 
	C72.400459,211.296204 72.531929,209.664597 72.080063,209.103592 
	C70.556053,207.211563 68.909927,205.232620 66.876526,204.006821 
	C65.688736,203.290802 63.337093,203.378494 62.108562,204.110596 
	C60.061230,205.330673 58.373970,207.255310 56.798630,209.107437 
	C56.310928,209.680817 56.360683,211.137299 56.738220,211.908554 
	C57.171387,212.793472 58.172813,213.470764 59.050056,214.053635 
	C61.116192,215.426437 63.255241,216.689499 66.232224,217.958542 
M72.999725,53.659473 
	C72.720947,52.791924 72.676018,51.378174 72.126534,51.142921 
	C67.581177,49.196918 62.466808,53.187977 61.845512,58.160187 
	C61.435600,61.440731 63.114971,63.115940 65.098656,64.434753 
	C66.242928,65.195503 68.596603,65.068024 69.951912,64.408012 
	C74.220070,62.329491 72.892731,58.179497 72.999725,53.659473 
M216.997787,207.808090 
	C215.669693,206.206055 214.642502,203.959045 212.937988,203.163818 
	C210.764755,202.149902 206.255325,205.869843 206.001205,208.275986 
	C205.505203,212.972488 207.890945,217.718979 211.050629,217.945694 
	C212.768005,218.068924 215.017578,218.925034 215.233063,215.590912 
	C215.383179,213.268295 216.380814,211.000488 216.997787,207.808090 
M209.079758,51.483463 
	C208.054001,52.941265 206.619278,54.267517 206.098114,55.887634 
	C205.312149,58.331013 208.654785,62.689823 211.137650,62.998474 
	C214.914185,63.467945 219.714661,60.903145 219.933090,58.088760 
	C220.035446,56.769566 219.840210,55.106373 219.098541,54.102394 
	C216.819366,51.017139 213.454376,50.515347 209.079758,51.483463 
M138.647751,251.000000 
	C140.385284,251.000000 142.122818,251.000000 143.700302,251.000000 
	C143.700302,246.618591 143.700302,242.893677 143.700302,239.273193 
	C139.996582,239.273193 136.597809,239.273193 133.000534,239.273193 
	C133.000534,241.506805 132.671616,243.544525 133.081207,245.421051 
	C133.631546,247.942551 134.244659,250.771362 138.647751,251.000000 
M37.000641,127.493767 
	C36.682762,127.008041 36.474186,126.266861 36.029827,126.076744 
	C32.245087,124.457336 31.225002,128.586182 29.339085,130.075302 
	C28.108200,131.047211 28.627220,135.235413 29.515757,137.537781 
	C30.102533,139.058228 32.892132,140.831573 34.413521,140.604294 
	C36.244865,140.330734 37.777248,138.055878 39.864414,136.286896 
	C38.712547,134.351959 42.517345,129.851486 37.000641,127.493767 
M243.389069,126.003639 
	C239.588165,124.755226 237.120728,128.351501 236.385406,130.051468 
	C235.059814,133.116104 235.109619,137.446198 239.051468,139.648911 
	C240.719818,140.581177 242.802872,140.771271 244.466599,141.234421 
	C245.799789,135.559708 246.583939,130.740707 243.389069,126.003639 
M143.313919,35.936523 
	C143.625320,32.087635 143.936737,28.238745 144.279678,24.000006 
	C142.305038,24.000006 140.929153,24.297474 139.749008,23.943092 
	C136.474808,22.959888 134.434555,25.031382 133.643005,27.275135 
	C133.031586,29.008301 134.284668,31.423714 134.781693,33.518509 
	C135.952118,38.451618 139.925339,34.903770 143.313919,35.936523 
z"/>
<path fill="#000000" opacity="1.000000" stroke="none" 
	d="
M65.798508,217.977753 
	C63.255241,216.689499 61.116192,215.426437 59.050056,214.053635 
	C58.172813,213.470764 57.171387,212.793472 56.738220,211.908554 
	C56.360683,211.137299 56.310928,209.680817 56.798630,209.107437 
	C58.373970,207.255310 60.061230,205.330673 62.108562,204.110596 
	C63.337093,203.378494 65.688736,203.290802 66.876526,204.006821 
	C68.909927,205.232620 70.556053,207.211563 72.080063,209.103592 
	C72.531929,209.664597 72.400459,211.296204 71.896103,211.917648 
	C70.161102,214.055420 68.142662,215.963150 65.798508,217.977753 
z"/>
<path fill="#000000" opacity="1.000000" stroke="none" 
	d="
M72.999855,54.134590 
	C72.892731,58.179497 74.220070,62.329491 69.951912,64.408012 
	C68.596603,65.068024 66.242928,65.195503 65.098656,64.434753 
	C63.114971,63.115940 61.435600,61.440731 61.845512,58.160187 
	C62.466808,53.187977 67.581177,49.196918 72.126534,51.142921 
	C72.676018,51.378174 72.720947,52.791924 72.999855,54.134590 
z"/>
<path fill="#000000" opacity="1.000000" stroke="none" 
	d="
M216.998825,208.258148 
	C216.380814,211.000488 215.383179,213.268295 215.233063,215.590912 
	C215.017578,218.925034 212.768005,218.068924 211.050629,217.945694 
	C207.890945,217.718979 205.505203,212.972488 206.001205,208.275986 
	C206.255325,205.869843 210.764755,202.149902 212.937988,203.163818 
	C214.642502,203.959045 215.669693,206.206055 216.998825,208.258148 
z"/>
<path fill="#000000" opacity="1.000000" stroke="none" 
	d="
M209.467926,51.259865 
	C213.454376,50.515347 216.819366,51.017139 219.098541,54.102394 
	C219.840210,55.106373 220.035446,56.769566 219.933090,58.088760 
	C219.714661,60.903145 214.914185,63.467945 211.137650,62.998474 
	C208.654785,62.689823 205.312149,58.331013 206.098114,55.887634 
	C206.619278,54.267517 208.054001,52.941265 209.467926,51.259865 
z"/>
<path fill="#000000" opacity="1.000000" stroke="none" 
	d="
M138.189911,250.999924 
	C134.244659,250.771362 133.631546,247.942551 133.081207,245.421051 
	C132.671616,243.544525 133.000534,241.506805 133.000534,239.273193 
	C136.597809,239.273193 139.996582,239.273193 143.700302,239.273193 
	C143.700302,242.893677 143.700302,246.618591 143.700302,251.000000 
	C142.122818,251.000000 140.385284,251.000000 138.189911,250.999924 
z"/>
<path fill="#000000" opacity="1.000000" stroke="none" 
	d="
M37.030922,127.937103 
	C42.517345,129.851486 38.712547,134.351959 39.864414,136.286896 
	C37.777248,138.055878 36.244865,140.330734 34.413521,140.604294 
	C32.892132,140.831573 30.102533,139.058228 29.515757,137.537781 
	C28.627220,135.235413 28.108200,131.047211 29.339085,130.075302 
	C31.225002,128.586182 32.245087,124.457336 36.029827,126.076744 
	C36.474186,126.266861 36.682762,127.008041 37.030922,127.937103 
z"/>
<path fill="#000000" opacity="1.000000" stroke="none" 
	d="
M243.839020,126.027763 
	C246.583939,130.740707 245.799789,135.559708 244.466599,141.234421 
	C242.802872,140.771271 240.719818,140.581177 239.051468,139.648911 
	C235.109619,137.446198 235.059814,133.116104 236.385406,130.051468 
	C237.120728,128.351501 239.588165,124.755226 243.839020,126.027763 
z"/>
<path fill="#000000" opacity="1.000000" stroke="none" 
	d="
M142.842484,35.965939 
	C139.925339,34.903770 135.952118,38.451618 134.781693,33.518509 
	C134.284668,31.423714 133.031586,29.008301 133.643005,27.275135 
	C134.434555,25.031382 136.474808,22.959888 139.749008,23.943092 
	C140.929153,24.297474 142.305038,24.000006 144.279678,24.000006 
	C143.936737,28.238745 143.625320,32.087635 142.842484,35.965939 
z"/>
</svg>