<svg version="1.1" id="Layer_1" xmlns="http://www.w3.org/2000/svg" xmlns:xlink="http://www.w3.org/1999/xlink" x="0px" y="0px"
	 width="100%" viewBox="0 0 266 275" enable-background="new 0 0 266 275" xml:space="preserve">
<path fill="#FEFEFE" opacity="1.000000" stroke="none" 
	d="
M118.000000,276.000000 
	C78.684608,276.000000 39.869225,276.000000 1.026918,276.000000 
	C1.026918,184.393646 1.026918,92.787285 1.026918,1.090459 
	C89.565308,1.090459 178.130737,1.090459 266.848083,1.090459 
	C266.848083,92.666473 266.848083,184.333206 266.848083,276.000000 
	C217.454102,276.000000 167.977051,276.000000 118.000000,276.000000 
M65.499908,56.000000 
	C63.740322,56.000000 61.980736,56.000000 60.232578,56.000000 
	C60.232578,60.314217 60.232578,64.066757 60.232578,67.760262 
	C61.905678,67.999298 63.454189,67.944153 64.745262,68.493752 
	C65.751106,68.921944 66.436615,70.102631 67.264481,70.948906 
	C68.509186,69.267097 70.484848,67.723633 70.835220,65.872543 
	C71.429527,62.732704 70.998604,59.398804 70.998604,56.000000 
	C69.076637,56.000000 67.764702,56.000000 65.499908,56.000000 
M131.002457,245.714783 
	C131.843689,249.066757 132.684937,252.418732 133.521881,255.753632 
	C136.274109,255.753632 138.995667,255.753632 141.999725,255.753632 
	C141.999725,252.573044 142.056610,249.633560 141.981644,246.697449 
	C141.922226,244.369598 138.091141,240.496384 135.974091,241.147644 
	C134.125916,241.716202 132.667328,243.551147 131.002457,245.714783 
M132.321564,28.955877 
	C131.881088,30.990660 130.887482,33.100666 131.151169,35.039684 
	C131.431122,37.098061 132.426697,39.813808 133.993042,40.726334 
	C135.503082,41.606060 137.763321,41.510509 139.632065,38.550381 
	C142.521637,33.973183 143.066925,28.968390 138.408722,26.430563 
	C137.126328,25.731897 133.407532,23.884596 132.321564,28.955877 
M213.053055,210.329391 
	C212.503128,209.555222 212.079132,208.271317 211.380585,208.098740 
	C208.894104,207.484421 207.679855,209.514221 205.845627,210.682373 
	C202.080200,213.080444 204.194916,216.067947 204.323990,218.328171 
	C204.417831,219.971527 207.246979,222.266220 209.218048,222.728088 
	C210.678680,223.070389 213.963074,221.192963 214.244385,219.846619 
	C214.829880,217.044464 213.962387,213.938721 213.053055,210.329391 
M215.047684,58.288223 
	C214.392517,53.797485 210.646408,55.917740 208.974594,56.282581 
	C207.072769,56.697617 205.072601,58.993576 204.152206,60.957867 
	C203.106354,63.189846 206.714401,67.703850 209.167770,67.998550 
	C213.299118,68.494804 218.018097,65.729591 217.880615,62.573898 
	C217.826599,61.334248 216.440887,60.152622 215.047684,58.288223 
M38.000000,138.428101 
	C38.000000,136.001022 38.000000,133.573944 38.000000,131.184128 
	C30.006767,130.815109 26.812880,132.709961 27.000303,137.339859 
	C27.160286,141.291962 31.008318,143.251511 37.999985,142.667358 
	C37.999985,141.597748 37.999985,140.485687 38.000000,138.428101 
M236.997620,144.416199 
	C237.901932,144.806549 239.376434,145.748535 239.618607,145.498230 
	C241.260330,143.801285 242.706558,141.898178 244.072144,139.960342 
	C244.545319,139.288864 245.014771,138.189178 244.785736,137.527390 
	C244.068741,135.455612 243.017853,133.499405 241.527420,130.263000 
	C239.765671,131.395340 237.232071,132.299988 235.889771,134.095322 
	C234.612854,135.803207 234.233963,138.431366 234.167526,140.675842 
	C234.140045,141.604111 235.954910,142.586945 236.997620,144.416199 
M58.673264,211.010452 
	C57.127209,212.681854 55.581154,214.353256 54.035095,216.024658 
	C55.748276,217.457291 57.461456,218.889923 60.215530,221.193008 
	C59.932941,216.864029 59.744995,213.984818 58.673264,211.010452 
z"/>
<path fill="#000000" opacity="1.000000" stroke="none" 
	d="
M65.976334,56.000000 
	C67.764702,56.000000 69.076637,56.000000 70.998604,56.000000 
	C70.998604,59.398804 71.429527,62.732704 70.835220,65.872543 
	C70.484848,67.723633 68.509186,69.267097 67.264481,70.948906 
	C66.436615,70.102631 65.751106,68.921944 64.745262,68.493752 
	C63.454189,67.944153 61.905678,67.999298 60.232578,67.760262 
	C60.232578,64.066757 60.232578,60.314217 60.232578,56.000000 
	C61.980736,56.000000 63.740322,56.000000 65.976334,56.000000 
z"/>
<path fill="#000000" opacity="1.000000" stroke="none" 
	d="
M131.019531,245.270691 
	C132.667328,243.551147 134.125916,241.716202 135.974091,241.147644 
	C138.091141,240.496384 141.922226,244.369598 141.981644,246.697449 
	C142.056610,249.633560 141.999725,252.573044 141.999725,255.753632 
	C138.995667,255.753632 136.274109,255.753632 133.521881,255.753632 
	C132.684937,252.418732 131.843689,249.066757 131.019531,245.270691 
z"/>
<path fill="#000000" opacity="1.000000" stroke="none" 
	d="
M132.634308,28.637138 
	C133.407532,23.884596 137.126328,25.731897 138.408722,26.430563 
	C143.066925,28.968390 142.521637,33.973183 139.632065,38.550381 
	C137.763321,41.510509 135.503082,41.606060 133.993042,40.726334 
	C132.426697,39.813808 131.431122,37.098061 131.151169,35.039684 
	C130.887482,33.100666 131.881088,30.990660 132.634308,28.637138 
z"/>
<path fill="#000000" opacity="1.000000" stroke="none" 
	d="
M213.372528,210.643570 
	C213.962387,213.938721 214.829880,217.044464 214.244385,219.846619 
	C213.963074,221.192963 210.678680,223.070389 209.218048,222.728088 
	C207.246979,222.266220 204.417831,219.971527 204.323990,218.328171 
	C204.194916,216.067947 202.080200,213.080444 205.845627,210.682373 
	C207.679855,209.514221 208.894104,207.484421 211.380585,208.098740 
	C212.079132,208.271317 212.503128,209.555222 213.372528,210.643570 
z"/>
<path fill="#000000" opacity="1.000000" stroke="none" 
	d="
M215.354675,58.616394 
	C216.440887,60.152622 217.826599,61.334248 217.880615,62.573898 
	C218.018097,65.729591 213.299118,68.494804 209.167770,67.998550 
	C206.714401,67.703850 203.106354,63.189846 204.152206,60.957867 
	C205.072601,58.993576 207.072769,56.697617 208.974594,56.282581 
	C210.646408,55.917740 214.392517,53.797485 215.354675,58.616394 
z"/>
<path fill="#000000" opacity="1.000000" stroke="none" 
	d="
M37.999992,138.900864 
	C37.999985,140.485687 37.999985,141.597748 37.999985,142.667358 
	C31.008318,143.251511 27.160286,141.291962 27.000303,137.339859 
	C26.812880,132.709961 30.006767,130.815109 38.000000,131.184128 
	C38.000000,133.573944 38.000000,136.001022 37.999992,138.900864 
z"/>
<path fill="#000000" opacity="1.000000" stroke="none" 
	d="
M236.964752,143.980576 
	C235.954910,142.586945 234.140045,141.604111 234.167526,140.675842 
	C234.233963,138.431366 234.612854,135.803207 235.889771,134.095322 
	C237.232071,132.299988 239.765671,131.395340 241.527420,130.263000 
	C243.017853,133.499405 244.068741,135.455612 244.785736,137.527390 
	C245.014771,138.189178 244.545319,139.288864 244.072144,139.960342 
	C242.706558,141.898178 241.260330,143.801285 239.618607,145.498230 
	C239.376434,145.748535 237.901932,144.806549 236.964752,143.980576 
z"/>
<path fill="#000000" opacity="1.000000" stroke="none" 
	d="
M59.115154,211.058044 
	C59.744995,213.984818 59.932941,216.864029 60.215530,221.193008 
	C57.461456,218.889923 55.748276,217.457291 54.035095,216.024658 
	C55.581154,214.353256 57.127209,212.681854 59.115154,211.058044 
z"/>
</svg>