<svg version="1.1" id="Layer_1" xmlns="http://www.w3.org/2000/svg" xmlns:xlink="http://www.w3.org/1999/xlink" x="0px" y="0px"
	 width="100%" viewBox="0 0 256 304" enable-background="new 0 0 256 304" xml:space="preserve">
<path fill="#000000" opacity="1.000000" stroke="none" 
	d="
M137.000000,305.000000 
	C129.312424,305.000000 121.624847,305.000000 113.475067,304.716675 
	C112.626442,301.558197 110.339684,302.616364 108.707909,302.385956 
	C106.912849,302.132507 104.508179,302.647614 103.409279,301.664856 
	C99.828873,298.462738 94.898232,299.136871 91.030983,296.555908 
	C86.961945,293.840240 80.709328,292.313721 78.478355,289.148438 
	C74.759361,283.872009 68.527092,282.113342 65.012283,276.525696 
	C62.792339,272.996552 59.032192,269.377960 57.376297,265.601562 
	C55.073147,260.349060 52.442249,255.169159 49.995377,250.025162 
	C45.377880,240.317917 43.269020,230.204071 42.805229,219.739365 
	C42.610401,215.343506 41.718525,211.549896 38.077015,209.633148 
	C31.916880,206.390732 27.590225,200.907700 21.394037,197.546448 
	C15.318136,194.250443 13.190810,186.572510 8.819023,181.211746 
	C7.751843,179.903152 7.187690,178.533813 6.437900,177.137482 
	C4.771989,174.035110 5.905477,169.142410 1.000000,168.000000 
	C1.000000,143.312439 1.000000,118.624878 1.334463,93.351761 
	C3.479023,92.264404 3.922139,90.808258 4.732273,89.266785 
	C6.679715,85.561295 5.105876,80.493767 8.068738,77.748947 
	C17.076756,69.403854 23.047678,57.941299 34.456470,52.081398 
	C40.407471,49.024788 45.554462,44.048401 52.964302,44.557629 
	C54.355179,44.653214 55.398285,43.840229 56.536686,43.061737 
	C58.885677,41.455399 61.373432,39.048023 63.913261,38.904709 
	C73.148323,38.383614 82.428421,38.651031 91.691536,38.648888 
	C92.832939,38.648624 94.103233,38.466976 94.973213,39.453991 
	C97.992226,42.879116 102.727615,42.207943 106.502563,44.141506 
	C110.209763,46.040367 114.181450,47.846630 118.110924,49.479141 
	C120.681976,50.547291 122.564812,53.990658 125.818436,52.681740 
	C132.200378,50.114307 136.525604,42.964775 144.699478,44.228836 
	C145.266922,44.316589 145.953964,42.980644 146.667938,42.877346 
	C151.163376,42.226948 154.710846,38.688999 159.344803,38.652431 
	C169.174301,38.574856 179.004852,38.619793 188.834930,38.635216 
	C190.636353,38.638042 192.148163,38.816589 193.774353,40.248737 
	C199.864578,45.612217 209.605270,43.636650 215.058212,50.535664 
	C215.128098,50.624084 215.386002,50.607662 215.543594,50.576584 
	C219.073624,49.880428 221.034561,52.454018 223.075211,54.464298 
	C225.745041,57.094357 228.084351,60.060631 230.556747,62.890236 
	C238.189789,71.626091 247.178009,79.204666 251.100632,90.919609 
	C252.082855,93.852997 252.754837,98.517807 257.000000,100.000000 
	C257.000000,116.020897 257.000000,132.041794 256.992218,148.933868 
	C255.987289,154.010040 256.346191,158.289459 253.573944,162.366211 
	C248.057449,170.478485 246.817795,181.259872 238.084778,187.473907 
	C237.738998,187.719971 237.484451,188.350143 237.492859,188.795563 
	C237.538956,191.238998 236.428391,192.385620 233.963943,192.585220 
	C232.532440,192.701141 231.424026,193.784103 231.482819,195.278885 
	C231.595322,198.140106 229.263550,199.820129 227.633698,200.635391 
	C223.429382,202.738403 220.599335,206.906738 216.645279,208.562012 
	C211.798523,210.591049 212.491806,213.771652 212.349579,217.335693 
	C212.184631,221.468658 213.755798,226.162628 211.569672,229.573456 
	C209.752487,232.408676 210.011841,235.107056 209.244781,237.855667 
	C207.873367,242.769882 207.436859,247.813324 205.314056,252.719131 
	C202.909012,258.277100 197.989502,261.360687 195.211548,266.311920 
	C193.356339,269.618530 191.064819,272.729462 188.894073,275.840576 
	C184.167755,282.614380 176.811111,286.087494 171.306534,291.800812 
	C168.640228,294.568237 164.874771,298.818054 161.825180,298.778473 
	C154.563248,298.684265 148.359802,302.916748 141.233551,302.420288 
	C139.446198,302.295776 136.884613,301.663849 137.000000,305.000000 
M170.942673,135.315094 
	C172.023621,138.251373 175.740097,136.706604 177.120132,138.794861 
	C183.205078,148.002457 192.795258,154.182220 197.915024,164.480164 
	C200.681717,170.045105 205.867798,174.492981 207.808258,180.878159 
	C208.359833,182.693115 210.189209,182.768494 211.340286,181.197510 
	C216.398117,174.294617 224.419388,169.664276 226.972946,160.847473 
	C227.430420,159.267914 227.657059,157.588562 228.330582,156.110352 
	C230.919510,150.428223 233.741531,144.854172 233.636597,138.355789 
	C233.480988,128.719574 233.860229,119.214005 231.012436,109.611610 
	C229.484238,104.458725 228.456329,98.750992 225.233337,94.975227 
	C221.092453,90.124107 218.290176,83.784790 212.089569,80.776054 
	C206.966003,78.289955 203.846329,73.067863 197.444107,71.750717 
	C194.202225,71.083763 190.180344,70.298882 187.069046,68.475372 
	C180.772446,64.784973 173.615723,65.242958 167.923019,67.349380 
	C162.707230,69.279335 157.117126,69.566055 151.976166,72.082085 
	C147.500946,74.272270 146.213867,74.962936 149.600937,79.081688 
	C152.397049,82.481850 154.175980,86.352478 155.457047,90.470383 
	C157.083069,95.697197 159.672806,100.490578 161.096909,105.902603 
	C163.169815,113.780243 166.488556,121.325226 166.338379,129.669937 
	C166.285889,132.586166 167.117996,134.556046 170.942673,135.315094 
M59.191765,72.651466 
	C57.367550,73.302017 55.975746,74.745659 54.361240,75.709976 
	C47.788086,79.636070 40.206566,81.866379 35.245281,88.691017 
	C32.271229,92.782051 29.806364,97.062416 27.086958,101.251404 
	C23.914858,106.137711 22.830193,111.587029 21.486813,116.972374 
	C20.829197,119.608612 21.029036,122.158440 19.299479,124.810776 
	C17.233833,127.978523 17.031607,133.034988 19.151831,135.782562 
	C23.065851,140.854675 21.348909,146.972824 23.697903,152.454819 
	C25.823866,157.416306 28.156431,162.839035 31.035688,166.867325 
	C35.066563,172.506790 38.795509,179.998917 47.476322,180.691956 
	C48.790703,179.353622 51.017574,178.367386 50.620255,175.685257 
	C50.222950,173.003220 51.184868,170.929871 53.382950,169.253723 
	C54.528568,168.380127 55.778255,167.196304 56.202267,165.898270 
	C58.352688,159.315109 62.401764,153.895325 66.439163,148.456879 
	C70.862167,142.499008 77.036858,138.481903 83.232979,134.859085 
	C86.331116,133.047653 88.640694,131.301483 88.505501,127.976364 
	C88.095886,117.901955 90.509674,108.727196 93.976067,99.213013 
	C96.652367,91.867378 99.738548,85.451225 104.886215,79.784370 
	C106.163002,78.378807 106.400490,76.532326 105.576714,74.636505 
	C104.774132,72.789444 103.286789,72.436020 101.511253,72.396744 
	C100.034752,72.364075 98.597038,72.329567 97.128471,71.746834 
	C91.196785,69.393150 85.426277,66.532089 78.801292,66.400299 
	C71.741356,66.259857 65.921051,69.705742 59.191765,72.651466 
M83.670197,220.095413 
	C81.449554,217.766998 78.808754,217.600372 76.662971,219.714081 
	C74.925102,221.426010 74.155251,221.559845 72.311737,219.846207 
	C70.587265,218.243240 67.892769,217.947998 67.549736,221.207947 
	C67.134773,225.151566 66.098206,230.004990 67.851738,232.977402 
	C70.614250,237.660141 72.148697,243.187134 75.211006,247.184341 
	C80.966774,254.697296 86.504295,262.958679 95.638290,267.246002 
	C101.966530,270.216400 107.351616,275.592804 115.200745,274.641266 
	C124.530640,273.510162 133.998825,276.438263 143.424469,272.081024 
	C147.175598,270.346954 151.916656,270.610901 154.854660,266.721893 
	C155.208847,266.253082 155.964096,265.776093 156.505203,265.806488 
	C164.210403,266.239105 166.683655,259.539429 169.994034,254.985596 
	C175.202225,247.821045 179.173187,239.745026 183.522690,231.973587 
	C185.593018,228.274384 185.296356,224.010086 184.026352,220.369171 
	C182.889923,217.111252 179.070847,218.749588 176.396118,218.428772 
	C168.201431,217.445908 160.123154,219.049561 151.608124,216.101608 
	C144.575089,213.666687 138.054825,210.959274 131.676987,207.289474 
	C129.446548,206.006088 126.518127,204.712112 123.531860,206.811539 
	C114.064873,213.467087 104.123940,218.961334 91.981583,218.445419 
	C90.134430,218.366928 88.353798,218.508240 87.153709,220.359146 
	C86.385056,221.544632 85.197784,221.393860 83.670197,220.095413 
M10.731592,113.773468 
	C12.311993,110.798332 14.918105,107.945564 15.290226,104.826271 
	C16.690849,93.085617 24.293699,85.060303 31.076200,76.481651 
	C34.734196,71.854950 40.308491,70.191216 45.157207,67.338470 
	C55.255497,61.397152 65.222496,56.397995 77.585327,56.334919 
	C86.745628,56.288181 95.303337,58.637447 104.153763,59.708530 
	C104.641373,59.767540 105.204147,59.836536 105.577820,60.110828 
	C110.753372,63.909874 115.814896,67.870987 121.085106,71.532196 
	C125.177925,74.375473 126.488113,80.483963 132.455872,81.123001 
	C132.791656,81.158966 133.073837,82.196724 133.286438,82.801453 
	C134.849533,87.247581 137.583725,91.192863 139.945877,95.097733 
	C144.329758,102.344727 144.955185,110.512871 147.013885,118.216980 
	C148.211685,122.699356 148.427307,126.193581 153.861115,126.602425 
	C155.004562,123.211662 155.904053,118.881737 154.083130,116.441002 
	C150.100983,111.103416 152.338013,104.467155 148.819412,98.981369 
	C145.158493,93.273697 143.574707,86.545036 138.791046,81.034637 
	C133.048981,74.420250 126.713593,68.759254 119.973549,63.333687 
	C117.156525,61.066059 115.340096,58.090538 111.454842,56.505772 
	C108.767830,55.409756 105.751198,55.282738 103.325279,53.831177 
	C96.875145,49.971725 89.296097,50.898949 82.404205,48.686817 
	C77.969810,47.263485 73.019821,49.387329 68.181946,50.749443 
	C61.655350,52.587025 55.214409,54.270756 49.229446,57.467674 
	C46.246696,59.060940 43.470943,61.052536 39.790417,60.691540 
	C39.129658,60.626728 38.230350,61.306149 37.698742,61.880390 
	C33.578831,66.330620 29.142757,70.439461 24.352695,74.144730 
	C20.451134,77.162712 19.180935,81.982384 16.317766,85.562553 
	C11.571843,91.496971 9.446893,98.705154 8.021688,105.400749 
	C6.700484,111.607758 5.403303,118.248810 5.343991,124.856735 
	C5.231102,137.433762 5.040855,150.020416 10.442911,161.801102 
	C12.838826,167.026077 14.674238,172.876251 18.336622,177.069016 
	C24.359226,183.963821 29.594324,191.831345 37.830929,196.611877 
	C39.320007,197.476135 40.613022,197.958511 41.818645,196.596024 
	C43.028847,195.228363 42.296715,194.042999 41.353985,192.635925 
	C39.621048,190.049423 36.653221,189.447983 34.355526,187.828232 
	C29.072901,184.104294 27.504505,177.869370 23.613014,173.291748 
	C20.814095,169.999344 18.438610,166.687439 16.396606,162.743576 
	C12.914034,156.017395 11.815735,148.593002 10.217723,141.674149 
	C8.219160,133.021072 9.068590,123.494820 10.731592,113.773468 
M222.265350,74.891273 
	C227.288879,77.868240 228.880096,83.430168 230.859818,88.139999 
	C232.382294,91.762032 235.485992,93.661980 237.005157,96.771530 
	C241.409760,105.787216 242.149902,115.921791 245.161392,125.410141 
	C248.059631,134.541702 242.210938,143.201614 242.009216,152.292404 
	C242.003220,152.562347 241.648880,152.820755 241.466766,153.091156 
	C237.789719,158.551117 235.863403,164.854233 232.152100,170.479950 
	C227.148529,178.064545 222.448807,185.512878 215.335770,191.303360 
	C213.561874,192.747421 210.741043,191.682159 209.652115,193.920242 
	C207.651535,198.032028 204.262238,198.815247 200.169113,198.495819 
	C199.246216,198.423798 198.233917,198.865753 197.333405,199.240723 
	C191.607498,201.624985 186.041580,204.652908 179.588928,204.393219 
	C172.795227,204.119812 166.161407,203.498367 159.345627,202.137085 
	C151.646637,200.599442 146.472107,195.156662 139.068710,193.864624 
	C135.318054,197.955429 135.922531,197.286102 140.259384,201.202805 
	C143.319107,203.966095 146.757187,203.827332 149.790405,204.476486 
	C156.100800,205.827042 162.097107,208.826385 168.731201,208.603653 
	C177.005859,208.325821 185.176300,207.410248 193.392593,206.323349 
	C203.350693,205.006058 210.107422,199.914337 217.336853,194.784653 
	C224.438278,189.745789 228.763672,181.783981 235.402222,176.152634 
	C235.876083,175.750641 236.380020,175.068298 236.401703,174.498474 
	C236.595078,169.417648 240.705185,166.220428 242.751999,162.087814 
	C246.028580,155.472137 248.664078,148.334045 249.138397,141.618500 
	C249.823746,131.914734 251.011139,121.993843 247.291702,111.850845 
	C245.116440,105.918839 244.872650,98.694794 241.328354,93.164124 
	C238.369827,88.547501 237.073853,82.880150 232.887482,79.140495 
	C230.192062,76.732689 228.015579,73.948929 225.639847,71.290237 
	C222.345871,67.603951 219.027649,61.997787 215.028061,61.324806 
	C208.537018,60.232605 205.026993,54.784081 198.684235,53.277847 
	C193.793808,52.116508 188.213608,51.084690 183.113998,48.958420 
	C175.758423,45.891548 167.540512,49.993359 159.669678,50.863846 
	C154.946182,51.386246 150.599487,52.732880 146.128265,54.231560 
	C141.553253,55.765038 137.654678,57.671181 134.622833,61.685413 
	C136.552094,62.871696 136.589981,66.530304 140.092239,64.670326 
	C145.130951,61.994370 150.203857,59.334694 156.203522,59.576206 
	C158.007019,59.648804 160.223526,60.179214 161.490143,58.766453 
	C163.752716,56.242836 166.523209,56.648449 169.300919,56.629429 
	C172.133926,56.610027 174.976227,56.483963 177.798309,56.661388 
	C182.774429,56.974232 187.689636,55.882580 192.661270,58.977840 
	C195.001129,60.434608 198.440933,62.056580 201.501785,62.382137 
	C208.249329,63.099808 212.861420,66.732834 216.650681,71.814445 
	C217.944687,73.549782 219.303162,74.743057 222.265350,74.891273 
M80.609154,150.062836 
	C78.695389,151.788422 76.807678,153.319550 74.256210,154.347641 
	C71.064262,155.633835 71.100250,159.878006 69.105766,162.268204 
	C64.690979,167.558884 61.262829,173.188400 58.764626,179.679581 
	C57.576683,182.766281 58.548325,186.247910 56.711803,188.714279 
	C52.925316,193.799347 53.621571,200.085220 51.742546,205.679901 
	C48.631023,214.944260 54.164505,224.209137 54.556782,233.642395 
	C54.563423,233.802155 54.617119,233.992676 54.717175,234.111130 
	C59.211407,239.431290 57.891212,246.895874 61.979366,252.731232 
	C64.471138,256.287964 66.277847,261.494263 68.835159,264.633759 
	C72.906998,269.632599 76.290138,276.185425 83.606239,278.401367 
	C85.260101,278.902344 87.688576,280.172516 89.279694,281.827789 
	C94.365189,287.118195 100.916267,288.915894 107.923965,289.614838 
	C108.746559,289.696869 109.876244,289.485657 110.340996,289.942261 
	C115.477921,294.989105 121.958786,291.605408 127.661560,292.856201 
	C133.260452,294.084320 137.617661,289.120819 142.692291,289.759338 
	C153.933228,291.173798 162.272842,284.564514 169.957077,278.884033 
	C176.730789,273.876648 183.534973,267.675537 187.754440,259.716949 
	C190.602020,254.345917 193.341614,248.935257 195.860504,243.383301 
	C198.577515,237.394684 199.701523,230.824280 203.097275,225.109482 
	C204.805054,222.235382 203.609253,216.318008 201.415955,215.702316 
	C197.219208,214.524185 195.374832,217.767807 193.781952,220.533401 
	C192.969513,221.943970 193.539932,224.117844 193.360550,225.934372 
	C193.121307,228.357239 193.854141,230.805008 192.460129,233.208969 
	C189.879196,237.659775 188.660950,242.691910 187.506638,247.636017 
	C187.039352,249.637497 186.746323,251.714539 185.315201,252.999725 
	C176.908691,260.548920 171.260208,270.675446 161.027023,276.684326 
	C150.504639,282.863007 139.754395,287.048126 127.576950,287.376709 
	C123.248009,287.493530 118.912514,287.422974 114.581184,287.358704 
	C113.447701,287.341888 111.813126,287.442657 111.271660,286.782043 
	C108.321602,283.182861 103.584625,283.463928 99.879547,281.881256 
	C94.523186,279.593262 89.110199,278.256348 85.668747,273.004272 
	C84.737579,271.583191 83.086952,270.369568 81.497482,269.690887 
	C75.589882,267.168427 72.502487,262.142700 69.387169,256.994415 
	C66.762405,252.656784 65.479843,247.822113 63.667927,243.176086 
	C61.592171,237.853531 58.651516,232.847214 58.589550,226.865356 
	C58.543797,222.448593 59.238232,218.002792 56.940727,213.704590 
	C56.041656,212.022614 56.051456,209.078690 56.934631,207.378021 
	C58.914707,203.565094 58.464119,199.656448 58.660122,195.723511 
	C58.717060,194.580994 58.626583,193.049530 59.291752,192.382568 
	C62.862541,188.802063 62.618977,183.645081 64.168007,179.417542 
	C66.683907,172.551270 71.695091,167.502243 74.575714,161.109848 
	C76.854591,156.052811 82.853592,155.552246 85.953514,151.646713 
	C87.216476,150.055527 90.014160,148.059982 87.503784,145.701767 
	C85.194756,143.532669 84.355560,147.095230 82.691635,147.729553 
	C82.020264,147.985504 81.615852,148.941696 80.609154,150.062836 
M100.364311,146.290253 
	C100.538582,147.931427 100.170738,149.928482 100.976112,151.155365 
	C105.790825,158.489868 108.024361,166.949951 111.666382,174.784317 
	C112.501793,176.581345 114.116806,177.917953 115.925835,177.507324 
	C117.745178,177.094345 119.322510,175.070969 118.293327,173.267151 
	C116.944588,170.903275 117.221237,167.980652 115.524094,165.936798 
	C110.018936,159.306946 108.661308,150.614044 108.193756,143.121262 
	C107.464005,131.426712 105.719315,119.464592 110.024475,107.396690 
	C112.224274,101.230362 113.356201,94.803284 117.547295,89.510323 
	C118.824089,87.897858 118.587082,86.071434 118.579887,84.257957 
	C118.572273,82.340645 117.527519,80.860466 115.769295,80.652710 
	C114.131134,80.459122 112.514336,81.410873 111.760071,83.065956 
	C110.019440,86.885452 108.351692,90.739197 106.716072,94.605148 
	C105.686569,97.038437 107.029648,99.783150 105.374199,102.297516 
	C102.235390,107.064857 99.400459,112.023720 100.305092,118.191978 
	C100.615250,120.306778 99.914940,122.153343 98.621277,124.158356 
	C96.259239,127.819237 96.284210,132.698547 98.184860,136.087479 
	C99.967690,139.266327 100.320747,142.136505 100.364311,146.290253 
M157.511719,141.345932 
	C154.241348,140.435059 150.728989,139.239929 148.068756,137.761826 
	C144.810837,135.951614 140.988052,136.615280 138.477585,134.728424 
	C132.604309,130.314087 126.298813,133.089615 120.235313,132.665726 
	C117.786591,132.494522 117.303139,134.895264 117.408150,137.093353 
	C117.513962,139.308243 118.659637,140.515869 120.828720,140.555389 
	C125.320435,140.637253 129.822983,140.794159 134.304611,140.578445 
	C139.172104,140.344131 143.727417,140.837036 147.869308,143.714294 
	C149.557312,144.886902 151.860764,145.826477 153.113052,146.934570 
	C156.481445,149.915085 161.348358,148.535950 164.402542,152.008713 
	C171.177551,159.712234 178.330734,167.081940 185.195862,174.708267 
	C186.722565,176.404236 187.750473,178.543381 187.394623,181.081024 
	C186.890274,184.677734 189.659058,186.409958 191.960678,188.127121 
	C193.253006,189.091293 195.184372,188.974365 196.611740,187.737167 
	C197.615112,186.867447 197.734161,185.646164 197.178619,184.534409 
	C194.460419,179.094696 193.046509,172.909271 188.277573,168.637955 
	C187.510818,167.951218 186.699158,167.403961 186.703827,166.274658 
	C186.722137,161.835388 183.489929,159.048492 180.442047,157.352539 
	C176.297180,155.046265 173.497665,151.619141 170.238968,148.533768 
	C166.791183,145.269363 163.059265,142.490631 157.511719,141.345932 
M79.611259,191.606537 
	C86.744522,192.550583 93.426651,190.546341 100.180367,188.686691 
	C102.355919,188.087646 105.062965,188.835587 105.901199,185.884201 
	C106.686409,183.119507 106.436302,179.729126 104.567001,178.102646 
	C99.386818,173.595367 97.762085,166.837036 92.993134,161.671936 
	C90.177635,163.509338 87.304375,165.560486 84.267395,167.330750 
	C77.328056,171.375778 76.325768,179.791382 70.988098,185.137161 
	C68.443932,187.685181 70.838516,191.273849 74.676888,191.563843 
	C75.998924,191.663727 77.333649,191.595673 79.611259,191.606537 
M105.246979,204.740555 
	C115.556023,201.359390 122.845406,193.319748 131.638596,187.600159 
	C132.009308,187.359009 132.282898,186.807358 132.391983,186.350296 
	C133.432236,181.991241 136.715988,179.198349 139.606461,176.196609 
	C144.138306,171.490326 145.957428,165.395767 148.396164,159.629639 
	C149.163467,157.815475 147.760284,156.356445 146.211243,155.617920 
	C144.358551,154.734634 142.376282,156.454422 142.269714,157.440094 
	C141.894333,160.912109 139.201797,163.099777 138.146103,166.210709 
	C136.748703,170.328522 134.514679,174.551437 130.995361,177.124893 
	C129.189529,178.445435 127.555931,179.004440 127.216537,181.524521 
	C126.953606,183.476852 125.642822,185.155838 124.076248,186.401031 
	C118.433563,190.886108 112.734772,195.383026 106.137238,198.326263 
	C104.249306,199.168518 103.565010,201.425217 101.330734,201.480377 
	C96.302933,201.604523 91.593727,202.209076 86.560684,203.843521 
	C80.980179,205.655762 74.044907,205.699295 67.905128,202.667191 
	C66.683708,206.722031 67.959404,208.456146 72.034836,208.629059 
	C83.060074,209.096863 93.966187,208.726837 105.246979,204.740555 
M175.939117,191.642441 
	C177.842773,191.450226 180.123550,192.157379 181.129807,189.700089 
	C182.101013,187.328445 179.573822,186.745529 178.777481,185.272324 
	C176.786118,181.588303 172.417801,179.534225 171.055420,175.900818 
	C169.186508,170.916412 165.744141,167.471237 162.343231,163.909485 
	C160.370377,161.843323 158.240051,162.064224 157.358612,165.484314 
	C156.180389,170.055954 154.915787,174.490036 150.864868,177.752014 
	C148.532227,179.630341 148.322037,183.028748 149.006561,185.864090 
	C149.766434,189.011536 152.708130,188.636047 155.209671,188.631851 
	C157.363571,188.628250 159.185013,189.662598 161.126282,190.292480 
	C165.569016,191.733994 170.301514,193.672516 175.939117,191.642441 
M126.301712,95.607719 
	C124.191643,96.065811 123.310127,97.439499 122.250519,99.367210 
	C120.005478,103.451538 119.706955,108.032303 118.025085,112.215538 
	C115.234970,119.155212 117.527122,122.580872 124.892807,122.609406 
	C127.891571,122.621025 130.895050,122.692444 133.888031,122.554939 
	C136.845261,122.419067 138.519272,120.853127 136.870193,118.006927 
	C135.672165,115.939240 135.804169,113.910339 135.605301,111.788956 
	C134.988266,105.206818 132.351776,99.711708 126.301712,95.607719 
M129.331421,160.414505 
	C130.116821,159.586060 131.088974,158.866867 131.650406,157.907364 
	C132.997406,155.605286 133.690796,152.694565 131.093384,151.284866 
	C128.013138,149.613113 123.949936,149.400909 120.992310,151.162750 
	C117.362038,153.325287 121.572693,155.162308 122.218941,157.181473 
	C122.369034,157.650406 122.299889,158.191864 122.462082,158.654190 
	C123.666328,162.086838 125.528030,163.711685 129.331421,160.414505 
z"/>
</svg>