<svg version="1.1" id="Layer_1" xmlns="http://www.w3.org/2000/svg" xmlns:xlink="http://www.w3.org/1999/xlink" x="0px" y="0px"
	 width="100%" viewBox="0 0 253 228" enable-background="new 0 0 253 228" xml:space="preserve">
<path fill="#FEFEFE" opacity="1.000000" stroke="none" 
	d="
M145.000000,229.000000 
	C96.666672,229.000000 48.833340,229.000000 1.000006,229.000000 
	C1.000004,153.000000 1.000004,77.000015 1.000002,1.000017 
	C85.333321,1.000011 169.666641,1.000011 253.999969,1.000005 
	C253.999985,76.999985 253.999985,152.999969 254.000000,228.999969 
	C217.833328,229.000000 181.666672,229.000000 145.000000,229.000000 
M65.572411,132.000137 
	C67.380966,134.322937 70.094040,136.397507 70.813499,139.019196 
	C72.408333,144.830612 69.226387,151.102585 73.683685,157.124023 
	C76.074631,160.354004 75.684563,166.168610 79.212219,168.992233 
	C81.414459,170.754944 82.180809,172.120605 82.091507,174.607391 
	C82.075417,175.055511 82.987679,175.623749 83.564125,175.990799 
	C85.676048,177.335556 88.094162,178.330856 89.894196,179.999969 
	C92.021843,181.972824 93.447975,184.182663 96.624329,185.436386 
	C98.820557,186.303238 102.024086,187.059036 103.410576,188.529556 
	C107.875366,193.264984 113.001930,194.407410 119.069756,194.111771 
	C120.740578,194.030350 122.477600,195.307373 124.026161,195.900528 
	C125.649536,195.323578 127.463394,194.388412 129.382492,194.049881 
	C135.838089,192.911133 142.336700,192.017136 148.798813,190.912384 
	C149.285690,190.829147 149.502518,189.673111 150.037399,189.273376 
	C152.021515,187.790543 154.212463,185.089752 156.095078,185.268982 
	C160.352707,185.674301 162.026703,182.752975 163.895325,180.464752 
	C166.949097,176.725250 169.285339,172.406448 172.040695,168.412354 
	C172.814148,167.291168 174.862717,166.438736 174.849274,165.483810 
	C174.755432,158.809204 181.432297,154.111435 180.053604,147.145737 
	C180.003616,146.893219 180.278473,146.333389 180.441696,146.317184 
	C184.541672,145.910187 182.687622,142.754623 182.946396,140.703979 
	C183.194717,138.735916 182.734482,136.667007 183.063278,134.723221 
	C183.543076,131.886917 184.166077,129.004013 188.140366,128.900436 
	C189.120987,128.874863 189.974548,127.316689 191.049377,126.974281 
	C195.365601,125.599281 195.028763,117.577003 201.216476,119.881622 
	C202.794525,115.679680 204.211319,111.861977 205.663818,108.057922 
	C206.435608,106.036636 207.139282,103.973885 208.104919,102.045639 
	C209.634598,98.991112 212.508926,96.131836 212.774551,93.016060 
	C213.451416,85.076218 213.031601,77.039902 212.959869,69.042999 
	C212.950882,68.041321 212.552078,66.959854 212.065140,66.060959 
	C210.442780,63.065971 208.482056,60.236740 207.062531,57.154461 
	C205.717697,54.234398 205.496994,50.642391 203.695282,48.122963 
	C200.961731,44.300468 197.322784,41.116238 193.999130,37.728897 
	C192.375198,36.073887 190.815796,33.770107 188.824585,33.221638 
	C186.732529,32.645393 185.284927,32.725636 184.301086,30.187939 
	C183.425812,27.930271 180.864120,27.399742 178.228989,26.640907 
	C174.419693,25.543949 170.922409,23.452715 166.710114,23.854967 
	C166.512146,23.873875 166.305069,23.379099 166.043411,23.220737 
	C164.790054,22.462135 163.540543,21.154308 162.245834,21.100714 
	C156.590591,20.866627 150.919739,20.964735 145.255585,21.031427 
	C144.188965,21.043987 142.966614,21.203299 142.093155,21.743134 
	C139.453781,23.374380 136.885132,26.778564 134.407959,26.673908 
	C128.987564,26.444906 126.364204,29.416784 124.125275,32.923203 
	C122.206947,30.783207 120.793823,27.744633 118.778252,27.271275 
	C114.918045,26.364702 112.049881,21.953754 107.404411,23.941311 
	C107.099854,24.071613 106.158066,23.609081 106.158295,23.423107 
	C106.163109,19.528528 103.080765,20.849398 101.501266,21.111092 
	C94.540421,22.264383 87.562622,19.149500 80.251038,23.478373 
	C76.133316,25.916304 70.585716,27.048607 66.229523,30.032175 
	C64.294304,31.357616 62.457310,32.826477 59.898232,34.735687 
	C59.898232,35.308304 59.898232,36.934639 59.898232,38.733799 
	C58.167393,38.950069 56.614616,39.144089 55.061844,39.338108 
	C55.399181,39.673466 55.736515,40.008823 56.073853,40.344181 
	C54.393993,42.884804 53.245750,46.192898 50.921326,47.802979 
	C46.370766,50.955063 45.277447,55.569359 44.043945,60.230019 
	C42.828609,64.822037 41.978218,69.510345 40.939510,74.150093 
	C40.874310,74.441322 40.553371,74.913246 40.369602,74.904808 
	C36.776222,74.739838 38.016834,77.476463 38.072536,79.092133 
	C38.182812,82.290657 37.850300,85.088814 40.544937,88.379646 
	C42.851818,91.196938 40.586674,96.755424 43.720577,101.155937 
	C46.705124,105.346718 47.380672,111.176407 49.129345,116.265625 
	C49.241886,116.593155 49.926628,116.680916 50.219589,116.996719 
	C51.907734,118.816460 53.503693,120.724144 55.233070,122.502670 
	C58.346531,125.704643 61.532284,128.836319 65.572411,132.000137 
z"/>
<path fill="#000000" opacity="1.000000" stroke="none" 
	d="
M65.130127,131.998749 
	C61.532284,128.836319 58.346531,125.704643 55.233070,122.502670 
	C53.503693,120.724144 51.907734,118.816460 50.219589,116.996719 
	C49.926628,116.680916 49.241886,116.593155 49.129345,116.265625 
	C47.380672,111.176407 46.705124,105.346718 43.720577,101.155937 
	C40.586674,96.755424 42.851818,91.196938 40.544937,88.379646 
	C37.850300,85.088814 38.182812,82.290657 38.072536,79.092133 
	C38.016834,77.476463 36.776222,74.739838 40.369602,74.904808 
	C40.553371,74.913246 40.874310,74.441322 40.939510,74.150093 
	C41.978218,69.510345 42.828609,64.822037 44.043945,60.230019 
	C45.277447,55.569359 46.370766,50.955063 50.921326,47.802979 
	C53.245750,46.192898 54.393993,42.884804 56.073853,40.344181 
	C55.736515,40.008823 55.399181,39.673466 55.061844,39.338108 
	C56.614616,39.144089 58.167393,38.950069 59.898232,38.733799 
	C59.898232,36.934639 59.898232,35.308304 59.898232,34.735687 
	C62.457310,32.826477 64.294304,31.357616 66.229523,30.032175 
	C70.585716,27.048607 76.133316,25.916304 80.251038,23.478373 
	C87.562622,19.149500 94.540421,22.264383 101.501266,21.111092 
	C103.080765,20.849398 106.163109,19.528528 106.158295,23.423107 
	C106.158066,23.609081 107.099854,24.071613 107.404411,23.941311 
	C112.049881,21.953754 114.918045,26.364702 118.778252,27.271275 
	C120.793823,27.744633 122.206947,30.783207 124.125275,32.923203 
	C126.364204,29.416784 128.987564,26.444906 134.407959,26.673908 
	C136.885132,26.778564 139.453781,23.374380 142.093155,21.743134 
	C142.966614,21.203299 144.188965,21.043987 145.255585,21.031427 
	C150.919739,20.964735 156.590591,20.866627 162.245834,21.100714 
	C163.540543,21.154308 164.790054,22.462135 166.043411,23.220737 
	C166.305069,23.379099 166.512146,23.873875 166.710114,23.854967 
	C170.922409,23.452715 174.419693,25.543949 178.228989,26.640907 
	C180.864120,27.399742 183.425812,27.930271 184.301086,30.187939 
	C185.284927,32.725636 186.732529,32.645393 188.824585,33.221638 
	C190.815796,33.770107 192.375198,36.073887 193.999130,37.728897 
	C197.322784,41.116238 200.961731,44.300468 203.695282,48.122963 
	C205.496994,50.642391 205.717697,54.234398 207.062531,57.154461 
	C208.482056,60.236740 210.442780,63.065971 212.065140,66.060959 
	C212.552078,66.959854 212.950882,68.041321 212.959869,69.042999 
	C213.031601,77.039902 213.451416,85.076218 212.774551,93.016060 
	C212.508926,96.131836 209.634598,98.991112 208.104919,102.045639 
	C207.139282,103.973885 206.435608,106.036636 205.663818,108.057922 
	C204.211319,111.861977 202.794525,115.679680 201.216476,119.881622 
	C195.028763,117.577003 195.365601,125.599281 191.049377,126.974281 
	C189.974548,127.316689 189.120987,128.874863 188.140366,128.900436 
	C184.166077,129.004013 183.543076,131.886917 183.063278,134.723221 
	C182.734482,136.667007 183.194717,138.735916 182.946396,140.703979 
	C182.687622,142.754623 184.541672,145.910187 180.441696,146.317184 
	C180.278473,146.333389 180.003616,146.893219 180.053604,147.145737 
	C181.432297,154.111435 174.755432,158.809204 174.849274,165.483810 
	C174.862717,166.438736 172.814148,167.291168 172.040695,168.412354 
	C169.285339,172.406448 166.949097,176.725250 163.895325,180.464752 
	C162.026703,182.752975 160.352707,185.674301 156.095078,185.268982 
	C154.212463,185.089752 152.021515,187.790543 150.037399,189.273376 
	C149.502518,189.673111 149.285690,190.829147 148.798813,190.912384 
	C142.336700,192.017136 135.838089,192.911133 129.382492,194.049881 
	C127.463394,194.388412 125.649536,195.323578 124.026161,195.900528 
	C122.477600,195.307373 120.740578,194.030350 119.069756,194.111771 
	C113.001930,194.407410 107.875366,193.264984 103.410576,188.529556 
	C102.024086,187.059036 98.820557,186.303238 96.624329,185.436386 
	C93.447975,184.182663 92.021843,181.972824 89.894196,179.999969 
	C88.094162,178.330856 85.676048,177.335556 83.564125,175.990799 
	C82.987679,175.623749 82.075417,175.055511 82.091507,174.607391 
	C82.180809,172.120605 81.414459,170.754944 79.212219,168.992233 
	C75.684563,166.168610 76.074631,160.354004 73.683685,157.124023 
	C69.226387,151.102585 72.408333,144.830612 70.813499,139.019196 
	C70.094040,136.397507 67.380966,134.322937 65.130127,131.998749 
M195.255325,108.013161 
	C192.714874,110.698128 190.174408,113.383095 187.139313,116.590843 
	C195.120270,117.260445 196.104507,116.117859 196.832870,107.995628 
	C198.412476,107.995628 199.992065,107.995628 202.135056,107.995628 
	C202.135056,104.859268 202.135056,101.993988 202.988205,99.008041 
	C203.586212,98.851219 204.645966,98.802910 204.712189,98.521126 
	C205.557236,94.924911 206.953629,91.276459 206.856216,87.677925 
	C206.644882,79.871613 205.660065,72.085693 204.954453,64.294792 
	C204.915680,63.866600 204.530045,63.105804 204.321564,63.111145 
	C200.713211,63.203568 202.250015,60.484657 202.043121,58.855038 
	C201.843811,57.285168 202.000000,55.670166 202.000000,53.999901 
	C200.537766,53.999901 199.704941,54.043320 198.878647,53.988461 
	C197.933701,53.925720 196.994537,53.775616 196.093170,53.668274 
	C195.989243,50.001236 196.501297,49.536278 190.813141,43.271935 
	C186.405701,38.418018 181.830597,32.713142 173.974838,32.971046 
	C173.374207,32.990761 172.234497,32.641598 172.231781,32.451210 
	C172.177475,28.657158 169.324615,30.075739 167.546768,30.050646 
	C159.392303,29.935543 151.214020,29.661810 143.090103,30.173130 
	C140.012955,30.366806 136.904449,32.254822 134.112213,33.887085 
	C132.647385,34.743382 131.835266,36.716194 130.078354,39.047253 
	C132.694702,38.892357 135.262924,39.086380 135.361237,38.681168 
	C136.389999,34.440853 139.677216,36.430744 142.042343,36.009171 
	C142.840866,35.866837 144.301147,35.999390 144.372208,35.724937 
	C145.595566,31.000008 149.483353,32.851025 151.945892,33.162563 
	C158.097794,33.940857 164.608475,30.538548 170.564453,35.759270 
	C173.218796,38.085938 177.981934,38.005665 181.786453,39.023438 
	C182.100616,39.107479 182.514969,39.141212 182.694473,39.355824 
	C185.478638,42.684162 187.812241,46.552094 191.108475,49.244133 
	C194.481552,51.998909 193.396942,56.486382 196.078949,59.112270 
	C200.586060,63.525043 202.480469,68.734322 202.052307,74.958397 
	C201.985245,75.933098 202.498627,77.010277 202.946930,77.942245 
	C203.523926,79.141716 204.577896,80.161797 204.945938,81.401764 
	C205.835831,84.399910 203.287598,86.156410 202.356766,88.451965 
	C201.098419,91.555199 202.198578,95.614807 201.371719,99.020576 
	C200.581833,99.670784 199.267517,100.212662 199.106384,100.992737 
	C198.717834,102.873833 199.679504,105.330879 196.356796,105.439911 
	C196.233627,105.443947 196.166779,107.163803 195.255325,108.013161 
M179.143829,126.005966 
	C172.458496,123.862015 167.436569,130.107513 160.907700,129.225159 
	C161.037384,131.039047 161.140289,132.478485 161.246719,133.967239 
	C163.622543,133.257523 165.720505,132.604614 167.833649,132.005234 
	C171.747589,130.895050 175.692764,129.884247 179.554230,128.616699 
	C179.931808,128.492752 179.816818,126.868217 180.796738,125.995575 
	C185.236481,126.638016 185.957031,122.960548 189.133087,120.380882 
	C182.783478,119.345978 181.204422,122.430794 179.143829,126.005966 
M166.004288,111.853203 
	C166.004288,114.470329 166.004288,117.087448 166.004288,119.812881 
	C168.193878,119.812881 169.953156,119.812881 171.781815,119.812881 
	C170.607742,116.776573 169.572861,113.896431 168.310959,111.119453 
	C168.168564,110.806068 166.745193,111.074791 165.993713,110.194855 
	C165.196762,106.490509 164.399796,102.786171 163.647644,99.290070 
	C161.619995,99.001328 158.360886,98.845261 158.338501,98.487000 
	C158.078140,94.319099 154.817245,96.693832 153.008865,95.049728 
	C152.713318,94.375572 152.604675,93.389015 152.090012,93.081100 
	C149.806305,91.714767 147.347015,90.641884 145.063232,89.275635 
	C142.288940,87.615913 139.790283,84.670105 136.881546,84.237854 
	C131.383499,83.420830 125.677704,84.001755 120.058243,84.001755 
	C119.938583,84.615440 119.818924,85.229134 119.699272,85.842819 
	C120.973984,86.228539 122.427299,87.217133 123.494118,86.901077 
	C129.905151,85.001785 134.854507,90.674728 140.961166,90.073700 
	C141.262772,90.044006 141.615601,90.628616 141.958496,90.910240 
	C145.257462,93.619705 148.254166,97.045242 153.021179,96.580086 
	C154.683304,98.931419 156.123505,101.488335 158.063416,103.582314 
	C160.515564,106.229187 163.374710,108.499023 166.004288,111.853203 
M107.956665,128.991501 
	C101.021233,128.991501 94.085800,128.991501 87.271561,128.991501 
	C87.271561,130.959091 87.271561,132.358688 87.271561,134.306305 
	C94.349136,133.503311 101.102852,132.795380 107.821480,131.840576 
	C108.258972,131.778381 108.427116,129.820862 109.671959,128.980103 
	C111.133217,128.986694 112.642227,129.232269 114.046127,128.951782 
	C117.303368,128.301010 119.442070,126.365486 120.792526,122.993980 
	C121.951256,122.979172 123.602654,123.455460 124.187569,122.868675 
	C127.604675,119.440628 131.003525,115.939201 133.921158,112.092865 
	C135.280869,110.300346 134.960068,106.319153 136.417740,105.691559 
	C140.309036,104.016174 138.687576,101.515266 138.775116,99.029892 
	C138.012177,99.029892 137.406799,98.852661 137.048569,99.074509 
	C136.595139,99.355309 136.225220,99.914635 136.021652,100.433258 
	C133.775177,106.156960 130.716461,111.025719 125.358902,114.660919 
	C122.850838,116.362686 121.787430,120.193596 119.195679,123.004410 
	C115.839302,124.150803 112.458481,125.235191 109.162315,126.534348 
	C108.811768,126.672508 108.956718,128.067810 107.956665,128.991501 
M93.005173,173.759033 
	C93.873314,176.823990 94.991852,179.542679 99.048553,179.058380 
	C99.641838,178.987549 100.367058,179.608322 100.959526,180.013840 
	C103.913429,182.035645 106.216438,185.234161 110.385910,185.019485 
	C111.875114,184.942810 113.375854,185.090042 114.992401,186.000946 
	C115.053749,186.492996 114.944572,187.284927 115.202354,187.431503 
	C118.399162,189.249222 139.919357,187.545288 141.403015,184.438446 
	C143.062027,180.964447 145.221451,182.456284 147.257080,182.009094 
	C148.046249,181.835709 149.107529,182.051529 149.619308,181.603714 
	C152.796082,178.823990 155.896805,175.952652 158.937363,173.023071 
	C163.610291,168.520721 169.747238,164.918259 169.032135,156.990433 
	C168.978638,156.397400 169.327881,155.238037 169.524139,155.230453 
	C173.702103,155.069519 171.496155,151.896088 171.960434,150.058960 
	C172.237061,148.964264 171.769455,146.947266 172.236359,146.747543 
	C177.345932,144.562057 174.107407,140.500336 175.001160,137.214569 
	C172.812378,137.214569 171.076279,137.214569 169.000259,137.214569 
	C169.000259,138.219360 168.888168,139.039062 169.018005,139.818451 
	C170.045197,145.984894 168.035522,151.611847 165.927444,157.203827 
	C165.059784,159.505371 164.356918,162.041260 162.867218,163.899994 
	C159.833069,167.685745 156.321960,171.090134 152.989807,174.635132 
	C152.519913,175.135056 152.019806,175.779602 151.417160,175.953537 
	C147.637497,177.044418 143.823395,178.015717 140.025696,179.045029 
	C139.723389,179.126953 139.216766,179.341537 139.212173,179.505844 
	C139.096481,183.639572 135.934448,181.486786 134.090225,181.974670 
	C133.312042,182.180527 131.831589,181.897919 131.734741,182.190125 
	C130.118362,187.066818 126.100899,184.479843 123.171608,184.929428 
	C120.406593,185.353790 117.551498,185.191223 114.979492,184.368561 
	C114.972885,183.873657 115.137039,183.036957 114.933899,182.935455 
	C112.188866,181.564087 109.416023,180.241562 106.602684,179.015717 
	C103.887581,177.832657 99.731697,177.496750 98.690872,175.496872 
	C97.057007,172.357468 95.106506,173.165161 92.994560,172.185913 
	C92.710884,170.058609 93.974838,167.815460 90.471703,166.382660 
	C88.111237,165.417191 85.745514,162.093811 85.252274,159.473251 
	C84.454102,155.232666 80.036354,151.973297 81.939583,147.097534 
	C82.017448,146.898071 81.699936,146.299072 81.533279,146.285156 
	C77.291489,145.930542 79.276329,142.689499 79.071411,140.669846 
	C78.787224,137.868881 79.653519,134.818665 78.865608,132.228546 
	C77.161484,126.626572 82.134903,122.818192 82.071884,117.779709 
	C82.068886,117.540573 82.454010,117.276367 82.689659,117.057503 
	C86.253334,113.747719 87.474670,109.792000 86.039223,105.044823 
	C84.069778,107.768478 83.377754,111.179985 81.450340,113.612717 
	C78.208008,117.705109 75.266243,121.830528 76.086121,127.176239 
	C77.280365,134.962906 74.067535,142.734070 78.445938,150.891724 
	C80.862717,155.394547 81.548195,161.456558 85.101814,165.820389 
	C87.325943,168.551636 88.600548,172.617752 93.005173,173.759033 
M55.004845,105.805176 
	C54.141418,114.655685 61.888306,119.043724 65.500526,125.559235 
	C65.988380,126.439209 69.046974,125.893951 71.094948,126.019676 
	C70.976395,123.537300 70.892883,121.788528 70.811226,120.078789 
	C66.091873,119.970047 60.896179,114.663116 59.804695,110.736328 
	C59.200394,108.562248 56.614368,106.939018 54.994347,104.150818 
	C54.957378,101.667572 55.743488,97.469185 54.744816,96.989929 
	C49.690567,94.564438 52.479862,90.464966 52.123634,87.261337 
	C51.631039,82.831383 52.688229,78.168190 51.827099,73.855400 
	C50.732197,68.371796 55.222042,64.954491 55.698635,60.108440 
	C55.912411,57.934765 58.133369,55.988338 59.331036,53.875053 
	C61.502235,50.043983 66.636726,47.590996 65.815765,41.995613 
	C69.192963,40.774948 72.946518,40.120129 75.850784,38.188423 
	C79.372414,35.846088 82.419594,32.430378 86.981430,33.093864 
	C93.111816,33.985481 99.689163,30.437809 105.571327,35.740227 
	C107.294098,37.293198 111.601326,35.979141 114.946350,35.979141 
	C114.946350,34.987343 115.142647,33.905422 114.916763,33.808620 
	C111.770264,32.460182 108.430252,29.931574 105.401039,30.244287 
	C95.961586,31.218750 86.159103,26.883574 76.868248,32.690491 
	C74.853920,33.949474 71.226555,33.633667 69.246140,36.045151 
	C67.698692,37.929420 66.453575,40.061989 64.185287,42.005966 
	C62.794384,42.085667 61.403484,42.165363 60.211067,42.233685 
	C59.986141,44.426117 60.069538,47.402737 59.613197,47.487923 
	C53.597374,48.610878 56.323395,55.374012 52.323383,58.372654 
	C49.768353,60.288063 50.009998,65.934128 48.997944,69.907623 
	C48.840569,70.525497 48.801235,71.619011 48.509735,71.690842 
	C43.514179,72.921921 46.562466,76.813560 46.140495,79.362289 
	C45.606773,82.585983 44.860867,87.998520 46.373310,88.923332 
	C51.059925,91.789070 48.200443,95.575508 48.949471,98.775764 
	C49.750645,102.198845 51.568321,104.322731 55.004845,105.805176 
M158.000275,88.525093 
	C158.494431,89.012962 159.081955,89.989426 159.468735,89.915512 
	C165.397079,88.782501 167.365677,94.815552 168.468567,97.381935 
	C170.551666,102.229225 172.828201,106.770897 175.915436,110.980118 
	C178.998535,115.183746 180.950745,115.149467 184.116135,110.988754 
	C187.363358,106.720451 191.321655,102.820915 193.697037,98.117691 
	C195.498886,94.550087 195.944427,89.961227 195.857193,85.850929 
	C195.709198,78.878792 195.119263,71.835312 193.761612,65.011528 
	C193.257904,62.479923 191.260590,60.040348 190.273712,57.261658 
	C189.372055,54.722931 186.130325,52.964104 183.805969,50.996117 
	C181.435364,48.988979 179.148361,46.695202 176.419388,45.348225 
	C173.220764,43.769447 169.634018,42.399704 166.127884,42.144424 
	C159.339905,41.650200 152.469498,41.697704 145.678284,42.169262 
	C143.400269,42.327442 141.228592,44.409592 139.107712,45.767605 
	C138.917358,45.889488 139.292633,47.268684 139.692780,47.873844 
	C141.398987,50.454292 143.971970,52.736313 144.813782,55.550468 
	C146.140366,59.985195 146.324783,64.760834 147.005264,69.390305 
	C147.122086,70.185081 147.236221,71.639587 147.461395,71.661491 
	C151.728806,72.076828 149.861618,75.331161 149.920273,77.323212 
	C150.127960,84.378044 151.396072,86.191734 158.000275,88.525093 
M104.000000,71.451057 
	C104.670174,66.149292 105.320518,60.844833 106.041000,55.549911 
	C106.113503,55.017097 106.584450,54.524147 106.914886,54.043205 
	C108.595566,51.597019 110.333130,49.187729 111.923523,46.684669 
	C112.106674,46.396420 111.637062,45.463379 111.234627,45.070450 
	C108.628754,42.526146 105.587814,41.661266 101.857773,41.907082 
	C96.383995,42.267815 90.868729,41.986088 85.371307,42.013062 
	C84.393669,42.017857 83.194725,41.864204 82.479568,42.347908 
	C79.904510,44.089554 77.737946,47.067066 74.966515,47.750412 
	C69.746605,49.037483 67.471031,53.029171 64.775681,56.681534 
	C63.604923,58.267975 63.815041,61.901573 62.652214,62.273453 
	C59.129333,63.400093 60.450821,65.886932 59.900486,68.009148 
	C59.356594,70.106514 56.864349,72.218430 57.203499,73.932953 
	C58.513111,80.553574 53.733280,87.704948 59.709644,94.136444 
	C61.609741,96.181229 58.860340,101.477364 62.997040,103.828598 
	C61.940361,111.969627 70.596230,109.883629 73.229294,115.140488 
	C74.622948,108.979721 75.158272,103.905975 79.020584,100.170464 
	C80.019707,99.204163 80.851059,97.841896 82.044746,97.340050 
	C85.981575,95.684937 85.734070,88.492783 91.939468,89.929123 
	C92.204216,89.990402 92.857353,89.462631 92.923401,89.128891 
	C93.800529,84.696381 97.005501,83.536186 100.818687,83.686081 
	C101.008621,81.691513 100.840050,78.775787 101.370132,78.642693 
	C105.313957,77.652466 103.662354,74.664368 104.000000,71.451057 
M136.710403,173.055801 
	C138.342133,172.927170 140.726807,173.437836 141.473862,172.558029 
	C144.531464,168.957031 148.433441,167.344467 152.846573,166.471848 
	C152.981934,164.667084 153.113739,162.909866 153.241806,161.202301 
	C154.977386,161.031982 156.399643,160.892395 157.412460,160.792999 
	C158.746826,156.792801 158.883530,151.684021 161.363800,149.973602 
	C165.851654,146.878708 163.054901,143.528748 164.138809,140.000000 
	C162.283966,140.000000 160.924576,139.738541 159.706223,140.042465 
	C151.805542,142.013245 144.876572,137.137939 137.294571,136.952744 
	C136.880096,136.942612 136.204727,136.643448 136.106232,136.333893 
	C134.889023,132.508835 131.042984,133.219223 128.430817,132.122528 
	C120.892067,128.957489 116.625931,138.808304 109.336525,137.415878 
	C109.266190,137.402435 109.061089,137.644699 109.063698,137.764435 
	C109.142929,141.401733 106.357323,139.890121 104.785255,139.933975 
	C98.876747,140.098709 92.960892,140.000000 87.000137,140.000000 
	C87.000137,143.527298 86.950058,146.355621 87.028954,149.180328 
	C87.054482,150.094131 87.161064,151.591888 87.668816,151.812119 
	C91.314186,153.393234 92.695221,155.870468 93.339409,159.928131 
	C93.751175,162.521835 96.860512,166.229721 99.248573,166.647430 
	C104.281509,167.527771 107.267273,171.293274 111.449013,173.184464 
	C112.757751,173.776321 113.726440,175.816330 114.910858,175.870087 
	C121.054985,176.148956 127.221611,176.094757 133.372009,175.896378 
	C134.288025,175.866837 135.159531,174.457260 136.710403,173.055801 
M106.000221,105.422409 
	C105.655647,104.293625 105.610016,102.525246 104.894218,102.190681 
	C103.898697,101.725372 101.921280,101.853775 101.204094,102.569595 
	C98.570389,105.198273 96.086266,108.033051 93.917564,111.056862 
	C91.323235,114.674095 89.110138,118.564758 86.731926,122.336990 
	C87.018593,122.854897 87.305267,123.372810 87.591934,123.890724 
	C94.423256,122.582527 101.329895,121.556168 108.032143,119.764977 
	C109.676483,119.325531 110.653107,116.387581 111.936707,114.598297 
	C107.355621,113.705048 109.918243,107.691208 106.000221,105.422409 
M109.000153,65.780861 
	C109.000107,75.587440 108.989632,85.394043 109.014091,95.200562 
	C109.016930,96.339211 108.768402,97.963844 109.393456,98.535675 
	C113.054153,101.884682 114.396339,106.282867 115.543945,111.023712 
	C116.983192,110.946220 118.416283,110.869057 119.796806,110.794731 
	C119.890442,110.203583 120.100067,109.732147 119.967018,109.596275 
	C116.056496,105.602631 114.964882,100.649490 114.982346,95.291115 
	C114.984398,94.661644 114.872314,93.527336 114.632774,93.476463 
	C110.384529,92.574409 112.218880,89.222931 112.066513,86.874580 
	C111.819527,83.067711 111.981499,79.232948 112.012909,75.410309 
	C112.020912,74.436356 111.964363,72.707657 112.314598,72.604362 
	C117.229134,71.154854 114.141029,67.180313 114.991882,64.499405 
	C115.715530,62.219318 115.711006,58.582928 117.170807,57.863178 
	C122.509888,55.230782 118.944054,51.353920 120.197495,46.994152 
	C118.394974,48.212814 117.411751,48.519733 117.068092,49.166485 
	C114.311310,54.354645 111.675270,59.606972 109.000153,65.780861 
M143.424057,108.001068 
	C141.954163,110.453621 140.455811,112.890160 139.053894,115.380959 
	C138.895844,115.661781 139.158142,116.527451 139.435364,116.650986 
	C142.134567,117.853806 143.754852,121.423386 147.676605,120.093979 
	C149.109421,119.608284 152.104401,119.735092 152.346878,120.366196 
	C154.280228,125.398300 157.979843,122.036369 161.448303,123.078217 
	C160.907135,120.620323 161.066498,118.359970 160.016785,117.139816 
	C156.948242,113.573013 153.235947,110.566269 150.085342,107.061874 
	C147.431168,104.109619 145.993668,104.177147 143.424057,108.001068 
M142.000000,69.545914 
	C142.138107,64.154030 139.078781,60.356152 136.265137,56.072716 
	C133.526443,51.903362 132.538269,46.637814 128.029617,43.487831 
	C125.553970,41.758205 124.413597,37.393902 119.583267,39.724182 
	C121.512741,42.153042 123.177849,44.417408 125.019600,46.527603 
	C127.697884,49.596275 131.984970,51.625401 131.384735,56.730701 
	C136.843170,58.707603 135.511261,63.435635 136.137833,67.617004 
	C136.663452,71.124626 138.357498,74.465584 139.661179,77.831161 
	C139.758636,78.082748 140.876740,77.938980 142.000000,78.008827 
	C142.000000,75.426086 142.000000,72.963013 142.000000,69.545914 
M127.221840,60.043106 
	C125.828903,60.043106 124.435974,60.043106 123.043037,60.043106 
	C123.316872,60.451107 123.590698,60.859112 123.864532,61.267113 
	C122.576889,63.568584 120.668205,65.741356 120.157898,68.203918 
	C119.511398,71.323677 120.001610,74.679001 120.001610,77.932732 
	C121.069046,78.773827 122.136475,79.614914 123.203911,80.456009 
	C123.645233,78.641670 123.544113,75.876709 124.658035,75.241089 
	C126.234749,74.341377 128.708084,75.012970 130.724167,75.012970 
	C131.325500,69.501549 131.823715,64.591621 127.221840,60.043106 
M134.035065,123.857544 
	C134.035065,125.473541 134.035065,127.089546 134.035065,128.850342 
	C135.716354,128.942139 137.980927,128.648544 138.166534,129.140030 
	C140.176941,134.463608 144.588776,131.099670 147.775223,131.897476 
	C148.339096,132.038651 149.233902,130.858139 149.975891,130.287949 
	C149.254303,129.859192 148.526443,129.050400 147.812119,129.062180 
	C142.401611,129.151489 138.535156,125.923447 134.035065,123.857544 
M120.892021,96.032608 
	C120.067574,99.308006 123.402946,102.048492 127.812195,101.580856 
	C127.812195,99.856285 127.812195,98.116753 127.812195,96.002205 
	C125.686356,96.002205 123.741463,96.002205 120.892021,96.032608 
M102.410034,95.996056 
	C103.128548,94.183060 103.847054,92.370064 104.565567,90.557060 
	C103.991203,90.257462 103.416832,89.957870 102.842468,89.658272 
	C102.003960,90.754677 101.213310,91.892548 100.311287,92.933945 
	C99.629578,93.720985 98.805542,94.384750 98.044846,95.103378 
	C99.202515,95.402145 100.360184,95.700912 102.410034,95.996056 
z"/>
<path fill="#FEFEFE" opacity="1.000000" stroke="none" 
	d="
M157.972565,88.084770 
	C151.396072,86.191734 150.127960,84.378044 149.920273,77.323212 
	C149.861618,75.331161 151.728806,72.076828 147.461395,71.661491 
	C147.236221,71.639587 147.122086,70.185081 147.005264,69.390305 
	C146.324783,64.760834 146.140366,59.985195 144.813782,55.550468 
	C143.971970,52.736313 141.398987,50.454292 139.692780,47.873844 
	C139.292633,47.268684 138.917358,45.889488 139.107712,45.767605 
	C141.228592,44.409592 143.400269,42.327442 145.678284,42.169262 
	C152.469498,41.697704 159.339905,41.650200 166.127884,42.144424 
	C169.634018,42.399704 173.220764,43.769447 176.419388,45.348225 
	C179.148361,46.695202 181.435364,48.988979 183.805969,50.996117 
	C186.130325,52.964104 189.372055,54.722931 190.273712,57.261658 
	C191.260590,60.040348 193.257904,62.479923 193.761612,65.011528 
	C195.119263,71.835312 195.709198,78.878792 195.857193,85.850929 
	C195.944427,89.961227 195.498886,94.550087 193.697037,98.117691 
	C191.321655,102.820915 187.363358,106.720451 184.116135,110.988754 
	C180.950745,115.149467 178.998535,115.183746 175.915436,110.980118 
	C172.828201,106.770897 170.551666,102.229225 168.468567,97.381935 
	C167.365677,94.815552 165.397079,88.782501 159.468735,89.915512 
	C159.081955,89.989426 158.494431,89.012962 157.972565,88.084770 
z"/>
<path fill="#FEFEFE" opacity="1.000000" stroke="none" 
	d="
M104.000000,71.929031 
	C103.662354,74.664368 105.313957,77.652466 101.370132,78.642693 
	C100.840050,78.775787 101.008621,81.691513 100.818687,83.686081 
	C97.005501,83.536186 93.800529,84.696381 92.923401,89.128891 
	C92.857353,89.462631 92.204216,89.990402 91.939468,89.929123 
	C85.734070,88.492783 85.981575,95.684937 82.044746,97.340050 
	C80.851059,97.841896 80.019707,99.204163 79.020584,100.170464 
	C75.158272,103.905975 74.622948,108.979721 73.229294,115.140488 
	C70.596230,109.883629 61.940361,111.969627 62.997040,103.828598 
	C58.860340,101.477364 61.609741,96.181229 59.709644,94.136444 
	C53.733280,87.704948 58.513111,80.553574 57.203499,73.932953 
	C56.864349,72.218430 59.356594,70.106514 59.900486,68.009148 
	C60.450821,65.886932 59.129333,63.400093 62.652214,62.273453 
	C63.815041,61.901573 63.604923,58.267975 64.775681,56.681534 
	C67.471031,53.029171 69.746605,49.037483 74.966515,47.750412 
	C77.737946,47.067066 79.904510,44.089554 82.479568,42.347908 
	C83.194725,41.864204 84.393669,42.017857 85.371307,42.013062 
	C90.868729,41.986088 96.383995,42.267815 101.857773,41.907082 
	C105.587814,41.661266 108.628754,42.526146 111.234627,45.070450 
	C111.637062,45.463379 112.106674,46.396420 111.923523,46.684669 
	C110.333130,49.187729 108.595566,51.597019 106.914886,54.043205 
	C106.584450,54.524147 106.113503,55.017097 106.041000,55.549911 
	C105.320518,60.844833 104.670174,66.149292 104.000000,71.929031 
z"/>
<path fill="#FEFEFE" opacity="1.000000" stroke="none" 
	d="
M136.381012,173.370972 
	C135.159531,174.457260 134.288025,175.866837 133.372009,175.896378 
	C127.221611,176.094757 121.054985,176.148956 114.910858,175.870087 
	C113.726440,175.816330 112.757751,173.776321 111.449013,173.184464 
	C107.267273,171.293274 104.281509,167.527771 99.248573,166.647430 
	C96.860512,166.229721 93.751175,162.521835 93.339409,159.928131 
	C92.695221,155.870468 91.314186,153.393234 87.668816,151.812119 
	C87.161064,151.591888 87.054482,150.094131 87.028954,149.180328 
	C86.950058,146.355621 87.000137,143.527298 87.000137,140.000000 
	C92.960892,140.000000 98.876747,140.098709 104.785255,139.933975 
	C106.357323,139.890121 109.142929,141.401733 109.063698,137.764435 
	C109.061089,137.644699 109.266190,137.402435 109.336525,137.415878 
	C116.625931,138.808304 120.892067,128.957489 128.430817,132.122528 
	C131.042984,133.219223 134.889023,132.508835 136.106232,136.333893 
	C136.204727,136.643448 136.880096,136.942612 137.294571,136.952744 
	C144.876572,137.137939 151.805542,142.013245 159.706223,140.042465 
	C160.924576,139.738541 162.283966,140.000000 164.138809,140.000000 
	C163.054901,143.528748 165.851654,146.878708 161.363800,149.973602 
	C158.883530,151.684021 158.746826,156.792801 157.412460,160.792999 
	C156.399643,160.892395 154.977386,161.031982 153.241806,161.202301 
	C153.113739,162.909866 152.981934,164.667084 152.846573,166.471848 
	C148.433441,167.344467 144.531464,168.957031 141.473862,172.558029 
	C140.726807,173.437836 138.342133,172.927170 136.381012,173.370972 
z"/>
<path fill="#FEFEFE" opacity="1.000000" stroke="none" 
	d="
M202.286819,99.264076 
	C202.198578,95.614807 201.098419,91.555199 202.356766,88.451965 
	C203.287598,86.156410 205.835831,84.399910 204.945938,81.401764 
	C204.577896,80.161797 203.523926,79.141716 202.946930,77.942245 
	C202.498627,77.010277 201.985245,75.933098 202.052307,74.958397 
	C202.480469,68.734322 200.586060,63.525043 196.078949,59.112270 
	C193.396942,56.486382 194.481552,51.998909 191.108475,49.244133 
	C187.812241,46.552094 185.478638,42.684162 182.694473,39.355824 
	C182.514969,39.141212 182.100616,39.107479 181.786453,39.023438 
	C177.981934,38.005665 173.218796,38.085938 170.564453,35.759270 
	C164.608475,30.538548 158.097794,33.940857 151.945892,33.162563 
	C149.483353,32.851025 145.595566,31.000008 144.372208,35.724937 
	C144.301147,35.999390 142.840866,35.866837 142.042343,36.009171 
	C139.677216,36.430744 136.389999,34.440853 135.361237,38.681168 
	C135.262924,39.086380 132.694702,38.892357 130.078354,39.047253 
	C131.835266,36.716194 132.647385,34.743382 134.112213,33.887085 
	C136.904449,32.254822 140.012955,30.366806 143.090103,30.173130 
	C151.214020,29.661810 159.392303,29.935543 167.546768,30.050646 
	C169.324615,30.075739 172.177475,28.657158 172.231781,32.451210 
	C172.234497,32.641598 173.374207,32.990761 173.974838,32.971046 
	C181.830597,32.713142 186.405701,38.418018 190.813141,43.271935 
	C196.501297,49.536278 195.989243,50.001236 196.093170,53.668274 
	C196.994537,53.775616 197.933701,53.925720 198.878647,53.988461 
	C199.704941,54.043320 200.537766,53.999901 202.000000,53.999901 
	C202.000000,55.670166 201.843811,57.285168 202.043121,58.855038 
	C202.250015,60.484657 200.713211,63.203568 204.321564,63.111145 
	C204.530045,63.105804 204.915680,63.866600 204.954453,64.294792 
	C205.660065,72.085693 206.644882,79.871613 206.856216,87.677925 
	C206.953629,91.276459 205.557236,94.924911 204.712189,98.521126 
	C204.645966,98.802910 203.586212,98.851219 202.596497,99.098846 
	C202.204788,99.189644 202.286819,99.264076 202.286819,99.264076 
z"/>
<path fill="#FEFEFE" opacity="1.000000" stroke="none" 
	d="
M114.736023,185.286819 
	C117.551498,185.191223 120.406593,185.353790 123.171608,184.929428 
	C126.100899,184.479843 130.118362,187.066818 131.734741,182.190125 
	C131.831589,181.897919 133.312042,182.180527 134.090225,181.974670 
	C135.934448,181.486786 139.096481,183.639572 139.212173,179.505844 
	C139.216766,179.341537 139.723389,179.126953 140.025696,179.045029 
	C143.823395,178.015717 147.637497,177.044418 151.417160,175.953537 
	C152.019806,175.779602 152.519913,175.135056 152.989807,174.635132 
	C156.321960,171.090134 159.833069,167.685745 162.867218,163.899994 
	C164.356918,162.041260 165.059784,159.505371 165.927444,157.203827 
	C168.035522,151.611847 170.045197,145.984894 169.018005,139.818451 
	C168.888168,139.039062 169.000259,138.219360 169.000259,137.214569 
	C171.076279,137.214569 172.812378,137.214569 175.001160,137.214569 
	C174.107407,140.500336 177.345932,144.562057 172.236359,146.747543 
	C171.769455,146.947266 172.237061,148.964264 171.960434,150.058960 
	C171.496155,151.896088 173.702103,155.069519 169.524139,155.230453 
	C169.327881,155.238037 168.978638,156.397400 169.032135,156.990433 
	C169.747238,164.918259 163.610291,168.520721 158.937363,173.023071 
	C155.896805,175.952652 152.796082,178.823990 149.619308,181.603714 
	C149.107529,182.051529 148.046249,181.835709 147.257080,182.009094 
	C145.221451,182.456284 143.062027,180.964447 141.403015,184.438446 
	C139.919357,187.545288 118.399162,189.249222 115.202354,187.431503 
	C114.944572,187.284927 115.053749,186.492996 114.901405,185.602859 
	C114.810410,185.204773 114.736023,185.286819 114.736023,185.286819 
z"/>
<path fill="#FEFEFE" opacity="1.000000" stroke="none" 
	d="
M64.931816,41.941601 
	C66.636726,47.590996 61.502235,50.043983 59.331036,53.875053 
	C58.133369,55.988338 55.912411,57.934765 55.698635,60.108440 
	C55.222042,64.954491 50.732197,68.371796 51.827099,73.855400 
	C52.688229,78.168190 51.631039,82.831383 52.123634,87.261337 
	C52.479862,90.464966 49.690567,94.564438 54.744816,96.989929 
	C55.743488,97.469185 54.957378,101.667572 54.994682,104.574783 
	C54.995018,104.998756 55.064034,104.925629 55.064034,104.925629 
	C51.568321,104.322731 49.750645,102.198845 48.949471,98.775764 
	C48.200443,95.575508 51.059925,91.789070 46.373310,88.923332 
	C44.860867,87.998520 45.606773,82.585983 46.140495,79.362289 
	C46.562466,76.813560 43.514179,72.921921 48.509735,71.690842 
	C48.801235,71.619011 48.840569,70.525497 48.997944,69.907623 
	C50.009998,65.934128 49.768353,60.288063 52.323383,58.372654 
	C56.323395,55.374012 53.597374,48.610878 59.613197,47.487923 
	C60.069538,47.402737 59.986141,44.426117 60.211067,42.233685 
	C61.403484,42.165363 62.794384,42.085667 64.595139,42.008430 
	C65.004990,42.010895 64.931816,41.941601 64.931816,41.941601 
z"/>
<path fill="#FEFEFE" opacity="1.000000" stroke="none" 
	d="
M106.001724,105.871475 
	C109.918243,107.691208 107.355621,113.705048 111.936707,114.598297 
	C110.653107,116.387581 109.676483,119.325531 108.032143,119.764977 
	C101.329895,121.556168 94.423256,122.582527 87.591934,123.890724 
	C87.305267,123.372810 87.018593,122.854897 86.731926,122.336990 
	C89.110138,118.564758 91.323235,114.674095 93.917564,111.056862 
	C96.086266,108.033051 98.570389,105.198273 101.204094,102.569595 
	C101.921280,101.853775 103.898697,101.725372 104.894218,102.190681 
	C105.610016,102.525246 105.655647,104.293625 106.001724,105.871475 
z"/>
<path fill="#FEFEFE" opacity="1.000000" stroke="none" 
	d="
M93.068581,172.921646 
	C88.600548,172.617752 87.325943,168.551636 85.101814,165.820389 
	C81.548195,161.456558 80.862717,155.394547 78.445938,150.891724 
	C74.067535,142.734070 77.280365,134.962906 76.086121,127.176239 
	C75.266243,121.830528 78.208008,117.705109 81.450340,113.612717 
	C83.377754,111.179985 84.069778,107.768478 86.039223,105.044823 
	C87.474670,109.792000 86.253334,113.747719 82.689659,117.057503 
	C82.454010,117.276367 82.068886,117.540573 82.071884,117.779709 
	C82.134903,122.818192 77.161484,126.626572 78.865608,132.228546 
	C79.653519,134.818665 78.787224,137.868881 79.071411,140.669846 
	C79.276329,142.689499 77.291489,145.930542 81.533279,146.285156 
	C81.699936,146.299072 82.017448,146.898071 81.939583,147.097534 
	C80.036354,151.973297 84.454102,155.232666 85.252274,159.473251 
	C85.745514,162.093811 88.111237,165.417191 90.471703,166.382660 
	C93.974838,167.815460 92.710884,170.058609 92.996948,172.590393 
	C92.999344,172.994873 93.068581,172.921646 93.068581,172.921646 
z"/>
<path fill="#FEFEFE" opacity="1.000000" stroke="none" 
	d="
M109.001221,65.310265 
	C111.675270,59.606972 114.311310,54.354645 117.068092,49.166485 
	C117.411751,48.519733 118.394974,48.212814 120.197495,46.994152 
	C118.944054,51.353920 122.509888,55.230782 117.170807,57.863178 
	C115.711006,58.582928 115.715530,62.219318 114.991882,64.499405 
	C114.141029,67.180313 117.229134,71.154854 112.314598,72.604362 
	C111.964363,72.707657 112.020912,74.436356 112.012909,75.410309 
	C111.981499,79.232948 111.819527,83.067711 112.066513,86.874580 
	C112.218880,89.222931 110.384529,92.574409 114.632774,93.476463 
	C114.872314,93.527336 114.984398,94.661644 114.982346,95.291115 
	C114.964882,100.649490 116.056496,105.602631 119.967018,109.596275 
	C120.100067,109.732147 119.890442,110.203583 119.796806,110.794731 
	C118.416283,110.869057 116.983192,110.946220 115.543945,111.023712 
	C114.396339,106.282867 113.054153,101.884682 109.393456,98.535675 
	C108.768402,97.963844 109.016930,96.339211 109.014091,95.200562 
	C108.989632,85.394043 109.000107,75.587440 109.001221,65.310265 
z"/>
<path fill="#FEFEFE" opacity="1.000000" stroke="none" 
	d="
M143.861359,107.976196 
	C145.993668,104.177147 147.431168,104.109619 150.085342,107.061874 
	C153.235947,110.566269 156.948242,113.573013 160.016785,117.139816 
	C161.066498,118.359970 160.907135,120.620323 161.448303,123.078217 
	C157.979843,122.036369 154.280228,125.398300 152.346878,120.366196 
	C152.104401,119.735092 149.109421,119.608284 147.676605,120.093979 
	C143.754852,121.423386 142.134567,117.853806 139.435364,116.650986 
	C139.158142,116.527451 138.895844,115.661781 139.053894,115.380959 
	C140.455811,112.890160 141.954163,110.453621 143.861359,107.976196 
z"/>
<path fill="#FEFEFE" opacity="1.000000" stroke="none" 
	d="
M65.039551,42.047562 
	C66.453575,40.061989 67.698692,37.929420 69.246140,36.045151 
	C71.226555,33.633667 74.853920,33.949474 76.868248,32.690491 
	C86.159103,26.883574 95.961586,31.218750 105.401039,30.244287 
	C108.430252,29.931574 111.770264,32.460182 114.916763,33.808620 
	C115.142647,33.905422 114.946350,34.987343 114.946350,35.979141 
	C111.601326,35.979141 107.294098,37.293198 105.571327,35.740227 
	C99.689163,30.437809 93.111816,33.985481 86.981430,33.093864 
	C82.419594,32.430378 79.372414,35.846088 75.850784,38.188423 
	C72.946518,40.120129 69.192963,40.774948 65.373795,41.968605 
	C64.931816,41.941601 65.004990,42.010895 65.039551,42.047562 
z"/>
<path fill="#FEFEFE" opacity="1.000000" stroke="none" 
	d="
M142.000000,70.022926 
	C142.000000,72.963013 142.000000,75.426086 142.000000,78.008827 
	C140.876740,77.938980 139.758636,78.082748 139.661179,77.831161 
	C138.357498,74.465584 136.663452,71.124626 136.137833,67.617004 
	C135.511261,63.435635 136.843170,58.707603 131.384735,56.730701 
	C131.984970,51.625401 127.697884,49.596275 125.019600,46.527603 
	C123.177849,44.417408 121.512741,42.153042 119.583267,39.724182 
	C124.413597,37.393902 125.553970,41.758205 128.029617,43.487831 
	C132.538269,46.637814 133.526443,51.903362 136.265137,56.072716 
	C139.078781,60.356152 142.138107,64.154030 142.000000,70.022926 
z"/>
<path fill="#FEFEFE" opacity="1.000000" stroke="none" 
	d="
M127.580437,60.313236 
	C131.823715,64.591621 131.325500,69.501549 130.724167,75.012970 
	C128.708084,75.012970 126.234749,74.341377 124.658035,75.241089 
	C123.544113,75.876709 123.645233,78.641670 123.203911,80.456009 
	C122.136475,79.614914 121.069046,78.773827 120.001610,77.932732 
	C120.001610,74.679001 119.511398,71.323677 120.157898,68.203918 
	C120.668205,65.741356 122.576889,63.568584 123.864532,61.267113 
	C123.590698,60.859112 123.316872,60.451107 123.043037,60.043106 
	C124.435974,60.043106 125.828903,60.043106 127.580437,60.313236 
z"/>
<path fill="#FEFEFE" opacity="1.000000" stroke="none" 
	d="
M153.269730,95.710007 
	C148.254166,97.045242 145.257462,93.619705 141.958496,90.910240 
	C141.615601,90.628616 141.262772,90.044006 140.961166,90.073700 
	C134.854507,90.674728 129.905151,85.001785 123.494118,86.901077 
	C122.427299,87.217133 120.973984,86.228539 119.699272,85.842819 
	C119.818924,85.229134 119.938583,84.615440 120.058243,84.001755 
	C125.677704,84.001755 131.383499,83.420830 136.881546,84.237854 
	C139.790283,84.670105 142.288940,87.615913 145.063232,89.275635 
	C147.347015,90.641884 149.806305,91.714767 152.090012,93.081100 
	C152.604675,93.389015 152.713318,94.375572 153.101685,95.420624 
	C153.194489,95.791512 153.269730,95.710007 153.269730,95.710007 
z"/>
<path fill="#FEFEFE" opacity="1.000000" stroke="none" 
	d="
M120.069290,123.059547 
	C121.787430,120.193596 122.850838,116.362686 125.358902,114.660919 
	C130.716461,111.025719 133.775177,106.156960 136.021652,100.433258 
	C136.225220,99.914635 136.595139,99.355309 137.048569,99.074509 
	C137.406799,98.852661 138.012177,99.029892 138.775116,99.029892 
	C138.687576,101.515266 140.309036,104.016174 136.417740,105.691559 
	C134.960068,106.319153 135.280869,110.300346 133.921158,112.092865 
	C131.003525,115.939201 127.604675,119.440628 124.187569,122.868675 
	C123.602654,123.455460 121.951256,122.979172 120.394325,122.992119 
	C119.996124,122.990257 120.069290,123.059547 120.069290,123.059547 
z"/>
<path fill="#FEFEFE" opacity="1.000000" stroke="none" 
	d="
M54.958321,105.033127 
	C56.614368,106.939018 59.200394,108.562248 59.804695,110.736328 
	C60.896179,114.663116 66.091873,119.970047 70.811226,120.078789 
	C70.892883,121.788528 70.976395,123.537300 71.094948,126.019676 
	C69.046974,125.893951 65.988380,126.439209 65.500526,125.559235 
	C61.888306,119.043724 54.141418,114.655685 55.034439,105.365402 
	C55.064034,104.925629 54.995018,104.998756 54.958321,105.033127 
z"/>
<path fill="#FEFEFE" opacity="1.000000" stroke="none" 
	d="
M92.962723,173.029465 
	C95.106506,173.165161 97.057007,172.357468 98.690872,175.496872 
	C99.731697,177.496750 103.887581,177.832657 106.602684,179.015717 
	C109.416023,180.241562 112.188866,181.564087 114.933899,182.935455 
	C115.137039,183.036957 114.972885,183.873657 114.857758,184.827698 
	C114.736023,185.286819 114.810410,185.204773 114.840866,185.169922 
	C113.375854,185.090042 111.875114,184.942810 110.385910,185.019485 
	C106.216438,185.234161 103.913429,182.035645 100.959526,180.013840 
	C100.367058,179.608322 99.641838,178.987549 99.048553,179.058380 
	C94.991852,179.542679 93.873314,176.823990 93.036880,173.340332 
	C93.068581,172.921646 92.999344,172.994873 92.962723,173.029465 
z"/>
<path fill="#FEFEFE" opacity="1.000000" stroke="none" 
	d="
M108.720558,128.744980 
	C108.427116,129.820862 108.258972,131.778381 107.821480,131.840576 
	C101.102852,132.795380 94.349136,133.503311 87.271561,134.306305 
	C87.271561,132.358688 87.271561,130.959091 87.271561,128.991501 
	C94.085800,128.991501 101.021233,128.991501 108.379669,128.904938 
	C108.802666,128.818390 108.720558,128.744980 108.720558,128.744980 
z"/>
<path fill="#FEFEFE" opacity="1.000000" stroke="none" 
	d="
M166.058289,110.931488 
	C163.374710,108.499023 160.515564,106.229187 158.063416,103.582314 
	C156.123505,101.488335 154.683304,98.931419 153.145447,96.145050 
	C153.269730,95.710007 153.194489,95.791512 153.164154,95.826187 
	C154.817245,96.693832 158.078140,94.319099 158.338501,98.487000 
	C158.360886,98.845261 161.619995,99.001328 163.647644,99.290070 
	C164.399796,102.786171 165.196762,106.490509 165.991455,110.599762 
	C165.989197,111.004669 166.058289,110.931488 166.058289,110.931488 
z"/>
<path fill="#FEFEFE" opacity="1.000000" stroke="none" 
	d="
M179.930466,125.940216 
	C179.816818,126.868217 179.931808,128.492752 179.554230,128.616699 
	C175.692764,129.884247 171.747589,130.895050 167.833649,132.005234 
	C165.720505,132.604614 163.622543,133.257523 161.246719,133.967239 
	C161.140289,132.478485 161.037384,131.039047 160.907700,129.225159 
	C167.436569,130.107513 172.458496,123.862015 179.573730,126.007751 
	C180.003632,126.009544 179.930466,125.940216 179.930466,125.940216 
z"/>
<path fill="#FEFEFE" opacity="1.000000" stroke="none" 
	d="
M134.252960,123.473648 
	C138.535156,125.923447 142.401611,129.151489 147.812119,129.062180 
	C148.526443,129.050400 149.254303,129.859192 149.975891,130.287949 
	C149.233902,130.858139 148.339096,132.038651 147.775223,131.897476 
	C144.588776,131.099670 140.176941,134.463608 138.166534,129.140030 
	C137.980927,128.648544 135.716354,128.942139 134.035065,128.850342 
	C134.035065,127.089546 134.035065,125.473541 134.252960,123.473648 
z"/>
<path fill="#FEFEFE" opacity="1.000000" stroke="none" 
	d="
M195.931503,107.941521 
	C196.104507,116.117859 195.120270,117.260445 187.139313,116.590843 
	C190.174408,113.383095 192.714874,110.698128 195.630005,108.011932 
	C196.004684,108.010704 195.931503,107.941521 195.931503,107.941521 
z"/>
<path fill="#FEFEFE" opacity="1.000000" stroke="none" 
	d="
M119.961563,122.953583 
	C119.442070,126.365486 117.303368,128.301010 114.046127,128.951782 
	C112.642227,129.232269 111.133217,128.986694 109.196259,128.862549 
	C108.720558,128.744980 108.802666,128.818390 108.837234,128.849152 
	C108.956718,128.067810 108.811768,126.672508 109.162315,126.534348 
	C112.458481,125.235191 115.839302,124.150803 119.632484,123.031982 
	C120.069290,123.059547 119.996124,122.990257 119.961563,122.953583 
z"/>
<path fill="#FEFEFE" opacity="1.000000" stroke="none" 
	d="
M121.344299,96.017410 
	C123.741463,96.002205 125.686356,96.002205 127.812195,96.002205 
	C127.812195,98.116753 127.812195,99.856285 127.812195,101.580856 
	C123.402946,102.048492 120.067574,99.308006 121.344299,96.017410 
z"/>
<path fill="#FEFEFE" opacity="1.000000" stroke="none" 
	d="
M196.039185,108.047379 
	C196.166779,107.163803 196.233627,105.443947 196.356796,105.439911 
	C199.679504,105.330879 198.717834,102.873833 199.106384,100.992737 
	C199.267517,100.212662 200.581833,99.670784 201.829269,99.142326 
	C202.286819,99.264076 202.204788,99.189644 202.169922,99.159180 
	C202.135056,101.993988 202.135056,104.859268 202.135056,107.995628 
	C199.992065,107.995628 198.412476,107.995628 196.382187,107.968575 
	C195.931503,107.941521 196.004684,108.010704 196.039185,108.047379 
z"/>
<path fill="#FEFEFE" opacity="1.000000" stroke="none" 
	d="
M165.952515,111.039124 
	C166.745193,111.074791 168.168564,110.806068 168.310959,111.119453 
	C169.572861,113.896431 170.607742,116.776573 171.781815,119.812881 
	C169.953156,119.812881 168.193878,119.812881 166.004288,119.812881 
	C166.004288,117.087448 166.004288,114.470329 166.031281,111.392349 
	C166.058289,110.931488 165.989197,111.004669 165.952515,111.039124 
z"/>
<path fill="#FEFEFE" opacity="1.000000" stroke="none" 
	d="
M180.038208,126.046211 
	C181.204422,122.430794 182.783478,119.345978 189.133087,120.380882 
	C185.957031,122.960548 185.236481,126.638016 180.363602,125.967896 
	C179.930466,125.940216 180.003632,126.009544 180.038208,126.046211 
z"/>
<path fill="#FEFEFE" opacity="1.000000" stroke="none" 
	d="
M101.963943,95.997864 
	C100.360184,95.700912 99.202515,95.402145 98.044846,95.103378 
	C98.805542,94.384750 99.629578,93.720985 100.311287,92.933945 
	C101.213310,91.892548 102.003960,90.754677 102.842468,89.658272 
	C103.416832,89.957870 103.991203,90.257462 104.565567,90.557060 
	C103.847054,92.370064 103.128548,94.183060 101.963943,95.997864 
z"/>
</svg>