<svg version="1.1" id="Layer_1" xmlns="http://www.w3.org/2000/svg" xmlns:xlink="http://www.w3.org/1999/xlink" x="0px" y="0px"
	 width="100%" viewBox="0 0 256 288" enable-background="new 0 0 256 288" xml:space="preserve">
<path fill="#000000" opacity="1.000000" stroke="none" 
	d="
M27.975336,147.776321 
	C27.366575,141.946808 25.359135,136.486694 23.197905,131.962891 
	C18.701475,122.551117 20.645548,113.104919 21.102304,103.917519 
	C21.394079,98.048622 22.565336,91.435760 25.894997,85.842293 
	C27.126345,83.773766 28.413034,80.871429 28.246580,79.057274 
	C27.510418,71.033958 34.442169,67.999916 37.971649,62.906075 
	C40.585583,59.133587 44.206520,55.892902 47.582375,52.750973 
	C50.837124,49.721748 54.959949,47.452141 58.691734,44.833187 
	C63.194759,41.672966 68.275330,39.346783 73.016365,36.509953 
	C75.384514,35.092957 77.866806,35.839561 80.294930,35.677422 
	C83.059128,35.492840 86.058067,36.242668 87.954498,32.450771 
	C89.590225,35.624908 92.000366,35.755627 94.548981,35.666428 
	C97.044655,35.579079 99.646095,36.093727 102.024307,35.558495 
	C107.491425,34.328083 112.469246,36.798706 116.116066,39.404232 
	C119.682007,41.951992 123.841858,41.493809 127.338097,44.292339 
	C134.397980,49.943371 141.601013,55.198792 147.951218,61.831764 
	C152.838364,66.936539 154.934250,73.674805 159.933868,78.556747 
	C161.622375,80.205521 163.099472,80.647331 165.108994,80.647964 
	C167.940903,80.648857 170.781464,80.800072 173.602966,80.630692 
	C180.127197,80.239029 185.391220,83.662392 191.176346,85.748749 
	C194.736832,87.032814 197.565186,90.520950 201.892136,89.752953 
	C202.469894,89.650406 203.482819,89.888962 203.721207,90.301064 
	C207.428970,96.710251 216.280914,98.464020 218.826477,104.995743 
	C221.178741,111.031433 227.023849,114.053177 228.790359,120.590721 
	C230.444427,126.712196 232.494339,132.959305 234.806152,138.869949 
	C238.281448,147.755310 239.781189,156.667999 239.237762,165.911194 
	C238.675217,175.479370 237.974457,185.116867 232.024872,193.459839 
	C230.178070,196.049576 230.715302,199.658859 228.999603,202.892944 
	C226.678635,207.267960 222.966568,210.077713 220.472244,213.931091 
	C216.893799,219.459305 210.203003,221.220505 206.494308,226.614532 
	C205.375076,228.242386 201.835205,229.417679 199.861679,229.795731 
	C191.280365,231.439728 184.237320,238.940125 174.622665,236.455841 
	C173.807541,236.245224 172.345200,236.627228 171.890533,237.250046 
	C169.298279,240.800919 166.951309,239.350677 164.607864,237.119110 
	C160.030106,239.473709 160.044617,245.010345 156.664230,248.169022 
	C153.191727,251.413788 150.970764,256.068237 145.952805,257.558350 
	C145.647446,257.649017 145.144547,257.880127 145.139313,258.057831 
	C145.013000,262.341583 140.657532,262.495270 138.750122,264.752472 
	C132.938278,271.630066 124.202423,273.324890 117.261505,278.085968 
	C115.751450,279.121796 112.481247,277.593750 110.973602,278.630585 
	C106.296303,281.847382 100.970375,279.068695 96.276596,280.906372 
	C90.725311,275.341553 83.015610,279.825165 76.275398,276.389771 
	C71.357460,273.883118 65.309639,271.638977 60.752502,268.706299 
	C56.389339,265.898468 50.996002,263.531372 47.730705,258.985291 
	C46.301163,256.995056 44.957130,255.098633 43.048840,253.440094 
	C37.395828,248.526901 35.532681,241.027527 31.296343,235.250473 
	C27.842585,230.540588 27.975840,224.700378 24.365215,220.072968 
	C22.091549,217.159027 23.935865,212.302811 23.624445,208.335312 
	C23.416676,205.688324 24.770737,202.556747 21.432487,200.733093 
	C21.074045,200.537308 20.819016,199.246918 21.069757,198.975098 
	C25.957623,193.676071 23.015074,187.245941 23.512383,181.369019 
	C23.743965,178.632309 25.270819,176.998260 26.329248,174.859406 
	C28.743437,169.980850 27.969193,164.054077 31.359049,159.306564 
	C32.279022,158.018127 32.492455,154.935333 30.598663,153.797119 
	C28.137983,152.318176 29.091690,149.944504 27.975336,147.776321 
M218.038467,161.225586 
	C218.760635,159.095108 216.117126,158.044174 216.569778,155.707260 
	C219.000961,143.155640 209.542618,134.501877 205.730118,123.982216 
	C205.239609,122.628792 203.590881,121.255356 202.173615,120.754639 
	C196.421158,118.722260 192.482056,114.024086 187.568604,110.803345 
	C185.143372,109.213638 183.164581,108.535789 180.573288,108.369499 
	C176.618668,108.115685 172.411942,109.517303 168.564178,105.899574 
	C168.069870,124.332581 168.788376,142.306992 157.852051,157.948746 
	C162.698883,160.637009 164.789902,165.508118 165.921585,169.769836 
	C167.698715,176.462173 169.344971,183.481720 168.384247,190.678848 
	C167.949631,193.934784 168.002869,197.264099 171.325150,199.703659 
	C167.605591,202.180267 168.096558,205.641373 168.445374,208.872055 
	C168.815598,212.300781 173.604233,215.950500 175.124298,214.199463 
	C178.856140,209.900543 184.419388,211.790161 188.917343,209.175690 
	C194.312027,206.039993 199.346558,201.786789 205.595749,200.020905 
	C206.570343,199.745499 206.387985,198.321533 206.702316,197.395798 
	C207.678848,194.519913 208.090530,190.958282 210.056274,189.008698 
	C215.116135,183.990448 216.731903,178.148972 216.732986,171.362015 
	C216.733490,168.124268 215.789658,164.736786 218.038467,161.225586 
M70.331749,123.191757 
	C75.573189,124.287361 80.279198,119.298332 86.216888,121.202744 
	C88.920876,117.969620 93.388878,119.681816 97.248077,119.809563 
	C101.269043,119.942680 104.544212,117.786552 105.060341,115.144661 
	C106.165230,109.489113 110.563545,106.890038 113.629990,103.031136 
	C119.466049,95.686890 126.485176,89.815590 134.526840,85.609978 
	C132.946671,81.923134 129.468552,79.529175 127.306633,76.765266 
	C121.929077,69.890320 115.044022,66.480255 107.619720,63.392075 
	C105.865234,62.662281 105.362152,60.288036 103.219627,60.485081 
	C93.908066,61.341461 83.912170,57.387917 75.441605,63.557507 
	C72.732979,65.530350 69.160278,65.707748 67.031868,68.592682 
	C61.634949,75.907852 54.166233,81.423477 50.107483,90.039932 
	C47.009720,96.616287 45.311413,103.512215 43.543198,110.333649 
	C41.081573,119.830162 45.960407,128.329178 49.321381,136.884628 
	C52.979164,134.571396 57.590969,133.494614 59.697914,129.051941 
	C59.828503,128.776581 60.612122,128.793167 61.097752,128.706757 
	C64.564201,128.089859 66.891510,125.442604 70.331749,123.191757 
M53.576355,226.839355 
	C54.060368,228.909943 57.029495,229.486923 57.049740,231.338989 
	C57.101547,236.079239 61.639851,237.912186 63.781471,240.818115 
	C67.470421,245.823593 74.414970,248.397675 80.668335,250.354843 
	C83.034599,251.095444 84.289825,253.722702 86.488480,253.469788 
	C94.951820,252.496307 103.449707,255.726898 112.058350,251.174454 
	C119.809952,247.075241 126.791908,242.377640 132.993744,236.370407 
	C136.570633,232.905762 135.598724,228.587189 130.638229,227.585815 
	C125.584244,226.565552 122.944901,222.233505 119.227554,219.730865 
	C113.710114,216.016388 110.329002,209.116653 106.094063,203.530640 
	C105.733536,203.055099 105.802048,202.260727 105.650414,201.619385 
	C104.722137,197.693176 102.464470,195.112579 98.216125,195.421051 
	C90.132492,196.008011 82.932426,190.461014 74.719269,192.193726 
	C74.432373,192.254242 74.021431,192.121109 73.777840,191.934921 
	C67.241211,186.938736 58.754864,184.980103 53.153698,178.423492 
	C51.566322,176.565353 49.229534,176.646393 48.377754,179.807007 
	C45.850052,189.186264 45.677486,198.833633 46.588589,208.308517 
	C47.198303,214.649124 49.011307,221.123184 53.576355,226.839355 
M88.902031,45.356876 
	C81.816299,43.615574 75.753632,48.073967 69.048157,48.672768 
	C68.494652,48.722195 68.051331,49.609886 67.466362,49.763367 
	C60.755058,51.524258 58.040565,58.285191 52.225048,61.689556 
	C44.637066,66.131523 40.397564,74.899536 35.762299,82.579292 
	C35.148132,83.596848 35.466740,85.177422 35.353451,86.497261 
	C35.242630,87.788292 35.080139,88.931915 34.372093,90.203957 
	C31.918297,94.612328 29.984903,99.437889 29.492964,104.382408 
	C28.853125,110.813469 29.316402,117.356766 29.358423,123.851418 
	C29.368874,125.466850 29.669538,126.912636 30.448074,128.524750 
	C32.455872,132.682343 34.304710,137.055267 35.231133,141.545593 
	C35.805721,144.330566 35.991909,146.868149 38.728985,148.773148 
	C39.957863,145.607986 40.674484,141.988235 38.948231,139.555511 
	C35.622036,134.868057 35.034046,129.403214 34.936989,124.437920 
	C34.751766,114.962585 33.566345,105.445328 36.302284,95.845757 
	C37.936394,90.112175 39.785049,84.810959 43.964783,80.924339 
	C46.028454,79.005394 44.337963,75.556839 47.338997,74.826172 
	C51.549904,73.800926 50.751572,66.955757 56.161381,67.357559 
	C56.286064,67.366821 56.571266,65.862236 56.696758,65.050667 
	C56.856613,64.016823 57.329334,63.415253 58.251205,62.754684 
	C63.803555,58.776150 70.201637,56.388100 76.021416,53.050243 
	C79.534691,51.035248 82.623001,50.713364 86.152504,50.669174 
	C91.314346,50.604542 96.478058,50.604519 101.639969,50.663723 
	C104.367065,50.694996 106.741661,50.883839 109.423645,52.678810 
	C111.572769,54.117153 114.228142,56.460392 116.936287,56.422028 
	C120.814041,56.367096 122.959511,58.475994 125.167664,60.871250 
	C125.718452,61.468700 126.066109,62.149895 126.910957,62.500290 
	C136.251831,66.374313 140.025024,75.025513 144.222168,83.164482 
	C146.594223,87.764328 149.286530,92.105217 150.405258,97.576530 
	C150.957581,100.277779 150.947479,104.237518 152.875229,106.482643 
	C155.828140,109.921722 153.399414,114.080109 155.342484,117.457550 
	C155.591537,117.890457 155.363815,119.068321 154.976242,119.324043 
	C151.070541,121.901009 152.630936,125.856483 152.330582,129.331589 
	C152.174805,131.134018 153.026321,133.515457 151.616989,134.615051 
	C148.244247,137.246536 149.667160,140.683685 149.405182,143.838715 
	C149.281265,145.331482 149.922852,146.445007 151.638153,146.521729 
	C153.441086,146.602325 154.415283,145.771240 154.611374,143.935852 
	C154.852386,141.679993 155.318909,139.390793 155.614761,137.221329 
	C156.465286,130.984680 160.895630,125.642082 159.709991,118.937164 
	C158.800720,113.795174 159.828461,108.784645 157.285767,103.329178 
	C154.591248,97.547951 154.814377,90.262184 151.669281,84.168701 
	C149.856430,80.656372 148.883591,76.470108 146.364944,73.618576 
	C142.555664,69.305817 138.142883,65.551819 134.693787,60.825264 
	C133.904663,59.743889 132.816757,57.949711 131.177643,57.619064 
	C123.690369,56.108715 118.314552,50.479961 111.600098,47.364239 
	C107.584244,45.500751 104.079964,45.484226 100.407875,45.533287 
	C96.836731,45.581001 93.298912,42.286152 88.902031,45.356876 
M136.888748,219.707184 
	C139.229630,221.007584 141.494766,223.216705 143.927155,223.419495 
	C149.015091,223.843643 153.071365,228.351501 158.544754,226.811829 
	C158.941101,226.700348 159.712387,227.367188 160.093262,227.844574 
	C162.733032,231.153076 167.301727,230.613785 169.083694,229.074188 
	C172.888702,225.786697 176.824585,227.038376 180.757156,226.654160 
	C182.238693,226.509415 183.890182,226.791962 185.181213,226.229843 
	C191.864624,223.319809 197.150513,217.289459 205.164978,217.332504 
	C205.314209,217.333313 205.518478,217.244156 205.605957,217.128220 
	C209.644272,211.777252 215.323380,207.684540 218.908798,202.250198 
	C222.351105,197.032745 226.953659,191.858902 227.101501,184.873306 
	C227.245529,178.067535 231.905060,172.246033 230.811737,164.977066 
	C229.766403,158.027267 229.313644,150.973312 228.341156,144.019913 
	C226.993484,134.384018 223.239426,125.972427 218.752396,118.443924 
	C212.720367,108.323128 203.522614,100.411736 191.786316,96.028954 
	C188.690002,94.872673 184.790939,94.444916 182.620193,92.601631 
	C178.117813,88.778389 173.408920,91.094376 168.868454,90.451164 
	C167.604965,90.272179 166.634048,91.057571 166.464127,92.454002 
	C166.315887,93.672302 166.550583,95.432854 167.770889,95.255180 
	C173.089600,94.480812 177.283783,97.997734 182.178284,98.624786 
	C184.248276,98.889984 186.030045,99.786819 187.877502,100.455048 
	C193.567001,102.512947 197.805313,107.229736 204.096146,108.392426 
	C203.205231,112.558868 208.207901,113.070641 208.702515,115.169083 
	C209.602036,118.985397 211.588181,119.905861 214.973099,120.117920 
	C214.694565,126.470589 222.055984,129.791351 220.691391,136.405197 
	C220.643753,136.636047 220.971191,137.007751 221.206406,137.223938 
	C224.757355,140.487625 225.635162,146.050858 225.709625,149.352295 
	C225.933365,159.270447 228.607498,169.371262 223.868942,179.466583 
	C220.919922,185.749283 220.616119,193.305832 215.926010,199.072571 
	C215.552322,199.532074 215.367645,200.372665 215.481766,200.961166 
	C215.916153,203.201080 214.727722,203.920807 212.931808,204.979553 
	C210.081619,206.659836 205.573929,208.837494 205.129898,210.765259 
	C203.852188,216.312592 200.369202,215.264862 196.870865,215.382690 
	C196.051117,215.410294 194.894745,215.304947 194.472641,215.777893 
	C189.282242,221.593384 181.454926,221.808655 174.932663,223.789551 
	C166.082825,226.477356 155.568970,225.781998 147.895477,220.621201 
	C142.540802,217.019943 133.555252,218.450882 131.558243,209.910843 
	C131.514221,209.722504 130.979446,209.657562 130.681183,209.518768 
	C123.993759,206.406555 118.696106,201.958588 116.579430,194.563370 
	C115.944366,192.344604 114.416161,192.071655 112.735329,192.810913 
	C110.970024,193.587311 110.894379,195.740234 111.975586,196.590744 
	C115.702835,199.522659 117.260170,203.829651 119.852242,207.466278 
	C120.934456,208.984604 122.449394,210.637756 124.484695,211.661560 
	C128.682602,213.773209 132.000244,217.386368 136.888748,219.707184 
M77.828186,135.844833 
	C81.660057,133.339966 85.916328,134.895172 89.955254,134.744522 
	C93.134140,134.625931 95.007324,133.746750 95.318245,130.406708 
	C93.404297,128.975082 90.841774,128.726303 89.118225,129.500839 
	C83.483681,132.032928 77.272095,132.222717 71.570076,134.959915 
	C63.812748,138.683746 57.482025,143.907730 51.064247,149.335983 
	C46.479424,153.213898 44.585625,158.860535 40.838497,163.205627 
	C37.420181,167.169434 35.473438,171.575577 35.438446,176.811600 
	C35.429897,178.090576 36.092873,179.750046 34.469696,180.348068 
	C31.817190,181.325317 32.168728,183.497086 32.389397,185.358429 
	C33.764511,196.957520 29.143412,209.062561 35.311386,220.249878 
	C33.767704,226.604385 38.755947,230.981934 41.556614,234.932373 
	C46.953030,242.544189 54.058048,249.053207 60.341969,256.134705 
	C67.747993,264.480743 78.951103,265.136658 88.723701,268.430145 
	C91.902565,269.501465 95.978455,269.892059 99.707970,268.751038 
	C101.699471,268.141754 103.097282,269.541016 104.638092,271.190491 
	C106.362991,267.392303 110.316223,269.848358 112.510666,268.181274 
	C117.312096,264.533691 123.128761,262.712372 128.341141,260.271240 
	C136.018005,256.675934 139.807129,249.191391 146.842880,245.390854 
	C147.908325,244.815323 148.984009,243.420227 148.566788,242.010086 
	C147.880920,239.692017 150.296631,238.867340 151.026367,236.968643 
	C148.015228,236.266068 145.925049,235.793732 143.676270,238.549149 
	C141.244873,241.528336 138.209808,243.974564 135.996017,247.281525 
	C134.860626,248.977585 133.453415,251.421509 130.720840,251.291138 
	C128.448074,251.182709 127.545723,252.586700 126.586975,254.215134 
	C122.737633,260.753174 115.694305,262.246796 109.380310,263.047852 
	C100.357208,264.192627 91.084679,263.386749 81.918724,263.372955 
	C80.631981,263.371002 79.103325,263.853577 78.143715,262.659882 
	C74.265762,257.835876 66.501701,258.319611 63.690285,251.857376 
	C63.014832,250.304825 60.136898,252.140549 58.551830,249.889893 
	C52.899078,241.863510 47.142429,233.977859 41.973122,225.561752 
	C36.425770,216.530182 34.536854,206.920319 35.005768,197.136398 
	C35.306034,190.871368 37.094952,184.269485 38.684177,177.907562 
	C40.438019,170.886658 44.495548,165.461517 48.046230,160.393341 
	C55.333733,149.991272 64.812202,141.044357 77.828186,135.844833 
M149.936066,175.734863 
	C150.564667,176.268951 151.781708,176.865616 151.732574,177.327637 
	C151.111374,183.168869 156.525665,187.492599 155.482086,193.578186 
	C154.788361,197.623596 155.485641,201.890106 155.304962,206.046570 
	C155.167099,209.218170 155.878754,211.876144 158.323639,213.900497 
	C162.610397,211.883347 162.956284,208.263397 162.670364,204.283264 
	C162.337662,199.651535 164.317490,194.229248 161.889587,190.558823 
	C159.115158,186.364517 159.187744,181.582291 157.012177,177.306808 
	C154.763123,172.886902 153.712891,166.947662 150.763733,163.513489 
	C141.964813,153.267471 134.629730,140.856110 119.133751,136.766342 
	C121.698250,143.848679 127.786858,145.172150 132.543518,147.437759 
	C135.206116,155.729263 143.061356,160.080566 146.332306,167.603821 
	C147.405380,170.071869 149.460236,172.127808 149.936066,175.734863 
M123.099785,113.607758 
	C127.120834,108.010597 133.380814,105.306335 138.820526,101.561905 
	C140.117630,100.669044 140.752304,99.830238 140.479813,98.357925 
	C140.168289,96.674774 138.852142,96.475197 137.451935,96.393028 
	C133.593323,96.166603 129.575531,98.800323 128.174591,100.644783 
	C122.549202,108.050995 114.410080,113.302589 110.692719,122.464149 
	C107.750206,129.716049 103.143440,136.276215 103.260162,144.543976 
	C103.271027,145.313431 103.033806,146.290009 102.540009,146.831207 
	C98.054214,151.747635 100.752777,157.583374 100.765587,162.943909 
	C100.769234,164.474014 103.165756,167.676865 105.904793,167.185150 
	C108.468414,166.724930 107.517532,163.913406 107.594315,162.056580 
	C107.731743,158.733063 107.990959,155.353500 107.563309,152.080475 
	C106.684265,145.352753 109.950684,139.219162 111.544800,133.297470 
	C113.341003,126.625084 116.422836,119.037346 123.099785,113.607758 
M91.567436,164.826202 
	C91.594231,161.006058 91.641029,157.185913 91.643860,153.365753 
	C91.650757,144.042923 90.229401,142.856644 80.932655,144.457047 
	C80.152718,144.591324 79.350784,144.887482 78.677330,145.300995 
	C75.591805,147.195541 72.909966,149.619370 69.242401,150.722412 
	C66.942421,151.414108 65.157143,153.837341 65.527885,156.529083 
	C65.837334,158.775772 67.370041,160.420059 69.581406,161.652222 
	C73.690651,163.941879 78.436974,164.422760 82.545761,166.989563 
	C84.853500,168.431229 88.945953,169.202469 91.567436,164.826202 
M142.816223,205.802490 
	C144.091599,205.711945 144.129852,207.777374 145.568497,207.412781 
	C148.703125,198.243149 145.485306,183.433380 139.277832,178.392807 
	C134.448517,181.999435 128.358200,183.473419 123.852013,187.735474 
	C126.497543,197.020416 132.043411,203.627487 142.816223,205.802490 
M124.873238,176.488312 
	C127.795181,175.077026 128.447205,170.748642 132.385788,170.643280 
	C134.014542,170.599701 135.398773,170.212097 135.534180,168.237228 
	C135.603775,167.222076 135.602341,165.991501 134.469482,165.712234 
	C132.904526,165.326447 131.518082,165.238922 130.146011,166.988068 
	C128.743607,168.775894 127.075043,170.424210 124.748924,171.610992 
	C119.833626,174.118790 114.599762,175.661011 109.555466,177.741043 
	C108.199936,178.299957 107.893288,179.992661 106.129349,180.358597 
	C96.445518,182.367554 87.532646,178.422821 78.492249,176.418228 
	C76.131004,175.894684 73.622627,174.361313 70.844246,174.352158 
	C68.983849,174.346039 67.429153,174.216965 66.270790,172.196838 
	C65.166237,170.270538 63.115993,168.909317 61.821022,167.061707 
	C60.894409,165.739639 60.001495,165.042542 58.593643,165.862869 
	C56.978809,166.803802 57.101959,168.469803 57.782436,169.832123 
	C58.429028,171.126587 59.404865,172.355988 60.500362,173.310501 
	C67.051926,179.018967 74.909706,181.919662 83.398834,182.464035 
	C86.540649,182.665512 89.907288,184.841217 93.190437,182.370071 
	C93.834717,181.885132 94.907471,182.742081 95.463722,183.784973 
	C97.251534,187.136948 99.910767,185.928070 102.143555,184.552673 
	C103.204422,183.899185 103.864418,182.560974 105.381767,182.659012 
	C112.421494,183.113831 118.083420,179.300797 124.873238,176.488312 
M143.658081,112.920219 
	C142.641373,110.980774 140.486084,110.883194 139.379807,111.772781 
	C134.951126,115.333954 129.723038,118.016380 126.621475,123.132904 
	C125.591019,124.832794 124.449608,126.809784 126.228188,127.942787 
	C130.205185,130.476242 134.419052,132.797012 138.819794,134.450089 
	C141.745834,135.549210 143.538208,134.018829 143.762680,130.335098 
	C144.061478,125.431671 141.855652,120.156181 145.658661,115.597725 
	C146.264359,114.871719 144.348404,114.361206 143.658081,112.920219 
M122.054321,159.305664 
	C123.106674,158.225037 125.165916,159.209488 125.710739,157.898270 
	C125.427773,152.139420 120.424965,154.098679 117.732437,152.184937 
	C118.125603,155.830856 109.827019,159.886841 118.481262,162.792770 
	C119.363388,161.678696 121.169319,161.495148 122.054321,159.305664 
z"/>
</svg>