<svg version="1.1" id="Layer_1" xmlns="http://www.w3.org/2000/svg" xmlns:xlink="http://www.w3.org/1999/xlink" x="0px" y="0px"
	 width="100%" viewBox="0 0 240 272" enable-background="new 0 0 240 272" xml:space="preserve">
<path fill="#000000" opacity="1.000000" stroke="none" 
	d="
M40.651073,140.999908 
	C40.655720,116.840294 40.763565,93.179878 40.575512,69.521812 
	C40.539398,64.978432 41.879887,63.520847 46.489563,63.548546 
	C75.646431,63.723759 104.804916,63.640266 133.962845,63.610214 
	C136.395416,63.607708 138.923981,64.080292 140.839630,61.667015 
	C142.021530,60.178104 143.406952,60.736141 144.531219,62.201862 
	C145.993912,64.108795 148.921021,64.386322 149.888184,63.234909 
	C153.001175,59.528839 157.280365,60.715099 160.585449,60.830757 
	C171.559662,61.214806 182.500565,60.606232 193.453690,60.646866 
	C198.757629,60.666542 204.061707,60.650261 209.678040,60.650261 
	C210.175476,65.070274 213.489609,68.728180 210.414108,72.963875 
	C210.332016,73.076927 210.326218,73.318138 210.387848,73.452248 
	C212.665863,78.409187 209.557632,83.969955 212.116287,88.912201 
	C212.398376,89.457069 212.543793,90.388527 212.269104,90.857468 
	C209.192413,96.109970 210.775620,101.831299 211.431686,107.090614 
	C211.808365,110.110268 211.161560,113.114067 211.930496,116.238014 
	C212.821976,119.859856 213.499023,124.148712 211.029358,127.829277 
	C210.333817,128.865875 209.975052,130.300964 210.586151,131.157120 
	C213.510010,135.253433 212.249405,139.850052 212.277908,144.213943 
	C212.409561,164.373703 212.233368,184.535751 212.415680,204.694733 
	C212.454117,208.945541 211.357193,210.481293 206.838745,210.482040 
	C167.355713,210.488464 127.870918,211.005615 88.390694,210.748810 
	C74.247017,210.656830 60.095409,210.706711 45.948586,210.537949 
	C41.797234,210.488403 40.556236,209.047882 40.586685,204.979874 
	C40.745060,183.820908 40.654900,162.660080 40.651073,140.999908 
M160.416397,123.635284 
	C163.657776,123.243813 167.189529,124.694305 170.132019,122.620071 
	C174.753906,119.361992 177.284256,114.324013 179.357117,109.395058 
	C181.747879,103.710220 184.853928,98.599800 188.717621,93.938980 
	C189.718872,92.731155 190.260956,91.664459 190.749374,90.227303 
	C192.537994,84.964485 194.237106,79.613350 197.746033,75.145134 
	C198.563553,74.104141 198.792587,73.015022 198.310486,71.895767 
	C197.671997,70.413422 196.218597,70.410622 194.875198,70.443069 
	C189.716339,70.567688 184.559113,70.792679 179.399811,70.850533 
	C176.636246,70.881516 173.771194,70.880821 172.120728,67.286339 
	C171.940323,69.825706 170.810638,70.556145 168.799713,70.542625 
	C165.641541,70.521378 162.481064,70.891586 159.322418,70.879089 
	C129.182800,70.759789 99.043137,70.487442 68.904037,70.545464 
	C63.704044,70.555473 58.343193,69.479858 52.769943,71.234818 
	C53.561207,72.582222 53.941360,74.163834 54.712387,74.385437 
	C58.652294,75.517754 61.398380,78.012215 63.674564,81.231850 
	C63.825249,81.444992 64.286812,81.522842 64.603165,81.521484 
	C68.295372,81.505600 69.741531,84.531303 71.754929,86.780228 
	C73.610252,88.852585 75.054329,91.814552 77.366318,92.847443 
	C82.093742,94.959435 84.772354,99.061684 88.482597,102.108994 
	C90.829628,104.036667 91.309006,107.914299 94.399940,108.401619 
	C98.378036,109.028801 100.155945,111.648117 102.211067,114.463959 
	C103.085602,115.662224 103.485695,117.831970 105.682205,117.598190 
	C108.088470,117.342102 109.250206,118.775459 110.264114,120.595650 
	C111.616142,123.022835 113.695808,123.715416 116.466972,123.691963 
	C130.791321,123.570686 145.117249,123.635696 160.416397,123.635284 
M50.464424,79.384529 
	C49.047390,79.851364 48.620956,77.268257 46.766632,78.400780 
	C46.649616,79.189079 46.384308,80.144585 46.383755,81.100243 
	C46.363216,116.430840 46.365406,151.761444 46.374817,187.092056 
	C46.375168,188.410690 46.060677,189.968018 47.159271,190.891251 
	C49.329777,192.715302 49.482899,194.143997 47.177429,196.060989 
	C45.938099,197.091461 45.950993,198.937012 47.338299,200.024857 
	C48.625580,201.034225 49.537579,199.892471 50.713249,199.112671 
	C53.332996,197.374954 56.171211,195.295578 59.132877,194.883865 
	C65.323700,194.023254 70.740318,190.904205 74.943016,187.352112 
	C80.514786,182.642883 89.409309,184.295380 93.065910,176.877869 
	C93.149536,176.708252 93.703117,176.690781 94.022377,176.728882 
	C98.086098,177.213852 101.131485,175.851273 102.804451,171.951859 
	C103.179771,171.077042 103.926117,170.813354 104.794914,170.710327 
	C109.407021,170.163300 110.642754,167.043549 110.645760,162.997284 
	C110.652061,154.497940 110.659332,145.998581 110.658478,137.499237 
	C110.657692,129.725906 110.127968,128.957504 102.944565,126.342514 
	C102.662697,123.921890 102.121201,122.194611 99.187752,120.849098 
	C96.833656,119.769325 93.420914,119.228584 92.090401,117.263092 
	C85.589325,107.659424 74.696999,102.641663 67.902130,93.449959 
	C67.301636,92.637642 66.788757,91.411476 65.749748,91.619576 
	C62.464916,92.277473 61.662262,89.487228 60.053261,87.822128 
	C57.203465,84.872986 54.962212,81.281174 50.464424,79.384529 
M149.871399,174.469543 
	C140.390823,175.611801 130.911469,174.025162 121.434113,174.464996 
	C119.302979,174.563919 116.381279,174.165955 115.209503,175.358536 
	C111.397972,179.237747 106.055222,180.146957 101.697197,182.910263 
	C99.665649,184.198410 97.893578,187.146545 94.646584,186.633255 
	C92.305946,186.263245 90.690201,187.483490 89.186203,189.244019 
	C87.490036,191.229462 85.350197,192.154694 82.518898,192.681732 
	C77.999954,193.522919 75.467682,198.180191 71.467453,200.371902 
	C71.061966,200.594070 71.225929,201.855560 71.152817,202.423508 
	C72.478325,203.730545 73.854164,203.609604 75.169968,203.610489 
	C93.817703,203.622925 112.465462,203.629013 131.113144,203.596619 
	C132.250610,203.594635 133.924545,203.668869 134.432922,203.005600 
	C136.810028,199.904175 140.118774,200.344849 143.097855,200.756531 
	C147.361618,201.345734 151.526840,200.627563 155.734467,200.641479 
	C166.723160,200.677811 177.712082,200.645386 188.700912,200.640976 
	C191.619644,200.639816 194.538376,200.640808 198.412598,200.640808 
	C195.988876,197.976715 195.270645,195.435913 192.829178,194.490784 
	C184.944519,191.438583 181.781265,182.912201 174.186432,178.950119 
	C169.871506,176.699112 166.060593,174.656418 161.295639,174.495209 
	C157.803085,174.377029 154.303787,174.458267 149.871399,174.469543 
M206.443329,193.030823 
	C206.508362,184.538437 206.579987,176.046097 206.630661,167.553619 
	C206.637558,166.397812 206.886749,164.934387 205.877182,164.262878 
	C203.095810,162.412796 203.663223,159.674225 203.659286,157.084885 
	C203.625519,134.925125 203.630829,112.765297 203.584198,90.605576 
	C203.578857,88.065231 203.326675,85.525406 203.188950,82.985344 
	C199.397171,89.232613 195.568329,94.984993 193.168762,101.521324 
	C191.926147,104.906181 191.294373,108.638741 188.311783,111.343422 
	C179.595230,119.247749 176.167038,129.092224 177.239136,140.872574 
	C177.855713,147.647675 177.914551,154.585007 177.194351,161.339493 
	C176.446945,168.348877 180.418854,172.423264 184.407471,176.983704 
	C189.684753,183.017593 197.933289,185.850098 201.750809,193.477188 
	C202.568634,195.111115 204.594238,194.868530 206.443329,193.030823 
M168.651016,161.239624 
	C168.651016,151.331696 168.651016,141.423752 168.651016,131.235245 
	C164.013580,133.017746 160.186554,133.489914 156.065353,131.093826 
	C155.549408,133.890961 153.265778,133.429855 151.096863,133.420120 
	C141.444794,133.376831 131.792450,133.369385 122.140289,133.390717 
	C120.359238,133.394653 117.914940,133.018646 117.631073,135.401489 
	C117.082169,140.009232 115.719444,145.569275 118.023376,149.090027 
	C120.773300,153.292282 120.331161,157.198196 120.221352,161.251312 
	C120.094376,165.937836 121.490273,167.817673 126.408524,167.714905 
	C138.718079,167.457642 151.039154,167.488724 163.350174,167.708969 
	C167.589600,167.784805 169.150986,166.183777 168.651016,161.239624 
z"/>
</svg>