<svg version="1.1" id="Layer_1" xmlns="http://www.w3.org/2000/svg" xmlns:xlink="http://www.w3.org/1999/xlink" x="0px" y="0px"
	 width="100%" viewBox="0 0 240 256" enable-background="new 0 0 240 256" xml:space="preserve">
<path fill="#000000" opacity="1.000000" stroke="none" 
	d="
M241.000000,231.531342 
	C239.189514,231.795227 237.379410,231.416489 235.568481,231.412506 
	C216.743668,231.371017 197.918732,231.384171 179.093826,231.398010 
	C176.264816,231.400101 173.321808,231.120102 171.544418,233.990921 
	C167.059189,230.615662 160.179947,230.390182 156.085327,233.323746 
	C155.699142,233.600449 155.049667,234.158768 154.931808,234.066040 
	C151.908630,231.687378 148.559509,234.162354 146.158096,233.670670 
	C143.512558,233.129044 141.920609,234.353836 139.858017,234.394684 
	C136.532990,234.460526 133.205780,234.418167 129.879486,234.417572 
	C93.077095,234.410873 56.274693,234.412582 19.472313,234.388184 
	C12.416123,234.383499 10.114214,230.780365 12.968509,224.195114 
	C13.466921,223.045197 13.919661,221.691544 13.323114,220.856018 
	C10.508625,216.914062 11.702735,212.495865 11.694583,208.303864 
	C11.600311,159.825745 11.628903,111.347397 11.594387,62.869129 
	C11.592424,60.112747 11.807420,57.507935 9.494434,55.009991 
	C6.994986,52.310665 8.974876,41.094116 11.304336,38.310852 
	C13.223601,36.017689 15.529882,36.668343 17.717655,36.666241 
	C77.357536,36.608990 136.997467,36.609512 196.637390,36.604580 
	C208.298782,36.603615 219.960190,36.615646 231.621582,36.630096 
	C238.290176,36.638363 238.316208,36.645981 238.322220,43.104160 
	C238.341797,64.094742 238.318741,85.085419 238.382370,106.075836 
	C238.388458,108.085648 237.512222,110.574608 240.657608,111.848145 
	C241.000000,151.687561 241.000000,191.375122 241.000000,231.531342 
M50.407791,176.808884 
	C50.542072,180.914459 45.863972,181.870636 44.874237,184.745987 
	C42.637501,191.244110 39.597866,197.276611 36.757874,203.477631 
	C33.622787,210.323013 29.564692,216.682938 26.523859,223.586639 
	C29.081387,224.895126 31.607611,224.641586 34.082535,224.641953 
	C69.902092,224.647263 105.721703,224.658859 141.541138,224.591309 
	C145.044556,224.584702 148.665161,225.475174 151.801788,222.278381 
	C152.888947,221.170380 156.876831,221.034821 157.900421,222.072388 
	C161.714996,225.939072 165.477173,221.877289 169.267838,222.320938 
	C174.359268,222.916824 179.870773,219.611084 184.690399,224.237595 
	C185.138412,224.667664 186.512619,224.712891 187.078781,224.348892 
	C191.979034,221.198456 197.455017,221.689133 202.854721,221.645950 
	C206.852707,221.613968 210.856613,221.715729 214.846848,221.525879 
	C217.599518,221.394913 219.086792,219.353439 217.616196,217.170212 
	C215.956757,214.706711 213.216537,212.966827 210.928986,210.931732 
	C205.818542,206.385223 197.886566,204.778381 196.130722,196.698517 
	C196.027328,196.222672 195.144989,195.931671 194.651779,195.522552 
	C189.810791,191.506714 184.049423,188.936890 179.449219,184.289825 
	C175.404755,180.204147 169.858322,177.256516 165.099243,173.808136 
	C159.005585,169.392761 152.991165,164.398483 147.758606,158.881134 
	C142.717392,153.565552 137.611282,150.941193 129.953766,151.189316 
	C110.980988,151.804108 91.968964,151.654419 72.985802,151.228271 
	C67.302788,151.100693 64.198654,153.999924 62.186581,158.019745 
	C58.927509,164.530869 55.327450,170.704269 50.407791,176.808884 
M229.826004,212.268387 
	C232.186478,211.119003 231.793640,208.864594 231.589737,207.007004 
	C230.816147,199.959320 231.319855,192.948547 231.571396,185.903214 
	C231.892014,176.923157 231.790497,167.919846 231.594193,158.932617 
	C231.480499,153.727264 232.802826,148.349960 229.879074,143.359055 
	C229.201187,142.201889 229.295441,140.250214 230.306992,139.055344 
	C231.908279,137.163803 231.364227,134.982788 231.681702,132.888931 
	C232.871872,125.039055 229.614441,117.614754 229.629852,109.881279 
	C229.665009,92.231361 229.637756,74.581322 229.631256,56.931332 
	C229.630707,55.433079 229.609619,53.934509 229.573471,52.436680 
	C229.519653,50.207123 227.993637,49.010445 226.340820,50.152828 
	C222.156433,53.044918 215.691650,51.702202 213.062927,57.375484 
	C212.889130,57.750553 212.321960,58.076141 211.881668,58.175053 
	C205.009338,59.718922 198.255814,61.210144 193.096542,66.853157 
	C191.996933,68.055862 189.513657,70.126427 187.961517,69.990547 
	C180.870453,69.369766 177.777740,76.426491 171.160461,77.776840 
	C163.747238,79.289627 157.309799,85.320747 150.052338,88.722443 
	C147.362747,89.983093 145.237091,92.340759 145.284470,96.145576 
	C145.466980,110.796074 145.360611,125.450241 145.347427,140.103027 
	C145.345596,142.128006 145.953522,143.481537 147.510132,145.173691 
	C151.684433,149.711456 157.496933,152.111465 161.520966,156.794952 
	C163.179565,158.725327 163.553711,162.266296 166.569305,162.454681 
	C169.626999,162.645691 170.997894,164.441986 172.201019,166.592453 
	C173.367020,168.676575 175.325089,170.978821 176.981537,171.138428 
	C180.912399,171.517197 182.638733,174.149017 184.836121,176.526703 
	C185.612305,177.366547 186.322525,178.605255 187.285965,178.880234 
	C194.486328,180.935333 197.272919,187.748306 202.045258,192.392471 
	C202.847443,193.173111 203.199905,194.450592 204.552658,194.513138 
	C208.141754,194.679062 209.814636,197.237488 211.694534,199.792007 
	C212.708221,201.169449 213.338013,203.417145 215.446091,203.472931 
	C219.768311,203.587280 221.623642,206.860687 223.508713,209.760925 
	C225.003815,212.061127 226.552643,213.083115 229.826004,212.268387 
M159.350616,72.633957 
	C160.478317,72.419968 162.299332,72.564865 162.625015,71.935707 
	C165.453964,66.470764 171.749557,66.994392 176.125214,64.238098 
	C178.159485,62.956680 180.486938,60.586090 183.349228,60.727936 
	C187.716690,60.944378 190.532684,57.975906 193.549789,55.820713 
	C198.072433,52.590080 201.519775,47.724854 207.840881,47.400276 
	C200.952682,46.728161 194.224777,46.634834 187.410507,46.682552 
	C136.811264,47.036888 86.207024,46.683590 35.604412,46.530972 
	C33.784180,46.525486 32.092205,46.759552 30.457098,47.680904 
	C35.360706,58.117561 46.018456,63.171585 51.897640,72.380440 
	C51.964397,72.485001 52.205078,72.476730 52.363441,72.524849 
	C56.625370,73.819923 59.092148,77.357124 61.614506,80.532745 
	C65.321312,85.199577 68.695328,86.000504 74.020714,82.446686 
	C74.979500,81.806847 76.155006,81.449097 76.651558,82.298546 
	C78.657646,85.730331 82.052605,83.851089 84.663841,84.732880 
	C89.524452,86.374260 93.426559,82.456573 99.071609,83.816910 
	C106.502380,85.607559 115.658989,87.407494 123.432281,82.197159 
	C124.544418,81.451706 125.643433,81.815506 126.372803,83.039017 
	C127.411507,84.781471 129.176605,84.553230 130.822327,84.621864 
	C135.854904,84.831734 139.908051,81.849838 144.291962,80.165680 
	C149.269684,78.253387 153.815704,75.217438 159.350616,72.633957 
M57.448166,148.544510 
	C57.480083,130.224030 57.469162,111.903282 57.587696,93.583359 
	C57.606602,90.661110 56.618893,88.495621 54.326397,86.828194 
	C48.812408,82.817627 43.667553,78.431442 39.245605,73.181076 
	C36.207176,69.573433 32.060936,66.957184 28.845953,63.744595 
	C26.230089,61.130680 25.265072,57.276020 20.356852,58.062988 
	C20.356852,107.007492 20.356001,155.976273 20.364033,204.945053 
	C20.364168,205.774643 20.377844,206.624649 20.552547,207.428772 
	C20.785707,208.501923 21.535488,209.189987 22.659622,209.206833 
	C23.871143,209.225021 24.619139,208.391495 24.489983,207.309982 
	C24.124918,204.253098 26.633793,202.879684 28.244711,201.249161 
	C29.612246,199.865021 30.217348,198.562363 30.809502,196.763489 
	C33.196686,189.511566 36.911369,182.858551 40.520931,176.137253 
	C42.299862,172.824738 44.451317,169.838013 46.345623,166.663193 
	C49.846321,160.796051 51.953979,154.082367 57.448166,148.544510 
M123.805115,94.430473 
	C115.755760,94.439537 107.706398,94.451553 99.657043,94.456902 
	C90.333168,94.463089 81.009285,94.455170 71.685432,94.470520 
	C68.162239,94.476318 66.126389,95.703796 66.294502,99.801727 
	C66.553856,106.124069 66.346207,112.465164 66.361656,118.798241 
	C66.364868,120.115356 66.021492,121.746681 67.166519,122.577522 
	C69.829201,124.509590 69.313194,127.215942 69.340874,129.823257 
	C69.372719,132.822845 69.258156,135.826920 69.385239,138.821487 
	C69.465149,140.704330 68.480064,143.312607 70.881302,144.146637 
	C73.508331,145.059067 76.768074,145.581970 78.968102,143.558167 
	C80.672424,141.990356 82.352707,141.274078 84.271629,141.705246 
	C88.790169,142.720505 93.225403,141.538284 97.699272,141.591461 
	C109.030624,141.726181 120.365883,141.538391 131.696991,141.683105 
	C135.328430,141.729477 136.762375,140.497742 136.701523,136.765686 
	C136.535797,126.602081 136.650696,116.433922 136.653580,106.267563 
	C136.656921,94.405037 136.656540,94.405037 123.805115,94.430473 
z"/>
</svg>