<svg version="1.1" id="Layer_1" xmlns="http://www.w3.org/2000/svg" xmlns:xlink="http://www.w3.org/1999/xlink" x="0px" y="0px"
	 width="100%" viewBox="0 0 256 256" enable-background="new 0 0 256 256" xml:space="preserve">
<path fill="#000000" opacity="1.000000" stroke="none" 
	d="
M73.000130,33.633865 
	C96.492729,33.632282 119.485359,33.648876 142.477875,33.605709 
	C145.186401,33.600624 148.181122,34.442402 150.021362,31.167700 
	C150.606720,30.126093 152.017288,30.393646 153.107880,31.220125 
	C157.278259,34.380524 164.657837,34.718624 168.740036,31.763626 
	C170.076416,30.796249 170.843033,30.892939 172.191025,31.700115 
	C178.648087,35.566563 185.631607,33.272743 192.411270,33.055412 
	C193.192123,33.030380 193.924774,31.501179 194.874176,30.455200 
	C197.125610,32.297112 199.209976,36.149681 202.106247,31.284300 
	C202.841293,30.049519 204.576294,30.630371 205.870804,30.622715 
	C211.035553,30.592165 216.268829,30.099035 221.345749,30.769270 
	C226.100647,31.396994 230.484467,33.634090 235.460327,30.827816 
	C237.510162,29.671745 239.029831,31.570513 240.694626,34.119678 
	C244.580109,40.069210 243.258118,46.174358 243.273514,52.206593 
	C243.405853,104.022873 243.458267,155.840210 243.186172,207.655396 
	C243.158493,212.923584 246.218475,217.445145 245.388382,222.681046 
	C245.134277,224.283829 245.348953,225.960968 245.348953,227.632080 
	C239.360413,229.953003 232.549011,225.778656 227.409134,231.370667 
	C225.091263,228.100021 221.778992,228.360016 218.460144,228.379745 
	C208.463730,228.439148 198.464630,228.283218 188.471252,228.466660 
	C185.495590,228.521286 182.064041,227.492294 179.732666,230.664032 
	C179.236664,231.338806 178.112106,231.432373 177.440125,230.880127 
	C174.342941,228.334854 171.369995,227.803406 168.296951,230.937180 
	C168.003891,231.236023 166.929611,231.128784 166.452576,230.832443 
	C160.657761,227.232880 154.999649,227.584244 149.203339,230.948715 
	C148.038879,231.624619 146.275421,231.366730 144.787598,231.371490 
	C134.790909,231.403473 124.793961,231.417679 114.797401,231.371552 
	C112.380135,231.360397 109.872459,231.864288 107.871269,229.579117 
	C106.950958,228.528198 105.329704,228.658417 104.506325,230.177109 
	C103.561302,231.920181 101.990738,231.488098 100.543480,231.486511 
	C74.283730,231.457733 48.023239,231.306458 21.764914,231.481888 
	C16.955643,231.514023 15.374547,230.105316 15.508648,225.279510 
	C15.629366,220.935349 16.380987,216.531982 14.203118,212.099121 
	C13.066464,209.785538 16.107168,206.773071 15.680774,203.608383 
	C14.963586,198.285400 16.029215,192.968399 14.154516,187.470474 
	C13.080835,184.321701 13.202018,179.668213 15.038936,175.841141 
	C16.221565,173.377243 16.429474,170.151611 15.295189,168.057709 
	C13.123266,164.048294 13.652286,159.999023 13.647684,155.931183 
	C13.603966,117.277031 13.729485,78.622337 13.534896,39.969166 
	C13.509216,34.868328 15.007569,33.459827 20.019606,33.539440 
	C37.509197,33.817234 55.006039,33.639030 73.000130,33.633865 
M210.089828,40.959072 
	C206.900436,41.069920 203.927551,46.646164 200.509216,41.344814 
	C200.464859,41.276047 200.108994,41.283981 200.062759,41.358288 
	C196.624817,46.883865 191.798416,41.271168 187.251175,42.873486 
	C181.327209,44.960938 174.110992,43.335785 167.451981,43.409233 
	C165.344818,43.432472 163.479172,43.266514 162.748505,40.792171 
	C160.076096,43.645134 152.553543,44.516125 149.464188,42.535572 
	C148.896255,42.171478 148.544968,40.477432 147.763458,41.743759 
	C145.945145,44.690132 143.229797,43.303963 141.003754,43.310966 
	C106.539421,43.419418 72.074669,43.383102 37.610016,43.403713 
	C35.658024,43.404881 33.608513,43.000977 31.800058,44.289833 
	C33.942360,47.927971 35.255413,52.395432 40.444408,52.040047 
	C41.868679,53.759972 40.709095,56.181416 42.679489,57.213215 
	C50.362614,61.236511 55.954124,67.898361 62.690510,73.116737 
	C63.951942,74.093910 65.193764,75.000359 66.469009,75.897545 
	C68.861458,77.580750 72.990982,77.917763 73.688309,79.968369 
	C74.727097,83.023041 76.479340,83.892586 78.788025,85.525322 
	C87.017792,91.345558 93.430420,99.435944 101.934372,104.965218 
	C105.085373,107.014000 106.454865,110.455704 109.196014,112.820465 
	C111.310913,114.644966 114.854271,116.786674 115.918137,116.024628 
	C118.844574,113.928421 121.697220,114.732353 124.513390,114.713745 
	C144.658615,114.580605 164.805893,114.512749 184.949982,114.699066 
	C188.386368,114.730850 191.226227,113.736320 192.330566,110.956268 
	C195.112427,103.953255 199.280121,97.434311 201.322128,90.331703 
	C203.277023,83.532143 207.800262,78.580788 211.152054,72.935616 
	C214.662796,67.022758 216.855774,60.528694 220.562851,54.761059 
	C223.247345,50.584404 226.206680,46.466702 227.139206,41.135044 
	C222.856461,40.369640 218.206772,38.861839 214.053421,43.006001 
	C212.981461,42.375401 211.879318,41.727058 210.089828,40.959072 
M51.262512,74.462585 
	C49.877705,72.512016 46.992386,74.656830 45.606270,72.177536 
	C41.069870,64.063461 32.791100,59.788570 26.203693,53.780891 
	C24.186836,51.941525 22.482479,52.731361 22.378370,55.695698 
	C22.331646,57.026131 22.343349,58.358929 22.343357,59.690651 
	C22.343605,102.475258 22.499548,145.260864 22.224482,188.043686 
	C22.165741,197.180313 25.320015,205.892090 24.723717,215.013123 
	C24.672064,215.803192 24.652712,217.061264 25.938148,217.689667 
	C26.959826,214.193039 30.643614,215.933472 32.976452,214.068924 
	C35.935650,211.703751 38.714443,208.310959 42.016777,207.171387 
	C47.560806,205.258301 53.136478,203.640518 58.347958,200.815201 
	C64.768669,197.334335 71.652023,194.634186 77.813278,190.765121 
	C86.136002,185.538773 94.887993,181.177994 103.486778,176.496948 
	C106.582275,174.811798 108.783943,172.532272 108.719849,168.384094 
	C108.519257,155.402084 108.661629,142.414871 108.652931,129.429672 
	C108.651604,127.454109 108.360321,125.856239 106.765289,124.111160 
	C103.287651,120.306396 99.226547,117.342209 95.417366,114.092880 
	C89.496735,109.042427 84.626457,102.503494 77.898170,98.213905 
	C75.097610,96.428436 74.967003,92.033165 71.789604,91.622406 
	C67.936592,91.124283 66.329193,88.514259 64.163216,86.161934 
	C63.176994,85.090858 62.611816,83.388344 60.996590,83.136734 
	C56.147118,82.381294 53.953293,78.647537 51.262512,74.462585 
M233.649384,181.500046 
	C233.649185,150.678223 233.563522,119.855827 233.769180,89.035378 
	C233.792007,85.615990 231.145706,82.333504 232.255341,79.616623 
	C234.739548,73.534111 233.045090,67.470009 233.551331,61.440758 
	C233.650299,60.262135 233.420593,59.043194 231.976318,58.680420 
	C230.861191,58.400318 230.271912,59.230793 229.442764,59.798920 
	C226.169006,62.042103 226.067459,65.972679 224.388184,69.029663 
	C221.280533,74.686935 216.342926,79.158897 214.203995,85.462158 
	C213.613449,87.202423 213.902908,89.191505 212.798233,90.665169 
	C207.453720,97.794830 203.140030,105.614304 200.116104,113.858353 
	C199.021240,116.843231 195.880600,118.820549 196.259399,122.456039 
	C196.428665,124.080688 197.054459,126.538261 194.551041,127.056396 
	C192.369354,127.507942 189.770905,128.242172 187.960098,126.274101 
	C186.683044,124.886131 185.350815,124.386803 183.600922,124.389000 
	C163.108917,124.414749 142.616852,124.448021 122.124916,124.414894 
	C118.600632,124.409203 117.190491,125.667397 117.267372,129.455124 
	C117.503990,141.112610 117.356934,152.777863 117.358429,164.440109 
	C117.359238,170.760239 120.196419,173.610321 126.712013,173.621185 
	C145.038406,173.651779 163.364883,173.627823 181.691330,173.623886 
	C183.852829,173.623413 185.694672,173.349670 187.646103,171.824066 
	C190.170120,169.850845 194.150742,169.198746 195.924194,172.252762 
	C199.138046,177.787201 202.392044,182.952637 207.352737,187.251770 
	C214.736450,193.650742 220.284088,201.929291 228.695282,207.473160 
	C231.442612,209.283981 233.050064,209.522522 235.637939,208.532944 
	C231.723175,204.791855 234.122467,200.152222 233.738297,195.986389 
	C233.326965,191.526123 233.647598,186.998337 233.649384,181.500046 
M59.921764,210.643250 
	C57.155647,211.764145 54.474854,212.997467 51.570889,213.889282 
	C48.324612,214.886215 44.032631,216.400833 42.695286,221.143021 
	C44.329155,221.330933 45.633629,221.611176 46.938274,221.611984 
	C81.237259,221.632889 115.536255,221.627487 149.835251,221.612000 
	C151.149216,221.611404 152.770981,221.988358 153.651215,220.915298 
	C155.574677,218.570526 157.045486,218.429382 159.283615,220.700577 
	C160.712921,222.151016 162.999298,222.183914 164.725327,220.562195 
	C168.023453,217.463348 171.317596,217.575394 174.641083,220.439896 
	C176.153839,221.743729 177.461273,221.750809 179.017212,220.380783 
	C182.722794,217.117920 186.362656,218.044205 188.840424,220.055222 
	C201.435532,217.844162 213.495422,219.897598 224.799850,218.170532 
	C224.748779,212.701004 219.736679,214.344269 217.775650,212.040421 
	C212.529282,205.876846 207.101944,199.897369 200.146484,195.667282 
	C197.572510,194.101868 199.652100,191.198410 197.478027,189.648071 
	C192.894592,186.379623 188.804642,182.439575 182.351501,183.318283 
	C176.996292,184.047501 171.563324,183.148453 166.137894,183.265121 
	C149.162811,183.630112 132.174774,183.381683 115.191818,183.408417 
	C113.401031,183.411224 111.580788,183.129745 109.894562,184.289185 
	C103.422676,188.739227 96.209244,191.886383 89.460129,195.797195 
	C86.339684,197.605362 81.969376,197.162186 80.264236,199.372360 
	C75.127785,206.030090 66.931564,206.483032 59.921764,210.643250 
z"/>
</svg>