<svg version="1.1" id="Layer_1" xmlns="http://www.w3.org/2000/svg" xmlns:xlink="http://www.w3.org/1999/xlink" x="0px" y="0px"
	 width="100%" viewBox="0 0 205 241" enable-background="new 0 0 205 241" xml:space="preserve">
<path fill="#FEFEFE" opacity="1.000000" stroke="none" 
	d="
M133.000000,242.000000 
	C88.666672,242.000000 44.833340,242.000000 1.000006,242.000000 
	C1.000004,161.666672 1.000004,81.333351 1.000002,1.000017 
	C69.333321,1.000011 137.666641,1.000011 205.999969,1.000006 
	C205.999985,81.333321 205.999985,161.666641 206.000000,241.999969 
	C181.833328,242.000000 157.666672,242.000000 133.000000,242.000000 
M113.001320,206.454102 
	C110.168839,208.683380 109.695816,214.409012 105.693207,213.178436 
	C104.225449,206.563599 103.823090,200.646057 103.963684,194.718246 
	C104.121643,188.058228 104.000000,181.391586 104.000000,174.727829 
	C104.000000,167.897476 104.000000,161.067139 104.000000,154.236786 
	C104.000000,147.618225 104.000000,140.999649 104.000000,133.999451 
	C127.470802,133.999451 150.540955,133.999451 173.803375,133.999451 
	C173.803375,130.523987 173.803375,127.436829 173.803375,124.387299 
	C169.892624,125.280952 166.117218,126.868935 162.373764,126.796860 
	C158.565994,126.723541 153.633713,129.507172 150.788040,123.591270 
	C150.213806,124.970108 149.780670,126.010170 149.257614,127.266090 
	C146.667725,122.782295 142.504395,122.783432 140.449966,125.964493 
	C138.581604,125.309395 135.714127,124.215042 135.677094,124.303665 
	C133.034576,130.626297 130.853775,126.046661 129.371918,124.757423 
	C127.399986,125.706093 126.080978,126.837944 124.705833,126.910843 
	C120.220406,127.148636 115.693474,126.735229 111.223587,127.089935 
	C108.066780,127.340446 105.282234,126.494453 104.586365,123.728844 
	C103.907509,121.030807 104.825508,117.926163 105.073151,115.002617 
	C105.152412,114.066948 105.577194,113.090805 105.405655,112.219460 
	C105.127167,110.804909 104.068344,109.463211 104.062675,108.087784 
	C103.973427,86.430939 103.995071,64.773621 104.015633,43.116436 
	C104.016602,42.091988 104.244133,41.067757 104.440376,39.420330 
	C108.032997,43.359226 111.091057,46.712040 114.160576,50.077415 
	C117.295151,46.343555 118.010796,42.287582 115.918602,40.012238 
	C112.086189,35.844322 108.022507,31.878626 104.358330,27.570824 
	C102.508720,25.396322 101.532722,25.258291 99.696396,27.528152 
	C96.990425,30.872978 94.261909,34.372784 90.897179,36.969894 
	C86.125977,40.652607 86.682205,45.058342 87.463791,50.695896 
	C90.946907,46.543510 93.912415,43.008194 96.877922,39.472878 
	C97.251945,39.719902 97.625977,39.966927 98.000000,40.213947 
	C98.000000,41.859016 98.000000,43.504089 98.000000,45.149158 
	C98.000000,53.478855 97.893394,61.810989 98.084137,70.136314 
	C98.125496,71.941666 99.810898,73.751549 99.722626,75.508278 
	C99.571907,78.508041 98.155525,81.456512 98.084991,84.445740 
	C97.857132,94.102806 98.022827,103.768700 97.990494,113.431038 
	C97.974007,118.359451 99.198021,123.711670 93.725906,126.929649 
	C92.460754,124.120789 87.772362,122.644447 87.329720,124.700180 
	C86.609093,128.046982 84.573326,126.907127 82.923401,126.953842 
	C78.262505,127.085808 73.595444,127.002174 68.930817,126.998260 
	C67.931488,126.997421 66.299881,127.354698 66.028900,126.904030 
	C62.650024,121.284676 57.292080,125.055923 52.982597,124.052864 
	C52.108604,123.849434 50.791302,123.993065 50.164803,124.536987 
	C46.132572,128.037704 44.635155,128.013962 41.667450,124.072952 
	C39.634247,128.696274 33.165413,128.166016 28.073183,122.958557 
	C29.161726,121.643936 30.175173,120.255615 31.366446,119.041809 
	C32.103100,118.291222 33.943073,117.422615 33.868465,117.260597 
	C33.030987,115.442017 32.253063,113.297646 30.756674,112.189079 
	C29.809267,111.487228 27.080217,111.776237 26.186924,112.663994 
	C22.613001,116.215767 19.487791,120.214340 16.114750,123.974197 
	C12.309386,128.215958 11.922212,128.455612 15.093200,132.493256 
	C19.375736,137.946243 24.260328,142.926422 28.771683,147.980743 
	C36.531979,142.900360 31.928463,138.597351 27.331686,134.195038 
	C51.393883,134.195038 74.495255,134.195038 97.667038,134.195038 
	C97.667038,160.563721 97.667038,186.736023 97.667038,213.564560 
	C95.255547,211.823318 93.370461,210.462158 91.125237,208.840958 
	C90.852875,205.106750 90.852875,205.106750 87.487396,205.525833 
	C83.977455,214.290527 91.821007,218.460770 95.293640,224.274063 
	C96.747314,226.707581 100.388092,227.834579 102.720421,229.351334 
	C104.418991,226.377625 105.808922,222.270721 106.876862,222.352798 
	C112.740089,222.803497 113.056458,217.014267 116.324829,214.704453 
	C118.877548,212.900391 116.249817,206.389282 113.001320,206.454102 
z"/>
<path fill="#000000" opacity="1.000000" stroke="none" 
	d="
M113.025963,206.044571 
	C116.249817,206.389282 118.877548,212.900391 116.324829,214.704453 
	C113.056458,217.014267 112.740089,222.803497 106.876862,222.352798 
	C105.808922,222.270721 104.418991,226.377625 102.720421,229.351334 
	C100.388092,227.834579 96.747314,226.707581 95.293640,224.274063 
	C91.821007,218.460770 83.977455,214.290527 87.487396,205.525833 
	C90.852875,205.106750 90.852875,205.106750 91.125237,208.840958 
	C93.370461,210.462158 95.255547,211.823318 97.667038,213.564560 
	C97.667038,186.736023 97.667038,160.563721 97.667038,134.195038 
	C74.495255,134.195038 51.393883,134.195038 27.331686,134.195038 
	C31.928463,138.597351 36.531979,142.900360 28.771683,147.980743 
	C24.260328,142.926422 19.375736,137.946243 15.093200,132.493256 
	C11.922212,128.455612 12.309386,128.215958 16.114750,123.974197 
	C19.487791,120.214340 22.613001,116.215767 26.186924,112.663994 
	C27.080217,111.776237 29.809267,111.487228 30.756674,112.189079 
	C32.253063,113.297646 33.030987,115.442017 33.868465,117.260597 
	C33.943073,117.422615 32.103100,118.291222 31.366446,119.041809 
	C30.175173,120.255615 29.161726,121.643936 28.073265,122.958603 
	C33.165413,128.166016 39.634247,128.696274 41.667450,124.072952 
	C44.635155,128.013962 46.132572,128.037704 50.164803,124.536987 
	C50.791302,123.993065 52.108604,123.849434 52.982597,124.052864 
	C57.292080,125.055923 62.650024,121.284676 66.028900,126.904030 
	C66.299881,127.354698 67.931488,126.997421 68.930817,126.998260 
	C73.595444,127.002174 78.262505,127.085808 82.923401,126.953842 
	C84.573326,126.907127 86.609093,128.046982 87.329720,124.700180 
	C87.772362,122.644447 92.460754,124.120789 93.726151,126.929726 
	C99.198021,123.711670 97.974007,118.359451 97.990494,113.431038 
	C98.022827,103.768700 97.857132,94.102806 98.084991,84.445740 
	C98.155525,81.456512 99.571907,78.508041 99.722626,75.508278 
	C99.810898,73.751549 98.125496,71.941666 98.084137,70.136314 
	C97.893394,61.810989 98.000000,53.478855 98.000000,45.149158 
	C98.000000,43.504089 98.000000,41.859016 98.000000,40.213947 
	C97.625977,39.966927 97.251945,39.719902 96.877922,39.472878 
	C93.912415,43.008194 90.946907,46.543510 87.463791,50.695896 
	C86.682205,45.058342 86.125977,40.652607 90.897179,36.969894 
	C94.261909,34.372784 96.990425,30.872978 99.696396,27.528152 
	C101.532722,25.258291 102.508720,25.396322 104.358330,27.570824 
	C108.022507,31.878626 112.086189,35.844322 115.918602,40.012238 
	C118.010796,42.287582 117.295151,46.343555 114.160576,50.077415 
	C111.091057,46.712040 108.032997,43.359226 104.440376,39.420330 
	C104.244133,41.067757 104.016602,42.091988 104.015633,43.116436 
	C103.995071,64.773621 103.973427,86.430939 104.062675,108.087784 
	C104.068344,109.463211 105.127167,110.804909 105.405655,112.219460 
	C105.577194,113.090805 105.152412,114.066948 105.073151,115.002617 
	C104.825508,117.926163 103.907509,121.030807 104.586365,123.728844 
	C105.282234,126.494453 108.066780,127.340446 111.223587,127.089935 
	C115.693474,126.735229 120.220406,127.148636 124.705833,126.910843 
	C126.080978,126.837944 127.399986,125.706093 129.371918,124.757423 
	C130.853775,126.046661 133.034576,130.626297 135.677094,124.303665 
	C135.714127,124.215042 138.581604,125.309395 140.449966,125.964493 
	C142.504395,122.783432 146.667725,122.782295 149.257614,127.266090 
	C149.780670,126.010170 150.213806,124.970108 150.788040,123.591270 
	C153.633713,129.507172 158.565994,126.723541 162.373764,126.796860 
	C166.117218,126.868935 169.892624,125.280952 173.803375,124.387299 
	C173.803375,127.436829 173.803375,130.523987 173.803375,133.999451 
	C150.540955,133.999451 127.470802,133.999451 104.000000,133.999451 
	C104.000000,140.999649 104.000000,147.618225 104.000000,154.236786 
	C104.000000,161.067139 104.000000,167.897476 104.000000,174.727829 
	C104.000000,181.391586 104.121643,188.058228 103.963684,194.718246 
	C103.823090,200.646057 104.225449,206.563599 105.693207,213.178436 
	C109.695816,214.409012 110.168839,208.683380 113.025963,206.044571 
z"/>
</svg>