<svg version="1.1" id="Layer_1" xmlns="http://www.w3.org/2000/svg" xmlns:xlink="http://www.w3.org/1999/xlink" x="0px" y="0px"
	 width="100%" viewBox="0 0 192 208" enable-background="new 0 0 192 208" xml:space="preserve">
<path fill="#000000" opacity="1.000000" stroke="none" 
	d="
M62.010372,101.646683 
	C73.007530,101.640411 83.507057,101.581024 94.005493,101.662079 
	C97.004143,101.685234 98.693489,100.916840 98.674858,97.485329 
	C98.580750,80.154060 98.623291,62.822071 98.598045,45.490360 
	C98.596115,44.168758 98.557381,42.819031 97.705772,41.681931 
	C96.537018,41.096523 96.407860,42.261284 95.865723,42.737915 
	C94.307159,44.108150 92.661659,46.658825 90.521103,44.606739 
	C88.843025,42.998005 88.987434,40.013672 90.451263,38.115387 
	C93.048744,34.746986 95.493469,31.160988 99.009369,28.607582 
	C100.938057,27.206882 103.087311,27.082117 104.932823,28.618395 
	C108.354095,31.466393 110.242050,35.672119 113.710793,38.597897 
	C115.107025,39.775566 114.876785,42.616035 113.750175,44.242409 
	C112.374146,46.228840 110.653389,45.096348 109.107994,43.832783 
	C108.261940,43.141026 107.093872,42.843102 105.967285,42.319366 
	C104.872246,43.283607 105.439369,44.702221 105.434494,45.907501 
	C105.365700,62.905689 105.364166,79.904160 105.357178,96.902565 
	C105.356277,99.094139 105.158203,101.569725 108.371223,101.578255 
	C124.668106,101.621513 140.965164,101.598175 157.040665,101.598175 
	C157.412888,100.848930 157.631653,100.576027 157.685486,100.273758 
	C158.122284,97.821129 156.137131,94.356903 159.177551,93.096451 
	C162.598816,91.678123 163.980988,95.326958 165.484970,97.482727 
	C167.452240,100.302559 171.907455,101.352547 171.391693,106.006798 
	C171.165192,108.050674 171.090485,109.680557 169.025543,111.004364 
	C166.831116,112.411179 165.183548,114.579010 163.693710,116.839211 
	C162.743576,118.280663 161.314026,119.894112 159.132996,119.010414 
	C157.077194,118.177452 157.759323,116.194733 157.713730,114.639771 
	C157.676743,113.378609 158.031021,112.105965 158.242493,110.622932 
	C154.375717,109.872696 150.067383,111.374962 146.634995,107.767029 
	C145.572021,106.649673 142.102600,106.523811 140.363174,108.838776 
	C138.709015,111.040253 137.108521,110.824936 135.578247,108.829102 
	C134.337753,107.211235 132.371078,106.836372 131.118622,107.714073 
	C123.020523,113.389076 114.211174,108.990181 105.371986,110.402008 
	C105.371986,127.591103 105.367523,145.389954 105.380989,163.188812 
	C105.382004,164.527573 105.375710,166.041031 107.113235,166.342987 
	C109.245911,166.713638 109.476425,165.105759 109.763237,163.557541 
	C109.870979,162.975937 110.284660,162.450989 110.745407,161.525497 
	C114.330391,164.651611 115.432968,167.700424 112.203087,171.277512 
	C110.004951,173.711945 107.650459,176.006805 105.333282,178.331604 
	C103.826126,179.843704 101.866310,179.529358 100.137726,179.152405 
	C96.513916,178.362152 89.675331,169.402313 89.710655,165.669937 
	C89.723953,164.264832 89.250938,162.489517 91.237991,161.898819 
	C92.988205,161.378525 93.948296,162.285049 94.732048,163.836411 
	C95.227631,164.817352 96.194016,165.635330 97.522583,165.707047 
	C99.191925,164.268234 98.612289,162.305649 98.618141,160.559219 
	C98.667831,145.727310 98.509377,130.893036 98.734627,116.064362 
	C98.801277,111.677193 97.385857,110.135689 93.006035,110.328934 
	C86.352516,110.622482 79.674057,110.547333 73.012184,110.384186 
	C68.722885,110.279129 64.289154,110.959656 60.425011,107.904892 
	C58.640205,106.493927 57.646244,108.956009 56.084072,109.977989 
	C53.673992,107.270088 50.797062,106.584312 47.461628,108.601456 
	C52.940056,115.053802 52.920738,115.448235 46.642944,119.244293 
	C43.248554,116.202606 40.780598,112.059563 37.134117,109.019745 
	C35.798340,107.906212 35.874439,104.358932 37.145077,102.872787 
	C40.427315,99.033905 41.715435,93.587273 46.774723,91.148827 
	C52.750095,93.876877 52.927040,94.938919 47.074333,101.646919 
	C52.550571,101.646919 57.031448,101.646919 62.010372,101.646683 
z"/>
</svg>