<svg version="1.1" id="Layer_1" xmlns="http://www.w3.org/2000/svg" xmlns:xlink="http://www.w3.org/1999/xlink" x="0px" y="0px"
	 width="100%" viewBox="0 0 192 208" enable-background="new 0 0 192 208" xml:space="preserve">
<path fill="#000000" opacity="1.000000" stroke="none" 
	d="
M143.568542,155.228119 
	C142.102051,150.629196 139.474319,147.545227 135.577271,144.928833 
	C132.042572,142.555695 128.538162,139.968536 127.241631,135.009491 
	C126.453285,131.994202 123.327080,129.390778 120.818321,127.070190 
	C116.808502,123.361137 113.292595,119.277992 109.971008,114.973824 
	C107.154259,111.323830 102.559235,111.581810 99.170464,114.599792 
	C91.390068,121.528893 86.320015,130.617142 79.598000,138.375107 
	C78.192734,139.996933 76.889534,141.303162 74.857933,142.272461 
	C72.297363,143.494125 70.405731,145.413467 68.984146,148.460571 
	C67.398232,151.859940 63.761887,154.457230 60.644951,156.934174 
	C58.519699,158.623062 57.109875,160.609344 55.662609,162.772125 
	C57.235916,163.923157 58.806911,163.597427 60.237953,163.553543 
	C63.509590,163.453217 65.503342,164.022293 65.445442,168.145966 
	C65.384552,172.482971 62.936897,172.446594 59.907188,172.402817 
	C54.910477,172.330597 49.911015,172.323547 44.914604,172.405167 
	C42.108482,172.451004 40.570755,171.585068 40.634979,168.428101 
	C40.770493,161.767151 40.655857,155.101440 40.707779,148.438202 
	C40.718887,147.012970 40.439613,145.312073 42.547573,144.890488 
	C44.439789,144.512054 45.027020,145.931641 46.007149,147.087692 
	C48.806831,150.389862 46.094490,154.676758 48.311119,158.366898 
	C51.603344,155.441467 55.299210,153.171310 56.273743,148.310059 
	C56.521500,147.074173 57.614269,145.431870 59.224117,144.517654 
	C68.423149,139.293579 73.735756,130.080719 81.143379,123.022758 
	C87.195717,117.256111 89.202286,108.331886 97.629768,103.670479 
	C89.328384,98.551811 86.695000,89.589577 80.475868,83.299004 
	C74.316132,77.068512 68.980515,69.997185 62.217854,64.330078 
	C55.714066,58.879906 53.182739,49.382267 43.329136,46.989189 
	C43.329136,48.811657 43.263447,51.060520 43.346455,53.303883 
	C43.441330,55.867893 42.714191,57.352310 39.738804,57.396214 
	C36.694427,57.441132 35.573338,56.231319 35.631298,53.266193 
	C35.738720,47.770973 35.746819,42.269238 35.604053,36.775211 
	C35.497494,32.674534 38.046646,30.994326 41.389378,30.784927 
	C46.865150,30.441914 52.378418,30.735424 57.874607,30.663731 
	C60.489674,30.629620 61.322674,31.897114 61.351818,34.347225 
	C61.382648,36.938938 60.702183,38.491306 57.742496,38.406292 
	C55.981201,38.355694 53.688812,37.886204 52.845699,39.934380 
	C51.893539,42.247471 54.193958,43.419888 55.480312,44.805016 
	C64.163025,54.154385 72.927483,63.413551 81.216141,73.138145 
	C88.276299,81.421402 96.123047,89.034225 103.803871,97.135658 
	C109.109169,94.152863 112.158249,88.914810 116.262192,84.814690 
	C121.481400,79.600327 126.879494,74.374588 131.047958,68.355583 
	C134.787888,62.955379 139.892151,58.850174 143.390671,53.053371 
	C145.994858,48.738422 151.630157,45.620113 155.687805,41.600376 
	C153.800262,40.073841 151.575790,40.353531 149.464142,40.408512 
	C146.684250,40.480888 145.645065,39.268394 145.629822,36.523033 
	C145.614471,33.757774 146.675537,32.606030 149.447296,32.648563 
	C155.109894,32.735462 160.775635,32.721230 166.438522,32.640778 
	C169.117874,32.602711 170.399933,33.593163 170.354706,36.426163 
	C170.253647,42.754948 170.276505,49.086945 170.344574,55.416607 
	C170.373016,58.061714 169.452621,59.340931 166.592850,59.400909 
	C163.423828,59.467377 162.488678,57.984226 162.642410,55.145031 
	C162.740906,53.326241 162.660873,51.497784 162.660873,49.323296 
	C159.257858,50.080101 157.978027,53.061722 155.782455,54.740433 
	C148.439819,60.354557 142.377121,67.291740 136.214066,74.213989 
	C128.304993,83.097313 122.414009,93.636375 113.375763,101.533272 
	C111.033119,103.580093 111.029312,105.333061 113.285881,107.767654 
	C122.165710,117.348030 130.766876,127.185944 139.572723,136.835876 
	C146.543182,144.474487 153.661545,151.978119 160.842926,159.679688 
	C163.636642,157.328476 162.207718,154.632431 162.640518,152.355087 
	C162.979294,150.572311 161.912277,147.788467 165.079010,147.905838 
	C167.402451,147.991943 170.011383,149.234146 170.133820,151.761307 
	C170.463852,158.572891 170.506622,165.426208 170.109695,172.230652 
	C169.963745,174.732651 167.656021,176.479309 164.837753,176.492294 
	C159.508102,176.516876 154.177902,176.387024 148.847748,176.360352 
	C146.277893,176.347488 144.286011,174.924591 143.074249,173.056000 
	C141.109085,170.025620 143.119339,166.875076 146.825714,166.669678 
	C149.150665,166.540833 151.480972,166.505997 153.804886,166.363861 
	C154.264313,166.335739 154.705582,166.010391 155.386032,165.725464 
	C152.221893,161.373032 147.548462,158.913574 143.568542,155.228119 
z"/>
</svg>