<svg version="1.1" id="Layer_1" xmlns="http://www.w3.org/2000/svg" xmlns:xlink="http://www.w3.org/1999/xlink" x="0px" y="0px"
	 width="100%" viewBox="0 0 192 224" enable-background="new 0 0 192 224" xml:space="preserve">
<path fill="#000000" opacity="1.000000" stroke="none" 
	d="
M193.000000,127.583336 
	C189.411438,131.991211 185.884644,136.040512 182.207535,139.948410 
	C180.444641,141.821945 178.123825,144.745010 175.663498,142.593109 
	C173.611511,140.798355 174.041763,137.452621 176.372513,135.029648 
	C177.822601,133.522186 179.016769,131.768539 180.928253,129.369156 
	C175.082962,129.369156 169.730606,129.369827 164.378235,129.369019 
	C147.050156,129.366440 129.721634,129.427200 112.394379,129.306458 
	C108.929138,129.282288 107.259659,130.050735 107.282936,133.990295 
	C107.423721,157.815567 107.351631,181.642090 107.364510,205.468185 
	C107.365120,206.598358 107.210434,207.798538 108.099930,208.833481 
	C110.573097,208.663284 111.036903,206.486343 112.258736,205.061295 
	C113.947548,203.091629 115.756699,201.556229 118.531326,203.919342 
	C121.226753,206.214981 119.845558,207.769272 118.166443,209.652542 
	C113.828232,214.518158 109.575500,219.459976 105.144318,224.685684 
	C103.611107,225.000000 102.222221,225.000000 100.416664,225.000000 
	C100.181236,220.280228 95.755157,218.332535 93.161713,216.455429 
	C90.441757,214.486786 89.534874,212.030762 88.301643,209.671432 
	C87.259193,207.677109 86.378677,204.239044 89.215065,203.152664 
	C91.823784,202.153503 94.580772,204.068100 96.123924,206.474854 
	C96.860947,207.624344 96.448425,209.724457 98.631332,209.404587 
	C100.937164,209.066696 100.620659,207.051559 100.622787,205.435669 
	C100.650406,184.436813 100.688538,163.437790 100.615898,142.439178 
	C100.604675,139.197693 99.084076,136.240250 100.385902,132.631485 
	C101.534805,129.446655 98.090942,129.390015 95.733879,129.387680 
	C80.734673,129.372833 65.735451,129.371780 50.736229,129.370514 
	C45.569851,129.370087 40.403412,129.370605 35.237129,129.396286 
	C33.915703,129.402847 32.433437,129.261887 31.754982,130.758606 
	C31.081337,132.244720 32.077187,133.231018 33.022453,134.230164 
	C35.264420,136.599899 36.645710,139.028641 33.684994,141.929794 
	C31.927919,143.651505 30.326069,143.724808 28.483374,142.130753 
	C23.033056,137.415848 19.231424,131.115875 13.411781,126.694824 
	C11.958538,125.590836 12.261711,123.195374 14.226336,121.520355 
	C18.125837,118.195671 20.176472,112.865654 25.557661,111.082664 
	C26.025257,110.927727 26.490337,110.045525 26.538689,109.466255 
	C26.782431,106.546150 28.822628,106.548889 30.882679,106.755844 
	C33.712433,107.040108 34.430408,109.517464 35.139652,111.591415 
	C35.788902,113.489922 35.023552,114.877754 32.759842,115.706001 
	C30.618343,116.489555 29.096676,118.410164 28.011524,121.553703 
	C35.779743,121.553703 43.274902,122.178551 50.532082,121.140160 
	C52.490139,120.860001 55.324234,120.091309 57.652935,119.349922 
	C59.378178,118.800659 60.678703,121.889328 63.481560,121.788391 
	C73.634537,121.422729 83.808853,121.609612 93.974663,121.668434 
	C96.561928,121.683403 97.880417,121.070114 98.975220,118.203186 
	C101.030907,112.820007 101.367271,107.917931 99.210442,102.497810 
	C97.864609,99.115723 98.047150,95.139084 99.091270,91.664223 
	C101.834076,82.536018 101.114105,73.438782 99.490479,64.327591 
	C99.259453,63.031113 99.611649,62.315220 99.922859,61.229019 
	C101.121521,57.045311 101.495560,52.622715 99.745377,48.593525 
	C98.696953,46.179924 98.426460,44.413933 99.869377,42.178417 
	C100.984985,40.449986 101.493713,38.158253 99.351524,36.889866 
	C97.206566,35.619846 96.964218,37.969341 95.905022,39.142071 
	C94.453835,40.748814 92.434975,41.523151 91.703903,44.115898 
	C91.212036,45.860306 88.647697,45.797646 88.052940,43.653614 
	C87.359154,41.152573 87.085052,38.417645 88.484421,35.903896 
	C91.708298,30.112692 97.165024,26.272787 101.316162,21.287361 
	C102.054344,20.400822 104.074478,20.358589 104.438538,21.340580 
	C105.416626,23.978863 108.538536,24.972836 109.335762,26.497419 
	C111.861832,31.328192 116.369743,34.357559 119.064247,38.939167 
	C120.583626,41.522636 119.923851,42.882664 118.118187,44.403721 
	C115.827080,46.333725 114.136841,44.889454 112.629387,43.210144 
	C111.351570,41.786655 110.886383,39.605793 108.602295,38.998524 
	C106.632530,40.225220 107.393288,42.250443 107.389381,43.914703 
	C107.332680,68.080002 107.440140,92.246132 107.264656,116.410294 
	C107.233627,120.683510 108.752724,121.753578 112.775833,121.721375 
	C132.940170,121.559990 153.106537,121.662315 173.272095,121.621864 
	C175.014786,121.618370 177.202942,122.311577 178.236496,120.247429 
	C179.340088,118.043404 177.212814,116.879448 176.027832,115.710808 
	C174.151077,113.859940 174.794708,111.696419 174.730942,109.610146 
	C174.695404,108.448219 174.837646,107.173401 176.348999,106.911888 
	C177.541016,106.705635 178.354736,107.164055 179.353882,108.060127 
	C184.245407,112.447052 187.943558,117.882927 192.740784,122.783127 
	C193.000000,124.388893 193.000000,125.777779 193.000000,127.583336 
z"/>
</svg>