<svg version="1.1" id="Layer_1" xmlns="http://www.w3.org/2000/svg" xmlns:xlink="http://www.w3.org/1999/xlink" x="0px" y="0px"
	 width="100%" viewBox="0 0 192 224" enable-background="new 0 0 192 224" xml:space="preserve">
<path fill="#000000" opacity="1.000000" stroke="none" 
	d="
M193.000000,128.545898 
	C189.939423,130.315186 188.719543,133.435699 186.541153,135.617432 
	C185.497696,136.662476 184.672714,137.921906 183.684433,139.026672 
	C182.028870,140.877350 179.845993,142.422852 177.645416,140.729202 
	C175.821991,139.325836 175.989822,136.186996 177.163803,134.739105 
	C178.887680,132.613052 177.668289,128.993195 180.951767,127.375633 
	C177.992691,127.375633 175.033600,127.375946 172.074524,127.375572 
	C152.579178,127.373093 133.082458,127.495239 113.589516,127.277542 
	C108.891876,127.225075 107.191757,128.499969 107.246941,133.439072 
	C107.485199,154.764633 107.348785,176.094406 107.341194,197.422638 
	C107.340660,198.921341 107.323608,200.422791 107.230453,201.917740 
	C107.166176,202.949203 106.863472,203.935043 105.614441,204.094437 
	C104.609291,204.222702 103.686119,204.127151 102.941681,203.216110 
	C101.180305,201.060577 100.599716,198.682877 100.612701,195.872467 
	C100.708916,175.044571 100.553680,154.215042 100.741348,133.388412 
	C100.781624,128.919174 99.606628,127.227989 94.860786,127.281258 
	C74.868126,127.505646 54.871433,127.367599 34.876221,127.376328 
	C33.730869,127.376831 32.585579,127.502983 31.443239,127.570480 
	C30.631962,129.891403 31.983410,131.186188 33.270603,132.436890 
	C35.107666,134.221878 36.126743,136.305588 34.767620,138.651993 
	C33.994324,139.987030 32.852077,141.539825 30.834242,141.192612 
	C28.459738,140.784027 27.052389,139.281479 26.653082,136.933716 
	C26.390385,135.389175 25.415459,134.906601 24.067987,134.327057 
	C16.562613,131.099075 13.396551,123.008568 18.025324,116.316986 
	C20.944445,112.096939 25.805475,109.145630 30.052521,105.968910 
	C31.172724,105.131012 33.626888,105.057442 34.646397,106.571915 
	C35.880474,108.405144 35.733906,110.758995 34.731777,112.753929 
	C34.085670,114.040115 32.927853,115.069260 32.078007,116.116699 
	C32.893688,118.774185 34.482327,119.914612 37.005898,119.609573 
	C46.735981,118.433426 56.449730,120.095078 66.192162,119.726662 
	C76.009171,119.355431 85.851578,119.583893 95.681725,119.673653 
	C98.805168,119.702171 100.706963,119.086197 100.693108,115.317886 
	C100.598167,89.502174 100.643295,63.685947 100.643295,37.462471 
	C97.954857,38.879784 96.089714,40.936935 93.395943,41.684170 
	C91.622078,42.176231 89.731544,44.614510 88.288651,42.154472 
	C87.090706,40.112038 87.349472,37.676540 89.098793,35.253826 
	C92.316208,30.797916 96.454773,27.305014 100.137085,23.343906 
	C101.362450,22.025764 102.447243,20.576958 103.787209,18.957113 
	C109.494965,24.026794 114.444061,29.780508 119.244041,35.662201 
	C121.009880,37.825989 121.108711,40.791351 119.376091,42.483490 
	C117.454979,44.359711 114.804207,43.525681 112.806381,41.430843 
	C111.461227,40.020367 109.885765,38.829525 108.187347,37.342579 
	C106.753311,38.414356 107.386917,40.376156 107.383621,42.026413 
	C107.335670,66.020584 107.441879,90.015556 107.265549,114.008522 
	C107.233437,118.378189 108.575279,119.773743 112.969925,119.730019 
	C133.129822,119.529442 153.292786,119.646996 173.454529,119.602448 
	C175.186462,119.598618 177.374954,120.277702 178.305679,118.078911 
	C179.153198,116.076675 177.164001,115.111748 176.150055,113.949471 
	C173.964828,111.444595 174.126907,109.232674 176.477097,107.032547 
	C178.731995,104.921600 180.942642,105.096504 182.920242,107.343811 
	C186.164566,111.030632 189.315903,114.799294 192.753220,118.766724 
	C193.000000,122.030594 193.000000,125.061188 193.000000,128.545898 
z"/>
</svg>