<svg version="1.1" id="Layer_1" xmlns="http://www.w3.org/2000/svg" xmlns:xlink="http://www.w3.org/1999/xlink" x="0px" y="0px"
	 width="100%" viewBox="0 0 256 272" enable-background="new 0 0 256 272" xml:space="preserve">
<path fill="#000000" opacity="1.000000" stroke="none" 
	d="
M96.473938,146.884613 
	C92.557053,142.597794 91.471367,135.041611 93.737442,131.864853 
	C96.846428,127.506432 101.465050,127.917366 105.372498,129.007996 
	C108.864151,129.982559 111.524849,133.257629 112.244125,137.203751 
	C113.114853,141.980713 110.499672,147.618805 106.499245,149.837128 
	C105.012894,150.661316 102.970230,150.934280 102.031624,149.265030 
	C100.740036,146.968048 98.614952,147.640472 96.473938,146.884613 
M103.183784,136.423676 
	C102.123665,137.429718 101.063553,138.435760 99.874908,139.563766 
	C102.234970,142.089249 104.167625,141.984482 106.175789,139.485458 
	C105.226570,138.338089 103.337753,138.538681 103.183784,136.423676 
z"/>
<path fill="#000000" opacity="1.000000" stroke="none" 
	d="
M166.507767,181.278229 
	C173.734161,177.524002 182.945572,179.914490 181.366974,189.786957 
	C181.237350,190.597702 181.459122,191.464951 181.327255,192.274963 
	C181.003616,194.263275 182.421356,197.503082 179.780716,197.914444 
	C176.234711,198.466827 173.159195,202.347900 168.751129,198.777573 
	C163.000076,194.119492 161.404694,186.252518 166.507767,181.278229 
M173.145874,191.368256 
	C175.194412,190.034836 175.130539,188.401703 173.528427,186.876587 
	C172.776245,186.160568 171.415451,186.207016 170.905121,187.220123 
	C169.994598,189.027634 169.909592,190.808365 173.145874,191.368256 
z"/>
<path fill="#000000" opacity="1.000000" stroke="none" 
	d="
M83.498550,179.797699 
	C89.513969,185.611206 90.207809,192.381897 85.417282,196.771194 
	C83.169426,198.830795 80.139626,200.760391 77.193512,199.614929 
	C73.739838,198.272141 71.486549,195.246521 71.633995,191.090805 
	C71.675247,189.928146 71.624931,188.762527 71.647964,187.598892 
	C71.772835,181.291412 73.399994,179.658066 79.573776,179.648895 
	C80.737251,179.647171 81.900803,179.697128 83.498550,179.797699 
M80.233078,186.534943 
	C77.533310,186.384628 77.199844,188.018616 77.698349,190.076691 
	C77.962502,191.167236 78.978790,191.826263 79.986298,191.337219 
	C82.135323,190.294067 81.940521,188.595245 80.233078,186.534943 
z"/>
<path fill="#000000" opacity="1.000000" stroke="none" 
	d="
M132.275208,184.993729 
	C132.774414,188.399979 134.617249,190.913834 132.680908,194.550476 
	C130.339737,198.947433 128.537262,201.010406 123.492462,200.321472 
	C118.837418,199.685806 117.039230,196.892349 117.633331,192.337875 
	C118.034309,189.263947 116.622879,185.892303 118.537018,183.111176 
	C122.212074,177.771530 127.333046,178.400299 132.275208,184.993729 
M125.778267,192.490753 
	C129.129196,189.569290 125.438950,188.715790 124.006645,187.056381 
	C123.411942,188.976868 123.212570,190.883987 123.469505,192.727509 
	C123.713516,194.478317 124.653358,194.505325 125.778267,192.490753 
z"/>
<path fill="#000000" opacity="1.000000" stroke="none" 
	d="
M144.339127,147.322083 
	C138.954849,143.752365 137.660599,133.796265 141.903229,129.926697 
	C144.782852,127.300301 148.773102,128.209122 151.817322,129.145142 
	C153.799515,129.754623 156.842621,131.701416 156.356339,135.243027 
	C155.864944,138.822067 157.445251,142.615662 153.709473,145.752228 
	C150.733978,148.250443 147.738388,146.836288 144.339127,147.322083 
M145.788422,139.711349 
	C147.678604,141.036606 149.491150,141.239670 150.425720,138.757233 
	C150.963730,137.328094 150.674698,135.713287 148.650345,135.499649 
	C146.020706,135.222137 145.163727,136.662979 145.788422,139.711349 
z"/>
<path fill="#000000" opacity="1.000000" stroke="none" 
	d="
M132.152191,78.643738 
	C135.485306,82.925995 134.547043,87.546089 133.945526,91.852608 
	C133.721283,93.458015 132.825607,96.417336 130.061569,96.318932 
	C127.307449,96.220879 124.143028,97.602417 122.118584,93.999481 
	C120.377785,90.901375 115.536430,88.693970 118.406982,84.446663 
	C119.746704,82.464401 120.520103,80.513702 121.216530,78.196701 
	C124.838440,77.517448 128.395599,77.076912 132.152191,78.643738 
M125.399864,84.775238 
	C124.463600,86.513710 124.463600,86.513710 128.391479,88.821259 
	C128.601135,86.675079 129.306122,84.583511 125.399864,84.775238 
z"/>
</svg>