<svg version="1.1" id="Layer_1" xmlns="http://www.w3.org/2000/svg" xmlns:xlink="http://www.w3.org/1999/xlink" x="0px" y="0px"
	 width="100%" viewBox="0 0 256 288" enable-background="new 0 0 256 288" xml:space="preserve">
<path fill="#000000" opacity="1.000000" stroke="none" 
	d="
M59.487576,239.089996 
	C70.032860,243.403107 71.338921,255.162735 70.114227,263.550934 
	C69.885757,265.115845 68.443962,266.782684 67.115875,267.844116 
	C65.005753,269.530518 64.245178,271.723328 63.906624,274.298187 
	C61.195881,274.481140 58.631744,274.296326 56.254787,274.877258 
	C46.569351,277.244446 40.977898,271.407135 37.299831,264.257874 
	C35.271198,260.314667 35.479702,254.569595 37.607433,250.227005 
	C38.677956,248.042114 39.214626,245.619492 40.553516,243.532974 
	C43.823753,238.436646 52.795872,236.081314 59.487576,239.089996 
M49.785835,263.969788 
	C50.756302,264.169250 51.718967,264.481201 52.698559,264.549164 
	C57.612137,264.890045 60.172569,262.933563 60.617805,258.581512 
	C61.097031,253.897232 58.786228,251.425201 53.976639,250.506165 
	C49.909431,249.729019 47.436104,252.014984 45.915855,254.778275 
	C43.939796,258.370117 46.161709,261.317474 49.785835,263.969788 
z"/>
<path fill="#000000" opacity="1.000000" stroke="none" 
	d="
M221.259064,239.370117 
	C220.315521,234.990234 221.497467,231.683273 224.871765,229.480408 
	C226.873291,228.173721 228.108826,226.709961 227.598190,224.197464 
	C230.890411,223.250320 234.106903,223.904648 236.649384,221.198669 
	C238.034744,219.724182 241.543121,219.850677 243.254898,221.201126 
	C245.186646,222.725082 247.237900,223.179016 249.312881,224.061478 
	C253.052475,225.651855 253.626465,230.123627 255.070923,233.212006 
	C258.007385,239.490356 252.395294,252.751038 246.601120,256.118317 
	C242.986099,258.219177 230.076538,255.635162 227.417984,252.386658 
	C224.365295,248.656631 220.232620,245.489624 221.259064,239.370117 
M244.117813,238.102966 
	C243.201233,235.777985 244.325607,231.827911 239.729294,232.412262 
	C237.551270,232.689148 234.674026,231.854111 233.693344,234.674026 
	C232.451736,238.244186 232.005997,242.277054 234.105591,245.442673 
	C235.455124,247.477402 238.956177,247.161224 241.123489,246.378586 
	C244.499954,245.159302 243.529343,241.288605 244.117813,238.102966 
z"/>
<path fill="#000000" opacity="1.000000" stroke="none" 
	d="
M157.353729,237.637482 
	C159.775742,240.773285 160.462311,244.337479 161.868027,247.525604 
	C163.666458,251.604385 161.235214,255.788971 159.361481,258.619385 
	C157.271423,261.776581 154.747116,266.561951 149.102341,265.521210 
	C147.969162,265.312286 146.937302,265.795502 146.206665,267.002777 
	C144.875214,269.202728 141.700455,268.975983 141.021103,267.930786 
	C139.255707,265.214691 136.222656,265.326294 134.011566,263.723724 
	C126.590111,258.344757 124.758247,250.817596 128.727005,242.371460 
	C130.277313,239.072128 131.536560,235.937836 134.324738,233.349487 
	C137.334030,230.555862 141.901062,232.296783 144.788925,228.965454 
	C145.687180,227.929291 147.712982,230.753387 148.911911,231.757095 
	C151.537827,233.955444 155.822250,233.517029 157.353729,237.637482 
M140.226944,241.569305 
	C138.480927,241.521103 138.342407,243.229675 137.491028,244.132141 
	C134.185822,247.635574 134.509552,250.642639 138.446915,253.971161 
	C141.550613,256.594971 146.576935,256.172394 148.941467,253.318146 
	C151.134033,250.671463 151.252335,247.829025 149.910858,244.989487 
	C148.087891,241.130768 144.505844,241.131775 140.226944,241.569305 
z"/>
<path fill="#000000" opacity="1.000000" stroke="none" 
	d="
M104.934685,166.602905 
	C99.826286,170.613876 94.170219,170.523376 88.425980,170.461090 
	C85.433121,170.428650 82.924805,169.955948 81.083382,167.421906 
	C76.914932,161.685593 72.668671,155.277618 75.095314,148.326538 
	C76.629135,143.932938 77.138786,138.148697 84.137848,135.729614 
	C88.730034,134.142426 92.937798,134.371719 97.288170,133.618225 
	C100.056717,133.138718 100.209824,135.837555 101.699448,136.879822 
	C111.094879,143.453705 107.876228,153.281082 108.330757,162.179993 
	C108.452713,164.567627 105.638268,164.502670 104.934685,166.602905 
M99.636681,153.210968 
	C100.400032,148.939011 98.729477,145.523331 95.031822,143.764328 
	C90.989357,141.841278 88.823418,145.430099 86.448860,147.854996 
	C86.106201,148.204910 85.892548,148.679367 85.557945,149.039230 
	C83.427361,151.330734 85.436279,159.573456 88.370674,160.536453 
	C93.307404,162.156570 98.043999,159.419037 99.636681,153.210968 
z"/>
<path fill="#000000" opacity="1.000000" stroke="none" 
	d="
M138.114059,59.384048 
	C130.914520,63.922371 124.376785,62.722099 119.315849,56.178753 
	C113.687714,48.902092 114.124779,41.367115 118.083946,33.577953 
	C118.515312,32.729305 118.460449,31.646833 118.738113,30.704338 
	C119.714905,27.388727 121.497971,25.271263 125.423691,25.558439 
	C127.769508,25.730042 130.503998,26.396881 131.958862,23.374088 
	C132.362015,22.536432 133.943497,22.473892 134.107162,22.916533 
	C135.244629,25.992523 139.008041,24.963913 140.679794,27.476494 
	C142.233734,29.812008 145.960876,30.885954 146.150299,33.985168 
	C146.513763,39.931557 146.920120,46.062271 145.825012,51.835060 
	C145.243652,54.899582 141.493423,57.313683 138.114059,59.384048 
M125.600876,48.909760 
	C129.864883,50.512669 133.765884,50.080967 136.503769,46.186970 
	C139.056061,42.556953 137.606659,39.447510 134.495346,36.837566 
	C131.933960,34.688923 129.805573,34.969418 127.170120,37.151150 
	C123.164658,40.467033 124.146835,44.336643 125.600876,48.909760 
z"/>
<path fill="#000000" opacity="1.000000" stroke="none" 
	d="
M169.592529,154.576782 
	C165.646942,147.382721 167.035736,134.541031 172.230957,129.644592 
	C177.559540,124.622444 181.464066,125.390022 188.854507,126.888428 
	C195.780289,128.292633 197.559555,132.804672 198.013168,137.526672 
	C198.497833,142.571823 200.487534,148.377274 196.219040,153.154770 
	C195.628372,153.815872 195.718979,155.039871 195.310135,155.917526 
	C193.887756,158.970810 192.069321,161.496155 188.148224,161.394669 
	C184.328827,161.295822 180.503983,161.421631 176.683487,161.347519 
	C172.499878,161.266357 170.197250,159.008987 169.592529,154.576782 
M183.368073,135.582748 
	C180.201706,135.420074 180.491562,138.920883 178.702911,140.022308 
	C175.262772,142.140686 175.561951,145.396255 177.097748,147.715210 
	C178.518173,149.859940 180.831558,152.935913 184.340790,151.431122 
	C187.164841,150.220154 189.125641,148.217361 189.750809,144.616608 
	C190.681351,139.256927 187.743271,137.467850 183.368073,135.582748 
z"/>
</svg>