<svg version="1.1" id="Layer_1" xmlns="http://www.w3.org/2000/svg" xmlns:xlink="http://www.w3.org/1999/xlink" x="0px" y="0px"
	 width="100%" viewBox="0 0 240 224" enable-background="new 0 0 240 224" xml:space="preserve">
<path fill="#000000" opacity="1.000000" stroke="none" 
	d="
M117.744110,62.607346 
	C120.795929,61.145863 123.041443,59.162163 126.584869,59.428459 
	C129.471786,59.645412 131.230408,61.799500 133.079041,62.932991 
	C139.864838,67.093712 146.956375,69.965324 154.635361,71.663345 
	C154.957031,71.734467 155.438431,71.739677 155.563889,71.946442 
	C159.533508,78.487488 168.446548,76.838478 172.983337,82.453278 
	C173.356277,82.914848 174.136551,83.237793 174.751785,83.281105 
	C177.941742,83.505699 180.561432,84.489021 183.463348,86.273041 
	C190.793915,90.779694 199.695847,92.363960 206.499481,98.112358 
	C207.899063,99.294868 210.102814,98.369164 211.687988,100.391907 
	C214.383514,103.831512 212.656601,107.231255 210.310654,107.719292 
	C204.274673,108.974968 200.225220,113.610497 194.106857,115.190781 
	C184.458282,117.682877 175.097183,122.297516 166.947983,128.607635 
	C160.139221,127.538223 157.062469,134.414322 151.155807,136.049667 
	C146.186157,137.425568 141.035995,138.959595 136.056778,140.693436 
	C134.747971,141.149185 134.371811,142.204041 133.673935,143.075760 
	C130.436172,147.120117 126.714569,147.400558 122.331703,144.675568 
	C118.533043,142.313797 114.223976,140.789047 110.315071,138.584793 
	C104.214081,135.144409 97.465233,132.864014 91.125740,130.333557 
	C82.520775,126.898834 75.260063,120.898926 66.653580,118.328918 
	C60.266373,116.421623 55.250191,111.795959 48.373169,110.916298 
	C45.304813,110.523804 42.704941,106.845047 41.640682,102.636024 
	C46.916927,101.917587 49.300266,97.153358 53.472679,94.658508 
	C57.137440,92.467201 61.247272,92.325127 64.904808,90.055153 
	C69.373428,87.281799 74.447945,84.882431 78.980827,82.180672 
	C81.984726,80.390251 85.215622,80.753601 88.263947,78.706177 
	C97.424019,72.553749 107.582886,67.888382 117.744110,62.607346 
M91.804077,87.237106 
	C89.886772,87.664085 87.529259,86.672920 86.047775,88.276413 
	C81.794167,92.880310 75.415817,93.274269 70.311913,96.252632 
	C68.379776,97.380135 66.154411,99.612366 63.443501,99.315483 
	C59.837227,98.920555 57.951157,100.678780 56.875294,103.734360 
	C60.921711,110.736450 68.944130,110.846802 75.212105,113.125793 
	C80.963036,115.216782 85.991386,118.466103 91.267990,121.087746 
	C96.636658,123.755135 102.173950,126.064964 107.653664,128.389984 
	C109.887947,129.337982 111.127274,132.046356 114.060753,131.633728 
	C117.951286,131.086517 120.658577,133.954758 123.149117,136.019318 
	C125.914040,138.311325 128.647766,138.387604 130.662933,136.640259 
	C135.430389,132.506378 141.769653,132.054260 146.888535,128.793259 
	C151.551056,125.823006 156.624985,123.459717 161.644760,121.099327 
	C167.452896,118.368233 171.921371,112.431107 179.396851,113.594994 
	C180.367691,113.746147 181.566559,113.657845 182.116135,112.702805 
	C185.772018,106.350006 193.593781,107.541763 198.650696,103.203621 
	C194.609756,103.645439 192.561569,100.058220 189.438828,98.519035 
	C186.557220,97.098709 183.326324,97.327721 180.715668,95.472862 
	C172.169632,89.400955 161.955307,86.611664 152.897873,81.473495 
	C146.733627,77.976608 139.616776,76.086571 133.658768,72.319031 
	C127.742836,68.578110 123.148483,68.900146 116.969803,71.908081 
	C112.473022,74.097221 108.259834,76.881859 103.785469,79.096001 
	C99.838097,81.049355 94.930870,82.520790 91.804077,87.237106 
z"/>
</svg>