<svg version="1.1" id="Layer_1" xmlns="http://www.w3.org/2000/svg" xmlns:xlink="http://www.w3.org/1999/xlink" x="0px" y="0px"
	 width="100%" viewBox="0 0 192 192" enable-background="new 0 0 192 192" xml:space="preserve">
<path fill="#000000" opacity="1.000000" stroke="none" 
	d="
M121.938583,165.186951 
	C106.982964,170.753403 92.084976,170.554535 77.591324,165.998947 
	C52.229336,158.027252 36.341156,139.952347 30.336367,114.648842 
	C26.720776,99.413162 26.544792,83.078232 34.624390,68.542778 
	C39.962223,58.939846 45.536804,49.491055 54.883564,42.521698 
	C61.204212,37.808735 67.462624,33.480312 74.720032,30.519653 
	C91.254494,23.774433 107.739220,24.370327 124.209442,30.750721 
	C141.284866,37.365566 153.007248,50.152897 162.333649,65.136978 
	C166.024307,71.066521 167.624893,78.300888 168.894424,85.383873 
	C171.806732,101.632332 169.932678,117.426506 161.753952,131.567123 
	C152.746582,147.140411 140.842712,160.241394 121.938583,165.186951 
M149.135559,56.382378 
	C142.528564,48.008873 134.439346,41.156414 124.564690,37.437450 
	C102.795967,29.238972 81.702179,30.095261 62.142151,44.290173 
	C43.882580,57.541321 33.920231,75.094788 34.055729,97.837967 
	C34.092915,104.079376 33.907207,110.814819 36.077377,116.456711 
	C42.134151,132.202744 51.342525,145.745468 66.471443,154.676193 
	C82.865967,164.354019 100.216873,165.117279 117.842636,160.447815 
	C132.327972,156.610336 144.405762,148.313736 152.367218,135.271912 
	C156.396118,128.672119 161.344421,122.309799 162.538635,114.355911 
	C163.713242,106.532570 164.543289,98.675430 163.712158,90.692696 
	C162.387894,77.973747 158.010117,66.624626 149.135559,56.382378 
z"/>
</svg>