<svg version="1.1" id="Layer_1" xmlns="http://www.w3.org/2000/svg" xmlns:xlink="http://www.w3.org/1999/xlink" x="0px" y="0px"
	 width="100%" viewBox="0 0 207 210" enable-background="new 0 0 207 210" xml:space="preserve">
<path fill="#FDFDFD" opacity="1.000000" stroke="none" 
	d="
M208.000000,80.000000 
	C208.000000,124.000000 208.000000,167.500000 208.000000,211.000000 
	C139.000000,211.000000 70.000000,211.000000 1.000000,211.000000 
	C1.000000,141.000000 1.000000,71.000000 1.000000,1.000000 
	C70.000000,1.000000 139.000000,1.000000 208.000000,1.000000 
	C208.000000,27.166666 208.000000,53.333332 208.000000,80.000000 
M99.816628,12.182479 
	C98.880005,12.504498 97.933868,13.130893 97.008209,13.101982 
	C86.461052,12.772561 76.992508,16.846193 67.178299,19.852514 
	C54.358906,23.779394 43.930988,31.820034 35.549984,41.116714 
	C23.969173,53.962795 14.637080,68.759674 11.224125,86.614540 
	C7.734920,104.868309 8.270787,122.768425 13.225095,140.536240 
	C16.564816,152.513641 23.993670,162.245056 31.045218,172.302368 
	C40.961197,186.445099 54.878578,194.614075 70.159935,201.023132 
	C75.039803,203.069763 80.407272,204.579971 85.656570,204.989044 
	C96.541039,205.837250 107.508850,206.229675 118.416115,205.910736 
	C123.814270,205.752899 129.407516,204.235062 134.464142,202.211929 
	C143.209747,198.712860 151.853561,195.221741 159.668182,189.323120 
	C168.644882,182.547287 176.962799,175.345093 182.907074,165.974136 
	C187.395889,158.897675 190.471069,150.907318 194.001648,143.243637 
	C202.392822,125.029289 203.790909,106.005898 198.205643,86.980179 
	C194.857910,75.576416 190.520752,64.481544 183.765518,54.163151 
	C174.603500,40.168484 162.756989,29.692333 148.120712,22.691195 
	C133.325211,15.613879 117.403481,11.788968 99.816628,12.182479 
z"/>
<path fill="#0A0A0A" opacity="1.000000" stroke="none" 
	d="
M100.282928,12.183554 
	C117.403481,11.788968 133.325211,15.613879 148.120712,22.691195 
	C162.756989,29.692333 174.603500,40.168484 183.765518,54.163151 
	C190.520752,64.481544 194.857910,75.576416 198.205643,86.980179 
	C203.790909,106.005898 202.392822,125.029289 194.001648,143.243637 
	C190.471069,150.907318 187.395889,158.897675 182.907074,165.974136 
	C176.962799,175.345093 168.644882,182.547287 159.668182,189.323120 
	C151.853561,195.221741 143.209747,198.712860 134.464142,202.211929 
	C129.407516,204.235062 123.814270,205.752899 118.416115,205.910736 
	C107.508850,206.229675 96.541039,205.837250 85.656570,204.989044 
	C80.407272,204.579971 75.039803,203.069763 70.159935,201.023132 
	C54.878578,194.614075 40.961197,186.445099 31.045218,172.302368 
	C23.993670,162.245056 16.564816,152.513641 13.225095,140.536240 
	C8.270787,122.768425 7.734920,104.868309 11.224125,86.614540 
	C14.637080,68.759674 23.969173,53.962795 35.549984,41.116714 
	C43.930988,31.820034 54.358906,23.779394 67.178299,19.852514 
	C76.992508,16.846193 86.461052,12.772561 97.008209,13.101982 
	C97.933868,13.130893 98.880005,12.504498 100.282928,12.183554 
M174.241364,52.297676 
	C169.103958,47.170586 164.273193,41.682396 158.758575,36.999523 
	C150.100250,29.647112 140.031631,24.496655 128.940552,22.093618 
	C118.099838,19.744823 107.201096,18.661732 95.855812,19.715357 
	C83.422455,20.870033 71.500381,22.692406 61.096008,29.766018 
	C53.285400,35.076214 44.946312,40.239815 38.800247,47.197945 
	C32.067841,54.819889 26.878819,64.074646 22.280537,73.250900 
	C14.795774,88.187386 12.360129,104.189751 15.109633,120.880898 
	C18.670094,142.495010 27.190439,161.432617 43.429752,176.666946 
	C53.630997,186.236908 65.054558,193.227295 78.625595,196.887344 
	C104.597839,203.891922 129.172058,200.843994 152.203201,186.936523 
	C168.345428,177.188950 179.640961,163.050598 186.800644,145.791321 
	C193.842026,128.817184 194.932877,111.226860 192.230194,92.963753 
	C189.981033,77.765228 183.766785,64.804237 174.241364,52.297676 
z"/>
<path fill="#FDFDFD" opacity="1.000000" stroke="none" 
	d="
M174.497314,52.553207 
	C183.766785,64.804237 189.981033,77.765228 192.230194,92.963753 
	C194.932877,111.226860 193.842026,128.817184 186.800644,145.791321 
	C179.640961,163.050598 168.345428,177.188950 152.203201,186.936523 
	C129.172058,200.843994 104.597839,203.891922 78.625595,196.887344 
	C65.054558,193.227295 53.630997,186.236908 43.429752,176.666946 
	C27.190439,161.432617 18.670094,142.495010 15.109633,120.880898 
	C12.360129,104.189751 14.795774,88.187386 22.280537,73.250900 
	C26.878819,64.074646 32.067841,54.819889 38.800247,47.197945 
	C44.946312,40.239815 53.285400,35.076214 61.096008,29.766018 
	C71.500381,22.692406 83.422455,20.870033 95.855812,19.715357 
	C107.201096,18.661732 118.099838,19.744823 128.940552,22.093618 
	C140.031631,24.496655 150.100250,29.647112 158.758575,36.999523 
	C164.273193,41.682396 169.103958,47.170586 174.497314,52.553207 
z"/>
</svg>