<svg version="1.1" id="Layer_1" xmlns="http://www.w3.org/2000/svg" xmlns:xlink="http://www.w3.org/1999/xlink" x="0px" y="0px"
	 width="100%" viewBox="0 0 240 272" enable-background="new 0 0 240 272" xml:space="preserve">
<path fill="#000000" opacity="1.000000" stroke="none" 
	d="
M101.449875,205.561188 
	C99.101227,211.690521 94.468834,215.594711 90.396484,219.948517 
	C87.633698,222.902222 85.008507,225.985046 82.231720,228.925049 
	C80.381218,230.884323 79.672157,230.219635 78.627892,227.798370 
	C74.850471,219.039948 77.009354,209.629898 75.285080,200.841888 
	C73.659096,192.554794 74.388229,184.403168 73.534798,176.252167 
	C72.859077,169.798508 74.100479,163.352325 76.272942,157.928070 
	C77.868103,153.945251 77.848793,149.344315 80.752502,145.468323 
	C82.758873,142.790161 83.320671,138.374619 84.320419,134.770340 
	C85.615891,130.099899 86.730797,125.640907 88.991165,121.204063 
	C90.541824,118.160309 90.843506,114.315269 92.426941,110.880569 
	C94.200356,107.033745 96.047310,104.401909 100.531532,104.644142 
	C105.036713,104.887520 108.220573,100.311989 112.970497,101.300812 
	C113.690109,101.450615 114.552116,100.399864 114.451317,99.556778 
	C113.866203,94.663422 117.357712,90.513535 116.764984,85.538109 
	C116.390938,82.398193 116.353088,79.316216 118.943359,76.305496 
	C120.873116,74.062500 119.425034,70.181419 119.669304,67.041817 
	C119.790680,65.481750 119.172501,63.426716 121.431938,62.901173 
	C123.606575,62.395344 125.739532,62.406445 126.907143,64.959061 
	C128.845901,69.197578 134.039139,70.889389 135.095871,76.218361 
	C135.465271,78.081238 138.428482,80.407036 140.105927,82.190628 
	C145.350281,87.766815 146.705582,96.146049 153.489716,100.275299 
	C156.635803,102.190201 156.947464,105.603783 157.607529,108.237457 
	C158.844696,113.173767 158.749588,118.337944 161.223160,123.138596 
	C164.158676,128.835785 163.837234,135.544296 165.926331,141.570389 
	C166.244583,142.488373 166.315735,143.528229 166.321045,144.512665 
	C166.356262,151.052856 169.446228,156.602478 171.607040,162.530563 
	C172.933533,166.169662 173.626266,170.087250 175.127182,173.817368 
	C176.154205,176.369705 175.298309,179.184647 172.646011,181.664337 
	C167.209381,186.747177 162.710434,192.948517 155.910080,196.355133 
	C151.628128,198.500168 146.398804,198.444107 142.449463,196.453018 
	C138.480408,194.452011 134.051865,193.825256 130.250107,191.452805 
	C128.850449,190.579361 127.674538,190.099869 127.727951,188.373108 
	C127.873070,183.681671 124.314354,179.872910 125.079010,175.084824 
	C120.845749,182.327255 118.701859,190.955841 112.026215,195.747437 
	C108.056404,198.596863 104.494217,201.438461 101.449875,205.561188 
M126.268478,103.633232 
	C127.798912,111.204956 134.717911,115.472740 137.762543,122.317947 
	C139.193970,125.536186 140.200287,129.116791 138.823639,130.893967 
	C134.111526,136.977051 135.653809,145.232559 131.171631,151.017960 
	C127.640610,155.575653 128.824722,160.572601 128.198898,165.487534 
	C127.768921,168.864365 130.915512,170.351532 131.145538,172.901123 
	C131.707214,179.126343 133.829407,184.389435 139.539612,187.240845 
	C143.447418,189.192230 147.574280,192.447144 152.296112,189.714050 
	C155.857071,187.652893 159.127487,185.031189 162.307907,182.394470 
	C164.053284,180.947433 165.246948,179.007935 165.669342,176.538406 
	C166.769440,170.106705 165.529556,163.259720 162.888535,158.311234 
	C160.011932,152.921310 160.452713,147.176468 158.310806,141.797241 
	C155.404510,134.498367 155.432266,125.921532 153.155502,117.914658 
	C151.136703,110.815002 147.657654,105.205505 143.491409,99.611214 
	C143.017914,98.975426 142.134537,98.521820 141.920883,97.834610 
	C139.759857,90.883781 133.753220,86.921021 129.308533,81.801674 
	C127.098595,79.256294 123.778145,80.850273 123.439560,84.350685 
	C123.168182,87.156197 123.207832,90.016144 123.393211,92.833267 
	C123.525528,94.844093 122.874413,96.279572 121.141518,97.305313 
	C122.908020,99.279991 124.518227,101.079964 126.268478,103.633232 
M101.340866,112.889496 
	C97.768593,114.429016 96.708916,116.968903 95.810524,120.928719 
	C95.037079,124.337769 94.369270,128.286652 92.819824,131.352814 
	C90.454094,136.034317 87.979393,140.319763 86.856361,145.684479 
	C86.167328,148.976044 86.381035,152.707703 84.827637,155.635818 
	C81.502327,161.904007 79.028198,168.217545 79.307457,175.464981 
	C79.512413,180.784256 79.319855,186.117996 79.370575,191.444672 
	C79.383080,192.757370 79.157150,194.682388 79.889900,195.273621 
	C83.240921,197.977463 82.165329,201.569534 82.316193,204.919327 
	C82.413483,207.079544 82.343903,209.246872 82.374344,211.410660 
	C82.391075,212.599396 82.480751,213.827805 83.829826,214.298264 
	C85.155289,214.760483 85.792015,213.729202 86.742249,213.019165 
	C89.911514,210.651031 89.468025,204.737656 94.947456,204.686096 
	C95.111801,204.684540 95.383812,204.160110 95.416245,203.859055 
	C96.169067,196.869995 101.814522,192.947144 106.371727,189.364227 
	C116.088875,181.724548 117.486122,170.985703 119.522621,160.361588 
	C120.304787,156.281113 117.847435,152.129868 117.303413,148.315720 
	C116.086670,139.785034 111.077797,132.229050 111.566681,123.439552 
	C111.602051,122.803711 111.533836,121.844391 111.135010,121.551834 
	C107.586975,118.949181 108.570961,115.554977 109.568748,112.020515 
	C106.802246,111.200577 104.276070,110.846718 101.340866,112.889496 
M126.944397,142.841522 
	C128.280899,139.634918 127.392113,136.052399 130.038437,132.754242 
	C131.643158,130.754257 132.266785,125.831650 128.458420,122.952858 
	C127.244186,122.035011 125.957954,120.267914 125.950081,118.882339 
	C125.929520,115.263863 123.538086,113.883949 121.199516,112.215286 
	C117.748505,115.860062 116.711769,119.537056 117.380180,123.311806 
	C117.756340,125.436058 120.780426,125.860954 120.250198,128.223648 
	C118.812454,134.630173 124.215294,139.318436 123.951530,146.579391 
	C125.332214,144.856400 125.932068,144.107834 126.944397,142.841522 
z"/>
</svg>