<svg version="1.1" id="Layer_1" xmlns="http://www.w3.org/2000/svg" xmlns:xlink="http://www.w3.org/1999/xlink" x="0px" y="0px"
	 width="100%" viewBox="0 0 240 288" enable-background="new 0 0 240 288" xml:space="preserve">
<path fill="#000000" opacity="1.000000" stroke="none" 
	d="
M117.645836,32.809761 
	C117.656532,30.006968 117.622955,27.673563 117.692978,25.343273 
	C117.736893,23.881693 117.541183,22.117579 119.617584,21.846592 
	C121.214989,21.638115 122.846878,21.300634 124.211647,22.849604 
	C129.345673,28.676533 135.859039,33.760448 139.302780,40.439075 
	C141.615479,44.924221 146.960983,47.789249 146.798004,53.707092 
	C146.766190,54.862114 148.253464,56.355999 149.403275,57.197063 
	C155.647018,61.764252 159.723587,68.381615 164.928207,73.901512 
	C167.943253,77.099213 168.660706,82.767212 170.766800,86.754501 
	C173.706665,92.320259 172.105789,98.555443 175.596024,104.047920 
	C177.444611,106.956985 178.757156,111.980179 178.260437,116.266464 
	C177.641052,121.611229 181.140244,125.280327 182.964706,129.633408 
	C183.203659,130.203491 184.049591,130.613159 184.106720,131.151062 
	C184.731583,137.033539 184.995972,142.759384 186.800461,148.699692 
	C188.398834,153.961548 190.509048,159.994583 189.420837,166.061325 
	C188.998718,168.414825 192.114273,168.713089 192.324051,170.966217 
	C193.101959,179.321014 191.943588,187.906540 185.010529,192.498917 
	C179.232727,196.326080 176.136826,203.682587 168.514374,204.832474 
	C168.125198,204.891190 167.730927,205.435959 167.485168,205.842712 
	C165.652130,208.876663 164.779083,211.034180 159.930603,208.122498 
	C157.029175,206.380081 151.817062,205.545776 148.532547,203.869522 
	C144.374847,201.747604 139.180466,202.850723 135.811584,199.129837 
	C135.353394,198.623795 134.253937,198.487106 133.468475,198.525818 
	C130.339096,198.680084 129.064697,197.622726 128.313339,194.196564 
	C126.711334,186.891525 123.073456,180.100266 123.077156,171.875427 
	C117.379318,180.133911 117.796043,189.818039 112.035927,197.965881 
	C108.571167,198.472641 105.658768,200.498764 105.040192,205.530579 
	C104.824287,207.286850 102.436729,209.201584 100.589844,210.247131 
	C96.174698,212.746689 93.220589,215.896194 90.878883,220.685959 
	C88.631874,225.282013 84.362572,229.045547 80.522469,232.834976 
	C74.864815,238.417969 69.646187,244.475113 64.576004,250.607635 
	C62.890213,252.646652 61.192181,252.525101 59.322517,252.050400 
	C57.127403,251.493103 57.705128,249.392578 57.687935,247.842087 
	C57.541561,234.641754 54.318508,221.603012 55.621113,208.329910 
	C51.001747,200.435989 53.083576,191.730362 52.626720,183.338028 
	C52.477772,180.601913 49.591156,179.484482 49.417271,176.370132 
	C49.150932,171.599991 51.993828,167.912842 53.387100,164.115250 
	C55.411968,158.596146 56.956696,153.141418 57.550049,147.428589 
	C57.812180,144.904861 60.078533,144.229721 60.744183,142.061630 
	C62.639690,135.887817 64.984268,129.834167 67.469086,123.865189 
	C69.123116,119.891891 68.582214,115.341187 71.511925,111.657959 
	C75.990425,106.027603 74.847069,98.191162 78.914909,92.028702 
	C80.904915,89.014000 79.720924,83.765831 84.283012,81.929337 
	C86.591034,81.000229 89.145531,80.387497 91.417191,79.663223 
	C95.195061,78.458717 98.658615,76.217461 102.641609,75.653374 
	C106.930962,75.045891 109.150429,72.762627 109.653923,68.289612 
	C110.469734,61.041874 112.836266,54.167660 114.937164,47.189709 
	C116.253670,42.817074 118.083733,38.160652 117.645836,32.809761 
M123.661476,81.873932 
	C121.276192,82.607880 120.598953,88.060478 115.614449,82.795174 
	C117.842140,88.081764 113.433655,89.150764 113.122444,92.640099 
	C112.374725,101.023804 115.102036,108.642578 116.767975,116.509003 
	C118.185593,123.202896 122.149071,129.299896 121.460762,136.501938 
	C121.393661,137.204117 121.761345,137.762329 122.956085,137.905533 
	C123.285057,135.903229 125.911530,135.842361 126.547585,133.705338 
	C128.187424,128.195786 128.949036,122.454750 131.535339,117.176414 
	C132.759613,114.677818 135.674744,112.820213 134.761490,109.275383 
	C134.340775,107.642334 134.858215,105.807907 137.195541,105.774849 
	C139.129593,105.747490 141.576019,104.846977 142.769409,106.744698 
	C143.747604,108.300232 143.760971,110.372009 142.389755,112.300560 
	C139.516953,116.341026 139.027786,121.357155 137.455139,125.921638 
	C135.991745,130.169067 136.534912,135.661606 133.989807,138.840927 
	C130.882965,142.721954 128.814011,146.137482 129.310196,151.039017 
	C129.447174,152.392258 128.991547,153.580322 128.174866,154.749084 
	C126.835503,156.665878 126.689606,159.347855 127.645416,160.971695 
	C129.400650,163.953690 129.231491,166.968658 129.400299,170.084351 
	C129.451904,171.036911 129.659958,172.113312 130.169800,172.886871 
	C133.089737,177.317078 133.764893,182.564819 135.142410,187.467422 
	C135.990265,190.484848 136.805649,191.798660 139.904221,191.662811 
	C145.556427,191.415039 150.121124,194.590057 154.990753,196.747574 
	C158.372833,198.246033 164.213776,198.623764 164.808731,197.077805 
	C167.076035,191.186340 174.154037,191.020126 176.533188,185.744781 
	C177.045792,184.608154 177.651642,182.804550 179.547028,182.737396 
	C185.158218,182.538574 183.427872,176.386292 186.491135,174.086838 
	C186.686172,173.940445 186.407455,172.651688 185.998947,172.290939 
	C181.567703,168.377853 183.729675,162.353149 181.139114,157.490829 
	C178.683243,152.881302 176.781464,147.149857 176.270096,141.630447 
	C175.868896,137.300110 172.650803,133.570511 172.971191,129.818130 
	C173.483032,123.823524 170.593445,118.748726 168.770111,114.074356 
	C166.393219,107.980820 166.915771,101.703972 164.884781,95.741196 
	C163.570633,91.883049 160.446609,88.462303 161.176483,83.868027 
	C161.321686,82.953934 159.877228,82.507118 158.864014,82.332558 
	C157.805161,82.150146 156.811554,81.743484 156.805450,80.549583 
	C156.786728,76.885094 154.045197,75.238472 151.643951,73.325821 
	C146.146530,68.946960 144.554749,61.829857 140.115051,56.559090 
	C138.502747,54.644978 135.590103,53.052071 135.128265,51.033340 
	C133.746490,44.993618 128.271225,42.808937 124.874733,38.360065 
	C126.590271,45.919567 119.864944,51.690964 121.311035,58.961990 
	C121.449120,59.656303 121.111679,60.684750 120.625237,61.225391 
	C117.088989,65.155655 117.736015,68.732826 120.317757,73.117226 
	C121.757172,75.561676 123.370430,78.268822 123.661476,81.873932 
M96.623596,200.993027 
	C96.780159,199.691544 96.906700,198.631088 98.349113,197.739822 
	C102.722733,195.037308 105.503410,190.247513 106.251900,185.896378 
	C107.372696,179.381012 110.818207,174.319031 113.780273,168.997391 
	C118.123604,161.194183 118.559784,153.479187 116.529503,145.000443 
	C115.648758,141.322327 111.914528,138.808594 112.701447,134.740128 
	C113.808502,129.016602 109.956032,124.499420 108.596809,119.486794 
	C107.051941,113.789589 105.119392,108.211517 104.714470,102.289818 
	C104.431137,98.146248 104.695381,93.967361 104.630661,89.805557 
	C104.608566,88.384850 105.139351,86.604118 103.332115,85.852058 
	C101.616737,85.138222 100.097939,85.468102 99.112587,87.300079 
	C98.567505,88.313492 97.452293,88.211304 96.470940,88.367943 
	C91.583817,89.147995 87.963951,90.691513 85.622772,96.127403 
	C84.279526,99.246246 84.789978,103.346054 82.962090,105.019661 
	C79.000435,108.646919 79.886108,113.718864 77.985313,117.832474 
	C75.351425,123.532631 75.124207,130.474747 72.537430,136.639435 
	C71.642914,138.771225 69.866325,140.069473 69.188110,142.451675 
	C67.023048,150.056335 64.899857,157.684082 62.071686,165.141739 
	C60.586483,169.058090 57.427364,172.974091 58.260727,177.942261 
	C58.968178,182.159760 58.023071,186.296616 60.816307,190.571289 
	C62.664696,193.400009 61.661247,198.375381 61.242126,202.316071 
	C60.884880,205.675034 66.812225,208.732269 61.594975,212.258743 
	C60.996811,212.663055 61.277134,214.422989 62.165188,214.943802 
	C64.936058,216.568771 64.281944,219.178741 64.320221,221.585159 
	C64.383774,225.580444 64.345284,229.577255 64.392334,233.572922 
	C64.409111,234.997589 64.786797,236.311844 66.533302,236.374252 
	C67.703087,236.416046 68.272934,235.584381 68.505196,234.504578 
	C69.592079,229.451599 73.418495,226.849670 77.542625,224.597015 
	C78.473862,224.088348 79.595619,223.645432 79.446747,222.607376 
	C79.004318,219.522537 81.553955,218.243332 83.062218,216.491516 
	C87.399467,211.453979 92.006172,206.648453 96.623596,200.993027 
z"/>
</svg>