<svg version="1.1" id="Layer_1" xmlns="http://www.w3.org/2000/svg" xmlns:xlink="http://www.w3.org/1999/xlink" x="0px" y="0px"
	 width="100%" viewBox="0 0 240 288" enable-background="new 0 0 240 288" xml:space="preserve">
<path fill="#000000" opacity="1.000000" stroke="none" 
	d="
M201.331741,189.783356 
	C201.930603,193.161865 199.125214,194.427017 197.732361,195.681549 
	C192.406967,200.478104 191.284164,208.719345 185.460968,212.243286 
	C180.614777,215.176025 177.471039,222.216873 170.150940,220.357864 
	C164.800095,218.998947 159.602417,216.941422 154.200043,215.909485 
	C149.380234,214.988831 145.679657,211.544601 140.552521,211.136108 
	C135.966675,210.770737 135.892517,205.060959 136.088455,202.619202 
	C136.608261,196.141312 131.314178,191.517883 132.555481,184.325333 
	C127.640076,187.844116 125.645706,193.337738 125.885025,196.401291 
	C126.546776,204.872177 120.814766,209.239243 116.420288,213.825165 
	C105.806557,224.901306 95.433777,236.243011 85.696365,248.006088 
	C81.627838,252.921021 77.625290,258.227020 73.770874,263.485840 
	C72.583473,265.105865 71.265518,265.566223 69.511086,265.159882 
	C67.185295,264.621185 68.119446,262.536407 67.624222,261.085815 
	C63.448360,248.854080 66.918129,235.706192 63.992210,223.806931 
	C61.711746,214.532654 62.430740,205.676544 61.698940,196.655396 
	C61.441132,193.477295 58.396835,191.912476 58.367008,188.259842 
	C58.325840,183.217728 60.689522,179.630356 62.942848,175.818451 
	C63.601746,174.703827 64.859100,173.807816 64.584000,172.430878 
	C63.422417,166.616745 67.852890,162.366302 68.716789,157.242844 
	C70.280266,147.970444 75.453056,140.079132 77.945717,131.129700 
	C79.190567,126.660301 81.124512,121.879623 82.652222,117.414825 
	C84.093079,113.203896 86.512749,109.009117 86.742142,104.207535 
	C87.151756,95.633827 90.966721,93.387527 98.662346,91.222374 
	C104.059738,89.703812 109.367218,89.265564 114.695595,88.225533 
	C117.652428,87.648384 118.414299,84.253967 118.752235,81.006088 
	C119.489037,73.924622 121.090858,66.997803 124.124794,60.452557 
	C125.270958,57.979900 124.923111,55.128471 124.580025,52.550884 
	C123.594902,45.149658 129.760834,39.351498 127.328720,30.807890 
	C133.166245,34.519146 136.791336,38.364574 139.917130,41.598202 
	C142.581894,44.354889 146.691238,48.056297 147.332825,52.909599 
	C147.596191,54.901733 148.691772,56.589535 149.916412,57.609829 
	C157.165604,63.649376 161.349365,72.059021 167.143280,79.205811 
	C168.963287,81.450798 170.925919,83.590080 172.935745,85.669029 
	C176.195755,89.041176 178.738922,92.256660 179.901276,97.423492 
	C180.815796,101.488640 180.942429,106.731735 184.596542,110.157433 
	C184.922562,110.463066 185.243896,111.085938 185.158936,111.471481 
	C183.530807,118.860916 186.930878,125.658867 188.759506,132.268082 
	C190.658310,139.130936 187.812256,146.942413 193.096024,152.943283 
	C193.191040,153.051224 193.229401,153.275238 193.194809,153.421600 
	C191.596680,160.184509 196.687088,165.664536 196.778473,172.361099 
	C196.829697,176.115860 197.150742,181.122345 200.746109,184.545898 
	C201.650589,185.407150 201.178192,187.714371 201.331741,189.783356 
M187.718842,162.128983 
	C189.085495,155.058670 183.193817,149.214737 184.329086,142.173370 
	C184.371735,141.908813 184.132629,141.488022 183.896774,141.305908 
	C180.051331,138.336975 182.701599,132.500687 178.718567,129.606506 
	C179.412842,120.641472 172.810394,113.147354 173.578156,104.160759 
	C173.618668,103.686592 173.556976,103.078217 173.289856,102.722145 
	C169.625870,97.838127 167.637833,91.777466 162.566208,87.865700 
	C157.413742,83.891602 156.984863,76.398033 151.497299,72.635605 
	C149.565643,71.311211 147.545944,69.644257 147.130493,67.569054 
	C145.601440,59.931496 138.389160,57.376984 135.073090,52.445789 
	C130.026962,56.366982 130.203812,61.660583 130.134781,66.902626 
	C130.128891,67.349655 129.719971,67.784424 129.526520,68.236961 
	C126.490562,75.338829 128.626724,84.211304 133.223892,90.102203 
	C138.420700,96.761497 143.105331,103.953598 146.999893,111.440819 
	C148.993637,115.273773 151.335709,120.390839 148.844482,124.690018 
	C145.970840,129.649139 147.908524,135.235428 144.918732,140.534515 
	C142.547424,144.737427 139.696442,150.594055 141.120163,156.571823 
	C141.239471,157.072800 140.129913,157.779190 139.802231,158.487701 
	C137.255035,163.995407 134.815140,169.367020 137.401291,175.787216 
	C139.218384,180.298203 139.195786,185.306824 140.942551,190.078232 
	C142.669632,194.795944 144.682526,199.079742 147.409088,203.180695 
	C148.167435,204.321304 149.194122,204.532715 150.391159,204.603668 
	C153.770615,204.804001 156.909821,204.622772 160.142868,207.041397 
	C162.205292,208.584259 165.927231,208.100784 168.446365,210.332214 
	C169.352631,211.134964 171.825775,211.230423 172.644058,210.012222 
	C176.352966,204.490753 182.216766,201.653381 187.182358,197.696808 
	C189.644058,195.735367 188.813995,191.890717 190.876266,189.885574 
	C193.735657,187.105408 193.589157,183.069351 192.121078,181.238754 
	C188.946136,177.279877 189.762375,173.179062 189.707016,169.027328 
	C189.676727,166.756073 189.181335,164.796661 187.718842,162.128983 
M74.454910,167.719208 
	C71.990196,173.286835 69.173660,178.797073 68.418488,184.890579 
	C66.712440,198.656738 71.283180,212.164597 70.440628,225.927124 
	C70.395393,226.665955 70.756142,227.830139 71.299828,228.136688 
	C73.962242,229.637833 73.196106,232.124329 73.342331,234.354401 
	C73.643646,238.949783 72.709442,243.625809 74.293236,249.176895 
	C78.345772,242.538956 84.991409,239.485611 87.675751,232.099884 
	C89.887688,226.013931 96.615257,222.408630 100.638290,216.980576 
	C104.481651,211.794968 109.092636,207.060959 113.926392,202.757721 
	C119.446083,197.843842 117.093842,190.175095 121.147293,184.621216 
	C122.596573,182.635468 123.096451,179.108597 124.357674,176.314774 
	C125.480820,173.826782 124.164299,170.520615 127.033142,168.250748 
	C127.947845,167.526993 127.723511,165.293060 126.076591,164.381348 
	C124.593376,163.560272 124.498421,162.176605 124.717682,160.919678 
	C125.865013,154.342667 119.881027,149.053360 121.456383,142.429321 
	C121.489685,142.289276 121.425331,142.053314 121.320023,141.963440 
	C116.230171,137.619278 119.417000,131.058990 117.169876,125.693085 
	C115.927071,122.725388 113.810135,119.441315 113.715027,115.889572 
	C113.566322,110.335793 113.675636,104.775101 113.675636,99.211548 
	C107.275597,95.993813 102.118179,101.495918 96.188553,102.376007 
	C94.995850,102.553024 92.009178,104.667267 92.497070,107.119530 
	C93.536133,112.342155 91.096664,116.703117 89.001343,120.841766 
	C87.318367,124.165955 88.707352,128.303619 86.519272,130.679306 
	C82.974831,134.527679 84.026550,139.601685 81.839523,143.906097 
	C79.804375,147.911606 78.272667,152.972626 77.307144,157.894989 
	C76.721405,160.881134 77.757736,164.648056 74.454910,167.719208 
M132.454361,149.968002 
	C134.954834,148.465698 135.944611,146.342621 135.714981,143.368713 
	C135.454697,139.997696 137.096588,136.747009 138.712723,134.236542 
	C140.102951,132.076981 140.475082,130.218979 140.683395,127.950882 
	C141.536545,118.660751 138.055344,111.065720 131.531082,104.747795 
	C130.521942,103.770584 129.611252,103.045090 129.624924,101.570129 
	C129.649246,98.947174 128.179962,98.116348 125.762367,98.293465 
	C123.292946,98.474396 122.297157,99.726196 122.337433,102.182549 
	C122.421806,107.328476 122.333649,112.477058 122.383774,117.623886 
	C122.393204,118.592369 122.420815,119.771690 122.941460,120.490547 
	C126.849274,125.886124 125.215500,132.842514 128.234558,138.557678 
	C130.145844,142.175781 129.458145,146.817688 132.454361,149.968002 
z"/>
</svg>