<svg version="1.1" id="Layer_1" xmlns="http://www.w3.org/2000/svg" xmlns:xlink="http://www.w3.org/1999/xlink" x="0px" y="0px"
	 width="100%" viewBox="0 0 240 320" enable-background="new 0 0 240 320" xml:space="preserve">
<path fill="#000000" opacity="1.000000" stroke="none" 
	d="
M223.389587,196.537292 
	C226.743484,200.259460 226.065948,205.113693 227.991730,209.026794 
	C228.930542,210.934418 228.994186,213.296082 225.456253,214.795120 
	C221.308350,216.552597 218.042694,220.223694 218.115219,225.868301 
	C210.725525,226.223251 208.669769,233.051254 204.323212,237.145294 
	C200.547821,240.701385 197.090485,244.614594 193.691269,248.541946 
	C192.130096,250.345657 190.987915,250.964035 189.513870,248.663651 
	C188.516968,247.107880 186.892700,247.314423 185.448471,247.425735 
	C179.494965,247.884552 174.482864,245.907593 169.980408,242.078613 
	C167.770981,240.199646 164.649536,241.309830 161.804840,239.606262 
	C158.694763,237.743774 154.654160,236.073303 150.740814,235.464355 
	C146.097229,234.741760 144.114609,232.466324 143.534744,227.782440 
	C142.663727,220.746780 141.524857,213.670044 137.892944,207.342865 
	C136.821640,205.476562 137.796463,203.406693 137.373505,201.149277 
	C132.368439,209.221451 129.410583,217.573303 128.017151,226.774231 
	C127.397858,230.863419 124.746422,234.997375 121.422516,238.159363 
	C118.440079,240.996552 115.373055,243.560364 111.895760,245.931473 
	C106.666130,249.497452 102.642296,255.052734 98.712357,260.223297 
	C96.240936,263.474854 92.066223,265.570190 91.647034,270.484070 
	C91.520790,271.963867 88.472435,271.333862 87.200417,273.108093 
	C84.282310,277.178284 82.024315,281.643829 78.351944,285.298767 
	C72.739037,290.885040 67.989311,297.313751 62.379848,302.959778 
	C61.065598,304.282562 59.862122,304.402222 58.399395,304.121429 
	C56.646870,303.785034 56.726921,302.249664 56.704712,300.942200 
	C56.519417,290.036469 51.668842,279.575684 53.612278,268.469940 
	C48.765732,261.925323 52.933258,253.612106 50.215508,247.374039 
	C46.014835,237.732208 48.488098,228.235779 47.785995,218.730576 
	C47.546959,215.494415 45.449951,213.069138 45.532433,209.713531 
	C45.763523,200.312012 47.451313,191.476212 53.023708,183.666672 
	C53.381657,183.165024 53.670441,182.347977 53.528435,181.796967 
	C52.175098,176.545868 55.235073,172.229065 57.073257,167.963745 
	C58.926914,163.662537 57.840958,158.444153 61.570202,154.851730 
	C65.350319,151.210312 63.653568,145.395172 67.025375,141.285629 
	C68.919121,138.977539 67.792915,135.057938 69.216011,131.833466 
	C70.888069,128.044876 72.578636,124.343201 74.861893,120.906334 
	C75.871590,119.386497 75.615349,117.695724 75.619019,116.059921 
	C75.629913,111.206856 76.999786,106.976646 79.694138,102.788704 
	C81.675896,99.708389 81.567810,95.600418 83.272339,91.996422 
	C85.241425,87.833061 87.226578,85.296837 91.832436,85.673447 
	C96.620079,86.064926 100.279968,82.778946 104.574471,81.595596 
	C107.211586,80.868958 109.869431,79.710838 112.746819,79.653107 
	C119.138741,79.524818 121.512955,77.302979 121.615387,71.151993 
	C121.661659,68.373650 121.113869,65.433479 124.031189,63.534916 
	C124.354080,63.324780 124.570808,62.582073 124.481140,62.162346 
	C122.901184,54.766903 126.778130,48.172825 128.016861,41.262856 
	C129.168381,34.839462 128.692856,28.393410 129.974121,22.195053 
	C130.651062,18.920227 132.745087,15.902792 133.093994,12.198550 
	C133.310898,9.895850 136.705948,10.153584 137.548279,11.274434 
	C140.841751,15.656980 146.980194,17.741016 147.687988,24.321720 
	C147.936295,26.630243 150.476624,28.189486 152.338318,29.770550 
	C158.241837,34.784157 161.855286,41.570557 166.291718,47.728844 
	C172.286957,56.050888 179.562912,63.307415 186.957092,70.293518 
	C190.220703,73.377014 189.253540,78.075714 193.029205,80.619911 
	C197.662338,83.741905 199.053543,88.497437 198.427612,94.069016 
	C198.150940,96.531830 197.424789,99.525810 200.561325,101.183792 
	C200.903229,101.364525 201.238220,102.092972 201.151749,102.469994 
	C199.639374,109.064957 203.663086,114.744301 204.895752,120.769524 
	C205.955582,125.949890 207.200867,131.323044 208.106277,136.611221 
	C209.081177,142.305206 211.257599,147.722488 212.854248,153.102875 
	C214.537354,158.774643 213.652588,165.318298 217.707535,170.358597 
	C218.416702,171.240112 218.467346,172.954346 218.278976,174.201996 
	C217.508942,179.302567 220.599426,183.704941 220.727539,188.736618 
	C220.784622,190.978378 224.166168,192.967972 223.389587,196.537292 
M195.644806,118.646332 
	C195.535706,117.326447 195.940796,115.542801 195.235428,114.760696 
	C190.018082,108.975952 194.452682,100.831078 189.958771,94.540100 
	C188.369461,92.315262 188.132172,88.673592 185.744720,86.136581 
	C178.883728,78.845764 172.099472,71.464302 165.651260,63.809956 
	C161.401382,58.765125 158.075897,52.935173 153.766479,47.949471 
	C151.452759,45.272663 147.715607,43.285339 147.005676,39.845280 
	C145.974808,34.850193 142.433716,32.973423 137.771042,29.478441 
	C139.999756,38.547253 135.895325,45.678677 136.306503,53.307926 
	C136.349640,54.108593 136.337448,55.404198 135.888260,55.661049 
	C132.510712,57.592335 133.455383,60.784908 133.358429,63.657234 
	C133.291092,65.652122 133.186569,67.392242 131.637115,69.117020 
	C129.739639,71.229210 130.354935,73.336319 133.508743,73.516380 
	C136.793015,73.703888 137.558350,76.248734 138.174393,78.448227 
	C139.490112,83.145996 141.953247,87.098610 144.979065,90.782562 
	C145.784744,91.763496 146.930740,92.259628 147.365601,93.773087 
	C149.012207,99.503944 152.411896,104.334274 156.054962,108.944038 
	C159.592941,113.420853 161.880692,118.752876 159.868958,123.877884 
	C157.662201,129.499680 159.762268,136.007202 155.435257,141.036942 
	C152.881577,144.005356 153.390259,148.727554 151.620407,151.562714 
	C148.577240,156.437622 147.303162,161.200073 147.326736,166.660019 
	C147.332245,167.933777 147.602081,169.268021 146.304062,170.306229 
	C142.587921,173.278564 145.673798,179.129379 141.486008,181.991714 
	C141.307373,182.113815 141.414490,183.148621 141.696945,183.377319 
	C146.816879,187.523239 144.259644,194.165070 146.678192,199.497650 
	C148.720688,204.001144 148.382202,210.624359 149.520966,216.191772 
	C150.177521,219.401733 151.704269,223.306793 154.153381,225.014694 
	C156.308014,226.517242 159.732651,227.644318 162.362320,228.182831 
	C169.686340,229.682709 175.987823,234.285080 183.569778,234.640213 
	C184.464966,234.682144 184.936279,235.307022 185.404480,236.088699 
	C186.810272,238.435715 188.088257,237.683609 189.633835,235.982086 
	C194.222061,230.930862 198.720764,225.755753 203.732864,221.149628 
	C206.334473,218.758774 207.301483,214.781815 211.151245,213.678375 
	C213.458420,213.017075 218.375168,206.129272 217.148743,204.599365 
	C214.267227,201.004807 215.680786,196.622101 214.201324,193.099899 
	C211.464752,186.584763 208.464752,180.294296 208.579407,173.021606 
	C208.591675,172.243774 208.149277,171.444382 207.856400,170.678452 
	C205.913956,165.598511 205.081741,160.015015 204.212814,154.910477 
	C203.163574,148.746643 198.894150,143.131714 200.499146,136.504547 
	C200.565048,136.232437 200.385696,135.821060 200.191437,135.577667 
	C196.427719,130.861984 196.894638,124.954391 195.644806,118.646332 
M107.479408,92.407928 
	C103.935043,91.698906 102.320587,95.832840 98.521454,95.551086 
	C91.978905,95.065887 87.082764,100.161888 87.460762,106.816750 
	C87.769089,112.245132 85.096375,117.110428 83.329681,121.391541 
	C81.644722,125.474602 82.932701,131.077835 78.418739,133.996384 
	C78.795868,144.162216 70.340912,151.332275 69.305328,161.142944 
	C68.760536,166.304047 64.039162,170.558090 65.265709,176.376526 
	C65.418510,177.101379 65.196312,178.214050 64.706551,178.718826 
	C58.307869,185.313599 58.574211,194.229233 57.624786,202.186707 
	C55.401791,220.818466 59.405151,239.447678 59.403679,258.133270 
	C59.403603,259.071228 59.596500,260.462067 60.211140,260.868652 
	C62.836025,262.605103 62.247475,265.164490 62.336304,267.589417 
	C62.545788,273.307922 61.873249,279.077667 62.869274,285.577942 
	C73.275078,275.302917 81.388695,264.195892 91.059349,254.518021 
	C91.372116,254.205032 91.531876,253.595734 91.523331,253.128952 
	C91.477127,250.605072 92.728561,249.605789 95.182182,249.537033 
	C97.076393,249.483963 97.559883,247.991730 97.648148,246.368500 
	C97.729317,244.875717 98.251213,243.819977 99.946320,243.677048 
	C102.068764,243.498108 102.638245,242.047241 102.692368,240.192337 
	C102.730240,238.894348 103.251930,237.922607 104.668999,237.746216 
	C106.667519,237.497437 107.576866,236.314606 107.626129,234.383606 
	C107.673462,232.528320 108.666817,231.724701 110.455688,231.654053 
	C111.656906,231.606598 113.066940,231.347870 113.237061,230.011719 
	C113.833359,225.328629 120.977867,223.766129 118.929337,217.897964 
	C122.513321,215.612427 120.279747,210.843231 122.321785,208.663925 
	C125.471832,205.302124 125.267113,200.924896 127.064690,197.241226 
	C129.624329,191.995911 128.581161,185.201691 132.371643,179.958023 
	C132.934555,179.179306 132.747498,177.701752 131.894257,177.204544 
	C129.353775,175.724030 129.946167,173.326126 129.557465,171.080917 
	C128.891922,167.236496 128.603180,162.824020 126.921082,159.754272 
	C123.213425,152.987961 124.425087,145.454269 122.047356,138.467331 
	C120.126915,132.824142 118.231590,126.745186 117.785896,120.324318 
	C117.543976,116.839157 117.645966,111.975403 114.049927,108.544647 
	C112.717323,107.273300 112.609711,103.118446 114.625130,101.100716 
	C118.050262,97.671646 116.456375,94.222298 115.724953,89.363106 
	C113.578133,93.212807 110.763618,92.187752 107.479408,92.407928 
M125.398659,115.891556 
	C124.994667,118.321106 128.291672,118.637802 128.247742,120.807167 
	C128.130661,126.587494 131.554138,131.915222 130.375137,137.840927 
	C130.186371,138.789749 130.116577,140.002243 130.544052,140.795029 
	C133.463699,146.209824 135.806503,151.795410 136.482025,157.977921 
	C136.601181,159.068344 137.165726,159.872482 138.353012,159.951385 
	C139.696716,160.040634 139.992218,159.003372 140.162048,158.007767 
	C140.441422,156.369858 140.188461,154.487793 140.915146,153.105743 
	C144.305679,146.657303 146.957336,140.061707 146.797348,132.608688 
	C146.784454,132.007858 147.289871,131.409576 147.486069,130.788513 
	C149.954361,122.975159 149.021011,115.841858 143.838837,109.206734 
	C140.838272,105.364876 137.504257,101.337524 136.080978,96.836868 
	C134.696640,92.459343 132.259644,90.233620 128.590042,88.269890 
	C128.347610,91.531540 129.228134,95.454979 127.664467,97.254120 
	C124.892639,100.443375 125.528450,103.669731 125.375671,107.017250 
	C125.254318,109.676163 125.360832,112.345474 125.398659,115.891556 
z"/>
</svg>