<svg version="1.1" id="Layer_1" xmlns="http://www.w3.org/2000/svg" xmlns:xlink="http://www.w3.org/1999/xlink" x="0px" y="0px"
	 width="100%" viewBox="0 0 240 272" enable-background="new 0 0 240 272" xml:space="preserve">
<path fill="#000000" opacity="1.000000" stroke="none" 
	d="
M174.175262,30.192173 
	C177.548126,28.170261 178.652283,24.606625 181.263412,22.274652 
	C183.115479,20.620584 184.768509,20.512098 186.650070,20.963182 
	C188.872726,21.496040 188.298431,23.603876 188.302429,25.150059 
	C188.341721,40.357185 191.743744,55.411545 190.361526,70.679985 
	C195.279053,79.383392 192.281448,88.965836 193.516357,98.055435 
	C194.463654,105.028008 190.799011,110.639954 189.425980,116.880219 
	C188.894501,119.295830 188.805252,121.708633 188.291382,124.068527 
	C187.164490,129.243591 185.724945,134.295486 183.228058,139.076263 
	C180.942047,143.453247 179.544922,148.287476 177.369003,152.730652 
	C174.238251,159.123550 173.306015,166.289688 169.206192,172.490738 
	C167.189163,175.541534 166.942993,180.527344 166.397537,184.714066 
	C165.881134,188.677887 163.726730,190.427780 160.009277,191.466614 
	C155.643829,192.686493 151.386124,194.433411 147.288437,196.385727 
	C146.022919,196.988663 144.900177,197.292679 143.609573,197.379639 
	C138.098663,197.751068 136.837814,199.464844 136.252548,204.997574 
	C135.493546,212.172745 133.958206,219.238739 130.893845,225.869843 
	C130.621964,226.458145 130.408813,227.150192 130.429642,227.785477 
	C130.673737,235.226608 127.073799,242.275269 128.257874,249.840332 
	C128.544037,251.668655 128.773788,254.037369 125.730316,254.313309 
	C123.150681,254.547195 122.376999,253.437790 121.364952,250.948746 
	C119.612747,246.639389 116.051010,243.265121 112.775627,239.916840 
	C108.629456,235.678391 103.934441,231.989197 102.220840,225.829895 
	C101.748146,224.130859 99.860062,222.767563 98.483124,221.388275 
	C92.689888,215.585114 87.555824,209.315735 83.554474,202.095703 
	C82.503601,200.199524 80.296776,198.968109 78.732521,197.325043 
	C77.384125,195.908707 75.431602,194.201584 75.859749,192.395752 
	C77.232704,186.604889 73.809891,181.750015 72.124771,177.114883 
	C69.576340,170.105118 70.952927,161.811234 67.091240,156.246750 
	C63.396561,150.922897 67.584846,144.007034 61.843220,139.994095 
	C61.261971,139.587860 61.693584,137.773529 61.602455,136.616791 
	C61.380466,133.799072 62.713303,130.500122 59.128338,128.689758 
	C58.830475,128.539337 58.645771,127.748222 58.730919,127.318703 
	C59.935490,121.242378 55.670715,115.745506 56.747803,109.804138 
	C57.415211,106.122643 53.784317,104.838013 53.344681,101.477028 
	C52.161644,92.432724 56.715019,86.478966 62.506165,80.963669 
	C64.885429,78.697746 66.750786,75.769165 69.331474,73.999420 
	C73.839432,70.908012 77.538948,67.139954 81.433952,63.413685 
	C83.924911,61.030640 86.892532,65.192253 88.290100,66.413246 
	C92.173088,69.805641 97.127434,68.964088 101.317665,71.123550 
	C105.649010,73.355751 110.710243,76.590370 116.829964,74.465950 
	C117.877350,84.041634 123.672699,91.641586 123.354477,101.006737 
	C124.972603,94.522507 129.661377,89.549957 130.201935,82.512054 
	C130.502136,78.603249 135.758270,75.645302 138.536240,72.007759 
	C145.144714,63.354458 151.709488,54.639698 159.215912,46.697006 
	C164.233078,41.388233 169.030121,35.871429 174.175262,30.192173 
M93.313736,78.395287 
	C91.532539,78.281166 89.810966,78.520943 88.353165,76.787788 
	C86.626076,74.734489 83.981316,74.677277 82.067711,76.290985 
	C78.229767,79.527428 75.246658,83.453117 70.706100,86.279602 
	C66.976212,88.601440 63.981564,93.133492 60.618450,96.645378 
	C59.271194,98.052223 59.025940,99.478287 60.188816,101.091438 
	C63.272625,105.369331 64.340965,110.624985 65.051323,115.446320 
	C65.965034,121.647850 69.008102,127.250511 69.134071,133.753326 
	C69.180191,136.133469 69.582375,139.553726 70.857979,142.213135 
	C73.749359,148.241150 76.408363,154.321777 76.363281,161.198868 
	C76.358955,161.859024 76.387604,162.548187 76.567230,163.176346 
	C78.592308,170.257904 82.400032,176.932922 81.401237,184.705475 
	C81.322098,185.321289 81.417320,186.226837 81.809563,186.595459 
	C87.002090,191.475128 90.270897,197.846268 94.803696,203.225677 
	C99.200180,208.443359 105.045570,212.958206 107.781494,218.917206 
	C110.758293,225.400848 116.430527,228.475479 120.521675,234.569672 
	C121.455917,230.246918 122.721680,227.374313 124.204956,224.466202 
	C125.567261,221.795288 124.627892,217.950058 124.701080,214.622162 
	C124.727547,213.418610 125.147614,212.509735 126.039421,211.570694 
	C128.834198,208.627960 128.772507,203.819214 126.996620,201.883865 
	C122.560143,197.049133 118.640854,192.113831 115.848846,186.176163 
	C115.296898,185.002335 113.483246,184.469971 112.378204,183.497711 
	C110.250839,181.626053 107.547104,180.147751 107.583534,176.699066 
	C107.604706,174.693985 106.140877,172.953033 104.900612,172.163345 
	C100.983643,169.669403 101.910736,165.539017 103.089668,163.290802 
	C107.052650,155.733398 106.251465,146.689728 110.860764,139.593918 
	C113.042137,136.235794 112.445091,131.979263 114.547096,129.182495 
	C121.611885,119.782593 118.405212,109.955833 115.803619,100.583664 
	C114.522331,95.967873 110.284050,92.156548 110.519165,86.688156 
	C110.565315,85.614853 109.577263,85.067513 108.945221,84.304810 
	C105.063156,79.620132 98.312187,82.273323 93.313736,78.395287 
M150.828842,69.389297 
	C148.742203,71.864395 145.822266,74.024948 144.744308,76.880783 
	C142.574142,82.630226 137.053192,86.693092 136.975357,93.572845 
	C136.953278,95.523178 135.625366,98.038765 134.529037,100.224442 
	C132.614197,104.041954 129.028976,107.736839 130.280518,112.819794 
	C130.542694,113.884651 130.541962,115.420639 129.955627,116.223160 
	C125.605972,122.176605 129.570358,128.263794 131.173737,133.166138 
	C133.228516,139.448685 133.457855,146.187607 136.350464,152.169846 
	C138.417343,156.444412 136.872665,161.993576 138.958145,165.457962 
	C141.789734,170.161758 140.967728,174.598831 141.367523,179.214066 
	C141.579178,181.657440 141.236969,184.188187 142.583694,186.464737 
	C145.219070,184.691757 145.219070,184.691757 149.530472,184.613373 
	C154.881393,184.516083 157.946304,181.985779 159.649902,176.900589 
	C160.856842,173.297974 161.609451,168.987015 163.274017,166.236588 
	C167.236511,159.689209 166.512115,151.664169 170.862564,145.700974 
	C173.361923,142.275070 172.640198,138.051468 174.827408,134.879715 
	C176.926514,131.835724 178.444839,128.467133 178.466385,125.035706 
	C178.494308,120.589272 181.555832,117.697189 182.781464,113.914528 
	C184.376495,108.991798 187.293900,104.344307 187.494049,99.145958 
	C187.766342,92.074089 189.063705,84.692734 184.671249,78.183731 
	C186.404114,66.275902 182.427383,54.874203 181.558289,43.196682 
	C181.463669,41.925407 181.817139,40.340324 180.234146,39.723927 
	C178.631866,39.100021 178.071960,40.539253 177.081985,41.426579 
	C167.680069,49.853756 160.396973,60.227467 150.828842,69.389297 
M120.328743,141.858551 
	C119.143105,145.570084 118.781288,149.898758 116.574127,152.845016 
	C113.450668,157.014420 114.418877,161.245483 114.087021,165.615982 
	C113.769775,169.793961 118.120056,171.211121 118.761620,174.346466 
	C120.104813,180.910675 126.568268,183.745255 128.804550,189.631561 
	C129.191116,188.044403 128.652451,186.312515 129.906418,185.268265 
	C135.211914,180.850128 133.746475,174.241119 131.890030,170.189880 
	C129.046539,163.984619 128.921951,157.566391 128.009201,151.388580 
	C127.213280,146.001511 123.313522,142.050613 124.141991,135.858582 
	C121.722824,137.952835 123.038750,140.512222 120.328743,141.858551 
z"/>
</svg>