<svg version="1.1" id="Layer_1" xmlns="http://www.w3.org/2000/svg" xmlns:xlink="http://www.w3.org/1999/xlink" x="0px" y="0px"
	 width="100%" viewBox="0 0 179 202" enable-background="new 0 0 179 202" xml:space="preserve">
<path fill="#FEFEFE" opacity="1.000000" stroke="none" 
	d="
M112.000000,203.000000 
	C74.690849,203.000000 37.881699,203.000000 1.036274,203.000000 
	C1.036274,135.735077 1.036274,68.470123 1.036274,1.102585 
	C60.558945,1.102585 120.118126,1.102585 179.838654,1.102585 
	C179.838654,68.333015 179.838654,135.666473 179.838654,203.000000 
	C157.470428,203.000000 134.985214,203.000000 112.000000,203.000000 
M94.498810,90.822929 
	C86.612495,100.379913 78.770073,109.973640 70.817520,119.475182 
	C67.780495,123.103760 64.353989,126.408058 61.344635,130.057739 
	C54.418140,138.458069 47.660839,146.997650 40.793583,155.447174 
	C32.944820,165.104324 25.097065,174.763016 17.158649,184.346298 
	C12.959984,189.414963 12.886746,189.476822 18.275742,194.138382 
	C25.208954,185.662796 32.093384,177.154694 39.076706,168.728546 
	C55.310692,149.140457 71.622429,129.616730 87.834984,110.010979 
	C92.261734,104.657738 96.323006,99.000793 100.786186,93.679649 
	C104.171616,89.643463 108.167931,86.112190 111.473763,82.018188 
	C120.099930,71.335442 128.362961,60.358749 137.023682,49.704842 
	C144.773865,40.171043 152.874283,30.922365 160.794174,21.525976 
	C164.483444,17.148920 163.941696,14.989370 159.124237,12.364902 
	C153.015091,19.506847 146.897934,26.472250 140.992722,33.612938 
	C134.850891,41.039753 128.953171,48.667873 122.876877,56.149635 
	C115.905739,64.733223 108.855713,73.252754 101.839821,81.799988 
	C99.533859,84.609253 97.227440,87.418144 94.498810,90.822929 
z"/>
<path fill="#090909" opacity="1.000000" stroke="none" 
	d="
M94.710022,90.525070 
	C97.227440,87.418144 99.533859,84.609253 101.839821,81.799988 
	C108.855713,73.252754 115.905739,64.733223 122.876877,56.149635 
	C128.953171,48.667873 134.850891,41.039753 140.992722,33.612938 
	C146.897934,26.472250 153.015091,19.506847 159.124237,12.364902 
	C163.941696,14.989370 164.483444,17.148920 160.794174,21.525976 
	C152.874283,30.922365 144.773865,40.171043 137.023682,49.704842 
	C128.362961,60.358749 120.099930,71.335442 111.473763,82.018188 
	C108.167931,86.112190 104.171616,89.643463 100.786186,93.679649 
	C96.323006,99.000793 92.261734,104.657738 87.834984,110.010979 
	C71.622429,129.616730 55.310692,149.140457 39.076706,168.728546 
	C32.093384,177.154694 25.208954,185.662796 18.275742,194.138382 
	C12.886746,189.476822 12.959984,189.414963 17.158649,184.346298 
	C25.097065,174.763016 32.944820,165.104324 40.793583,155.447174 
	C47.660839,146.997650 54.418140,138.458069 61.344635,130.057739 
	C64.353989,126.408058 67.780495,123.103760 70.817520,119.475182 
	C78.770073,109.973640 86.612495,100.379913 94.710022,90.525070 
z"/>
</svg>