<svg version="1.1" id="Layer_1" xmlns="http://www.w3.org/2000/svg" xmlns:xlink="http://www.w3.org/1999/xlink" x="0px" y="0px"
	 width="100%" viewBox="0 0 183 164" enable-background="new 0 0 183 164" xml:space="preserve">
<path fill="#FEFEFE" opacity="1.000000" stroke="none" 
	d="
M133.000000,165.000000 
	C88.666672,165.000000 44.833340,165.000000 1.000006,165.000000 
	C1.000004,110.333336 1.000004,55.666679 1.000002,1.000013 
	C61.999989,1.000009 122.999977,1.000009 183.999969,1.000004 
	C183.999985,55.666653 183.999985,110.333305 184.000000,164.999969 
	C167.166672,165.000000 150.333328,165.000000 133.000000,165.000000 
M62.973679,46.563889 
	C88.138489,75.704094 113.303299,104.844299 138.422318,133.931473 
	C141.696625,131.799820 141.248703,129.835907 138.883789,127.110970 
	C129.282242,116.047859 119.983582,104.722473 110.431526,93.615662 
	C101.898506,83.693748 93.086121,74.011932 84.564087,64.080795 
	C72.101189,49.557182 59.787575,34.905457 47.371887,20.262989 
	C44.419720,22.285202 44.003464,24.342247 46.513729,27.189919 
	C51.960087,33.368328 57.183361,39.743385 62.973679,46.563889 
z"/>
<path fill="#0C0C0C" opacity="1.000000" stroke="none" 
	d="
M62.735764,46.300964 
	C57.183361,39.743385 51.960087,33.368328 46.513729,27.189919 
	C44.003464,24.342247 44.419720,22.285202 47.371887,20.262989 
	C59.787575,34.905457 72.101189,49.557182 84.564087,64.080795 
	C93.086121,74.011932 101.898506,83.693748 110.431526,93.615662 
	C119.983582,104.722473 129.282242,116.047859 138.883789,127.110970 
	C141.248703,129.835907 141.696625,131.799820 138.422318,133.931473 
	C113.303299,104.844299 88.138489,75.704094 62.735764,46.300964 
z"/>
</svg>