<svg version="1.1" id="Layer_1" xmlns="http://www.w3.org/2000/svg" xmlns:xlink="http://www.w3.org/1999/xlink" x="0px" y="0px"
	 width="100%" viewBox="0 0 178 176" enable-background="new 0 0 178 176" xml:space="preserve">
<path fill="#FEFEFE" opacity="1.000000" stroke="none" 
	d="
M125.000000,177.000000 
	C83.333336,177.000000 42.166672,177.000000 1.000005,177.000000 
	C1.000004,118.333336 1.000004,59.666679 1.000002,1.000013 
	C60.333324,1.000009 119.666649,1.000009 178.999969,1.000005 
	C178.999985,59.666653 178.999985,118.333305 179.000000,176.999969 
	C161.166672,177.000000 143.333328,177.000000 125.000000,177.000000 
M107.095367,59.601059 
	C112.993309,52.423717 118.916924,45.267242 124.775650,38.058033 
	C126.905479,35.437271 128.562714,32.346554 131.007172,30.089268 
	C134.017105,27.309795 133.493942,25.472778 130.454391,23.477690 
	C99.684952,60.812103 68.931999,98.126534 38.074589,135.567688 
	C38.899586,136.906082 39.781052,138.336060 40.678173,139.791458 
	C62.764519,113.127144 84.703644,86.640572 107.095367,59.601059 
z"/>
<path fill="#0D0D0D" opacity="1.000000" stroke="none" 
	d="
M106.869064,59.877525 
	C84.703644,86.640572 62.764519,113.127144 40.678173,139.791458 
	C39.781052,138.336060 38.899586,136.906082 38.074589,135.567688 
	C68.931999,98.126534 99.684952,60.812103 130.454391,23.477690 
	C133.493942,25.472778 134.017105,27.309795 131.007172,30.089268 
	C128.562714,32.346554 126.905479,35.437271 124.775650,38.058033 
	C118.916924,45.267242 112.993309,52.423717 106.869064,59.877525 
z"/>
</svg>