<?xml version="1.0" encoding="UTF-8"?>
<svg version="1.1" xmlns="http://www.w3.org/2000/svg" width="203" height="188">
<path d="M0 0 C66.99 0 133.98 0 203 0 C203 62.04 203 124.08 203 188 C136.01 188 69.02 188 0 188 C0 125.96 0 63.92 0 0 Z " fill="#FDFDFD" transform="translate(0,0)"/>
<path d="M0 0 C13.94498813 -0.02355538 27.88997308 -0.04102183 41.83497715 -0.05181217 C48.31259929 -0.05699516 54.7902079 -0.06400782 61.26782227 -0.07543945 C67.53781705 -0.0864334 73.80779897 -0.0923112 80.07780266 -0.09487724 C82.45075622 -0.09670214 84.82370921 -0.10026434 87.19665718 -0.10573006 C100.09100768 -0.13420537 112.93411362 -0.00700767 125.81037998 0.73712826 C126.69895663 0.78504796 127.58753328 0.83296766 128.5030365 0.88233948 C129.27821593 0.92884927 130.05339537 0.97535906 130.85206509 1.02327824 C133.05897735 0.99936083 134.88968102 0.62287134 137 0 C137 1.65 137 3.3 137 5 C91.79 5 46.58 5 0 5 C-0.33 4.01 -0.66 3.02 -1 2 C-0.67 1.34 -0.34 0.68 0 0 Z " fill="#171717" transform="translate(29,92)"/>
</svg>
