<?xml version="1.0" encoding="UTF-8"?>
<svg version="1.1" xmlns="http://www.w3.org/2000/svg" width="204" height="201">
<path d="M0 0 C67.32 0 134.64 0 204 0 C204 66.33 204 132.66 204 201 C136.68 201 69.36 201 0 201 C0 134.67 0 68.34 0 0 Z " fill="#FDFDFD" transform="translate(0,0)"/>
<path d="M0 0 C0.99 0 1.98 0 3 0 C3.9076457 8.08941734 4.11127562 16.04769291 4.02172852 24.18237305 C4.01212097 25.45194351 4.00251343 26.72151398 3.99261475 28.02955627 C3.96641865 31.47513045 3.93358489 34.92061174 3.89946485 38.36611533 C3.86483571 41.98019457 3.83644206 45.59432297 3.80735779 49.20845032 C3.75147869 56.03632517 3.69007559 62.86413846 3.62663645 69.6919468 C3.55462304 77.4719454 3.48884604 85.25199294 3.42356598 93.03205049 C3.28926572 109.02143098 3.14722113 125.01073293 3 141 C1.68 141.33 0.36 141.66 -1 142 C-1.03043884 127.52084271 -1.05091784 113.04168484 -1.0625 98.5625 C-1.06335602 97.49986057 -1.06421204 96.43722115 -1.06509399 95.34238052 C-1.08774151 63.54945445 -0.96531307 31.78087912 0 0 Z " fill="#000000" transform="translate(98,29)"/>
</svg>
