<svg version="1.1" id="Layer_1" xmlns="http://www.w3.org/2000/svg" xmlns:xlink="http://www.w3.org/1999/xlink" x="0px" y="0px"
	 width="100%" viewBox="0 0 144 176" enable-background="new 0 0 144 176" xml:space="preserve">
<path fill="#000000" opacity="1.000000" stroke="none" 
	d="
M88.167831,145.884979 
	C76.465103,136.457352 71.613472,116.769859 77.143440,101.914238 
	C78.236275,98.978485 79.635223,96.156677 80.915207,93.231583 
	C73.034332,91.626350 64.999908,92.546539 56.979053,92.743797 
	C48.125725,92.961540 39.269081,93.054138 30.417061,93.310951 
	C26.572500,93.422493 26.722128,90.865913 26.721989,88.286476 
	C26.721176,73.291023 26.796183,58.294933 26.672215,43.300491 
	C26.631142,38.332443 26.009537,33.371620 25.787445,28.401503 
	C25.692078,26.267307 25.467449,23.745981 28.788370,23.805126 
	C32.364346,23.868814 31.845913,26.474819 31.842756,28.832224 
	C31.817179,47.944790 31.828394,67.057404 31.828394,85.761383 
	C37.589378,89.200012 42.866764,86.931236 48.053574,86.873535 
	C57.871902,86.764328 67.691269,86.692230 77.510002,86.711739 
	C80.220367,86.717125 81.976929,86.149773 82.120293,82.949440 
	C82.200310,81.163338 81.554771,78.165634 84.356384,78.222832 
	C87.281212,78.282539 85.910309,81.276840 86.338326,83.019600 
	C86.487381,83.626511 86.632240,84.234467 86.891998,85.309563 
	C92.604195,81.635483 98.247284,78.582687 104.893143,78.400299 
	C114.949020,78.124313 122.958710,82.008026 129.447342,89.768242 
	C138.295303,100.350151 140.106949,112.437241 137.457962,125.369232 
	C135.168350,136.546783 124.066353,151.795532 110.093941,152.853409 
	C101.723335,153.487152 94.757912,151.286865 88.167831,145.884979 
M79.510086,113.793938 
	C79.677559,124.687653 83.079842,133.839172 91.570610,141.438843 
	C100.516586,149.445953 117.793594,148.798325 125.818214,137.328293 
	C135.076706,124.094612 136.411179,110.667389 127.469582,96.656036 
	C118.294312,82.278503 101.116653,80.069778 88.501930,92.342316 
	C82.779953,97.909081 80.624214,105.225555 79.510086,113.793938 
z"/>
</svg>