<svg version="1.1" id="Layer_1" xmlns="http://www.w3.org/2000/svg" xmlns:xlink="http://www.w3.org/1999/xlink" x="0px" y="0px"
	 width="100%" viewBox="0 0 160 160" enable-background="new 0 0 160 160" xml:space="preserve">
<path fill="#000000" opacity="1.000000" stroke="none" 
	d="
M79.748123,145.264862 
	C75.599556,145.120407 76.749992,142.123459 76.736725,140.125931 
	C76.628304,123.804787 76.672142,107.482628 76.669800,91.160782 
	C76.669487,89.013588 76.669754,86.866394 76.669754,84.734329 
	C74.298752,84.023323 72.808098,85.332588 71.342125,86.203026 
	C50.295231,98.700035 29.684111,81.441658 25.970722,63.958488 
	C23.284595,51.311817 24.103470,38.762642 32.373055,28.315447 
	C43.453907,14.316702 61.887333,9.878695 77.080193,24.726969 
	C89.847916,37.205120 91.487251,57.316837 83.419479,73.265999 
	C83.059540,73.977562 82.734543,74.706787 82.099174,76.049126 
	C90.591499,74.669098 98.628693,77.464088 106.554581,75.029312 
	C106.708290,74.982094 106.891243,74.982346 107.051506,75.011009 
	C115.082108,76.447380 123.111008,74.937569 131.140625,74.943474 
	C134.912796,74.946251 136.078690,76.672653 136.069839,80.126137 
	C136.018219,100.278381 136.061371,120.430862 136.018723,140.583145 
	C136.014664,142.502914 136.273422,145.068726 133.319382,144.973145 
	C130.385269,144.878250 130.845856,142.314377 130.841934,140.403061 
	C130.805740,122.748901 130.832047,105.094612 130.797485,87.440445 
	C130.793655,85.479477 131.222260,83.439400 129.983719,81.215233 
	C115.343002,82.788292 100.507179,81.704491 85.687691,82.116592 
	C82.007011,82.218941 81.277290,83.795685 81.295158,87.021599 
	C81.392044,104.508751 81.360413,121.996788 81.308319,139.484329 
	C81.302628,141.394394 81.964561,143.536636 79.748123,145.264862 
M77.685486,33.870663 
	C77.034836,33.112671 76.329391,32.394745 75.741653,31.590763 
	C64.562393,16.298325 41.580490,19.563129 33.274460,36.947250 
	C28.506283,46.926815 28.921875,57.155548 32.778030,67.426216 
	C39.312271,84.829826 62.236847,90.737946 76.030983,74.775406 
	C84.197662,65.324944 87.449753,48.265728 77.685486,33.870663 
z"/>
</svg>