<svg version="1.1" id="Layer_1" xmlns="http://www.w3.org/2000/svg" xmlns:xlink="http://www.w3.org/1999/xlink" x="0px" y="0px"
	 width="100%" viewBox="0 0 158 148" enable-background="new 0 0 158 148" xml:space="preserve">
<path fill="none" opacity="1.000000" stroke="#000000" stroke-linecap="round" stroke-linejoin="round" stroke-width="3.000000"
	d="
M84.500000,23.500000 
	C82.500038,23.433355 82.989326,24.921867 83.015038,25.999641 
	C83.325142,39.000195 83.668701,51.999947 83.998222,65.000046 
	C84.061760,67.506599 82.478333,69.374588 81.556770,71.524338 
	C77.477707,81.039711 77.190483,91.165520 83.242737,99.319832 
	C92.358856,111.602142 108.988266,109.189209 115.412537,95.459076 
	C120.003471,85.647186 118.032845,74.066490 110.481323,66.017525 
	C106.100990,61.348648 97.644150,60.109604 91.498878,62.997616 
	C89.339233,64.012558 87.166664,65.000000 85.000000,66.000000 
"/>
<path fill="none" opacity="1.000000" stroke="#000000" stroke-linecap="round" stroke-linejoin="round" stroke-width="3.000000"
	d="
M46.000000,23.500000 
	C46.306206,36.331520 45.468521,49.171505 46.452824,62.003620 
	C46.873047,67.481972 46.637978,67.500000 52.000000,67.500000 
	C60.500000,67.500000 69.000175,67.471336 77.499863,67.522720 
	C79.334137,67.533806 81.166664,67.833336 83.000000,68.000000 
"/>
</svg>