<svg version="1.1" id="Layer_1" xmlns="http://www.w3.org/2000/svg" xmlns:xlink="http://www.w3.org/1999/xlink" x="0px" y="0px"
	 width="100%" viewBox="0 0 144 160" enable-background="new 0 0 144 160" xml:space="preserve">
<path fill="#000000" opacity="1.000000" stroke="none" 
	d="
M80.566360,19.314178 
	C80.595581,16.929878 80.455757,14.926786 80.688011,12.967806 
	C80.899788,11.181393 81.204117,9.069748 83.788788,9.271160 
	C86.008652,9.444145 86.203568,11.209723 86.229721,12.958515 
	C86.442673,27.198271 87.037819,41.448536 86.652809,55.672222 
	C86.517662,60.664879 87.672539,65.517563 87.139145,70.618828 
	C91.861298,70.195992 94.978439,66.332214 99.634010,65.413452 
	C116.026596,62.178410 130.101608,72.737900 134.756271,85.981636 
	C139.516907,99.526863 139.626602,113.515228 130.925720,125.595291 
	C119.017723,142.128067 100.034546,145.159714 85.314262,130.153854 
	C72.984459,117.584869 72.502434,102.109795 77.523598,86.062263 
	C78.020134,84.475334 78.642517,82.928108 79.168793,81.349884 
	C79.266273,81.057533 79.182709,80.704819 79.182709,80.048676 
	C75.292801,78.308189 71.098633,79.547279 67.139740,79.460533 
	C57.011612,79.238602 46.853699,78.778488 36.718666,79.967140 
	C34.168114,80.266266 31.456900,79.611755 28.874578,79.111359 
	C26.063993,78.566711 26.716824,76.097916 26.705917,74.230804 
	C26.642662,63.402840 26.798683,52.572403 26.632586,41.746609 
	C26.495352,32.801991 25.971931,23.863844 25.721399,14.919979 
	C25.669376,13.062748 25.085407,10.402328 28.155176,10.430106 
	C31.286154,10.458438 30.419281,13.124258 30.454630,14.970712 
	C30.799969,33.009083 31.175505,51.047478 31.363400,69.087738 
	C31.399944,72.596519 32.692669,73.712395 36.103256,73.680283 
	C49.429180,73.554832 62.757122,73.625214 76.084221,73.659081 
	C78.588669,73.665443 80.862190,73.586922 80.840179,70.164177 
	C80.732018,53.347752 80.650421,36.531151 80.566360,19.314178 
M127.339561,83.215157 
	C125.836205,81.437218 124.285286,79.697060 122.837708,77.874809 
	C116.430855,69.809753 102.899872,69.476562 96.796364,72.564499 
	C77.502823,82.325645 75.138222,104.619850 83.759644,119.582993 
	C91.841293,133.609329 107.787018,137.586166 119.430389,129.195572 
	C134.258179,118.510178 137.308029,98.929413 127.339561,83.215157 
z"/>
</svg>