<svg version="1.1" id="Layer_1" xmlns="http://www.w3.org/2000/svg" xmlns:xlink="http://www.w3.org/1999/xlink" x="0px" y="0px"
	 width="100%" viewBox="0 0 256 352" enable-background="new 0 0 256 352" xml:space="preserve">
<path fill="#000000" opacity="1.000000" stroke="none" 
	d="
M117.458069,353.000000 
	C114.615768,351.260773 113.068695,349.169830 113.574440,345.962311 
	C113.782776,344.640991 113.509407,343.251984 112.153343,342.472260 
	C107.871025,340.010040 107.422752,335.300720 105.809753,331.359344 
	C103.500107,325.715637 100.070877,320.611969 97.805908,315.032684 
	C94.563248,307.045074 88.957771,300.315674 86.525986,291.872864 
	C85.010750,286.612183 82.409851,281.491302 79.370972,276.923157 
	C78.060883,274.953766 78.062828,272.975861 77.159134,271.140015 
	C75.399086,267.564453 74.629128,263.359680 70.750259,261.101807 
	C70.274544,260.824890 69.903870,260.054810 69.819695,259.465424 
	C68.763008,252.066254 65.572823,245.563690 61.943329,239.120209 
	C59.691448,235.122406 58.762245,230.389389 56.588783,226.335129 
	C53.836384,221.200958 51.929092,215.614487 48.388115,210.894394 
	C47.000706,209.044998 47.211582,206.620087 46.257462,204.473312 
	C44.000824,199.395996 42.189064,194.214569 37.900959,190.384766 
	C35.788322,188.497940 36.264233,185.567856 35.075497,183.187057 
	C31.181993,175.389252 28.052393,167.220490 24.213263,159.360260 
	C22.439070,155.727753 22.696234,150.967316 26.937382,148.914352 
	C32.175217,146.378952 36.168594,141.016220 42.835342,141.565720 
	C43.872265,141.651184 44.911140,141.243774 45.370110,140.266556 
	C47.145290,136.486923 50.082592,135.051498 54.167397,135.461105 
	C54.827717,135.527313 55.634914,134.830917 56.269165,134.348831 
	C64.736458,127.912766 72.854477,120.921539 81.840874,115.322731 
	C84.516029,113.656029 87.811020,110.426819 92.040329,111.548958 
	C92.326019,111.624756 92.861732,111.538269 92.982582,111.342720 
	C97.773056,103.591263 107.954865,104.693878 114.084976,98.032242 
	C118.167992,93.595200 124.576668,90.157654 130.497971,86.926033 
	C136.179855,83.825050 142.279861,81.349663 147.686905,77.820877 
	C150.904984,75.720665 155.600861,75.222099 157.033615,70.646843 
	C157.167755,70.218513 158.152664,69.741493 158.683517,69.802330 
	C162.995483,70.296463 165.022873,66.917282 168.099731,65.085175 
	C173.588409,61.816940 178.213272,57.328423 184.024231,54.532372 
	C187.991638,52.623379 192.404099,51.052586 195.301392,47.466740 
	C196.411758,46.092499 197.519638,45.566254 199.074310,45.660095 
	C201.262756,45.792187 202.653946,44.759918 204.197571,43.239830 
	C206.212708,41.255386 208.284943,38.816982 211.807373,39.556870 
	C212.789932,39.763252 213.787994,39.270779 214.383362,38.342384 
	C218.378693,32.112148 225.658524,31.020283 231.349884,27.443468 
	C232.996658,26.408524 235.261383,25.379576 235.849991,23.821651 
	C237.604401,19.178047 242.447388,18.911285 245.580368,16.302969 
	C247.408401,14.781055 249.746140,15.214751 250.419250,18.783070 
	C251.347244,23.702644 248.030075,27.150568 246.549637,31.025991 
	C243.024261,40.254517 238.303940,48.888721 236.975739,59.030602 
	C236.357681,63.749752 233.212067,68.547829 230.593674,72.592682 
	C227.702591,77.058762 228.574463,81.939598 226.462570,86.291260 
	C224.120468,91.117325 223.463623,96.553001 221.104279,101.572144 
	C218.646820,106.800056 214.921860,111.878952 215.261414,118.288887 
	C215.428970,121.451721 212.749268,123.827965 211.480576,126.479126 
	C209.490128,130.638611 207.342026,134.594162 207.426376,139.202652 
	C207.481277,142.203140 205.125351,143.835632 204.057693,145.993454 
	C200.139236,153.912994 198.524933,162.683212 194.169449,170.476120 
	C192.385254,173.668411 189.448090,177.094666 190.185013,181.679260 
	C190.630020,184.447723 187.653183,186.206543 186.873642,189.023499 
	C185.482117,194.051971 185.201462,199.766724 180.108856,203.529495 
	C177.820938,205.219971 178.812241,209.463120 178.304291,212.348709 
	C177.484909,217.003357 174.091095,220.765854 174.384232,225.487244 
	C174.548370,228.130875 172.107010,228.883392 171.300949,230.895676 
	C168.450699,238.011169 167.538467,245.507584 165.739304,252.791748 
	C164.549683,257.608032 164.350235,263.991180 158.841034,267.669128 
	C155.529861,269.879608 157.625076,274.678070 155.735046,278.242645 
	C152.649551,284.061859 151.347473,290.797577 148.682556,296.879150 
	C146.949142,300.834930 147.054977,305.137115 144.648056,309.109375 
	C141.297928,314.638275 139.235123,321.086304 137.449814,327.376099 
	C136.229294,331.676056 133.001160,335.081421 133.025681,340.052490 
	C133.039368,342.830109 130.605362,345.804932 128.779053,348.333130 
	C127.775246,349.722717 127.290901,350.798950 127.893143,352.676422 
	C124.638710,353.000000 121.277428,353.000000 117.458069,353.000000 
M113.032875,323.656097 
	C115.886932,329.165741 118.550385,334.759766 120.575836,340.752777 
	C120.734108,336.281799 124.768852,333.817200 125.834167,329.673584 
	C126.546478,326.902985 125.476097,323.673492 127.229927,321.513550 
	C132.010010,315.626526 132.661499,308.114655 135.690277,301.559418 
	C138.401825,295.690796 138.689392,288.985535 142.960770,283.505798 
	C145.711838,279.976501 147.627777,275.256653 148.361465,270.813385 
	C149.654922,262.980103 152.751160,255.877411 155.746201,248.728027 
	C156.567352,246.767853 156.436859,244.691727 157.650146,242.729355 
	C160.111328,238.748672 163.386917,234.894104 162.704590,229.600357 
	C162.582230,228.651108 162.626541,227.451675 163.105606,226.689301 
	C167.458542,219.761932 168.710754,211.811279 170.661316,204.100128 
	C170.971420,202.874237 171.528595,202.126068 172.418564,201.295914 
	C173.773285,200.032272 174.206650,198.211594 172.553955,196.977936 
	C171.041199,195.848785 169.302185,196.249878 168.326736,198.050156 
	C165.646423,202.996964 159.077454,203.224792 156.258514,208.030289 
	C156.046494,208.391724 154.985535,208.425980 154.355103,208.342194 
	C151.284409,207.934189 149.366776,209.466858 147.938980,211.944260 
	C147.278580,213.090134 146.346466,213.740845 145.115662,214.437744 
	C140.085037,217.286087 133.584183,217.058533 129.628464,222.469910 
	C128.535706,223.964798 125.746651,225.405411 123.568359,226.111404 
	C118.254372,227.833649 114.208534,231.465622 109.847885,234.546402 
	C106.570412,236.861908 103.171730,238.773239 99.720451,240.745499 
	C96.510529,242.579849 92.920151,242.737976 89.911263,244.422394 
	C85.757408,246.747757 81.799522,249.507660 79.415329,253.321350 
	C82.118340,258.978943 84.840340,264.418335 87.313179,269.968719 
	C88.430908,272.477509 88.487587,275.607758 90.011086,277.757782 
	C93.855804,283.183533 96.924370,289.075409 99.930748,294.894470 
	C104.652824,304.034485 108.297401,313.731171 113.032875,323.656097 
M203.051178,122.668968 
	C204.684448,117.843880 206.003128,112.881912 208.028320,108.227341 
	C210.737106,102.001625 211.129211,94.750740 216.189346,89.540077 
	C216.577637,89.140213 216.591080,88.280106 216.605362,87.630127 
	C216.663193,84.997993 217.866348,82.804863 218.716278,80.447182 
	C219.854523,77.289673 223.250977,75.024025 222.633759,71.249634 
	C221.656616,65.274261 225.760727,60.525482 226.738571,54.943211 
	C227.244141,52.057011 226.129471,48.233063 228.661057,46.062485 
	C231.444336,43.676125 230.532471,41.522846 229.078568,37.924660 
	C226.474899,43.728497 221.802643,46.311058 217.039612,48.339638 
	C212.363708,50.331108 208.645630,53.799488 203.815399,55.607380 
	C199.027786,57.399330 194.597275,60.320549 190.286911,63.165764 
	C185.471924,66.344093 180.468140,69.192924 175.790649,72.706032 
	C170.074524,76.999245 164.071396,81.596054 157.180588,84.499214 
	C152.871017,86.314888 149.077682,89.335869 144.801865,91.258003 
	C141.355515,92.807251 139.614304,96.839851 142.552383,99.158783 
	C148.629837,103.955521 148.403610,111.790375 152.282547,117.610413 
	C154.466217,120.886826 155.312912,125.086815 157.624176,128.238342 
	C161.493622,133.514496 163.419388,139.673355 166.521027,145.255951 
	C168.470810,148.765350 166.910721,153.403915 169.332611,155.984848 
	C174.875992,161.892242 178.811829,168.365173 180.165161,176.489990 
	C182.257843,174.723526 184.915100,174.016663 184.735947,170.482193 
	C184.386902,163.596100 188.204590,157.519012 190.592148,151.587814 
	C194.066467,142.956833 198.843689,134.830399 200.773422,125.553665 
	C201.005035,124.440140 201.716370,123.856819 203.051178,122.668968 
M113.868172,111.688202 
	C112.404099,112.924004 110.346344,112.058296 108.765442,113.361038 
	C103.023979,118.092285 96.031158,120.761230 89.635696,124.402885 
	C83.632484,127.821182 77.226158,130.811279 71.401413,134.348053 
	C65.467033,137.951401 60.303886,143.169815 54.263332,146.932388 
	C49.965679,149.609344 45.601650,152.340347 40.934757,154.223083 
	C35.153912,156.555222 33.671108,160.566055 38.060863,164.844162 
	C39.456032,166.203842 40.725792,167.186264 40.348789,169.275711 
	C39.541389,173.750534 42.651039,177.238754 44.732624,180.061447 
	C48.907627,185.722931 50.667763,192.403885 54.249950,198.236786 
	C56.941917,202.620148 57.464054,208.378418 60.143032,212.376144 
	C65.280090,220.041931 65.739693,229.301193 70.285500,237.014221 
	C71.131317,238.449356 71.596344,239.672729 73.396858,239.463470 
	C75.027023,239.274033 75.449280,238.064255 75.597305,236.603439 
	C75.809647,234.507950 75.403801,232.426880 76.726280,230.367340 
	C81.020927,223.679047 82.095192,215.635223 86.186020,208.646301 
	C90.365158,201.506470 90.840775,192.450638 96.169525,185.545395 
	C96.777962,184.756958 96.564857,183.303848 96.654472,182.152832 
	C96.793091,180.372543 97.203270,178.944458 98.282486,177.250244 
	C101.160042,172.732925 104.092255,167.908707 105.361336,162.798813 
	C106.804733,156.987076 110.055893,151.998459 111.427437,146.048187 
	C112.552765,141.166077 113.999718,135.581879 116.925652,131.084457 
	C118.836021,128.148026 117.505356,124.481186 119.065018,122.134964 
	C122.797348,116.520325 124.967110,110.597656 125.545311,103.834160 
	C122.548546,102.862793 120.219086,103.294144 118.430275,106.301971 
	C117.373070,108.079651 115.674408,109.475838 113.868172,111.688202 
M116.133110,160.418472 
	C113.393219,164.050095 112.913986,168.711655 111.772430,172.768936 
	C110.530792,177.181946 109.179146,181.911819 106.516083,184.888123 
	C102.670067,189.186554 104.276146,194.960190 100.735443,199.274414 
	C99.541336,200.729370 97.001389,202.966034 97.249847,206.296417 
	C97.735344,212.803757 91.308098,217.053467 90.854889,223.431122 
	C90.838257,223.665237 90.177391,223.859055 90.167221,224.087296 
	C90.027992,227.210129 85.316116,229.927368 89.376595,233.945923 
	C91.812508,230.510773 95.555473,229.349152 98.745499,227.947311 
	C106.147804,224.694427 114.001137,222.511215 118.666977,215.115860 
	C118.922752,214.710464 119.249695,214.177200 119.648193,214.060303 
	C126.450394,212.064804 132.135101,207.829102 138.170975,204.418991 
	C142.811569,201.797150 147.770645,199.797592 152.210861,196.601425 
	C157.069931,193.103760 162.727875,190.772766 167.509796,186.877808 
	C170.587082,184.371307 171.809601,181.958221 169.338425,178.602051 
	C168.863861,177.957535 167.839111,177.292831 167.906464,176.739471 
	C168.696167,170.252136 164.701904,165.223221 162.328491,159.889572 
	C161.011276,156.929459 160.240463,153.353638 157.338867,150.900894 
	C155.612305,149.441406 154.239517,147.069061 154.603867,144.262497 
	C154.789841,142.829834 155.072617,141.023849 153.740204,140.017609 
	C147.186661,135.068298 147.473236,126.498009 143.197372,120.442505 
	C140.976303,117.296997 141.092072,112.480904 136.562469,110.995499 
	C134.527740,113.566162 130.605194,114.756226 130.380585,118.774651 
	C130.088867,123.993484 127.681221,128.669754 126.064766,133.422684 
	C123.040932,142.313782 118.475723,150.677628 116.133110,160.418472 
z"/>
</svg>