<svg version="1.1" id="Layer_1" xmlns="http://www.w3.org/2000/svg" xmlns:xlink="http://www.w3.org/1999/xlink" x="0px" y="0px"
	 width="100%" viewBox="0 0 256 320" enable-background="new 0 0 256 320" xml:space="preserve">
<path fill="#000000" opacity="1.000000" stroke="none" 
	d="
M180.097397,193.159348 
	C178.458313,196.142731 175.055466,196.878281 173.086624,197.651733 
	C169.491196,199.064224 167.613693,201.235199 165.458237,203.971680 
	C163.965240,205.867142 162.047958,208.098892 158.830673,207.437027 
	C157.496109,207.162491 156.339661,207.779572 155.359467,208.933609 
	C153.114517,211.576721 150.763397,214.134628 146.701660,213.488678 
	C145.665237,213.323868 145.032379,214.128464 144.340408,214.968246 
	C142.271118,217.479645 140.128738,219.996445 136.260117,219.447830 
	C134.793930,219.239929 134.037979,220.419556 133.057663,221.398987 
	C129.795334,224.658325 126.106949,227.346588 121.513908,228.549805 
	C120.777626,228.742676 119.955040,229.250977 119.523346,229.861603 
	C115.373390,235.731750 108.522659,237.298401 102.687088,240.443451 
	C99.976433,241.904358 97.993256,243.983368 96.427261,246.465240 
	C95.038322,248.666504 93.349937,249.698593 90.716621,249.404556 
	C87.699478,249.067627 85.223259,249.519775 83.026108,252.364868 
	C79.600197,256.801147 73.862106,258.186981 69.192780,260.931824 
	C64.027618,263.968109 59.274975,267.486206 54.960434,271.433960 
	C52.132465,274.021515 49.155926,274.027069 46.875286,272.719116 
	C44.564808,271.394073 46.166313,268.540741 46.793331,266.061096 
	C48.443859,259.533936 52.032707,253.741913 54.442471,247.625671 
	C56.868000,241.469437 58.122730,234.833862 60.954021,228.709824 
	C63.389183,223.442596 64.604088,217.211121 66.384804,211.421783 
	C68.991234,202.947922 72.823601,194.939102 76.138199,186.738495 
	C78.059158,181.985855 80.223534,177.077545 80.779282,171.728439 
	C81.107368,168.570602 83.338409,165.938248 84.653481,163.069916 
	C87.371094,157.142456 90.686913,151.401871 91.492882,144.897797 
	C91.853951,141.983978 94.212204,140.723312 94.932564,138.046143 
	C96.646416,131.676620 99.213356,125.450897 101.589767,119.295486 
	C103.934608,113.221840 108.083542,107.140038 107.592957,100.068794 
	C107.418732,97.557564 109.519791,96.779694 110.355446,95.092903 
	C112.809570,90.139198 113.645920,84.607323 116.240921,79.605927 
	C117.602036,76.982635 117.934509,73.300545 118.346489,70.176422 
	C119.032532,64.974037 121.381088,60.897251 123.952805,56.622776 
	C125.706497,53.707932 124.088776,49.818233 126.441040,46.696247 
	C129.608276,42.492599 128.653976,36.478031 132.197449,32.277374 
	C132.654968,31.735023 132.483093,30.678986 132.649765,29.870592 
	C133.040359,27.976263 131.654266,25.176657 135.092880,24.799339 
	C138.346832,24.442284 139.903717,27.073812 141.043381,29.168421 
	C144.674225,35.841553 147.146683,43.024529 151.515427,49.463898 
	C154.032501,53.173992 155.567383,58.031033 157.299133,62.482750 
	C159.360153,67.780876 161.273575,73.344719 164.512817,77.895134 
	C166.346176,80.470589 166.914032,83.328903 167.819321,85.836090 
	C171.216553,95.244392 176.624115,103.682716 180.168015,113.068863 
	C182.370758,118.902878 184.075394,126.002274 189.757278,130.386047 
	C190.335190,130.831924 190.399979,132.291122 190.281448,133.226685 
	C189.912247,136.141083 190.964859,138.211853 193.243805,140.035690 
	C195.079819,141.505020 196.129745,143.360931 196.773071,145.981384 
	C197.699966,149.756958 200.117249,153.156342 202.355347,156.572052 
	C205.486023,161.349945 207.698151,166.974060 209.144196,172.537384 
	C210.397232,177.358185 207.729797,179.894684 202.624298,182.157440 
	C196.841095,184.720566 191.228989,188.225723 185.577301,191.385376 
	C183.857254,192.346970 181.996063,192.021942 180.097397,193.159348 
M115.405022,135.722824 
	C116.051460,135.575821 116.925224,135.648499 117.310898,135.249451 
	C125.575958,126.697884 136.116928,122.054253 146.700897,117.194664 
	C150.280823,115.550964 155.335236,114.718414 156.932312,109.730209 
	C157.345947,108.438332 159.157211,109.096649 159.968292,108.497452 
	C162.553009,106.587936 167.152756,106.387978 167.111923,102.202950 
	C167.086945,99.641998 165.184387,97.142303 164.375839,94.537254 
	C162.617691,88.872597 156.905930,85.690300 155.586731,79.578743 
	C154.454269,74.332352 150.757782,69.942978 148.829010,64.959602 
	C145.915497,57.432041 143.955307,49.510887 136.955002,44.612053 
	C121.977287,76.516655 115.149391,111.384369 101.012733,143.892624 
	C103.404427,144.920013 104.831001,144.674759 105.985321,142.309418 
	C106.989479,140.251755 108.360039,138.262299 111.256073,138.531250 
	C113.098099,138.702332 113.491631,136.764694 115.405022,135.722824 
M76.650841,245.943954 
	C81.672768,245.234421 83.983086,240.421371 88.102776,238.122421 
	C90.890694,236.566650 94.341461,238.127686 96.205887,235.501801 
	C100.142189,229.957825 106.903259,228.716766 112.158508,225.252029 
	C114.902191,223.443161 116.882919,221.211380 119.327896,219.376160 
	C123.972511,215.889832 119.981850,213.948959 118.777840,211.388062 
	C118.578613,210.964310 118.775444,210.365753 118.611641,209.912094 
	C117.622742,207.173233 116.860527,204.303894 115.497330,201.759567 
	C113.113655,197.310577 113.394653,191.263290 107.827759,188.650238 
	C107.589539,188.538406 107.774033,187.679504 107.616974,187.217804 
	C105.820496,181.936615 103.317696,176.999527 100.831474,172.008591 
	C99.182014,168.697372 96.436005,165.681076 96.339828,161.332703 
	C92.207512,164.312851 91.616653,169.110458 89.300568,172.842911 
	C86.792641,176.884537 88.017487,181.862732 85.039078,186.061371 
	C83.596710,188.094681 80.976303,190.863571 81.397682,194.210007 
	C81.858208,197.867371 80.957214,200.970474 78.148323,203.428299 
	C75.334274,205.890594 77.616257,209.999390 75.767456,212.249603 
	C70.797844,218.298157 70.925529,226.332474 67.096031,232.632324 
	C65.040245,236.014267 66.823685,240.384628 64.337563,242.861481 
	C60.412380,246.771988 64.849167,252.707260 59.780712,255.939270 
	C63.380360,254.642670 66.213890,252.533493 68.552277,250.467667 
	C70.920883,248.375137 74.849258,249.896530 76.650841,245.943954 
M144.428497,186.574600 
	C144.247437,190.197144 141.416443,192.472656 139.901184,195.415939 
	C138.033157,199.044434 136.074341,202.624023 136.400787,206.886353 
	C136.560562,208.972656 137.566620,209.875153 139.765045,209.018677 
	C147.577927,205.974854 152.794693,198.199188 161.647659,197.014725 
	C162.117157,196.951904 162.488724,196.057587 162.880920,195.531754 
	C167.307602,189.597183 174.469116,187.600525 180.441849,184.136536 
	C185.004089,181.490555 188.191391,175.583221 194.901184,176.619415 
	C195.569397,176.722595 197.243332,174.813065 198.932236,174.382614 
	C200.757538,173.917404 201.286560,171.624100 200.182861,170.821945 
	C196.437653,168.099960 195.953857,163.634720 193.878738,160.078461 
	C191.021286,155.181488 188.950165,149.821426 186.602829,144.632309 
	C184.496140,139.975113 182.298630,135.347626 180.457413,130.584778 
	C178.473465,125.452728 174.323227,121.569397 172.668579,116.154640 
	C171.267578,118.417198 168.553116,118.964935 168.166275,122.356438 
	C167.323456,129.745636 165.657059,136.914932 161.291016,143.489166 
	C159.705673,145.876358 157.280884,148.845566 157.337509,152.442261 
	C157.438828,158.877869 153.394089,163.823196 150.928406,169.296249 
	C149.390442,172.710068 147.423386,175.989349 147.463821,179.764267 
	C147.493011,182.490509 146.938461,184.525711 144.428497,186.574600 
M140.672974,172.491013 
	C141.586548,168.198715 144.553848,164.890030 146.234085,161.037277 
	C149.654739,153.193695 150.826462,144.401367 156.269882,137.373856 
	C156.709122,136.806808 156.640411,135.767181 156.635300,134.948227 
	C156.606888,130.401535 159.120178,126.903030 161.550705,123.461067 
	C162.701889,121.830841 162.714035,120.639313 161.848969,119.099449 
	C158.883438,120.943100 156.246506,122.726387 153.477921,124.274162 
	C147.421539,127.659981 140.136169,129.108627 136.028290,135.557907 
	C135.656937,136.140915 134.621979,136.305023 133.890778,136.654449 
	C127.935043,139.500519 121.466324,141.519608 117.212112,147.101303 
	C116.843475,147.584961 116.151794,148.207687 115.671349,148.159225 
	C112.178574,147.806946 110.343025,150.974762 107.413673,152.018097 
	C103.189240,153.522690 101.928452,159.546341 104.619858,162.321320 
	C109.574188,167.429459 110.449463,174.668182 114.349915,180.279282 
	C117.567818,184.908478 118.472710,190.553391 121.333298,195.460892 
	C123.035172,198.380554 126.438644,200.840927 125.987717,204.904877 
	C128.704453,203.368088 129.502655,201.117615 129.596466,198.507736 
	C129.656586,196.835266 130.441025,195.664902 131.394424,194.214035 
	C135.608612,187.801056 137.831284,180.405136 140.672974,172.491013 
z"/>
</svg>