<svg version="1.1" id="Layer_1" xmlns="http://www.w3.org/2000/svg" xmlns:xlink="http://www.w3.org/1999/xlink" x="0px" y="0px"
	 width="100%" viewBox="0 0 207 197" enable-background="new 0 0 207 197" xml:space="preserve">
<path fill="#FEFEFE" opacity="1.000000" stroke="none" 
	d="
M189.001740,198.000000 
	C126.001335,198.000000 63.501400,198.000000 1.001101,198.000000 
	C1.000734,132.333893 1.000734,66.667786 1.000367,1.001259 
	C69.999367,1.000839 138.998734,1.000839 207.998566,1.000420 
	C207.999054,66.665962 207.999054,132.331924 207.999527,197.998947 
	C201.834061,198.000000 195.668137,198.000000 189.001740,198.000000 
M65.544312,92.979210 
	C56.381561,92.649551 47.215450,92.392067 38.057228,91.965271 
	C31.787926,91.673111 31.040470,92.259193 32.056976,97.913910 
	C48.952183,97.913910 65.913132,97.877892 82.873856,97.924492 
	C98.490776,97.967392 114.108101,98.039520 129.724014,98.211098 
	C141.578827,98.341354 153.438263,98.483620 165.282196,98.956963 
	C170.021362,99.146347 171.610336,97.533401 170.347366,92.979202 
	C135.751694,92.979202 101.141617,92.979202 65.544312,92.979210 
z"/>
<path fill="#0B0B0B" opacity="1.000000" stroke="none" 
	d="
M66.037926,92.979202 
	C101.141617,92.979202 135.751694,92.979202 170.347366,92.979202 
	C171.610336,97.533401 170.021362,99.146347 165.282196,98.956963 
	C153.438263,98.483620 141.578827,98.341354 129.724014,98.211098 
	C114.108101,98.039520 98.490776,97.967392 82.873856,97.924492 
	C65.913132,97.877892 48.952183,97.913910 32.056976,97.913910 
	C31.040470,92.259193 31.787926,91.673111 38.057228,91.965271 
	C47.215450,92.392067 56.381561,92.649551 66.037926,92.979202 
z"/>
</svg>