<svg version="1.1" id="Layer_1" xmlns="http://www.w3.org/2000/svg" xmlns:xlink="http://www.w3.org/1999/xlink" x="0px" y="0px"
	 width="100%" viewBox="0 0 256 288" enable-background="new 0 0 256 288" xml:space="preserve">
<path fill="#000000" opacity="1.000000" stroke="none" 
	d="
M238.051880,146.123871 
	C236.249222,146.498138 235.105682,146.807373 233.995636,148.228043 
	C232.140411,150.602448 229.998474,153.148682 226.234573,152.446442 
	C225.254974,152.263657 224.265457,152.724899 223.625198,153.620453 
	C220.564682,157.901413 215.325195,159.462662 211.730011,163.277710 
	C209.566589,165.573441 205.320511,165.020950 202.136551,167.039703 
	C198.423462,169.393951 195.911072,173.474731 190.949112,174.441971 
	C189.483856,174.727600 185.894653,178.360611 188.144958,182.163300 
	C188.446945,182.673599 188.476196,183.545700 188.272644,184.123810 
	C186.225082,189.938934 188.999222,195.677109 188.457977,201.526031 
	C187.892487,207.636902 188.335144,213.840881 188.333771,220.004166 
	C188.332367,226.334015 188.383316,232.664719 188.286057,238.993134 
	C188.259689,240.707809 189.075974,243.015091 186.959900,243.906799 
	C184.962021,244.748688 183.275223,244.220825 181.270874,242.491226 
	C177.867813,239.554642 173.341187,238.035965 169.342361,235.917389 
	C165.036560,233.636215 162.340149,229.373199 157.686768,227.807098 
	C153.974716,226.557785 151.082535,223.300568 146.827194,223.333893 
	C145.431641,223.344833 144.468231,222.852982 143.534714,221.600525 
	C139.755463,216.530106 133.088074,215.723724 128.495331,211.751572 
	C127.548615,210.932785 126.371666,211.764481 125.500099,212.734116 
	C123.088371,215.417236 120.668686,218.113647 116.453972,217.472839 
	C115.351959,217.305298 114.876152,218.359390 114.178101,219.091232 
	C110.841461,222.589508 107.011002,225.360840 102.179527,226.499054 
	C101.589249,226.638123 100.917656,227.038544 100.573479,227.523483 
	C96.278656,233.574875 89.333992,235.402359 83.196030,238.514771 
	C81.228004,239.512695 80.048126,241.692932 77.403557,241.820053 
	C76.088921,241.883255 75.495941,245.395218 73.638107,243.769714 
	C71.706390,242.079575 69.445198,240.432129 69.565422,236.950058 
	C69.875587,227.966003 69.655891,218.963669 69.650177,209.968643 
	C69.644676,201.306747 69.674202,192.644653 69.625786,183.983017 
	C69.598221,179.053192 65.900436,174.921021 61.389309,173.170349 
	C58.463608,172.034927 55.646748,170.459579 53.087517,168.176666 
	C49.768967,165.216431 45.493629,163.210007 41.640732,160.882904 
	C35.605034,157.237396 28.858168,154.888519 23.175869,150.490829 
	C21.134611,148.911041 18.671770,146.784698 15.723330,146.489456 
	C13.356088,146.252411 12.611229,145.146774 12.685236,142.918594 
	C12.750173,140.963486 13.608836,140.348770 15.435128,139.535751 
	C19.899677,137.548248 24.036222,134.833725 28.350132,132.495483 
	C33.321205,129.801056 38.368641,127.247108 43.331100,124.537262 
	C47.501579,122.259880 52.707405,120.442825 55.424335,117.379456 
	C57.734837,114.774345 60.275009,110.661156 62.862595,110.358391 
	C68.038513,109.752777 67.310287,105.723587 68.904488,103.149086 
	C69.978935,101.413948 68.570442,98.871109 68.189331,97.383659 
	C66.822586,92.049423 69.425629,87.521721 69.826363,82.648087 
	C70.212097,77.956833 67.412468,74.064056 67.690506,69.621216 
	C68.190582,61.630550 68.322594,53.658077 67.712715,45.664795 
	C67.587166,44.019295 66.900269,41.543484 69.340385,41.012199 
	C71.642097,40.511051 74.177193,39.883648 76.327301,42.019718 
	C81.334244,46.993973 87.832664,49.595917 93.743103,53.168213 
	C99.759781,56.804714 105.980766,60.362114 112.126625,63.520515 
	C117.363144,66.211601 120.130478,72.404518 127.456398,72.113258 
	C130.920609,69.335693 136.489899,67.905350 140.961258,64.651703 
	C148.230011,59.362503 157.584000,57.445457 163.577682,50.010582 
	C167.363937,45.313915 173.455475,43.676216 178.618774,40.984409 
	C182.819107,38.794643 185.316864,41.060326 185.325974,46.032799 
	C185.359268,64.189423 185.473999,82.347649 185.261749,100.501808 
	C185.205200,105.338516 187.415054,107.598801 191.351593,109.887115 
	C197.557007,113.494324 203.916122,116.871689 210.053238,120.625900 
	C215.030106,123.670349 219.882111,128.285355 224.689346,129.623016 
	C230.130371,131.137024 233.251511,135.017426 237.747253,137.166290 
	C240.940399,138.692566 239.638672,142.882614 238.051880,146.123871 
M146.184021,177.688934 
	C147.855316,175.146729 151.134308,175.004120 153.195862,172.712509 
	C155.823883,169.791229 159.227280,167.444733 163.282379,166.580688 
	C165.483063,166.111786 165.635803,164.535660 165.635941,162.795227 
	C165.637115,148.629745 165.617294,134.464233 165.649414,120.298836 
	C165.654678,117.978722 164.791870,117.036011 162.422760,116.181709 
	C157.696472,114.477409 153.615143,111.341042 148.995209,109.198212 
	C144.074203,106.915733 139.811737,103.313622 134.720825,101.032982 
	C131.860626,99.751656 128.570267,98.588516 126.061844,95.157127 
	C125.671654,100.132080 120.948433,97.073959 119.464394,99.770370 
	C116.184402,105.729973 109.397270,106.787514 104.278496,109.897415 
	C99.868286,112.576828 96.829155,116.992432 91.818947,118.739456 
	C89.478798,119.555443 89.302612,121.913971 89.314804,124.215324 
	C89.376602,135.880722 89.338173,147.546631 89.359543,159.212311 
	C89.361938,160.520416 89.031906,162.000534 90.085884,163.031876 
	C94.186378,167.044281 98.539055,170.516800 103.961823,172.906464 
	C108.659279,174.976532 113.733269,177.218399 117.424057,180.533859 
	C120.279091,183.098526 124.462776,182.882568 126.561058,186.268448 
	C126.955849,186.905502 128.341614,186.326263 129.268143,185.753860 
	C134.398972,182.584152 139.504349,179.329056 146.184021,177.688934 
M76.334213,98.499847 
	C76.336365,110.996933 76.342674,123.494019 76.337738,135.991104 
	C76.336502,139.113358 75.857414,142.367920 79.593704,144.570068 
	C76.287041,146.683228 76.128754,149.547760 76.297058,152.611420 
	C76.443047,155.268692 76.208054,157.945496 76.315460,160.606644 
	C76.467690,164.378448 73.448898,165.494141 71.547142,163.969666 
	C66.901375,160.245499 60.285194,159.622330 56.776249,154.290482 
	C56.346077,153.636841 55.674530,152.759903 55.034546,152.686508 
	C49.556099,152.058151 46.275620,147.075333 40.957794,145.781464 
	C38.883942,145.276886 36.656651,142.282288 39.137703,138.496506 
	C40.804585,135.953049 43.342010,137.233185 44.947388,135.653320 
	C40.724171,133.772903 40.631695,133.950790 37.990910,136.637909 
	C36.333637,138.324249 34.896824,140.591736 31.923151,140.462601 
	C30.392838,140.396164 29.481312,141.390396 29.496765,143.018082 
	C29.512020,144.625015 30.565866,145.041748 31.903776,145.677170 
	C36.829395,148.016556 41.550117,150.786621 46.470867,153.137283 
	C50.305988,154.969345 52.826218,158.563263 56.433037,160.470062 
	C63.913734,164.424850 70.984940,168.783524 76.919540,174.929443 
	C78.651375,176.722946 81.137817,177.709747 77.294037,179.755051 
	C76.091415,180.394974 75.934601,182.175949 76.876259,182.766953 
	C80.580719,185.092010 79.283562,188.654160 79.313522,191.764694 
	C79.435143,204.392761 79.364090,217.022690 79.364090,231.255219 
	C81.548912,227.664291 84.400276,229.471329 86.194557,227.665344 
	C90.437286,223.394897 97.678047,223.199371 100.605331,217.108551 
	C100.660080,216.994644 100.893730,216.968369 101.042183,216.897598 
	C109.436279,212.895813 118.281334,209.646805 124.902779,202.677582 
	C125.896896,201.631271 127.071877,201.507233 127.946266,202.485107 
	C131.548248,206.513290 136.988953,207.417404 141.315552,210.264618 
	C142.921143,211.321213 144.352707,213.803055 146.519287,213.451202 
	C151.909470,212.575806 154.807617,217.742325 159.736649,218.076691 
	C159.246674,214.004959 157.839371,210.841248 152.579361,211.320526 
	C151.332199,211.434158 150.037033,211.585617 148.847305,210.505310 
	C146.299988,208.192307 143.269104,206.651764 140.202072,205.058655 
	C138.265518,204.052719 135.563110,202.439606 135.700745,199.306122 
	C135.756104,198.045761 135.473557,196.667694 137.074036,195.880661 
	C141.198166,193.852585 145.490921,192.044754 149.290527,189.510544 
	C154.032669,186.347687 159.825882,185.022156 163.939621,180.767242 
	C165.125443,179.540741 166.298523,178.521683 164.814896,177.153885 
	C163.491165,175.933456 161.514816,175.789200 160.548065,177.647797 
	C158.793182,181.021545 155.971863,181.616425 152.621506,181.417313 
	C151.640640,181.359024 150.744095,181.643768 149.800995,182.136810 
	C143.387665,185.489532 138.455872,191.057877 131.608734,193.883728 
	C129.166595,194.891602 127.358192,198.197479 124.758476,194.836594 
	C122.887955,192.418396 118.614708,194.640533 117.671196,190.488220 
	C117.307655,188.888336 114.750656,188.143280 113.430931,187.068665 
	C109.194725,183.619171 104.850670,180.927261 99.461449,179.968445 
	C99.182732,179.918854 98.883667,179.594620 98.724640,179.322067 
	C97.310013,176.897598 95.185791,176.376358 92.467964,176.262390 
	C85.702789,175.978683 80.652977,170.385345 80.652733,163.629074 
	C80.651566,131.969604 80.648880,100.310127 80.681488,68.650688 
	C80.683678,66.522209 80.262497,64.313683 81.287170,62.393280 
	C84.824150,60.224754 86.788300,62.795315 89.363907,64.456429 
	C94.998924,68.090691 101.427925,70.231506 106.595871,74.958839 
	C109.310638,77.442146 112.782822,81.574638 118.362289,78.612999 
	C116.879135,77.252930 116.811203,75.413216 114.874138,74.468933 
	C108.640076,71.429962 101.524666,69.742447 97.303535,63.449776 
	C96.445755,62.171036 94.961296,62.399906 93.638062,62.355442 
	C92.156425,62.305660 90.484863,62.763763 89.276680,61.732761 
	C85.598190,58.593723 81.331734,56.543083 76.334198,54.181187 
	C76.334198,68.946342 76.334198,83.223091 76.334213,98.499847 
M165.353836,58.983440 
	C163.312500,60.065403 162.200714,61.944344 160.637177,63.788773 
	C166.195038,66.520134 166.693588,59.290073 170.208847,59.486702 
	C173.754959,64.874535 175.030533,70.575310 174.381210,76.801689 
	C174.037476,80.097885 174.355209,83.459656 174.295090,86.790382 
	C174.268295,88.275322 174.623474,90.414314 173.812836,91.125946 
	C170.293594,94.215370 171.639664,98.155884 171.335800,101.821068 
	C171.203339,103.418472 171.773285,105.150108 170.049911,107.115067 
	C159.953964,99.843285 148.259949,95.475945 137.274612,89.650459 
	C138.172058,91.409264 139.000336,93.388084 140.432053,94.038338 
	C148.823502,97.849571 156.260727,103.390381 164.760391,107.066200 
	C167.917389,108.431488 170.897446,111.492973 171.287445,115.707649 
	C172.519302,129.020020 169.163193,142.512741 174.007492,155.803635 
	C175.831161,160.807022 174.329025,167.024490 174.333511,172.688492 
	C174.338135,178.519104 175.217972,184.531937 174.068481,190.126785 
	C173.014053,195.259079 179.460037,199.819748 174.505173,204.841431 
	C173.944153,205.410019 175.012924,206.570679 175.714905,207.344223 
	C178.427292,210.333130 178.302917,213.114761 174.799957,215.532654 
	C175.250931,216.996475 178.185165,217.135559 177.011612,219.342300 
	C176.109070,221.039474 174.343613,220.173904 172.940643,220.338699 
	C169.488159,220.744293 166.245392,220.368729 163.730408,217.116730 
	C162.872147,222.956879 167.836243,226.907059 178.389709,229.386047 
	C178.462357,228.718719 178.594147,228.070633 178.594696,227.422470 
	C178.621979,194.772385 178.640854,162.122299 178.642029,129.472214 
	C178.642059,128.483810 178.788696,127.246910 178.283554,126.546837 
	C174.663803,121.530258 177.640259,117.963287 180.793686,114.326324 
	C177.881470,111.706238 176.493774,108.578415 176.578110,104.493965 
	C176.794724,94.003235 176.661880,83.505226 176.662430,73.010132 
	C176.662704,67.679291 176.611771,62.348118 176.659195,57.017769 
	C176.680695,54.601044 175.151306,52.173130 173.402176,53.761440 
	C171.063431,55.885178 167.394470,55.525013 165.353836,58.983440 
M188.162506,151.376251 
	C193.141983,148.099228 198.121460,144.822189 203.641922,141.189133 
	C197.942810,140.032455 195.595062,134.198135 190.022919,133.249969 
	C189.206512,133.111038 188.526978,131.064301 186.919647,131.706039 
	C185.151672,132.411942 185.373962,134.097412 185.359589,135.562027 
	C185.320389,139.553131 185.314026,143.545288 185.361404,147.536224 
	C185.380630,149.155441 185.111923,151.018433 188.162506,151.376251 
M92.997818,94.434723 
	C96.096001,92.241745 99.152351,89.945045 102.775261,88.682129 
	C106.189491,87.491951 106.531570,85.824059 103.865646,83.176819 
	C99.984772,79.323120 94.806900,77.760620 89.885284,75.105789 
	C88.872330,80.781158 89.460701,86.395630 89.390114,91.977837 
	C89.366272,93.863457 90.425385,94.662766 92.997818,94.434723 
M211.913574,148.499725 
	C208.164291,150.700699 203.154831,151.179901 200.200836,153.571213 
	C196.072632,156.913071 191.484451,158.927170 187.046326,161.415985 
	C185.825836,162.100403 185.356277,162.876709 185.405273,164.141693 
	C185.438110,164.989716 185.558029,165.836044 186.424759,166.249786 
	C187.660172,166.839554 188.801849,166.520798 189.432297,165.375229 
	C191.819885,161.036896 196.795959,160.504883 200.426193,158.019516 
	C203.089584,156.196060 205.921341,153.400482 209.939819,154.473419 
	C210.333038,154.578384 211.017975,153.847443 211.477081,153.409698 
	C216.426773,148.690079 221.830292,144.593399 228.291809,141.201233 
	C226.012207,140.347290 223.550934,140.929398 222.181091,138.286850 
	C221.309830,136.606110 218.384277,137.393600 218.642807,139.291977 
	C219.358704,144.548889 216.366302,146.426651 211.913574,148.499725 
M127.082031,85.629486 
	C131.081161,83.551247 135.599930,82.074661 138.918518,79.208466 
	C141.679047,76.824257 146.090866,77.401398 147.733627,73.678757 
	C148.925339,70.978218 151.025162,70.496002 153.725693,70.486893 
	C157.666656,70.473602 157.666077,70.299744 157.287460,65.962837 
	C152.455704,68.719933 147.256699,70.360741 142.587906,73.995354 
	C135.728989,79.334969 126.958244,82.146355 119.333916,86.602715 
	C114.848709,89.224274 109.049232,90.686813 107.203392,97.508209 
	C115.144783,95.562378 119.543945,88.586105 127.082031,85.629486 
M160.005783,76.526001 
	C157.362671,80.918884 151.794052,81.151840 148.671906,84.436409 
	C153.536896,88.315331 159.511642,90.346588 165.197601,94.175339 
	C166.061569,88.097504 165.986191,82.318405 165.347992,76.678139 
	C164.988861,73.504051 162.431396,73.733795 160.005783,76.526001 
M64.980911,149.383133 
	C65.652969,150.556961 66.298088,151.825394 68.002129,151.357391 
	C69.401001,150.973190 69.605362,149.777176 69.611206,148.577118 
	C69.634743,143.745438 69.747665,138.908859 69.571190,134.083466 
	C69.462227,131.103897 67.898460,131.006409 65.558388,132.409683 
	C61.490208,134.849243 57.229900,136.997238 55.289848,141.924866 
	C57.399483,145.105148 61.673965,146.038300 64.980911,149.383133 
M166.492950,188.795212 
	C162.716736,194.917831 153.972977,194.475647 150.039993,200.702988 
	C152.967697,202.829041 157.154739,199.896530 159.013245,204.284515 
	C160.697968,208.262192 164.031387,208.391769 167.334244,206.806686 
	C165.373444,202.294281 170.347992,197.275253 165.967819,193.400421 
	C166.521927,193.062744 167.207550,192.836655 167.606033,192.366959 
	C168.920456,190.817627 169.538956,189.288071 166.492950,188.795212 
M196.962616,127.062263 
	C198.281662,128.164948 200.028229,128.011963 201.620438,129.047287 
	C205.766220,131.743088 210.565582,133.459412 214.607315,136.520752 
	C215.182129,136.956116 216.615921,136.773666 216.991348,134.686234 
	C206.296539,128.446869 195.461914,122.031845 183.895477,116.966385 
	C185.432007,118.966080 186.857758,120.774490 188.918686,122.191757 
	C191.343048,123.858932 194.951782,123.593353 196.962616,127.062263 
M67.434555,123.068336 
	C67.400574,121.983505 67.930397,120.751640 67.298363,120.361687 
	C58.894753,122.191887 52.993401,127.177605 47.470688,132.834076 
	C51.060905,131.272980 55.439487,131.244110 57.823837,127.493164 
	C58.984051,125.667961 60.198009,124.548630 62.508110,124.609718 
	C64.077827,124.651230 65.876602,125.146774 67.434555,123.068336 
M97.456413,105.309776 
	C97.400673,104.104668 99.482162,103.295799 98.151016,101.827141 
	C89.654839,104.666077 89.654839,104.666077 90.357834,109.733238 
	C91.503716,104.882088 95.174118,107.718735 97.456413,105.309776 
z"/>
<path fill="#000000" opacity="1.000000" stroke="none" 
	d="
M87.491684,178.812515 
	C93.937614,180.573425 99.104324,184.159485 104.463554,187.071243 
	C108.463509,189.244522 111.744026,193.484772 115.969215,195.221725 
	C119.896889,196.836365 119.455872,198.787643 118.916046,201.576340 
	C114.783928,203.153610 111.304962,205.543152 107.910271,208.163010 
	C102.932281,212.004745 97.390381,214.937729 91.625687,217.440323 
	C91.030533,217.698685 90.133377,217.778946 89.882866,218.225800 
	C88.673370,220.383179 86.456398,221.161148 84.917137,219.862671 
	C83.109169,218.337524 80.550240,217.084076 80.604591,213.771027 
	C80.773506,203.475662 80.764153,193.173294 80.581993,182.877914 
	C80.488281,177.581528 84.051643,178.779129 87.491684,178.812515 
M89.343468,195.777679 
	C87.987755,200.147110 92.550270,202.562912 92.950920,206.539703 
	C93.117050,208.188705 96.071487,208.242661 97.400871,206.443878 
	C99.142464,204.087387 100.339233,201.348923 103.991028,201.327423 
	C105.296906,201.319748 105.602776,199.824463 105.535904,198.579147 
	C105.460663,197.178055 104.615860,196.479965 103.285065,196.401855 
	C99.877533,196.201828 97.718262,193.483887 94.927055,192.076828 
	C90.804001,189.998383 89.846115,190.116348 89.343468,195.777679 
z"/>
</svg>