<svg version="1.1" id="Layer_1" xmlns="http://www.w3.org/2000/svg" xmlns:xlink="http://www.w3.org/1999/xlink" x="0px" y="0px"
	 width="100%" viewBox="0 0 259 258" enable-background="new 0 0 259 258" xml:space="preserve">
<path fill="#FEFEFE" opacity="1.000000" stroke="none" 
	d="
M145.000000,259.000000 
	C96.666664,259.000000 48.833332,259.000000 1.000000,259.000000 
	C1.000000,173.000000 1.000000,87.000000 1.000000,1.000000 
	C87.333336,1.000000 173.666672,1.000000 260.000000,1.000000 
	C260.000000,87.000000 260.000000,173.000000 260.000000,259.000000 
	C221.833328,259.000000 183.666672,259.000000 145.000000,259.000000 
M16.001831,135.595428 
	C18.989952,137.064255 22.056822,138.395248 24.942163,140.043930 
	C27.410202,141.454178 29.715769,143.166611 32.012074,144.855682 
	C36.194427,147.932053 39.751228,151.692886 45.606003,152.242249 
	C48.537029,152.517273 51.302902,155.220474 54.011909,157.023163 
	C57.343357,159.240067 60.283478,163.005402 63.850952,163.680649 
	C69.115044,164.677063 70.008553,167.385895 70.005585,171.649109 
	C69.992615,190.314270 69.995209,208.979431 70.009476,227.644592 
	C70.010574,229.076797 70.146225,230.508911 70.228943,232.129196 
	C73.301064,231.973190 76.405624,232.679291 78.477806,231.527710 
	C82.595581,229.239349 85.763878,224.688156 90.032608,223.376541 
	C94.598839,221.973526 98.290817,219.730194 101.668015,216.868408 
	C103.550377,215.273346 104.766235,213.208298 107.683060,213.923019 
	C108.010956,214.003357 108.888756,213.291031 108.924706,212.893265 
	C109.449371,207.088287 116.127892,208.875824 118.492950,205.104095 
	C119.455025,203.569824 121.877182,202.767166 123.791527,202.048676 
	C129.378571,199.951782 133.837463,203.999649 138.505417,205.625336 
	C142.783905,207.115356 145.820892,212.319305 150.096390,213.628250 
	C154.665482,215.027069 158.070648,217.647522 161.818542,220.039429 
	C163.193192,220.916718 164.324005,222.216400 165.756165,222.954529 
	C168.411011,224.322754 171.924011,224.752670 173.793991,226.766922 
	C177.795120,231.076691 182.107788,232.879852 188.143951,231.632126 
	C188.143951,208.988556 188.143951,186.555634 188.143951,164.657242 
	C191.411362,163.294342 194.708710,162.749863 196.794815,160.864883 
	C200.427597,157.582352 203.682663,154.099380 208.973328,153.861938 
	C208.992752,153.861069 208.931168,153.482635 209.020294,153.393890 
	C210.498413,151.922241 212.046875,149.195251 213.476822,149.253952 
	C217.501419,149.419113 218.579880,146.840408 220.055145,144.215561 
	C220.362671,143.668350 221.115829,143.273453 221.748642,143.023972 
	C224.672455,141.871216 228.315781,141.519440 230.412048,139.525360 
	C233.778519,136.322968 238.074753,135.545349 241.731781,133.317108 
	C241.731781,131.670700 241.731781,129.914246 241.731781,128.157806 
	C241.410172,128.430222 241.088562,128.702637 240.766953,128.975052 
	C239.463089,127.851852 238.299011,126.480003 236.828476,125.653259 
	C232.827759,123.404030 229.736450,119.797630 224.813065,118.789429 
	C222.300598,118.274948 220.281555,115.522942 217.951157,113.909912 
	C213.671036,110.947350 209.828888,107.151047 204.101532,106.917801 
	C203.037521,106.874466 202.023239,105.753487 200.975052,105.148857 
	C198.567490,103.760071 196.298401,101.890770 193.704895,101.125519 
	C190.448166,100.164581 185.007874,94.518181 185.005096,91.032745 
	C184.993179,76.033974 185.000000,61.035179 185.000000,46.036392 
	C185.000000,40.424553 185.000000,34.812717 185.000000,28.412985 
	C182.088318,30.481432 179.203125,26.785774 176.534164,31.173283 
	C174.037338,35.277805 169.325867,39.051033 164.780411,40.605629 
	C160.301468,42.137486 156.880493,44.766586 153.092667,47.073662 
	C151.948120,47.770782 151.064850,49.904709 150.178299,49.837803 
	C146.883011,49.589119 144.454071,50.558407 142.218704,52.968456 
	C140.301834,55.035107 138.199478,57.624981 135.722046,58.296116 
	C132.788162,59.090897 130.353043,61.456577 127.969292,61.638840 
	C125.100784,61.858166 121.939003,59.568729 119.074905,58.044613 
	C117.218544,57.056763 115.715500,55.426548 113.969704,54.204830 
	C110.475372,51.759468 107.028519,49.217430 103.358612,47.061668 
	C100.799934,45.558662 97.787880,44.838451 95.187691,43.392197 
	C92.366570,41.823055 89.801453,39.797512 87.100052,38.008202 
	C84.397263,36.217960 81.726501,34.365810 78.924614,32.742947 
	C76.624725,31.410847 72.946220,32.710197 71.795235,29.045069 
	C71.776985,28.986944 70.616592,29.048903 70.494965,29.299904 
	C69.591354,31.164675 68.009254,33.158806 68.161636,34.985394 
	C68.521049,39.293526 66.014793,44.076820 69.906395,47.941750 
	C70.143303,48.177036 69.735428,49.123978 69.546257,49.713707 
	C69.055054,51.245022 67.826050,52.919193 68.129700,54.254860 
	C69.044365,58.278282 68.677856,62.407787 69.831306,66.453568 
	C70.991135,70.521667 65.316086,74.926689 69.940254,79.215828 
	C69.961838,79.235840 69.756866,79.452927 69.715797,79.594795 
	C69.137962,81.590767 68.101746,83.591820 68.110863,85.587364 
	C68.124237,88.513008 69.808388,90.984901 68.286491,94.483330 
	C66.706627,98.115028 65.195633,100.479515 61.267094,101.018219 
	C60.514931,101.121353 59.240131,101.304520 59.140366,101.691528 
	C57.584438,107.727089 51.195774,107.044838 47.724525,110.164474 
	C45.381378,112.270264 42.715519,112.367264 40.361244,113.581657 
	C35.930107,115.867348 32.088398,119.265106 27.831724,121.929016 
	C24.203316,124.199753 20.032894,125.687431 16.647495,128.243637 
	C11.780391,131.918625 11.926270,132.893295 16.001831,135.595428 
z"/>
<path fill="#000000" opacity="1.000000" stroke="none" 
	d="
M15.979290,135.163208 
	C11.926270,132.893295 11.780391,131.918625 16.647495,128.243637 
	C20.032894,125.687431 24.203316,124.199753 27.831724,121.929016 
	C32.088398,119.265106 35.930107,115.867348 40.361244,113.581657 
	C42.715519,112.367264 45.381378,112.270264 47.724525,110.164474 
	C51.195774,107.044838 57.584438,107.727089 59.140366,101.691528 
	C59.240131,101.304520 60.514931,101.121353 61.267094,101.018219 
	C65.195633,100.479515 66.706627,98.115028 68.286491,94.483330 
	C69.808388,90.984901 68.124237,88.513008 68.110863,85.587364 
	C68.101746,83.591820 69.137962,81.590767 69.715797,79.594795 
	C69.756866,79.452927 69.961838,79.235840 69.940254,79.215828 
	C65.316086,74.926689 70.991135,70.521667 69.831306,66.453568 
	C68.677856,62.407787 69.044365,58.278282 68.129700,54.254860 
	C67.826050,52.919193 69.055054,51.245022 69.546257,49.713707 
	C69.735428,49.123978 70.143303,48.177036 69.906395,47.941750 
	C66.014793,44.076820 68.521049,39.293526 68.161636,34.985394 
	C68.009254,33.158806 69.591354,31.164675 70.494965,29.299904 
	C70.616592,29.048903 71.776985,28.986944 71.795235,29.045069 
	C72.946220,32.710197 76.624725,31.410847 78.924614,32.742947 
	C81.726501,34.365810 84.397263,36.217960 87.100052,38.008202 
	C89.801453,39.797512 92.366570,41.823055 95.187691,43.392197 
	C97.787880,44.838451 100.799934,45.558662 103.358612,47.061668 
	C107.028519,49.217430 110.475372,51.759468 113.969704,54.204830 
	C115.715500,55.426548 117.218544,57.056763 119.074905,58.044613 
	C121.939003,59.568729 125.100784,61.858166 127.969292,61.638840 
	C130.353043,61.456577 132.788162,59.090897 135.722046,58.296116 
	C138.199478,57.624981 140.301834,55.035107 142.218704,52.968456 
	C144.454071,50.558407 146.883011,49.589119 150.178299,49.837803 
	C151.064850,49.904709 151.948120,47.770782 153.092667,47.073662 
	C156.880493,44.766586 160.301468,42.137486 164.780411,40.605629 
	C169.325867,39.051033 174.037338,35.277805 176.534164,31.173283 
	C179.203125,26.785774 182.088318,30.481432 185.000000,28.412985 
	C185.000000,34.812717 185.000000,40.424553 185.000000,46.036392 
	C185.000000,61.035179 184.993179,76.033974 185.005096,91.032745 
	C185.007874,94.518181 190.448166,100.164581 193.704895,101.125519 
	C196.298401,101.890770 198.567490,103.760071 200.975052,105.148857 
	C202.023239,105.753487 203.037521,106.874466 204.101532,106.917801 
	C209.828888,107.151047 213.671036,110.947350 217.951157,113.909912 
	C220.281555,115.522942 222.300598,118.274948 224.813065,118.789429 
	C229.736450,119.797630 232.827759,123.404030 236.828476,125.653259 
	C238.299011,126.480003 239.463089,127.851852 240.766953,128.975052 
	C241.088562,128.702637 241.410172,128.430222 241.731781,128.157806 
	C241.731781,129.914246 241.731781,131.670700 241.731781,133.317108 
	C238.074753,135.545349 233.778519,136.322968 230.412048,139.525360 
	C228.315781,141.519440 224.672455,141.871216 221.748642,143.023972 
	C221.115829,143.273453 220.362671,143.668350 220.055145,144.215561 
	C218.579880,146.840408 217.501419,149.419113 213.476822,149.253952 
	C212.046875,149.195251 210.498413,151.922241 209.020294,153.393890 
	C208.931168,153.482635 208.992752,153.861069 208.973328,153.861938 
	C203.682663,154.099380 200.427597,157.582352 196.794815,160.864883 
	C194.708710,162.749863 191.411362,163.294342 188.143951,164.657242 
	C188.143951,186.555634 188.143951,208.988556 188.143951,231.632126 
	C182.107788,232.879852 177.795120,231.076691 173.793991,226.766922 
	C171.924011,224.752670 168.411011,224.322754 165.756165,222.954529 
	C164.324005,222.216400 163.193192,220.916718 161.818542,220.039429 
	C158.070648,217.647522 154.665482,215.027069 150.096390,213.628250 
	C145.820892,212.319305 142.783905,207.115356 138.505417,205.625336 
	C133.837463,203.999649 129.378571,199.951782 123.791527,202.048676 
	C121.877182,202.767166 119.455025,203.569824 118.492950,205.104095 
	C116.127892,208.875824 109.449371,207.088287 108.924706,212.893265 
	C108.888756,213.291031 108.010956,214.003357 107.683060,213.923019 
	C104.766235,213.208298 103.550377,215.273346 101.668015,216.868408 
	C98.290817,219.730194 94.598839,221.973526 90.032608,223.376541 
	C85.763878,224.688156 82.595581,229.239349 78.477806,231.527710 
	C76.405624,232.679291 73.301064,231.973190 70.228943,232.129196 
	C70.146225,230.508911 70.010574,229.076797 70.009476,227.644592 
	C69.995209,208.979431 69.992615,190.314270 70.005585,171.649109 
	C70.008553,167.385895 69.115044,164.677063 63.850952,163.680649 
	C60.283478,163.005402 57.343357,159.240067 54.011909,157.023163 
	C51.302902,155.220474 48.537029,152.517273 45.606003,152.242249 
	C39.751228,151.692886 36.194427,147.932053 32.012074,144.855682 
	C29.715769,143.166611 27.410202,141.454178 24.942163,140.043930 
	C22.056822,138.395248 18.989952,137.064255 15.979290,135.163208 
M79.012085,206.823532 
	C79.063606,208.215805 79.115135,209.608078 79.011986,211.902298 
	C79.011986,214.515228 79.011986,217.128159 79.011986,221.544037 
	C82.023163,219.512085 83.721924,217.745056 85.772690,217.103821 
	C90.940849,215.487900 92.420410,213.486649 91.410088,208.166656 
	C88.940170,208.166656 86.470261,208.166656 83.243927,208.011917 
	C82.440399,207.341156 81.636871,206.670410 80.988091,205.089340 
	C80.988091,201.735748 80.988091,198.382172 80.988091,195.028580 
	C80.380951,195.041473 79.773804,195.054352 79.166664,195.067245 
	C79.166664,198.711380 79.166664,202.355515 79.012085,206.823532 
M80.988121,140.073990 
	C80.936531,133.049179 80.884933,126.024376 80.988129,118.073654 
	C80.988129,95.451309 80.988129,72.828964 80.988129,49.919891 
	C83.459412,50.064892 85.499092,50.184566 87.835587,50.321659 
	C88.125572,49.547443 88.538780,48.444256 88.688759,48.043835 
	C84.336044,46.533390 80.436897,45.180340 76.553108,43.832619 
	C76.251953,44.635582 76.040359,44.936741 76.040024,45.238140 
	C76.015991,66.891457 76.005783,88.544792 76.011581,110.198128 
	C76.011803,111.015900 76.001305,112.475052 76.296707,112.557518 
	C83.624992,114.603577 75.446983,116.202240 76.011871,118.925613 
	C76.063469,126.283653 76.115067,133.641693 76.021606,141.802933 
	C77.381737,143.592316 78.741875,145.381699 80.833336,148.133224 
	C80.833336,145.461105 80.833336,143.230423 80.988121,140.073990 
M159.994858,91.236832 
	C159.118683,88.736084 158.617050,85.682220 154.997955,86.040123 
	C148.914200,86.641769 145.604828,81.764923 141.090683,79.286324 
	C139.610001,78.473335 138.309753,77.331718 136.270279,75.869568 
	C136.270279,79.351830 136.270279,81.094337 136.270279,82.836845 
	C136.590317,82.573463 136.910339,82.310081 137.230377,82.046700 
	C138.944397,83.358406 140.477554,85.150978 142.411362,85.878334 
	C146.058075,87.249969 149.938065,87.998970 153.713684,89.033813 
	C154.145569,89.152199 154.872391,89.423210 154.885925,89.656876 
	C155.130417,93.875092 158.289581,91.337311 160.005554,92.779053 
	C161.695129,94.518875 163.152435,97.347427 165.123489,97.767960 
	C169.020050,98.599327 171.276428,101.262939 174.210724,103.292603 
	C177.957794,105.884460 181.182953,109.613640 186.204117,110.026184 
	C186.796539,110.074860 187.533249,110.286530 187.913040,110.693382 
	C190.432953,113.392838 192.899277,116.098167 197.047379,116.028343 
	C197.654495,116.018120 198.548462,116.160797 198.834793,116.567268 
	C202.050369,121.131989 206.619095,122.405998 211.991333,122.943489 
	C213.237701,124.605782 214.276367,127.437202 215.770905,127.702736 
	C219.657883,128.393326 218.283142,131.502213 217.770248,132.535492 
	C216.863495,134.362274 214.798645,135.769287 212.947647,136.914017 
	C211.840546,137.598694 205.511902,141.272949 203.895309,142.292267 
	C201.515808,143.792603 198.831665,144.817841 196.252930,145.991928 
	C193.536987,147.228470 190.595154,148.101501 188.134430,149.716141 
	C186.664078,150.680939 185.927963,152.764740 184.861816,154.345535 
	C188.142197,153.904510 192.165573,157.496674 193.454834,152.292175 
	C198.193680,152.936951 200.041321,149.753769 201.702621,146.197891 
	C201.840973,145.901718 202.972229,146.159668 203.591766,145.983215 
	C207.221268,144.949509 210.842667,143.885010 214.442017,142.752213 
	C214.724823,142.663208 214.703079,141.797363 215.018234,141.591202 
	C218.825546,139.100723 219.265366,132.153824 225.700226,133.763214 
	C225.700226,131.604034 225.700226,129.860245 225.700226,128.116455 
	C225.344498,128.453232 224.988785,128.790009 224.633057,129.126785 
	C222.775116,127.753647 220.234070,126.762375 219.206848,124.924850 
	C217.292908,121.501122 214.754089,121.639099 211.979248,121.378609 
	C209.503937,119.585922 207.084290,117.709206 204.538391,116.023109 
	C201.737549,114.168159 198.863281,112.413628 195.943848,110.750809 
	C191.971970,108.488541 189.061432,104.353333 184.009079,103.981636 
	C183.387695,103.935921 182.637497,103.839569 182.196014,103.469574 
	C180.497818,102.046417 174.192337,98.347908 172.718445,97.980431 
	C172.139694,97.836136 171.450577,97.647194 171.078903,97.236679 
	C168.082840,93.927345 164.724472,91.474953 159.994858,91.236832 
M178.988129,167.073822 
	C178.936539,150.379364 178.884933,133.684891 178.932983,116.456528 
	C178.627213,116.359901 178.321442,116.263283 177.577484,116.009163 
	C177.577484,116.009163 177.114716,115.957748 177.007523,115.157677 
	C176.444427,114.442978 175.881332,113.728287 175.318222,113.013588 
	C174.934372,114.009171 174.550507,115.004753 174.011871,116.926270 
	C174.063461,133.950760 174.115067,150.975235 174.020157,168.791229 
	C175.017029,169.520309 176.013916,170.249390 176.373688,170.512497 
	C175.594116,172.158035 174.214096,173.727570 174.562576,174.628586 
	C175.193726,176.260422 176.855408,177.493668 178.833344,179.741745 
	C178.833344,175.710709 178.833344,171.855240 178.988129,167.073822 
M111.810280,82.993866 
	C115.189049,81.777145 118.698982,80.829247 121.907501,79.263618 
	C124.776169,77.863823 127.191376,75.550652 130.030670,74.070053 
	C132.648880,72.704727 137.471970,72.460495 137.964249,70.753548 
	C139.089600,66.851524 142.825958,69.152740 143.850494,67.221588 
	C145.892181,63.373169 148.518753,61.259850 153.037674,61.942410 
	C153.619125,62.030235 154.489944,61.513130 154.927872,61.014038 
	C156.852295,58.820786 158.063019,56.239208 161.738480,55.680744 
	C163.389145,55.429935 164.549896,51.954922 166.849365,49.995720 
	C169.118927,49.995720 171.388489,49.995720 174.000000,49.995720 
	C174.000000,60.672928 173.935287,70.927948 174.064758,81.180511 
	C174.085922,82.856682 174.963455,84.522041 175.445175,86.192398 
	C175.892746,86.055916 176.340302,85.919434 176.787872,85.782944 
	C176.787872,70.897461 176.787872,56.011974 176.787872,41.027699 
	C174.067825,42.333530 171.286697,43.188995 169.144348,44.862305 
	C167.664322,46.018295 167.066986,48.304386 165.190842,50.006248 
	C162.331818,49.432457 160.737289,51.005402 158.627701,52.782494 
	C156.391266,54.666431 152.771866,54.814861 149.932343,56.107567 
	C147.821381,57.068592 145.550842,58.287792 144.134079,60.028896 
	C141.735565,62.976559 139.716904,65.950951 135.226364,65.051453 
	C134.575058,64.920990 133.340408,65.265617 133.135086,65.727768 
	C131.342743,69.762054 128.501022,71.724907 123.977646,71.056885 
	C123.389458,70.970016 122.511002,71.474258 122.074265,71.973495 
	C120.151802,74.171097 118.928001,76.736382 115.268875,77.317772 
	C113.606598,77.581879 112.452759,81.046082 110.194122,83.004356 
	C106.921310,84.117508 102.910591,84.411713 100.550697,86.538055 
	C97.113060,89.635475 93.522072,91.648697 89.296890,92.500183 
	C89.296890,94.366302 89.296890,96.116989 89.296890,97.943878 
	C95.684486,98.473717 98.960228,93.863449 102.993279,90.650307 
	C103.731255,90.062355 104.538254,89.065536 105.296844,89.080780 
	C109.641113,89.168053 110.396805,86.189766 111.810280,82.993866 
M116.247749,91.953484 
	C113.219269,91.439629 110.914192,92.433220 109.478355,95.216560 
	C107.519348,99.014030 105.008232,101.838959 100.124458,101.074089 
	C99.498634,100.976082 98.671997,101.806519 98.017212,102.309464 
	C95.442772,104.286934 92.899841,106.305435 89.278397,109.145279 
	C89.278397,123.135300 89.278397,139.013367 89.278397,154.964005 
	C95.590225,154.544418 98.896271,159.135269 102.987709,162.306671 
	C103.731194,162.882996 104.572624,163.994019 105.232582,163.900146 
	C107.798973,163.535141 108.730782,164.689590 109.737404,166.897842 
	C110.813438,169.258392 112.897141,170.342514 115.993797,170.221466 
	C117.948418,170.145035 119.881126,172.541489 122.016083,173.243973 
	C124.447281,174.043930 127.092598,174.193176 129.644852,174.625244 
	C130.194122,170.382797 133.591766,172.723907 135.663467,171.945038 
	C138.657211,170.819504 141.927521,170.826187 144.426651,167.726532 
	C145.995148,165.781113 148.316452,163.204910 152.403244,163.667023 
	C154.745071,163.931808 157.650558,161.086212 159.965698,159.222748 
	C162.657990,157.055695 165.271835,154.650620 167.344696,151.913376 
	C168.393600,150.528290 168.175949,148.184067 168.530945,146.273483 
	C164.345001,145.927811 166.116898,142.694489 166.075043,140.689178 
	C165.897980,132.206223 166.000900,123.717422 165.999573,115.230759 
	C165.998993,111.632622 166.761826,107.878021 163.009109,105.321915 
	C159.614288,103.009567 156.176971,98.181541 153.127853,98.463150 
	C146.257797,99.097626 144.794647,91.744835 139.079819,91.081451 
	C136.380234,90.768089 134.218140,87.140083 131.411697,86.149834 
	C126.039055,84.254128 121.632195,87.821770 117.064468,89.954865 
	C116.846176,90.056816 116.974136,90.900208 116.247749,91.953484 
M44.736301,142.997253 
	C46.710220,143.105865 49.529774,142.423904 50.504547,143.466568 
	C53.855743,147.051239 56.794495,150.492813 61.539459,152.904892 
	C64.690453,154.506699 68.639229,155.365891 71.223770,158.053894 
	C73.325150,160.239395 75.619530,161.419098 78.607018,161.327988 
	C78.385735,165.455078 82.693245,162.912979 84.029221,165.041992 
	C85.914505,168.046371 88.085541,170.860794 92.444237,170.084000 
	C93.225716,169.944733 94.283943,170.784378 95.073021,171.364365 
	C97.971260,173.494705 100.571190,176.214279 103.754318,177.709641 
	C105.903969,178.719482 109.092796,177.537308 110.019798,181.002213 
	C110.780594,183.845932 113.088539,184.909409 115.310165,183.826279 
	C117.077774,182.964508 118.115311,180.605255 119.808548,178.498169 
	C114.261665,177.854111 114.275482,177.840057 108.904129,172.559235 
	C108.504005,172.165848 107.669449,172.254837 107.096985,171.989716 
	C103.073204,170.126251 98.983490,168.381348 95.079483,166.291061 
	C92.242493,164.772049 89.742966,162.630783 86.934830,161.047455 
	C84.475136,159.660614 81.795128,158.664520 79.212440,157.495819 
	C79.212440,157.495819 70.183556,151.998718 70.183556,151.998718 
	C67.887360,150.144119 63.430466,149.535690 62.736050,148.421646 
	C59.942501,143.939957 54.095306,143.469254 51.861462,139.727768 
	C49.802189,136.278671 47.589466,137.088745 45.143021,137.040909 
	C38.663719,136.914230 37.104595,134.844604 38.699028,128.085861 
	C41.855000,127.640091 45.284679,128.938644 47.729393,125.095184 
	C49.331028,122.577194 52.359192,120.897797 54.912056,119.071518 
	C57.920750,116.919151 60.938114,113.761497 64.257156,113.316162 
	C68.469040,112.751038 68.592911,109.943642 70.296967,107.723351 
	C66.894081,105.809395 65.641273,109.293655 64.038124,109.596786 
	C59.206089,110.510490 55.980930,113.517746 52.277462,116.007851 
	C50.214733,117.394783 47.126343,118.248573 46.208778,120.161980 
	C43.353123,126.116882 36.895031,125.055725 32.413216,127.589745 
	C29.416803,129.283920 28.007032,130.756058 26.657057,133.880463 
	C30.746710,133.964630 34.551041,133.460083 37.034538,137.012360 
	C37.817284,138.131958 38.885700,139.079865 39.932247,139.979721 
	C41.171276,141.045105 42.528061,141.973526 44.736301,142.997253 
M141.496002,184.000015 
	C144.278610,182.014465 146.851532,178.838623 149.889648,178.303375 
	C155.379776,177.336121 158.738098,173.520523 163.073486,171.013962 
	C166.202682,169.204773 166.622864,167.142624 165.484894,163.838745 
	C164.631271,164.189896 163.548798,164.293961 163.092056,164.883133 
	C161.273788,167.228729 159.059006,168.734009 156.542709,170.382584 
	C152.983109,172.714722 147.929474,170.202957 145.341965,174.900284 
	C144.371094,176.662750 140.469604,176.792160 139.460587,178.556290 
	C137.391495,182.173828 133.218201,181.314056 130.612640,183.835983 
	C128.628677,185.756287 124.639481,185.565689 122.569405,187.445297 
	C119.414726,190.309723 116.532013,193.002045 112.005432,193.090271 
	C111.661461,193.096970 111.135674,193.920776 111.029823,194.433960 
	C109.937897,199.727905 104.419556,199.565079 101.119934,201.653580 
	C96.702553,204.449570 94.627464,205.566284 95.785446,212.219849 
	C97.578476,210.731812 98.708702,209.145050 100.176933,208.716599 
	C102.856377,207.934708 103.575142,203.646225 107.322327,204.905746 
	C107.665802,205.021210 108.578293,203.935532 108.992149,203.263275 
	C110.624474,200.611832 112.189903,198.145340 116.064217,198.880402 
	C116.904930,199.039902 118.030952,197.679932 119.029533,197.025864 
	C122.605614,194.683502 126.121559,192.241379 129.778214,190.032242 
	C133.312103,187.897278 136.991669,186.003418 141.496002,184.000015 
M158.384354,202.003510 
	C156.583847,201.002991 154.843033,199.868576 152.968933,199.033142 
	C150.111023,197.759155 147.082123,196.852051 144.281281,195.473373 
	C142.747482,194.718384 141.532761,193.315170 139.190155,191.399643 
	C139.190155,195.147202 139.190155,196.896210 139.190155,198.702515 
	C140.785614,198.935318 142.471283,198.722046 143.575226,199.423828 
	C147.801819,202.110779 151.721039,205.288116 155.987061,207.903976 
	C159.737167,210.203491 163.836884,211.925156 167.705231,214.042572 
	C169.875244,215.230377 171.888077,216.705063 173.973770,218.047333 
	C174.976196,218.692474 175.983337,219.330292 176.988358,219.971420 
	C177.658340,218.646194 178.884537,217.316086 178.872971,215.996841 
	C178.853760,213.805511 178.039505,211.621140 177.679260,209.977539 
	C174.474792,210.665283 171.526245,213.196289 168.681915,208.653503 
	C167.617691,206.953796 165.030090,206.231720 163.189545,204.986343 
	C161.839005,204.072495 160.574005,203.032288 158.384354,202.003510 
M190.512665,122.000023 
	C188.886276,120.955688 187.259903,119.911362 185.201859,118.589851 
	C185.201859,126.149094 185.201859,132.895248 185.201859,139.618515 
	C190.067749,140.118500 190.055664,140.104248 193.637405,137.066193 
	C194.893234,136.000992 196.151886,134.909424 197.538803,134.035477 
	C199.537750,132.775848 201.687790,131.753647 203.657013,130.453857 
	C203.808853,130.353638 203.284485,128.447723 202.664047,128.087067 
	C198.977112,125.943871 195.169250,124.008728 190.512665,122.000023 
M168.997299,197.211975 
	C168.997299,190.824448 168.997299,184.436920 168.997299,177.353394 
	C166.465973,178.094864 164.203751,178.081070 163.134537,179.203613 
	C160.444489,182.027802 154.504929,186.126236 150.684952,187.042282 
	C150.066925,187.190491 149.572968,187.856018 149.021652,188.282425 
	C149.593597,188.853958 150.146606,189.898941 150.740494,189.922729 
	C155.889755,190.128906 159.830322,193.651703 162.434265,196.816910 
	C165.041870,199.986572 166.538696,198.989349 168.997299,197.211975 
M98.041878,80.760574 
	C100.409233,79.056282 102.776588,77.351990 105.736710,75.220955 
	C105.736710,74.693649 105.736710,72.949623 105.736710,71.538986 
	C103.623390,71.006348 101.579506,70.959045 100.097115,70.022743 
	C96.739349,67.901939 94.131973,64.288437 89.280212,65.156517 
	C89.280212,72.186432 89.280212,79.044937 89.280212,87.531815 
	C91.135590,85.268478 91.846069,83.799362 93.014778,83.128426 
	C94.479187,82.287720 96.319687,82.102135 98.041878,80.760574 
M166.000000,78.350967 
	C166.000000,72.936371 166.000000,67.521774 166.000000,61.912983 
	C160.341995,65.651146 155.085083,69.124306 149.280182,72.959511 
	C149.280182,73.356758 149.280182,75.093262 149.280182,76.446541 
	C151.407806,77.003525 153.462006,77.051605 154.901184,78.016762 
	C158.220428,80.242737 160.906830,83.664673 166.000000,82.809547 
	C166.000000,81.552269 166.000000,80.430496 166.000000,78.350967 
M56.435211,128.000137 
	C51.672478,128.620331 54.842892,131.788345 54.354645,133.174515 
	C59.603836,135.780518 64.421761,138.172424 69.794220,140.839630 
	C69.794220,133.807953 69.794220,128.043365 69.794220,120.779442 
	C65.152847,123.469299 61.246807,125.733009 56.435211,128.000137 
M92.573952,195.925079 
	C95.433380,196.294098 97.647186,195.844360 99.603043,193.122833 
	C100.844154,191.395889 103.636375,190.817749 105.602043,189.525269 
	C105.800919,189.394501 105.362587,187.537979 104.763092,187.078827 
	C101.955849,184.928726 98.932518,183.062088 96.105278,180.936081 
	C94.927185,180.050186 94.044930,178.770889 92.041595,176.602768 
	C92.041595,183.925369 92.041595,189.539871 92.573952,195.925079 
M95.527634,53.000011 
	C94.355171,53.477085 93.182709,53.954159 92.010246,54.431232 
	C93.142006,54.954212 94.254333,55.527752 95.415512,55.974220 
	C95.853806,56.142750 96.754204,55.847622 96.853210,56.051186 
	C98.738304,59.926842 101.981224,61.760773 105.923698,63.257465 
	C109.577530,64.644585 112.040283,69.055611 118.013000,67.419167 
	C115.719116,65.293488 114.138206,63.339291 112.125824,62.068207 
	C108.253021,59.622040 104.125763,57.580715 100.126244,55.332001 
	C98.858444,54.619183 97.661194,53.780880 95.527634,53.000011 
M178.956741,193.827209 
	C178.458298,193.618866 177.959854,193.410522 177.461411,193.202194 
	C177.461411,195.794800 177.461411,198.387390 177.461411,200.979996 
	C177.973312,200.961761 178.485229,200.943527 178.997131,200.925293 
	C178.997131,198.864746 178.997131,196.804184 178.956741,193.827209 
z"/>
<path fill="#FEFEFE" opacity="1.000000" stroke="none" 
	d="
M116.594299,91.675903 
	C116.974136,90.900208 116.846176,90.056816 117.064468,89.954865 
	C121.632195,87.821770 126.039055,84.254128 131.411697,86.149834 
	C134.218140,87.140083 136.380234,90.768089 139.079819,91.081451 
	C144.794647,91.744835 146.257797,99.097626 153.127853,98.463150 
	C156.176971,98.181541 159.614288,103.009567 163.009109,105.321915 
	C166.761826,107.878021 165.998993,111.632622 165.999573,115.230759 
	C166.000900,123.717422 165.897980,132.206223 166.075043,140.689178 
	C166.116898,142.694489 164.345001,145.927811 168.530945,146.273483 
	C168.175949,148.184067 168.393600,150.528290 167.344696,151.913376 
	C165.271835,154.650620 162.657990,157.055695 159.965698,159.222748 
	C157.650558,161.086212 154.745071,163.931808 152.403244,163.667023 
	C148.316452,163.204910 145.995148,165.781113 144.426651,167.726532 
	C141.927521,170.826187 138.657211,170.819504 135.663467,171.945038 
	C133.591766,172.723907 130.194122,170.382797 129.644852,174.625244 
	C127.092598,174.193176 124.447281,174.043930 122.016083,173.243973 
	C119.881126,172.541489 117.948418,170.145035 115.993797,170.221466 
	C112.897141,170.342514 110.813438,169.258392 109.737404,166.897842 
	C108.730782,164.689590 107.798973,163.535141 105.232582,163.900146 
	C104.572624,163.994019 103.731194,162.882996 102.987709,162.306671 
	C98.896271,159.135269 95.590225,154.544418 89.278397,154.964005 
	C89.278397,139.013367 89.278397,123.135300 89.278397,109.145279 
	C92.899841,106.305435 95.442772,104.286934 98.017212,102.309464 
	C98.671997,101.806519 99.498634,100.976082 100.124458,101.074089 
	C105.008232,101.838959 107.519348,99.014030 109.478355,95.216560 
	C110.914192,92.433220 113.219269,91.439629 116.594299,91.675903 
z"/>
<path fill="#FEFEFE" opacity="1.000000" stroke="none" 
	d="
M44.285057,142.979279 
	C42.528061,141.973526 41.171276,141.045105 39.932247,139.979721 
	C38.885700,139.079865 37.817284,138.131958 37.034538,137.012360 
	C34.551041,133.460083 30.746710,133.964630 26.657057,133.880463 
	C28.007032,130.756058 29.416803,129.283920 32.413216,127.589745 
	C36.895031,125.055725 43.353123,126.116882 46.208778,120.161980 
	C47.126343,118.248573 50.214733,117.394783 52.277462,116.007851 
	C55.980930,113.517746 59.206089,110.510490 64.038124,109.596786 
	C65.641273,109.293655 66.894081,105.809395 70.296967,107.723351 
	C68.592911,109.943642 68.469040,112.751038 64.257156,113.316162 
	C60.938114,113.761497 57.920750,116.919151 54.912056,119.071518 
	C52.359192,120.897797 49.331028,122.577194 47.729393,125.095184 
	C45.284679,128.938644 41.855000,127.640091 38.699028,128.085861 
	C37.104595,134.844604 38.663719,136.914230 45.143021,137.040909 
	C47.589466,137.088745 49.802189,136.278671 51.861462,139.727768 
	C54.095306,143.469254 59.942501,143.939957 62.736050,148.421646 
	C63.430466,149.535690 67.887360,150.144119 70.183556,151.998718 
	C70.183556,151.998718 79.212440,157.495819 79.212440,157.495819 
	C81.795128,158.664520 84.475136,159.660614 86.934830,161.047455 
	C89.742966,162.630783 92.242493,164.772049 95.079483,166.291061 
	C98.983490,168.381348 103.073204,170.126251 107.096985,171.989716 
	C107.669449,172.254837 108.504005,172.165848 108.904129,172.559235 
	C114.275482,177.840057 114.261665,177.854111 119.808548,178.498169 
	C118.115311,180.605255 117.077774,182.964508 115.310165,183.826279 
	C113.088539,184.909409 110.780594,183.845932 110.019798,181.002213 
	C109.092796,177.537308 105.903969,178.719482 103.754318,177.709641 
	C100.571190,176.214279 97.971260,173.494705 95.073021,171.364365 
	C94.283943,170.784378 93.225716,169.944733 92.444237,170.084000 
	C88.085541,170.860794 85.914505,168.046371 84.029221,165.041992 
	C82.693245,162.912979 78.385735,165.455078 78.607018,161.327988 
	C75.619530,161.419098 73.325150,160.239395 71.223770,158.053894 
	C68.639229,155.365891 64.690453,154.506699 61.539459,152.904892 
	C56.794495,150.492813 53.855743,147.051239 50.504547,143.466568 
	C49.529774,142.423904 46.710220,143.105865 44.285057,142.979279 
z"/>
<path fill="#FEFEFE" opacity="1.000000" stroke="none" 
	d="
M141.051620,184.001831 
	C136.991669,186.003418 133.312103,187.897278 129.778214,190.032242 
	C126.121559,192.241379 122.605614,194.683502 119.029533,197.025864 
	C118.030952,197.679932 116.904930,199.039902 116.064217,198.880402 
	C112.189903,198.145340 110.624474,200.611832 108.992149,203.263275 
	C108.578293,203.935532 107.665802,205.021210 107.322327,204.905746 
	C103.575142,203.646225 102.856377,207.934708 100.176933,208.716599 
	C98.708702,209.145050 97.578476,210.731812 95.785446,212.219849 
	C94.627464,205.566284 96.702553,204.449570 101.119934,201.653580 
	C104.419556,199.565079 109.937897,199.727905 111.029823,194.433960 
	C111.135674,193.920776 111.661461,193.096970 112.005432,193.090271 
	C116.532013,193.002045 119.414726,190.309723 122.569405,187.445297 
	C124.639481,185.565689 128.628677,185.756287 130.612640,183.835983 
	C133.218201,181.314056 137.391495,182.173828 139.460587,178.556290 
	C140.469604,176.792160 144.371094,176.662750 145.341965,174.900284 
	C147.929474,170.202957 152.983109,172.714722 156.542709,170.382584 
	C159.059006,168.734009 161.273788,167.228729 163.092056,164.883133 
	C163.548798,164.293961 164.631271,164.189896 165.484894,163.838745 
	C166.622864,167.142624 166.202682,169.204773 163.073486,171.013962 
	C158.738098,173.520523 155.379776,177.336121 149.889648,178.303375 
	C146.851532,178.838623 144.278610,182.014465 141.051620,184.001831 
z"/>
<path fill="#FEFEFE" opacity="1.000000" stroke="none" 
	d="
M76.166664,117.999641 
	C75.446983,116.202240 83.624992,114.603577 76.296707,112.557518 
	C76.001305,112.475052 76.011803,111.015900 76.011581,110.198128 
	C76.005783,88.544792 76.015991,66.891457 76.040024,45.238140 
	C76.040359,44.936741 76.251953,44.635582 76.553108,43.832619 
	C80.436897,45.180340 84.336044,46.533390 88.688759,48.043835 
	C88.538780,48.444256 88.125572,49.547443 87.835587,50.321659 
	C85.499092,50.184566 83.459412,50.064892 80.988129,49.919891 
	C80.988129,72.828964 80.988129,95.451309 80.569366,118.494324 
	C78.822632,118.609871 77.494644,118.304756 76.166664,117.999641 
z"/>
<path fill="#FEFEFE" opacity="1.000000" stroke="none" 
	d="
M165.932953,49.942940 
	C164.549896,51.954922 163.389145,55.429935 161.738480,55.680744 
	C158.063019,56.239208 156.852295,58.820786 154.927872,61.014038 
	C154.489944,61.513130 153.619125,62.030235 153.037674,61.942410 
	C148.518753,61.259850 145.892181,63.373169 143.850494,67.221588 
	C142.825958,69.152740 139.089600,66.851524 137.964249,70.753548 
	C137.471970,72.460495 132.648880,72.704727 130.030670,74.070053 
	C127.191376,75.550652 124.776169,77.863823 121.907501,79.263618 
	C118.698982,80.829247 115.189049,81.777145 111.402695,82.991600 
	C110.995117,82.989334 111.068283,83.058670 111.068283,83.058670 
	C112.452759,81.046082 113.606598,77.581879 115.268875,77.317772 
	C118.928001,76.736382 120.151802,74.171097 122.074265,71.973495 
	C122.511002,71.474258 123.389458,70.970016 123.977646,71.056885 
	C128.501022,71.724907 131.342743,69.762054 133.135086,65.727768 
	C133.340408,65.265617 134.575058,64.920990 135.226364,65.051453 
	C139.716904,65.950951 141.735565,62.976559 144.134079,60.028896 
	C145.550842,58.287792 147.821381,57.068592 149.932343,56.107567 
	C152.771866,54.814861 156.391266,54.666431 158.627701,52.782494 
	C160.737289,51.005402 162.331818,49.432457 165.598495,50.009193 
	C166.006149,50.012138 165.932953,49.942940 165.932953,49.942940 
z"/>
<path fill="#FEFEFE" opacity="1.000000" stroke="none" 
	d="
M211.735306,122.287193 
	C214.754089,121.639099 217.292908,121.501122 219.206848,124.924850 
	C220.234070,126.762375 222.775116,127.753647 224.633057,129.126785 
	C224.988785,128.790009 225.344498,128.453232 225.700226,128.116455 
	C225.700226,129.860245 225.700226,131.604034 225.700226,133.763214 
	C219.265366,132.153824 218.825546,139.100723 215.018234,141.591202 
	C214.703079,141.797363 214.724823,142.663208 214.442017,142.752213 
	C210.842667,143.885010 207.221268,144.949509 203.591766,145.983215 
	C202.972229,146.159668 201.840973,145.901718 201.702621,146.197891 
	C200.041321,149.753769 198.193680,152.936951 193.454834,152.292175 
	C192.165573,157.496674 188.142197,153.904510 184.861816,154.345535 
	C185.927963,152.764740 186.664078,150.680939 188.134430,149.716141 
	C190.595154,148.101501 193.536987,147.228470 196.252930,145.991928 
	C198.831665,144.817841 201.515808,143.792603 203.895309,142.292267 
	C205.511902,141.272949 211.840546,137.598694 212.947647,136.914017 
	C214.798645,135.769287 216.863495,134.362274 217.770248,132.535492 
	C218.283142,131.502213 219.657883,128.393326 215.770905,127.702736 
	C214.276367,127.437202 213.237701,124.605782 211.900574,122.574356 
	C211.809830,122.205231 211.735306,122.287193 211.735306,122.287193 
z"/>
<path fill="#FEFEFE" opacity="1.000000" stroke="none" 
	d="
M178.833344,116.990433 
	C178.884933,133.684891 178.936539,150.379364 178.610382,167.565048 
	C176.877319,168.037430 175.521988,168.018570 174.166656,167.999725 
	C174.115067,150.975235 174.063461,133.950760 174.457458,116.463120 
	C175.640274,115.985901 176.377487,115.971825 177.114716,115.957748 
	C177.114716,115.957748 177.577484,116.009163 177.889008,116.264565 
	C178.364761,116.739601 178.575699,116.896423 178.833344,116.990433 
z"/>
<path fill="#FEFEFE" opacity="1.000000" stroke="none" 
	d="
M158.827606,202.025940 
	C160.574005,203.032288 161.839005,204.072495 163.189545,204.986343 
	C165.030090,206.231720 167.617691,206.953796 168.681915,208.653503 
	C171.526245,213.196289 174.474792,210.665283 177.679260,209.977539 
	C178.039505,211.621140 178.853760,213.805511 178.872971,215.996841 
	C178.884537,217.316086 177.658340,218.646194 176.988342,219.971420 
	C175.983337,219.330292 174.976196,218.692474 173.973770,218.047333 
	C171.888077,216.705063 169.875244,215.230377 167.705231,214.042572 
	C163.836884,211.925156 159.737167,210.203491 155.987061,207.903976 
	C151.721039,205.288116 147.801819,202.110779 143.575226,199.423828 
	C142.471283,198.722046 140.785614,198.935318 139.190155,198.702515 
	C139.190155,196.896210 139.190155,195.147202 139.190155,191.399643 
	C141.532761,193.315170 142.747482,194.718384 144.281281,195.473373 
	C147.082123,196.852051 150.111023,197.759155 152.968933,199.033142 
	C154.843033,199.868576 156.583847,201.002991 158.827606,202.025940 
z"/>
<path fill="#FEFEFE" opacity="1.000000" stroke="none" 
	d="
M159.931488,92.078362 
	C164.724472,91.474953 168.082840,93.927345 171.078903,97.236679 
	C171.450577,97.647194 172.139694,97.836136 172.718445,97.980431 
	C174.192337,98.347908 180.497818,102.046417 182.196014,103.469574 
	C182.637497,103.839569 183.387695,103.935921 184.009079,103.981636 
	C189.061432,104.353333 191.971970,108.488541 195.943848,110.750809 
	C198.863281,112.413628 201.737549,114.168159 204.538391,116.023109 
	C207.084290,117.709206 209.503937,119.585922 211.857269,121.832901 
	C211.735306,122.287193 211.809830,122.205231 211.840271,122.170418 
	C206.619095,122.405998 202.050369,121.131989 198.834793,116.567268 
	C198.548462,116.160797 197.654495,116.018120 197.047379,116.028343 
	C192.899277,116.098167 190.432953,113.392838 187.913040,110.693382 
	C187.533249,110.286530 186.796539,110.074860 186.204117,110.026184 
	C181.182953,109.613640 177.957794,105.884460 174.210724,103.292603 
	C171.276428,101.262939 169.020050,98.599327 165.123489,97.767960 
	C163.152435,97.347427 161.695129,94.518875 160.003128,92.392090 
	C160.000702,92.005135 159.931488,92.078362 159.931488,92.078362 
z"/>
<path fill="#FEFEFE" opacity="1.000000" stroke="none" 
	d="
M190.957336,122.001862 
	C195.169250,124.008728 198.977112,125.943871 202.664047,128.087067 
	C203.284485,128.447723 203.808853,130.353638 203.657013,130.453857 
	C201.687790,131.753647 199.537750,132.775848 197.538803,134.035477 
	C196.151886,134.909424 194.893234,136.000992 193.637405,137.066193 
	C190.055664,140.104248 190.067749,140.118500 185.201859,139.618515 
	C185.201859,132.895248 185.201859,126.149094 185.201859,118.589851 
	C187.259903,119.911362 188.886276,120.955688 190.957336,122.001862 
z"/>
<path fill="#FEFEFE" opacity="1.000000" stroke="none" 
	d="
M168.978394,197.682388 
	C166.538696,198.989349 165.041870,199.986572 162.434265,196.816910 
	C159.830322,193.651703 155.889755,190.128906 150.740494,189.922729 
	C150.146606,189.898941 149.593597,188.853958 149.021652,188.282425 
	C149.572968,187.856018 150.066925,187.190491 150.684952,187.042282 
	C154.504929,186.126236 160.444489,182.027802 163.134537,179.203613 
	C164.203751,178.081070 166.465973,178.094864 168.997299,177.353394 
	C168.997299,184.436920 168.997299,190.824448 168.978394,197.682388 
z"/>
<path fill="#FEFEFE" opacity="1.000000" stroke="none" 
	d="
M98.019867,81.197174 
	C96.319687,82.102135 94.479187,82.287720 93.014778,83.128426 
	C91.846069,83.799362 91.135590,85.268478 89.280212,87.531815 
	C89.280212,79.044937 89.280212,72.186432 89.280212,65.156517 
	C94.131973,64.288437 96.739349,67.901939 100.097115,70.022743 
	C101.579506,70.959045 103.623390,71.006348 105.736710,71.538986 
	C105.736710,72.949623 105.736710,74.693649 105.736710,75.220955 
	C102.776588,77.351990 100.409233,79.056282 98.019867,81.197174 
z"/>
<path fill="#FEFEFE" opacity="1.000000" stroke="none" 
	d="
M166.000000,78.829849 
	C166.000000,80.430496 166.000000,81.552269 166.000000,82.809547 
	C160.906830,83.664673 158.220428,80.242737 154.901184,78.016762 
	C153.462006,77.051605 151.407806,77.003525 149.280182,76.446541 
	C149.280182,75.093262 149.280182,73.356758 149.280182,72.959511 
	C155.085083,69.124306 160.341995,65.651146 166.000000,61.912983 
	C166.000000,67.521774 166.000000,72.936371 166.000000,78.829849 
z"/>
<path fill="#FEFEFE" opacity="1.000000" stroke="none" 
	d="
M56.887985,127.998428 
	C61.246807,125.733009 65.152847,123.469299 69.794220,120.779442 
	C69.794220,128.043365 69.794220,133.807953 69.794220,140.839630 
	C64.421761,138.172424 59.603836,135.780518 54.354645,133.174515 
	C54.842892,131.788345 51.672478,128.620331 56.887985,127.998428 
z"/>
<path fill="#FEFEFE" opacity="1.000000" stroke="none" 
	d="
M166.040680,50.048805 
	C167.066986,48.304386 167.664322,46.018295 169.144348,44.862305 
	C171.286697,43.188995 174.067825,42.333530 176.787872,41.027699 
	C176.787872,56.011974 176.787872,70.897461 176.787872,85.782944 
	C176.340302,85.919434 175.892746,86.055916 175.445175,86.192398 
	C174.963455,84.522041 174.085922,82.856682 174.064758,81.180511 
	C173.935287,70.927948 174.000000,60.672928 174.000000,49.995720 
	C171.388489,49.995720 169.118927,49.995720 166.391159,49.969330 
	C165.932953,49.942940 166.006149,50.012138 166.040680,50.048805 
z"/>
<path fill="#FEFEFE" opacity="1.000000" stroke="none" 
	d="
M92.307770,195.539734 
	C92.041595,189.539871 92.041595,183.925369 92.041595,176.602768 
	C94.044930,178.770889 94.927185,180.050186 96.105278,180.936081 
	C98.932518,183.062088 101.955849,184.928726 104.763092,187.078827 
	C105.362587,187.537979 105.800919,189.394501 105.602043,189.525269 
	C103.636375,190.817749 100.844154,191.395889 99.603043,193.122833 
	C97.647186,195.844360 95.433380,196.294098 92.307770,195.539734 
z"/>
<path fill="#FEFEFE" opacity="1.000000" stroke="none" 
	d="
M110.960533,82.952667 
	C110.396805,86.189766 109.641113,89.168053 105.296844,89.080780 
	C104.538254,89.065536 103.731255,90.062355 102.993279,90.650307 
	C98.960228,93.863449 95.684486,98.473717 89.296890,97.943878 
	C89.296890,96.116989 89.296890,94.366302 89.296890,92.500183 
	C93.522072,91.648697 97.113060,89.635475 100.550697,86.538055 
	C102.910591,84.411713 106.921310,84.117508 110.631203,83.031509 
	C111.068283,83.058670 110.995117,82.989334 110.960533,82.952667 
z"/>
<path fill="#FEFEFE" opacity="1.000000" stroke="none" 
	d="
M76.089264,118.462631 
	C77.494644,118.304756 78.822632,118.609871 80.491974,118.957275 
	C80.884933,126.024376 80.936531,133.049179 80.610382,140.565140 
	C78.877319,141.037430 77.521996,141.018585 76.166664,140.999725 
	C76.115067,133.641693 76.063469,126.283653 76.089264,118.462631 
z"/>
<path fill="#FEFEFE" opacity="1.000000" stroke="none" 
	d="
M160.037323,91.970551 
	C158.289581,91.337311 155.130417,93.875092 154.885925,89.656876 
	C154.872391,89.423210 154.145569,89.152199 153.713684,89.033813 
	C149.938065,87.998970 146.058075,87.249969 142.411362,85.878334 
	C140.477554,85.150978 138.944397,83.358406 137.230377,82.046700 
	C136.910339,82.310081 136.590317,82.573463 136.270279,82.836845 
	C136.270279,81.094337 136.270279,79.351830 136.270279,75.869568 
	C138.309753,77.331718 139.610001,78.473335 141.090683,79.286324 
	C145.604828,81.764923 148.914200,86.641769 154.997955,86.040123 
	C158.617050,85.682220 159.118683,88.736084 159.963165,91.657593 
	C159.931488,92.078362 160.000702,92.005135 160.037323,91.970551 
z"/>
<path fill="#FEFEFE" opacity="1.000000" stroke="none" 
	d="
M84.000343,208.166656 
	C86.470261,208.166656 88.940170,208.166656 91.410034,208.171829 
	C92.420410,213.486649 90.940849,215.487900 85.772690,217.103821 
	C83.721924,217.745056 82.023163,219.512085 79.011986,221.544037 
	C79.011986,217.128159 79.011986,214.515228 79.453217,211.450714 
	C81.263077,210.054977 82.631706,209.110825 84.000343,208.166656 
z"/>
<path fill="#FEFEFE" opacity="1.000000" stroke="none" 
	d="
M95.979645,53.000008 
	C97.661194,53.780880 98.858444,54.619183 100.126244,55.332001 
	C104.125763,57.580715 108.253021,59.622040 112.125824,62.068207 
	C114.138206,63.339291 115.719116,65.293488 118.013000,67.419167 
	C112.040283,69.055611 109.577530,64.644585 105.923698,63.257465 
	C101.981224,61.760773 98.738304,59.926842 96.853210,56.051186 
	C96.754204,55.847622 95.853806,56.142750 95.415512,55.974220 
	C94.254333,55.527752 93.142006,54.954212 92.010246,54.431232 
	C93.182709,53.954159 94.355171,53.477085 95.979645,53.000008 
z"/>
<path fill="#FEFEFE" opacity="1.000000" stroke="none" 
	d="
M174.093414,168.395477 
	C175.521988,168.018570 176.877319,168.037430 178.532990,168.028015 
	C178.833344,171.855240 178.833344,175.710709 178.833344,179.741745 
	C176.855408,177.493668 175.193726,176.260422 174.562576,174.628586 
	C174.214096,173.727570 175.594116,172.158035 176.373688,170.512497 
	C176.013916,170.249390 175.017029,169.520309 174.093414,168.395477 
z"/>
<path fill="#FEFEFE" opacity="1.000000" stroke="none" 
	d="
M79.166664,205.999649 
	C79.166664,202.355515 79.166664,198.711380 79.166664,195.067245 
	C79.773804,195.054352 80.380951,195.041473 80.988091,195.028580 
	C80.988091,198.382172 80.988091,201.735748 80.632935,205.544647 
	C79.907410,205.999863 79.537041,205.999756 79.166664,205.999649 
z"/>
<path fill="#FEFEFE" opacity="1.000000" stroke="none" 
	d="
M76.094131,141.401337 
	C77.521996,141.018585 78.877319,141.037430 80.532990,141.028015 
	C80.833336,143.230423 80.833336,145.461105 80.833336,148.133224 
	C78.741875,145.381699 77.381737,143.592316 76.094131,141.401337 
z"/>
<path fill="#FEFEFE" opacity="1.000000" stroke="none" 
	d="
M79.089371,206.411591 
	C79.537041,205.999756 79.907410,205.999863 80.555565,205.999817 
	C81.636871,206.670410 82.440399,207.341156 83.622131,208.089294 
	C82.631706,209.110825 81.263077,210.054977 79.530556,210.999756 
	C79.115135,209.608078 79.063606,208.215805 79.089371,206.411591 
z"/>
<path fill="#FEFEFE" opacity="1.000000" stroke="none" 
	d="
M178.976929,194.285431 
	C178.997131,196.804184 178.997131,198.864746 178.997131,200.925293 
	C178.485229,200.943527 177.973312,200.961761 177.461411,200.979996 
	C177.461411,198.387390 177.461411,195.794800 177.461411,193.202194 
	C177.959854,193.410522 178.458298,193.618866 178.976929,194.285431 
z"/>
<path fill="#FEFEFE" opacity="1.000000" stroke="none" 
	d="
M177.061127,115.557709 
	C176.377487,115.971825 175.640274,115.985901 174.534851,116.000160 
	C174.550507,115.004753 174.934372,114.009171 175.318237,113.013596 
	C175.881332,113.728287 176.444427,114.442978 177.061127,115.557709 
z"/>
<path fill="#FEFEFE" opacity="1.000000" stroke="none" 
	d="
M178.883163,116.723480 
	C178.575699,116.896423 178.364761,116.739601 178.108093,116.343315 
	C178.321442,116.263283 178.627213,116.359901 178.883163,116.723480 
z"/>
</svg>