<svg version="1.1" id="Layer_1" xmlns="http://www.w3.org/2000/svg" xmlns:xlink="http://www.w3.org/1999/xlink" x="0px" y="0px"
	 width="100%" viewBox="0 0 256 304" enable-background="new 0 0 256 304" xml:space="preserve">
<path fill="#000000" opacity="1.000000" stroke="none" 
	d="
M115.585823,261.988159 
	C112.170349,255.465240 108.669167,249.415802 106.290588,242.709915 
	C105.049026,239.209549 102.077171,236.445221 100.394791,232.867035 
	C98.033203,227.844284 95.699661,222.831039 93.524437,217.715134 
	C92.065659,214.284271 90.599037,210.825653 88.320801,207.668610 
	C85.864426,204.264694 84.031952,200.224503 82.791748,196.195801 
	C81.993118,193.601547 79.973465,192.064255 78.901428,189.671524 
	C75.408966,181.876587 72.691574,173.625656 68.294601,166.350540 
	C64.212067,159.595688 62.872265,151.755920 58.267212,145.161896 
	C55.532082,141.245422 54.692696,135.623764 55.725044,130.392654 
	C56.279221,127.584526 57.115993,124.876724 60.735279,124.577637 
	C61.518208,124.512924 62.683723,124.288818 62.972519,123.757439 
	C66.838295,116.644356 75.971535,116.595650 80.822769,110.376091 
	C82.141495,108.685410 86.945717,108.318207 89.905396,106.649689 
	C95.655937,103.407814 101.931412,101.283508 106.821762,96.295021 
	C109.927315,93.127144 114.615074,91.230484 118.649002,89.375771 
	C122.062775,87.806198 124.345535,86.004829 126.248123,83.122818 
	C129.126175,78.763206 134.639847,79.572823 138.614029,77.020889 
	C141.298416,75.297173 144.231583,73.457100 147.230042,72.042175 
	C155.425278,68.174973 161.872559,61.476295 170.578812,58.271187 
	C174.257706,56.916832 176.955338,53.085293 180.584030,50.925251 
	C185.758514,47.845055 190.314438,42.582081 195.794495,41.452267 
	C202.441513,40.081867 205.693893,34.747417 211.121765,32.325649 
	C213.878632,31.095612 215.834030,31.848518 216.333786,34.886986 
	C217.052170,39.254826 215.164047,43.224503 213.401031,46.656631 
	C212.214127,48.967251 210.978210,51.004185 211.472839,53.390144 
	C212.161179,56.710411 208.651169,57.476982 207.967117,60.408783 
	C206.525558,66.587189 204.913391,72.862358 201.105484,78.581528 
	C198.441559,82.582527 195.813736,87.538322 195.430710,92.774445 
	C195.246063,95.298470 192.834793,95.789299 192.194794,98.056274 
	C189.966675,105.948677 187.132019,113.776482 183.839859,121.194130 
	C180.647980,128.385880 179.608398,136.161041 176.267929,143.116379 
	C173.272079,149.354187 172.840530,156.637695 168.144272,162.161148 
	C166.203003,164.444382 167.327728,167.582138 166.707962,170.312378 
	C165.535950,175.475433 162.176773,180.023560 162.372711,185.453827 
	C162.462662,187.946396 160.456345,188.887405 159.381531,190.336304 
	C156.017120,194.871674 156.722595,200.602112 154.360947,205.370071 
	C150.355255,213.457169 148.480759,222.375748 144.195282,230.446854 
	C142.436462,233.759384 139.128906,237.177155 140.243591,241.926727 
	C140.872620,244.606995 137.632812,245.820145 136.946243,248.610565 
	C135.421448,254.807831 133.646210,261.018097 130.150375,266.798798 
	C128.356766,269.764679 127.701691,274.234406 126.347939,277.979340 
	C125.910515,279.189423 125.599701,280.171143 124.168518,280.225800 
	C123.014389,280.269836 121.459099,280.496826 121.102516,279.201843 
	C119.532036,273.498383 114.993217,268.761169 115.585823,261.988159 
M134.747406,100.910942 
	C133.317596,98.667702 133.049530,100.030487 132.364273,101.510117 
	C130.762909,104.967834 130.484985,109.658310 128.666611,112.009583 
	C123.733597,118.388351 126.645592,128.215317 118.759712,132.898697 
	C118.315292,133.162643 118.265839,134.508240 118.408905,135.280670 
	C119.916229,143.418488 114.169525,149.745773 112.459900,157.099258 
	C111.555893,160.987625 110.126801,165.768860 107.834473,169.926147 
	C104.996399,175.073212 103.533661,181.106033 100.083725,186.127365 
	C99.234978,187.362717 99.274406,188.589233 100.026016,189.855530 
	C103.063629,194.973206 102.393211,197.110947 96.719772,199.429779 
	C95.314713,200.004059 94.048729,200.559586 94.467392,202.107834 
	C95.220062,204.891235 95.569603,208.425903 97.456360,210.140167 
	C103.150658,215.313873 104.359085,222.525681 107.603973,228.820694 
	C110.101807,233.666428 113.310806,238.032272 114.949020,243.443863 
	C115.900810,246.587952 118.061752,249.648407 118.150291,252.909805 
	C118.248253,256.518463 119.318863,258.867249 122.689980,260.289551 
	C124.140068,258.978973 124.935425,257.198517 125.873215,255.232666 
	C127.496567,251.829681 127.982063,248.176163 129.282181,244.878723 
	C131.179779,240.065979 134.299164,235.914322 135.149689,230.406876 
	C135.540527,227.876099 136.580627,224.739670 138.425003,222.010941 
	C141.203918,217.899597 144.004074,213.140289 145.102371,208.484360 
	C146.419800,202.899536 148.121109,197.724808 150.612076,192.625565 
	C151.523132,190.760574 153.471420,189.802902 153.726227,187.243195 
	C154.489700,179.573227 156.028854,172.040100 161.033401,165.712067 
	C162.004196,164.484543 161.978806,162.752747 160.606766,161.640488 
	C157.169205,158.853821 158.535995,155.248138 159.317139,152.107254 
	C159.652817,150.757629 159.766327,150.226135 159.192337,148.886093 
	C156.929855,143.604065 155.088150,138.304642 151.586197,133.450226 
	C149.941071,131.169754 148.482849,127.654091 147.316742,124.488907 
	C144.304504,116.312737 141.369537,107.898163 134.747406,100.910942 
M102.571114,108.917076 
	C99.413910,110.943802 95.148483,111.450264 93.610855,115.767624 
	C93.396683,116.368973 91.507164,116.599609 90.391098,116.605499 
	C88.244331,116.616844 86.665329,117.282242 85.341400,119.080490 
	C84.409798,120.345840 83.103004,121.539406 81.699326,122.218399 
	C74.535385,125.683701 66.594246,127.965530 62.496349,135.297440 
	C65.553047,140.346298 66.223083,146.159439 69.117821,151.160233 
	C71.924904,156.009598 73.448288,162.148697 76.705063,166.263016 
	C80.251305,170.742996 79.440262,176.319000 82.884285,180.619781 
	C84.081635,182.115005 86.217514,184.528183 86.335762,187.251968 
	C86.394478,188.604126 86.480232,190.011017 88.193565,190.358368 
	C89.940422,190.712524 90.222939,189.046371 91.162994,188.225677 
	C92.500458,187.058060 93.059715,185.655762 93.626633,184.048599 
	C94.781540,180.774551 94.468521,176.350311 96.158798,174.235504 
	C101.012390,168.162949 100.210716,159.639877 105.857025,154.172607 
	C107.019058,153.047424 106.547333,151.336411 106.663139,149.861450 
	C106.764610,148.569046 106.526825,147.273239 107.416573,146.051712 
	C111.967781,139.803452 113.609962,132.404694 115.616852,125.136139 
	C117.429039,118.572754 118.702850,111.928108 122.473999,105.877174 
	C123.957184,103.497345 127.396477,99.360512 123.572296,95.346298 
	C116.510574,99.953293 110.567001,105.406273 102.571114,108.917076 
M143.088074,95.787987 
	C144.603317,100.528557 146.278427,105.251343 149.394577,109.171333 
	C151.614944,111.964462 152.838364,115.252792 154.161499,118.365341 
	C155.797852,122.214684 157.061356,126.122238 159.691833,129.515030 
	C162.965515,133.737442 165.620880,138.346313 166.239410,144.084183 
	C166.875748,142.331711 169.267090,142.708908 169.408768,140.492950 
	C169.896225,132.868179 173.526474,126.138176 176.412155,119.333893 
	C177.763824,116.146759 176.540878,112.766273 178.609421,109.894096 
	C180.824814,106.818062 182.880707,103.545181 183.678802,99.753639 
	C185.334106,91.889610 188.769485,84.670326 192.220566,77.555847 
	C195.287186,71.233971 198.580002,65.107506 199.728760,58.080765 
	C199.852844,57.321896 200.152588,56.343403 200.711166,55.949829 
	C202.484818,54.700142 203.318054,53.182171 201.970337,51.352291 
	C200.787033,49.745667 198.515289,50.101948 197.344162,50.822464 
	C192.372238,53.881348 186.673721,55.696232 182.289993,59.771065 
	C177.099365,64.595970 170.176743,66.787369 164.702530,71.319016 
	C159.744919,75.422997 153.155579,77.006439 148.276840,81.636856 
	C145.632675,84.146423 142.422867,86.676826 137.473206,87.784378 
	C142.233932,88.792664 138.567398,94.091309 143.088074,95.787987 
z"/>
</svg>