<svg version="1.1" id="Layer_1" xmlns="http://www.w3.org/2000/svg" xmlns:xlink="http://www.w3.org/1999/xlink" x="0px" y="0px"
	 width="100%" viewBox="0 0 240 288" enable-background="new 0 0 240 288" xml:space="preserve">
<path fill="#000000" opacity="1.000000" stroke="none" 
	d="
M241.000000,154.562500 
	C238.452026,154.890472 236.437607,156.089844 234.143463,157.079956 
	C227.431702,159.976562 221.113846,163.726074 214.797379,167.184357 
	C208.723679,170.509735 202.701813,174.386215 196.520416,177.483383 
	C193.272095,179.110947 189.370804,180.804291 185.408264,181.401779 
	C181.710266,181.959396 178.308914,183.217209 175.097351,185.302475 
	C172.073212,187.266037 168.227264,187.008621 164.968536,189.278244 
	C158.729355,193.623718 150.242859,193.676208 144.758911,200.268890 
	C142.860382,202.551254 138.047546,202.346664 134.755478,204.190018 
	C132.808121,205.280426 130.040665,204.688461 128.216324,206.941696 
	C127.667709,207.619293 125.441177,207.643906 124.423607,207.117111 
	C119.342926,204.486969 113.998886,202.438446 108.940331,199.673996 
	C103.947815,196.945648 99.272873,192.849655 93.001945,192.352295 
	C90.439590,192.149063 88.115341,190.028351 85.845345,188.823074 
	C81.622307,186.580856 77.000092,185.525162 72.790939,183.323334 
	C68.671005,181.168167 64.154510,179.597961 59.736946,177.964508 
	C52.471817,175.278137 45.420822,171.705307 38.361973,168.342453 
	C32.478508,165.539551 26.715185,162.093643 20.203354,160.684814 
	C15.944340,159.763397 13.371228,156.801697 11.921172,153.163300 
	C9.684778,147.551865 15.564964,145.827042 18.167055,145.280701 
	C21.784069,144.521240 25.021429,143.041946 27.892881,141.403214 
	C33.124126,138.417755 39.028736,137.248947 44.247456,133.875641 
	C48.562469,131.086487 53.232883,128.075195 58.469219,126.288940 
	C62.737774,124.832817 66.470879,121.727081 70.635048,119.607994 
	C74.326561,117.729446 78.514038,117.303207 81.949852,114.708145 
	C89.652679,108.890175 100.139648,108.184639 107.248016,100.719086 
	C109.340210,98.521774 112.897873,95.647278 117.205856,96.551987 
	C118.545631,96.833359 119.765114,96.230591 120.644638,94.995216 
	C121.964729,93.141006 124.181641,93.064751 125.511887,94.211967 
	C130.618118,98.615593 137.546326,98.948654 142.990921,102.414909 
	C150.037445,106.901024 158.904465,107.836143 165.132980,113.882202 
	C165.463623,114.203156 166.060104,114.526466 166.462341,114.454544 
	C170.313919,113.765907 173.094376,116.036057 176.252029,117.601517 
	C182.751678,120.823830 189.850189,122.989342 195.984070,126.758484 
	C202.995010,131.066559 210.706467,134.101349 217.950836,137.617432 
	C223.610504,140.364365 229.426483,144.879074 236.516129,144.796082 
	C238.445038,144.773499 238.522644,147.428925 240.671936,147.836914 
	C241.000000,150.041672 241.000000,152.083328 241.000000,154.562500 
M40.139435,156.729416 
	C42.362450,156.875107 43.068455,158.841629 43.973186,160.287598 
	C44.847797,161.685425 45.622589,162.546661 47.379574,162.648422 
	C53.543346,163.005432 58.043514,167.253159 63.172485,169.922775 
	C64.609177,170.670578 65.796944,171.657089 67.475327,171.614426 
	C71.960739,171.500427 75.576614,174.357086 79.633675,175.600204 
	C83.808586,176.879425 87.182449,180.438461 92.135841,181.219406 
	C94.260345,181.554367 97.276672,181.718704 99.283974,183.796997 
	C103.800514,188.473267 110.269508,189.685089 115.991432,191.197800 
	C120.394310,192.361801 123.689232,194.637970 127.501190,196.696320 
	C128.807220,195.576141 130.398636,195.070221 132.104034,194.492584 
	C137.288498,192.736588 143.032547,192.070358 147.159668,187.814178 
	C149.633316,185.263168 152.668152,182.868835 156.124771,182.810104 
	C162.436829,182.702850 167.047089,178.811584 172.140060,176.312241 
	C178.852997,173.017899 185.120590,168.957703 192.879822,168.608749 
	C193.699509,168.571884 194.587036,168.532440 195.315491,168.207840 
	C204.092087,164.296951 210.784470,157.039810 219.570877,153.084091 
	C221.410446,152.255905 221.433792,149.779327 219.626099,149.062149 
	C215.272446,147.334900 211.755753,144.145935 207.146942,142.795013 
	C201.609161,141.171783 196.396011,138.510468 191.689468,135.091064 
	C190.746735,134.406143 190.035690,133.492386 188.781876,133.466934 
	C179.439377,133.277222 172.034760,127.722557 164.513794,123.500397 
	C159.061584,120.439598 153.137299,118.694809 147.736435,115.610382 
	C142.385834,112.554672 135.953247,111.611176 130.940491,107.480667 
	C128.406845,105.392944 123.459595,104.848907 121.764336,105.277847 
	C115.801338,106.786606 110.489151,110.689995 104.959274,113.657059 
	C100.194481,116.213608 94.960052,118.238747 90.721252,121.686646 
	C87.756462,124.098236 83.699234,123.480873 81.030159,125.441513 
	C74.280922,130.399338 66.042725,132.008347 58.894329,136.128876 
	C54.391689,138.724304 49.566765,141.242096 44.980659,143.741318 
	C39.973087,146.470215 34.114475,148.117889 30.349463,152.599884 
	C33.304558,153.474380 34.898304,158.216293 40.139435,156.729416 
z"/>
</svg>