<svg version="1.1" id="Layer_1" xmlns="http://www.w3.org/2000/svg" xmlns:xlink="http://www.w3.org/1999/xlink" x="0px" y="0px"
	 width="100%" viewBox="0 0 256 272" enable-background="new 0 0 256 272" xml:space="preserve">
<path fill="#000000" opacity="1.000000" stroke="none" 
	d="
M124.862015,177.767838 
	C120.238434,184.054504 113.421982,187.127686 107.143974,189.723282 
	C103.134491,191.380951 98.807037,194.349838 93.531616,193.529861 
	C88.976006,192.821747 84.217949,193.236038 79.559685,193.417969 
	C74.719536,193.606995 70.316124,193.005356 66.011932,190.285965 
	C60.504436,186.806305 54.928040,183.364227 48.749897,180.988968 
	C46.202465,180.009567 43.832016,176.470078 43.578781,174.884705 
	C42.637329,168.990738 35.919678,166.850983 35.683666,160.671707 
	C35.440250,154.298645 32.699810,148.216187 31.098988,142.154648 
	C29.008755,134.239944 30.427313,127.461571 31.323492,119.958763 
	C32.236595,112.314270 35.557892,105.945702 38.653404,99.364067 
	C39.588844,97.375160 40.551247,95.000748 41.082645,93.223770 
	C42.362835,88.942879 47.062397,87.491135 47.861702,83.140160 
	C48.333366,80.572678 51.463692,81.673637 53.245827,80.348503 
	C56.163261,78.179176 60.303902,77.133423 63.120472,75.249451 
	C67.994644,71.989174 73.568970,73.098648 78.600845,70.633148 
	C83.348114,68.307098 90.147079,67.836266 95.611282,71.424393 
	C96.814262,72.214340 97.976814,72.749794 99.289841,72.582512 
	C105.315079,71.814896 109.313828,75.595428 113.454445,78.897514 
	C116.466431,81.299545 119.871010,82.935417 123.110977,84.882462 
	C127.408836,87.465256 130.585678,91.683388 133.377121,96.062721 
	C136.566925,101.067024 136.713593,107.385719 140.625137,112.023155 
	C141.688614,113.283981 141.222366,114.890587 141.386459,116.350189 
	C141.653564,118.726089 141.433853,121.249786 143.001740,123.244766 
	C152.517365,111.252312 162.190369,99.871979 173.285156,89.993774 
	C178.975418,84.927467 184.621399,79.991058 189.343536,74.019478 
	C190.801727,72.175461 192.160675,72.039436 193.602295,74.203682 
	C197.030991,79.351013 203.168182,82.447342 204.640488,89.137856 
	C205.198792,91.674995 208.403534,90.666054 210.132462,92.709740 
	C216.060989,99.717606 222.819153,105.984932 228.579254,113.220787 
	C233.102234,118.902565 238.541641,123.853989 243.562881,129.140350 
	C246.122253,131.834854 246.332367,134.070328 243.315948,137.004333 
	C238.060974,142.115723 232.779892,147.383926 228.609787,153.354675 
	C226.291809,156.673523 222.722519,156.987152 220.194977,159.418030 
	C216.728439,162.751984 216.372787,167.710159 212.716644,171.113876 
	C206.236588,177.146530 200.696304,184.179565 194.581879,190.622314 
	C193.472321,191.791458 192.494949,195.145096 189.659561,192.104065 
	C187.413147,189.694733 184.855057,187.074677 187.617889,184.080826 
	C196.734894,174.201477 203.304169,162.315872 213.332687,153.044998 
	C218.254044,148.495438 223.095718,143.396530 227.204773,137.867584 
	C227.780151,137.093369 227.988098,135.932785 229.184830,135.818176 
	C231.346603,135.611130 233.479782,135.038864 233.041428,132.390015 
	C232.658463,130.075974 230.545258,128.732498 228.632141,127.559586 
	C223.471497,124.395660 218.366455,121.204041 216.502335,114.909683 
	C215.640060,111.998032 212.491959,111.811150 210.576813,110.173164 
	C205.906860,106.179077 202.310516,101.212181 198.450699,96.685188 
	C195.992462,93.802055 195.706497,88.848770 190.971466,86.537621 
	C183.462845,94.877510 175.852768,103.521309 168.003326,111.941986 
	C165.354904,114.783157 163.624313,118.609985 158.660385,119.178780 
	C156.058975,119.476868 154.013763,123.403770 153.147995,125.578049 
	C150.436264,132.388199 146.726868,138.303268 141.839615,143.632141 
	C141.458466,144.047729 141.322357,144.943848 141.451859,145.533249 
	C143.102249,153.045044 138.010986,158.974091 135.619888,165.100082 
	C133.944626,169.392090 130.499557,174.984238 124.862015,177.767838 
M116.900063,94.343414 
	C114.394615,91.997078 113.024857,88.955414 108.941589,87.605911 
	C106.194092,86.697868 102.501892,86.588219 100.515076,84.742668 
	C96.310364,80.836914 90.218643,84.441139 86.328453,80.407860 
	C86.156960,80.230057 85.005821,80.666809 84.608276,81.093956 
	C82.780945,83.057388 80.258331,83.344826 78.123726,82.798820 
	C72.738449,81.421326 68.657944,85.413734 63.773674,86.183929 
	C61.705757,86.510025 57.329403,87.720329 55.543159,91.106087 
	C54.168682,93.711349 51.488781,95.384743 49.760529,97.686005 
	C46.940704,101.440750 42.084381,104.331543 43.375103,110.255150 
	C43.498806,110.822861 43.278633,111.923340 42.928612,112.065926 
	C39.260078,113.560455 40.569103,116.742287 40.341187,119.380096 
	C40.066235,122.562332 40.805183,125.654732 38.086658,128.645706 
	C36.227230,130.691498 36.205040,135.315155 37.891800,137.155045 
	C41.161823,140.721924 39.970810,144.520187 40.336956,148.293625 
	C40.464703,149.610123 40.229504,151.109634 40.782646,152.213608 
	C45.165474,160.960999 52.498783,167.435760 58.346798,175.043549 
	C61.240803,178.808411 65.179756,176.935226 68.317429,179.289551 
	C72.400581,182.353302 77.448334,184.867004 83.303551,183.715775 
	C85.871483,183.210876 88.647690,183.866928 91.279808,183.564667 
	C96.080925,183.013351 101.074120,181.484619 104.933548,179.320984 
	C110.385757,176.264404 117.127823,173.609726 119.355919,166.453644 
	C119.498108,165.996948 120.790001,165.737564 121.571831,165.669052 
	C124.653641,165.398941 125.654533,162.917969 126.427361,160.674576 
	C127.006226,158.994217 128.318878,157.215271 128.445679,156.069534 
	C128.924225,151.745468 133.892166,149.235291 132.741577,144.458099 
	C132.577560,143.777191 132.982346,142.829117 133.384872,142.162186 
	C137.087631,136.027252 135.830917,130.259720 133.698395,123.712608 
	C132.299805,119.418785 129.448761,115.457619 129.447937,110.664146 
	C129.447647,108.904236 128.864243,107.532440 127.556725,105.917961 
	C124.374580,101.988800 120.734734,98.506157 116.900063,94.343414 
z"/>
</svg>