<svg version="1.1" id="Layer_1" xmlns="http://www.w3.org/2000/svg" xmlns:xlink="http://www.w3.org/1999/xlink" x="0px" y="0px"
	 width="100%" viewBox="0 0 240 304" enable-background="new 0 0 240 304" xml:space="preserve">
<path fill="#000000" opacity="1.000000" stroke="none" 
	d="
M241.000000,157.539368 
	C234.233536,158.663940 228.224167,162.011597 221.913727,163.647079 
	C215.580063,165.288589 212.390945,170.630890 206.935822,172.399551 
	C203.295044,173.579987 200.513733,177.026245 196.313889,176.449234 
	C193.694931,176.089447 192.577591,178.497772 191.016922,179.577164 
	C185.545822,183.361191 178.490707,183.400375 173.288391,187.866699 
	C171.181305,189.675690 167.483276,188.533829 164.717621,190.847122 
	C163.089890,192.208603 161.750305,188.714279 161.057678,187.161972 
	C160.343704,185.561783 159.698654,182.866684 162.172394,181.957397 
	C167.371094,180.046478 171.508545,176.378937 177.300781,174.973175 
	C182.546219,173.700089 188.043427,170.229279 193.235703,168.121338 
	C198.357239,166.042114 202.021393,161.753448 207.337250,160.562576 
	C209.632721,160.048325 211.430527,158.265686 212.974289,157.076569 
	C215.711975,154.967758 218.577499,154.775330 221.777740,154.261490 
	C222.090408,150.208908 221.386673,147.353317 216.706238,146.788147 
	C210.724304,146.065781 206.436508,141.498901 200.926193,139.489304 
	C194.960403,137.313644 189.440948,133.945923 183.608475,131.365662 
	C174.451355,127.314613 165.581085,122.800659 156.956268,117.669647 
	C153.851593,115.822632 149.656693,115.613029 146.384232,113.431252 
	C141.292038,110.036224 134.873825,109.809029 129.786545,105.853294 
	C125.420303,102.458206 121.452545,106.892090 117.499451,108.854401 
	C112.169281,111.500298 107.587845,115.909988 101.479759,116.618881 
	C99.037971,116.902260 98.041756,118.473381 96.687561,119.665100 
	C91.640190,124.106895 85.944359,127.303139 79.343231,128.289444 
	C76.797913,128.669739 76.239693,130.947372 74.097969,131.659912 
	C64.884941,134.725082 56.304916,139.325546 47.731388,143.788498 
	C44.030502,145.714981 40.886215,148.605545 36.707584,149.966766 
	C34.696613,150.621857 34.664036,153.417053 36.839558,154.218140 
	C44.735062,157.125473 50.929497,163.765381 58.720299,165.802155 
	C65.392845,167.546616 70.508240,172.737457 77.675728,172.910416 
	C79.636162,172.957733 81.418365,175.143097 83.388535,176.222137 
	C90.544739,180.141541 98.247482,182.854309 105.347115,187.054672 
	C110.298599,189.984116 117.380447,190.205627 122.695068,192.954575 
	C126.566704,194.957153 131.519089,194.431824 134.565109,198.397736 
	C137.027359,201.603577 136.243591,203.036804 133.641556,205.649658 
	C128.977051,210.333557 124.577339,206.125168 122.478149,204.442749 
	C117.563034,200.503418 111.221024,200.424805 106.540428,196.912720 
	C101.606346,193.210403 95.139832,193.479324 90.077736,189.299927 
	C87.813728,187.430695 83.087029,184.931091 78.673447,185.334549 
	C77.512894,185.440628 76.598259,184.834320 75.569237,184.132248 
	C70.635986,180.766403 64.984947,178.784332 59.665493,176.207535 
	C52.251156,172.615952 44.111500,170.681839 37.166981,165.812225 
	C34.329887,163.822815 31.016768,161.568863 26.857357,161.195526 
	C22.426983,160.797852 18.775717,157.766693 16.161848,154.276367 
	C15.027075,152.761108 14.841276,150.244034 17.820354,148.553375 
	C24.485247,144.770966 31.817842,142.622162 38.586277,139.252258 
	C41.128334,137.986603 44.098034,136.831360 46.190582,134.323288 
	C48.003441,132.150452 50.159264,129.811813 53.719463,130.558258 
	C55.941307,131.024109 56.468609,128.408768 58.165890,127.792877 
	C65.327576,125.194107 71.409958,120.532646 78.792671,117.994125 
	C85.440041,115.708450 91.488441,110.866318 97.916740,107.570518 
	C103.027588,104.950172 107.565331,100.371902 113.978004,100.522354 
	C115.039642,100.547256 115.972565,100.076805 116.464737,99.119331 
	C119.883850,92.467911 126.163467,95.138397 131.425552,94.481087 
	C133.711807,94.195503 133.235611,97.228271 134.985199,97.444710 
	C143.338898,98.478165 149.668808,104.242332 157.343384,106.984024 
	C163.898010,109.325615 170.963364,112.019066 176.130630,116.170471 
	C182.789459,121.520226 190.936508,122.717140 198.001358,126.610146 
	C204.609940,130.251724 212.102432,133.279160 219.124771,136.692352 
	C224.563660,139.335907 229.962189,141.764908 235.931000,142.897308 
	C237.649338,143.223328 238.056732,145.974670 240.654236,145.866913 
	C241.000000,149.692902 241.000000,153.385818 241.000000,157.539368 
z"/>
</svg>