<svg version="1.1" id="Layer_1" xmlns="http://www.w3.org/2000/svg" xmlns:xlink="http://www.w3.org/1999/xlink" x="0px" y="0px"
	 width="100%" viewBox="0 0 256 304" enable-background="new 0 0 256 304" xml:space="preserve">
<path fill="#000000" opacity="1.000000" stroke="none" 
	d="
M21.673439,168.041870 
	C18.383692,161.849777 17.130371,155.101608 13.188615,149.546860 
	C12.917562,149.164871 12.754846,148.599869 12.777492,148.131378 
	C13.180580,139.792191 7.754106,132.274612 9.564901,123.658287 
	C10.608261,118.693649 10.228446,113.727715 11.840325,108.498734 
	C13.649261,102.630470 16.097422,96.749641 17.344524,90.721504 
	C19.739115,79.146751 27.500422,71.245796 35.264828,63.679165 
	C40.312267,58.760284 47.076580,55.389603 54.230083,53.543140 
	C54.989063,53.347233 55.682594,52.847008 56.368290,52.425789 
	C63.322304,48.154007 70.397469,44.293816 78.962379,44.637707 
	C82.289856,44.771313 85.833443,43.923470 88.921066,44.792686 
	C97.656860,47.251961 107.346481,46.732895 114.967712,52.781017 
	C116.857491,54.280727 119.223923,53.168499 121.223480,54.014824 
	C123.128860,55.060978 121.551468,57.643658 123.686111,59.041191 
	C126.713593,52.701279 134.404083,52.797768 138.733719,48.048244 
	C139.005203,47.750420 139.677353,47.819447 140.162384,47.714443 
	C150.542252,45.467319 160.942108,44.036808 171.665131,44.538345 
	C181.654694,45.005577 190.195160,48.847683 199.284927,52.536640 
	C211.233795,57.385925 216.996033,68.100899 225.964905,75.639297 
	C228.821548,78.040344 229.110886,82.526894 231.129517,85.870544 
	C233.124374,89.174850 234.829346,92.787643 236.420593,96.298195 
	C238.250565,100.335419 239.017502,105.089569 239.221909,109.578972 
	C239.630798,118.559227 239.878113,127.613739 239.170181,136.556686 
	C238.608688,143.650345 236.683899,150.582138 232.539490,156.802887 
	C230.098251,160.467194 228.232361,164.735672 227.113144,168.996521 
	C226.034668,173.102173 223.313339,175.468002 220.796173,178.439270 
	C216.720108,183.250656 212.674286,187.393494 206.104126,188.609924 
	C202.804062,189.220917 197.920975,196.562073 198.420700,200.012375 
	C199.518753,207.593460 195.947906,214.576874 196.044754,222.057907 
	C196.077591,224.592987 193.617325,227.134201 192.436859,229.762115 
	C190.781372,233.447418 189.043152,237.261551 186.987396,240.644714 
	C183.653351,246.131622 180.048447,251.922333 173.490372,254.494858 
	C172.678238,254.813431 171.660507,255.143921 171.684418,255.977982 
	C171.781647,259.367310 168.363983,259.523224 167.111053,261.233459 
	C163.146072,266.645630 156.360123,266.096893 151.868073,269.591125 
	C147.525406,272.969177 142.061218,270.589874 138.514862,272.782745 
	C131.353210,277.211121 124.049553,274.743896 116.867073,275.247223 
	C111.527824,275.621368 106.964607,272.495972 102.212273,270.346588 
	C98.921303,268.858185 95.315575,268.233459 91.926216,266.683899 
	C87.332085,264.583588 83.838081,260.381226 78.526642,259.782959 
	C77.224548,253.563690 69.214081,252.766800 67.710785,247.781403 
	C65.443596,240.262787 58.883125,235.082916 58.125755,226.591171 
	C57.783516,222.753906 58.358795,217.226196 54.070694,213.996246 
	C53.604969,213.645462 53.529282,212.344177 53.730202,211.608780 
	C55.505795,205.109680 51.163280,199.751526 50.285316,193.726852 
	C49.856743,190.785919 45.764923,189.441696 42.858650,188.489868 
	C40.070549,187.576736 37.872654,186.447464 36.198765,183.982697 
	C34.954678,182.150803 33.709652,180.011063 30.826248,180.281937 
	C29.752266,180.382828 28.829533,179.682419 28.820509,178.500732 
	C28.782862,173.571167 24.851662,171.278015 21.673439,168.041870 
M187.629486,187.231155 
	C194.009750,188.388275 198.157745,183.313919 203.333023,181.233826 
	C205.424698,180.393112 209.846512,179.528534 208.986465,175.015030 
	C208.934555,174.742493 209.604279,174.026459 209.923904,174.035278 
	C214.255646,174.154922 215.039795,169.865189 217.672791,168.040695 
	C220.178802,166.304214 218.499039,163.261703 220.398224,162.056900 
	C228.616821,156.843079 226.123260,146.798859 230.627029,139.956421 
	C229.350906,125.900055 233.609329,111.419708 227.331848,97.739555 
	C225.357773,93.437607 224.644775,87.911446 221.483978,84.926224 
	C213.471771,77.359116 208.517151,66.848595 197.821289,61.729992 
	C191.993759,58.941166 186.092728,54.768963 180.076141,54.763355 
	C169.142303,54.753162 158.155884,52.414379 146.945755,56.741058 
	C141.861023,58.703571 137.102631,59.318489 134.479782,64.549088 
	C135.908173,65.831192 137.075333,67.194122 139.569077,65.793640 
	C143.972015,63.320946 148.764328,61.856586 153.970703,62.559738 
	C154.424789,62.621071 155.151901,62.490925 155.371246,62.180523 
	C157.872025,58.641502 161.584106,59.765976 164.939667,59.668690 
	C168.434830,59.567356 171.935349,59.626823 175.433258,59.651669 
	C178.346878,59.672363 180.891296,59.791817 183.659225,61.851063 
	C185.352768,63.110985 187.208649,65.813812 189.648376,65.482468 
	C196.758926,64.516769 199.045898,71.810951 204.515121,73.705292 
	C208.105667,74.948921 209.215973,79.260910 212.115738,81.721901 
	C216.870972,85.757584 220.444733,91.173592 222.792343,96.771027 
	C223.874756,99.351784 226.291916,101.455406 226.310760,104.525108 
	C226.341995,109.612617 226.730362,114.532219 228.088226,119.605743 
	C230.394073,128.221375 226.141891,136.763504 226.099991,145.464996 
	C226.096786,146.132584 225.154373,146.746216 224.849655,147.469650 
	C222.393616,153.300644 218.509293,158.476379 216.770309,164.993073 
	C213.055374,165.031616 211.162354,167.978500 209.011368,170.638184 
	C207.468826,172.545502 206.125336,175.195786 204.091415,176.007935 
	C199.183212,177.967850 195.325256,181.832458 190.306519,183.300400 
	C188.073410,183.953552 187.354553,185.113190 186.250748,186.882324 
	C182.420364,185.984360 178.951630,187.607620 175.309113,188.140793 
	C162.775955,189.975327 150.763214,187.573593 139.709885,180.983719 
	C137.859268,179.880371 135.337875,179.650101 133.830124,181.669052 
	C132.947540,182.850861 133.248993,184.540298 134.991333,185.423203 
	C139.868027,187.894333 145.464981,187.860870 150.493820,190.333084 
	C153.915558,192.015244 158.954071,189.403824 162.242905,193.444412 
	C162.654205,193.949738 164.231201,193.821274 165.136795,193.549301 
	C167.699265,192.779770 169.614914,188.508911 172.951996,192.218918 
	C175.733368,188.756729 179.478668,191.114990 182.737427,190.752869 
	C185.392624,190.457809 186.741669,189.566055 187.629486,187.231155 
M197.764404,79.950500 
	C193.037994,77.400887 188.211624,75.016167 183.624985,72.235970 
	C181.123535,70.719704 178.971542,69.283546 175.734985,69.254066 
	C166.912567,69.173706 158.205185,69.190155 149.780258,72.429916 
	C146.878342,73.545830 143.217529,77.595367 144.711151,79.010544 
	C148.970154,83.045815 147.773727,89.362457 151.595596,93.719322 
	C153.038010,95.363640 155.090118,98.496887 155.010040,100.762390 
	C154.767776,107.618164 158.365631,113.907135 157.382187,120.776718 
	C156.992966,123.495483 157.480499,125.633827 161.091278,125.843964 
	C164.149796,126.021950 163.482895,128.733139 163.097717,130.494537 
	C162.223236,134.493469 155.280716,137.041122 152.159668,134.430908 
	C147.723175,130.720551 142.936646,128.623749 137.056000,129.319092 
	C135.798538,129.467773 134.232224,129.743484 133.240189,128.684860 
	C129.232544,124.408279 124.190941,126.917908 119.613205,126.556252 
	C118.068161,126.434196 117.389572,127.820015 117.457451,129.348816 
	C117.518944,130.733658 118.314651,131.461838 119.666176,131.563278 
	C125.410706,131.994446 130.979843,131.696869 136.782928,134.136765 
	C140.137405,135.547150 144.277863,136.482864 147.965927,137.941360 
	C149.575851,138.578003 150.145782,140.480637 152.333527,140.812531 
	C156.372208,141.425217 159.215683,147.028610 156.580185,149.778687 
	C152.037949,154.518356 149.679657,160.564865 145.647034,165.524002 
	C143.611877,168.026749 143.193115,171.623184 145.564102,172.958298 
	C148.569672,174.650757 151.413330,177.892883 155.728851,176.740280 
	C156.901703,176.427032 158.508087,176.675995 159.591797,177.263763 
	C166.176926,180.835281 168.263779,180.869232 173.178665,175.786728 
	C176.234924,172.626221 179.165237,172.998383 182.207230,175.097885 
	C183.188293,175.775009 183.872223,176.772583 185.128143,176.269577 
	C186.632767,175.666962 186.497406,174.199234 186.672852,172.871201 
	C186.896393,171.179214 185.878769,168.941620 188.122559,168.014801 
	C190.666931,166.963852 192.845566,167.952209 194.982147,171.024368 
	C195.438690,167.415710 198.310181,168.347809 199.551514,167.079437 
	C204.663422,161.856216 210.588287,156.986649 214.133118,150.795471 
	C217.708755,144.550491 218.166702,136.615448 219.254623,129.466614 
	C220.248169,122.938019 220.480301,116.016724 217.231201,108.920204 
	C214.704529,103.401550 214.731857,96.720100 209.197556,92.548225 
	C208.878387,92.307632 208.831802,91.645630 208.746185,91.164124 
	C207.682861,85.182777 203.853912,81.978256 197.764404,79.950500 
M82.358109,69.368919 
	C79.579269,69.621826 76.540527,68.469681 74.052940,70.126175 
	C69.775269,72.974686 65.025238,75.153893 60.672382,77.737366 
	C55.001965,81.102844 50.953091,85.838402 45.965519,89.662453 
	C43.921551,91.229591 41.799316,93.082802 40.601826,95.288582 
	C37.714916,100.606285 33.667797,105.683052 35.170029,112.450439 
	C35.258492,112.848976 34.984520,113.586555 34.653782,113.779083 
	C31.719624,115.486938 32.150036,118.353302 32.386951,120.915459 
	C32.867718,126.114929 31.920835,131.109756 34.666077,136.564133 
	C36.906902,141.016327 36.604267,146.622818 39.863304,151.664978 
	C43.514835,157.314362 48.247055,161.788254 52.336945,166.895004 
	C53.512901,168.363342 57.059200,168.401886 57.649292,166.741608 
	C58.687595,163.820236 61.089054,161.535477 61.504162,158.525833 
	C62.444035,151.711411 66.748749,146.665741 70.269981,141.249985 
	C72.425026,137.935471 78.178604,137.749863 78.309746,132.429428 
	C78.314133,132.251480 78.860168,131.899246 79.095436,131.942856 
	C82.519630,132.577209 84.089622,129.227600 86.863075,128.238724 
	C89.810890,127.187683 92.460686,124.373917 91.593437,120.480743 
	C90.096947,113.762840 94.067207,108.150742 95.590508,102.197662 
	C97.565636,94.478844 101.487823,87.110001 106.522232,80.606277 
	C107.873161,78.861092 108.498184,77.022644 106.129234,75.558357 
	C99.125450,71.229202 90.516823,72.795792 82.358109,69.368919 
M141.565277,197.325836 
	C135.989838,196.209396 132.022202,191.893097 126.825012,189.870895 
	C124.666618,189.031082 124.014694,188.525986 122.001198,190.220963 
	C115.390633,195.785721 108.489449,201.097946 99.015053,200.403168 
	C97.879822,200.319931 96.418549,200.183167 95.793991,201.302155 
	C93.805969,204.864059 92.147949,202.223892 90.308220,200.920334 
	C88.188019,203.641525 86.175781,204.418411 83.373856,201.582535 
	C81.035500,199.215851 77.645515,200.044083 74.887650,200.892563 
	C72.464020,201.638229 73.413879,204.307007 73.365280,206.185654 
	C73.229164,211.448486 76.913979,215.648773 77.521881,220.790939 
	C77.877701,223.800797 79.100182,226.923584 81.832268,228.655914 
	C86.654449,231.713531 88.586357,237.582947 94.689651,239.957962 
	C97.610207,241.094452 99.760750,245.361481 104.266174,244.829849 
	C104.806885,244.766052 105.541534,245.210114 105.984673,245.631027 
	C110.383446,249.809158 115.581657,251.256531 121.571213,250.705719 
	C124.874481,250.401947 128.229660,250.700455 131.558731,250.618347 
	C132.684250,250.590576 134.197678,250.620850 134.859177,249.954681 
	C139.698578,245.081039 146.568924,244.560333 152.267532,241.574219 
	C158.175400,238.478424 164.148071,234.890182 166.849655,228.792694 
	C169.831726,222.062225 173.259476,215.239243 173.691025,207.621185 
	C173.777771,206.089920 175.728912,205.868210 175.480545,204.403503 
	C171.286240,199.189072 168.110275,198.893066 161.409210,202.949615 
	C155.763474,198.574768 147.972275,201.643890 141.565277,197.325836 
M123.487358,77.385292 
	C125.728683,82.546921 131.940994,83.436546 134.677505,88.920868 
	C137.738052,95.054588 138.364380,101.698280 140.915085,107.875870 
	C142.919205,112.729721 144.838196,117.337746 148.220871,122.167976 
	C150.062988,107.657997 144.452652,96.162613 137.367294,85.062401 
	C135.931671,82.813309 132.741440,81.844330 132.667618,78.685303 
	C132.614120,76.395592 131.542480,75.332054 129.299728,75.314064 
	C128.050415,75.304039 127.292480,74.766052 126.568230,73.605057 
	C118.965485,61.417515 106.158051,57.116726 93.488167,54.959465 
	C84.246040,53.385834 73.882095,51.749767 64.543953,57.261669 
	C62.981991,58.183636 62.125656,59.672871 60.363491,60.435387 
	C52.871670,63.677200 45.511108,67.344162 40.334919,73.967987 
	C38.947937,75.742859 36.275940,74.840416 35.338287,77.543442 
	C33.406689,83.111755 29.178595,87.468735 26.592543,92.797523 
	C24.453835,97.204529 20.926935,100.930168 21.320427,106.318588 
	C21.404232,107.466225 21.637318,109.139008 21.012722,109.716301 
	C16.586292,113.807449 19.195204,119.100044 18.276834,123.756760 
	C16.777046,131.361618 20.026644,138.176727 21.826929,145.092773 
	C23.464163,151.382416 26.398617,157.519058 29.788549,163.099030 
	C31.846439,166.486420 34.136887,170.764404 36.752548,172.772354 
	C41.887272,176.714111 46.739571,181.461105 53.050880,184.268082 
	C53.685062,180.797028 55.131676,177.210983 49.432652,177.234543 
	C48.490089,177.238434 48.131317,176.454803 47.646225,175.736679 
	C42.530540,168.163345 34.320892,163.255875 30.741808,154.116730 
	C27.713478,146.383926 23.991602,138.859329 23.823954,130.546524 
	C23.668856,122.855927 23.926708,115.312973 26.023293,107.402512 
	C28.497231,98.068298 33.388027,90.658226 38.695103,83.599350 
	C44.922661,75.316154 53.530628,69.262901 63.379017,65.062134 
	C69.563713,62.424080 75.341972,59.011490 82.389053,59.644531 
	C87.458153,60.099895 92.407166,59.021912 97.532776,62.140011 
	C100.594597,64.002625 105.425453,63.205475 109.300247,65.563354 
	C114.493111,68.723305 119.527138,71.814026 123.487358,77.385292 
M182.845688,213.196075 
	C182.417313,214.770157 182.375366,216.615494 181.493744,217.871399 
	C177.652893,223.342850 176.399277,230.018494 171.936737,235.478027 
	C168.945328,239.137756 166.073441,243.372772 163.103134,247.315186 
	C161.656082,249.235809 158.430969,247.557144 157.170578,250.296494 
	C155.617188,253.672684 152.779129,254.873871 149.072937,254.412964 
	C147.270889,254.188843 145.698944,255.446686 144.116257,255.915390 
	C139.724930,257.215851 135.852905,260.619934 131.172424,260.247375 
	C123.519875,259.638245 115.841339,261.983978 108.051483,257.858612 
	C104.705559,256.086670 100.033653,254.569321 95.653717,253.610672 
	C90.745216,252.536346 86.728027,247.965179 83.315369,243.475616 
	C80.945847,240.358398 77.222534,238.237320 75.742989,234.307281 
	C73.958366,229.566925 72.240639,224.745560 68.128944,221.474258 
	C67.025230,220.596115 66.684410,219.780731 66.664726,218.613617 
	C66.598160,214.668777 65.373924,210.777863 65.058266,207.050018 
	C64.056694,195.221527 64.293144,183.356705 69.137100,171.924377 
	C70.353653,169.053146 71.924088,166.082870 73.190201,163.292862 
	C75.424873,158.368515 77.643684,153.225372 82.161774,149.180588 
	C85.854660,145.874557 90.863716,143.936188 93.820244,139.451965 
	C90.801674,138.056030 89.076416,138.259644 87.318710,141.140106 
	C85.300209,144.447937 80.430275,143.599564 77.718666,146.647278 
	C73.961136,150.870514 72.959396,156.986038 68.021126,160.331467 
	C67.683815,160.559982 67.687859,161.245972 67.446815,161.670151 
	C64.825233,166.283340 64.973991,171.693542 62.934944,176.669510 
	C60.450497,182.732422 62.519573,190.382385 59.473000,196.918213 
	C59.068665,197.785629 59.721512,198.921066 60.625900,199.495346 
	C61.721577,200.191071 62.175430,201.133987 62.277283,202.383194 
	C62.770897,208.437347 63.560711,214.432480 64.592209,220.413116 
	C66.041214,228.814468 71.799385,234.060349 74.563538,241.204834 
	C77.329033,248.352798 86.229118,249.774750 90.267159,256.066101 
	C90.580566,256.554382 91.816101,256.664032 92.596420,256.603912 
	C96.816025,256.278900 99.444908,259.798370 103.129204,260.851501 
	C107.759834,262.175140 111.739014,265.966217 116.778618,265.540283 
	C123.751183,264.950958 131.309784,268.169189 137.606247,262.673279 
	C143.345123,264.398865 148.422546,260.971893 152.820969,258.955780 
	C158.896927,256.170685 165.356232,253.074097 169.982208,247.335022 
	C175.817245,240.095963 182.348969,233.609283 185.459290,224.347870 
	C186.522171,221.182938 185.454239,217.757050 187.599365,214.938187 
	C191.733292,209.505859 189.076843,203.685318 189.228287,197.180878 
	C185.556183,200.386566 185.177689,203.526276 185.306610,206.949478 
	C185.383209,208.983810 186.087524,211.427063 182.845688,213.196075 
M118.346321,163.479385 
	C119.269745,159.944366 117.369537,156.251617 115.717644,154.418732 
	C109.861237,147.920639 110.592773,139.429764 108.055946,132.074539 
	C104.450317,121.620445 111.438370,111.085892 110.858864,100.279556 
	C110.837158,99.874687 111.266609,99.411308 111.556976,99.029282 
	C114.685532,94.913261 116.045731,89.906494 118.382187,85.390564 
	C118.975319,84.244164 118.885132,82.645309 117.468254,81.858101 
	C116.085793,81.090019 115.313347,81.940063 114.173714,82.936417 
	C111.995972,84.840370 111.943420,87.570786 110.657890,89.699669 
	C106.340172,96.849968 104.807899,104.790382 103.367973,112.786079 
	C103.053032,114.534866 103.074081,116.047943 101.692741,117.691963 
	C99.157158,120.709732 99.284515,125.096016 101.299370,127.854820 
	C103.116814,130.343338 103.689758,132.611359 103.263885,135.099167 
	C102.204987,141.284882 107.377441,146.011810 106.895424,152.015533 
	C106.846077,152.630173 107.771942,153.370575 108.326584,153.978439 
	C111.690636,157.665314 113.172523,162.367935 115.388901,167.008118 
	C116.311981,165.967194 117.161880,165.008789 118.346321,163.479385 
M89.456757,154.873459 
	C87.011963,159.002914 82.938644,161.696579 80.085709,165.427109 
	C77.596809,168.681641 76.085518,172.490234 76.392693,176.737991 
	C76.565552,179.128342 78.110085,180.537460 79.863525,178.515533 
	C82.235184,175.780762 83.686531,177.142761 85.643974,179.192993 
	C86.877487,176.692474 88.981911,176.595871 91.197708,176.644150 
	C93.857498,176.702103 96.530373,176.776550 99.178993,176.585739 
	C103.140678,176.300323 108.508659,171.967697 107.315819,169.989716 
	C105.577095,167.106537 106.083237,163.270920 102.852211,160.975494 
	C101.201614,159.802887 100.187263,157.799957 99.372368,155.460495 
	C97.457314,149.962448 93.241882,153.620392 89.456757,154.873459 
M107.590492,187.559494 
	C115.394905,187.684387 119.981590,182.240692 124.861839,177.435135 
	C130.710068,171.676437 136.211899,165.434280 139.546936,157.970978 
	C141.273697,154.106750 145.766830,150.419357 142.867630,144.883652 
	C139.357269,146.786224 138.691254,150.287872 137.111511,153.314896 
	C133.925201,159.420334 130.216202,165.456451 125.095604,169.968475 
	C120.988953,173.587051 118.764191,178.811005 112.773705,181.159805 
	C107.630318,183.176483 102.883507,185.535126 97.327469,187.081177 
	C89.145683,189.357895 81.675705,187.740067 73.673927,187.545441 
	C73.690193,188.307190 73.204254,190.068008 73.980003,190.029373 
	C77.620651,189.848083 80.696739,197.587448 84.807266,190.862061 
	C85.068169,190.435181 86.391075,190.706909 87.202637,190.558853 
	C91.519218,189.771317 95.827530,190.591492 100.132790,190.682022 
	C102.990791,190.742126 105.313187,190.236526 107.590492,187.559494 
M129.961624,101.536880 
	C129.397690,99.341934 125.989876,98.938828 126.558296,95.939018 
	C126.803978,94.642403 125.969116,93.739647 124.499847,93.753464 
	C122.682953,93.770561 122.439667,95.010750 122.339172,96.452660 
	C122.214478,98.241776 123.099998,100.615074 121.641006,101.709114 
	C115.872070,106.035042 117.374252,111.868866 117.646416,117.862915 
	C122.807343,115.108795 128.528168,118.153839 133.917755,115.472374 
	C132.090485,112.767761 132.788055,109.919075 132.685226,107.151756 
	C132.611221,105.160156 132.877304,103.068115 129.961624,101.536880 
M120.684624,141.750656 
	C120.011826,143.269455 122.220726,151.632797 123.495041,152.265869 
	C124.502937,152.766586 125.365753,152.454056 126.181091,151.720016 
	C128.744995,149.411713 130.692032,146.683502 129.429565,143.164154 
	C128.268036,139.926224 125.117775,141.871902 122.884460,141.392197 
	C122.420860,141.292618 121.901398,141.453156 120.684624,141.750656 
z"/>
</svg>