<?xml version="1.0" encoding="UTF-8"?>
<svg version="1.1" xmlns="http://www.w3.org/2000/svg" width="195" height="193">
<path d="M0 0 C64.35 0 128.7 0 195 0 C195 63.69 195 127.38 195 193 C130.65 193 66.3 193 0 193 C0 129.31 0 65.62 0 0 Z " fill="#FDFDFD" transform="translate(0,0)"/>
<path d="M0 0 C2.191513 1.57258217 2.191513 1.57258217 4.42578125 2.62890625 C15.12686843 7.97944984 23.22785283 24.16124669 27.58203125 34.67578125 C32.66916144 50.0477616 32.55033844 66.25255476 25.45703125 80.92578125 C24.41824331 82.8140214 23.3564213 84.68981342 22.26953125 86.55078125 C21.78226562 87.43507813 21.295 88.319375 20.79296875 89.23046875 C12.76710894 103.35083173 -0.32856679 114.07661127 -15.73046875 119.55078125 C-21.00729383 120.75223688 -26.34047502 121.19640202 -31.73046875 121.55078125 C-32.56449219 121.61007813 -33.39851563 121.669375 -34.2578125 121.73046875 C-36.44494574 121.80378048 -38.54812832 121.71638887 -40.73046875 121.55078125 C-41.77332031 121.48246094 -42.81617188 121.41414062 -43.890625 121.34375 C-59.09794396 119.81122948 -74.83699636 111.36798438 -84.73046875 99.55078125 C-97.4689121 81.70479976 -102.02154253 63.94508403 -99.04296875 42.30078125 C-97.86045696 36.01706899 -95.41401588 30.32757737 -92.73046875 24.55078125 C-92.07046875 24.55078125 -91.41046875 24.55078125 -90.73046875 24.55078125 C-90.56611328 23.45830078 -90.56611328 23.45830078 -90.3984375 22.34375 C-87.9214765 11.98686629 -78.79780201 6.10987023 -70.40966797 0.65722656 C-68.75883275 -0.43052936 -67.15201304 -1.58415746 -65.546875 -2.73828125 C-62.73046875 -4.44921875 -62.73046875 -4.44921875 -58.73046875 -4.44921875 C-58.73046875 -5.10921875 -58.73046875 -5.76921875 -58.73046875 -6.44921875 C-39.55749771 -15.47762943 -17.06757942 -11.82408344 0 0 Z " fill="#FDFDFD" transform="translate(132.73046875,33.44921875)"/>
<path d="M0 0 C0.62092529 0.3926001 1.24185059 0.7852002 1.8815918 1.18969727 C3.37780161 2.17215975 4.82008319 3.23583187 6.25 4.3125 C6.25 4.9725 6.25 5.6325 6.25 6.3125 C6.84296875 6.56257813 7.4359375 6.81265625 8.046875 7.0703125 C15.34039792 11.18261797 21.28025059 22.18757314 25.25 29.3125 C25.25 30.6325 25.25 31.9525 25.25 33.3125 C25.91 33.3125 26.57 33.3125 27.25 33.3125 C31.20670302 51.02162709 33.48539763 72.92251964 24.25 89.3125 C23.70859375 90.29089844 23.1671875 91.26929687 22.609375 92.27734375 C19.44897944 97.83551768 16.23448926 103.30342778 12.25 108.3125 C11.59 108.3125 10.93 108.3125 10.25 108.3125 C9.9715625 109.13041016 9.9715625 109.13041016 9.6875 109.96484375 C7.54665315 113.46117243 4.53700991 115.4873687 1.25 117.875 C0.23885132 118.61459961 0.23885132 118.61459961 -0.79272461 119.36914062 C-5.17971145 122.4706383 -9.17246781 124.685613 -14.50390625 125.75 C-16.91873768 126.25873811 -16.91873768 126.25873811 -19.53125 127.79296875 C-23.22019355 129.53447244 -26.67808782 130.18232187 -30.6875 130.625 C-31.42750244 130.70766113 -32.16750488 130.79032227 -32.92993164 130.87548828 C-44.09360114 131.92100314 -54.6329044 130.21824588 -64.75 125.3125 C-65.71550781 124.86777344 -66.68101563 124.42304688 -67.67578125 123.96484375 C-70.75364754 122.49826197 -73.75583929 120.94278671 -76.75 119.3125 C-77.60722656 118.84585938 -78.46445313 118.37921875 -79.34765625 117.8984375 C-86.98960627 113.17520373 -91.64547713 106.41452423 -96.56494141 99.07519531 C-97.56224325 97.5917756 -98.59551545 96.13262958 -99.63671875 94.6796875 C-108.58859078 81.37589784 -110.41286962 62.07697132 -107.52734375 46.6875 C-103.71291239 30.12635079 -96.86769373 12.76580315 -82.30859375 2.609375 C-80.61387646 1.58478256 -78.89720823 0.59558686 -77.16015625 -0.35546875 C-75.02778534 -1.5339752 -73.15719764 -2.82670618 -71.1875 -4.25 C-49.06956623 -17.82036574 -20.84460307 -13.24304658 0 0 Z M-62.75 -2.6875 C-62.75 -2.0275 -62.75 -1.3675 -62.75 -0.6875 C-64.05130859 -0.57148438 -64.05130859 -0.57148438 -65.37890625 -0.453125 C-69.3907242 0.4580179 -71.47743979 2.01469926 -74.6875 4.5625 C-77.89848831 7.09710072 -81.06715661 9.55233549 -84.5625 11.6875 C-89.25688451 14.97125665 -92.19272 20.29121465 -94.75 25.3125 C-94.75 26.3025 -94.75 27.2925 -94.75 28.3125 C-95.41 28.3125 -96.07 28.3125 -96.75 28.3125 C-103.91065737 43.72704488 -107.06115783 62.70424825 -101.75 79.3125 C-99.43379204 85.15067255 -96.66402621 90.75330119 -93.75 96.3125 C-93.275625 97.22773437 -92.80125 98.14296875 -92.3125 99.0859375 C-85.79087521 110.14940812 -70.790712 119.29892933 -58.75 123.3125 C-40.50918547 126.94239926 -22.00108111 126.78714193 -6.01171875 116.5546875 C1.94515839 111.08493004 9.12294416 105.58362825 14.25 97.3125 C14.78004639 96.47090332 14.78004639 96.47090332 15.32080078 95.61230469 C20.80710517 86.79527238 24.71436161 78.71919231 26.25 68.3125 C26.44722656 67.20003906 26.64445313 66.08757812 26.84765625 64.94140625 C28.71556918 48.09391977 22.10509035 31.6735227 12.25 18.3125 C10.01604494 15.54423816 7.7036097 12.88757553 5.25 10.3125 C4.50169922 9.51779297 4.50169922 9.51779297 3.73828125 8.70703125 C1.81255963 6.90261493 -0.37693002 5.73733563 -2.68359375 4.48046875 C-4.14164509 3.65635278 -5.56969647 2.77804061 -6.97265625 1.86328125 C-23.32918311 -8.69532226 -44.9345699 -11.07665467 -62.75 -2.6875 Z " fill="#0C0C0C" transform="translate(136.75,29.6875)"/>
</svg>
