<svg version="1.1" id="Layer_1" xmlns="http://www.w3.org/2000/svg" xmlns:xlink="http://www.w3.org/1999/xlink" x="0px" y="0px"
	 width="100%" viewBox="0 0 192 208" enable-background="new 0 0 192 208" xml:space="preserve">
<path fill="#000000" opacity="1.000000" stroke="none" 
	d="
M80.076050,102.646294 
	C84.538132,102.601547 88.007942,103.277817 90.442017,107.200058 
	C94.017433,112.961418 92.102623,118.124313 88.734688,122.646347 
	C85.561119,126.907425 73.442352,124.925964 71.000984,119.632599 
	C67.691154,112.456215 68.445236,102.711243 80.076050,102.646294 
M85.167404,111.463173 
	C83.854614,109.631088 80.744652,111.149368 80.203506,108.194328 
	C78.039841,110.638031 76.202072,112.916962 77.943893,115.603348 
	C79.155594,117.472122 81.627769,116.734444 83.502480,116.456093 
	C86.066795,116.075340 85.559425,113.921738 85.167404,111.463173 
z"/>
<path fill="#000000" opacity="1.000000" stroke="none" 
	d="
M157.522720,181.304565 
	C151.344040,175.637161 151.989014,173.673767 156.195526,166.157379 
	C158.811996,161.482178 161.935898,160.825409 165.613205,161.879150 
	C169.232803,162.916351 171.555969,165.980652 173.665070,169.580231 
	C176.313873,174.100876 174.212433,177.466187 173.020676,181.153214 
	C172.260345,183.505447 170.014603,184.965775 167.464127,184.300949 
	C164.171890,183.442780 159.624222,187.098770 157.522720,181.304565 
M167.024307,171.342331 
	C164.853271,169.962234 162.358521,169.499557 160.881500,171.773346 
	C159.493561,173.909988 160.335251,176.256546 162.668625,177.738144 
	C165.132080,176.544601 168.838959,176.363098 167.024307,171.342331 
z"/>
<path fill="#000000" opacity="1.000000" stroke="none" 
	d="
M146.933502,116.351044 
	C143.753357,117.733719 144.831497,121.881126 141.191284,123.056740 
	C136.191772,124.671356 130.067978,124.765152 127.291000,121.673233 
	C124.021240,118.032654 123.956688,109.455254 127.169029,105.467262 
	C130.964157,100.755753 141.506409,102.275703 144.585403,107.520454 
	C146.203964,110.277489 148.046173,112.607719 146.933502,116.351044 
M133.216141,110.567223 
	C130.837524,111.716553 130.801895,113.950134 131.894974,115.552986 
	C133.056900,117.256836 135.670090,117.619011 137.508301,117.276917 
	C139.376480,116.929260 139.914078,114.739990 139.533646,112.785530 
	C138.857574,109.312187 136.080002,110.622162 133.216141,110.567223 
z"/>
<path fill="#000000" opacity="1.000000" stroke="none" 
	d="
M101.030037,56.630089 
	C98.957726,51.189373 99.778900,46.428288 102.286583,41.710987 
	C104.112938,38.275364 106.871956,36.731647 110.402115,37.856987 
	C114.271454,39.090454 118.131401,40.876347 118.317421,45.936245 
	C118.384338,47.756439 118.276413,49.583424 118.353951,51.402802 
	C118.651848,58.392815 116.312927,59.938656 111.151634,62.009201 
	C106.417519,63.908375 103.412270,60.876537 101.030037,56.630089 
M105.366280,48.796253 
	C105.373505,49.780865 105.354416,50.766537 105.394196,51.749832 
	C105.452454,53.189762 105.900017,54.412716 107.611069,54.401829 
	C109.059456,54.392624 109.466438,53.313953 109.642769,52.075706 
	C109.734039,51.434837 109.794464,50.717484 110.124252,50.196312 
	C111.080063,48.685814 112.770859,46.937927 110.266594,45.765381 
	C108.341576,44.864044 105.930084,44.920334 105.366280,48.796253 
z"/>
<path fill="#000000" opacity="1.000000" stroke="none" 
	d="
M62.228500,168.614838 
	C62.314217,171.379868 62.362015,173.709869 62.357239,176.039764 
	C62.345909,181.565308 58.369129,186.228271 53.892525,185.995926 
	C49.029469,185.743530 43.569321,180.460098 43.662106,175.693771 
	C43.733505,172.026016 42.715080,168.237152 46.015465,164.947083 
	C50.424366,160.551987 54.048660,160.249146 58.639000,164.817490 
	C59.790146,165.963120 60.989491,167.060318 62.228500,168.614838 
M51.448063,177.771515 
	C54.591583,179.190445 55.661892,176.802612 56.435013,174.706802 
	C56.988846,173.205444 56.951851,171.213058 54.742237,170.670242 
	C52.049446,170.008713 50.222485,171.949966 48.915150,173.634705 
	C47.425285,175.554688 49.703026,176.371872 51.448063,177.771515 
z"/>
<path fill="#000000" opacity="1.000000" stroke="none" 
	d="
M104.440567,161.790161 
	C113.893982,161.740540 119.276878,170.271210 115.684135,178.884186 
	C112.667084,186.117035 108.797493,187.587830 101.687584,183.998825 
	C100.263245,183.279846 98.817429,182.136841 98.763565,180.242065 
	C98.573853,173.568039 97.249107,166.546967 104.440567,161.790161 
M109.192284,177.601379 
	C109.220016,175.402466 111.903969,173.105209 109.084633,171.033340 
	C107.647026,169.976868 105.884285,170.041229 104.453842,170.990250 
	C103.034782,171.931732 103.057167,173.721970 103.567543,175.032669 
	C104.417900,177.216461 105.790443,179.123001 109.192284,177.601379 
z"/>
</svg>