<svg version="1.1" id="Layer_1" xmlns="http://www.w3.org/2000/svg" xmlns:xlink="http://www.w3.org/1999/xlink" x="0px" y="0px"
	 width="100%" viewBox="0 0 258 307" enable-background="new 0 0 258 307" xml:space="preserve">
<path fill="none" opacity="1.000000" stroke="#000000" stroke-linecap="round" stroke-linejoin="round" stroke-width="10.000000"
	d="
M237.500000,217.500000 
	C238.506165,223.003082 235.253998,226.814468 231.409180,229.362991 
	C223.546036,234.574997 217.794266,241.757797 211.447113,248.449844 
	C206.648392,253.509308 201.984833,258.666840 197.461929,263.967499 
	C196.558914,265.025818 195.251678,266.190582 193.983185,266.396393 
	C190.859253,266.903320 189.508957,268.999573 188.525543,271.510010 
	C187.233810,274.807465 184.935104,275.584564 181.499817,275.576569 
	C133.166763,275.463898 84.832893,275.411621 36.500767,275.653137 
	C32.235031,275.674469 29.283865,273.070282 25.500000,272.500000 
"/>
<path fill="none" opacity="1.000000" stroke="#000000" stroke-linecap="round" stroke-linejoin="round" stroke-width="6.000000"
	d="
M185.000000,102.000000 
	C183.344025,100.691177 181.385925,101.007545 179.500000,101.005920 
	C166.500000,100.994690 153.497055,100.840584 140.501495,101.080681 
	C135.501083,101.173065 130.409515,103.835098 125.566483,102.291412 
	C121.743889,101.072990 118.137695,100.373520 114.532234,101.595139 
	C110.016174,103.125290 105.228798,103.215820 101.074333,102.196915 
	C96.802338,101.149185 92.617004,100.627571 88.513329,101.112717 
	C71.200806,103.159431 53.842487,102.324135 36.499905,102.489975 
	C33.633179,102.517395 30.767008,102.738205 27.985340,101.533859 
	C24.865482,100.183075 22.783436,101.873528 21.532936,104.515587 
	C18.251404,111.448830 18.141384,118.651299 19.959921,126.009903 
	C20.396509,127.776535 20.477589,129.666580 20.478813,131.500015 
	C20.506399,172.833328 20.413002,214.167114 20.620834,255.499390 
	C20.644249,260.155701 18.616852,265.467224 23.000000,269.500000 
"/>
<path fill="none" opacity="1.000000" stroke="#000000" stroke-linecap="round" stroke-linejoin="round" stroke-width="7.000000"
	d="
M194.000000,91.000000 
	C193.785446,88.287712 196.013535,87.208138 197.339172,85.383179 
	C201.549957,79.586349 206.870392,74.834427 211.670471,69.658089 
	C216.358551,64.602501 222.321472,60.733006 227.047440,55.543201 
	C230.079346,52.213737 233.015213,48.792007 237.434845,46.851585 
	C239.949005,45.747749 238.663208,37.948547 235.979279,37.062813 
	C234.426697,36.550430 232.667252,36.529385 230.999908,36.522369 
	C220.500092,36.478199 209.945557,35.805614 199.509705,36.623783 
	C160.522171,39.680428 121.494888,37.100201 82.499886,37.994907 
	C80.833603,38.033142 79.052650,37.756443 78.007050,39.504219 
	C73.327408,47.326546 65.953247,52.828518 60.153076,59.707481 
	C53.635532,67.437241 46.071629,74.568016 38.669174,81.676178 
	C33.326912,86.806053 27.670252,92.379456 26.500000,100.500000 
"/>
<path fill="none" opacity="1.000000" stroke="#000000" stroke-linecap="round" stroke-linejoin="round" stroke-width="10.000000"
	d="
M239.000000,48.500000 
	C241.667084,50.825871 242.334656,53.971458 241.125931,56.949646 
	C239.960495,59.821224 240.009933,62.613892 240.007767,65.500008 
	C239.992935,85.166656 239.956985,104.833511 240.035599,124.499855 
	C240.051697,128.530640 239.405060,132.599777 241.368774,136.564987 
	C242.164169,138.171082 242.059921,140.709442 241.403625,142.463943 
	C238.476120,150.290253 240.898071,157.584564 242.924149,165.020660 
	C243.431427,166.882446 243.000000,169.000000 243.000000,171.000000 
	C243.000000,183.666672 243.028320,196.333420 242.988510,208.999969 
	C242.967407,215.716049 241.327591,216.885452 234.491882,215.541306 
	C233.047714,215.257339 231.500000,215.500000 230.000000,215.500000 
	C181.500000,215.500000 132.999939,215.532806 84.500122,215.437759 
	C80.617805,215.430145 77.554649,215.926208 75.947762,219.979294 
	C75.304482,221.601852 74.176628,223.183624 72.002296,222.975937 
	C71.038025,222.883835 70.036911,223.436264 70.077858,223.994293 
	C70.432808,228.831558 65.476715,230.229706 63.631489,233.810074 
	C61.333874,238.268219 56.637283,241.734299 52.437683,244.917786 
	C43.264256,251.871582 36.934471,261.430328 29.000000,269.500000 
"/>
<path fill="none" opacity="1.000000" stroke="#000000" stroke-linecap="round" stroke-linejoin="round" stroke-width="7.000000"
	d="
M78.000000,98.000000 
	C78.000000,134.333328 78.012421,170.666687 77.976753,206.999985 
	C77.973854,209.953308 78.071381,212.830536 79.500000,215.500000 
"/>
<path fill="none" opacity="1.000000" stroke="#000000" stroke-linecap="round" stroke-linejoin="round" stroke-width="7.000000"
	d="
M192.500000,92.000000 
	C183.315475,98.304787 185.373734,107.991211 186.306290,116.466301 
	C187.194717,124.540375 186.918076,132.533707 186.684723,140.490753 
	C186.595078,143.547501 187.148361,146.495148 187.131470,149.500732 
	C186.928253,185.666275 187.046021,221.833481 186.931763,257.999786 
	C186.919785,261.790527 187.642319,265.073975 190.000000,268.000000 
"/>
</svg>