<svg version="1.1" id="Layer_1" xmlns="http://www.w3.org/2000/svg" xmlns:xlink="http://www.w3.org/1999/xlink" x="0px" y="0px"
	 width="100%" viewBox="0 0 253 276" enable-background="new 0 0 253 276" xml:space="preserve">
<path fill="#FEFEFE" opacity="1.000000" stroke="none" 
	d="
M172.000000,277.000000 
	C114.666664,277.000000 57.833332,277.000000 1.000000,277.000000 
	C1.000000,185.000000 1.000000,93.000000 1.000000,1.000000 
	C85.333336,1.000000 169.666672,1.000000 254.000000,1.000000 
	C254.000000,93.000000 254.000000,185.000000 254.000000,277.000000 
	C226.833328,277.000000 199.666672,277.000000 172.000000,277.000000 
M202.000259,167.484406 
	C201.005081,165.840012 199.547806,164.311417 199.101334,162.529526 
	C197.762955,157.187820 197.196228,151.790924 191.569397,148.427063 
	C190.467010,147.768036 190.798843,142.012283 192.343094,140.240173 
	C194.814987,137.403503 197.507309,135.470291 197.206573,131.020981 
	C197.076492,129.096527 199.053131,126.916580 200.344742,125.039848 
	C201.729767,123.027367 203.540558,121.311256 204.970276,119.325241 
	C206.432251,117.294411 207.621323,115.069420 208.996643,112.973236 
	C210.285629,111.008652 212.912247,108.996330 212.760376,107.189026 
	C212.340866,102.196228 216.509567,99.280678 217.218506,94.968002 
	C217.523361,93.113548 217.477814,89.982826 218.388184,89.656807 
	C222.402130,88.219406 220.709961,85.609344 220.793335,83.000000 
	C204.729370,83.000000 189.084259,82.969269 173.439606,83.041664 
	C171.629333,83.050034 168.853973,81.793449 168.800690,85.442772 
	C167.200790,85.154160 165.605942,84.832230 163.999146,84.589256 
	C163.012222,84.440033 161.266327,84.073662 161.125763,84.381760 
	C159.859299,87.157372 159.213882,87.110207 157.917847,84.296646 
	C155.936218,79.994690 154.492691,75.343651 150.066284,72.488068 
	C148.075119,71.203514 146.409912,69.428658 146.754654,66.166183 
	C146.993195,63.908840 145.893997,60.449657 144.189117,59.276707 
	C141.016907,57.094231 138.812393,55.195503 138.815323,50.975750 
	C138.816895,48.715485 138.033401,45.477135 136.434814,44.372570 
	C131.178055,40.740360 129.330246,35.596943 127.792984,29.881809 
	C127.384933,28.364775 125.010414,27.376680 123.538803,26.145721 
	C121.360146,29.688778 118.428955,32.992619 117.206100,36.839504 
	C115.878204,41.016857 115.256264,45.326839 111.992836,48.585495 
	C111.011574,49.565311 109.032501,50.686405 109.164162,51.462109 
	C110.354698,58.476509 104.559677,63.406269 103.948303,69.817001 
	C103.910515,70.213219 103.553902,70.815559 103.225166,70.912201 
	C97.887299,72.481407 97.669220,77.778938 96.226013,81.612854 
	C93.903572,87.782509 93.227104,88.999954 86.591171,88.999985 
	C75.262451,89.000038 63.933727,89.000000 52.605007,89.000000 
	C44.159996,89.000000 35.714981,89.000000 26.854046,89.000000 
	C27.054928,92.263107 26.605299,97.189522 27.495758,97.445000 
	C33.405468,99.140488 32.098518,105.697525 35.870884,108.760139 
	C37.424545,110.021477 36.815464,114.468056 38.302517,115.197235 
	C43.854057,117.919456 43.974281,124.131325 47.556900,128.019760 
	C48.925022,129.504669 49.082729,132.040512 50.077721,133.948456 
	C51.587234,136.843018 54.195210,139.439941 54.792923,142.468002 
	C55.615871,146.637146 55.045147,151.091339 54.960041,155.421234 
	C54.943363,156.269821 54.548931,157.184692 54.106060,157.938080 
	C52.454605,160.747589 49.458141,163.422348 49.274036,166.295532 
	C48.939198,171.521118 42.307861,173.393021 43.495659,178.924500 
	C43.329666,178.938324 43.109089,178.887695 43.005604,178.975342 
	C39.856213,181.642395 37.264389,184.300217 35.573830,188.566956 
	C34.223866,191.974091 30.982536,194.865616 29.024403,198.633682 
	C26.929611,202.664703 25.114038,206.176773 25.008024,210.999619 
	C40.739067,210.999619 56.038879,211.020950 71.338203,210.944778 
	C72.223114,210.940369 73.457840,210.378174 73.924377,209.674301 
	C75.744781,206.927795 77.223503,206.941284 79.094513,209.645004 
	C79.516899,210.255356 81.441818,210.682388 81.855927,210.302017 
	C84.406754,207.958954 84.328674,207.873947 85.946991,210.934036 
	C87.834358,207.605804 87.323814,208.722916 90.170631,210.023956 
	C94.321701,211.921082 92.961678,216.245392 95.743851,218.854416 
	C98.595947,221.529007 99.334457,226.453979 101.012680,230.387772 
	C101.243279,230.928314 101.425911,231.620895 101.855743,231.923447 
	C104.600990,233.855728 107.363525,235.465927 107.174431,239.703842 
	C107.074608,241.940994 107.964661,244.706039 109.385513,246.424194 
	C112.138229,249.752914 114.534561,252.958099 115.089081,257.452118 
	C115.554237,261.221954 121.492607,265.043488 125.008522,264.742432 
	C126.047455,261.168396 126.866478,257.743805 128.097214,254.474182 
	C128.483932,253.446808 130.796494,252.870758 130.832443,252.028595 
	C131.101944,245.713272 137.394211,242.944107 139.070816,237.377426 
	C140.465363,232.747238 144.753357,229.357285 145.204071,224.032486 
	C145.326202,222.589630 147.634613,221.389801 148.797195,219.962479 
	C150.273911,218.149460 151.706604,216.283325 152.970642,214.319336 
	C154.169220,212.457062 154.764755,210.067429 156.286026,208.589722 
	C157.936035,206.986984 160.321655,206.112534 162.466415,205.087814 
	C162.712601,204.970169 163.689804,205.825211 163.955627,206.401154 
	C165.209930,209.118607 165.884628,209.125763 167.211029,206.300232 
	C167.574509,205.525925 171.646896,205.444031 171.743271,205.753189 
	C172.862595,209.344421 173.666122,209.593536 175.168045,205.938416 
	C175.416962,205.332596 177.051300,205.065948 178.055328,205.040970 
	C182.051224,204.941635 186.051056,205.000000 190.049423,205.000000 
	C200.327652,204.999985 210.605881,205.000000 222.085724,205.000000 
	C220.454193,201.225357 219.194244,198.399506 218.007172,195.543365 
	C216.183044,191.154358 214.967957,186.391998 212.471298,182.433334 
	C209.395081,177.555695 206.996277,173.927811 206.746857,170.959885 
	C205.008530,170.018738 203.506256,169.205399 202.000259,167.484406 
z"/>
<path fill="#000000" opacity="1.000000" stroke="none" 
	d="
M202.002136,167.938232 
	C203.506256,169.205399 205.008530,170.018738 206.746857,170.959885 
	C206.996277,173.927811 209.395081,177.555695 212.471298,182.433334 
	C214.967957,186.391998 216.183044,191.154358 218.007172,195.543365 
	C219.194244,198.399506 220.454193,201.225357 222.085724,205.000000 
	C210.605881,205.000000 200.327652,204.999985 190.049423,205.000000 
	C186.051056,205.000000 182.051224,204.941635 178.055328,205.040970 
	C177.051300,205.065948 175.416962,205.332596 175.168045,205.938416 
	C173.666122,209.593536 172.862595,209.344421 171.743271,205.753189 
	C171.646896,205.444031 167.574509,205.525925 167.211029,206.300232 
	C165.884628,209.125763 165.209930,209.118607 163.955627,206.401154 
	C163.689804,205.825211 162.712601,204.970169 162.466415,205.087814 
	C160.321655,206.112534 157.936035,206.986984 156.286026,208.589722 
	C154.764755,210.067429 154.169220,212.457062 152.970642,214.319336 
	C151.706604,216.283325 150.273911,218.149460 148.797195,219.962479 
	C147.634613,221.389801 145.326202,222.589630 145.204071,224.032486 
	C144.753357,229.357285 140.465363,232.747238 139.070816,237.377426 
	C137.394211,242.944107 131.101944,245.713272 130.832443,252.028595 
	C130.796494,252.870758 128.483932,253.446808 128.097214,254.474182 
	C126.866478,257.743805 126.047455,261.168396 125.008522,264.742432 
	C121.492607,265.043488 115.554237,261.221954 115.089081,257.452118 
	C114.534561,252.958099 112.138229,249.752914 109.385513,246.424194 
	C107.964661,244.706039 107.074608,241.940994 107.174431,239.703842 
	C107.363525,235.465927 104.600990,233.855728 101.855743,231.923447 
	C101.425911,231.620895 101.243279,230.928314 101.012680,230.387772 
	C99.334457,226.453979 98.595947,221.529007 95.743851,218.854416 
	C92.961678,216.245392 94.321701,211.921082 90.170631,210.023956 
	C87.323814,208.722916 87.834358,207.605804 85.946991,210.934036 
	C84.328674,207.873947 84.406754,207.958954 81.855927,210.302017 
	C81.441818,210.682388 79.516899,210.255356 79.094513,209.645004 
	C77.223503,206.941284 75.744781,206.927795 73.924377,209.674301 
	C73.457840,210.378174 72.223114,210.940369 71.338203,210.944778 
	C56.038879,211.020950 40.739067,210.999619 25.008024,210.999619 
	C25.114038,206.176773 26.929611,202.664703 29.024403,198.633682 
	C30.982536,194.865616 34.223866,191.974091 35.573830,188.566956 
	C37.264389,184.300217 39.856213,181.642395 43.005604,178.975342 
	C43.109089,178.887695 43.329666,178.938324 43.495659,178.924500 
	C42.307861,173.393021 48.939198,171.521118 49.274036,166.295532 
	C49.458141,163.422348 52.454605,160.747589 54.106060,157.938080 
	C54.548931,157.184692 54.943363,156.269821 54.960041,155.421234 
	C55.045147,151.091339 55.615871,146.637146 54.792923,142.468002 
	C54.195210,139.439941 51.587234,136.843018 50.077721,133.948456 
	C49.082729,132.040512 48.925022,129.504669 47.556900,128.019760 
	C43.974281,124.131325 43.854057,117.919456 38.302517,115.197235 
	C36.815464,114.468056 37.424545,110.021477 35.870884,108.760139 
	C32.098518,105.697525 33.405468,99.140488 27.495758,97.445000 
	C26.605299,97.189522 27.054928,92.263107 26.854046,89.000000 
	C35.714981,89.000000 44.159996,89.000000 52.605007,89.000000 
	C63.933727,89.000000 75.262451,89.000038 86.591171,88.999985 
	C93.227104,88.999954 93.903572,87.782509 96.226013,81.612854 
	C97.669220,77.778938 97.887299,72.481407 103.225166,70.912201 
	C103.553902,70.815559 103.910515,70.213219 103.948303,69.817001 
	C104.559677,63.406269 110.354698,58.476509 109.164162,51.462109 
	C109.032501,50.686405 111.011574,49.565311 111.992836,48.585495 
	C115.256264,45.326839 115.878204,41.016857 117.206100,36.839504 
	C118.428955,32.992619 121.360146,29.688778 123.538803,26.145721 
	C125.010414,27.376680 127.384933,28.364775 127.792984,29.881809 
	C129.330246,35.596943 131.178055,40.740360 136.434814,44.372570 
	C138.033401,45.477135 138.816895,48.715485 138.815323,50.975750 
	C138.812393,55.195503 141.016907,57.094231 144.189117,59.276707 
	C145.893997,60.449657 146.993195,63.908840 146.754654,66.166183 
	C146.409912,69.428658 148.075119,71.203514 150.066284,72.488068 
	C154.492691,75.343651 155.936218,79.994690 157.917847,84.296646 
	C159.213882,87.110207 159.859299,87.157372 161.125763,84.381760 
	C161.266327,84.073662 163.012222,84.440033 163.999146,84.589256 
	C165.605942,84.832230 167.200790,85.154160 168.800690,85.442772 
	C168.853973,81.793449 171.629333,83.050034 173.439606,83.041664 
	C189.084259,82.969269 204.729370,83.000000 220.793335,83.000000 
	C220.709961,85.609344 222.402130,88.219406 218.388184,89.656807 
	C217.477814,89.982826 217.523361,93.113548 217.218506,94.968002 
	C216.509567,99.280678 212.340866,102.196228 212.760376,107.189026 
	C212.912247,108.996330 210.285629,111.008652 208.996643,112.973236 
	C207.621323,115.069420 206.432251,117.294411 204.970276,119.325241 
	C203.540558,121.311256 201.729767,123.027367 200.344742,125.039848 
	C199.053131,126.916580 197.076492,129.096527 197.206573,131.020981 
	C197.507309,135.470291 194.814987,137.403503 192.343094,140.240173 
	C190.798843,142.012283 190.467010,147.768036 191.569397,148.427063 
	C197.196228,151.790924 197.762955,157.187820 199.101334,162.529526 
	C199.547806,164.311417 201.005081,165.840012 202.002136,167.938232 
M188.855011,131.007919 
	C192.409744,131.100891 190.635605,128.563675 190.988449,126.358589 
	C191.028580,125.921555 191.068710,125.484512 191.933304,125.002739 
	C193.621231,123.432487 196.247726,122.137398 196.805237,120.235741 
	C198.034424,116.042961 198.405533,111.661530 201.970108,108.482681 
	C203.184479,107.399696 204.276978,106.036308 205.008011,104.590172 
	C206.003235,102.621445 206.423645,100.362457 207.416092,98.391899 
	C208.352264,96.533081 209.710037,94.886581 210.987350,92.990829 
	C209.427963,92.293533 209.135498,92.048561 208.842682,92.048134 
	C189.209930,92.019585 169.577118,92.003174 149.944382,92.023178 
	C148.996201,92.024147 147.224075,92.351501 147.221970,92.542213 
	C147.178925,96.429848 144.245193,94.917564 142.515930,94.938805 
	C132.368179,95.063408 122.217735,94.960358 112.069473,95.061211 
	C111.047630,95.071365 110.034233,95.931793 109.016922,96.397629 
	C109.965843,96.931702 110.911888,97.925278 111.864113,97.931236 
	C127.336990,98.028076 142.810669,98.012169 158.284027,97.967583 
	C159.171188,97.965019 160.821396,97.515961 160.827850,97.244171 
	C160.913483,93.629333 163.633621,95.082436 165.213440,95.062088 
	C174.861984,94.937859 184.550903,95.496895 194.144897,94.763023 
	C198.156693,94.456146 198.946930,98.110275 201.857742,98.536461 
	C200.907242,99.822548 199.945343,101.100395 199.010056,102.397446 
	C198.328934,103.341972 197.207993,104.262108 197.101547,105.278793 
	C196.574280,110.315163 193.935760,114.620872 190.717361,117.817848 
	C188.646332,119.875076 187.890442,121.461784 187.186966,124.269096 
	C185.792908,126.065605 183.188934,127.930542 183.285767,129.642746 
	C183.434464,132.271759 185.440094,134.795761 186.657730,137.364319 
	C187.119232,137.219788 187.580750,137.075241 188.042252,136.930695 
	C188.042252,134.992035 188.042252,133.053375 188.855011,131.007919 
M77.206955,134.278152 
	C77.801369,133.680710 78.999634,132.937119 78.895912,132.508667 
	C77.955536,128.623779 81.445816,127.342743 83.085770,124.995750 
	C83.768425,124.018776 84.434990,123.030563 85.938240,121.985710 
	C87.297806,119.402069 88.536430,116.743134 90.075272,114.271095 
	C90.708656,113.253609 92.439316,112.837494 92.895004,111.805305 
	C94.804337,107.480431 95.643311,102.450539 98.362053,98.781174 
	C101.055588,95.145844 103.244362,91.653725 104.043007,87.251793 
	C104.120415,86.825127 104.409744,86.373055 104.727982,86.063736 
	C108.180450,82.708092 109.540932,78.799210 108.015800,74.042236 
	C106.062546,76.774117 105.068863,79.888954 103.497025,82.677971 
	C101.984863,85.361084 98.697540,87.519356 98.263687,90.239014 
	C97.252335,96.578835 92.844849,100.779419 89.759514,105.715912 
	C88.513855,107.708954 86.682907,108.921211 86.818588,111.753479 
	C86.882416,113.085838 85.424034,115.517334 84.361359,115.695366 
	C80.298477,116.375999 82.511406,119.120079 81.796394,121.717331 
	C78.584923,122.423798 77.501472,124.742569 76.928635,127.695488 
	C76.688881,128.931366 75.660347,130.014221 74.456528,131.067017 
	C74.359901,131.372787 74.263283,131.678558 74.012161,132.730286 
	C74.063660,133.486740 74.115158,134.243195 74.012047,135.849472 
	C74.570404,137.227005 75.128761,138.604538 75.687119,139.982071 
	C76.121223,138.642609 76.579224,137.310043 76.969994,135.958054 
	C77.051704,135.675369 76.885368,135.320984 77.206955,134.278152 
M197.004807,176.803772 
	C197.100189,180.903458 197.967911,184.648392 201.505722,187.304871 
	C201.885544,187.590057 202.102066,188.882858 201.915955,189.010422 
	C199.859985,190.419876 197.755997,192.722260 195.576202,192.820938 
	C186.281311,193.241745 176.939545,192.692673 167.653702,193.203445 
	C165.148590,193.341248 162.780014,195.960861 160.348755,197.441269 
	C160.644943,197.960846 160.941132,198.480423 161.237305,199.000000 
	C166.369080,199.000000 171.543045,198.594070 176.619980,199.121765 
	C181.099640,199.587357 185.458038,197.280151 189.901154,198.930405 
	C190.132721,199.016403 190.677643,198.504242 190.959396,198.171326 
	C193.574371,195.081390 194.123672,195.274963 197.153687,198.075912 
	C198.067963,198.921066 200.842346,199.031311 201.835449,198.268494 
	C204.549805,196.183548 204.353745,195.928299 205.953842,198.976852 
	C206.747635,197.977951 207.379944,196.806793 208.338593,196.047699 
	C210.991196,193.947342 210.196945,192.506607 208.538239,189.861725 
	C206.523560,186.649216 201.471786,185.893707 201.728577,180.678665 
	C201.800217,179.224075 198.613449,177.609039 196.994339,175.153534 
	C196.869919,172.518051 197.434982,167.892670 196.508591,167.571655 
	C190.717148,165.564941 191.618347,159.204468 188.084564,155.827347 
	C186.540131,154.351395 186.813217,149.856979 185.475708,149.473724 
	C179.572296,147.782135 180.303879,141.689743 177.223831,138.163254 
	C173.556046,133.963852 171.551559,128.275833 169.019577,123.137596 
	C167.972839,121.013412 168.022858,118.084007 166.533920,116.496162 
	C163.160828,112.898987 161.648117,108.633255 160.372131,103.941299 
	C158.958694,104.039207 157.514481,104.139244 155.997864,104.244301 
	C157.764999,109.116165 159.424774,113.713112 161.115341,118.298714 
	C161.212997,118.563599 161.625412,118.697311 161.782608,118.957718 
	C163.534027,121.859093 165.377502,124.713493 166.957565,127.706520 
	C167.917496,129.524826 168.069611,132.914597 169.262497,133.260468 
	C173.682312,134.541931 173.250809,139.247345 174.441452,141.661743 
	C176.943329,146.735031 179.902191,151.394043 182.930862,156.105301 
	C184.828506,159.057175 186.120026,162.402664 188.056686,165.324173 
	C189.406662,167.360626 191.484039,168.572144 191.363403,171.775467 
	C191.314072,173.085480 195.050003,174.538040 197.004807,176.803772 
M111.744064,232.234100 
	C112.212334,234.148682 112.423088,236.178146 113.213104,237.949203 
	C114.233261,240.236160 115.616249,242.384628 117.029633,244.465988 
	C118.337486,246.391922 119.891327,248.150833 121.336815,249.983292 
	C122.882484,248.592758 125.588264,247.339020 125.771187,245.787811 
	C126.526794,239.379959 131.130417,235.192291 134.251404,230.274445 
	C135.523804,228.269455 137.136398,226.993469 137.227722,224.230545 
	C137.275558,222.783737 139.443100,221.423996 140.609711,219.989441 
	C141.128189,219.351898 141.692841,218.683716 141.971664,217.931290 
	C143.177200,214.677933 143.814468,211.111115 145.542267,208.179169 
	C147.916397,204.150452 153.816391,202.428253 153.326355,196.407425 
	C153.317795,196.302277 153.964828,196.228683 154.087906,196.014862 
	C155.417130,193.705185 156.881973,191.447876 157.934219,189.013901 
	C158.588608,187.500198 156.951202,185.195663 160.324768,184.648453 
	C161.749847,184.417297 163.065491,181.925232 163.938080,180.210129 
	C165.659912,176.825851 167.853775,173.372131 168.321823,169.749359 
	C168.762558,166.338074 170.153519,162.853043 172.285400,161.843765 
	C176.106064,160.034973 174.745499,157.753616 174.921371,155.228790 
	C172.767593,155.228790 171.014664,155.228790 169.261719,155.228790 
	C169.648026,155.600677 170.034348,155.972580 170.420654,156.344467 
	C168.542755,158.914459 166.635117,161.463623 164.809525,164.070251 
	C164.394318,164.663101 164.250763,165.450562 164.003525,166.155930 
	C162.911301,169.272095 162.257217,172.639984 160.632950,175.447174 
	C158.502060,179.130020 154.039124,182.110291 153.414154,185.864670 
	C152.498398,191.365738 145.160049,192.793961 146.450623,198.919098 
	C142.176056,201.539124 141.866150,206.751236 139.036804,210.363510 
	C137.732010,212.029373 137.977295,215.816467 136.606537,216.366669 
	C130.631439,218.765015 131.618393,226.180084 126.702454,229.121002 
	C126.214783,229.412750 126.119148,230.519440 126.017830,231.271637 
	C125.317245,236.472961 122.386238,238.489700 117.332977,237.410385 
	C116.529510,233.861923 115.871239,230.381180 114.856827,227.007523 
	C114.675941,226.405960 113.018417,226.248398 112.002411,225.056076 
	C110.266121,222.748779 108.297752,220.646988 108.534943,217.323273 
	C108.626503,216.040298 107.762497,214.519608 106.951668,213.378876 
	C105.496895,211.332184 103.753075,209.490952 102.130051,207.563858 
	C101.657883,207.903946 101.185707,208.244034 100.713539,208.584122 
	C101.099648,210.375198 101.132469,212.350739 101.949982,213.916580 
	C103.377968,216.651749 105.709381,218.959747 106.880348,221.772278 
	C108.087212,224.671021 108.299988,227.974457 109.117821,231.055664 
	C109.223404,231.453415 110.347809,231.580734 111.744064,232.234100 
M166.960785,148.161499 
	C168.071091,141.395813 164.445435,135.951416 160.408707,131.731934 
	C158.378708,129.610031 158.182831,128.114487 158.002487,125.921989 
	C157.907883,124.771927 158.285034,122.997391 157.686783,122.568649 
	C153.529434,119.589226 153.353439,113.967712 149.835693,110.854683 
	C147.725922,108.987633 145.827805,105.887550 141.832825,106.838440 
	C140.698425,107.108452 139.100021,105.428909 137.681381,104.624710 
	C135.890167,107.972290 134.214798,108.058495 130.840973,104.727989 
	C130.378006,104.270966 128.901459,104.506889 128.061630,104.841850 
	C126.722839,105.375816 125.540298,106.867973 124.264549,106.900810 
	C116.530624,107.099884 108.789009,107.000000 101.049957,107.000000 
	C101.351387,107.435448 101.652809,107.870903 101.954231,108.306351 
	C100.633026,110.407806 99.198326,112.447456 98.013474,114.623169 
	C95.271103,119.658943 92.710701,124.794304 89.937233,129.812286 
	C89.223785,131.103134 87.861023,132.019867 87.030396,133.264526 
	C85.565353,135.459885 84.083893,137.683624 82.971916,140.064804 
	C81.726669,142.731323 77.682320,143.832657 78.908165,147.955444 
	C79.465775,149.830811 82.653069,155.622025 84.542381,158.475906 
	C86.062553,160.772186 85.646591,165.407837 87.425385,166.279388 
	C93.040024,169.030350 92.563950,175.650116 96.785500,179.009598 
	C97.396011,179.495438 97.958122,180.494553 97.941238,181.242584 
	C97.835182,185.941681 100.852409,186.938263 104.602859,186.981461 
	C110.601570,187.050568 116.603973,187.090302 122.599533,186.936569 
	C124.105431,186.897949 125.591255,186.076263 127.460236,185.498947 
	C130.084641,190.007904 134.579498,183.856750 136.428497,185.601868 
	C140.993042,189.909866 143.254211,182.863617 146.817978,184.968872 
	C146.976089,182.798965 146.461578,180.311737 147.320175,179.674469 
	C151.843079,176.317352 155.556107,172.598297 157.243515,166.994736 
	C158.088516,164.188690 159.841995,161.669388 160.966614,158.930878 
	C162.278793,155.735672 163.310593,152.425659 164.600296,149.220291 
	C164.720444,148.921677 165.820053,149.017166 166.960785,148.161499 
M69.113281,97.998283 
	C59.829552,97.998283 50.545822,97.998283 41.125622,97.998283 
	C41.125622,100.059677 40.554955,102.783554 41.218723,103.127892 
	C45.363327,105.278000 46.678326,109.065506 48.134678,112.992973 
	C49.155552,115.746056 50.808891,118.257957 51.967625,120.968277 
	C53.371895,124.252892 54.443214,127.680733 55.869354,130.954803 
	C56.790199,133.068848 58.034695,135.051041 59.230671,137.034119 
	C61.449123,140.712585 64.443748,144.105835 65.806183,148.067963 
	C67.266838,152.315689 68.258232,156.673691 71.085320,160.271469 
	C71.848839,161.243134 73.408279,161.701355 73.925285,162.734192 
	C75.623390,166.126572 77.109192,169.636581 78.476318,173.178665 
	C79.187798,175.022034 79.050598,177.300140 80.064308,178.893555 
	C81.447487,181.067749 83.604118,182.739182 85.354004,184.693451 
	C87.566658,187.164520 90.063210,187.556717 93.769211,186.313995 
	C92.003365,185.242249 90.091438,184.401047 90.174805,184.083221 
	C91.039429,180.787186 88.386383,179.314789 87.021172,177.129456 
	C85.161613,174.152802 84.268791,170.212158 81.765259,168.108276 
	C79.643890,166.325546 79.846306,163.587723 78.777985,162.735168 
	C75.806252,160.363586 78.469116,156.022461 74.231499,153.809479 
	C71.237938,152.246155 69.825447,147.386551 68.055016,143.825562 
	C66.293839,140.283188 67.049622,135.741486 63.102554,132.955612 
	C60.723206,131.276245 60.439110,126.277664 59.362907,125.698914 
	C55.319016,123.524231 56.195118,119.454308 55.369080,116.722015 
	C54.091152,112.494972 51.456932,110.988998 48.823681,109.677338 
	C48.823681,106.721870 48.823681,104.019928 48.823681,100.956657 
	C61.177288,100.956657 72.926765,100.956657 84.798141,100.956657 
	C84.798141,98.838531 84.798141,97.097473 84.798141,94.798515 
	C81.970772,96.168800 78.014832,92.249054 76.564743,97.588478 
	C76.525818,97.731796 74.615112,97.787239 74.118423,97.314766 
	C71.645599,94.962471 71.709442,94.895355 69.113281,97.998283 
M77.500000,196.000000 
	C67.393539,196.000000 57.287086,196.000000 46.759212,196.000000 
	C47.249317,192.140579 47.671177,188.818619 48.093033,185.496643 
	C47.676884,185.327454 47.260738,185.158264 46.844589,184.989059 
	C45.106895,191.149933 38.252853,194.490768 37.819744,201.999847 
	C59.431786,201.999847 80.215828,202.006561 100.999832,201.978210 
	C101.951126,201.976913 103.721802,201.698532 103.731903,201.484192 
	C103.929764,197.286911 107.120117,199.118561 108.928177,199.083389 
	C118.195297,198.903183 127.467812,199.000000 136.769882,199.000000 
	C136.769882,196.788239 136.769882,195.051865 136.769882,193.000000 
	C133.250198,193.000000 129.880875,192.578522 126.670883,193.113312 
	C123.149254,193.700012 118.474693,190.365265 116.101242,195.883255 
	C115.933990,196.272079 112.752228,196.149536 112.505119,195.589005 
	C111.094742,192.389786 110.196259,190.365463 108.727585,195.551956 
	C108.607422,195.976318 106.589966,195.977722 105.453392,195.981842 
	C96.469025,196.014465 87.484489,196.000000 77.500000,196.000000 
M144.997253,75.686127 
	C143.008194,73.751839 139.671371,72.051315 139.287582,69.838608 
	C138.218094,63.672260 134.033142,59.554562 130.901855,54.787979 
	C129.431915,52.550392 127.670959,50.916397 127.706139,47.817303 
	C127.719810,46.612343 125.002663,45.376385 123.529449,44.154549 
	C122.066803,46.748554 120.604156,49.342564 118.795219,52.550728 
	C125.288208,53.117195 130.126740,57.890430 131.050720,63.002850 
	C131.182114,63.729767 131.968216,64.339516 132.454880,65.000847 
	C134.073792,67.200813 136.746521,68.140694 137.263458,71.771118 
	C137.935440,76.490364 140.498474,80.940765 142.258179,85.502792 
	C142.313034,85.645012 142.484863,85.742111 142.787643,86.047104 
	C144.036484,85.953880 145.452728,85.848167 147.587860,85.688789 
	C146.637726,82.340218 145.818771,79.453972 144.997253,75.686127 
M183.002716,114.688225 
	C185.556717,111.648476 189.555435,109.213608 187.624161,104.271545 
	C181.301926,104.271545 175.212692,104.271545 167.435120,104.271545 
	C169.387360,107.343697 171.943115,109.521774 171.742676,111.406792 
	C171.208801,116.427834 177.070816,117.365173 177.340729,121.564392 
	C177.351532,121.732307 178.911835,122.110809 179.046448,121.912804 
	C180.447266,119.852173 181.703690,117.693375 183.002716,114.688225 
M117.001328,78.449043 
	C116.149796,80.734024 115.298264,83.019005 114.318123,85.649109 
	C121.571602,85.649109 127.756081,85.649109 135.662720,85.649109 
	C133.782272,82.994041 132.578400,81.395271 131.485397,79.723999 
	C130.270889,77.866928 128.497787,76.062370 128.131561,74.025696 
	C127.255119,69.151596 125.826080,67.821350 119.999947,68.376892 
	C119.999947,70.119865 119.792526,71.937454 120.049614,73.686775 
	C120.415215,76.174492 119.251175,77.195137 117.001328,78.449043 
M171.737701,184.999817 
	C177.141403,184.999817 182.545090,184.999817 188.134949,184.999817 
	C187.963837,182.675629 188.383774,180.706085 187.621231,179.460388 
	C185.331924,175.720490 182.304871,172.423615 180.106079,168.639832 
	C178.599503,166.047256 178.483963,166.074753 176.871201,168.621826 
	C174.532425,172.315491 174.522964,177.716980 169.368164,179.627853 
	C169.202744,179.689178 170.290527,183.131256 171.737701,184.999817 
M71.219391,109.999855 
	C67.597534,109.999855 63.975670,109.999855 59.812328,109.999855 
	C60.734241,112.473038 58.303276,115.106812 62.409294,116.642609 
	C63.608223,117.091057 67.276848,119.593018 66.257767,123.531479 
	C65.936569,124.772797 68.526253,126.767303 70.072220,128.795654 
	C71.742622,123.902611 71.922729,118.544205 74.513252,116.831375 
	C79.330681,113.646126 75.696144,110.220367 76.071419,106.665260 
	C74.763237,107.776138 73.455055,108.887016 71.219391,109.999855 
M57.672737,185.058807 
	C57.865665,185.699036 58.049759,186.895477 58.252808,186.898712 
	C64.480362,186.997620 70.709778,186.979477 78.331924,186.979477 
	C75.049133,181.960739 72.447968,177.984085 69.403793,173.330154 
	C68.110085,173.330154 65.586479,173.330154 64.138062,173.330154 
	C62.062435,177.679428 60.315701,181.339554 57.672737,185.058807 
M128.705933,211.045486 
	C129.589050,210.409164 130.472168,209.772858 131.355286,209.136536 
	C131.176941,208.844879 130.998596,208.553223 130.820251,208.261566 
	C124.581017,208.261566 118.341782,208.261566 112.102547,208.261566 
	C110.899445,209.607971 109.696342,210.954391 108.493240,212.300797 
	C110.657188,212.348724 112.821144,212.396637 114.985092,212.444565 
	C113.657959,217.454575 119.115471,218.907318 120.414734,222.561920 
	C120.439461,222.631470 122.581352,222.401260 122.894295,221.841034 
	C124.752480,218.514542 126.362381,215.049362 128.705933,211.045486 
M113.631721,62.038055 
	C111.527885,64.542625 107.234512,65.908318 109.499306,70.901283 
	C111.686310,68.923203 114.029999,67.096619 115.959587,64.905388 
	C116.672920,64.095337 116.412003,62.427368 116.595421,61.150684 
	C115.874641,61.420902 115.153862,61.691124 113.631721,62.038055 
M62.483051,158.066956 
	C58.580284,159.678528 55.932007,162.020706 57.581600,167.713638 
	C60.402348,164.908554 64.079155,163.528503 62.483051,158.066956 
M50.002712,182.385422 
	C50.127766,182.817993 50.252815,183.250565 50.728252,184.895172 
	C50.728252,182.554062 50.728252,181.454941 50.728252,179.010712 
	C50.243507,180.766357 50.123055,181.202621 50.002712,182.385422 
z"/>
<path fill="#FEFEFE" opacity="1.000000" stroke="none" 
	d="
M166.712845,148.545593 
	C165.820053,149.017166 164.720444,148.921677 164.600296,149.220291 
	C163.310593,152.425659 162.278793,155.735672 160.966614,158.930878 
	C159.841995,161.669388 158.088516,164.188690 157.243515,166.994736 
	C155.556107,172.598297 151.843079,176.317352 147.320175,179.674469 
	C146.461578,180.311737 146.976089,182.798965 146.817978,184.968872 
	C143.254211,182.863617 140.993042,189.909866 136.428497,185.601868 
	C134.579498,183.856750 130.084641,190.007904 127.460236,185.498947 
	C125.591255,186.076263 124.105431,186.897949 122.599533,186.936569 
	C116.603973,187.090302 110.601570,187.050568 104.602859,186.981461 
	C100.852409,186.938263 97.835182,185.941681 97.941238,181.242584 
	C97.958122,180.494553 97.396011,179.495438 96.785500,179.009598 
	C92.563950,175.650116 93.040024,169.030350 87.425385,166.279388 
	C85.646591,165.407837 86.062553,160.772186 84.542381,158.475906 
	C82.653069,155.622025 79.465775,149.830811 78.908165,147.955444 
	C77.682320,143.832657 81.726669,142.731323 82.971916,140.064804 
	C84.083893,137.683624 85.565353,135.459885 87.030396,133.264526 
	C87.861023,132.019867 89.223785,131.103134 89.937233,129.812286 
	C92.710701,124.794304 95.271103,119.658943 98.013474,114.623169 
	C99.198326,112.447456 100.633026,110.407806 101.954231,108.306351 
	C101.652809,107.870903 101.351387,107.435448 101.049957,107.000000 
	C108.789009,107.000000 116.530624,107.099884 124.264549,106.900810 
	C125.540298,106.867973 126.722839,105.375816 128.061630,104.841850 
	C128.901459,104.506889 130.378006,104.270966 130.840973,104.727989 
	C134.214798,108.058495 135.890167,107.972290 137.681381,104.624710 
	C139.100021,105.428909 140.698425,107.108452 141.832825,106.838440 
	C145.827805,105.887550 147.725922,108.987633 149.835693,110.854683 
	C153.353439,113.967712 153.529434,119.589226 157.686783,122.568649 
	C158.285034,122.997391 157.907883,124.771927 158.002487,125.921989 
	C158.182831,128.114487 158.378708,129.610031 160.408707,131.731934 
	C164.445435,135.951416 168.071091,141.395813 166.712845,148.545593 
z"/>
<path fill="#FEFEFE" opacity="1.000000" stroke="none" 
	d="
M112.042725,225.885834 
	C113.018417,226.248398 114.675941,226.405960 114.856827,227.007523 
	C115.871239,230.381180 116.529510,233.861923 117.332977,237.410385 
	C122.386238,238.489700 125.317245,236.472961 126.017830,231.271637 
	C126.119148,230.519440 126.214783,229.412750 126.702454,229.121002 
	C131.618393,226.180084 130.631439,218.765015 136.606537,216.366669 
	C137.977295,215.816467 137.732010,212.029373 139.036804,210.363510 
	C141.866150,206.751236 142.176056,201.539124 146.450623,198.919098 
	C145.160049,192.793961 152.498398,191.365738 153.414154,185.864670 
	C154.039124,182.110291 158.502060,179.130020 160.632950,175.447174 
	C162.257217,172.639984 162.911301,169.272095 164.003525,166.155930 
	C164.250763,165.450562 164.394318,164.663101 164.809525,164.070251 
	C166.635117,161.463623 168.542755,158.914459 170.420654,156.344467 
	C170.034348,155.972580 169.648026,155.600677 169.261719,155.228790 
	C171.014664,155.228790 172.767593,155.228790 174.921371,155.228790 
	C174.745499,157.753616 176.106064,160.034973 172.285400,161.843765 
	C170.153519,162.853043 168.762558,166.338074 168.321823,169.749359 
	C167.853775,173.372131 165.659912,176.825851 163.938080,180.210129 
	C163.065491,181.925232 161.749847,184.417297 160.324768,184.648453 
	C156.951202,185.195663 158.588608,187.500198 157.934219,189.013901 
	C156.881973,191.447876 155.417130,193.705185 154.087906,196.014862 
	C153.964828,196.228683 153.317795,196.302277 153.326355,196.407425 
	C153.816391,202.428253 147.916397,204.150452 145.542267,208.179169 
	C143.814468,211.111115 143.177200,214.677933 141.971664,217.931290 
	C141.692841,218.683716 141.128189,219.351898 140.609711,219.989441 
	C139.443100,221.423996 137.275558,222.783737 137.227722,224.230545 
	C137.136398,226.993469 135.523804,228.269455 134.251404,230.274445 
	C131.130417,235.192291 126.526794,239.379959 125.771187,245.787811 
	C125.588264,247.339020 122.882484,248.592758 121.336823,249.983307 
	C119.891327,248.150833 118.337486,246.391922 117.029633,244.465988 
	C115.616249,242.384628 114.233261,240.236160 113.213104,237.949203 
	C112.423088,236.178146 112.212334,234.148682 111.342346,231.722839 
	C111.307983,229.436325 111.675354,227.661087 112.042725,225.885834 
z"/>
<path fill="#FEFEFE" opacity="1.000000" stroke="none" 
	d="
M69.571609,97.985931 
	C71.709442,94.895355 71.645599,94.962471 74.118423,97.314766 
	C74.615112,97.787239 76.525818,97.731796 76.564743,97.588478 
	C78.014832,92.249054 81.970772,96.168800 84.798141,94.798515 
	C84.798141,97.097473 84.798141,98.838531 84.798141,100.956657 
	C72.926765,100.956657 61.177288,100.956657 48.823681,100.956657 
	C48.823681,104.019928 48.823681,106.721870 48.823681,109.677338 
	C51.456932,110.988998 54.091152,112.494972 55.369080,116.722015 
	C56.195118,119.454308 55.319016,123.524231 59.362907,125.698914 
	C60.439110,126.277664 60.723206,131.276245 63.102554,132.955612 
	C67.049622,135.741486 66.293839,140.283188 68.055016,143.825562 
	C69.825447,147.386551 71.237938,152.246155 74.231499,153.809479 
	C78.469116,156.022461 75.806252,160.363586 78.777985,162.735168 
	C79.846306,163.587723 79.643890,166.325546 81.765259,168.108276 
	C84.268791,170.212158 85.161613,174.152802 87.021172,177.129456 
	C88.386383,179.314789 91.039429,180.787186 90.174805,184.083221 
	C90.091438,184.401047 92.003365,185.242249 93.769211,186.313995 
	C90.063210,187.556717 87.566658,187.164520 85.354004,184.693451 
	C83.604118,182.739182 81.447487,181.067749 80.064308,178.893555 
	C79.050598,177.300140 79.187798,175.022034 78.476318,173.178665 
	C77.109192,169.636581 75.623390,166.126572 73.925285,162.734192 
	C73.408279,161.701355 71.848839,161.243134 71.085320,160.271469 
	C68.258232,156.673691 67.266838,152.315689 65.806183,148.067963 
	C64.443748,144.105835 61.449123,140.712585 59.230671,137.034119 
	C58.034695,135.051041 56.790199,133.068848 55.869354,130.954803 
	C54.443214,127.680733 53.371895,124.252892 51.967625,120.968277 
	C50.808891,118.257957 49.155552,115.746056 48.134678,112.992973 
	C46.678326,109.065506 45.363327,105.278000 41.218723,103.127892 
	C40.554955,102.783554 41.125622,100.059677 41.125622,97.998283 
	C50.545822,97.998283 59.829552,97.998283 69.571609,97.985931 
z"/>
<path fill="#FEFEFE" opacity="1.000000" stroke="none" 
	d="
M78.000000,196.000000 
	C87.484489,196.000000 96.469025,196.014465 105.453392,195.981842 
	C106.589966,195.977722 108.607422,195.976318 108.727585,195.551956 
	C110.196259,190.365463 111.094742,192.389786 112.505119,195.589005 
	C112.752228,196.149536 115.933990,196.272079 116.101242,195.883255 
	C118.474693,190.365265 123.149254,193.700012 126.670883,193.113312 
	C129.880875,192.578522 133.250198,193.000000 136.769882,193.000000 
	C136.769882,195.051865 136.769882,196.788239 136.769882,199.000000 
	C127.467812,199.000000 118.195297,198.903183 108.928177,199.083389 
	C107.120117,199.118561 103.929764,197.286911 103.731903,201.484192 
	C103.721802,201.698532 101.951126,201.976913 100.999832,201.978210 
	C80.215828,202.006561 59.431786,201.999847 37.819744,201.999847 
	C38.252853,194.490768 45.106895,191.149933 46.844589,184.989059 
	C47.260738,185.158264 47.676884,185.327454 48.093033,185.496643 
	C47.671177,188.818619 47.249317,192.140579 46.759212,196.000000 
	C57.287086,196.000000 67.393539,196.000000 78.000000,196.000000 
z"/>
<path fill="#FEFEFE" opacity="1.000000" stroke="none" 
	d="
M187.883347,123.959465 
	C187.890442,121.461784 188.646332,119.875076 190.717361,117.817848 
	C193.935760,114.620872 196.574280,110.315163 197.101547,105.278793 
	C197.207993,104.262108 198.328934,103.341972 199.010056,102.397446 
	C199.945343,101.100395 200.907242,99.822548 201.857742,98.536461 
	C198.946930,98.110275 198.156693,94.456146 194.144897,94.763023 
	C184.550903,95.496895 174.861984,94.937859 165.213440,95.062088 
	C163.633621,95.082436 160.913483,93.629333 160.827850,97.244171 
	C160.821396,97.515961 159.171188,97.965019 158.284027,97.967583 
	C142.810669,98.012169 127.336990,98.028076 111.864113,97.931236 
	C110.911888,97.925278 109.965843,96.931702 109.016922,96.397629 
	C110.034233,95.931793 111.047630,95.071365 112.069473,95.061211 
	C122.217735,94.960358 132.368179,95.063408 142.515930,94.938805 
	C144.245193,94.917564 147.178925,96.429848 147.221970,92.542213 
	C147.224075,92.351501 148.996201,92.024147 149.944382,92.023178 
	C169.577118,92.003174 189.209930,92.019585 208.842682,92.048134 
	C209.135498,92.048561 209.427963,92.293533 210.987350,92.990829 
	C209.710037,94.886581 208.352264,96.533081 207.416092,98.391899 
	C206.423645,100.362457 206.003235,102.621445 205.008011,104.590172 
	C204.276978,106.036308 203.184479,107.399696 201.970108,108.482681 
	C198.405533,111.661530 198.034424,116.042961 196.805237,120.235741 
	C196.247726,122.137398 193.621231,123.432487 191.203842,124.891708 
	C189.610703,124.506935 188.747025,124.233200 187.883347,123.959465 
z"/>
<path fill="#FEFEFE" opacity="1.000000" stroke="none" 
	d="
M197.063904,175.925751 
	C195.050003,174.538040 191.314072,173.085480 191.363403,171.775467 
	C191.484039,168.572144 189.406662,167.360626 188.056686,165.324173 
	C186.120026,162.402664 184.828506,159.057175 182.930862,156.105301 
	C179.902191,151.394043 176.943329,146.735031 174.441452,141.661743 
	C173.250809,139.247345 173.682312,134.541931 169.262497,133.260468 
	C168.069611,132.914597 167.917496,129.524826 166.957565,127.706520 
	C165.377502,124.713493 163.534027,121.859093 161.782608,118.957718 
	C161.625412,118.697311 161.212997,118.563599 161.115341,118.298714 
	C159.424774,113.713112 157.764999,109.116165 155.997864,104.244301 
	C157.514481,104.139244 158.958694,104.039207 160.372131,103.941299 
	C161.648117,108.633255 163.160828,112.898987 166.533920,116.496162 
	C168.022858,118.084007 167.972839,121.013412 169.019577,123.137596 
	C171.551559,128.275833 173.556046,133.963852 177.223831,138.163254 
	C180.303879,141.689743 179.572296,147.782135 185.475708,149.473724 
	C186.813217,149.856979 186.540131,154.351395 188.084564,155.827347 
	C191.618347,159.204468 190.717148,165.564941 196.508591,167.571655 
	C197.434982,167.892670 196.869919,172.518051 196.994598,175.576202 
	C196.994873,175.998871 197.063904,175.925751 197.063904,175.925751 
z"/>
<path fill="#FEFEFE" opacity="1.000000" stroke="none" 
	d="
M196.958176,176.033234 
	C198.613449,177.609039 201.800217,179.224075 201.728577,180.678665 
	C201.471786,185.893707 206.523560,186.649216 208.538239,189.861725 
	C210.196945,192.506607 210.991196,193.947342 208.338593,196.047699 
	C207.379944,196.806793 206.747635,197.977951 205.953842,198.976852 
	C204.353745,195.928299 204.549805,196.183548 201.835449,198.268494 
	C200.842346,199.031311 198.067963,198.921066 197.153687,198.075912 
	C194.123672,195.274963 193.574371,195.081390 190.959396,198.171326 
	C190.677643,198.504242 190.132721,199.016403 189.901154,198.930405 
	C185.458038,197.280151 181.099640,199.587357 176.619980,199.121765 
	C171.543045,198.594070 166.369080,199.000000 161.237305,199.000000 
	C160.941132,198.480423 160.644943,197.960846 160.348755,197.441269 
	C162.780014,195.960861 165.148590,193.341248 167.653702,193.203445 
	C176.939545,192.692673 186.281311,193.241745 195.576202,192.820938 
	C197.755997,192.722260 199.859985,190.419876 201.915955,189.010422 
	C202.102066,188.882858 201.885544,187.590057 201.505722,187.304871 
	C197.967911,184.648392 197.100189,180.903458 197.034363,176.364761 
	C197.063904,175.925751 196.994873,175.998871 196.958176,176.033234 
z"/>
<path fill="#FEFEFE" opacity="1.000000" stroke="none" 
	d="
M82.166664,121.000610 
	C82.511406,119.120079 80.298477,116.375999 84.361359,115.695366 
	C85.424034,115.517334 86.882416,113.085838 86.818588,111.753479 
	C86.682907,108.921211 88.513855,107.708954 89.759514,105.715912 
	C92.844849,100.779419 97.252335,96.578835 98.263687,90.239014 
	C98.697540,87.519356 101.984863,85.361084 103.497025,82.677971 
	C105.068863,79.888954 106.062546,76.774117 108.015800,74.042236 
	C109.540932,78.799210 108.180450,82.708092 104.727982,86.063736 
	C104.409744,86.373055 104.120415,86.825127 104.043007,87.251793 
	C103.244362,91.653725 101.055588,95.145844 98.362053,98.781174 
	C95.643311,102.450539 94.804337,107.480431 92.895004,111.805305 
	C92.439316,112.837494 90.708656,113.253609 90.075272,114.271095 
	C88.536430,116.743134 87.297806,119.402069 85.231339,121.896629 
	C83.738510,121.538574 82.952591,121.269592 82.166664,121.000610 
z"/>
<path fill="#FEFEFE" opacity="1.000000" stroke="none" 
	d="
M144.998535,76.126930 
	C145.818771,79.453972 146.637726,82.340218 147.587860,85.688789 
	C145.452728,85.848167 144.036484,85.953880 142.787643,86.047104 
	C142.484863,85.742111 142.313034,85.645012 142.258179,85.502792 
	C140.498474,80.940765 137.935440,76.490364 137.263458,71.771118 
	C136.746521,68.140694 134.073792,67.200813 132.454880,65.000847 
	C131.968216,64.339516 131.182114,63.729767 131.050720,63.002850 
	C130.126740,57.890430 125.288208,53.117195 118.795219,52.550728 
	C120.604156,49.342564 122.066803,46.748554 123.529449,44.154549 
	C125.002663,45.376385 127.719810,46.612343 127.706139,47.817303 
	C127.670959,50.916397 129.431915,52.550392 130.901855,54.787979 
	C134.033142,59.554562 138.218094,63.672260 139.287582,69.838608 
	C139.671371,72.051315 143.008194,73.751839 144.998535,76.126930 
z"/>
<path fill="#FEFEFE" opacity="1.000000" stroke="none" 
	d="
M183.001465,115.125031 
	C181.703690,117.693375 180.447266,119.852173 179.046448,121.912804 
	C178.911835,122.110809 177.351532,121.732307 177.340729,121.564392 
	C177.070816,117.365173 171.208801,116.427834 171.742676,111.406792 
	C171.943115,109.521774 169.387360,107.343697 167.435120,104.271545 
	C175.212692,104.271545 181.301926,104.271545 187.624161,104.271545 
	C189.555435,109.213608 185.556717,111.648476 183.001465,115.125031 
z"/>
<path fill="#FEFEFE" opacity="1.000000" stroke="none" 
	d="
M117.032211,78.010612 
	C119.251175,77.195137 120.415215,76.174492 120.049614,73.686775 
	C119.792526,71.937454 119.999947,70.119865 119.999947,68.376892 
	C125.826080,67.821350 127.255119,69.151596 128.131561,74.025696 
	C128.497787,76.062370 130.270889,77.866928 131.485397,79.723999 
	C132.578400,81.395271 133.782272,82.994041 135.662720,85.649109 
	C127.756081,85.649109 121.571602,85.649109 114.318123,85.649109 
	C115.298264,83.019005 116.149796,80.734024 117.032211,78.010612 
z"/>
<path fill="#FEFEFE" opacity="1.000000" stroke="none" 
	d="
M171.265900,184.998566 
	C170.290527,183.131256 169.202744,179.689178 169.368164,179.627853 
	C174.522964,177.716980 174.532425,172.315491 176.871201,168.621826 
	C178.483963,166.074753 178.599503,166.047256 180.106079,168.639832 
	C182.304871,172.423615 185.331924,175.720490 187.621231,179.460388 
	C188.383774,180.706085 187.963837,182.675629 188.134949,184.999817 
	C182.545090,184.999817 177.141403,184.999817 171.265900,184.998566 
z"/>
<path fill="#FEFEFE" opacity="1.000000" stroke="none" 
	d="
M71.683136,109.998871 
	C73.455055,108.887016 74.763237,107.776138 76.071419,106.665260 
	C75.696144,110.220367 79.330681,113.646126 74.513252,116.831375 
	C71.922729,118.544205 71.742622,123.902611 70.072220,128.795654 
	C68.526253,126.767303 65.936569,124.772797 66.257767,123.531479 
	C67.276848,119.593018 63.608223,117.091057 62.409294,116.642609 
	C58.303276,115.106812 60.734241,112.473038 59.812328,109.999855 
	C63.975670,109.999855 67.597534,109.999855 71.683136,109.998871 
z"/>
<path fill="#FEFEFE" opacity="1.000000" stroke="none" 
	d="
M58.120850,185.029236 
	C60.315701,181.339554 62.062435,177.679428 64.138062,173.330154 
	C65.586479,173.330154 68.110085,173.330154 69.403793,173.330154 
	C72.447968,177.984085 75.049133,181.960739 78.331924,186.979477 
	C70.709778,186.979477 64.480362,186.997620 58.252808,186.898712 
	C58.049759,186.895477 57.865665,185.699036 58.120850,185.029236 
z"/>
<path fill="#FEFEFE" opacity="1.000000" stroke="none" 
	d="
M128.380829,211.338135 
	C126.362381,215.049362 124.752480,218.514542 122.894295,221.841034 
	C122.581352,222.401260 120.439461,222.631470 120.414734,222.561920 
	C119.115471,218.907318 113.657959,217.454575 114.985092,212.444565 
	C112.821144,212.396637 110.657188,212.348724 108.493240,212.300797 
	C109.696342,210.954391 110.899445,209.607971 112.102547,208.261566 
	C118.341782,208.261566 124.581017,208.261566 130.820251,208.261566 
	C130.998596,208.553223 131.176941,208.844879 131.355286,209.136536 
	C130.472168,209.772858 129.589050,210.409164 128.380829,211.338135 
z"/>
<path fill="#FEFEFE" opacity="1.000000" stroke="none" 
	d="
M112.022568,225.470947 
	C111.675354,227.661087 111.307983,229.436325 110.970444,231.522461 
	C110.347809,231.580734 109.223404,231.453415 109.117821,231.055664 
	C108.299988,227.974457 108.087212,224.671021 106.880348,221.772278 
	C105.709381,218.959747 103.377968,216.651749 101.949982,213.916580 
	C101.132469,212.350739 101.099648,210.375198 100.713539,208.584122 
	C101.185707,208.244034 101.657883,207.903946 102.130051,207.563858 
	C103.753075,209.490952 105.496895,211.332184 106.951668,213.378876 
	C107.762497,214.519608 108.626503,216.040298 108.534943,217.323273 
	C108.297752,220.646988 110.266121,222.748779 112.022568,225.470947 
z"/>
<path fill="#FEFEFE" opacity="1.000000" stroke="none" 
	d="
M81.981529,121.358971 
	C82.952591,121.269592 83.738510,121.538574 84.816650,121.927505 
	C84.434990,123.030563 83.768425,124.018776 83.085770,124.995750 
	C81.445816,127.342743 77.955536,128.623779 78.895912,132.508667 
	C78.999634,132.937119 77.801369,133.680710 76.686813,134.639069 
	C75.500000,134.999863 74.833336,134.999756 74.166664,134.999649 
	C74.115158,134.243195 74.063660,133.486740 74.266068,132.264893 
	C74.739601,131.635239 74.896423,131.424301 74.990433,131.166656 
	C75.660347,130.014221 76.688881,128.931366 76.928635,127.695488 
	C77.501472,124.742569 78.584923,122.423798 81.981529,121.358971 
z"/>
<path fill="#FEFEFE" opacity="1.000000" stroke="none" 
	d="
M187.535156,124.114281 
	C188.747025,124.233200 189.610703,124.506935 190.791611,124.914078 
	C191.068710,125.484512 191.028580,125.921555 190.560730,126.729950 
	C189.436096,128.439102 188.739166,129.776917 188.042236,131.114716 
	C188.042252,133.053375 188.042252,134.992035 188.042252,136.930695 
	C187.580750,137.075241 187.119232,137.219788 186.657730,137.364319 
	C185.440094,134.795761 183.434464,132.271759 183.285767,129.642746 
	C183.188934,127.930542 185.792908,126.065605 187.535156,124.114281 
z"/>
<path fill="#FEFEFE" opacity="1.000000" stroke="none" 
	d="
M114.032394,61.999699 
	C115.153862,61.691124 115.874641,61.420902 116.595421,61.150681 
	C116.412003,62.427368 116.672920,64.095337 115.959587,64.905388 
	C114.029999,67.096619 111.686310,68.923203 109.499306,70.901283 
	C107.234512,65.908318 111.527885,64.542625 114.032394,61.999699 
z"/>
<path fill="#FEFEFE" opacity="1.000000" stroke="none" 
	d="
M62.722137,158.437500 
	C64.079155,163.528503 60.402348,164.908554 57.581600,167.713638 
	C55.932007,162.020706 58.580284,159.678528 62.722137,158.437500 
z"/>
<path fill="#FEFEFE" opacity="1.000000" stroke="none" 
	d="
M74.089355,135.424561 
	C74.833336,134.999756 75.500000,134.999863 76.500000,134.999817 
	C76.885368,135.320984 77.051704,135.675369 76.969994,135.958054 
	C76.579224,137.310043 76.121223,138.642609 75.687119,139.982071 
	C75.128761,138.604538 74.570404,137.227005 74.089355,135.424561 
z"/>
<path fill="#FEFEFE" opacity="1.000000" stroke="none" 
	d="
M188.448624,131.061310 
	C188.739166,129.776917 189.436096,128.439102 190.483185,127.050522 
	C190.635605,128.563675 192.409744,131.100891 188.448624,131.061310 
z"/>
<path fill="#FEFEFE" opacity="1.000000" stroke="none" 
	d="
M50.002655,182.012146 
	C50.123055,181.202621 50.243507,180.766357 50.728252,179.010712 
	C50.728252,181.454941 50.728252,182.554062 50.728252,184.895172 
	C50.252815,183.250565 50.127766,182.817993 50.002655,182.012146 
z"/>
<path fill="#FEFEFE" opacity="1.000000" stroke="none" 
	d="
M74.723480,131.116837 
	C74.896423,131.424301 74.739601,131.635239 74.343315,131.891907 
	C74.263283,131.678558 74.359901,131.372787 74.723480,131.116837 
z"/>
</svg>