<svg version="1.1" id="Layer_1" xmlns="http://www.w3.org/2000/svg" xmlns:xlink="http://www.w3.org/1999/xlink" x="0px" y="0px"
	 width="100%" viewBox="0 0 240 272" enable-background="new 0 0 240 272" xml:space="preserve">
<path fill="#000000" opacity="1.000000" stroke="none" 
	d="
M241.000000,251.531342 
	C235.563629,250.732376 230.044571,251.420425 224.576324,251.503448 
	C221.811203,251.545425 218.706497,249.816132 216.771057,250.708069 
	C213.708374,252.119476 211.705643,252.672974 209.595413,249.799576 
	C207.898361,251.931412 205.510132,251.299637 203.271927,251.494537 
	C201.103287,251.683380 199.382767,251.271957 198.508774,249.054550 
	C194.961472,252.408813 190.299530,252.336990 187.119980,248.872726 
	C186.405075,251.427673 184.465393,251.428940 182.398056,251.423309 
	C175.402206,251.404266 168.395599,251.737305 161.413177,251.449036 
	C155.079544,251.187546 148.766113,251.612625 142.439835,251.432343 
	C135.781479,251.242584 129.113541,251.389023 122.449791,251.388794 
	C115.619446,251.388550 108.789108,251.388245 101.958763,251.388626 
	C95.128426,251.389023 88.298080,251.390884 81.467743,251.390915 
	C74.637398,251.390961 67.807060,251.389664 60.976719,251.388702 
	C54.312973,251.387772 47.649223,251.386963 40.985477,251.385254 
	C34.155136,251.383484 27.324781,251.388779 20.494461,251.376053 
	C13.656645,251.363327 13.626153,251.355255 13.622099,244.522659 
	C13.610731,225.364441 15.023426,206.082901 13.344885,187.073364 
	C9.722905,146.054260 12.821244,105.040230 11.661368,64.047691 
	C11.443908,56.362133 13.247625,56.404724 20.829212,55.183479 
	C39.815521,52.125153 58.795582,53.927814 77.749306,53.788723 
	C129.390549,53.409771 181.036591,53.718884 232.680023,53.544071 
	C237.555267,53.527573 238.431229,55.341305 238.402023,59.649578 
	C238.244003,82.971565 238.297043,106.295433 238.420578,129.617889 
	C238.428757,131.162567 236.871002,133.947189 240.701706,134.090012 
	C241.000000,143.354233 241.000000,152.708450 240.709244,162.494003 
	C236.827774,163.661240 238.696014,166.473907 238.460236,168.384857 
	C238.241104,170.160873 239.432281,170.581940 241.000000,170.000000 
	C241.000000,197.020889 241.000000,224.041794 241.000000,251.531342 
M218.659927,72.412338 
	C218.768082,71.278412 218.434402,69.440575 219.535110,69.254883 
	C224.925247,68.345535 223.399902,64.708138 223.063889,60.872974 
	C221.377441,64.242584 218.670959,63.363510 216.331406,63.364643 
	C156.370636,63.393688 96.409851,63.379795 36.449078,63.408318 
	C34.199181,63.409386 31.805445,62.840374 29.842743,64.263290 
	C35.880672,76.148621 47.935951,82.169373 56.134098,91.890007 
	C56.489017,92.310829 57.344757,92.395767 57.986996,92.473358 
	C61.473679,92.894646 63.693985,95.594322 66.361694,97.347832 
	C72.524216,101.398529 75.733658,108.542831 82.464523,112.373962 
	C89.029953,116.110939 92.301109,123.751862 99.369301,127.659996 
	C103.474945,129.930084 108.153252,132.515656 111.155136,136.771942 
	C111.593620,137.393646 112.967209,137.584122 113.909569,137.587692 
	C126.567619,137.635559 139.246506,138.012131 151.871078,137.358368 
	C155.457489,137.172653 158.756821,133.969391 162.487091,137.508606 
	C163.276459,138.257553 165.273056,136.600357 166.455292,136.438538 
	C170.404846,135.897873 174.686829,135.444000 178.424530,136.472321 
	C181.185165,137.231827 182.911087,137.882599 185.538269,136.067001 
	C192.420120,131.311096 194.060760,123.316734 196.053452,116.533424 
	C197.609070,111.237984 202.521530,107.775406 202.387451,102.088966 
	C209.281647,97.087448 209.891617,88.193474 214.739868,81.800247 
	C216.351105,79.675560 219.419739,76.982292 218.659927,72.412338 
M71.497505,241.636810 
	C119.640205,241.636154 167.782913,241.644470 215.925613,241.626236 
	C224.192520,241.623108 231.629288,234.271057 231.643539,226.156250 
	C231.664017,214.495392 230.855820,202.764664 231.873901,191.193314 
	C232.881042,179.746338 227.391891,168.469772 231.595276,157.095993 
	C231.807602,156.521469 231.779022,155.661682 231.495880,155.130005 
	C227.870407,148.322067 230.408279,140.954895 230.098587,133.955048 
	C229.828476,127.849403 230.197769,121.304825 230.075287,115.219406 
	C229.885834,105.805946 230.105255,96.330322 229.629089,86.899117 
	C229.507584,84.492844 230.025848,81.966629 228.524643,79.800964 
	C225.908279,81.233719 223.316055,83.068611 222.817886,85.752014 
	C221.760178,91.449211 216.178238,94.202042 214.702042,99.548706 
	C213.492996,103.927795 211.073227,107.764458 208.429306,111.469841 
	C206.135452,114.684631 205.922028,119.041603 202.592499,121.823708 
	C201.501648,122.735199 200.289841,124.185471 200.341858,126.099518 
	C200.432678,129.441742 198.107941,132.513290 196.667221,134.633514 
	C193.397842,139.444901 193.179535,144.701523 192.587097,149.672562 
	C191.718903,156.957291 192.757828,164.327301 194.031296,171.735168 
	C195.394302,179.664108 194.355927,188.007690 194.346008,196.170273 
	C194.337280,203.360336 194.325333,203.379593 187.352463,203.383835 
	C168.028687,203.395630 148.704742,203.430405 129.381317,203.347397 
	C126.464531,203.334869 123.859406,203.670319 122.125114,206.133026 
	C116.369583,202.263306 111.193985,202.255173 104.843422,207.637375 
	C99.437996,212.218552 91.118881,211.523148 87.088089,218.176254 
	C86.853951,218.562714 85.772911,218.725143 85.200645,218.569733 
	C82.022408,217.706604 79.944756,219.841995 78.630821,221.812729 
	C76.633308,224.808746 73.143341,226.291428 70.722267,226.851776 
	C64.165512,228.369247 58.192257,230.955612 52.430717,234.083267 
	C47.268044,236.885834 41.148987,238.263260 37.159889,243.517609 
	C38.990761,244.643890 41.283817,245.385956 42.393345,244.061539 
	C45.175838,240.740143 48.683777,241.714798 52.011650,241.653946 
	C58.171543,241.541306 64.335266,241.638092 71.497505,241.636810 
M90.132164,130.254791 
	C84.620026,126.415276 79.014915,122.690750 74.789871,117.318596 
	C73.282875,115.402458 72.026886,112.431725 70.094017,111.867027 
	C64.083496,110.110977 60.239227,105.554535 55.389732,102.293114 
	C47.455166,96.956902 41.788300,89.175575 33.750965,83.877739 
	C29.347260,80.975014 27.277773,74.607437 20.144110,74.705620 
	C21.148470,128.919128 19.059498,183.299667 21.346586,237.843674 
	C28.709730,239.451202 33.079815,233.768005 38.023457,231.130264 
	C44.086346,227.895325 50.233685,224.302124 56.322201,221.166824 
	C63.400707,217.521713 71.035995,214.607498 78.275223,211.110199 
	C86.931343,206.928436 93.999191,200.066147 102.688667,195.749924 
	C104.597061,194.801971 106.796700,192.832520 106.732552,189.476974 
	C106.490601,176.820969 106.701263,164.156982 106.596107,151.497223 
	C106.564476,147.688934 104.369438,143.192764 102.111771,141.959366 
	C97.012566,139.173599 93.833458,135.093262 90.132164,130.254791 
M156.499908,193.635544 
	C163.823578,193.628555 171.147461,193.588684 178.470825,193.632523 
	C181.010834,193.647720 182.644196,192.931229 182.636642,190.007904 
	C182.602631,176.858765 182.654602,163.709366 182.598572,150.560379 
	C182.587280,147.911804 180.371353,144.384537 178.953415,145.034958 
	C174.686920,146.992096 171.185059,145.592163 167.371109,144.496964 
	C166.426727,144.225769 165.257858,144.637619 164.722504,145.549957 
	C163.437210,147.740311 161.343262,147.215012 159.405853,147.407806 
	C155.419388,147.804459 151.440811,146.152603 147.459396,147.405182 
	C145.379135,148.059647 144.638290,146.358704 143.689301,145.115082 
	C139.659592,148.376053 120.075897,148.372330 116.043221,145.170380 
	C111.247147,150.750229 110.418320,156.515366 114.881844,162.776077 
	C115.549782,163.712952 115.349876,165.349854 115.355858,166.663803 
	C115.387695,173.654388 115.533783,180.651581 115.283318,187.633682 
	C115.128510,191.949326 116.029335,193.794098 121.063461,193.606735 
	C132.526031,193.180084 144.019180,193.574356 156.499908,193.635544 
z"/>
</svg>