<svg version="1.1" id="Layer_1" xmlns="http://www.w3.org/2000/svg" xmlns:xlink="http://www.w3.org/1999/xlink" x="0px" y="0px"
	 width="100%" viewBox="0 0 256 288" enable-background="new 0 0 256 288" xml:space="preserve">
<path fill="#000000" opacity="1.000000" stroke="none" 
	d="
M92.103775,31.811449 
	C92.658203,31.110565 92.927963,30.363413 93.236244,30.347164 
	C97.047005,30.146328 100.788193,28.919622 103.393837,26.517448 
	C107.955345,22.312157 114.444374,25.160540 119.190598,21.192436 
	C121.096085,19.599356 125.300201,20.710421 128.459076,20.673157 
	C132.457916,20.625980 136.780212,19.683453 140.388687,20.871494 
	C147.463135,23.200670 154.907959,23.951677 161.690536,28.056522 
	C167.398712,31.511143 171.042374,36.493320 175.649475,40.730385 
	C177.063522,42.030853 178.889236,41.612831 180.432114,42.956181 
	C184.823807,46.779930 186.857071,51.541130 188.477158,56.941753 
	C189.959076,61.881813 192.974350,66.305145 195.264389,70.945129 
	C197.630310,75.738861 198.466553,80.671623 199.195312,85.629868 
	C199.890625,90.360489 199.662430,95.300522 199.244507,100.096588 
	C198.938934,103.603333 201.353760,106.580833 203.151566,106.791679 
	C208.492081,107.418045 209.777695,112.249329 213.170319,114.748230 
	C215.445755,116.424248 218.531555,118.492699 219.512085,120.175583 
	C221.837280,124.166260 225.860931,126.976151 227.281845,131.404831 
	C229.084152,137.022308 231.030365,142.527222 234.687195,147.264435 
	C234.974136,147.636139 235.214264,148.185638 235.188538,148.636078 
	C234.712341,156.976562 240.167450,164.495880 238.429443,173.076218 
	C237.845764,175.957794 238.153366,179.069748 238.368637,182.053696 
	C238.954803,190.178787 235.580399,197.173874 233.125931,204.630188 
	C231.379623,209.935242 228.703110,214.947586 227.579224,220.385193 
	C227.091934,222.742828 226.223892,224.452744 224.440063,225.543945 
	C221.104172,227.584579 221.206650,231.580261 218.964615,234.400009 
	C214.824295,239.607254 208.379135,241.876999 204.450470,247.421814 
	C202.992569,249.479431 197.901321,248.862137 194.992950,251.251617 
	C191.383072,254.217453 186.127075,253.676865 182.442703,256.804108 
	C181.604095,257.515930 179.893570,257.320984 178.582275,257.334106 
	C173.416901,257.385773 168.147202,256.702301 163.108521,257.502533 
	C155.107635,258.773224 148.234634,254.222961 140.561340,254.071991 
	C138.499634,254.031418 136.116211,251.987534 134.948563,250.779480 
	C131.298691,247.003189 127.162369,248.909348 123.265335,248.428833 
	C122.280907,248.307449 121.235954,248.490540 120.605949,249.450607 
	C116.192207,256.176666 109.109238,255.992401 102.256058,257.856262 
	C94.804733,259.882782 87.530357,261.105316 80.255600,260.127411 
	C72.256401,259.052155 64.596306,256.575043 57.066429,252.678879 
	C50.858284,249.466614 45.709629,244.776138 39.332024,241.816833 
	C35.358292,239.972992 31.563723,235.346161 30.099197,231.130844 
	C28.465767,226.429382 24.899902,223.207840 23.219280,218.613998 
	C20.952055,212.416733 16.516853,207.035645 16.642710,199.934662 
	C16.705482,196.392944 14.873070,192.907150 14.479050,189.899063 
	C13.496793,182.400177 11.117236,174.200333 15.905350,166.860260 
	C16.703049,165.637405 16.842224,164.283081 16.611032,163.024338 
	C15.669864,157.900040 17.562101,152.779526 19.212618,148.650970 
	C22.526657,140.361359 26.567226,131.959091 33.731400,125.861237 
	C34.232624,125.434624 35.014492,125.152740 35.244705,124.621162 
	C37.707287,118.935005 43.152145,116.663773 47.989517,114.031395 
	C54.411240,110.536835 58.844353,106.288574 57.625729,98.381622 
	C56.362545,90.185478 59.729389,82.429985 59.781826,74.348526 
	C59.800766,71.429520 62.179440,69.028854 63.477448,66.682816 
	C65.400467,63.207104 66.385918,59.587368 67.708031,56.003460 
	C69.069359,52.313217 72.694557,50.621449 75.039764,47.786530 
	C75.872314,46.780132 77.150284,45.769421 77.332642,44.672695 
	C78.328415,38.684048 83.600609,37.831657 87.705696,35.488476 
	C89.229973,34.618423 90.468285,33.247395 92.103775,31.811449 
M92.465004,62.951115 
	C89.400566,64.752617 86.937180,68.046974 85.986839,70.625526 
	C83.506256,77.356102 77.665352,83.080177 79.152802,91.214691 
	C79.548225,93.377144 75.618576,95.570244 78.270561,97.887505 
	C80.223244,99.593735 83.084938,98.515648 85.536934,98.625610 
	C88.361221,98.752251 91.195946,98.626549 94.025063,98.674049 
	C95.329788,98.695953 96.990868,98.304237 97.784172,99.469276 
	C99.402992,101.846680 101.714966,101.875259 104.011154,101.607346 
	C112.356606,100.633598 117.762688,106.655540 124.895393,109.784897 
	C140.573563,97.843163 159.397400,94.854446 179.199951,95.475708 
	C178.792969,93.214584 177.647675,92.378487 177.621887,90.913742 
	C177.551926,86.938995 177.990829,83.096413 175.114532,79.303261 
	C173.972000,77.796539 171.766739,75.491760 171.867859,73.150856 
	C172.198639,65.493217 166.234726,61.930336 161.972031,57.322422 
	C158.700241,53.785656 153.937561,52.443260 149.906525,50.019699 
	C145.746399,47.518517 141.983582,44.742554 136.653915,45.263489 
	C132.202072,45.698627 127.670593,45.452496 123.179703,45.323208 
	C116.607224,45.133991 111.297935,47.536575 107.365372,52.781391 
	C106.694191,53.676548 105.992172,54.014515 105.011017,54.328510 
	C100.229729,55.858608 96.076012,58.371716 92.465004,62.951115 
M187.678146,227.967285 
	C199.320602,222.117203 207.934814,213.444626 212.388947,201.041885 
	C216.761658,188.865936 220.715530,176.210678 215.417801,163.688477 
	C210.679031,152.487427 209.339645,138.509460 195.138260,133.311661 
	C193.573792,134.677216 193.583557,137.066330 192.781036,138.809952 
	C191.064178,142.540161 187.435837,145.192993 186.611572,148.998825 
	C185.425476,154.475357 181.522141,156.947464 177.401718,159.398026 
	C175.502029,160.527847 173.183273,162.127823 172.918839,163.663956 
	C171.985092,169.088043 167.548065,169.762863 163.807877,171.282089 
	C162.096054,171.977432 161.520081,172.787186 161.350647,174.462936 
	C160.691711,180.980240 161.824432,187.333359 158.879654,194.082336 
	C156.322266,199.943527 156.345764,207.391418 153.027542,213.167038 
	C150.824387,217.001831 150.552170,221.963028 146.543320,224.808182 
	C145.150070,225.797028 144.767334,228.190460 145.987396,228.656387 
	C148.590546,229.650482 150.397324,232.609665 153.044250,232.494125 
	C164.518707,231.993317 176.552811,235.997513 187.678146,227.967285 
M37.699013,170.857254 
	C36.296432,172.123245 36.337452,173.817764 36.354630,175.487930 
	C36.446419,184.412827 37.016769,193.156189 41.051285,201.480286 
	C43.606895,206.753082 47.670109,211.020767 49.797718,216.605515 
	C51.409676,220.836731 56.796234,221.670013 59.865223,225.627319 
	C62.742836,229.337830 68.817299,234.059799 75.780479,232.731598 
	C76.839058,232.529694 78.215050,232.475967 78.970657,233.637375 
	C81.786827,237.965958 83.811180,233.342514 86.122192,233.270187 
	C88.798538,233.186447 91.612473,237.577362 94.410011,234.994766 
	C97.202332,232.416962 100.058914,232.909012 103.088264,232.612808 
	C106.667961,232.262802 107.410484,230.513382 107.297379,226.718903 
	C107.119736,220.759064 102.160316,217.757492 99.651329,213.722580 
	C95.107445,206.415207 97.098145,197.945694 92.935150,190.854401 
	C91.406303,188.250153 92.584541,183.998596 92.692673,180.503555 
	C92.915634,173.296707 87.858818,168.471039 82.898643,165.983490 
	C77.542290,163.297272 73.133141,158.932541 71.518867,154.990082 
	C68.475693,147.557922 61.974476,141.646103 61.536816,132.829849 
	C56.454018,141.264069 46.938946,145.672043 43.507236,155.536163 
	C41.824692,160.372467 37.909336,164.452332 37.699013,170.857254 
M91.224411,108.369736 
	C87.060677,108.371040 82.896812,108.353600 78.733299,108.384674 
	C77.421066,108.394478 76.108932,108.305382 74.892578,109.126213 
	C71.235886,111.593826 67.676414,114.322182 62.963661,114.433464 
	C61.427429,114.469742 60.733974,115.594437 59.878059,116.652969 
	C56.435966,120.909836 51.284794,122.948677 47.044628,126.185715 
	C41.282169,130.584900 36.487057,135.409454 33.169476,141.953064 
	C30.961226,146.308594 29.502583,150.837967 27.801020,155.348709 
	C25.148766,162.379700 22.254448,169.429611 22.515175,176.928452 
	C22.769533,184.244171 19.982414,191.984665 25.112558,198.930511 
	C26.457771,200.751816 26.253038,203.702988 27.064001,206.119125 
	C28.593790,210.676895 31.705832,214.112350 33.671646,218.258499 
	C34.960148,220.976135 35.437714,224.930237 38.014751,226.240860 
	C40.752586,227.633240 42.821239,229.338943 44.577526,231.603928 
	C47.729561,235.668976 51.599258,239.073776 56.245468,240.915375 
	C58.722672,241.897263 60.294617,244.469131 62.882420,244.531830 
	C68.018341,244.656250 72.080849,249.570770 77.629219,247.675903 
	C78.004105,247.547867 78.724228,248.232620 79.201714,248.636383 
	C81.677864,250.730209 94.915131,252.029480 96.954010,249.747025 
	C98.876053,247.595367 100.895653,247.730545 103.165634,247.640762 
	C108.421448,247.432938 112.332802,244.342178 116.285767,241.409378 
	C117.864586,240.238037 118.199532,238.464874 116.737167,237.128250 
	C115.390152,235.897110 113.688210,235.996582 112.420052,237.664352 
	C107.486450,244.152649 99.550079,243.801559 92.886688,244.967224 
	C87.110420,245.977707 80.808441,245.014435 74.427612,243.285095 
	C68.471634,241.670898 63.776333,238.750732 59.030224,235.858322 
	C55.615028,233.777039 50.990788,233.013580 48.858383,229.165909 
	C46.450245,224.820740 42.477562,222.017548 39.219982,218.517670 
	C37.399200,216.561447 35.688992,214.665955 35.647419,211.791565 
	C35.614563,209.520050 34.550625,207.693848 33.650707,205.646469 
	C31.855164,201.561478 28.369732,197.777695 29.534029,192.481186 
	C30.105902,189.879684 30.000250,186.991943 28.277452,184.320236 
	C27.411945,182.977982 27.165667,180.419113 27.868036,179.033035 
	C30.181795,174.466919 28.879738,169.553421 29.878035,164.998764 
	C30.745449,161.041229 32.224735,157.087265 33.575951,153.232697 
	C35.446892,147.895523 39.591423,143.525253 41.644051,137.962326 
	C44.314220,137.732803 47.033302,137.408447 46.790005,133.574280 
	C46.734554,132.700455 47.338993,132.080902 48.252724,131.807587 
	C52.890652,130.420197 55.892334,126.520142 59.479740,123.750259 
	C67.366096,117.661102 75.662796,113.702759 85.679314,113.649231 
	C89.343422,113.629654 93.008644,113.597046 96.671410,113.669350 
	C97.980515,113.695190 99.995071,113.546967 100.471985,114.274773 
	C103.150742,118.362770 108.936600,115.356964 111.657310,119.422340 
	C112.098091,120.080971 114.508133,119.578995 115.965919,119.348213 
	C117.064415,119.174301 117.484116,118.165459 117.525146,117.075272 
	C117.564919,116.018448 117.383324,114.792381 116.255043,114.662437 
	C111.962318,114.168037 108.759178,109.746078 103.893921,111.310600 
	C103.171883,111.542786 101.749435,111.472763 101.515694,111.056732 
	C99.230286,106.989182 95.368507,108.814362 91.224411,108.369736 
M185.958344,132.703873 
	C187.170227,126.930367 190.634705,121.798531 190.676315,115.671913 
	C190.698029,112.476990 190.046967,109.268646 192.977356,106.441116 
	C194.420578,105.048538 194.597031,101.494186 192.709427,100.003944 
	C190.182556,98.009018 190.398056,95.640129 190.669693,93.303200 
	C191.695648,84.476410 188.479370,76.534813 186.246262,68.297867 
	C185.303955,64.822166 183.327011,62.814240 181.155670,60.438168 
	C178.117416,57.113403 175.320953,53.572697 172.276199,50.235432 
	C170.782211,48.597939 171.083130,46.174168 167.949707,44.712620 
	C164.552628,43.128094 161.605591,40.171024 157.985397,38.189732 
	C151.107193,34.425388 144.560364,30.346300 136.397781,30.344929 
	C133.398285,30.344425 130.289780,30.883488 127.421143,30.277046 
	C120.675171,28.850922 115.597321,35.544983 108.880676,33.732975 
	C108.581184,33.652180 108.103783,34.273003 107.695564,34.546612 
	C103.540016,37.331917 99.053558,39.694401 94.679497,41.943840 
	C89.587158,44.562668 85.737030,48.611519 80.982689,51.539322 
	C78.233604,53.232254 78.861221,57.711807 76.044159,60.211792 
	C70.963943,64.720184 68.622787,70.484108 68.077721,77.529495 
	C67.722511,82.120880 66.044670,86.699615 66.133812,91.483459 
	C66.143845,92.022179 65.600548,92.659081 65.164574,93.104271 
	C61.828278,96.511116 63.611500,100.165955 63.860863,105.264984 
	C65.656975,102.779144 67.322739,101.525192 67.216103,100.446434 
	C66.632248,94.539841 72.190643,90.021408 70.719604,83.986984 
	C70.540321,83.251556 70.697144,82.177895 71.137314,81.589447 
	C73.938080,77.845177 75.656502,73.639694 77.230972,69.265770 
	C78.456917,65.860062 79.183273,61.737007 82.779831,59.928432 
	C85.578079,58.521305 83.353355,54.704700 86.242897,53.869156 
	C90.773712,52.559021 94.099068,48.901131 97.019859,46.074024 
	C101.320976,41.910873 106.778328,41.546078 111.405571,38.954231 
	C113.612267,37.718193 115.213081,34.622917 118.983932,35.450554 
	C122.680420,36.261864 126.858505,36.409435 129.643661,32.669643 
	C131.521698,33.944637 132.479202,36.288395 134.862289,35.613522 
	C143.777466,33.088825 149.549683,40.993126 157.437622,42.475281 
	C163.938843,43.696865 167.757324,50.382545 172.563370,54.966457 
	C176.613831,58.829716 177.845856,64.155472 181.243301,68.059021 
	C183.557602,70.718063 185.611343,74.299744 185.799896,76.689064 
	C186.305725,83.098587 188.039078,89.338608 188.256729,95.692078 
	C188.608429,105.958954 188.056213,116.194229 183.490540,125.774307 
	C181.008545,130.982269 179.399231,136.699219 174.856598,140.645782 
	C173.394852,141.915710 173.015335,143.660965 172.082291,144.998322 
	C169.806473,148.260406 168.561111,152.570526 163.556091,153.605576 
	C158.932785,154.561691 157.561508,158.584442 159.863861,165.197083 
	C160.547958,160.059662 164.423767,162.478043 166.611969,160.316025 
	C170.326416,156.646011 170.490921,149.806396 176.995041,148.683456 
	C177.193314,148.649231 177.438385,148.134659 177.442734,147.840790 
	C177.511902,143.163452 181.003235,140.591507 183.915985,137.843109 
	C185.347595,136.492279 185.584991,135.111694 185.958344,132.703873 
M170.483368,242.344604 
	C163.487640,242.433640 156.492065,242.542938 149.496063,242.591492 
	C148.350632,242.599442 146.942764,242.720810 146.098465,242.143250 
	C139.753616,237.802673 132.285065,235.180969 127.235329,228.738907 
	C125.866280,226.992371 122.779144,224.496170 119.067924,225.780701 
	C124.604492,229.495926 126.102364,236.647141 133.350250,239.393738 
	C138.190430,241.227905 142.181992,245.347137 148.058105,244.730820 
	C148.630707,244.670761 149.569687,244.995941 149.815033,245.434921 
	C151.264435,248.028214 153.694534,247.626144 155.990295,247.632370 
	C162.990234,247.651321 169.990341,247.659485 176.990204,247.632523 
	C179.275589,247.623718 181.107086,247.188492 183.248749,245.593506 
	C187.224228,242.632767 192.439636,241.342773 196.435516,238.401688 
	C199.541168,236.115829 204.102264,236.335617 206.128723,232.630310 
	C208.958847,227.455536 216.222260,226.224228 217.479858,219.687622 
	C217.595825,219.084839 218.010971,218.287613 218.510818,218.048920 
	C224.977631,214.960693 224.132187,207.837204 226.230911,202.694550 
	C228.955643,196.017960 229.492050,188.298752 228.619095,180.819122 
	C228.354263,178.550049 229.096375,176.733398 231.243835,175.511475 
	C229.557892,174.153107 228.629364,173.052277 228.603058,171.120743 
	C228.522964,165.238159 228.247528,159.469971 227.079514,153.539978 
	C225.791718,147.001938 222.478653,141.576202 219.572693,136.262543 
	C216.047668,129.816833 209.663879,124.983162 204.888992,119.147644 
	C203.062576,116.915558 201.166031,117.298866 199.127533,117.614624 
	C197.500687,117.866623 197.029907,119.475868 197.518600,120.755989 
	C198.309799,122.828499 199.041016,125.147308 201.790558,125.642838 
	C206.738266,126.534515 209.037262,130.058136 210.275925,134.490540 
	C210.587112,135.604141 210.468430,137.347885 211.790634,137.283600 
	C216.094162,137.074310 215.793777,140.435471 217.129227,142.948456 
	C218.202942,144.968842 217.981140,147.107300 218.958572,149.033783 
	C221.817657,154.668945 224.396606,160.397171 224.364700,166.947968 
	C224.351685,169.620148 223.595474,172.381134 226.803879,174.453796 
	C228.585754,175.604904 228.315842,178.528702 226.461441,180.177078 
	C225.612915,180.931305 224.460220,181.211990 224.376923,182.619751 
	C224.016937,188.704376 224.452911,194.607620 221.696793,200.705231 
	C219.301086,206.005478 218.164474,211.751877 213.870422,216.175476 
	C212.175049,217.922028 210.382645,219.570770 209.950470,222.654694 
	C209.492844,225.920151 206.590317,229.095154 203.428604,230.010956 
	C198.098419,231.554871 193.593887,234.825943 189.146652,237.456238 
	C183.359924,240.878754 177.990463,242.903168 170.483368,242.344604 
M70.486664,126.460007 
	C68.070404,126.765053 68.670792,128.710770 68.268509,130.253525 
	C67.470528,133.313873 70.183891,134.546570 71.294197,136.573807 
	C74.569588,142.554092 76.768700,150.375717 82.457329,153.385574 
	C88.767807,156.724457 91.526360,163.923691 99.796089,165.530243 
	C105.733330,166.683670 111.240204,171.446365 118.185387,170.829056 
	C118.729286,170.780716 119.545815,171.204437 119.868019,171.665604 
	C122.566597,175.527954 124.782982,173.322433 127.211578,170.836456 
	C129.522324,175.437805 131.207367,170.301315 133.434784,170.598999 
	C135.324722,170.851593 136.735260,169.896057 136.509689,167.699203 
	C136.274704,165.410782 134.465088,165.415283 132.764114,165.382736 
	C131.266815,165.354065 129.755142,165.486603 128.273560,165.327240 
	C120.775932,164.520844 112.794746,167.611618 105.837860,162.346008 
	C101.051888,158.723526 94.369720,157.773071 90.629669,152.928619 
	C87.758873,149.210114 84.414421,145.999619 81.367706,142.495224 
	C79.946404,140.860413 79.126564,139.312698 78.364906,137.258438 
	C76.870888,133.228989 76.446518,128.121078 70.486664,126.460007 
M145.321060,110.014915 
	C143.431870,112.594887 139.738998,110.024673 138.073639,112.242325 
	C134.455154,117.060822 128.235352,118.295143 124.453194,123.218269 
	C120.965858,127.757637 115.829819,131.801163 113.411736,136.510574 
	C111.183975,140.849304 109.088585,146.313858 108.329330,151.804581 
	C112.197044,153.104431 113.813629,149.351303 114.173943,148.009109 
	C116.828423,138.121078 124.210335,131.745285 130.307175,124.325523 
	C132.192078,122.031639 135.348846,123.742683 136.582977,121.072937 
	C138.454285,117.024834 141.855194,116.137978 145.934738,116.616898 
	C146.728394,116.710075 147.962616,116.732582 148.321411,116.268242 
	C151.323273,112.383560 155.534851,113.832405 159.319824,113.684395 
	C163.802658,113.509079 168.301697,113.532440 172.786209,113.687164 
	C176.012650,113.798485 177.687881,112.934578 177.712402,109.260696 
	C177.737122,105.554108 175.743866,105.219856 172.945496,105.352654 
	C171.286621,105.431374 169.583099,105.581795 167.963943,105.312874 
	C160.077545,104.003036 153.350433,108.846390 145.321060,110.014915 
M145.338165,169.746780 
	C144.024506,178.660965 147.448532,187.714828 142.867447,196.823334 
	C140.888992,200.757095 139.371994,205.614716 137.722794,210.075058 
	C137.105545,211.744476 137.966812,213.792480 136.209076,215.154633 
	C133.278152,217.425888 134.074951,220.085205 135.366562,223.228653 
	C146.775436,209.873093 149.793518,194.967514 150.190079,177.983597 
	C150.593750,160.695450 144.460831,146.865234 135.738892,132.922668 
	C134.438049,134.160660 133.294342,135.249100 132.176651,136.312790 
	C134.245987,139.365219 136.737427,141.595261 137.968765,145.290604 
	C139.032059,148.481567 138.211975,152.070419 140.117752,154.748459 
	C143.160843,159.024673 142.598022,164.511459 145.338165,169.746780 
M125.763138,212.711502 
	C126.163902,212.185150 126.811371,211.708038 126.927696,211.124954 
	C128.253998,204.477188 136.303680,200.302399 133.884720,192.262573 
	C133.788376,191.942337 134.220947,191.317047 134.569138,191.031479 
	C138.140472,188.102448 136.542603,184.609375 136.095963,181.134155 
	C129.147003,183.072708 122.575806,182.809586 115.729126,181.275528 
	C115.154053,185.971863 114.085510,191.034241 115.945145,195.057861 
	C118.674103,200.962418 120.820595,207.092224 123.583084,212.962769 
	C124.031433,213.915527 124.715141,214.061874 125.763138,212.711502 
M159.731873,143.704285 
	C164.738342,143.208786 166.651016,139.265015 168.524750,135.508698 
	C170.351059,131.847458 171.774765,127.985413 173.815826,123.172607 
	C165.173599,124.968513 156.672302,120.409515 148.687576,126.114388 
	C144.871811,128.840652 144.124359,131.251648 147.247513,134.850449 
	C148.726257,136.554398 149.933960,138.317947 150.488052,140.747650 
	C151.764297,146.344086 155.370178,147.468323 159.731873,143.704285 
M89.111740,137.280365 
	C90.369698,138.518784 91.109032,140.085907 92.613731,141.274277 
	C96.961578,144.708054 101.460701,144.435684 103.050797,139.261932 
	C104.135712,135.731949 106.871117,133.689240 107.888344,131.203384 
	C107.136230,124.826103 101.379189,127.980919 99.100044,125.875626 
	C95.084122,122.166023 90.765625,123.889008 86.574799,123.413719 
	C85.163055,123.253601 83.343063,123.019852 82.649734,124.752655 
	C81.959328,126.478119 82.792519,127.692146 84.268486,128.952271 
	C86.572800,130.919647 88.975113,133.082870 89.111740,137.280365 
M111.655563,204.763062 
	C111.482544,203.631393 111.702240,202.167023 111.071808,201.422836 
	C107.393677,197.081085 106.583344,191.983887 106.641983,186.572571 
	C106.667152,184.249115 106.652245,181.922424 106.553970,179.601501 
	C106.497063,178.257645 105.697647,177.491562 104.301552,177.466782 
	C103.039001,177.444351 101.800293,177.798584 101.609718,179.146194 
	C101.241722,181.748474 100.332458,184.855011 102.086563,186.866730 
	C106.180672,191.562164 104.921036,197.749207 106.768196,203.057236 
	C108.676201,208.540115 111.215729,213.950745 112.994263,219.549850 
	C113.435234,220.938095 115.534012,224.381470 118.861794,223.453568 
	C120.985489,219.830017 118.027718,217.905151 116.579132,215.542435 
	C114.633553,212.369064 112.513092,209.289856 111.655563,204.763062 
M130.547485,152.668442 
	C129.715408,150.273880 127.205986,148.820709 127.212074,145.804214 
	C127.215050,144.334564 124.698387,143.926193 124.227570,145.265900 
	C123.307732,147.883270 122.146004,150.230637 120.550652,152.474747 
	C120.026741,153.211700 120.311737,154.934555 121.306259,155.041397 
	C124.483818,155.382782 128.109711,157.482101 130.547485,152.668442 
z"/>
</svg>