<svg version="1.1" id="Layer_1" xmlns="http://www.w3.org/2000/svg" xmlns:xlink="http://www.w3.org/1999/xlink" x="0px" y="0px"
	 width="100%" viewBox="0 0 256 224" enable-background="new 0 0 256 224" xml:space="preserve">
<path fill="#000000" opacity="1.000000" stroke="none" 
	d="
M62.268612,186.037384 
	C55.863113,187.877228 51.585129,193.320007 45.425411,194.570160 
	C43.191315,195.023590 42.073898,196.472794 40.482372,197.391312 
	C34.790482,200.676285 26.948864,199.159790 22.633896,205.654526 
	C21.681347,207.088257 18.714306,206.985657 17.635815,205.617645 
	C15.793108,203.280243 16.032219,200.015915 17.256212,197.545212 
	C19.808201,192.393921 20.871294,186.783463 22.916353,181.555603 
	C24.511499,177.477844 25.821518,173.357025 26.533239,169.179581 
	C27.353916,164.362610 29.074968,159.787903 30.975180,155.564026 
	C32.747234,151.625031 33.714497,147.651566 34.393757,143.619843 
	C35.280441,138.356964 37.205643,133.291946 39.109608,128.593170 
	C40.815353,124.383575 40.597485,119.550789 43.726315,115.663063 
	C45.875591,112.992485 45.515327,108.765038 46.224621,105.337845 
	C47.296921,100.156693 49.000565,95.645470 52.098675,91.504654 
	C52.375488,91.134659 52.526215,90.562241 52.505753,90.093872 
	C52.079781,80.343269 58.903130,71.944748 57.724785,62.060722 
	C62.566181,56.344891 58.958694,47.822983 65.529541,41.920387 
	C67.503319,41.688095 70.791000,40.516014 73.313187,43.925484 
	C73.628769,44.352085 74.629669,44.664104 75.136810,44.496376 
	C80.668167,42.666985 85.415840,46.440861 89.716469,48.060051 
	C95.937141,50.402134 103.067154,50.413994 108.383629,54.037891 
	C112.035286,56.526989 116.924973,55.206116 119.663696,58.983280 
	C119.748489,59.100235 119.979774,59.212177 120.108376,59.181641 
	C126.118904,57.754612 130.617691,62.995819 136.519867,62.780563 
	C140.440582,62.637566 143.975739,65.367195 147.760010,66.593842 
	C153.117874,68.330559 158.294357,70.462708 163.799149,72.010254 
	C168.185013,73.243248 173.257080,73.517929 177.216888,76.766914 
	C179.619278,78.738037 183.860199,79.681000 185.977249,79.765388 
	C191.886993,80.000938 196.554443,83.767838 202.383987,83.808495 
	C206.397858,83.836502 210.078781,86.517166 214.019821,87.766090 
	C219.245895,89.422264 223.902786,93.074875 229.729950,92.593246 
	C235.372299,92.126900 239.091721,95.475075 242.917831,98.672707 
	C244.949829,100.370911 244.337814,101.210602 242.000900,102.437950 
	C235.268723,105.973694 228.704910,110.210121 221.856476,113.070221 
	C216.291412,115.394363 210.633575,117.458946 205.165161,120.227036 
	C200.903290,122.384377 195.927444,122.955338 191.702774,125.673706 
	C188.995255,127.415855 185.514496,127.472084 182.385712,129.007660 
	C177.182877,131.561172 172.468689,134.938171 167.201157,137.327744 
	C163.921768,138.815414 160.375748,138.959198 157.090866,141.211929 
	C150.201492,145.936584 141.503021,147.235138 134.571152,152.522583 
	C131.538986,154.835449 126.496780,154.549728 122.347832,155.341919 
	C120.914787,155.615540 119.059402,155.119263 118.444191,156.876694 
	C116.775818,161.642685 111.841522,162.212585 108.382790,164.138260 
	C100.845230,168.334900 92.517601,170.865051 85.045380,175.615417 
	C81.977882,177.565552 76.743294,177.897446 73.169044,180.121994 
	C69.720421,182.268372 66.367584,184.446320 62.268612,186.037384 
M54.500595,181.205627 
	C56.653542,177.066788 60.982899,176.600235 64.546852,174.605835 
	C70.416908,171.320984 77.292244,170.386902 82.595222,166.460327 
	C86.215691,163.779572 90.724846,164.256546 94.331017,161.447952 
	C98.138077,158.482880 102.807426,156.063858 107.471695,154.914841 
	C112.351166,153.712814 116.878525,152.799561 119.951088,147.804596 
	C116.041138,148.095428 114.446709,143.233734 110.111191,144.281189 
	C107.979431,144.796234 105.980431,143.434082 103.872139,142.535172 
	C100.183556,140.962509 96.133255,139.745346 92.182785,138.724274 
	C89.575729,138.050446 87.244087,137.378296 84.737198,136.339127 
	C81.080978,134.823532 77.879471,131.531616 73.062859,132.270523 
	C67.158058,133.176407 62.074520,129.920135 57.090412,127.228027 
	C54.106499,125.616310 47.577141,126.271790 47.575264,128.671005 
	C47.572598,132.079407 45.524563,135.162018 45.650726,138.115372 
	C45.871384,143.280823 42.168583,146.914383 41.560131,151.842239 
	C41.249271,154.359894 40.399078,158.407791 38.357723,161.053711 
	C35.974224,164.143112 35.192596,167.722580 34.350040,171.341187 
	C33.169067,176.413284 31.706161,181.398346 29.193029,185.987427 
	C28.491600,187.268250 28.098372,188.461517 28.843252,189.714203 
	C29.423241,190.689560 30.980232,191.006332 31.485382,190.489609 
	C34.172077,187.741379 37.931168,187.908600 41.123508,186.596405 
	C45.333645,184.865891 49.567417,183.192871 54.500595,181.205627 
M204.433899,110.696800 
	C210.152725,106.325668 218.305176,106.253372 223.329346,99.991989 
	C218.534668,101.147751 215.822128,96.650322 211.749588,96.428513 
	C209.111710,96.284843 206.722580,94.797234 204.590195,94.404625 
	C200.240097,93.603706 196.597321,90.164726 192.362930,90.660248 
	C186.874512,91.302528 182.818512,87.818703 178.369064,86.243225 
	C174.795258,84.977783 170.365234,84.824478 167.040863,81.714264 
	C165.635620,80.399536 162.336945,80.886513 160.128082,78.912834 
	C158.709030,77.644852 156.372650,78.412140 154.298645,79.904442 
	C150.724487,82.476120 152.604446,86.635963 150.967682,89.203590 
	C147.264297,95.013161 146.877518,101.302322 146.311005,107.709122 
	C146.224075,108.692192 146.339920,110.171814 145.773315,110.557922 
	C141.354919,113.568817 143.169022,119.022285 141.030273,123.153763 
	C138.684845,127.684479 135.725388,133.459625 136.901688,139.657440 
	C139.292679,140.604034 140.748199,137.965515 142.833694,137.350845 
	C147.281891,136.039780 151.797150,134.580017 156.149994,132.652939 
	C160.991089,130.509689 165.490631,127.724892 170.084366,125.277611 
	C173.449295,123.484962 178.150757,123.985435 180.102509,121.295807 
	C184.818863,114.796432 192.737823,117.484695 198.381912,113.857414 
	C199.950333,112.849434 202.324387,112.741165 204.433899,110.696800 
M61.361942,80.003029 
	C61.255119,81.315628 61.640324,83.016006 60.961266,83.877609 
	C56.696159,89.289307 58.330029,96.098373 56.437355,102.060562 
	C55.686481,104.425919 56.987309,107.312622 54.165192,109.222404 
	C53.103127,109.941124 52.972404,111.717636 54.103668,112.808189 
	C55.469967,114.125313 56.367664,112.986794 57.376709,111.980911 
	C58.865788,110.496490 60.439552,108.208572 62.170536,108.017929 
	C67.901665,107.386757 72.136574,103.769951 77.097961,101.657196 
	C78.940689,100.872498 79.649895,98.322594 82.048981,98.687157 
	C86.340172,99.339226 90.021294,97.842697 93.483070,95.538597 
	C94.819214,94.649284 96.229759,92.806458 97.426170,92.945778 
	C105.065842,93.835426 109.609406,87.172295 116.474068,85.487762 
	C124.404686,83.541649 131.362808,77.632431 138.743179,73.443993 
	C134.320694,73.889801 131.655960,69.228333 127.877403,69.574005 
	C122.558807,70.060577 117.710007,67.884926 113.827362,65.732208 
	C106.618332,61.735184 98.593521,60.714237 91.139847,57.947540 
	C85.281036,55.772839 78.651024,55.456203 73.111816,51.742168 
	C71.856087,50.900208 70.632324,52.197758 69.294533,52.969105 
	C64.835510,55.540085 66.192818,60.229927 65.535065,63.646004 
	C64.507195,68.984230 60.931583,73.577927 61.361942,80.003029 
M128.670868,132.451614 
	C128.747971,131.305969 128.549957,130.099197 129.415787,129.129776 
	C132.757538,125.388260 132.797134,120.260590 134.256653,115.873093 
	C135.522583,112.067497 135.638748,106.806847 137.308884,103.734459 
	C139.504303,99.695747 138.165283,94.601295 142.054932,91.256424 
	C143.425018,90.078232 143.315109,87.022842 141.825165,85.211082 
	C140.620483,83.746201 138.489258,84.217232 137.115555,84.852501 
	C132.265610,87.095345 126.624901,88.829536 122.676567,91.513145 
	C113.933907,97.455368 103.736427,99.668167 94.749924,104.803642 
	C89.739372,107.666992 83.146286,108.514221 77.839951,111.573463 
	C74.717789,113.373482 72.014343,115.197380 68.052559,115.103851 
	C65.947197,115.054138 64.491272,118.019455 64.571037,120.377411 
	C64.658989,122.977699 67.059723,122.687546 68.820618,122.586159 
	C74.589211,122.254036 79.217346,127.287750 85.174210,125.997414 
	C85.390556,125.950554 85.680794,126.382278 85.970818,126.517593 
	C90.872810,128.804779 95.569389,131.694855 101.259613,131.661911 
	C102.250053,131.656174 103.526176,131.463257 104.188667,131.977432 
	C111.103493,137.344055 120.091263,136.537430 127.523552,140.320068 
	C129.107574,137.916763 128.448227,135.519897 128.670868,132.451614 
z"/>
</svg>