<svg version="1.1" id="Layer_1" xmlns="http://www.w3.org/2000/svg" xmlns:xlink="http://www.w3.org/1999/xlink" x="0px" y="0px"
	 width="100%" viewBox="0 0 240 256" enable-background="new 0 0 240 256" xml:space="preserve">
<path fill="#000000" opacity="1.000000" stroke="none" 
	d="
M145.464020,175.266647 
	C141.290009,174.010147 139.012222,177.329269 136.291931,178.637009 
	C126.192215,183.492249 114.709473,185.219589 105.694878,192.724701 
	C103.420685,194.618103 99.334305,194.392548 96.117065,196.109650 
	C91.111488,198.781219 86.283127,201.796310 81.222954,204.377640 
	C80.322899,204.836792 79.526756,205.363297 78.541321,205.337204 
	C71.149223,205.141602 65.894539,209.865952 60.167362,213.413864 
	C59.082695,214.085815 58.116844,214.341293 56.974243,214.392838 
	C54.696457,214.495605 52.712315,214.474258 50.714069,216.489792 
	C48.884979,218.334717 45.297920,218.261520 43.424171,216.366043 
	C41.886791,214.810852 42.001358,212.012222 44.445259,210.308090 
	C44.821686,210.045593 45.265621,209.495148 45.243305,209.102600 
	C44.830723,201.844788 49.939415,196.265900 51.232460,189.294968 
	C52.358379,183.224976 54.031166,176.298065 58.654346,171.067612 
	C60.933712,168.488831 59.280964,164.815582 60.998863,161.633789 
	C63.898453,156.263321 64.568581,149.525711 68.007614,144.656479 
	C71.359154,139.911133 71.638657,134.256714 74.360924,129.298096 
	C77.213463,124.102158 79.816811,117.535225 80.953758,110.895485 
	C81.737801,106.316711 82.700684,101.246651 85.676521,97.209145 
	C86.797325,95.688484 86.723862,94.053230 86.619629,92.443672 
	C86.397621,89.015450 88.967300,86.589241 91.127815,86.082954 
	C99.946114,84.016548 106.538086,77.785522 114.511864,74.558731 
	C118.273285,73.036591 122.127182,70.263176 126.722610,70.598076 
	C130.308136,70.859375 132.409805,67.723740 135.193298,66.253922 
	C136.859039,65.374336 138.295792,64.665276 140.089828,64.655975 
	C142.905624,64.641373 145.106415,63.857719 147.723221,62.257774 
	C154.872742,57.886501 162.250397,53.566448 169.922592,50.407360 
	C173.476852,48.943871 177.712677,47.508236 181.501251,46.185749 
	C185.229980,44.884148 189.788345,44.730793 192.872910,41.642586 
	C193.834427,40.679920 194.960953,40.757126 196.095642,40.667137 
	C197.256531,40.575069 198.501816,40.795536 199.570618,40.448929 
	C201.871536,39.702759 203.884888,35.733364 206.307129,38.362564 
	C208.718887,40.980412 208.537872,46.173912 206.897964,48.242527 
	C203.933167,51.982410 204.079926,56.317162 203.128387,60.144608 
	C201.682068,65.962204 198.748428,70.958931 196.885986,76.358658 
	C194.780579,82.462830 192.970062,88.864128 191.249847,95.194290 
	C190.332306,98.570724 187.102188,101.485573 186.737396,104.808723 
	C186.088272,110.721695 181.413712,114.584015 180.306305,120.115692 
	C179.255310,125.365570 177.804230,130.507797 175.132706,135.250854 
	C173.434464,138.265930 174.532974,141.917725 172.614059,145.181793 
	C169.588852,150.327591 169.264282,156.692551 166.131729,161.918549 
	C163.877167,165.679825 159.884827,167.684387 156.342194,169.134842 
	C152.448685,170.728943 149.373947,173.266647 145.464020,175.266647 
M140.528015,74.830078 
	C137.389709,78.463623 132.305923,79.238350 128.538544,79.887070 
	C121.904999,81.029305 117.563988,85.720230 111.698227,87.815758 
	C106.693977,89.603508 102.727715,93.869484 97.430862,95.590210 
	C95.232361,96.304413 93.058739,98.248665 92.706871,100.257179 
	C91.538788,106.924751 90.028831,113.391884 87.713890,119.801018 
	C86.883713,122.099449 83.959122,122.529419 84.326462,125.313026 
	C85.013000,130.515411 81.552185,134.763947 80.529358,139.667511 
	C79.157936,146.242401 75.564026,152.500259 72.176613,158.469955 
	C68.188774,165.497818 65.483963,173.080841 62.799911,180.533432 
	C61.032978,185.439545 60.653564,190.804840 57.672413,195.486572 
	C56.706764,197.003067 56.520374,200.082657 59.229259,201.369797 
	C63.420094,198.966949 67.294037,196.349960 71.949661,195.698181 
	C74.669243,195.317444 77.055763,195.311432 79.673691,193.418167 
	C81.500778,192.096802 83.520462,189.848846 86.282753,189.694580 
	C90.811829,189.441589 94.167442,186.525085 97.933472,184.557419 
	C102.154343,182.352127 106.143440,178.659378 110.551048,178.095047 
	C117.510368,177.204056 122.401566,172.301575 129.130188,170.677444 
	C135.957443,169.029495 143.081085,166.082489 149.693207,162.672073 
	C155.123596,159.871155 161.261765,158.925522 161.213791,150.342758 
	C161.197800,147.481888 161.376099,143.099991 163.333694,140.500961 
	C167.890503,134.451050 168.283569,126.814873 171.862137,120.551720 
	C173.803528,117.153915 172.644470,113.250488 174.470764,110.169960 
	C177.099960,105.735092 178.208527,100.789375 179.439987,95.979836 
	C180.119659,93.325249 180.635162,90.670807 182.613998,89.009186 
	C184.292801,87.599495 184.633575,86.164993 184.679764,84.286003 
	C184.723450,82.508224 185.349884,81.037567 186.181320,79.343094 
	C188.695969,74.218224 192.348190,69.391098 192.601547,63.404774 
	C192.798035,58.762249 196.374100,55.677547 197.284973,51.384800 
	C196.300232,51.040878 195.080322,50.275806 193.832550,51.345219 
	C188.405472,55.996521 181.509918,57.171600 175.101715,59.603149 
	C171.663132,60.907894 167.456253,61.345089 164.940262,63.096844 
	C160.626190,66.100502 155.681213,67.736809 151.372421,70.665489 
	C148.529037,72.598122 145.433167,75.542747 140.528015,74.830078 
z"/>
</svg>