<svg version="1.1" id="Layer_1" xmlns="http://www.w3.org/2000/svg" xmlns:xlink="http://www.w3.org/1999/xlink" x="0px" y="0px"
	 width="100%" viewBox="0 0 240 240" enable-background="new 0 0 240 240" xml:space="preserve">
<path fill="#000000" opacity="1.000000" stroke="none" 
	d="
M241.000000,113.562500 
	C237.305115,116.450851 233.546188,119.106758 229.030884,119.280273 
	C225.692978,119.408546 224.000107,122.121719 221.508652,123.364716 
	C219.272598,124.480278 217.379791,125.438194 214.919815,125.402565 
	C213.748703,125.385612 212.376892,125.331459 211.783707,126.512680 
	C208.804489,132.445145 202.164352,135.211365 197.396164,136.495316 
	C190.858688,138.255722 185.459137,142.207504 179.017288,144.023178 
	C175.378769,145.048706 170.248459,145.286026 167.283234,149.199036 
	C165.615784,151.399460 163.442749,152.464325 160.231903,152.654633 
	C155.444031,152.938431 150.878967,155.632050 147.209808,158.399475 
	C143.503113,161.195206 138.941315,160.423645 135.269623,163.088181 
	C133.736038,164.201126 132.172531,166.152634 129.600632,166.484528 
	C125.124146,167.062180 122.640907,163.066208 118.920975,162.526001 
	C112.168724,161.545502 108.232399,155.261307 101.491760,153.975266 
	C98.681534,153.439117 95.462151,152.350571 92.619797,150.348145 
	C90.005333,148.506256 86.070251,148.486420 82.965050,146.506653 
	C77.657974,143.123032 71.060616,142.604462 65.801445,138.477859 
	C63.518158,136.686279 59.855801,135.475327 56.669910,134.291275 
	C51.428314,132.343216 45.212391,132.042465 41.492363,126.866539 
	C41.126183,126.357040 40.517803,125.730568 39.975414,125.682518 
	C32.106628,124.985504 26.622730,119.075874 19.652390,116.403641 
	C17.455988,115.561600 14.797412,113.569695 15.127007,111.325066 
	C15.446985,109.145958 17.880964,107.676033 20.342333,106.295120 
	C26.761580,102.693680 34.216942,101.542770 40.023041,95.950310 
	C43.366158,92.730217 48.144409,89.294304 53.697948,88.276176 
	C56.173557,87.822319 58.403534,85.646271 60.555298,84.003403 
	C61.373676,83.378563 62.059822,82.626152 63.089790,82.723206 
	C69.770081,83.352676 73.628128,77.648384 79.065956,75.453766 
	C80.611557,74.830002 81.964348,73.463547 83.836113,73.653923 
	C86.357964,73.910439 88.349579,73.125572 89.726395,70.659492 
	C92.435707,73.361122 96.177147,75.080933 93.702621,79.739037 
	C88.364349,82.299118 82.817383,84.918312 78.027420,88.822792 
	C77.286819,89.426498 76.531448,89.506042 75.716560,89.446014 
	C71.070007,89.103706 68.138412,93.718475 64.176605,93.982826 
	C57.500969,94.428253 54.495274,101.933495 47.720299,101.521805 
	C46.422325,101.442940 45.838009,102.620735 44.999027,103.437965 
	C41.506458,106.840004 37.217438,109.154251 33.175171,111.830353 
	C34.212440,114.482117 36.128662,115.287643 39.092007,115.829277 
	C42.845753,116.515373 48.100254,117.572639 49.773117,119.916351 
	C53.291634,124.845856 59.612255,123.170662 62.938282,127.345634 
	C63.295715,127.794296 64.558449,127.723442 65.349533,127.589088 
	C68.359657,127.077904 70.430115,128.176971 71.708519,130.923874 
	C72.655586,132.958832 74.586319,133.056686 76.462608,133.782776 
	C82.411392,136.084885 88.806938,137.105087 94.358986,140.696442 
	C97.689949,142.851089 100.969070,145.875671 105.442398,145.619522 
	C107.509186,145.501175 108.165710,147.206970 109.444557,148.139008 
	C115.292816,152.401352 122.902534,152.104538 129.172104,155.655304 
	C130.825531,156.591736 134.506592,153.590302 137.370300,152.819916 
	C143.859253,151.074295 149.586212,148.558823 154.288910,143.242752 
	C156.040131,141.263138 160.411224,141.175522 163.514130,140.144836 
	C169.990250,137.993713 175.465652,134.376617 181.431046,131.538284 
	C184.542557,130.057816 188.216370,128.566849 191.447479,127.210159 
	C198.089371,124.421356 206.462158,124.224533 210.830688,116.951744 
	C211.188675,116.355766 212.213577,115.725388 212.846695,115.800583 
	C216.816681,116.272079 219.742325,114.437988 222.272797,111.788040 
	C222.466827,107.124435 218.028244,106.470734 215.380081,105.630081 
	C209.060684,103.623985 204.099945,99.185440 198.547729,96.800003 
	C193.251892,94.524719 188.093384,91.685867 182.686874,89.645370 
	C179.024506,88.263138 175.583008,86.762321 172.342285,84.639626 
	C169.322250,82.661484 165.308685,83.624130 162.361206,81.053452 
	C158.142609,77.374130 152.876968,74.264015 147.997147,72.844872 
	C140.080750,70.542625 133.447235,64.308197 125.217140,64.559822 
	C121.860855,64.662430 120.382278,64.200562 119.215820,61.836021 
	C117.828293,59.023373 118.590416,56.189510 120.751488,54.057537 
	C123.349319,51.494698 127.279175,51.680454 129.511185,53.298412 
	C135.231827,57.445240 142.313873,58.447906 147.981293,62.015469 
	C152.239883,64.696175 156.952377,66.572174 161.013565,69.628380 
	C163.635971,71.601845 167.577835,70.384712 170.343094,73.283722 
	C173.000595,76.069771 177.176392,77.100838 180.599411,78.829735 
	C183.589310,80.339874 188.033508,79.920174 190.643234,82.503265 
	C194.675522,86.494400 201.455811,85.211014 204.886887,90.930740 
	C205.853287,92.541763 211.126785,92.483299 214.295166,94.266190 
	C219.156754,97.001877 224.755264,98.458725 229.516617,101.328415 
	C231.778015,102.691383 233.733994,103.863037 236.264114,103.598480 
	C238.681702,103.345703 239.212173,105.332901 240.703308,106.784790 
	C241.000000,109.041664 241.000000,111.083336 241.000000,113.562500 
z"/>
</svg>