<svg version="1.1" id="Layer_1" xmlns="http://www.w3.org/2000/svg" xmlns:xlink="http://www.w3.org/1999/xlink" x="0px" y="0px"
	 width="100%" viewBox="0 0 256 272" enable-background="new 0 0 256 272" xml:space="preserve">
<path fill="#000000" opacity="1.000000" stroke="none" 
	d="
M1.000000,257.000000 
	C1.000000,183.312439 1.000000,109.624878 1.396477,35.581650 
	C15.921557,36.043594 30.060938,35.422825 44.194832,35.535225 
	C44.688736,35.539154 45.352406,35.602650 45.652653,35.327805 
	C49.899338,31.440418 55.376537,34.764748 60.098831,32.744202 
	C64.367279,30.917845 68.713402,35.905148 72.072220,35.120804 
	C78.669495,33.580231 84.706306,35.483185 90.975853,35.523315 
	C91.773941,35.528423 92.895287,35.420475 93.320778,34.909847 
	C95.735176,32.012390 98.980583,32.640640 102.064606,32.639450 
	C144.167557,32.623192 186.271088,32.745628 228.372986,32.533428 
	C237.937485,32.485226 247.794449,34.546951 257.000000,30.000000 
	C257.000000,105.687561 257.000000,181.375122 256.665283,257.450867 
	C256.330566,257.839081 244.831146,260.120026 244.831146,260.120026 
	C242.374451,261.396759 232.452316,260.124725 230.360229,258.264801 
	C227.913589,260.780609 227.789398,260.915924 225.588165,258.895599 
	C224.410339,257.814575 223.390747,257.250183 222.151215,258.265076 
	C217.736664,261.879547 213.358093,261.446411 208.924545,258.375000 
	C208.017166,257.746429 206.719116,257.516693 206.109024,258.158417 
	C202.090530,262.385498 196.899994,259.683197 192.438828,260.155243 
	C182.211609,261.237457 171.813690,260.832001 161.485489,260.812958 
	C110.497368,260.718903 59.509418,260.528137 8.521301,260.475189 
	C5.286621,260.471832 2.659791,260.004730 1.000000,257.000000 
M228.895950,72.806961 
	C232.255219,70.296562 232.427261,65.703606 234.848495,62.956306 
	C238.703812,58.581818 241.123901,53.766014 242.996109,48.426952 
	C244.778641,43.343628 244.176773,42.475418 238.942581,42.484577 
	C209.305542,42.536438 179.668350,42.515797 150.031219,42.529213 
	C147.898605,42.530178 145.939117,42.436413 144.119049,44.331730 
	C142.258255,46.269455 134.576981,45.265957 132.444931,43.250515 
	C130.788788,46.196934 128.033295,45.381287 125.466103,45.298546 
	C121.525368,45.171535 116.449875,42.933693 114.133690,43.806446 
	C107.667580,46.242928 101.382118,45.184284 95.135277,45.280514 
	C72.319489,45.631985 49.495049,45.418407 26.673872,45.429764 
	C25.177992,45.430508 23.673660,45.452896 22.188921,45.611660 
	C20.940023,45.745216 19.971727,46.446827 19.766331,47.768867 
	C19.555204,49.127804 20.357468,49.873577 21.534065,50.426750 
	C27.213654,53.096996 31.075069,58.118301 35.898216,61.894787 
	C43.078800,67.517120 48.907234,74.887451 56.173038,80.372025 
	C60.614254,83.724457 64.536980,87.977440 70.135666,90.053459 
	C73.575966,91.329124 75.286789,95.408966 77.686157,98.318336 
	C81.847740,103.364487 88.177658,105.881683 92.496208,110.793877 
	C94.200012,112.731888 94.905228,115.928207 97.811188,116.358383 
	C101.185921,116.857956 102.750870,119.277283 104.602943,121.492149 
	C108.459824,126.104515 113.259384,128.644836 119.363953,128.637589 
	C141.685379,128.611099 164.009430,128.430298 186.326874,128.728104 
	C193.940918,128.829697 200.691620,128.688873 202.679169,119.429131 
	C202.809280,118.822945 203.400970,118.326088 203.729279,117.750603 
	C206.971695,112.067078 211.670853,107.297157 214.010834,101.020744 
	C214.644745,99.320480 214.474792,97.531494 215.491684,95.839699 
	C219.549866,89.088066 222.515121,81.657310 228.240128,75.953552 
	C228.720200,75.475273 228.571976,74.366356 228.895950,72.806961 
M8.376690,223.499451 
	C8.377748,228.664795 8.336396,233.830612 8.391826,238.995377 
	C8.446974,244.133789 12.967272,246.987305 17.090574,243.920364 
	C20.641558,241.279129 24.464781,239.664276 28.250139,237.668365 
	C39.746727,231.606613 51.349270,225.778275 62.874817,219.799850 
	C69.274078,216.480515 77.449745,215.944107 82.064743,209.271774 
	C82.356003,208.850677 83.314209,208.606873 83.885147,208.709381 
	C87.575272,209.371964 89.728928,206.941528 91.918457,204.738159 
	C94.245468,202.396423 97.124573,200.810547 100.052834,199.742111 
	C107.853409,196.895905 108.604263,196.170166 108.621147,187.820953 
	C108.634293,181.322662 108.642670,174.824234 108.609947,168.326096 
	C108.603287,167.002899 108.916420,165.206970 108.206192,164.438232 
	C104.736046,160.682220 105.387321,157.548294 108.170456,153.547287 
	C110.325172,150.449677 105.517395,135.052292 102.404549,133.142899 
	C100.531860,131.994186 98.182068,132.133163 96.540039,129.976929 
	C91.821602,123.780945 86.040627,118.670837 79.666786,114.111336 
	C76.695061,111.985535 75.134499,107.416718 72.018929,106.064857 
	C66.357674,103.608398 61.358440,100.013496 57.617962,95.806129 
	C52.826321,90.416405 46.804634,86.695946 41.838142,81.606720 
	C32.516426,72.054649 21.963482,63.807697 10.842354,56.325996 
	C9.577752,55.475239 8.669571,54.214848 7.107205,54.728928 
	C5.048446,55.406342 5.398982,57.361992 5.395253,58.983368 
	C5.370725,69.647194 5.366587,80.311188 5.410694,90.974899 
	C5.415395,92.111633 5.365447,93.733780 6.038996,94.299454 
	C9.129280,96.894806 8.350902,100.310013 8.353436,103.530441 
	C8.384635,143.186798 8.375526,182.843201 8.376690,223.499451 
M178.349670,249.940247 
	C179.861893,249.049561 180.909439,246.302811 183.245285,248.657928 
	C185.850891,251.285049 188.358795,251.399643 190.903946,248.557800 
	C192.217438,247.091171 194.204544,247.368942 195.608780,247.770340 
	C199.915771,249.001511 204.072601,247.521500 208.295471,247.567596 
	C217.957123,247.673096 227.620972,247.598251 237.283783,247.560318 
	C239.233505,247.552658 241.298477,247.890732 242.915482,246.344208 
	C242.886627,244.209213 242.145370,242.710419 239.824036,242.554443 
	C238.272736,242.450211 236.816208,242.138260 235.976288,240.674789 
	C232.211502,234.115173 225.419556,230.737961 220.205368,225.700470 
	C211.575592,217.363144 204.816071,206.350082 190.800156,205.502899 
	C188.074631,205.338150 186.152206,206.949753 183.476501,206.677399 
	C177.225235,206.041077 170.830200,205.452286 164.618423,206.080460 
	C152.132812,207.343094 139.689987,206.564102 127.223274,206.589981 
	C120.335716,206.604263 113.134857,204.704819 106.694611,209.398315 
	C105.306534,210.409927 104.388435,212.121246 102.388870,212.509598 
	C96.881927,213.579163 92.587654,217.341614 87.855606,219.930389 
	C78.914978,224.821548 69.972710,229.598206 60.560402,233.510971 
	C57.292042,234.869644 52.774109,235.517960 50.898792,237.393570 
	C45.383949,242.909286 36.701607,243.207199 32.243984,249.833160 
	C34.063992,250.617783 36.066776,250.605545 38.065784,250.605316 
	C72.885704,250.601471 107.705627,250.603500 142.525528,250.568542 
	C144.342697,250.566711 146.872925,250.948456 147.852783,249.952682 
	C152.049179,245.688202 156.959091,248.884155 161.438629,248.275848 
	C163.814041,247.953293 166.862503,245.984161 168.922882,248.369095 
	C171.537949,251.396133 174.533081,250.572708 178.349670,249.940247 
M253.604385,204.528564 
	C253.335831,200.731262 254.919479,196.416382 252.773087,193.252106 
	C250.551102,189.976410 250.631790,186.779541 250.630524,183.352524 
	C250.616104,144.520828 250.632599,105.689117 250.598724,66.857445 
	C250.596512,64.323608 251.071320,61.650208 249.394196,58.750984 
	C248.643356,60.465553 248.414566,61.925167 247.569611,62.764458 
	C242.320862,67.977951 241.614670,75.605843 237.467087,81.392387 
	C234.311310,85.795212 233.068222,91.567169 229.030136,95.192696 
	C224.265717,99.470314 224.119247,106.650238 218.682449,110.280067 
	C218.577347,110.350235 218.577621,110.586899 218.540207,110.748535 
	C216.965485,117.552101 212.341812,122.856277 209.361938,128.972717 
	C206.788544,134.254822 203.969925,139.063141 204.280716,145.275253 
	C204.654999,152.756363 204.343094,160.270477 204.405624,167.769669 
	C204.417877,169.238022 204.242966,171.290192 205.083450,172.064102 
	C208.024094,174.771866 207.351105,178.111526 207.390213,181.357285 
	C207.444397,185.856110 207.390762,190.356171 207.399918,194.855652 
	C207.402969,196.353439 207.378830,197.845123 208.526505,199.073212 
	C211.543320,202.301331 214.091202,206.161133 217.601013,208.696091 
	C225.665100,214.520386 231.330917,223.102493 240.326813,227.834503 
	C243.706329,229.612167 244.732925,233.883087 247.849792,236.259354 
	C249.166748,237.263428 249.965698,238.903656 251.875854,238.267822 
	C253.946075,237.578674 253.590134,235.645325 253.593735,234.018616 
	C253.614838,224.519089 253.603683,215.019455 253.604385,204.528564 
M196.102432,158.715729 
	C195.064514,153.943573 195.667313,149.107208 195.673798,144.309357 
	C195.679398,140.162445 194.526978,138.119110 189.878510,138.623520 
	C185.597885,139.088013 181.236511,138.879486 176.911484,138.851227 
	C159.108917,138.734894 141.306549,138.585693 123.504372,138.419556 
	C120.274666,138.389420 117.377586,138.576874 117.387924,142.954163 
	C117.424469,158.429230 117.386032,173.904465 117.430344,189.379501 
	C117.441544,193.290482 120.236710,196.336395 123.329124,196.210373 
	C132.368576,195.842026 141.802063,199.410233 150.450531,194.067230 
	C151.358948,193.506027 152.301529,193.761368 153.194748,194.454697 
	C156.603027,197.100235 161.055313,192.257156 164.360321,195.956161 
	C164.389938,195.989273 164.705704,195.863678 164.781296,195.744537 
	C166.698853,192.723083 169.754547,193.685822 172.445984,193.647079 
	C179.100723,193.551270 185.763474,193.435349 192.411606,193.661819 
	C196.816269,193.811844 198.839539,192.387070 198.684143,187.686005 
	C198.431381,180.039932 198.608002,172.379364 198.620926,164.724960 
	C198.624359,162.692200 198.591934,160.694550 196.102432,158.715729 
z"/>
</svg>