<svg version="1.1" id="Layer_1" xmlns="http://www.w3.org/2000/svg" xmlns:xlink="http://www.w3.org/1999/xlink" x="0px" y="0px"
	 width="100%" viewBox="0 0 256 240" enable-background="new 0 0 256 240" xml:space="preserve">
<path fill="#000000" opacity="1.000000" stroke="none" 
	d="
M84.329819,168.490967 
	C81.152695,172.222244 78.990448,172.197510 76.212204,169.205124 
	C67.020081,159.304535 57.697140,149.525482 48.435047,139.689758 
	C40.723942,131.501099 33.452469,122.909157 25.459093,114.968681 
	C23.798174,113.318756 24.058119,110.630127 26.319059,108.421066 
	C30.392168,104.441414 35.390163,100.635666 37.554695,95.686920 
	C39.839230,90.463806 43.755672,86.986061 46.926811,82.795776 
	C50.635872,77.894699 55.076077,73.472191 59.612610,69.290695 
	C65.497643,63.866238 72.060493,59.224152 77.044891,52.771835 
	C78.520096,50.862179 81.540115,50.611431 83.353767,53.313530 
	C86.007713,57.267544 91.008652,59.556469 92.753082,63.640072 
	C95.873642,70.945129 102.976387,74.017662 107.513130,79.754959 
	C113.592194,87.442719 120.805748,94.233391 127.477463,101.350838 
	C130.493988,99.535042 130.578491,96.274452 131.914536,93.627113 
	C135.602493,86.319481 135.003891,77.479378 141.964676,71.035622 
	C145.466934,67.793503 148.973846,63.890095 152.242340,60.143978 
	C155.601395,56.294075 159.975510,56.095177 163.358322,54.027580 
	C169.380020,50.347084 176.529968,54.053093 181.900787,49.154743 
	C183.368576,47.816071 187.292099,47.215881 189.524872,50.154633 
	C189.905975,50.656239 190.617844,51.418953 191.003723,51.327808 
	C197.003891,49.910599 201.642365,55.596218 207.453110,54.510490 
	C211.113434,53.826569 212.588043,56.866680 214.047226,58.639824 
	C217.779999,63.175716 221.268433,67.544472 226.712891,70.422798 
	C230.551590,72.452209 231.159180,77.542900 233.213928,81.243248 
	C234.977692,84.419617 236.961746,88.401016 237.266006,91.297630 
	C238.047958,98.741432 243.018433,106.272453 240.753967,112.963364 
	C238.698196,119.037643 240.214050,125.344208 237.927322,130.485779 
	C235.375168,136.224152 235.466248,143.761948 228.920944,147.438644 
	C226.736603,148.665649 227.874496,151.142426 226.648743,153.066071 
	C223.487915,152.907242 221.734467,155.508102 219.777771,157.545258 
	C216.204407,161.265594 212.491913,164.656006 207.212708,165.569443 
	C205.257172,165.907791 204.578751,167.765854 203.149094,168.730652 
	C197.850449,172.306427 192.173325,171.246796 186.554626,171.369385 
	C182.725082,171.452942 178.889786,171.299469 175.061539,171.408920 
	C171.227417,171.518539 167.691956,171.244110 164.335266,168.810242 
	C158.397888,164.505203 150.590073,162.875275 146.096451,156.507706 
	C142.709015,151.707596 137.226273,148.497955 135.608704,142.346008 
	C134.566849,138.383575 133.728088,134.428833 131.818436,130.611450 
	C130.498032,127.971931 127.378578,126.140236 128.062119,122.571381 
	C121.623825,124.572243 116.699837,128.689636 114.318916,134.080460 
	C111.605431,140.224274 107.190025,144.271179 102.638962,148.602478 
	C101.608536,149.583145 100.841034,150.407990 99.422791,150.430359 
	C97.973045,150.453247 96.646706,150.940475 96.236610,152.377014 
	C94.312965,159.115417 88.819817,163.190094 84.329819,168.490967 
M141.901535,91.889816 
	C140.386139,97.543404 137.965103,103.142212 137.618851,108.866508 
	C137.294983,114.220718 136.816376,119.574776 139.716919,125.389282 
	C141.836517,129.638321 144.087967,134.870773 144.939163,139.946640 
	C145.518478,143.401169 147.651611,144.740707 149.808746,146.708344 
	C154.200516,150.714340 159.674408,153.101440 164.260849,156.429260 
	C170.903519,161.249039 177.475616,161.882660 184.818924,161.636215 
	C185.982819,161.597153 187.169113,161.489151 188.310883,161.652252 
	C194.074295,162.475510 198.302414,159.104401 202.987244,156.669266 
	C209.569778,153.247757 214.262573,147.943298 219.009995,142.506165 
	C222.190475,138.863647 225.553009,135.854797 227.419250,130.839691 
	C228.633820,127.575836 228.578644,123.797813 230.689468,120.844574 
	C234.354965,115.716270 233.603653,109.664352 231.705078,104.761871 
	C229.254272,98.433434 227.659103,91.770889 224.635941,85.659958 
	C224.209457,84.797836 224.287048,83.467873 223.649368,82.962181 
	C216.532043,77.317841 212.258057,68.734825 203.253937,64.814003 
	C198.313095,62.662518 193.802414,60.914207 188.430298,61.340492 
	C185.287537,61.589867 182.055573,61.752041 178.957520,61.304405 
	C173.159210,60.466610 167.765228,61.830753 163.472107,65.248169 
	C161.236603,67.027679 158.222473,66.483925 156.653290,68.592323 
	C151.279922,75.812111 143.640244,81.658798 141.901535,91.889816 
M46.663559,100.205490 
	C44.295738,102.893593 41.983791,105.633537 39.548012,108.258575 
	C35.030586,113.127052 35.161842,113.641876 41.919819,115.390312 
	C42.551243,117.578773 41.917847,120.958191 45.907448,120.958572 
	C46.324547,120.958611 47.108162,121.828453 47.102551,122.287155 
	C47.038456,127.527672 55.167191,126.560013 54.530319,132.161285 
	C58.823307,131.987411 57.382111,137.299103 59.798981,138.070038 
	C64.876556,139.689728 65.809372,145.073532 69.547867,147.602493 
	C73.058403,149.977249 76.296936,152.578583 79.407143,155.422272 
	C80.036407,155.997620 81.580589,155.649734 82.084564,154.723389 
	C84.761589,149.802780 89.609711,147.064789 93.298943,143.202148 
	C102.076843,134.011642 110.163712,124.164764 118.783760,114.817307 
	C120.879166,112.545074 121.147110,111.420059 118.794571,109.285263 
	C115.926735,106.682877 113.979675,103.478706 112.177956,99.834312 
	C110.088188,95.607285 106.795799,91.151924 102.067520,89.008377 
	C98.919258,87.581131 96.680756,85.560844 94.564072,82.946793 
	C89.571808,76.781487 87.434807,67.769958 77.952049,66.005417 
	C67.698540,77.186905 57.401505,88.415855 46.663559,100.205490 
z"/>
</svg>