<svg version="1.1" id="Layer_1" xmlns="http://www.w3.org/2000/svg" xmlns:xlink="http://www.w3.org/1999/xlink" x="0px" y="0px"
	 width="100%" viewBox="0 0 256 272" enable-background="new 0 0 256 272" xml:space="preserve">
<path fill="#000000" opacity="1.000000" stroke="none" 
	d="
M21.628386,146.045685 
	C18.369970,139.846771 17.189766,133.091324 13.222631,127.567421 
	C13.035566,127.306953 12.919344,126.968269 12.857574,126.649094 
	C10.591817,114.942146 7.664174,103.044121 10.180881,91.303871 
	C10.997895,87.492561 11.278841,82.356224 14.753652,79.029961 
	C15.676085,78.146957 15.521414,76.894928 15.627692,75.737457 
	C16.278130,68.653664 19.420975,62.603432 23.714664,57.139538 
	C26.525518,53.562607 30.072371,50.523396 32.615543,46.784828 
	C38.811451,37.676605 48.887779,34.045422 57.911800,29.454576 
	C61.685478,27.534775 66.363426,25.187979 71.633911,25.351494 
	C75.688255,25.477282 79.546333,21.075659 84.075371,22.747095 
	C89.658058,24.807381 95.864754,24.707567 101.081619,27.939184 
	C103.352470,29.345879 105.983963,28.696999 108.416946,28.585979 
	C111.621338,28.439760 114.666412,28.960510 116.153893,31.802858 
	C117.786842,34.923206 121.777359,34.206543 123.428146,37.150543 
	C123.949898,38.081020 125.521126,37.467094 126.412689,36.443874 
	C128.540497,34.001862 131.787445,32.791676 133.970200,30.955606 
	C137.362610,28.102011 142.496460,30.247816 144.747604,26.022253 
	C152.877487,26.040014 160.736816,19.626287 168.515076,23.069923 
	C174.173157,25.574909 180.109589,23.909653 184.919983,26.096550 
	C190.558167,28.659761 196.688232,29.769995 202.132660,33.561806 
	C208.990112,38.337727 215.624817,43.047131 221.371597,49.143864 
	C223.738846,51.655289 225.837082,53.744293 226.844894,57.397594 
	C227.813263,60.907997 231.261963,63.516350 232.592560,67.301613 
	C234.030746,71.392952 236.420364,74.995323 237.658646,79.369987 
	C239.428345,85.622147 239.192017,91.759438 239.332718,97.974388 
	C239.382019,100.152077 241.659653,100.721848 241.968567,102.951889 
	C238.955505,104.861855 238.944183,108.133507 239.419312,111.213646 
	C240.385483,117.477081 238.208130,123.363457 236.935715,129.170425 
	C235.944305,133.694946 232.675095,137.814484 230.801544,142.369232 
	C226.924759,151.793991 219.378464,158.620667 212.259750,165.527100 
	C209.169983,168.524719 204.906723,170.520096 200.868301,172.252121 
	C198.572800,173.236618 198.348083,174.512177 198.346588,176.397797 
	C198.343002,180.897415 198.306580,185.397415 198.353897,189.896530 
	C198.404892,194.744629 197.295807,199.183975 194.103149,202.971466 
	C193.797043,203.334610 193.468384,203.855103 193.486496,204.288483 
	C193.722794,209.941284 189.431198,213.867035 188.006943,218.649368 
	C186.403824,224.032272 182.753036,227.041733 179.488785,230.773239 
	C177.553940,232.985016 173.615555,232.487366 172.639755,235.608871 
	C171.538986,239.130051 169.111191,241.114502 166.309204,243.208710 
	C163.715775,245.147049 161.376007,246.694107 158.125153,247.806152 
	C154.537979,249.033203 150.256119,249.483200 147.238449,252.224640 
	C145.612381,253.701859 143.824951,253.133636 142.075500,253.356262 
	C138.807693,253.772064 135.252213,252.132050 132.442612,255.696899 
	C131.040665,257.475708 129.820435,254.799713 128.862518,253.737061 
	C124.956955,257.130432 120.323967,257.346802 116.355560,254.375732 
	C115.325089,253.604248 114.216263,253.140152 113.130348,253.416565 
	C107.079216,254.956802 101.853722,251.661377 96.710388,249.843231 
	C93.428986,248.683273 88.562096,247.911057 87.011635,243.549805 
	C85.915199,240.465683 82.408142,242.332123 81.273956,240.560089 
	C76.295509,232.781799 67.316841,228.395844 64.132492,218.862015 
	C62.598381,214.268982 59.348057,210.038498 57.609829,205.271149 
	C57.443996,204.816345 56.857208,204.377777 56.914234,203.999222 
	C58.092949,196.174423 52.114525,189.517166 53.492783,181.517807 
	C54.265488,177.033020 49.128918,171.137924 44.888081,169.202789 
	C38.832333,166.439514 32.497959,162.889084 29.512930,157.223724 
	C27.351383,153.121277 25.217464,149.425919 21.628386,146.045685 
M179.147522,50.386009 
	C174.654907,50.384380 170.143280,50.120583 165.674286,50.444595 
	C159.483170,50.893456 153.004028,48.619560 147.184235,53.196346 
	C144.383072,55.399227 142.956665,58.741554 145.782181,61.433079 
	C149.237106,64.724159 150.147110,69.313507 151.959152,73.290405 
	C153.088821,75.769745 155.866119,77.448410 155.484940,81.024895 
	C154.770264,87.730034 158.582947,94.134888 157.448776,101.008926 
	C157.245789,102.239182 158.193726,103.018120 159.186691,103.794029 
	C162.874283,106.675552 167.352112,108.445274 170.082169,112.695847 
	C173.725220,118.367935 180.421494,121.129105 184.022797,127.201721 
	C185.784943,130.173096 186.315674,133.830551 188.574493,136.168640 
	C191.422424,139.116562 193.984421,141.722839 193.447525,146.205750 
	C193.260254,147.769440 195.040558,149.278229 195.839172,148.280823 
	C197.974442,145.614136 201.598679,146.314316 203.766037,143.949738 
	C207.250656,140.148056 210.299866,136.308777 212.467819,131.397980 
	C216.036255,123.314911 219.863190,115.742165 219.889099,106.390366 
	C219.915665,96.800385 218.197601,87.868401 214.922852,79.026749 
	C214.262894,77.244911 214.198090,75.581444 212.566498,73.911003 
	C207.121887,68.336876 202.368484,62.280571 195.883636,57.531471 
	C190.887711,53.872761 185.414978,52.540314 179.147522,50.386009 
M94.640175,88.052132 
	C94.494637,83.537163 94.425430,79.093674 98.712006,76.008125 
	C99.343323,75.553696 99.695717,74.164246 99.566788,73.298294 
	C99.072037,69.975449 100.516968,67.351433 102.958687,65.701973 
	C106.280014,63.458309 105.491302,59.497971 107.447136,56.725925 
	C108.132584,55.754421 107.634964,53.693569 105.965820,53.621658 
	C100.309410,53.377953 95.651001,49.124485 89.524712,50.224419 
	C85.011017,51.034817 80.229568,50.505371 75.575752,50.339371 
	C71.287209,50.186409 67.212593,50.142284 65.202538,54.980633 
	C64.657402,56.292816 63.371559,56.304085 62.216503,56.301529 
	C59.976654,56.296566 58.240231,56.758949 56.632275,58.747375 
	C54.410408,61.494976 51.100170,63.398911 49.045124,66.235779 
	C46.443157,69.827637 42.484383,72.379745 40.617535,76.306999 
	C38.046642,81.715355 33.490406,86.641296 35.158760,93.475014 
	C35.363628,94.314178 34.432430,94.830826 33.861790,95.442131 
	C31.079161,98.423050 31.260654,103.105530 32.940857,105.114342 
	C36.415497,109.268562 35.274563,113.563072 35.209438,117.758263 
	C35.139847,122.241814 35.803429,127.126411 38.411758,129.832870 
	C43.921638,135.550034 48.651134,141.983215 54.532696,147.338852 
	C56.784466,149.389282 58.560158,148.674377 58.488094,145.974106 
	C58.267410,137.704590 64.237686,132.007065 67.656548,125.670151 
	C72.016647,117.588615 80.500832,112.068962 88.413040,107.024620 
	C90.832985,105.481812 91.708916,104.367508 91.659775,101.862381 
	C91.570541,97.313026 91.064201,92.646210 94.640175,88.052132 
M89.111435,214.914810 
	C89.139030,217.937103 89.917908,220.164963 93.686005,219.708694 
	C94.782623,219.575897 96.069389,219.525620 96.919930,220.573029 
	C101.489998,226.200867 108.047966,227.482391 114.633217,228.733780 
	C115.416931,228.882706 116.261536,229.093826 116.906189,229.529938 
	C121.159203,232.407257 125.662750,231.707108 129.962585,230.037613 
	C133.873535,228.519104 137.627228,225.657898 141.900406,225.824478 
	C146.004776,225.984467 148.864258,224.328766 151.303909,221.646210 
	C152.255173,220.600220 153.561966,220.267563 154.313583,219.501801 
	C158.466751,215.270370 165.667664,214.229324 167.120071,207.074692 
	C167.460144,205.399460 167.371078,203.559509 168.528839,201.904282 
	C171.461792,197.711136 174.314987,193.413422 173.690781,187.829468 
	C173.478180,185.927750 173.458130,183.914917 176.216934,182.018265 
	C168.126678,180.861298 161.151474,181.616165 154.227005,181.319962 
	C152.462708,181.244507 150.517563,181.832581 149.024338,180.314484 
	C144.608948,175.825562 138.235504,175.285416 132.898376,172.669907 
	C130.908066,171.694565 129.624237,169.738785 127.191635,169.309570 
	C123.113892,168.590073 120.948334,171.876205 118.122032,173.335068 
	C109.818230,177.621201 101.799858,182.094070 91.972504,181.405975 
	C87.496864,181.092590 82.980644,181.285446 78.485023,181.367935 
	C76.756531,181.399643 74.379875,180.652710 73.699814,182.926331 
	C73.062424,185.057297 72.415428,187.756744 74.587318,189.406998 
	C76.230415,190.655472 76.205376,192.099548 76.346291,193.747314 
	C76.798653,199.036682 78.384201,203.760559 82.567833,207.444916 
	C84.850792,209.455429 86.721519,211.934036 89.111435,214.914810 
M134.516922,59.489105 
	C132.916031,57.980888 130.948273,56.712097 129.779800,54.921680 
	C125.460495,48.303429 118.428818,44.665619 113.021721,39.263054 
	C112.499130,38.740898 111.450172,38.315456 110.766556,38.451794 
	C104.640411,39.673565 99.874001,33.878178 93.745689,35.210194 
	C93.328209,35.300938 92.571373,35.079491 92.377831,34.758644 
	C90.385384,31.455635 87.083778,32.844337 84.280861,32.287666 
	C80.723343,31.581127 78.387161,35.275909 75.780350,34.977642 
	C70.259399,34.345955 65.812866,37.291176 61.387783,38.945198 
	C53.426102,41.921139 46.269955,47.218555 39.850101,52.884171 
	C34.754356,57.381241 29.661137,62.369267 27.782167,69.406136 
	C27.194721,71.606171 25.919992,73.545898 25.185436,75.478806 
	C23.633293,79.563087 19.889387,83.182549 21.304863,88.225952 
	C21.515821,88.977615 21.546177,90.227768 21.098232,90.647072 
	C16.762856,94.705162 19.232355,100.027344 18.246912,104.676254 
	C16.822987,111.393730 19.966911,117.414589 22.131342,122.861206 
	C23.724880,126.871201 24.700169,131.423370 26.875219,135.515274 
	C30.573858,142.473541 35.648968,148.326492 39.736626,154.896576 
	C42.485008,159.314056 48.689804,159.430634 52.634445,162.954391 
	C53.489269,160.887558 54.057003,159.567200 52.066471,158.210449 
	C47.805454,155.306137 45.920689,150.103439 40.220783,148.097168 
	C34.892109,146.221558 34.065598,139.404495 31.939716,134.539001 
	C30.921734,132.209167 29.286322,130.217590 28.266178,127.883415 
	C26.335003,123.464714 28.418165,118.196342 26.051373,114.958298 
	C23.035086,110.831688 24.081924,106.864914 23.658804,102.771561 
	C22.955807,95.970619 26.946190,90.116508 27.444510,83.352066 
	C27.920235,76.894272 33.241177,71.498497 35.434170,65.117577 
	C36.262661,62.706917 38.603504,60.216885 40.907562,59.031288 
	C46.525101,56.140678 51.216595,52.022026 56.422802,48.621685 
	C62.307022,44.778515 67.647247,39.522652 75.777451,40.528000 
	C78.618614,40.879333 82.180168,41.953648 84.336151,38.352257 
	C84.781471,37.608398 85.973801,37.674927 86.585381,38.284576 
	C91.326065,43.010319 98.841766,38.835228 103.534698,43.618717 
	C110.881104,41.731403 114.194923,48.430878 119.209541,51.293354 
	C123.952477,54.000740 126.116180,59.964359 130.501099,63.086346 
	C137.090057,67.777550 138.421036,75.421463 140.566376,81.767021 
	C142.177658,86.532959 144.296921,91.951973 144.370880,97.449982 
	C144.389725,98.850296 144.637863,100.190178 146.382751,100.388550 
	C147.303650,100.493233 147.902557,99.931282 148.326248,99.130768 
	C149.699982,96.535248 148.568787,83.345665 146.263168,81.435860 
	C144.041611,79.595695 143.429443,77.615974 143.617493,75.007629 
	C143.700592,73.855247 143.466522,72.794861 142.748398,71.731720 
	C140.094421,67.802689 137.590027,63.772614 134.516922,59.489105 
M217.895538,66.828819 
	C220.692612,67.856171 219.617386,70.985245 220.943130,72.611542 
	C227.323944,80.438965 227.366119,90.036209 228.161987,99.205185 
	C228.721481,105.651047 228.463593,112.174294 226.799454,118.830002 
	C225.615067,123.566940 224.064133,128.510880 222.654083,133.025848 
	C220.769455,139.060425 216.230652,144.611649 211.160507,149.240295 
	C206.996582,153.041656 204.741608,159.340057 197.496384,158.774139 
	C197.008102,158.736008 196.280701,159.842865 195.908340,160.546265 
	C193.354996,165.369476 187.030045,163.197952 183.902771,167.040710 
	C183.458191,167.586990 182.326538,167.017258 181.819809,166.230881 
	C181.184097,165.244339 180.324341,164.641556 179.524612,165.846405 
	C178.093155,168.002945 175.921326,167.507202 174.089264,167.305298 
	C165.777771,166.389374 157.384491,169.099884 148.958130,164.807404 
	C145.249878,162.918381 141.234406,160.415955 136.659470,159.908234 
	C136.398209,160.927139 135.103821,161.457397 134.166000,162.295654 
	C136.069504,165.207230 138.250397,167.382309 142.106552,166.716644 
	C142.780441,166.600311 143.665100,167.109055 144.314026,167.538300 
	C149.490891,170.962631 155.063904,172.276154 161.314926,171.733566 
	C166.439514,171.288742 171.633789,171.680206 176.795975,171.611511 
	C178.093384,171.594223 179.909973,171.706268 180.591858,170.950439 
	C183.808777,167.384583 188.501465,168.088013 192.383621,166.936905 
	C198.454163,165.136902 203.676483,162.721024 207.643585,157.755142 
	C208.846725,156.249100 210.366776,154.979889 211.463440,153.408066 
	C215.256332,147.971786 220.788528,144.095261 223.435959,137.468399 
	C226.809753,129.023407 230.765778,120.929733 230.653809,111.569756 
	C230.584091,105.741203 230.097275,99.852768 230.741455,94.096832 
	C231.563370,86.752563 227.856567,80.668594 226.194168,74.054794 
	C224.310577,66.560936 218.977234,60.719582 214.370300,54.816418 
	C209.862198,49.039898 204.535263,43.995098 197.323547,40.776016 
	C193.959686,39.274498 190.462524,39.165699 187.354599,37.654545 
	C181.777298,34.942688 175.988586,32.690510 169.841751,32.501041 
	C164.273178,32.329399 158.890640,32.633770 153.120010,34.630459 
	C147.471756,36.584808 141.761703,37.964058 136.500748,41.129833 
	C134.584229,42.283085 132.557251,42.911465 133.720200,45.238770 
	C134.931244,47.662277 137.755280,47.132019 139.456985,46.077354 
	C146.267136,41.856674 153.525467,40.031620 161.497787,40.603745 
	C163.399490,40.740219 165.964493,41.547085 167.150940,39.698086 
	C169.497650,36.040905 170.990936,38.537338 172.521027,40.283257 
	C173.846985,39.179882 174.804947,36.723957 176.201065,38.100510 
	C180.416092,42.256409 186.627655,40.280354 191.149673,43.629890 
	C195.107559,46.561569 200.243561,48.118378 203.965073,51.065914 
	C209.188660,55.203140 213.037766,61.075783 217.895538,66.828819 
M83.458359,223.312973 
	C80.958260,224.229614 80.288940,218.728195 77.094276,221.683472 
	C77.547951,222.618454 77.805260,223.837967 78.545525,224.567291 
	C85.651581,231.568283 93.596985,237.462830 103.177689,240.468124 
	C105.946861,241.336761 107.535645,244.466415 111.089050,243.758316 
	C113.541771,243.269562 115.935730,243.605515 118.268791,245.827164 
	C120.132256,247.601639 124.225975,247.826553 126.013802,245.529526 
	C128.604126,242.201340 129.863754,243.955261 131.774643,246.348022 
	C132.911819,243.168503 135.405106,243.738556 137.683640,243.631561 
	C139.472870,243.547546 141.551102,244.233078 142.942841,242.758026 
	C145.983826,239.534988 150.537857,239.450531 154.163788,238.157349 
	C160.424469,235.924500 165.731598,233.269791 169.836639,228.077698 
	C171.238113,226.305084 170.878555,224.101624 172.601547,222.082336 
	C177.339828,216.529327 183.647614,212.071716 185.890533,204.468201 
	C186.623932,201.982025 185.513535,198.868515 187.043793,197.274628 
	C191.479019,192.654968 188.997635,187.244354 189.568878,182.217728 
	C189.743622,180.680069 189.986237,178.489990 187.407578,178.643158 
	C185.411453,178.761749 185.446243,180.568756 185.374863,182.079651 
	C185.265198,184.400436 186.101837,187.608292 184.894485,188.878128 
	C181.157578,192.808487 182.283020,198.257370 179.566635,202.567184 
	C176.990631,206.654266 174.349289,210.791946 171.984512,215.056885 
	C170.695969,217.380844 168.094574,218.731964 167.831665,221.987839 
	C167.718124,223.393845 166.718781,225.884399 164.310852,226.289200 
	C156.845505,227.544266 152.663986,234.538254 145.092621,236.561142 
	C138.676178,238.275467 131.817276,237.984283 125.591118,241.174774 
	C121.158974,243.445938 116.709282,238.808426 112.211685,238.560059 
	C107.108368,238.278214 103.508156,235.503036 99.354454,233.447006 
	C93.851425,230.723068 88.617943,227.681839 83.458359,223.312973 
M146.785858,116.304420 
	C147.436874,117.255531 147.974060,118.603523 149.297165,118.478798 
	C155.996643,117.847282 158.533600,124.372040 163.486176,126.882698 
	C167.953171,129.147202 169.886002,134.913361 172.887009,139.137192 
	C175.782440,143.212387 178.323120,147.106613 179.262634,151.876083 
	C179.835678,154.785202 181.601883,154.629547 183.637009,154.605011 
	C186.098175,154.575348 186.480377,153.008652 186.675262,150.946411 
	C187.209198,145.296646 182.183182,142.310303 180.275238,137.784927 
	C178.451080,133.458267 174.057205,130.099411 170.453171,126.672394 
	C167.078171,123.463150 165.160522,118.830193 160.846603,116.624496 
	C155.983765,114.138123 150.221649,113.541054 145.810852,110.226120 
	C142.568497,107.789330 139.229675,106.800331 135.418823,107.410721 
	C133.291016,107.751541 132.841888,105.689514 131.220596,105.027367 
	C128.451660,109.105217 124.265915,106.783989 120.676918,107.335228 
	C118.812027,107.621658 117.409187,108.042450 117.456367,110.247261 
	C117.492508,111.936096 118.553596,112.708366 120.062042,112.579247 
	C128.969604,111.816750 137.556976,113.427185 146.785858,116.304420 
M113.475624,129.978699 
	C113.186134,128.377502 110.997940,128.300369 110.805244,126.574074 
	C110.183037,121.000160 110.123573,115.622536 108.084366,109.939529 
	C104.703514,100.517548 110.320618,90.863617 110.914665,81.168251 
	C110.940247,80.750603 111.414192,80.353172 111.697807,79.959679 
	C114.704437,75.788101 116.174850,70.852684 118.409554,66.298798 
	C118.941383,65.215027 119.051430,63.540749 117.433243,62.846828 
	C116.058144,62.257141 115.286026,63.056133 114.124695,63.993401 
	C111.806328,65.864441 111.945778,68.666763 110.609955,70.757881 
	C106.192474,77.673103 105.032372,85.560585 103.397591,93.300888 
	C102.750206,96.366096 104.448273,99.958458 100.870087,102.327301 
	C99.985649,102.912834 99.981972,104.713890 100.774887,105.575203 
	C106.026268,111.279633 102.736549,119.029549 105.878044,125.658463 
	C108.652061,131.511948 110.110481,138.067078 114.061714,143.556137 
	C115.073090,144.961136 115.820526,146.191132 117.466408,145.151779 
	C119.191986,144.062119 118.757126,142.376450 118.000755,140.736115 
	C116.479950,137.438004 115.052269,134.096970 113.475624,129.978699 
M64.652649,182.261429 
	C63.296768,163.722794 67.923294,146.788589 78.948311,131.482269 
	C81.258522,131.215302 83.411072,129.586868 85.328873,127.501350 
	C87.670746,124.954666 88.886292,121.157120 93.437035,121.109787 
	C94.777489,121.095848 94.919876,118.977898 94.269180,117.726700 
	C93.385551,116.027603 91.046227,115.936852 90.491005,116.987221 
	C88.422340,120.900688 84.003624,121.596779 81.309662,124.348076 
	C76.862206,128.890167 72.846855,133.682602 69.477104,139.370819 
	C65.853058,145.488342 65.466400,152.288116 62.845036,158.521500 
	C60.439907,164.240692 62.572903,171.693283 59.488010,177.993073 
	C58.853416,179.289001 58.845753,181.454681 60.024410,182.781525 
	C64.265495,187.555786 62.676590,194.022522 64.781708,199.575424 
	C66.815491,204.940186 69.715836,210.186523 71.202049,215.890213 
	C71.458405,216.874069 73.572144,220.590805 76.945404,219.213760 
	C77.744560,217.401260 78.041054,215.687119 76.413559,214.181656 
	C72.642944,210.693817 72.460068,204.652390 67.632217,201.869370 
	C67.090637,201.557144 66.720680,200.428299 66.761963,199.706207 
	C67.084572,194.062637 66.278053,188.581635 64.652649,182.261429 
M76.532570,153.894165 
	C77.127655,157.540161 84.418098,159.667313 87.859680,156.654205 
	C89.926895,154.844345 91.856888,154.685394 94.143173,154.664978 
	C96.806404,154.641190 99.480484,154.795975 102.130760,154.606323 
	C105.832832,154.341415 106.930618,152.246674 106.199478,148.662277 
	C105.129158,143.415009 101.473793,139.412155 99.734825,134.526932 
	C98.465294,130.960526 94.716911,129.834549 92.425819,132.962524 
	C87.390327,139.837372 79.259079,144.324203 76.532570,153.894165 
M142.760361,133.102829 
	C143.625244,132.153610 143.674866,130.960861 143.582703,129.808212 
	C143.450500,128.154755 144.449219,125.901718 141.581100,125.502029 
	C138.749115,125.107391 138.739349,127.012596 138.085648,129.078751 
	C136.649704,133.617264 135.253586,138.154968 130.862000,141.275589 
	C128.532593,142.930832 125.573395,145.300430 125.574806,148.582047 
	C125.576157,151.725800 123.198372,153.957047 121.738647,154.309479 
	C116.752930,155.513199 114.410759,160.109161 109.777664,162.098389 
	C102.065475,165.409668 94.729607,168.132858 86.270172,167.407898 
	C82.968155,167.124908 79.619278,167.358704 76.292503,167.408386 
	C74.842102,167.430023 73.538994,167.923782 73.563187,169.630859 
	C73.588669,171.429092 75.018845,171.625183 76.422760,171.626190 
	C82.079330,171.630280 87.736565,171.658707 93.391823,171.568848 
	C94.314705,171.554214 95.692162,171.263351 96.066078,170.630997 
	C97.609032,168.021683 100.012009,168.807678 102.254005,168.580750 
	C107.076416,168.092682 113.558784,168.208511 115.933556,165.058487 
	C119.357376,160.516937 126.139763,159.066360 127.190636,152.592911 
	C127.257240,152.182602 128.570969,151.921143 129.334091,151.686752 
	C132.656876,150.666092 134.737320,148.738937 135.779678,145.174164 
	C137.023849,140.919159 137.944458,136.271637 142.760361,133.102829 
M156.647797,134.317276 
	C155.005829,134.618286 154.655380,132.042648 153.938583,132.257721 
	C149.815063,136.951004 149.936264,142.899399 145.652557,146.637299 
	C143.770676,148.279404 143.894241,150.056610 145.990219,151.590256 
	C151.950562,155.951492 158.545258,158.197342 165.990417,157.650284 
	C167.598206,157.532135 169.653717,158.055405 170.279449,156.023865 
	C170.904160,153.995621 171.212387,151.737122 169.786102,149.820007 
	C169.225220,149.066101 168.020386,148.837234 167.879074,147.677078 
	C167.077469,141.095749 161.824692,138.051941 156.647797,134.317276 
M117.342392,92.472595 
	C116.854233,96.259644 118.221481,98.155670 122.318733,97.672516 
	C124.285706,97.440575 126.341385,97.387955 128.289093,97.690514 
	C131.825470,98.239868 133.353271,95.427887 135.034622,93.505356 
	C136.564468,91.756065 135.222931,89.920197 133.284943,88.623680 
	C132.712189,88.240509 132.791107,86.787064 132.689514,85.811775 
	C132.144058,80.575058 129.750458,76.264885 125.884781,72.137047 
	C121.110092,77.940102 118.354660,84.373886 117.342392,92.472595 
M125.728516,133.099365 
	C128.842682,130.582428 130.092575,127.127472 130.676086,123.263405 
	C127.431580,121.866638 124.334984,122.155022 120.811340,123.863609 
	C122.714691,125.698418 122.218719,127.759674 122.326462,129.713135 
	C122.428635,131.565475 122.297119,133.568710 125.728516,133.099365 
z"/>
</svg>