<svg version="1.1" id="Layer_1" xmlns="http://www.w3.org/2000/svg" xmlns:xlink="http://www.w3.org/1999/xlink" x="0px" y="0px"
	 width="100%" viewBox="0 0 240 256" enable-background="new 0 0 240 256" xml:space="preserve">
<path fill="#000000" opacity="1.000000" stroke="none" 
	d="
M241.000000,225.531342 
	C237.048569,225.143860 233.102097,224.320740 229.717651,228.013748 
	C225.150803,224.856064 220.823471,223.732864 215.972366,227.888535 
	C214.370926,229.260391 210.937897,229.239929 208.649460,227.013809 
	C206.255905,224.685440 203.642090,224.521530 201.343704,227.095749 
	C199.548676,229.106155 197.316742,228.341873 195.277847,228.343796 
	C139.614578,228.396149 83.951241,228.387695 28.287922,228.394669 
	C25.455080,228.395020 22.622065,228.429962 19.789438,228.470383 
	C14.196834,228.550140 10.907183,223.875198 13.425686,218.968842 
	C14.555774,216.767303 14.172339,215.333603 13.519893,213.081223 
	C12.487390,209.516800 12.681898,205.543442 12.677971,201.742798 
	C12.636122,161.245285 12.672267,120.747688 12.626410,80.250183 
	C12.623552,77.725327 13.545148,74.840210 10.584431,73.009323 
	C9.665854,72.441284 9.596565,71.234337 10.265935,70.338226 
	C14.217510,65.048119 12.706742,60.289452 10.462089,54.492142 
	C8.118259,48.438694 8.879634,41.242867 10.283303,34.792057 
	C10.925877,31.838995 14.502796,30.507223 18.334578,30.528725 
	C49.831650,30.705456 81.330177,30.622894 112.828270,30.616385 
	C140.993240,30.610563 169.158447,30.653372 197.322830,30.519129 
	C200.377823,30.504568 204.131393,31.918821 206.262985,27.987865 
	C206.441147,27.659332 207.817368,27.488213 208.059982,27.759649 
	C212.780090,33.040699 218.951736,30.349308 224.403214,30.477125 
	C239.374435,30.828146 239.371368,30.576338 239.367203,45.378666 
	C239.361633,65.210800 239.352570,85.042992 239.405457,104.874985 
	C239.410583,106.797501 238.735886,108.912247 240.687469,110.794006 
	C241.000000,149.020889 241.000000,187.041794 241.000000,225.531342 
M171.558929,172.795349 
	C170.113892,172.224503 168.729767,172.093536 167.312836,170.797134 
	C164.395325,168.127808 162.465195,164.720352 159.732224,161.929474 
	C157.703659,159.857895 154.735626,161.058456 152.909531,158.427460 
	C150.308243,154.679520 146.548004,151.757538 143.665329,148.174957 
	C142.014908,146.123825 140.296677,145.341705 137.777710,145.363937 
	C128.615402,145.444839 119.450951,145.463089 110.289528,145.339783 
	C107.787025,145.306107 105.779053,145.941086 104.335411,148.031479 
	C102.365166,147.101776 101.303856,145.242676 98.973366,145.328720 
	C93.149979,145.543747 87.314232,145.414047 81.483643,145.452438 
	C80.321999,145.460083 79.143158,145.501022 78.402283,146.683624 
	C76.532455,149.668350 73.547295,148.565323 71.178879,148.136383 
	C67.097206,147.397186 63.424171,148.854919 62.593922,153.034973 
	C61.450100,158.793747 55.918762,161.701477 54.228512,166.966965 
	C52.337997,172.856323 46.475071,176.238373 44.828503,182.505280 
	C44.281998,184.585297 43.704201,187.115692 42.373230,189.260147 
	C39.459503,193.954773 36.378769,198.726807 34.597832,203.891861 
	C32.860176,208.931412 28.555864,212.448380 27.759096,217.870163 
	C30.481291,219.413498 33.669456,218.666672 36.896782,218.658798 
	C79.545929,218.554779 122.195488,218.598083 164.844879,218.647781 
	C167.554062,218.650940 170.188095,218.793655 171.641479,215.933807 
	C175.671738,219.393799 179.838516,219.712601 183.742493,216.781540 
	C185.057785,215.794037 185.874832,215.638580 187.140289,216.692307 
	C190.753159,219.700760 194.389908,219.968689 197.881332,216.445999 
	C199.091660,215.224869 200.206573,215.298340 201.167786,216.669281 
	C203.292297,219.699310 206.207947,219.393631 208.265747,217.339066 
	C210.962753,214.646301 213.118073,215.649643 215.661774,217.208527 
	C216.704681,214.355774 216.699097,212.425995 214.328552,209.684021 
	C210.178513,204.883682 206.198349,200.357010 200.615356,196.969925 
	C195.330719,193.763840 191.900620,188.205978 186.759216,184.345139 
	C181.893478,180.691315 177.012177,176.854630 171.558929,172.795349 
M209.723114,191.644043 
	C210.355774,191.814484 211.248886,191.775040 211.581268,192.187469 
	C215.359360,196.875381 219.126251,201.346451 224.666489,204.380997 
	C226.748428,205.521332 228.438858,207.044571 230.681717,206.312180 
	C233.378189,205.431656 232.493073,202.739197 232.640076,200.685120 
	C232.746841,199.193649 232.623337,197.687256 232.677094,196.190186 
	C234.108551,156.334503 230.600220,116.562675 230.654129,76.730545 
	C230.666534,67.570732 230.654755,58.410892 230.643600,49.251080 
	C230.642181,48.086685 230.741119,46.888115 230.507141,45.765053 
	C229.998978,43.326122 227.948151,42.650391 226.399826,44.003807 
	C219.805161,49.768349 210.969360,51.038086 203.925171,55.604015 
	C200.896072,57.567425 196.637207,57.616562 194.704193,61.205288 
	C193.309937,63.793785 191.530716,65.015060 188.366211,64.511330 
	C185.568161,64.065926 182.787155,64.636002 180.985916,67.361580 
	C179.447571,69.689354 177.342087,70.934715 174.420364,70.681007 
	C173.476562,70.599045 172.568115,70.952950 171.641861,71.501671 
	C166.835800,74.348785 161.858398,76.909996 157.087311,79.811821 
	C152.745270,82.452690 146.410049,83.296219 146.371628,90.253876 
	C146.289810,105.075668 146.342743,119.898247 146.360153,134.720474 
	C146.361679,136.025269 146.130890,137.493073 147.483795,138.348007 
	C151.566330,140.927856 154.125549,145.053162 156.970398,148.664108 
	C158.944412,151.169739 162.485550,148.615585 163.535950,152.021774 
	C164.598526,155.467316 167.369400,157.060913 171.279648,157.192123 
	C170.919189,160.469421 171.837692,162.442780 175.278107,163.044388 
	C176.785980,163.308060 177.912888,165.392776 179.355972,166.456268 
	C182.773239,168.974609 185.761673,172.326309 189.939056,173.455429 
	C191.912277,173.988754 192.800278,175.081421 194.119934,176.311142 
	C199.327545,181.163925 202.708649,187.786591 209.723114,191.644043 
M45.508232,40.406490 
	C39.582039,40.689648 33.566811,39.612415 27.757561,41.376968 
	C29.721926,45.962193 34.294159,47.482567 37.502857,50.489086 
	C42.352142,55.032818 46.367157,60.528599 51.481689,64.708145 
	C55.604736,68.077461 60.310665,70.799118 63.141884,75.413376 
	C64.793854,78.105721 66.762207,78.706779 69.668625,78.691460 
	C90.659378,78.580879 111.651108,78.556160 132.641968,78.642769 
	C137.650497,78.663429 142.625427,79.171120 145.503342,73.746399 
	C145.763916,73.255264 146.529602,72.796928 147.100845,72.742188 
	C152.793304,72.196648 157.077026,68.172379 161.531616,65.560989 
	C167.103363,62.294685 173.103241,60.446957 178.787888,57.749123 
	C180.708801,56.837498 181.393326,53.970875 184.071762,54.594856 
	C188.360321,55.593937 191.418793,52.426804 194.021667,50.411983 
	C199.151123,46.441406 203.553085,41.670052 210.859177,41.828705 
	C210.771698,41.354206 210.684219,40.879711 210.596756,40.405212 
	C155.899719,40.405212 101.202690,40.405212 45.508232,40.406490 
M48.009758,157.291977 
	C55.226639,152.008331 57.858994,143.881439 58.371147,135.933563 
	C59.333572,120.998108 58.624458,105.956573 58.678257,90.959396 
	C58.687550,88.368744 58.056110,86.597427 55.976036,84.572838 
	C51.929638,80.634369 48.037918,76.321915 44.750889,71.787354 
	C38.626602,63.338703 29.504116,58.410675 22.451580,51.135380 
	C21.056406,49.696140 19.040382,49.670799 18.631731,51.909561 
	C18.140347,54.601582 17.203777,57.980331 19.387375,60.016937 
	C21.515377,62.001682 21.328295,64.074760 21.331596,66.315987 
	C21.372820,94.310982 21.279589,122.306511 21.421148,150.300903 
	C21.512468,168.360092 20.763912,186.437698 22.183739,205.847046 
	C22.820568,202.522598 23.763975,200.537903 25.229124,199.450287 
	C32.364269,194.153671 32.483574,185.095764 36.908134,178.461243 
	C40.137516,173.618851 41.860699,167.991989 45.297874,163.462891 
	C46.714386,161.596359 47.431995,159.997589 48.009758,157.291977 
M80.098503,135.910782 
	C82.353577,138.628372 85.263489,140.159332 88.088608,137.468903 
	C89.998993,135.649597 91.849724,135.674805 93.940758,135.666397 
	C105.927429,135.618118 117.915825,135.502151 129.900360,135.658905 
	C134.742950,135.722244 137.048706,134.386032 137.284515,128.936920 
	C137.796173,117.114716 137.294739,105.299759 137.680466,93.492165 
	C137.809372,89.545670 136.313461,88.307587 132.435638,88.334587 
	C112.625069,88.472549 92.811905,88.494301 73.002190,88.299316 
	C68.624702,88.256233 67.093323,89.653069 67.299904,94.033112 
	C67.960091,108.030762 65.564651,122.224129 70.339836,135.954269 
	C71.285156,138.672348 72.588844,139.469589 74.389053,137.256973 
	C75.879059,135.425613 77.516022,135.759201 80.098503,135.910782 
z"/>
</svg>