<svg version="1.1" id="Layer_1" xmlns="http://www.w3.org/2000/svg" xmlns:xlink="http://www.w3.org/1999/xlink" x="0px" y="0px"
	 width="100%" viewBox="0 0 240 288" enable-background="new 0 0 240 288" xml:space="preserve">
<path fill="#000000" opacity="1.000000" stroke="none" 
	d="
M122.159546,282.246765 
	C118.598213,280.768524 118.540649,277.179718 117.127792,274.732758 
	C113.434196,268.335724 110.851173,261.287262 108.787567,254.080551 
	C106.960976,247.701599 104.929237,241.295654 102.106209,235.318100 
	C100.243401,231.373779 100.957344,226.870132 98.105072,222.982452 
	C96.953148,221.412399 95.449066,218.891541 94.414459,216.665131 
	C90.752251,208.784363 90.505836,199.696259 84.469482,192.501480 
	C81.239639,188.651794 80.349892,182.614777 79.084496,177.399780 
	C77.626129,171.389511 73.310669,166.797150 71.798866,160.802994 
	C70.287529,154.810699 69.795876,149.699310 74.143951,144.264893 
	C77.335136,140.276428 79.866348,135.151398 80.448997,129.916214 
	C81.013039,124.848122 84.612770,121.196579 85.602554,116.816025 
	C87.004616,110.610832 91.156784,105.328491 91.432266,99.095947 
	C91.628387,94.658684 93.941628,91.247131 95.860115,88.122307 
	C99.603249,82.025452 100.762383,75.346840 102.639000,68.782661 
	C104.103104,63.661434 105.967751,58.676346 107.703194,53.666851 
	C109.635361,48.089489 113.312935,43.080002 113.658966,36.956367 
	C113.850082,33.574299 116.563347,31.344963 117.759476,28.368134 
	C118.664436,26.115934 124.938103,29.331087 125.141541,32.888046 
	C125.442604,38.151699 127.917717,42.209591 130.737366,46.308247 
	C131.931976,48.044731 131.845764,50.319180 132.702148,52.336044 
	C135.361588,58.599342 138.685165,64.490509 141.643219,70.566841 
	C143.773376,74.942551 144.626190,80.074165 147.368835,84.258232 
	C152.478867,92.053864 152.734482,101.626488 157.393936,109.851341 
	C160.027573,114.500214 161.548355,120.818077 163.497009,126.377228 
	C165.394348,131.790024 168.197327,137.012405 171.357864,141.822128 
	C175.026688,147.405380 174.844650,157.183258 171.309021,163.271042 
	C167.939774,169.072403 164.005890,174.687225 163.073029,181.824173 
	C162.672424,184.889099 161.360931,188.155899 159.458389,191.166351 
	C157.619431,194.076157 157.532074,198.132767 155.409302,201.221405 
	C151.379944,207.084152 151.103271,214.359924 148.354187,220.801910 
	C146.215073,225.814514 143.774246,231.145798 142.477112,236.641876 
	C141.178787,242.142914 138.085419,247.033569 135.412521,251.579071 
	C133.011398,255.662399 134.167007,260.074799 131.590607,263.862457 
	C129.552841,266.858276 128.549683,270.689911 126.293648,273.702332 
	C124.807571,275.686707 125.578102,277.876526 125.274956,279.958160 
	C125.034325,281.610504 124.136185,282.240143 122.159546,282.246765 
M141.555206,92.849304 
	C140.639252,91.962715 139.154327,91.213928 138.900742,90.166916 
	C137.383698,83.903419 133.253067,78.850502 131.153610,72.861847 
	C130.253464,70.294235 132.004318,66.759972 129.805511,65.240623 
	C123.698380,61.020679 125.259071,53.112900 120.399330,48.310585 
	C115.050591,50.578304 118.436089,57.361835 114.703102,61.188385 
	C113.327530,62.598427 110.935448,65.344025 111.206696,68.867188 
	C111.731667,75.685982 107.598816,81.703728 105.185028,87.505058 
	C102.620125,93.669579 101.516083,100.305717 98.873886,106.449257 
	C97.422066,109.824982 96.095505,113.977310 94.601402,117.508667 
	C91.896782,123.901100 88.419434,129.937592 87.357376,136.938171 
	C87.259727,137.581818 87.252312,138.461563 86.844467,138.801392 
	C82.703491,142.251801 83.911217,147.792068 81.645393,152.133789 
	C79.385681,156.463806 80.615814,161.584641 83.569244,166.475327 
	C84.997643,168.840668 87.230164,171.672806 87.368088,175.081787 
	C87.615219,181.189621 90.642693,186.833908 93.422546,191.632492 
	C97.801796,199.192001 101.362770,206.835190 103.129395,215.227905 
	C103.688034,217.881836 106.478882,218.761276 106.382629,221.626358 
	C106.167862,228.019669 110.234589,233.181656 112.461327,238.748917 
	C114.195831,243.085510 114.775429,247.780243 116.989693,252.063202 
	C118.288559,254.575516 118.103577,257.823883 121.254921,259.292084 
	C122.622925,257.571442 123.794044,255.293060 124.996620,253.992676 
	C128.494888,250.209885 127.226372,245.167999 129.900330,241.042908 
	C132.410950,237.169815 134.498856,232.125443 135.333878,227.375961 
	C135.920975,224.036560 137.018158,221.481812 139.189728,219.353378 
	C140.565765,218.004654 141.409607,216.808899 141.770752,214.845566 
	C142.785309,209.329941 145.606720,204.304489 147.463882,199.099289 
	C149.319077,193.899643 150.122345,188.364716 152.161179,183.623276 
	C154.649017,177.837631 157.372269,172.416565 158.831055,166.108795 
	C159.761932,162.083740 162.096909,158.307907 162.771286,153.883316 
	C164.050201,145.492477 159.030685,138.720978 156.577301,131.677185 
	C154.378998,125.365746 151.583847,119.002686 149.882233,112.446411 
	C149.196518,109.804329 146.229248,108.857109 146.538055,105.628433 
	C146.983627,100.969917 143.328720,97.519577 141.555206,92.849304 
z"/>
</svg>