<svg version="1.1" id="Layer_1" xmlns="http://www.w3.org/2000/svg" xmlns:xlink="http://www.w3.org/1999/xlink" x="0px" y="0px"
	 width="100%" viewBox="0 0 240 256" enable-background="new 0 0 240 256" xml:space="preserve">
<path fill="#000000" opacity="1.000000" stroke="none" 
	d="
M26.778431,159.502731 
	C28.028111,157.139130 29.493299,155.447006 31.040794,153.731369 
	C37.135235,146.974747 41.314587,138.856979 46.395199,131.399826 
	C50.613308,125.208588 54.152611,118.199066 59.653290,113.155724 
	C63.675472,109.467964 64.640640,104.163689 68.465981,100.662613 
	C69.182648,100.006699 69.737625,98.320160 70.208649,98.378975 
	C76.421982,99.154877 79.260414,93.291359 84.147171,91.364639 
	C88.656242,89.586830 92.738838,86.582870 97.081245,84.235046 
	C98.569099,83.430611 99.826645,82.711372 101.502106,82.582420 
	C102.628815,82.495697 104.455650,82.442741 104.734024,81.821327 
	C107.095695,76.549484 111.553642,76.483971 116.338448,76.400650 
	C118.678040,76.359917 120.240562,74.000717 122.711357,73.197365 
	C128.988083,71.156532 134.895599,67.810829 139.970673,63.559280 
	C142.533966,61.411926 146.237991,61.872192 148.299591,58.907887 
	C148.804794,58.181480 150.860199,58.396534 151.948257,59.463009 
	C154.721848,62.181583 158.821854,62.702511 161.360809,66.490150 
	C162.699142,68.486694 167.606461,69.431236 170.411926,71.238800 
	C172.401749,72.520844 174.301010,74.607536 176.211334,73.396957 
	C179.943451,71.031906 184.485748,70.084610 187.490494,66.332153 
	C191.323425,61.545418 196.362656,58.137962 201.861923,55.345917 
	C203.674515,54.425629 205.147629,52.678894 206.525497,51.092499 
	C209.522202,47.642220 211.876450,45.973263 217.310593,43.964176 
	C218.817459,44.800282 218.325851,46.273060 218.331879,47.520092 
	C218.369736,55.349548 218.634933,63.192970 218.258072,71.004425 
	C217.975754,76.856148 220.223557,83.030861 215.939865,88.564766 
	C214.845123,89.979027 215.434937,92.772522 215.419617,94.933525 
	C215.365265,102.596245 214.941925,110.293159 215.522522,117.911270 
	C215.945175,123.457016 213.078522,127.412819 210.543839,131.482361 
	C209.317459,133.451324 209.265701,135.525818 208.562225,137.458633 
	C206.372391,143.475082 200.507706,147.522110 199.126694,153.426071 
	C197.385376,160.870422 189.930008,165.188843 189.885574,173.568695 
	C189.866043,177.254623 185.540939,180.428146 184.025818,184.366531 
	C180.882599,192.536972 173.565903,198.192322 170.923630,206.990982 
	C169.974991,210.149887 166.674530,215.094376 160.352097,214.616837 
	C151.754852,213.967499 143.055862,214.689117 134.400055,214.782303 
	C129.345398,214.836716 126.758888,212.776169 124.112396,207.793350 
	C120.473122,200.941345 118.297203,193.507339 114.532318,186.726273 
	C112.721962,183.465561 111.237373,180.282455 108.356026,177.860519 
	C107.677788,177.290421 107.528664,176.152985 108.095490,175.581192 
	C111.351181,172.297012 111.686295,166.825806 116.404205,164.642990 
	C119.881416,163.034195 117.248482,158.391190 121.141792,156.408035 
	C117.864510,155.390884 116.287567,156.226944 113.701088,157.406525 
	C107.049965,160.439835 101.201797,165.192749 92.663643,164.713043 
	C75.060173,163.723999 57.363419,164.386322 39.705044,164.389816 
	C35.609650,164.390625 31.453182,163.888779 27.699932,165.961792 
	C26.163353,163.896667 26.819082,161.852142 26.778431,159.502731 
M135.859619,204.633682 
	C143.186386,204.634735 150.513779,204.577515 157.839661,204.658905 
	C162.158234,204.706879 164.823425,202.308075 165.499039,198.520065 
	C166.804718,191.199326 171.565277,185.700729 175.864349,180.544479 
	C181.292877,174.033600 184.387619,166.334747 189.166718,159.589279 
	C189.674347,158.872787 189.670120,157.645233 189.582809,156.683899 
	C189.337173,153.979691 190.359985,152.064056 192.380798,150.241730 
	C193.976669,148.802628 195.243744,147.173111 195.933273,144.666641 
	C197.348068,139.523682 200.103073,134.786392 202.535355,129.966187 
	C204.538422,125.996620 207.230301,122.076927 206.819046,116.831367 
	C206.209702,109.058739 205.335800,100.849449 207.151779,93.459366 
	C209.443802,84.132011 208.008636,75.021065 208.523590,65.843048 
	C208.684372,62.977394 207.156006,61.993767 204.393219,64.124573 
	C198.371307,68.768982 193.104172,74.385368 186.374268,78.123680 
	C185.162048,78.797058 185.512741,80.152863 185.364746,81.285034 
	C184.647202,86.773918 184.588623,92.193161 183.215195,97.805275 
	C181.641281,104.236671 179.273529,111.112007 179.447205,118.070236 
	C179.573044,123.112556 176.340286,126.822075 172.794800,127.921791 
	C167.390457,129.598083 162.551956,131.988602 157.694153,134.656815 
	C151.506180,138.055649 145.049789,140.995605 139.038956,144.672562 
	C136.641083,146.139389 134.044754,147.214783 132.651215,151.090530 
	C131.383377,154.616623 128.748337,158.723434 126.690453,162.301407 
	C124.387718,166.305038 122.469002,170.617661 119.710480,174.537918 
	C118.683441,175.997482 119.418785,178.403275 120.618690,180.552170 
	C123.501717,185.715302 126.065704,191.086899 128.618912,196.441528 
	C130.026657,199.393875 128.664993,205.259369 135.859619,204.633682 
M98.915176,154.603317 
	C104.263771,152.887314 108.557533,149.150803 113.650826,146.919647 
	C116.398048,145.716217 119.069412,142.720215 121.583969,142.921341 
	C128.050934,143.438583 130.086945,138.138382 132.075485,134.712952 
	C135.463364,128.877106 138.200363,122.388985 141.486557,116.544151 
	C146.337631,107.916016 148.938782,98.365990 154.061783,89.841637 
	C156.583313,85.645966 157.956589,82.229362 163.325775,82.486427 
	C164.426147,82.539101 165.219482,81.789268 165.270660,80.625969 
	C165.323944,79.415344 165.051544,78.045906 163.771332,77.744576 
	C157.883591,76.358757 153.917007,71.819557 148.696884,68.504242 
	C147.421066,71.615967 143.941391,70.577240 142.181931,72.221878 
	C137.945999,76.181396 132.345047,77.501717 127.615036,80.478729 
	C122.941208,83.420380 116.964348,84.697128 112.685432,87.454727 
	C105.258553,92.241089 96.305809,93.259628 89.385956,98.719208 
	C85.953598,101.427254 81.885139,103.695068 78.719551,106.361755 
	C74.897896,109.581108 70.468140,112.647118 67.911491,117.958351 
	C65.153130,123.688629 59.828800,128.147949 55.999973,133.568359 
	C51.277237,140.254288 46.323002,146.929184 41.278141,154.608887 
	C60.496414,154.608887 79.259079,154.608887 98.915176,154.603317 
M172.404907,102.988487 
	C174.562698,97.704559 173.436890,92.387886 172.927277,86.248085 
	C171.321075,88.232918 169.868042,89.059242 168.456558,89.955780 
	C163.991821,92.791687 159.997223,96.251213 158.228012,101.788445 
	C157.095352,105.333389 155.936295,109.055779 152.803116,111.740952 
	C151.063583,113.231758 149.796066,115.013412 149.022995,117.659462 
	C148.157791,120.620956 148.138885,124.226830 144.527756,127.261467 
	C154.231049,127.275795 159.683090,120.411385 166.390030,118.090820 
	C168.892487,113.244080 170.755508,108.558617 172.404907,102.988487 
z"/>
</svg>