<svg version="1.1" id="Layer_1" xmlns="http://www.w3.org/2000/svg" xmlns:xlink="http://www.w3.org/1999/xlink" x="0px" y="0px"
	 width="100%" viewBox="0 0 256 288" enable-background="new 0 0 256 288" xml:space="preserve">
<path fill="#000000" opacity="1.000000" stroke="none" 
	d="
M126.545891,1.000000 
	C127.890472,3.612598 126.896736,5.695589 125.421234,7.842185 
	C124.209518,9.605012 122.652916,9.280097 121.049606,9.258053 
	C119.027946,9.230258 118.581131,7.818071 118.685989,6.231165 
	C118.807976,4.384943 117.027061,3.424452 116.926903,1.382288 
	C120.030594,1.000000 123.061188,1.000000 126.545891,1.000000 
z"/>
<path fill="#000000" opacity="1.000000" stroke="none" 
	d="
M200.683945,17.602230 
	C204.738800,14.998678 209.217194,13.571192 211.910172,9.641223 
	C212.804947,8.335482 214.305191,8.625029 215.591339,8.851386 
	C217.361450,9.162919 217.391205,10.716881 217.280640,12.001397 
	C216.798004,17.609011 215.681519,22.944136 213.294037,28.233835 
	C210.773148,33.819168 206.926132,39.084587 207.307663,45.830692 
	C207.474945,48.788609 204.675735,50.930382 203.570801,53.683327 
	C202.023712,57.537971 200.002991,61.451012 197.921783,65.131424 
	C195.715607,69.032867 197.087189,73.707863 193.905838,77.539612 
	C192.732834,78.952400 191.340347,81.699005 190.281403,83.945282 
	C187.725571,89.366714 186.692825,95.150101 185.466690,100.892220 
	C185.074585,102.728508 183.007248,102.440392 182.528961,104.000465 
	C180.851440,109.472191 179.747299,115.255295 177.179337,120.283813 
	C174.032791,126.445290 174.286407,133.996246 169.087067,139.234421 
	C167.931885,140.398239 168.357590,142.085938 168.370972,143.553818 
	C168.416718,148.576874 167.098053,153.019806 164.251099,157.311188 
	C162.285385,160.274261 161.885925,164.314316 160.945511,167.669952 
	C159.014954,174.558548 154.334946,180.361786 153.115555,186.926880 
	C151.834793,193.822525 146.430435,199.329041 147.342041,206.623474 
	C147.656693,209.141327 144.972977,209.505341 144.345261,211.476517 
	C142.377350,217.656174 140.610748,224.021118 137.617050,229.709534 
	C135.685669,233.379425 136.875290,237.404755 133.960358,241.183945 
	C130.034515,246.273849 129.605911,253.573776 126.320335,259.779449 
	C124.212036,258.506104 122.854385,256.763336 121.356476,254.299438 
	C118.345978,249.347519 118.371117,243.169418 114.393990,238.745392 
	C113.818703,238.105469 113.585556,236.837311 113.719551,235.938187 
	C114.194901,232.748489 112.583389,230.612122 110.432846,228.690414 
	C108.814980,227.244720 108.078117,225.550674 107.397919,223.386307 
	C105.803307,218.312286 102.970718,213.662247 100.732872,208.835495 
	C99.363724,205.882385 97.115089,203.258926 96.545906,199.846024 
	C95.866554,195.772568 92.170151,193.299316 90.612289,189.403717 
	C89.493111,186.605087 87.890610,183.471817 87.003433,180.608429 
	C85.329018,175.204239 81.228821,171.282791 79.322334,166.015274 
	C78.630089,164.102661 77.928978,161.839508 76.957108,159.849411 
	C73.444008,152.655685 70.773430,145.016724 65.767059,138.625977 
	C64.847145,137.451675 64.598755,136.252365 64.685158,134.924393 
	C64.979385,130.402557 62.008900,127.133339 60.041641,123.623802 
	C57.541031,119.162773 56.984180,114.008965 54.350285,109.506157 
	C53.548599,108.135612 57.522354,103.285614 61.089592,101.704308 
	C64.435059,100.221298 67.373985,98.195084 70.411934,96.170067 
	C75.614006,92.702522 79.559891,87.513847 86.515785,86.203224 
	C91.108582,85.337860 95.415771,81.997162 99.359009,79.096214 
	C101.035568,77.862801 102.807129,78.164322 104.276146,77.261169 
	C109.255737,74.199707 113.289093,69.818481 118.554634,67.117096 
	C126.556099,63.012093 133.453232,57.186359 141.532364,53.001862 
	C148.881699,49.195362 156.363617,45.260712 163.211777,40.039974 
	C169.755142,35.051586 176.965515,30.352528 184.492188,26.494526 
	C189.861603,23.742281 195.036575,20.610666 200.683945,17.602230 
M135.560043,212.120621 
	C139.074371,203.666870 142.133072,195.019379 145.605927,186.555283 
	C148.935944,178.439362 153.018127,170.341217 154.749756,161.506256 
	C155.331894,158.536163 156.247635,155.397552 157.893997,152.923630 
	C160.499191,149.008926 158.918259,143.738556 162.453506,140.270493 
	C162.500244,140.224640 161.964600,139.585159 161.682190,139.197205 
	C160.245468,139.891953 159.102036,140.849335 157.941132,141.585876 
	C152.370468,145.120209 145.527496,146.541519 141.148117,152.190109 
	C139.639389,154.136124 136.730621,155.578644 134.389679,156.354858 
	C125.337776,159.356232 118.580406,165.850357 110.908363,170.912247 
	C107.526642,173.143463 104.402000,175.686157 100.304665,176.389694 
	C97.096931,176.940506 96.554428,178.986069 96.788330,181.782913 
	C97.041100,184.805191 99.376534,186.962524 100.123177,189.507904 
	C102.134270,196.363968 107.103111,201.535172 109.595070,208.148239 
	C111.716766,213.778732 115.149551,218.974136 117.497063,224.632324 
	C118.653580,227.419907 119.327240,230.142532 119.531403,233.161972 
	C119.709755,235.799622 122.315277,236.973724 124.318825,238.262650 
	C125.029953,238.720154 126.275200,237.941986 126.236443,237.186142 
	C126.026794,233.097916 128.840622,229.870651 129.384796,226.210648 
	C130.156235,221.022141 133.011353,217.136780 135.560043,212.120621 
M96.093086,91.168152 
	C95.219543,92.362740 94.404366,93.383865 92.680565,93.701309 
	C87.429039,94.668427 83.728416,98.855812 78.653793,100.573463 
	C74.234955,102.069153 71.495628,106.894325 66.941856,108.738670 
	C65.583656,109.288757 65.465126,110.370705 65.382607,111.564804 
	C65.102661,115.615166 65.049019,119.653915 68.718849,122.404167 
	C69.977585,123.347481 70.323807,124.407547 70.326416,125.786880 
	C70.330818,128.115402 71.411240,129.978989 72.287094,132.071426 
	C73.756218,135.581238 76.435883,138.162170 77.898727,141.414413 
	C80.472221,147.135895 82.227760,153.220886 84.452362,159.105835 
	C85.344444,161.465729 87.280853,163.667999 89.539581,163.820938 
	C91.593262,163.959961 93.940475,161.733154 94.374710,159.672760 
	C95.429626,154.667419 97.327209,149.907883 99.880409,145.745071 
	C101.965942,142.344757 101.274933,137.580475 103.453934,135.610260 
	C108.503296,131.044724 106.912529,124.271477 110.420502,119.331909 
	C111.416092,117.930023 113.696846,116.514999 113.353706,114.542831 
	C112.444191,109.315422 116.409035,105.529060 117.233688,100.683014 
	C117.919891,96.650627 117.958008,91.895149 121.033768,87.831955 
	C123.239670,84.917862 124.826248,80.894981 126.134224,77.115654 
	C126.596100,75.781097 126.957802,74.495995 125.764275,73.461807 
	C124.775330,72.604897 123.458725,72.481956 122.678284,73.629318 
	C120.108780,77.406868 115.526909,78.565208 112.471962,81.699036 
	C108.061531,86.223343 101.906425,87.797615 96.093086,91.168152 
M176.876709,42.599823 
	C164.744278,50.274185 152.663208,58.034325 140.130142,64.275452 
	C142.046249,71.614899 145.579758,77.944710 149.193390,84.025238 
	C152.296829,89.247284 154.980225,94.603996 156.930237,100.216629 
	C157.787659,102.684448 158.627213,104.733749 160.617630,106.164993 
	C162.923584,107.823128 163.467834,109.951332 163.394165,112.622215 
	C163.275330,116.930038 166.441849,118.095497 168.659592,119.062668 
	C175.128677,113.346848 173.448013,105.583031 176.130661,99.037308 
	C179.436951,90.969833 184.018372,83.354263 185.991516,74.560890 
	C187.305511,68.704994 189.647675,62.825172 192.291382,57.185062 
	C193.238846,55.163689 195.280533,53.732475 195.464081,51.394951 
	C195.951370,45.188671 201.303680,40.578529 201.025848,34.005806 
	C200.959747,32.442005 204.583755,31.269573 202.334930,28.655880 
	C200.499374,31.010084 197.897034,30.415890 195.460693,30.549015 
	C193.841782,30.637472 191.852646,30.030188 190.755753,31.549580 
	C187.280807,36.362934 181.201782,37.960850 176.876709,42.599823 
M119.339020,118.390945 
	C116.778694,122.708298 117.694221,128.159470 114.442947,132.376175 
	C111.968994,135.584717 112.542053,140.524551 110.875443,143.557404 
	C107.264641,150.128189 105.614410,157.486679 100.673813,164.423904 
	C105.687256,163.997971 110.612999,162.463409 112.453423,160.572556 
	C116.838303,156.067520 122.641396,153.305603 126.441437,148.375168 
	C127.734261,146.697769 129.345413,147.198242 130.699341,146.542267 
	C136.328522,143.814926 141.909546,140.951584 147.290070,137.769257 
	C148.979736,136.769913 149.857193,134.957901 152.306519,134.394226 
	C157.939102,133.097946 161.302063,128.526062 159.150345,125.419373 
	C157.399597,122.891556 156.801117,120.170441 155.719162,117.531883 
	C153.788437,112.823517 151.063934,108.452194 149.108810,103.859550 
	C147.033051,98.983566 145.993561,93.765274 141.629608,90.206947 
	C140.750412,89.490051 141.086044,88.221603 140.574768,87.539963 
	C138.103195,84.244736 138.314392,79.322220 134.267548,76.638451 
	C133.084686,80.030449 132.616257,83.109993 131.091125,86.109528 
	C129.753845,88.739594 126.995148,91.113342 127.282448,94.831985 
	C127.599709,98.938225 125.050301,102.329033 123.524529,106.015099 
	C121.972313,109.765053 118.281479,112.930122 119.339020,118.390945 
z"/>
</svg>