<svg version="1.1" id="Layer_1" xmlns="http://www.w3.org/2000/svg" xmlns:xlink="http://www.w3.org/1999/xlink" x="0px" y="0px"
	 width="100%" viewBox="0 0 240 304" enable-background="new 0 0 240 304" xml:space="preserve">
<path fill="#000000" opacity="1.000000" stroke="none" 
	d="
M221.773239,270.781769 
	C217.285278,274.765442 210.403336,274.164642 205.747635,269.314484 
	C198.930603,262.212677 198.622467,253.249496 200.079865,244.430908 
	C200.542175,241.633606 204.009109,238.609268 206.851273,237.145187 
	C209.375076,235.845123 212.581696,231.426727 216.160675,236.363068 
	C216.649078,237.036713 218.692474,236.626816 220.016846,236.643433 
	C229.500137,236.762512 233.342529,240.679962 233.349121,250.267990 
	C233.350952,252.925430 233.349213,255.582886 233.346069,258.240326 
	C233.337967,265.092743 228.803314,270.105377 221.773239,270.781769 
M222.431107,249.131454 
	C219.918381,246.356796 214.093109,245.343826 211.893112,247.298981 
	C208.782928,250.063034 208.456848,254.876984 211.140884,258.403381 
	C212.832245,260.625549 218.640121,261.495026 220.943924,259.870972 
	C225.048065,256.977753 225.691849,253.878021 222.431107,249.131454 
z"/>
<path fill="#000000" opacity="1.000000" stroke="none" 
	d="
M178.437378,169.473633 
	C172.453552,175.063263 162.368134,172.389908 157.419449,168.670670 
	C155.800522,167.453934 155.809814,164.853531 155.022141,163.015564 
	C153.444473,159.334259 149.400528,156.140976 150.769073,151.662567 
	C152.357544,146.464462 154.073044,141.672974 159.537582,138.205200 
	C165.172546,134.629272 170.593597,136.147461 176.126495,135.752472 
	C178.714661,135.567703 184.241638,142.364502 184.299408,145.422287 
	C184.387314,150.077850 184.758316,154.791534 184.181686,159.376480 
	C183.704742,163.168747 182.250778,166.931046 178.437378,169.473633 
M165.033295,147.579575 
	C162.446503,149.964813 161.266571,156.677017 163.081726,158.681259 
	C165.525879,161.380005 172.508102,161.966507 174.262207,159.357758 
	C176.528412,155.987381 176.690430,152.011353 174.354523,148.806366 
	C172.273132,145.950607 169.291092,143.218231 165.033295,147.579575 
z"/>
<path fill="#000000" opacity="1.000000" stroke="none" 
	d="
M37.646309,270.362457 
	C34.222210,270.676331 31.443533,270.249451 28.435951,272.488770 
	C26.267632,274.103210 20.913839,270.556458 20.515276,269.265686 
	C18.941061,264.167572 15.540080,259.737457 14.779891,254.514877 
	C13.976653,248.996567 21.774590,236.184357 26.851152,234.019180 
	C28.819389,233.179718 31.751217,232.798080 33.093937,234.125107 
	C36.117924,237.113785 40.963120,237.020966 43.142929,241.863342 
	C45.889076,247.963867 51.232128,252.656525 45.874981,260.370758 
	C43.435944,263.882965 41.566975,267.681915 37.646309,270.362457 
M36.653934,253.515610 
	C36.581711,246.532623 35.852760,245.730606 29.349024,246.896744 
	C25.517590,247.583755 23.061823,249.900116 23.422653,254.229141 
	C23.765800,258.346039 27.033888,260.486176 32.130928,260.682068 
	C37.210155,260.877319 36.607883,257.525696 36.653934,253.515610 
z"/>
<path fill="#000000" opacity="1.000000" stroke="none" 
	d="
M91.298935,143.999878 
	C91.765327,147.562698 94.899200,149.454712 94.493317,153.348434 
	C93.571815,162.188385 84.142052,172.589676 76.293495,172.386627 
	C70.717506,172.242386 66.163132,167.837540 63.273739,162.682281 
	C61.190018,158.964508 60.066048,155.469131 60.757755,151.597031 
	C61.925175,145.061951 65.400459,139.393219 71.007172,136.096725 
	C77.456558,132.304749 87.283974,136.431213 91.298935,143.999878 
M80.231216,147.783203 
	C77.154861,144.746811 75.916687,145.258820 71.949043,150.664352 
	C69.945671,153.393738 69.050400,156.895157 71.643242,158.618912 
	C74.105400,160.255783 77.584290,165.099960 81.280357,159.526566 
	C81.988754,158.458359 82.913643,157.433380 83.960831,156.710175 
	C86.458908,154.984879 85.711792,152.518021 85.388268,150.352966 
	C85.020332,147.890747 82.560020,148.598831 80.231216,147.783203 
z"/>
<path fill="#000000" opacity="1.000000" stroke="none" 
	d="
M121.465378,67.316803 
	C111.098808,61.529434 107.079117,53.198906 109.824928,42.017021 
	C112.240616,32.179520 124.050323,27.127359 132.853928,32.779263 
	C134.634872,33.922634 137.339523,32.654881 138.427979,35.944607 
	C140.401062,41.907925 141.248795,47.968624 139.957397,53.913074 
	C137.928329,63.253162 131.070526,68.187332 121.465378,67.316803 
M124.446793,56.083611 
	C128.955399,55.708618 132.911621,49.883488 131.422302,45.291241 
	C130.647003,42.900600 129.588562,40.454010 126.116920,40.318974 
	C122.157585,40.164974 120.347786,42.359158 119.501892,45.579559 
	C118.091377,50.949532 119.498535,53.696293 124.446793,56.083611 
z"/>
</svg>