<svg version="1.1" id="Layer_1" xmlns="http://www.w3.org/2000/svg" xmlns:xlink="http://www.w3.org/1999/xlink" x="0px" y="0px"
	 width="100%" viewBox="0 0 256 224" enable-background="new 0 0 256 224" xml:space="preserve">
<path fill="#000000" opacity="1.000000" stroke="none" 
	d="
M221.306992,16.995647 
	C220.387497,20.608080 217.322983,23.035025 218.279938,26.939367 
	C218.707260,28.682732 218.295700,30.606319 220.173737,31.779081 
	C221.536713,32.630207 221.771027,34.395195 221.238388,35.342201 
	C218.877991,39.538944 221.181732,43.625198 221.593414,47.576126 
	C222.175629,53.163517 219.767014,58.367634 221.051392,64.130226 
	C222.290359,69.689072 221.378021,75.731056 221.376999,81.560791 
	C221.376602,83.824677 221.869431,86.297836 218.103836,87.642365 
	C221.734070,88.826645 221.335297,91.141800 221.336960,93.266159 
	C221.350830,110.922523 221.335281,128.578918 221.357681,146.235275 
	C221.360672,148.597702 220.851196,150.304642 218.954803,152.255493 
	C212.726151,158.663071 206.293427,165.105560 201.434021,172.515060 
	C198.901443,176.376648 194.177414,177.791245 192.743774,181.481674 
	C190.827927,186.413345 187.133011,189.637741 184.286255,193.662033 
	C181.529999,197.558380 178.404770,199.569778 173.261948,199.511780 
	C149.112411,199.239441 124.956009,199.556351 100.807274,199.250717 
	C95.966988,199.189468 91.159874,199.091553 86.318398,199.332138 
	C81.167488,199.588089 75.993950,199.389420 70.830292,199.388168 
	C65.500061,199.386856 60.152027,199.113663 54.844925,199.462997 
	C50.127796,199.773453 48.455948,198.295792 48.556107,193.361298 
	C48.853504,178.709274 48.668652,164.047195 48.640137,149.389130 
	C48.635704,147.111359 48.970314,144.831924 46.690136,143.043808 
	C44.892590,141.634171 45.114040,139.123749 46.207973,137.544464 
	C49.885666,132.235031 50.078499,127.116676 46.354450,121.835442 
	C46.085197,121.453613 45.780251,120.600166 45.895866,120.515114 
	C51.248383,116.577545 45.601742,112.906868 45.621777,109.116318 
	C45.697479,94.791771 45.791416,80.464149 45.558147,66.142899 
	C45.478317,61.241875 49.098137,58.602501 52.000046,57.018517 
	C58.441757,53.502361 62.181622,47.610287 67.050095,42.737682 
	C70.953987,38.830490 75.888512,35.154781 77.905411,30.344732 
	C81.050087,22.845104 86.875908,18.186460 92.115044,12.777974 
	C94.803329,10.002788 103.113724,8.999224 105.863068,11.527415 
	C108.036453,13.525977 110.231689,13.620841 112.706108,13.630893 
	C117.536507,13.650515 122.367119,13.639508 127.197556,13.620500 
	C128.858154,13.613964 130.635223,13.772555 131.801285,12.258848 
	C133.492172,10.063828 135.215912,9.817455 137.179764,11.871760 
	C138.104156,12.838730 139.241318,13.064991 140.322357,12.252810 
	C146.535797,7.584676 153.529266,11.784215 160.070465,10.595284 
	C160.951706,10.435109 162.207947,12.338034 163.283600,13.279547 
	C168.273056,9.092217 175.337509,8.888981 181.196960,12.737380 
	C182.912674,13.864235 184.940903,14.156459 186.245972,12.670358 
	C188.229202,10.412061 190.616211,10.637770 193.087006,10.638270 
	C200.082916,10.639688 207.078888,10.660698 214.074738,10.642538 
	C218.138046,10.631990 220.476761,12.668056 221.306992,16.995647 
M137.500076,68.389633 
	C126.003311,68.389862 114.506554,68.389297 103.009789,68.390610 
	C95.372292,68.391479 94.865562,68.432487 95.456390,75.951935 
	C96.643677,91.062561 92.536842,106.358505 98.006165,121.420204 
	C99.822708,126.422722 98.362595,132.621719 98.367676,138.273727 
	C98.374252,145.595932 98.360062,145.622101 105.458931,145.635757 
	C116.955711,145.657867 128.452560,145.642883 139.949387,145.641388 
	C148.946899,145.640213 157.945969,145.735321 166.941330,145.594955 
	C172.231750,145.512405 174.443466,141.796280 172.309692,136.950699 
	C171.176239,134.376740 171.587143,131.710663 171.807037,129.093536 
	C172.313629,123.064621 170.955261,116.854782 173.568924,111.008736 
	C173.859833,110.358078 173.728348,109.153618 173.291794,108.603607 
	C170.962433,105.668839 171.682693,102.266159 171.656494,99.008636 
	C171.588104,90.511581 171.490738,82.009926 171.703735,73.517601 
	C171.802094,69.595543 170.413055,68.233734 166.490814,68.322739 
	C157.164856,68.534348 147.830841,68.390884 137.500076,68.389633 
M54.373619,165.498550 
	C54.373619,172.256317 54.373619,179.014084 54.373619,185.771835 
	C54.742340,185.963272 55.111057,186.154694 55.479778,186.346115 
	C56.652443,182.911102 61.430027,184.555161 61.725960,182.641113 
	C62.505630,177.598389 67.444038,177.345963 69.662956,174.232193 
	C70.707840,172.765945 72.287727,171.238571 72.408058,169.646866 
	C72.667938,166.209351 74.971367,164.540039 77.074303,162.495056 
	C85.738007,154.070175 93.610733,145.254578 92.686630,131.879761 
	C92.412506,127.912407 91.955238,123.765739 92.774963,119.958092 
	C94.131020,113.659164 89.107750,109.021812 89.487411,102.903526 
	C90.094391,93.121971 89.553848,83.273468 89.682831,73.455696 
	C89.728455,69.982750 88.809883,68.241882 84.916611,68.343658 
	C76.767021,68.556679 68.604248,68.554840 60.454239,68.349396 
	C55.857376,68.233521 54.183826,69.674652 54.225056,74.626221 
	C54.474499,104.582176 54.364574,134.541122 54.373619,165.498550 
M178.122726,20.459246 
	C168.473679,20.609112 158.824371,20.896524 149.175644,20.877943 
	C133.035248,20.846859 116.884079,21.447073 100.757919,20.381836 
	C96.661934,20.111267 95.106636,21.616507 95.289871,25.796293 
	C95.566620,32.109684 95.339363,38.444366 95.373894,44.769741 
	C95.382744,46.391953 94.996643,48.218643 96.639702,49.356834 
	C98.726540,50.802433 98.422272,51.842354 96.738503,53.645000 
	C94.320038,56.234215 95.204788,58.215328 98.625618,58.564098 
	C101.809616,58.888714 105.156929,57.935898 107.742035,61.127354 
	C108.747108,62.368176 110.177589,60.963535 111.384430,59.811737 
	C113.264900,58.017029 115.672180,57.273842 117.461426,60.220860 
	C118.806320,62.435982 121.014473,62.165943 121.969376,60.709743 
	C124.193512,57.318016 127.346245,58.760605 130.046509,58.733948 
	C131.420532,58.720383 132.819977,58.906670 134.302078,58.870190 
	C144.447784,58.620457 154.602463,58.726288 164.754242,58.735207 
	C169.497223,58.739376 175.344940,61.631771 177.036865,53.846649 
	C177.286057,52.699966 178.595367,52.713768 179.570618,52.690414 
	C181.290802,52.649231 182.134842,51.618057 183.061234,50.314442 
	C185.106033,47.437016 186.618607,44.133518 188.515732,41.370872 
	C193.419678,34.229565 200.455215,28.718294 205.861420,21.326990 
	C196.873077,18.973211 187.869461,21.641785 178.122726,20.459246 
M128.499908,189.644272 
	C141.809372,189.640884 155.118881,189.654373 168.428238,189.615250 
	C170.342331,189.609619 173.049362,190.145523 173.289780,187.434937 
	C173.725525,182.522369 174.530746,177.479019 172.810211,172.668808 
	C172.355423,171.397293 171.440125,170.336975 172.305847,169.048004 
	C174.775681,165.370712 173.565857,161.276382 173.477600,157.404053 
	C173.415817,154.693466 172.534485,151.910049 168.401596,154.080322 
	C166.847092,154.896637 164.565918,154.896942 162.819199,153.291611 
	C159.226868,149.990036 154.768951,150.565887 151.354294,152.624802 
	C148.555603,154.312302 145.973343,154.915283 143.016968,154.890213 
	C129.213242,154.773224 115.409187,154.640869 101.607224,154.401154 
	C96.775986,154.317276 93.498390,157.193100 89.864311,159.701813 
	C85.219398,162.908310 83.572777,168.012375 80.638077,172.353729 
	C76.947861,177.812714 71.907837,182.396317 67.203384,187.111313 
	C65.679863,188.638245 64.664558,190.064468 65.995705,191.742920 
	C67.255295,193.331161 69.849007,193.235138 71.058945,192.231262 
	C75.045074,188.923965 79.793633,189.917450 84.082138,189.795776 
	C98.544518,189.385437 113.025826,189.642151 128.499908,189.644272 
M212.632599,141.968658 
	C212.639359,106.175186 212.653763,70.381706 212.629654,34.588253 
	C212.628479,32.850471 213.246567,30.703482 211.066406,29.738611 
	C208.879425,28.770700 207.981430,30.684381 206.578369,31.834618 
	C204.866486,33.238037 203.932907,35.280170 202.329773,36.570271 
	C199.027359,39.227863 200.331329,46.183281 193.512405,45.195904 
	C193.903229,50.931419 189.619843,53.370373 186.754547,56.731865 
	C183.532593,60.511787 179.233383,63.732197 180.280396,69.727638 
	C180.619400,71.668953 180.356796,73.525322 178.363708,74.976501 
	C176.820984,76.099777 177.133484,77.911186 178.484283,79.346016 
	C181.529327,82.580482 180.995346,86.073570 179.062729,89.549904 
	C178.765472,90.084618 177.829514,90.462273 178.736694,90.956596 
	C181.603241,92.518555 180.262756,95.126305 180.279449,97.235237 
	C180.393997,111.718239 180.424393,126.203354 180.286499,140.685913 
	C180.251678,144.344345 181.525208,145.770050 185.210846,145.690826 
	C192.865433,145.526321 200.526077,145.644516 208.184219,145.643051 
	C210.241913,145.642654 212.330154,145.677948 212.632599,141.968658 
M89.616005,37.857780 
	C89.616005,35.163364 89.616005,32.468945 89.616005,29.774529 
	C84.939529,33.732307 81.552307,37.828236 77.997993,41.773647 
	C73.763092,46.474548 69.392128,51.053146 65.064079,55.669701 
	C63.855156,56.959202 62.993622,58.381466 63.747284,60.156601 
	C64.490814,61.907871 66.193893,61.619965 67.658661,61.626888 
	C73.486877,61.654434 79.317390,61.544743 85.142815,61.675034 
	C88.342461,61.746590 89.671722,60.457256 89.620239,57.257164 
	C89.521126,51.097557 89.606339,44.934986 89.616005,37.857780 
M180.348389,163.612549 
	C180.348389,170.008072 180.348389,176.403595 180.348389,182.799118 
	C190.034775,172.445953 200.180649,163.377747 208.424622,152.322113 
	C204.071823,150.774490 199.875580,151.349182 195.777588,151.479050 
	C192.179398,151.593094 189.065353,153.939407 185.253311,153.972153 
	C179.112137,154.024902 180.415939,158.855209 180.348389,163.612549 
z"/>
</svg>