<svg version="1.1" id="Layer_1" xmlns="http://www.w3.org/2000/svg" xmlns:xlink="http://www.w3.org/1999/xlink" x="0px" y="0px"
	 width="100%" viewBox="0 0 240 256" enable-background="new 0 0 240 256" xml:space="preserve">
<path fill="#000000" opacity="1.000000" stroke="none" 
	d="
M41.116951,139.690491 
	C37.352318,139.954163 35.041138,138.058945 32.440681,136.187012 
	C27.227596,132.434357 21.992699,128.541946 15.416051,127.291512 
	C12.420789,126.722015 10.535819,124.640678 9.799338,121.894440 
	C8.922340,118.624237 11.518100,118.460052 13.812409,117.193962 
	C17.693207,115.052376 21.411154,112.441658 25.397490,110.451141 
	C30.472609,107.916962 35.544540,105.214066 40.291183,102.288933 
	C45.462273,99.102234 52.108677,97.950256 55.682083,92.208511 
	C57.275917,89.647552 61.003502,90.706741 63.014061,87.908859 
	C65.010605,85.130463 66.747658,82.759766 66.715027,79.127632 
	C66.578842,63.970562 66.651215,48.811569 66.660294,33.653294 
	C66.661591,31.488428 66.386322,29.560001 65.209427,27.524960 
	C63.475082,24.525991 65.038040,21.396067 67.283562,19.519390 
	C69.116150,17.987820 71.272011,18.743238 73.783997,20.469091 
	C80.767479,25.267069 87.678322,30.236744 95.423309,33.982594 
	C98.762947,35.597801 100.746468,37.890907 103.984093,34.109474 
	C104.861664,33.084503 108.540588,33.310551 108.031487,35.732136 
	C106.692963,42.099022 111.904480,43.092419 115.292610,44.736584 
	C118.480858,46.283756 120.486061,49.002827 123.334335,50.607052 
	C127.313217,48.996342 130.256470,45.167744 135.075577,45.570950 
	C136.909378,45.724380 137.415146,43.976604 138.440979,42.963684 
	C142.858566,38.601719 149.265305,37.391212 153.882034,33.543251 
	C158.277512,29.879688 163.816391,27.973387 167.699310,23.461721 
	C169.859009,20.952305 173.427414,19.501863 176.805756,18.751015 
	C180.609421,17.905632 182.469742,19.350269 182.419327,23.773958 
	C182.208618,42.261314 182.494003,60.754978 182.207779,79.240303 
	C182.145599,83.256348 184.070679,85.712860 186.813553,87.186508 
	C193.759277,90.918213 200.499786,94.951340 207.289154,98.939880 
	C213.540710,102.612480 220.003998,106.098709 226.678421,109.169174 
	C230.705093,111.021599 234.433060,114.632843 238.165771,117.621605 
	C239.082840,118.355904 239.616562,119.807739 239.001068,120.143127 
	C235.704361,121.939522 235.696365,127.472282 230.927948,127.344551 
	C228.253326,127.272911 227.275909,129.798325 225.398407,130.862228 
	C221.868423,132.862564 217.951019,134.246948 214.883728,137.815445 
	C211.738129,141.475006 206.162231,143.253769 201.397598,145.254669 
	C196.692963,147.230362 192.910172,150.711945 188.028091,152.490860 
	C185.605408,153.373642 185.265793,156.968475 185.285660,160.000244 
	C185.409058,178.822342 185.385727,197.645935 185.279510,216.468262 
	C185.267990,218.512146 186.544891,221.666702 183.035141,222.145432 
	C180.071106,222.549713 176.439651,223.532028 174.874252,219.545685 
	C173.320831,215.589752 169.005737,215.287003 166.233978,213.969131 
	C159.684769,210.855194 153.074738,207.383499 147.215347,203.580536 
	C142.468018,200.499344 137.489700,197.373184 132.775360,194.038620 
	C128.498459,191.013458 123.749199,191.282837 119.170227,193.997940 
	C116.387627,195.647888 114.017593,198.450775 110.351738,198.466888 
	C110.031174,198.468292 109.549171,198.523834 109.415298,198.730850 
	C107.183243,202.182709 103.209198,203.588394 100.468475,206.154663 
	C95.538544,210.770782 89.283005,212.703888 83.946556,216.338669 
	C81.709534,217.862350 78.625458,218.455124 76.916382,220.359497 
	C74.924171,222.579361 72.663696,223.057663 70.850502,221.810486 
	C68.600258,220.262665 66.509033,218.303467 66.563545,214.670059 
	C66.805923,198.515976 66.664078,182.356186 66.668083,166.198456 
	C66.669434,160.745392 67.434105,155.669830 59.750160,153.435532 
	C56.675282,152.541412 52.807728,149.126892 50.095695,145.954163 
	C47.715519,143.169632 43.822216,142.609970 41.116951,139.690491 
M152.115067,150.611008 
	C154.138168,150.733902 154.579453,148.595413 156.059418,147.867599 
	C160.847595,145.512833 166.396378,134.995911 165.576828,129.962433 
	C165.450394,129.185867 165.234772,128.073685 164.694153,127.771118 
	C161.008072,125.708176 163.942551,124.099365 165.032715,122.442612 
	C161.900223,118.983246 161.883133,117.430374 164.905853,113.087120 
	C161.308960,110.789116 162.956680,107.151520 162.703445,104.017250 
	C162.356873,99.727638 163.760803,95.922470 157.422455,93.186340 
	C150.825928,90.338745 144.053848,86.787758 138.081543,82.358299 
	C132.994247,78.585213 125.555817,78.024139 123.031944,70.544647 
	C122.336632,68.484093 121.615364,67.708847 123.556831,66.270401 
	C127.836380,63.099632 131.974365,59.737774 136.363602,56.302452 
	C134.295441,55.645908 132.574127,54.826324 130.835846,56.133266 
	C124.375977,60.990154 116.919975,64.325188 110.655579,69.529671 
	C108.737152,71.123505 105.635056,71.069298 103.614929,69.508492 
	C102.011948,68.269974 102.291977,65.897789 103.348816,64.027771 
	C103.760338,63.299606 105.454239,63.430134 104.799118,61.932915 
	C98.267700,60.349712 93.524689,54.972942 86.356216,53.501389 
	C86.356216,59.900547 86.358444,66.193718 86.354744,72.486893 
	C86.353752,74.186012 87.029434,75.117355 88.803711,75.673851 
	C93.011772,76.993683 93.516968,79.066513 90.556030,82.537048 
	C89.529976,83.739677 89.150009,85.094551 88.697861,86.477722 
	C93.286110,89.212540 93.727417,91.343567 89.921707,95.086555 
	C87.100510,97.861259 86.143822,100.844124 86.242142,104.771530 
	C86.504723,115.259644 86.323273,125.758614 86.349388,136.253189 
	C86.353455,137.885529 86.258835,139.466202 87.353813,141.004288 
	C90.341728,145.201294 94.576843,148.086563 98.892372,150.253082 
	C106.465965,154.055222 114.059738,157.716614 121.054985,162.552032 
	C122.181084,163.330444 123.294952,165.281754 124.869064,164.398544 
	C130.831482,161.053085 138.166336,160.648102 143.346268,155.648758 
	C145.639603,153.435364 148.509216,152.063477 152.115067,150.611008 
M98.890953,196.601578 
	C99.269379,196.058807 99.654488,195.041428 100.025208,195.046677 
	C103.762192,195.099258 106.089844,193.177444 107.722275,190.033005 
	C107.988579,189.520035 108.630531,189.117310 109.188622,188.853561 
	C115.560623,185.841873 122.563080,183.838791 126.965378,177.701416 
	C127.654205,176.741089 128.648590,176.609573 129.614960,176.676437 
	C134.634125,177.023682 137.832336,173.799713 141.444397,171.081238 
	C147.560272,166.478409 154.193420,162.680359 161.022385,159.171463 
	C163.057159,158.125961 166.278595,156.558121 164.497192,152.273254 
	C159.873871,157.964249 153.373566,161.444077 147.282013,163.053009 
	C136.492523,165.902786 129.796158,174.793182 119.818260,178.706451 
	C114.686264,180.719177 108.290596,182.853394 105.392776,188.895798 
	C105.336784,189.012543 105.116669,189.072525 104.961121,189.116379 
	C98.783920,190.857849 93.948860,195.175613 88.255577,197.772980 
	C86.018669,198.793503 82.819237,199.759338 80.801369,196.442749 
	C78.111168,192.021072 78.913185,186.873260 77.725082,182.135071 
	C77.131828,179.769165 77.377640,177.155228 80.444359,175.482895 
	C75.540688,172.792511 78.857506,168.028931 76.593681,163.732697 
	C76.593681,179.003616 76.593681,193.228073 76.593681,207.486389 
	C85.256516,206.501114 92.176987,202.482605 98.890953,196.601578 
M174.304901,198.238297 
	C174.163635,201.869217 170.829758,202.220337 169.420822,200.971664 
	C164.923462,196.985809 157.942352,196.804962 154.729568,191.105377 
	C154.300003,190.343292 153.849777,189.669006 152.963882,189.507645 
	C148.963242,188.778931 145.824066,186.606079 142.815567,183.973358 
	C141.404800,182.738846 139.274673,183.135483 137.553650,183.789551 
	C136.248291,184.285660 136.231812,185.650833 136.557373,186.811218 
	C137.172546,189.003891 139.077316,188.526688 140.683960,188.656097 
	C141.664764,188.735107 143.157593,188.536163 143.535370,189.078537 
	C147.149872,194.267975 155.496002,193.114655 157.917633,199.864044 
	C158.063293,200.270081 159.059113,200.583252 159.657303,200.579895 
	C163.206543,200.559937 165.435654,203.365921 168.026062,204.976593 
	C170.098465,206.265198 171.873718,206.963181 173.895401,206.396484 
	C176.563751,205.648514 175.588760,203.104370 175.591949,201.266846 
	C175.645569,170.479645 175.638550,139.692322 175.643280,108.905029 
	C175.643433,107.906799 175.643250,106.907982 175.611099,105.910477 
	C175.568924,104.602448 175.077530,103.554321 173.599609,103.598328 
	C172.222412,103.639336 171.565216,104.595016 171.455811,105.907288 
	C171.386856,106.734634 171.377899,107.568710 171.377487,108.399780 
	C171.370422,122.711800 171.363205,137.023819 171.376862,151.335831 
	C171.377960,152.494232 171.067139,154.117355 171.687515,154.735687 
	C175.851059,158.885452 174.200241,164.058136 174.303497,168.826492 
	C174.508820,178.307755 174.351135,187.796860 174.304901,198.238297 
M51.064072,135.598267 
	C51.871300,135.747147 53.230789,135.666443 53.402512,136.079514 
	C55.791168,141.825485 63.166550,141.666031 66.013977,146.816940 
	C66.210457,147.172363 66.905403,147.539230 67.282799,147.464966 
	C73.837341,146.175400 76.323753,152.595367 80.958122,154.954727 
	C87.042397,158.052231 92.908356,161.785172 99.245621,164.338593 
	C101.419846,165.214630 103.545746,165.825272 104.910332,167.641357 
	C107.683708,171.332367 111.073227,170.904633 114.828003,169.922699 
	C110.880646,165.955124 105.939255,164.075912 101.624237,161.213257 
	C99.937233,160.094055 97.467255,160.856232 96.271194,158.201355 
	C95.336601,156.126846 92.342201,155.301331 90.838280,153.952988 
	C87.614838,151.063034 83.597221,151.745163 80.226303,149.775909 
	C74.344017,146.339554 69.621361,141.198593 62.873306,138.812271 
	C60.814503,138.084229 57.275230,137.409241 56.054165,135.442261 
	C52.021317,128.945816 44.794453,127.795914 38.952011,124.411453 
	C37.374756,123.497772 36.631207,122.772240 36.725677,121.156700 
	C36.932468,117.620445 38.854599,115.135498 42.270699,114.724182 
	C45.312862,114.357903 45.935143,112.598251 46.499626,110.357834 
	C46.182800,110.149971 46.013390,109.953674 45.911308,109.984009 
	C39.261314,111.959618 34.023315,116.792587 27.473259,119.078644 
	C25.711620,119.693474 25.974293,122.627777 27.835148,122.937424 
	C30.798828,123.430580 32.686245,125.460419 35.010201,126.751366 
	C40.150970,129.607040 45.766132,131.669617 51.064072,135.598267 
M74.337585,106.959564 
	C76.019775,109.825951 76.510468,112.880234 76.382545,116.217628 
	C76.165230,121.887413 76.322769,127.571556 76.322769,133.249664 
	C76.742371,133.250824 77.161964,133.251999 77.581566,133.253174 
	C77.581566,131.483002 77.580444,129.712830 77.581726,127.942657 
	C77.601181,101.144997 77.612801,74.347336 77.645050,47.549690 
	C77.656357,38.155636 77.696884,38.146580 85.836533,42.423782 
	C86.117287,42.571308 86.613029,42.442898 86.787521,42.639397 
	C89.351570,45.526703 93.443703,45.286873 96.493744,47.824108 
	C100.600800,51.240643 106.689392,51.983227 110.305595,58.189819 
	C110.357574,50.948547 81.571671,34.118549 74.131905,35.376881 
	C76.873505,39.270599 77.968338,43.108379 74.156631,47.084270 
	C73.008957,48.281380 73.283943,49.748787 74.274460,51.176033 
	C77.187431,55.373371 77.233559,63.677456 74.335213,67.509689 
	C73.289108,68.892883 72.796944,70.742012 73.900276,71.573486 
	C77.245094,74.094116 75.683334,77.593765 76.403687,80.640892 
	C78.385338,89.023338 72.444321,97.158180 75.812500,105.531479 
	C75.873276,105.682571 75.130089,106.157051 74.337585,106.959564 
M171.373581,72.198494 
	C171.994614,74.296608 169.839539,78.194572 173.694687,78.086868 
	C176.865265,77.998276 175.439011,74.363434 175.552475,72.294044 
	C176.066055,62.928852 172.236359,53.865154 173.528870,44.409191 
	C173.796951,42.447834 173.641891,40.423012 173.615891,38.428295 
	C173.566681,34.652847 170.802383,32.384087 168.474976,34.687496 
	C165.394897,37.735813 160.380249,37.376827 158.258942,41.514889 
	C159.331177,42.446678 161.161148,43.145428 161.711975,42.021637 
	C164.193161,36.959457 167.876801,40.438328 171.369995,39.962753 
	C171.369995,50.670319 171.369995,60.970814 171.373581,72.198494 
M185.215424,126.890701 
	C184.551819,127.312767 183.888214,127.734833 183.224609,128.156891 
	C189.351501,126.484764 195.519547,124.897682 199.802917,119.515800 
	C198.348999,118.768799 196.539536,118.454788 196.133621,117.526825 
	C194.087280,112.848587 188.418747,113.302238 185.586761,109.767593 
	C185.038712,109.083572 182.914841,109.208656 182.701477,110.582436 
	C182.202606,113.794510 181.068420,117.613312 183.398254,120.094597 
	C185.338776,122.161240 185.212646,124.119720 185.215424,126.890701 
M163.499542,187.404221 
	C166.423981,188.535782 165.510696,185.960846 165.564484,184.966125 
	C165.753036,181.479095 165.752396,177.970184 165.590805,174.480362 
	C165.497696,172.469543 166.600296,169.938812 163.990234,168.677490 
	C161.147964,167.303940 159.865509,170.013336 158.971848,171.503510 
	C157.068192,174.677841 151.211594,173.777023 151.553986,178.807312 
	C155.644653,181.315155 159.932709,183.344482 163.499542,187.404221 
M60.229637,126.169792 
	C62.102192,127.260933 64.972275,125.601189 66.422531,129.955383 
	C66.422531,122.454979 66.422531,116.560211 66.422531,110.537346 
	C61.346989,113.383179 55.532150,114.561394 52.087177,119.479744 
	C53.600498,122.866699 57.620468,123.076927 60.229637,126.169792 
M162.595871,55.569180 
	C162.487473,54.773144 162.632217,53.882332 162.202652,53.624100 
	C155.136795,54.243473 153.109818,63.207214 148.211716,62.494823 
	C152.925385,61.934624 155.045944,70.550583 161.935394,71.143372 
	C163.424088,66.550552 162.365219,61.404167 162.595871,55.569180 
M205.086823,107.297462 
	C202.456024,106.764511 200.989029,104.178474 198.532166,103.458443 
	C193.580338,102.007217 189.366608,98.996979 185.105835,96.416840 
	C182.527618,94.855576 178.510849,95.199173 177.250473,91.532356 
	C174.189667,92.997391 173.223618,86.148369 169.698318,89.443947 
	C171.183243,92.064217 173.871826,92.966370 175.972931,94.574661 
	C180.077301,97.716354 184.938354,99.411621 189.233521,102.073746 
	C192.263962,103.952011 195.537521,106.114296 198.904922,107.517136 
	C202.646103,109.075691 206.364487,112.307922 211.904266,110.308273 
	C209.340668,108.881508 206.479675,110.775673 205.086823,107.297462 
M92.444962,170.974152 
	C91.624428,170.506592 91.695808,168.998413 89.923698,169.203583 
	C88.930771,174.116486 89.336929,179.110474 89.634583,185.540985 
	C91.971115,182.217484 94.494080,182.885590 96.836464,182.579254 
	C99.688004,182.206329 101.036720,179.786057 102.433533,177.676163 
	C102.938850,176.912888 102.600380,175.129211 101.696541,175.125366 
	C98.156265,175.110352 96.464592,171.338745 92.444962,170.974152 
M204.571564,132.864532 
	C207.849228,132.988815 209.184860,130.604218 210.846222,128.313705 
	C204.359406,126.852524 186.143692,137.539978 185.892242,142.577118 
	C189.302933,141.963943 192.853989,140.973511 195.212799,138.496628 
	C197.769897,135.811523 202.224976,136.837387 204.571564,132.864532 
M154.626312,78.325165 
	C148.117447,74.782875 141.608582,71.240578 135.099701,67.698280 
	C142.265518,76.264145 152.346695,79.540321 161.622589,84.269547 
	C160.151993,81.364311 158.390533,78.987373 154.626312,78.325165 
M222.058105,122.859039 
	C222.374390,121.291328 224.665512,120.946541 224.650116,119.283546 
	C223.121170,117.718010 220.615479,119.069633 219.686264,116.880775 
	C219.137924,115.589104 218.068527,115.180283 216.826675,115.668159 
	C215.560501,116.165596 215.417328,117.381264 215.355896,118.590279 
	C215.222733,121.211212 216.212830,124.233223 211.961960,125.543518 
	C216.562744,127.737175 217.982239,121.894768 222.058105,122.859039 
M48.978100,107.404076 
	C50.475163,109.195396 51.912861,108.967880 53.495285,107.428757 
	C55.736649,105.248711 58.515732,103.534966 61.388180,102.813278 
	C64.309929,102.079216 65.304649,100.545448 66.544479,96.752480 
	C59.734184,100.087311 53.952652,102.577423 48.978100,107.404076 
M152.170181,45.781227 
	C146.764648,46.705956 142.702744,49.790413 138.577133,53.847965 
	C139.791489,54.197052 140.566330,54.705334 140.990509,54.497593 
	C145.271744,52.400906 148.832703,48.993572 153.518112,47.559799 
	C153.726685,47.495975 155.379211,44.809738 152.170181,45.781227 
z"/>
</svg>