<svg version="1.1" id="Layer_1" xmlns="http://www.w3.org/2000/svg" xmlns:xlink="http://www.w3.org/1999/xlink" x="0px" y="0px"
	 width="100%" viewBox="0 0 240 336" enable-background="new 0 0 240 336" xml:space="preserve">
<path fill="#000000" opacity="1.000000" stroke="none" 
	d="
M129.351196,285.223022 
	C129.502075,289.860657 127.216667,293.103516 123.395210,293.032257 
	C119.563965,292.960846 117.333916,289.684601 117.632881,285.416901 
	C117.763885,283.546814 117.537354,282.130035 115.414581,281.011353 
	C110.453308,278.396790 111.869774,272.665833 110.272118,268.452240 
	C108.079353,262.669189 104.089851,257.724884 102.859062,251.555862 
	C101.960144,247.050217 99.721199,242.839218 98.086494,238.722473 
	C94.839333,230.545044 92.422104,222.013336 88.282867,214.045700 
	C83.867531,205.546616 79.782501,196.727005 76.018517,187.814972 
	C73.563469,182.002151 72.190331,176.265701 71.725815,170.207870 
	C71.383453,165.743011 73.241585,161.831985 75.674431,158.015869 
	C78.882210,152.984192 79.183556,146.703903 81.716309,141.414719 
	C84.325119,135.966675 84.127632,129.382416 89.554398,124.910576 
	C92.178200,122.748459 90.241211,117.602921 92.575867,114.328552 
	C95.548302,110.159721 96.321762,104.883492 97.722481,100.276199 
	C99.033180,95.964966 102.019974,91.899094 101.693634,87.042786 
	C101.639206,86.232773 101.576111,84.979172 102.035194,84.647255 
	C106.827232,81.182671 105.795326,74.933083 108.894272,70.611252 
	C110.787079,67.971497 110.699997,64.079933 110.957642,61.196991 
	C111.568939,54.356968 116.390823,49.613552 117.791862,43.404144 
	C118.123817,41.932919 119.246796,41.697536 120.461700,41.749016 
	C123.518600,41.878532 125.206177,44.325397 126.082069,46.482220 
	C129.174637,54.097454 131.373505,62.084171 134.613281,69.628563 
	C137.617477,76.624397 139.400406,84.141151 142.775543,90.820389 
	C145.199036,95.616364 146.660538,101.130516 150.624603,105.185379 
	C152.049942,106.643372 151.974030,109.067398 152.167587,110.780144 
	C152.752747,115.957733 155.154816,120.568382 156.735336,125.272156 
	C158.139786,129.451950 158.155304,134.427277 161.434891,137.949219 
	C163.013428,139.644409 162.778534,141.988953 163.378448,143.922882 
	C165.287521,150.076889 169.315140,155.142914 171.292664,161.265793 
	C173.553543,168.266022 172.015839,174.395752 168.793640,180.442581 
	C168.347336,181.280121 167.652115,181.965134 167.413818,182.980896 
	C165.405182,191.542633 162.335999,199.662521 157.273209,206.936066 
	C156.991821,207.340332 156.505951,207.860321 156.586990,208.220245 
	C157.897415,214.041351 154.328552,218.868378 153.119537,224.128937 
	C151.877487,229.533295 151.634155,235.333710 146.829529,239.941437 
	C144.470490,242.203796 142.949142,246.559204 142.056473,250.670258 
	C140.845322,256.248047 141.470139,262.851166 135.557220,266.855591 
	C132.925049,268.638153 135.044525,272.261292 133.771011,274.846771 
	C132.168350,278.100464 130.816971,281.477936 129.351196,285.223022 
M135.667419,93.818840 
	C132.324951,88.725029 131.143997,82.719353 128.736008,77.228218 
	C128.178726,75.957428 128.950211,74.203720 127.783081,72.972969 
	C124.937248,69.972008 124.454170,65.633560 121.820351,62.506279 
	C121.289055,65.885979 119.182632,69.044044 117.521774,71.369644 
	C112.007980,79.090248 112.666649,89.072952 107.246124,96.501999 
	C104.591454,100.140335 104.610977,104.307236 103.478996,108.252510 
	C102.029991,113.302704 98.032295,117.643692 99.271278,123.458664 
	C99.398018,124.053505 99.275955,124.957985 98.893158,125.364960 
	C95.169327,129.324066 95.900887,134.956467 93.414070,139.478760 
	C89.991554,145.702637 87.869637,152.646088 84.398956,158.837570 
	C82.114555,162.912796 80.326218,166.826309 80.330994,171.506409 
	C80.339630,179.978241 85.900597,186.412949 89.102707,193.551102 
	C92.694305,201.557495 95.055359,210.168121 99.578423,217.640015 
	C101.983826,221.613602 102.374657,225.849335 103.444595,229.918381 
	C105.192245,236.564804 110.792595,241.554398 110.797302,249.034164 
	C110.798546,251.022797 111.816795,254.069443 113.275833,256.289581 
	C116.840187,261.713257 119.412674,267.654846 122.031586,273.109985 
	C124.895081,271.927673 124.655190,268.457672 126.180984,266.671326 
	C132.409882,259.378845 132.455368,249.748932 136.397263,241.631454 
	C137.370331,239.627655 139.736221,238.432159 139.623352,235.829025 
	C139.228622,226.725586 145.004028,219.708710 148.696259,212.288651 
	C152.445557,204.753952 153.403244,196.749405 155.259659,188.997894 
	C156.297791,184.663193 157.705292,180.436676 159.873703,177.100174 
	C163.483597,171.545670 164.822495,165.581512 161.143524,160.969513 
	C155.472244,153.859955 155.871368,145.170715 152.844254,137.454056 
	C149.953598,130.085266 147.544174,122.470955 144.018890,115.381424 
	C140.667664,108.641914 137.278381,102.010567 135.667419,93.818840 
z"/>
</svg>