<svg version="1.1" id="Layer_1" xmlns="http://www.w3.org/2000/svg" xmlns:xlink="http://www.w3.org/1999/xlink" x="0px" y="0px"
	 width="100%" viewBox="0 0 240 288" enable-background="new 0 0 240 288" xml:space="preserve">
<path fill="#000000" opacity="1.000000" stroke="none" 
	d="
M119.487114,244.475372 
	C120.477371,246.691925 122.816902,247.682831 122.474380,250.302963 
	C122.307671,251.578217 123.224136,252.522736 124.667900,252.397949 
	C125.819061,252.298447 126.552063,251.435654 126.503548,250.377121 
	C126.171333,243.129135 132.275177,238.330276 133.528381,231.718552 
	C134.365173,227.303757 138.473434,224.004715 137.733673,219.053070 
	C137.581055,218.031448 138.179871,217.228912 139.106018,216.591476 
	C143.348526,213.671432 143.370224,208.326965 145.880798,204.586746 
	C148.666290,200.436966 148.392059,195.558609 150.799637,191.271027 
	C152.622116,188.025391 154.061752,183.407394 153.631607,179.024246 
	C153.306152,175.707840 153.851151,172.783081 156.803360,170.768768 
	C159.081146,169.214645 159.950745,167.061417 159.654709,164.369415 
	C159.266449,160.838684 162.562485,158.854980 163.361893,155.572159 
	C164.070389,152.662704 164.465424,149.845993 164.676559,146.919815 
	C164.882172,144.070038 163.910385,141.097275 166.867157,138.696533 
	C168.289169,137.541931 167.974976,135.264328 165.514130,134.434158 
	C161.495712,133.078522 159.177368,130.444839 159.652756,126.019379 
	C160.004013,122.749420 157.428482,120.095184 156.103424,118.370544 
	C152.780579,114.045624 154.423813,108.774216 151.742996,104.602554 
	C147.348999,97.765015 147.118576,89.224998 141.526031,82.486877 
	C137.150757,77.215355 135.458618,69.678963 132.751297,63.076328 
	C131.312454,59.567280 129.952469,56.037609 127.587051,53.043320 
	C126.894966,52.167225 126.582924,51.254261 126.717445,50.310043 
	C127.215179,46.816471 125.679138,44.376633 122.977348,42.565254 
	C120.333961,44.465523 118.948280,46.928837 119.245888,50.414375 
	C119.508057,53.484756 116.835098,55.662464 115.627350,58.137535 
	C113.450462,62.598728 111.413185,66.829803 111.292625,71.826767 
	C111.229790,74.431061 108.965874,75.936409 107.982811,78.124924 
	C105.350533,83.984924 104.132607,89.969070 103.096817,96.185867 
	C102.682625,98.671906 100.267059,100.624298 99.603821,103.443336 
	C99.249535,104.949219 96.392868,104.799904 95.112923,103.989975 
	C93.030151,102.672028 91.748932,100.552414 91.670959,97.817062 
	C91.591782,95.039490 92.927834,92.014961 94.116394,90.554604 
	C96.249481,87.933723 95.683891,84.145142 98.599426,82.159363 
	C99.162575,81.775810 99.644600,80.649750 99.522705,79.983543 
	C98.637703,75.146545 103.055305,72.084732 103.498985,67.749031 
	C104.041237,62.449963 106.679192,57.771732 107.960754,52.657398 
	C109.210098,47.671661 111.558594,42.755432 113.822006,38.035904 
	C114.685440,36.235535 115.741974,34.662807 115.603760,32.685947 
	C115.342377,28.947239 118.817070,26.910568 119.578659,23.472378 
	C120.042892,21.376583 125.656525,23.931904 127.197685,27.162357 
	C130.882629,34.886436 135.535172,42.658222 137.245071,50.635910 
	C138.603210,56.972420 142.460968,61.243359 145.114258,66.092026 
	C147.707581,70.831139 148.697815,76.172585 151.723267,80.716698 
	C153.475357,83.348297 152.383942,87.312393 154.103729,90.591667 
	C155.914474,94.044365 157.109802,97.832336 159.435715,101.056137 
	C159.804306,101.567017 160.119690,102.189758 160.230377,102.802223 
	C161.920120,112.152885 166.101013,120.430290 170.822296,128.564041 
	C173.048340,132.399017 174.716934,136.653168 176.012375,140.907898 
	C177.543243,145.935837 174.954117,150.496292 173.310806,155.092819 
	C173.263321,155.225586 172.947617,155.298813 172.944168,155.405807 
	C172.696564,163.118393 164.308258,167.569519 165.140915,176.016617 
	C165.686523,181.551743 161.122833,185.960388 159.257965,191.052383 
	C157.580093,195.633865 155.113739,199.905884 154.286835,204.825211 
	C153.699448,208.319641 152.880997,211.793762 150.619659,214.702805 
	C150.220917,215.215790 149.567291,215.826218 149.610962,216.342621 
	C150.152313,222.743057 144.549500,227.180405 144.263809,233.288559 
	C144.199371,234.666336 143.028915,235.138245 142.219406,235.938217 
	C139.857590,238.272186 137.491699,240.608475 138.279083,244.445755 
	C138.828995,247.125839 135.682602,247.915207 135.288376,250.440994 
	C134.049118,258.380707 130.331635,265.514954 127.153542,272.808990 
	C126.668167,273.922943 125.872620,274.265625 124.823669,274.258484 
	C123.673119,274.250641 122.213821,274.387939 121.945763,272.918243 
	C120.822487,266.759644 116.537148,261.992737 114.994308,255.729691 
	C113.824043,250.979080 111.555862,245.628204 108.831444,240.856903 
	C107.014191,237.674347 104.322823,234.382980 104.470352,229.882126 
	C104.582314,226.466507 103.194809,222.898849 100.692139,220.172958 
	C99.932571,219.345642 99.645508,218.468399 99.689194,217.481277 
	C99.910248,212.486313 97.035553,208.775558 94.478790,204.968445 
	C93.541237,203.572372 93.753212,202.126419 93.650429,200.668137 
	C93.536011,199.044754 93.720436,197.520996 92.310974,196.092163 
	C88.388542,192.115799 88.231018,186.271988 85.566071,181.655563 
	C81.123108,173.959152 80.606941,164.779388 75.407341,157.137009 
	C72.832359,153.352325 70.314369,147.475616 74.194237,141.848801 
	C76.278824,138.825623 78.776627,139.668182 81.241531,139.889175 
	C83.915215,140.128891 83.190712,142.540329 83.313171,144.239365 
	C83.432655,145.897141 83.543396,147.597839 83.312706,149.230911 
	C82.498116,154.997498 85.618217,159.360046 88.296310,163.906769 
	C88.697708,164.588242 89.135582,165.328278 89.248596,166.087082 
	C90.292862,173.098572 93.614632,179.162399 96.678909,185.430252 
	C100.144684,192.519287 103.072815,199.854935 105.616760,207.419189 
	C108.454079,215.855728 111.238304,224.438446 115.480812,232.494217 
	C117.232384,235.820145 117.741005,240.310715 119.487114,244.475372 
z"/>
</svg>