<svg version="1.1" id="Layer_1" xmlns="http://www.w3.org/2000/svg" xmlns:xlink="http://www.w3.org/1999/xlink" x="0px" y="0px"
	 width="100%" viewBox="0 0 256 288" enable-background="new 0 0 256 288" xml:space="preserve">
<path fill="#000000" opacity="1.000000" stroke="none" 
	d="
M18.648373,160.999878 
	C18.651337,138.342041 18.765400,116.183144 18.553379,94.027374 
	C18.516090,90.130760 19.541246,86.873291 22.656898,85.249580 
	C25.350506,83.845825 28.765491,83.829323 31.247873,86.826790 
	C32.148773,87.914619 33.727501,87.620293 35.047668,87.621468 
	C46.876263,87.631989 58.705204,87.575661 70.533249,87.656052 
	C73.483521,87.676109 75.517242,86.868233 75.531128,83.595901 
	C75.583435,71.268288 76.542839,58.822693 75.071762,46.674469 
	C74.534317,42.236195 72.651466,37.548092 72.679886,32.725079 
	C72.713310,27.053644 75.097862,24.675541 80.815468,24.670502 
	C117.634041,24.638041 154.452652,24.650753 191.271194,24.605408 
	C194.149094,24.601864 197.168304,25.342270 199.453247,22.289679 
	C200.353546,21.086895 202.660736,21.198006 203.982681,22.545063 
	C207.455124,26.083508 210.626572,25.301668 213.744034,22.023203 
	C217.738098,25.163296 221.786514,26.404074 225.979874,22.549740 
	C227.253677,21.378916 229.345535,21.126694 230.134995,21.844221 
	C233.358810,24.774330 235.847595,23.253046 239.248932,21.936724 
	C243.667435,20.226774 245.162964,21.940615 245.368896,26.625214 
	C245.487167,29.315464 244.410812,32.412804 247.638962,34.237343 
	C247.946686,34.411270 248.197006,35.428936 248.062546,35.535442 
	C243.696426,38.993755 247.348877,42.103859 248.129517,45.542625 
	C248.669662,47.921928 249.344238,50.865829 246.348419,53.211452 
	C244.403946,54.733898 244.627609,58.040405 246.242432,60.071220 
	C249.355759,63.986652 249.718719,67.492722 246.111877,71.216309 
	C245.633820,71.709816 245.326416,72.950203 245.607285,73.509697 
	C249.566864,81.396820 248.007629,89.866371 248.310898,98.129471 
	C248.388428,100.241882 248.700104,102.472572 246.387817,103.925415 
	C245.838181,104.270744 245.319473,105.854248 245.530884,106.045525 
	C249.388260,109.535408 245.633530,112.807404 245.468918,116.173515 
	C245.333862,118.934822 244.167007,122.162369 247.591660,124.296127 
	C248.876236,125.096474 248.323166,127.089561 248.324219,128.558548 
	C248.342804,154.381561 248.227783,180.205475 248.433914,206.026855 
	C248.471863,210.779236 245.098419,213.386246 242.570007,215.671249 
	C236.741409,220.938797 233.000168,228.298828 226.397171,232.485168 
	C218.048645,237.778183 212.907959,246.057159 205.949387,252.609695 
	C201.248047,257.036743 196.895325,261.919617 192.957794,267.037964 
	C190.815155,269.823151 188.583344,270.456238 185.399261,270.451843 
	C142.416519,270.392273 99.433647,270.428864 56.450806,270.433289 
	C45.632053,270.434418 34.810211,270.252197 23.996105,270.469116 
	C19.814049,270.553070 18.505053,269.062744 18.584473,264.982361 
	C18.795170,254.157440 18.644230,243.325699 18.669275,232.496765 
	C18.673763,230.555679 18.391781,228.628723 20.503164,227.186646 
	C21.775217,226.317856 21.971441,223.996933 20.806561,223.163803 
	C17.842171,221.043625 18.690281,218.153885 18.681084,215.477249 
	C18.619255,197.484970 18.648701,179.492371 18.648373,160.999878 
M158.499908,200.653915 
	C164.994583,200.643875 171.506210,200.341354 177.978561,200.716583 
	C183.134094,201.015442 184.842300,198.812592 184.662186,194.053207 
	C183.458450,162.244217 187.058594,130.341919 182.752274,98.577324 
	C182.303146,95.264481 181.115097,94.383102 178.077591,94.408424 
	C167.099594,94.499947 156.120239,94.423927 145.141403,94.420616 
	C125.836891,94.414787 106.531746,94.497063 87.228363,94.348862 
	C83.143425,94.317513 82.246796,95.978745 82.269958,99.734077 
	C82.411697,122.714729 82.341576,145.696686 82.342888,168.678207 
	C82.343307,176.005646 82.215607,183.336060 82.383278,190.659698 
	C82.566902,198.680099 84.702988,200.655899 92.552116,200.656082 
	C114.201378,200.656601 135.850632,200.654480 158.499908,200.653915 
M74.158661,203.526276 
	C76.422600,201.549561 75.601219,198.868652 75.605446,196.477585 
	C75.659721,165.812469 75.632660,135.147232 75.631424,104.482018 
	C75.631126,97.007980 73.840630,95.753395 66.497757,97.215195 
	C63.736980,97.764809 60.485203,98.320618 58.050262,94.741470 
	C57.537914,98.139595 55.274101,97.401482 53.345238,97.402802 
	C45.512337,97.408188 37.675995,97.529320 29.847969,97.330406 
	C25.943806,97.231209 24.233652,98.221481 24.260176,102.615822 
	C24.435192,131.613403 24.340633,160.612564 24.356165,189.611221 
	C24.356951,191.079941 23.784443,193.048492 25.087364,193.874939 
	C28.005907,195.726257 27.335884,198.451675 27.342552,200.998520 
	C27.383999,216.830933 27.333359,232.663605 27.383209,248.495956 
	C27.388689,250.236343 26.761786,252.158615 28.625837,254.239410 
	C37.138519,243.728867 46.684414,234.435196 56.741066,225.634094 
	C63.717106,219.529007 69.694565,212.542297 74.158661,203.526276 
M155.854523,85.789787 
	C158.629135,84.999123 161.465027,83.932281 162.962753,87.657730 
	C167.452698,84.617661 167.462555,84.586823 173.208176,86.424034 
	C174.513229,86.841339 175.487473,86.455627 176.401703,85.655510 
	C177.224365,84.935516 178.467926,84.381363 179.117996,85.030945 
	C183.323105,89.232841 185.239227,85.004036 187.730698,82.850868 
	C190.387924,80.554428 191.803452,77.694916 193.164581,74.386047 
	C194.236084,71.781258 198.117096,71.115051 199.714951,67.264816 
	C202.815140,59.794476 210.301239,55.055817 216.005096,49.745552 
	C220.450562,45.606812 224.475906,40.667263 229.481689,37.028965 
	C231.473877,35.580994 231.805283,33.626316 232.936447,31.470900 
	C231.836136,31.583157 231.172180,31.445087 230.891464,31.711239 
	C227.953140,34.497135 225.131332,36.064693 221.786865,32.100174 
	C220.976974,31.140144 219.463638,31.350185 218.356262,32.687275 
	C215.983612,35.552105 211.316010,34.005745 210.348938,33.310673 
	C205.304459,29.684954 199.951660,31.131443 195.087662,31.909338 
	C190.202652,32.690590 185.677399,36.222351 180.910721,31.716389 
	C180.555267,31.380369 179.264221,31.364534 179.025208,31.674974 
	C175.287354,36.529591 169.653702,34.603790 165.260590,34.570515 
	C157.552063,34.512138 149.426346,36.175587 142.033356,32.197693 
	C141.289398,31.797394 140.283096,31.789606 139.788315,32.630783 
	C138.065277,35.560143 135.189529,34.844582 132.633850,34.911804 
	C120.944870,35.219261 109.266212,33.780891 97.559006,34.827255 
	C93.203781,35.216515 88.732391,35.253292 84.950180,32.330410 
	C83.843010,34.253647 82.326073,35.567326 82.336082,37.836632 
	C82.403625,53.153469 82.364189,68.470779 82.355827,83.787941 
	C82.354973,85.358246 82.551933,87.327133 84.322960,87.315239 
	C90.248077,87.275429 96.507881,89.526367 102.007477,85.267464 
	C106.433372,88.662598 119.378464,88.691231 124.209854,85.229324 
	C125.083366,85.930328 126.003578,87.293282 126.842949,87.245209 
	C134.696457,86.795341 142.875198,90.185875 150.391403,85.218040 
	C151.847916,84.255356 153.853256,84.016983 155.854523,85.789787 
M200.907928,82.450653 
	C199.458420,85.492081 194.748505,84.402245 193.903061,86.985550 
	C192.814224,90.312592 191.224518,93.536888 191.254227,97.397667 
	C191.466949,125.052795 191.364502,152.710342 191.363312,180.367126 
	C191.363129,184.865479 191.232086,189.369202 191.408325,193.860748 
	C191.599670,198.737640 193.681061,200.633255 198.524826,200.643021 
	C210.353912,200.666870 222.186234,200.487900 234.010559,200.724991 
	C238.374359,200.812500 239.787033,199.406250 239.734482,195.007309 
	C239.523483,177.349426 239.716553,159.687012 239.582474,142.027634 
	C239.557755,138.772552 241.056396,134.945557 237.160660,132.511292 
	C236.531494,132.118164 236.593719,130.693726 237.294830,130.273987 
	C240.669876,128.253403 239.534119,124.973495 239.586288,122.152069 
	C239.731003,114.324226 239.616608,106.491882 239.644775,98.661453 
	C239.656662,95.355759 240.084152,91.961029 236.851593,89.824181 
	C239.904114,85.292236 240.996750,76.272949 238.406586,73.818245 
	C235.309540,70.883133 235.808533,66.956009 237.311462,64.765022 
	C241.885239,58.097347 238.612976,51.426876 239.510010,44.208714 
	C238.327789,44.918312 238.078033,45.131489 237.789078,45.232052 
	C234.147385,46.499516 233.727371,51.663040 230.110992,52.291050 
	C227.068466,52.819401 225.295227,54.655411 223.796082,56.523708 
	C220.234512,60.962296 217.132080,65.733696 211.530136,67.965874 
	C211.044159,68.159515 210.527863,68.999245 210.519440,69.546486 
	C210.478958,72.172333 209.367538,73.518456 206.631989,73.564835 
	C205.319992,73.587082 204.423447,74.564850 204.449219,75.868835 
	C204.500137,78.444855 202.684021,80.069901 200.907928,82.450653 
M178.684433,210.533661 
	C149.533676,211.272919 120.379211,211.038895 91.228874,210.637512 
	C86.349518,210.570312 82.468529,211.053864 79.120140,215.263504 
	C74.373085,221.231552 68.291039,226.193512 63.922237,232.390976 
	C59.549232,238.594421 51.232765,240.876282 48.718395,248.624191 
	C48.673092,248.763794 48.498661,248.951767 48.372139,248.961807 
	C42.253254,249.447678 40.886242,255.726074 36.686539,258.550903 
	C35.585110,259.291687 35.163319,260.290894 36.273056,261.645294 
	C39.005241,259.917572 41.974663,261.574280 44.702267,261.269714 
	C57.449615,259.846466 70.201164,260.964813 82.933441,260.786469 
	C114.919243,260.338470 146.915787,260.567474 178.907166,260.713135 
	C183.225510,260.732788 184.804901,259.449585 184.733154,255.037430 
	C184.519165,241.877487 184.541000,228.710312 184.722092,215.549423 
	C184.776031,211.630371 183.505798,209.893707 178.684433,210.533661 
M193.858170,249.541641 
	C195.816132,249.188721 197.375290,248.392502 198.798553,246.800858 
	C207.564819,236.997604 216.498978,227.344650 225.302460,217.574280 
	C226.101364,216.687653 226.640472,215.655579 227.982758,215.712189 
	C231.160568,215.846191 232.009903,213.613068 232.874039,211.311768 
	C232.424805,210.969086 232.168579,210.602707 231.912033,210.602478 
	C219.479721,210.591263 207.047363,210.629562 194.615067,210.616028 
	C191.452133,210.612579 191.361099,212.682419 191.368271,214.998825 
	C191.398590,224.804581 191.396088,234.610458 191.384277,244.416260 
	C191.382004,246.293686 191.425598,248.112686 193.858170,249.541641 
z"/>
</svg>