<svg version="1.1" id="Layer_1" xmlns="http://www.w3.org/2000/svg" xmlns:xlink="http://www.w3.org/1999/xlink" x="0px" y="0px"
	 width="100%" viewBox="0 0 240 256" enable-background="new 0 0 240 256" xml:space="preserve">
<path fill="#000000" opacity="1.000000" stroke="none" 
	d="
M241.000000,128.545898 
	C239.214493,130.525909 237.100555,130.963837 234.853821,131.610748 
	C228.819489,133.348221 222.654007,135.298203 217.522720,139.002869 
	C214.431152,141.234894 210.268753,139.831879 207.538010,143.358734 
	C204.596008,147.158508 200.034744,149.230286 195.095856,149.366852 
	C192.282120,149.444656 190.920715,151.796371 189.128479,152.952942 
	C180.351364,158.617004 170.158188,161.007980 160.937164,165.639267 
	C154.100342,169.073059 147.058960,172.708191 139.995926,175.946182 
	C137.434158,177.120590 133.932144,177.774078 131.882217,180.488342 
	C130.851196,181.853500 128.791611,181.779114 127.745224,180.948486 
	C122.730026,176.967316 116.082466,176.430130 110.977676,172.894089 
	C103.545685,167.746048 94.901093,165.089935 86.832085,161.491669 
	C80.575790,158.701721 74.232964,154.453049 68.146912,153.401108 
	C61.067028,152.177383 57.570953,144.474396 49.407219,145.783447 
	C46.536015,146.243835 41.346752,142.963867 38.280807,140.101776 
	C34.546371,136.615646 29.291113,137.837479 25.510185,134.683975 
	C22.886204,132.495407 19.270700,131.522858 16.784485,128.954712 
	C13.268623,125.322968 14.356788,119.977737 19.223175,118.960022 
	C22.274298,118.321930 24.860697,117.651031 27.584648,115.855217 
	C34.242569,111.465881 43.517879,111.665817 48.460911,104.100258 
	C54.818043,104.581688 58.645992,99.074173 64.180153,97.446960 
	C68.415039,96.201782 72.024719,93.190987 75.749512,90.948029 
	C79.695633,88.571793 84.496712,89.163246 88.012550,85.779343 
	C91.277802,82.636627 96.621178,82.240158 99.451225,78.200676 
	C100.073975,77.311790 100.789902,76.597534 101.860840,76.734253 
	C105.508987,77.199966 107.820206,75.409668 109.408127,72.398766 
	C110.026909,71.225479 110.929878,70.570419 112.191315,70.700943 
	C117.035423,71.202194 120.355545,68.243462 123.784554,65.615730 
	C125.252289,64.490959 126.014473,64.793327 127.542725,65.837547 
	C132.503693,69.227219 137.511612,72.814842 143.695206,73.588608 
	C146.421341,73.929733 148.276306,75.976974 150.344330,77.090118 
	C154.658615,79.412331 158.540253,82.268196 163.645187,82.694466 
	C165.802048,82.874580 167.136841,85.001312 168.630875,86.085312 
	C171.458069,88.136551 174.136734,88.610550 177.252121,88.652924 
	C178.111588,88.664612 178.752228,88.970459 179.347427,89.712563 
	C183.053207,94.332886 188.068832,96.225571 193.695801,97.956917 
	C200.723801,100.119339 207.632156,103.435577 213.743271,107.522896 
	C217.343216,109.930656 221.524231,109.807648 225.064423,112.291695 
	C227.672836,114.121910 231.079926,115.151085 233.609116,117.442001 
	C235.589828,119.236122 238.062302,118.327080 240.642685,118.886497 
	C241.000000,122.030594 241.000000,125.061188 241.000000,128.545898 
M157.556229,92.830299 
	C155.802109,92.401184 154.180511,91.920502 152.570938,90.836647 
	C144.801178,85.604630 136.312500,81.649666 127.847511,77.700272 
	C126.612862,77.124252 124.486237,76.964012 123.483078,77.650291 
	C119.427917,80.424461 114.736809,82.072144 110.735374,84.640366 
	C106.845619,87.136894 102.784004,89.619995 98.872627,92.014198 
	C92.379868,95.988487 84.984650,98.557060 77.813110,101.310181 
	C75.777321,102.091705 75.070236,104.859520 72.425171,104.371605 
	C68.325981,103.615479 65.134033,106.651047 62.383595,108.355339 
	C57.466022,111.402458 52.116116,113.525917 47.247623,116.563263 
	C43.416840,118.953217 40.002720,122.087036 35.368679,123.061470 
	C34.506977,123.242676 34.400372,124.316650 34.444302,125.184868 
	C34.513752,126.557541 35.284496,127.443665 36.597401,127.492531 
	C40.086731,127.622383 42.842583,129.958313 44.973728,131.839142 
	C50.060131,136.328156 56.619423,136.885406 62.376122,139.171982 
	C65.650047,140.472427 68.651688,142.423767 72.023117,143.574570 
	C78.051888,145.632431 82.285210,151.693741 89.381790,151.596664 
	C90.235634,151.584976 90.734619,152.221420 91.399162,152.677856 
	C94.478859,154.793182 97.722198,156.858292 101.418869,157.564301 
	C104.841911,158.218033 107.695419,159.788177 110.724846,161.341125 
	C116.062172,164.077148 121.639282,166.406067 127.279068,168.457062 
	C129.144028,169.135284 132.115585,169.528656 133.522308,167.956329 
	C138.403931,162.500000 145.914261,163.187836 151.604767,159.646667 
	C155.540909,157.197235 160.208527,155.932022 164.177917,153.525177 
	C170.188492,149.880676 175.707947,145.308716 183.316086,145.602142 
	C184.732193,145.656769 185.621292,144.702057 186.753128,144.006042 
	C192.564026,140.432709 198.465942,136.983063 204.504761,133.811371 
	C210.870560,130.467926 217.426666,127.486771 225.167007,123.732635 
	C221.404785,122.935028 220.118301,120.695732 218.157562,119.851074 
	C212.524948,117.424614 206.064804,116.781395 201.725937,111.658813 
	C201.221283,111.063011 199.867462,111.055443 198.896332,111.009880 
	C195.728073,110.861275 192.870071,110.394386 190.113281,108.309959 
	C186.803772,105.807602 182.785904,104.267204 179.130447,102.258507 
	C176.954102,101.062592 175.275345,98.136230 172.416748,98.669670 
	C166.430923,99.786667 162.528290,96.068695 157.556229,92.830299 
z"/>
</svg>