<svg version="1.1" id="Layer_1" xmlns="http://www.w3.org/2000/svg" xmlns:xlink="http://www.w3.org/1999/xlink" x="0px" y="0px"
	 width="100%" viewBox="0 0 192 208" enable-background="new 0 0 192 208" xml:space="preserve">
<path fill="#000000" opacity="1.000000" stroke="none" 
	d="
M160.670837,110.343445 
	C158.119156,113.414375 154.609604,114.519211 151.652298,116.414856 
	C149.025055,118.098923 147.496262,120.018425 147.384430,123.051933 
	C147.304733,125.213776 147.182404,127.395920 147.376160,129.542191 
	C148.207184,138.747543 145.636383,146.980713 141.706680,155.285355 
	C139.492905,159.963745 136.169754,163.764877 133.948181,168.308044 
	C133.439606,169.348129 132.188385,169.065140 131.353790,169.495789 
	C128.928436,170.747208 126.083061,171.371552 124.576897,174.086105 
	C124.126968,174.897034 123.073235,175.993256 122.364861,175.945221 
	C114.630379,175.420792 107.839485,181.571777 99.992767,179.267868 
	C95.555519,177.965012 91.092171,176.341827 87.085899,174.075653 
	C80.980972,170.622345 75.405861,166.312637 71.212265,160.519119 
	C67.270531,155.073547 64.159546,149.279755 63.619617,142.390518 
	C63.302025,138.338165 60.612953,134.681931 61.629227,130.375626 
	C61.892387,129.260513 61.406441,127.830658 61.931938,126.938423 
	C64.747696,122.157562 62.530106,121.013268 58.197105,118.860580 
	C55.486118,117.513741 51.171299,115.370087 50.503380,110.931625 
	C50.434795,110.475876 50.162193,109.901642 49.799469,109.661385 
	C42.567623,104.871315 39.654339,97.235138 38.294769,89.477425 
	C36.913570,81.596268 36.611713,73.369507 38.740902,65.353905 
	C40.167397,59.983704 41.399601,54.627483 45.435921,50.360298 
	C50.135300,45.392136 54.365002,39.998898 59.746056,35.661716 
	C61.503368,34.245300 63.572796,34.265766 65.304192,34.013901 
	C75.385109,32.547409 85.658401,29.654472 95.073158,36.743687 
	C99.933022,40.403118 106.749840,40.231621 111.262199,36.116066 
	C114.342453,33.306675 118.312195,34.031528 121.454941,33.497326 
	C129.606522,32.111748 137.785202,31.541336 146.080414,36.403214 
	C151.557327,39.613258 156.178833,43.094566 160.285812,47.647064 
	C162.153061,49.716862 164.285431,51.642906 164.408325,54.734539 
	C164.451859,55.829929 165.089569,56.623142 165.902206,57.217098 
	C170.491455,60.571346 170.785873,65.798347 171.225662,70.635307 
	C171.751221,76.415443 171.257278,82.281754 171.407516,88.105515 
	C171.474014,90.683006 171.319931,93.049377 169.441742,95.000664 
	C165.310532,99.292618 165.502914,106.056976 160.670837,110.343445 
M74.751282,151.936661 
	C76.772369,155.917130 78.249199,160.336868 83.252441,161.800247 
	C83.950912,162.004562 84.468430,162.875610 85.036613,163.469681 
	C89.634315,168.276764 95.096878,170.717789 101.904892,170.766068 
	C106.611206,170.799438 110.944550,169.243393 115.448166,168.779663 
	C124.414459,167.856400 130.978653,163.166351 134.916199,155.797989 
	C139.553741,147.119705 140.443939,137.319763 139.611206,127.465683 
	C139.465469,125.741142 138.310516,123.777542 137.106857,124.640785 
	C133.781006,127.026031 130.505768,124.296265 127.005386,125.218681 
	C123.916260,126.032730 118.906593,125.682343 116.106934,123.174919 
	C113.090218,120.473106 108.719429,120.245544 106.243500,116.760864 
	C105.546898,115.780449 103.310448,116.157013 102.053535,117.120720 
	C95.168785,122.399490 87.481239,124.957985 78.766647,124.420761 
	C76.618149,124.288315 74.441124,124.676743 72.284340,124.606575 
	C69.259163,124.508148 68.481430,125.881561 68.257950,128.808929 
	C67.625206,137.097565 68.907990,144.738403 74.751282,151.936661 
M48.479424,96.909286 
	C51.615692,104.344749 57.426365,109.225838 64.368973,113.431320 
	C65.851509,112.274429 66.890076,110.919456 67.748749,108.952324 
	C70.595718,102.430138 75.267868,97.399223 81.883919,94.525581 
	C85.639191,92.894493 87.814064,90.968140 87.783623,86.227180 
	C87.733208,78.375999 86.492561,70.444084 89.458992,62.639805 
	C91.679436,56.798119 92.581131,50.439369 97.747780,45.976994 
	C96.324303,45.401443 94.420609,46.346050 93.920799,44.887619 
	C92.065323,39.473366 87.664536,40.377174 83.564056,40.387756 
	C79.566849,40.398071 75.546684,40.120628 71.577446,40.454826 
	C64.636093,41.039268 57.644875,44.069801 54.837868,49.755630 
	C52.081253,55.339401 46.426849,58.950897 45.416157,65.862976 
	C44.899017,69.399673 45.341728,73.176460 44.134270,76.499657 
	C41.396980,84.033325 46.183651,89.968987 48.479424,96.909286 
M121.362076,69.298927 
	C123.414505,73.952110 125.031746,79.538429 122.906151,83.642120 
	C119.909081,89.428253 124.219704,90.876480 126.872887,92.266472 
	C132.577316,95.254951 136.514999,99.235191 138.615768,105.302895 
	C139.508774,107.882172 142.229492,109.384857 143.007538,112.314980 
	C143.419998,113.868301 145.646606,113.863419 146.671677,112.308640 
	C150.319550,106.775688 155.949188,103.061989 159.794830,97.705925 
	C162.707474,93.649330 162.333832,88.423744 164.183716,84.478523 
	C167.521805,77.359459 164.963898,70.692337 162.734314,65.508629 
	C159.852798,58.809147 156.559174,51.690838 149.411392,46.773743 
	C137.785492,38.776058 126.221809,39.050186 113.850655,42.890659 
	C111.884369,43.501068 111.390396,45.290699 112.043114,47.382896 
	C113.256432,51.271973 114.472664,55.040977 116.831207,58.543556 
	C118.817047,61.492638 121.921326,64.222031 121.362076,69.298927 
M111.647247,61.813934 
	C109.203941,58.169949 107.932739,53.668865 104.122696,50.987915 
	C99.274246,54.062794 97.189888,59.359638 94.988274,63.506580 
	C91.826126,69.462791 91.550911,77.061134 92.376534,84.205544 
	C92.791626,87.797462 95.518639,88.699806 97.599236,86.899818 
	C102.578949,82.591690 107.768089,85.303703 113.229149,85.050377 
	C113.016731,77.787819 115.424126,70.045959 111.647247,61.813934 
M133.916763,116.479668 
	C134.683823,115.357658 136.597794,115.894470 137.110687,114.084122 
	C134.627075,107.094078 128.044113,103.283516 123.313614,97.995552 
	C122.010460,96.538834 117.891357,96.310226 116.810249,98.916977 
	C115.823753,101.295578 114.268326,103.035713 113.012016,105.095993 
	C110.376228,109.418556 111.021233,112.301697 114.463585,113.538673 
	C118.600784,115.025337 123.133514,115.143875 126.883583,118.200890 
	C128.290024,119.347389 131.712601,119.697632 133.916763,116.479668 
M75.871025,115.699814 
	C77.521591,115.813232 77.123459,118.605171 78.039398,118.431297 
	C84.850975,114.500069 92.378021,115.066597 97.953987,109.694679 
	C92.688255,107.905792 93.495834,101.600891 89.642693,97.875336 
	C87.552261,100.384155 85.160255,101.594795 82.759476,102.947624 
	C78.665886,105.254364 76.030441,109.564018 73.822540,113.819946 
	C73.402954,114.628754 74.382217,115.251022 75.871025,115.699814 
M107.859924,100.629494 
	C109.061226,98.725662 110.737206,97.085625 111.345734,94.677055 
	C108.800301,92.441269 105.862823,93.709930 103.195969,93.420731 
	C100.541344,93.132843 98.330582,94.442192 97.770393,96.819809 
	C97.035400,99.939392 100.003532,101.479446 102.051361,102.863884 
	C104.007317,104.186218 106.532829,104.519516 107.859924,100.629494 
z"/>
</svg>