<svg version="1.1" id="Layer_1" xmlns="http://www.w3.org/2000/svg" xmlns:xlink="http://www.w3.org/1999/xlink" x="0px" y="0px"
	 width="100%" viewBox="0 0 256 288" enable-background="new 0 0 256 288" xml:space="preserve">
<path fill="#000000" opacity="1.000000" stroke="none" 
	d="
M257.000000,157.531586 
	C254.200562,156.899658 251.886490,156.998764 250.523026,160.247421 
	C248.885635,164.148727 244.396866,163.887924 241.473099,166.088364 
	C237.030701,169.431702 231.755875,171.952805 226.757034,174.258865 
	C220.882523,176.968887 216.872009,182.263275 210.104324,183.996475 
	C206.271118,184.978149 201.862823,189.304871 202.198929,195.673859 
	C202.724762,205.638062 202.200516,215.653183 202.413849,225.640488 
	C202.504517,229.884888 200.758896,234.595856 204.996918,238.176025 
	C205.701630,238.771362 205.327881,240.724686 205.334381,242.051056 
	C205.362915,247.879471 205.326797,253.708206 205.356369,259.536621 
	C205.376526,263.508881 206.125061,267.735321 200.557098,269.556763 
	C198.071548,267.138824 194.925201,264.854095 190.368378,263.675842 
	C186.815689,262.757202 183.766235,258.463348 179.708908,256.978760 
	C173.074905,254.551361 168.237442,249.342148 162.197128,245.905441 
	C154.555725,241.557800 146.362686,237.981155 139.366577,232.475266 
	C136.727371,230.398224 132.751266,230.436172 130.906570,231.832886 
	C126.826302,234.922256 122.093475,236.720413 117.808266,239.234268 
	C109.911835,243.866638 103.387047,250.444046 95.332245,254.522125 
	C92.141464,256.137573 89.080811,259.484833 84.694687,258.488281 
	C83.891701,258.305847 82.833710,258.682129 82.616539,259.542084 
	C81.349113,264.561127 76.064308,264.325439 72.880661,266.814514 
	C69.350601,269.574463 65.678192,266.848328 65.670502,262.024353 
	C65.634933,239.709396 65.584213,217.393967 65.718826,195.079773 
	C65.738625,191.799072 65.052055,189.240387 62.163605,187.632339 
	C56.470310,184.462799 51.062874,180.840851 45.264366,177.780991 
	C39.096077,174.525986 32.790337,171.190094 26.809101,167.381287 
	C22.021305,164.332443 17.278013,161.152328 12.499325,158.292740 
	C8.835061,156.100006 4.246859,155.360504 1.291023,151.179779 
	C1.000000,148.958328 1.000000,146.916672 1.000000,144.437500 
	C2.970998,144.681992 4.311097,144.790741 6.098939,142.741455 
	C9.091347,139.311478 13.122949,137.121567 17.561590,135.415375 
	C21.792442,133.789062 25.229944,130.024002 29.484303,128.552216 
	C35.064934,126.621628 37.921844,120.218407 44.701534,120.274979 
	C46.882950,120.293182 49.313652,118.088074 51.219242,116.428185 
	C53.539692,114.406906 55.692074,112.441490 58.524311,110.935532 
	C60.998020,109.620216 62.831680,107.065285 62.786606,103.248383 
	C62.523014,80.925972 62.638412,58.598778 62.701038,36.273407 
	C62.706287,34.401833 62.449150,32.610771 63.919342,30.695194 
	C68.289795,25.000738 70.814362,31.389414 74.182899,31.915480 
	C79.969154,32.819118 82.367493,38.920784 88.604530,40.414646 
	C94.076683,41.725304 100.490143,44.768742 104.357224,50.185604 
	C105.169189,51.322975 106.097633,51.680298 107.288055,51.613880 
	C110.253807,51.448410 112.608627,51.831318 112.512611,55.704700 
	C112.479240,57.051521 113.795555,57.809044 115.019455,57.552315 
	C118.768265,56.765957 121.119263,59.279682 122.847488,61.563774 
	C125.010208,64.422127 128.625809,63.741627 131.100006,66.144432 
	C132.580994,67.582710 136.343384,64.357338 138.007370,63.077431 
	C146.235321,56.748688 156.425552,53.869949 164.435547,46.901936 
	C167.510254,44.227207 172.745605,42.700382 176.582397,39.791027 
	C181.884918,35.770248 187.641891,32.471298 193.447891,29.205410 
	C195.403259,28.105505 196.948456,27.475098 198.806610,28.065636 
	C200.905899,28.732809 200.285797,30.835188 200.290756,32.386490 
	C200.345215,49.380394 200.168823,66.376846 200.411835,83.367508 
	C200.519409,90.888306 203.378738,98.214867 202.410477,105.880440 
	C202.255188,107.109856 202.846085,108.173508 204.207077,108.514465 
	C212.183838,110.512817 218.453384,115.553421 225.295090,119.732292 
	C230.123199,122.681259 235.403717,124.690315 239.402695,129.034210 
	C241.165390,130.948959 244.311157,129.700912 247.016876,131.403717 
	C250.324448,133.485275 252.686066,136.851227 256.717529,138.093018 
	C257.000000,144.354401 257.000000,150.708786 257.000000,157.531586 
M113.354362,188.146423 
	C116.318886,188.400803 118.716194,189.581009 120.043915,192.385300 
	C120.560867,193.477158 121.064789,194.484116 122.458801,194.588318 
	C126.563728,194.895081 129.046341,198.318451 133.084305,199.813034 
	C133.432495,196.006531 137.425720,198.664093 139.352539,196.507309 
	C145.520752,189.602936 156.507950,190.630112 162.258209,182.855209 
	C162.527863,182.490616 163.570160,182.784439 164.186249,182.575714 
	C171.275833,180.173843 178.766586,176.099442 179.164703,168.771393 
	C179.838715,156.365601 181.748505,143.624283 177.835800,131.252457 
	C177.404953,129.890060 178.124847,128.277069 178.135757,126.895706 
	C178.159546,123.883629 179.126953,120.026062 175.230499,118.508087 
	C171.493561,117.052254 167.964371,115.196014 165.233643,112.430527 
	C162.089294,109.246170 157.260361,108.244995 154.942703,104.072342 
	C154.667816,103.577423 153.437653,103.433594 152.649963,103.432709 
	C148.184921,103.427689 145.244797,100.012283 141.463486,98.579590 
	C137.864258,97.215881 134.900162,92.506569 130.591003,94.961555 
	C127.016777,96.997818 122.955116,98.346153 119.852280,100.804443 
	C117.462212,102.698036 113.881783,102.326057 112.434677,104.927979 
	C109.585724,110.050400 103.412476,110.725052 99.734322,114.883011 
	C98.732811,116.015167 96.475830,117.975876 94.206245,118.280815 
	C89.554436,118.905830 88.344772,121.984360 88.343437,126.036980 
	C88.338623,140.701996 88.331505,155.367020 88.352806,170.031998 
	C88.354698,171.333755 87.922951,173.486115 89.078659,173.731064 
	C93.680237,174.706299 95.389618,179.540115 99.745193,180.981674 
	C104.343529,182.503540 109.112251,184.092331 113.354362,188.146423 
M133.379852,210.557007 
	C128.804352,215.103058 124.071571,219.339798 117.074890,219.508240 
	C115.937202,219.535629 115.704659,220.953110 114.972786,221.391357 
	C112.179573,223.063889 111.608116,227.144836 108.694435,228.075150 
	C101.662331,230.320450 96.064949,235.185028 89.365959,238.060242 
	C87.174675,239.000763 85.215248,241.251236 82.962250,239.876572 
	C80.349327,238.282257 79.560608,235.305038 79.613052,232.078384 
	C79.753769,223.421066 79.729248,214.759003 79.620583,206.100723 
	C79.581787,203.009750 80.304268,199.799438 78.686775,196.558151 
	C77.170059,198.292328 74.308754,198.235565 74.325371,201.395432 
	C74.407654,217.048798 74.283447,232.703461 74.414551,248.356155 
	C74.443115,251.767456 76.890099,252.776154 79.330887,250.364349 
	C81.352127,248.367111 84.379929,246.403458 86.139122,246.235336 
	C95.002403,245.388306 99.653671,237.584290 107.004417,234.769043 
	C111.595963,233.010529 113.974991,228.793671 118.474091,226.874451 
	C122.164307,225.300262 126.662476,223.786194 128.978210,219.668427 
	C129.241058,219.201065 130.060532,218.798431 130.628723,218.789291 
	C136.679138,218.691757 140.508331,214.694260 144.662781,211.114532 
	C146.667694,209.386993 149.359604,206.649338 151.301086,206.976456 
	C158.694260,208.222198 160.755905,200.410431 166.523972,198.969696 
	C170.373535,198.008163 172.753311,193.672043 176.202301,192.123932 
	C179.942902,190.444946 179.908875,188.739838 179.049149,185.798187 
	C173.709030,186.275360 169.661301,188.854462 166.176239,192.285049 
	C160.001816,198.363007 153.106354,203.040085 144.367142,204.446304 
	C143.010712,204.664581 142.352066,205.594040 141.879395,206.648651 
	C140.342667,210.077316 137.564880,210.861603 133.379852,210.557007 
M60.838234,169.101944 
	C55.907246,164.894104 49.265919,163.005280 45.218391,157.592911 
	C45.139729,157.487732 44.907772,157.460297 44.746799,157.458908 
	C39.463360,157.413040 35.626213,154.120193 31.251968,151.846512 
	C28.876751,150.611893 27.068733,149.836563 27.778925,147.053070 
	C28.419754,144.541458 29.426910,142.508270 32.561172,141.512115 
	C37.452770,139.957458 41.455997,136.405258 46.287369,134.365982 
	C49.325569,133.083603 51.931248,130.532440 55.336174,129.559311 
	C58.279228,128.718185 62.394829,121.875389 61.349861,118.839706 
	C59.144314,124.575455 51.770443,123.890129 49.731670,129.522980 
	C49.584637,129.929214 48.579815,130.248337 47.984493,130.231476 
	C44.926411,130.144836 42.619663,131.697906 39.927017,132.891220 
	C32.177597,136.325562 25.580544,141.424866 18.518084,145.844467 
	C17.186729,146.677612 16.879128,148.429596 17.816164,149.341614 
	C19.497536,150.978104 20.595524,153.909927 23.508884,153.536774 
	C26.738497,153.123108 28.296921,154.961731 29.869225,157.155182 
	C30.433277,157.942047 31.054853,159.041794 31.849190,159.254105 
	C38.945087,161.150482 44.296326,166.436798 51.072330,169.111511 
	C53.245121,169.969193 56.624569,170.742508 57.955044,172.815506 
	C61.454060,178.267288 67.891174,179.083023 72.258537,182.864853 
	C75.020493,185.256531 78.418015,186.291122 81.375374,187.732773 
	C86.523689,190.242462 90.531822,195.735580 97.246780,194.781494 
	C98.643784,194.582993 99.038071,195.920868 99.695366,196.887634 
	C102.759941,201.395035 108.498375,202.314285 112.338181,206.100037 
	C113.725319,207.467621 118.857620,209.128036 122.363579,205.444733 
	C119.732925,204.605240 119.229462,201.995331 116.378769,200.902115 
	C112.133385,199.274063 107.167244,197.158585 104.305534,194.130676 
	C97.997551,187.456329 88.934448,186.590225 82.089699,181.422012 
	C76.864212,177.476425 69.737343,176.348541 65.622429,170.695679 
	C64.506905,169.163223 63.026489,169.501450 60.838234,169.101944 
M159.965469,233.340347 
	C161.375946,234.158401 161.395340,236.340591 163.471741,236.609055 
	C169.037094,237.328644 173.119568,241.397034 177.813171,243.858047 
	C182.008759,246.057968 186.584778,248.015030 190.521133,251.008224 
	C192.711685,252.673889 193.566711,250.178909 193.600204,248.191971 
	C193.673126,243.863770 193.603790,239.533203 193.671509,235.204849 
	C193.694153,233.757568 193.471939,232.297958 194.575455,230.956375 
	C197.790710,227.047409 197.775269,223.008530 194.627563,219.030563 
	C193.800217,217.985016 193.680847,217.082230 194.525833,215.923431 
	C196.370453,213.393784 192.857285,210.189438 195.463272,207.696167 
	C192.399124,205.454193 193.738724,202.166672 193.722015,199.366516 
	C193.595871,178.219666 193.606781,157.071594 193.690613,135.924362 
	C193.703598,132.646866 193.307251,129.952164 189.368073,128.926132 
	C189.368073,160.795273 189.365219,192.587128 189.384094,224.378967 
	C189.384583,225.193939 189.357513,226.205002 189.791901,226.793442 
	C194.301895,232.902878 187.695541,237.561157 188.921600,244.404785 
	C184.318771,240.538940 179.933762,239.718262 176.605209,237.167511 
	C171.512161,233.264572 165.183746,231.544235 160.389557,226.925812 
	C157.338577,223.986664 153.220261,221.274506 148.157791,222.370117 
	C146.958221,222.629761 145.775589,222.780441 145.574341,224.220596 
	C145.412613,225.377838 145.344254,227.022217 146.653763,227.221283 
	C150.180817,227.757446 152.301636,231.961365 156.486298,230.747116 
	C157.830383,230.357101 159.091690,231.104202 159.965469,233.340347 
M74.345665,94.499924 
	C74.342621,116.155884 74.421188,137.812454 74.259300,159.467224 
	C74.231049,163.245636 74.872551,166.100433 79.850464,168.058289 
	C79.850464,128.966141 79.850464,90.433823 79.850464,51.392406 
	C85.061775,54.151894 88.540031,57.727051 93.705231,57.381039 
	C94.760078,57.310379 95.632347,57.568104 96.225182,58.581421 
	C99.087769,63.474384 104.661339,65.245392 108.632339,68.969368 
	C111.563286,71.718002 116.499153,74.898361 122.028038,71.535210 
	C114.879005,68.966240 110.282120,63.077419 103.817734,59.966465 
	C99.218628,57.753174 94.810936,55.094704 90.491066,52.361134 
	C85.544655,49.231094 78.743408,49.761600 75.391068,43.582970 
	C74.948311,43.851109 74.505554,44.119251 74.062798,44.387394 
	C74.157249,60.758228 74.251694,77.129066 74.345665,94.499924 
M234.919357,139.111588 
	C239.576431,145.798080 239.946579,149.459488 235.091858,152.877991 
	C232.144623,154.953323 229.224548,158.106766 224.814301,157.406525 
	C223.718689,157.232574 222.194794,157.154602 221.700790,158.429214 
	C219.499207,164.109695 212.077454,163.572098 209.488892,168.783356 
	C209.297089,169.169479 208.259460,169.332367 207.642242,169.279755 
	C201.528244,168.758591 201.774277,172.273041 202.962021,177.052307 
	C219.263260,167.344223 235.158554,157.704880 250.498886,146.994873 
	C232.573105,135.355896 215.190018,125.031326 196.810989,115.401573 
	C197.131439,118.196571 197.121918,119.870148 200.241287,120.885406 
	C202.725830,121.694046 205.406845,122.965973 207.692932,124.266212 
	C210.947144,126.117081 214.828659,127.687248 217.304352,129.767700 
	C221.290359,133.117310 224.734100,135.890411 230.033478,136.576981 
	C230.790619,136.675064 232.604126,138.444000 234.919357,139.111588 
M115.111954,91.427681 
	C116.347382,91.002083 118.110779,90.956924 118.734856,90.090820 
	C123.811852,83.044922 133.029633,83.624901 139.258560,78.686668 
	C144.325180,74.669891 151.185974,73.448936 155.534515,68.030426 
	C157.160141,66.004799 160.129944,64.193611 162.379410,63.514320 
	C168.491104,61.668701 171.843704,56.708473 177.197800,53.785809 
	C175.445312,52.369068 174.273743,52.098728 173.203262,52.763275 
	C166.758392,56.764244 161.704361,62.502575 154.226944,65.472481 
	C149.258820,67.445740 143.932785,70.055260 139.597000,73.593941 
	C136.606628,76.034569 132.015671,75.130699 130.022339,77.548347 
	C126.464714,81.863251 119.734512,81.957870 117.566032,87.691483 
	C117.448105,88.003296 116.711082,88.153603 116.236298,88.246590 
	C111.421928,89.189644 108.177368,92.667465 104.449745,95.404366 
	C101.788086,97.358627 99.388954,99.724144 95.894699,100.441017 
	C92.273788,101.183876 88.820030,104.931175 88.944321,107.030022 
	C98.235168,103.462868 106.501312,97.815323 115.111954,91.427681 
M202.335526,140.799515 
	C202.335526,146.690186 202.335526,152.580841 202.335526,158.542603 
	C204.783356,158.582535 206.026749,157.162079 207.198288,156.463196 
	C211.466141,153.917160 216.777496,152.775375 219.495087,147.878403 
	C220.933365,145.286697 221.426514,143.742416 217.969147,142.221985 
	C212.858078,139.974304 208.065369,137.002670 203.116623,134.328247 
	C201.914902,136.277634 202.498444,138.138687 202.335526,140.799515 
M102.526123,76.242111 
	C98.341713,72.936134 93.559616,70.749153 88.603012,68.807976 
	C88.603012,76.373505 88.603012,83.920494 88.603012,91.581688 
	C95.455956,90.327560 100.387466,86.583954 104.850700,81.842491 
	C107.744987,78.767769 107.570717,77.115929 102.526123,76.242111 
M170.597702,207.225601 
	C166.331161,208.125565 164.490433,211.993423 161.856430,214.749496 
	C160.549850,216.116638 161.205154,218.293884 163.831024,218.623886 
	C164.948929,218.764389 166.038956,218.693054 167.053345,219.583115 
	C170.542236,222.644409 174.486893,224.856079 179.437851,225.352783 
	C179.437851,217.727066 179.437851,210.131943 179.437851,202.536819 
	C177.592651,205.807144 172.620377,203.092056 170.597702,207.225601 
M194.083618,115.512184 
	C192.669693,110.162041 187.412354,108.948311 183.603546,106.658257 
	C178.613312,103.657883 173.256470,101.516197 168.487518,97.786270 
	C162.293060,92.941422 155.054398,89.374916 148.046661,85.671761 
	C146.540421,84.875816 143.483398,84.421295 142.541275,87.271683 
	C141.922760,89.142952 143.003876,90.270218 145.109085,90.644913 
	C152.539948,91.967476 158.732635,95.785950 164.137772,100.854698 
	C165.184967,101.836716 166.016617,102.779305 167.414154,102.593277 
	C171.086639,102.104408 173.252182,104.368622 175.265396,106.804359 
	C175.919128,107.595261 176.408813,108.639175 177.493546,108.508171 
	C181.881058,107.978302 183.952393,111.318077 186.996017,113.361435 
	C188.776855,114.557022 190.663406,118.369926 194.083618,115.512184 
M167.909027,86.770401 
	C170.560135,88.599426 174.438919,86.350197 177.015442,89.803993 
	C177.605881,82.885773 177.928787,76.300629 177.477524,69.768974 
	C177.230499,66.193565 174.713943,67.213882 172.439987,68.485077 
	C168.352859,70.769897 165.594116,74.901184 161.093430,76.550354 
	C159.737015,77.047386 159.419159,77.972488 159.456650,79.240433 
	C159.489014,80.334778 159.849136,81.411751 160.982513,81.455139 
	C164.258286,81.580559 165.350143,84.531204 167.909027,86.770401 
M183.372406,50.685841 
	C185.751068,51.817554 186.402130,53.680237 186.376312,56.286118 
	C186.257568,68.276123 186.381332,80.268326 186.321228,92.259262 
	C186.306473,95.198830 186.889648,97.328255 190.645004,97.122612 
	C190.645004,81.638313 190.644897,66.158516 190.645111,50.678719 
	C190.645142,48.634083 190.777267,46.742416 187.806259,46.402470 
	C184.718765,46.049191 183.523758,47.372616 183.372406,50.685841 
M90.336998,221.159042 
	C90.760109,225.769058 92.656494,225.097702 95.807549,223.135941 
	C98.426147,221.505707 100.649734,219.174591 103.981712,218.532028 
	C107.695946,217.815750 107.440094,215.625031 105.099380,213.313126 
	C101.924065,210.176849 97.764259,208.379745 94.584343,205.084717 
	C92.043839,202.452240 88.885567,204.647552 88.238731,208.386215 
	C87.486687,212.732895 90.512794,216.210098 90.336998,221.159042 
M52.468544,143.666931 
	C51.976982,145.881653 49.263355,144.888901 48.651978,145.843597 
	C50.500122,153.081955 58.481556,153.369034 61.345417,159.141953 
	C65.482643,154.937958 67.325043,148.693420 64.799751,146.006439 
	C62.916908,144.003036 62.065910,143.018677 64.634315,141.089890 
	C65.884850,140.150772 66.125969,138.344864 64.904884,137.110565 
	C63.733826,135.926834 61.937561,135.944672 60.875622,137.134125 
	C58.585091,139.699661 54.902691,140.303406 52.468544,143.666931 
z"/>
</svg>