<svg version="1.1" id="Layer_1" xmlns="http://www.w3.org/2000/svg" xmlns:xlink="http://www.w3.org/1999/xlink" x="0px" y="0px"
	 width="100%" viewBox="0 0 240 288" enable-background="new 0 0 240 288" xml:space="preserve">
<path fill="#000000" opacity="1.000000" stroke="none" 
	d="
M214.057846,226.630005 
	C224.337219,226.880249 231.330536,233.956802 231.373825,243.710815 
	C231.384888,246.202209 231.364395,248.693756 231.356567,251.185226 
	C231.335678,257.828918 227.492050,262.435181 221.044006,263.457550 
	C219.861572,263.645050 218.761490,263.738037 218.191406,265.034943 
	C217.694717,266.164917 216.221329,266.533539 215.739502,265.863983 
	C212.802780,261.782837 208.273239,264.256500 204.311417,262.831818 
	C203.942795,260.130280 202.150620,257.989166 200.483841,255.645920 
	C194.969498,247.893600 195.873215,233.753632 206.182343,229.594421 
	C208.654526,228.597015 210.335938,225.618439 214.057846,226.630005 
M209.333923,249.810471 
	C209.190140,253.323135 211.316788,253.780502 214.177780,253.619110 
	C218.150436,253.394989 221.164795,251.496704 222.493393,247.960037 
	C223.899094,244.218124 221.126648,241.363708 218.321320,240.016785 
	C215.728668,238.771973 212.190231,238.281509 209.528458,240.811661 
	C206.777740,243.426346 207.040085,246.265900 209.333923,249.810471 
z"/>
<path fill="#000000" opacity="1.000000" stroke="none" 
	d="
M172.696136,128.651550 
	C177.599518,127.912460 178.578659,131.860123 180.340866,134.335587 
	C182.670334,137.607880 185.121689,141.051926 185.316360,145.294144 
	C185.598740,151.447815 178.685745,159.641266 173.418015,162.864990 
	C168.393539,165.939835 164.518967,166.061035 160.221222,162.651749 
	C156.679016,159.841812 153.096497,157.432175 151.194321,152.625610 
	C149.587738,148.565933 147.633133,145.313568 149.680344,140.857254 
	C153.468689,132.610855 159.182144,127.722893 168.747467,128.627197 
	C169.901215,128.736282 171.073746,128.646622 172.696136,128.651550 
M171.889175,141.448074 
	C169.547653,138.984741 166.834610,137.539597 163.689835,139.724533 
	C160.966660,141.616562 158.801270,144.777466 160.864853,147.654083 
	C162.681412,150.186295 163.988754,154.706512 169.420883,152.846634 
	C174.373886,151.150742 175.910568,146.819962 171.889175,141.448074 
z"/>
<path fill="#000000" opacity="1.000000" stroke="none" 
	d="
M129.225433,23.639942 
	C133.330780,23.641459 134.914154,26.240499 136.289581,29.074200 
	C138.994339,34.646645 138.273788,40.626678 138.339584,46.512421 
	C138.400330,51.944477 135.435547,55.486473 130.712311,57.277176 
	C128.574600,58.087631 127.761818,60.418789 124.914719,60.515209 
	C116.229408,60.809338 107.985611,53.010555 107.530052,44.186699 
	C107.234535,38.462845 108.196037,33.203266 110.908539,28.337561 
	C112.432762,25.603407 116.116943,25.805017 118.578461,23.892887 
	C122.077148,21.175064 122.540031,21.677364 129.225433,23.639942 
M129.525208,37.874496 
	C127.936394,34.683208 125.774132,32.518681 121.806328,33.455879 
	C119.158630,34.081261 118.101768,36.284981 117.538872,38.437408 
	C116.085060,43.996578 117.966110,47.988651 123.798256,49.514111 
	C127.227394,46.769577 130.476395,43.749104 129.525208,37.874496 
z"/>
<path fill="#000000" opacity="1.000000" stroke="none" 
	d="
M89.681015,139.388931 
	C92.732628,142.563507 92.520775,149.792664 91.283463,153.330032 
	C88.856758,160.267761 82.225342,161.454010 77.344467,164.957169 
	C74.339180,167.114136 62.954441,162.282074 62.089115,158.054230 
	C61.315617,154.275055 58.036419,151.819336 58.422951,147.316391 
	C59.087639,139.573090 63.100849,134.132599 68.323593,129.313736 
	C70.481964,127.322281 74.944542,130.131104 76.126953,126.744453 
	C83.758537,127.689285 89.185867,130.811722 89.681015,139.388931 
M73.054489,152.585678 
	C74.213356,152.598923 75.375168,152.671753 76.530571,152.614777 
	C80.848663,152.401825 83.787933,149.197479 83.617050,144.940918 
	C83.477638,141.468460 80.228462,138.494141 76.568253,138.488388 
	C70.787064,138.479309 68.501694,140.360901 68.353943,145.181229 
	C68.255363,148.397400 69.488304,150.862625 73.054489,152.585678 
z"/>
<path fill="#000000" opacity="1.000000" stroke="none" 
	d="
M42.522369,257.101990 
	C37.746685,265.573914 29.995136,263.176544 23.004578,263.311340 
	C20.922258,263.351501 20.214600,261.545807 19.225714,260.424011 
	C15.299823,255.970383 11.818954,250.926804 12.836058,244.742722 
	C13.640593,239.851044 16.363602,235.344757 18.290428,230.758865 
	C20.341898,225.876312 31.017437,225.229950 35.778885,228.736328 
	C42.112537,233.400513 46.904575,238.804123 46.405060,247.461044 
	C46.194988,251.101791 42.549202,253.183640 42.522369,257.101990 
M27.150846,238.759842 
	C26.729198,239.003937 26.269857,239.200317 25.891558,239.499268 
	C20.396011,243.842117 20.116568,247.274033 24.126989,251.241272 
	C26.205698,253.297577 28.278011,253.501404 30.795866,253.646942 
	C34.526817,253.862610 34.117672,251.089432 35.003273,248.803345 
	C37.518772,242.309814 37.102654,241.226425 29.817360,239.385712 
	C28.910202,239.156509 28.744148,237.405945 27.150846,238.759842 
z"/>
<path fill="#000000" opacity="1.000000" stroke="none" 
	d="
M133.316757,259.338989 
	C130.406815,261.674866 127.631287,263.817932 124.709961,265.739380 
	C122.947433,266.898651 120.769424,266.644073 118.874802,266.229340 
	C110.468666,264.389404 105.656204,258.252197 105.637810,249.647736 
	C105.630341,246.154037 105.524399,242.654663 105.683434,239.167908 
	C105.911652,234.164612 110.647011,229.567245 115.625175,229.691635 
	C120.727112,229.819107 125.664978,229.154266 130.751205,232.203751 
	C134.084488,234.202240 132.528534,237.888367 135.700089,239.591309 
	C137.736008,240.684479 136.288300,252.620804 134.342560,254.820236 
	C133.156815,256.160553 133.616959,257.629364 133.316757,259.338989 
M127.501472,244.926208 
	C127.709564,242.799530 125.495636,242.484207 124.661438,241.132278 
	C123.205025,238.771957 120.711197,238.829391 118.914864,239.800308 
	C115.306900,241.750427 113.802330,245.063995 114.298309,249.332886 
	C114.553749,251.531448 114.942383,252.926880 117.417816,253.665939 
	C122.823586,255.279846 127.307976,251.872574 127.501472,244.926208 
z"/>
</svg>