<svg version="1.1" id="Layer_1" xmlns="http://www.w3.org/2000/svg" xmlns:xlink="http://www.w3.org/1999/xlink" x="0px" y="0px"
	 width="100%" viewBox="0 0 256 224" enable-background="new 0 0 256 224" xml:space="preserve">
<path fill="#000000" opacity="1.000000" stroke="none" 
	d="
M104.453827,165.742538 
	C102.261253,168.042984 99.318016,167.973679 96.995453,169.781296 
	C94.488235,171.732620 92.617020,169.560989 92.637100,166.258438 
	C92.706985,154.766769 92.657036,143.274368 92.659584,131.782257 
	C92.661270,124.162300 89.496620,119.937126 82.258202,117.422035 
	C75.287781,115.000061 69.430420,110.381409 62.851917,107.152321 
	C61.778923,106.625641 60.903866,105.538910 59.519588,105.402260 
	C55.929596,105.047897 54.980053,102.237350 54.796268,99.462044 
	C54.618378,96.775696 53.484161,93.698608 57.707504,92.078209 
	C65.673157,89.021957 71.829422,82.807411 79.180794,78.741028 
	C82.194763,77.073853 85.166405,74.278183 89.261490,74.533310 
	C92.748825,74.750565 92.601379,72.024284 92.606926,69.655022 
	C92.636169,57.163609 92.615242,44.671959 92.692924,32.180897 
	C92.703682,30.450365 91.922974,28.213261 93.843620,27.153620 
	C95.783119,26.083576 97.301270,27.903534 99.042160,28.490562 
	C106.578499,31.031822 111.731834,36.936989 118.184280,40.940010 
	C118.725006,41.275459 119.457130,41.648701 120.019020,41.548485 
	C124.215790,40.799961 126.515945,42.930893 128.829361,46.183907 
	C130.506271,48.541897 134.078033,48.559898 135.949982,46.486576 
	C138.448364,43.719414 141.141922,42.487633 144.552338,41.050209 
	C149.346313,39.029636 154.772110,37.167145 158.512344,32.861519 
	C161.539276,29.377035 167.363281,29.399868 169.304001,24.349701 
	C169.628937,23.504156 171.104828,23.545908 171.922668,24.369886 
	C174.153824,26.617796 174.436981,34.223801 173.139694,37.366238 
	C171.815262,40.574501 171.308121,44.213097 173.758911,47.240509 
	C175.870346,49.848740 176.240738,52.200012 173.682587,54.557491 
	C172.083420,56.031219 171.950592,58.001072 172.464127,59.639500 
	C175.224426,68.446266 178.500305,76.825592 188.354980,80.408684 
	C195.501617,83.007141 201.345856,88.259827 208.208420,91.292870 
	C212.577805,93.223999 213.945465,95.428246 213.344009,99.721794 
	C213.133881,101.221756 212.698044,102.142502 211.088959,102.494812 
	C206.013718,103.606018 202.220734,107.244331 197.779602,109.599487 
	C192.350220,112.478737 186.320404,114.720276 182.429749,119.973549 
	C182.346848,120.085503 182.124954,120.165367 181.979523,120.150024 
	C173.617645,119.267838 175.377151,125.262352 175.360657,129.962097 
	C175.319733,141.620667 175.375534,153.279663 175.305023,164.937958 
	C175.294647,166.655350 176.095078,168.964264 174.028000,169.878265 
	C172.060699,170.748169 170.320068,170.151108 168.233292,168.675949 
	C159.506592,162.506851 150.842957,156.088547 140.590790,152.535202 
	C138.951675,151.967087 138.715134,150.293121 137.289597,149.700531 
	C133.277664,148.032806 130.076157,149.007751 126.066124,150.916504 
	C119.910675,153.846451 115.679115,159.490540 109.125061,161.659256 
	C107.409729,162.226868 106.137154,164.132523 104.453827,165.742538 
M157.710083,80.874611 
	C157.163254,80.255043 156.732895,79.424271 156.051590,79.048508 
	C149.102371,75.215767 141.819122,71.993935 135.380127,67.229851 
	C133.791199,66.054230 131.000931,65.577873 129.698349,66.920334 
	C125.426178,71.323334 118.004753,71.201263 115.044624,77.373215 
	C114.780617,77.923668 113.667511,78.272522 112.912216,78.347649 
	C108.646187,78.771950 107.481941,81.799835 107.410370,85.284958 
	C107.243095,93.430740 107.420128,101.583054 107.320015,109.731033 
	C107.285721,112.521622 108.687561,115.636620 110.541519,115.895203 
	C113.788155,116.348030 115.907425,118.423462 118.174065,119.888687 
	C121.682320,122.156532 126.340958,122.625610 128.691788,127.051651 
	C130.119629,129.739944 133.352463,129.082336 135.801422,127.657982 
	C141.896240,124.113136 147.682190,119.930870 154.049500,116.997093 
	C158.527954,114.933609 160.414398,111.946945 160.542557,107.568047 
	C160.746841,100.589256 160.593277,93.600349 160.622009,86.615860 
	C160.630753,84.491005 160.041824,82.686378 157.710083,80.874611 
M98.407555,102.808426 
	C98.580025,103.877220 98.000748,105.206573 99.940269,106.071533 
	C99.940269,92.134171 99.940269,78.444260 99.940269,64.754349 
	C99.428360,64.753159 98.916451,64.751968 98.404541,64.750771 
	C98.404541,77.164124 98.404541,89.577477 98.407555,102.808426 
M92.603333,95.264481 
	C92.432182,94.185226 92.667961,92.265343 91.251953,92.573952 
	C88.513481,93.170776 84.773834,93.397202 84.497505,97.082886 
	C84.327629,99.348610 85.638474,101.766068 88.908394,101.764511 
	C89.818527,101.764076 90.729073,102.646065 91.643326,103.125267 
	C92.731499,100.659256 92.676392,98.330414 92.603333,95.264481 
M155.542068,54.096958 
	C154.511154,54.525829 153.480240,54.954704 152.203796,55.485722 
	C154.164474,58.405083 155.703659,62.621143 159.077728,61.943214 
	C162.109131,61.334133 160.211731,57.103615 160.570755,54.486084 
	C160.592407,54.328270 160.549881,54.158897 160.522064,53.997513 
	C160.346252,52.977200 159.963028,52.139896 158.847122,51.810242 
	C157.124313,51.301296 156.470139,52.342926 155.542068,54.096958 
M159.830658,141.842880 
	C161.247375,139.041718 160.801743,136.233307 160.063400,133.146240 
	C156.856384,134.359039 152.871292,133.998917 152.805878,139.104538 
	C155.821365,138.253311 156.065781,143.009445 159.830658,141.842880 
M113.518578,139.153824 
	C115.075714,134.645126 114.458366,134.145767 107.628876,134.520508 
	C107.409035,136.568497 107.080338,138.622238 107.919128,140.841461 
	C109.602821,139.722855 111.252487,139.641052 113.518578,139.153824 
M111.979843,54.483868 
	C107.192352,54.957764 106.888039,55.446777 108.149277,60.639370 
	C115.410637,57.999443 115.410637,57.999443 111.979843,54.483868 
M100.285568,53.581345 
	C100.544830,48.477600 101.081268,43.355175 99.573616,38.349667 
	C98.580910,43.879799 98.386162,49.369484 99.213432,54.862160 
	C99.467392,54.779202 99.743591,54.732773 99.965752,54.597569 
	C100.073601,54.531933 100.080307,54.300091 100.285568,53.581345 
M105.629822,152.802612 
	C103.445312,152.414459 101.260811,152.026291 99.033806,151.630585 
	C98.304558,153.731873 97.634682,155.747696 99.819481,157.051910 
	C101.660202,158.150772 102.895576,156.956573 103.756409,155.338882 
	C104.655174,153.649887 107.000320,155.094009 107.943245,153.515854 
	C107.539543,152.597778 106.807571,152.919464 105.629822,152.802612 
M182.353455,98.003227 
	C183.355423,95.655334 181.629715,94.691772 180.041687,93.979759 
	C178.790085,93.418602 177.295670,93.879257 176.610077,95.116982 
	C175.620667,96.903236 175.577988,98.758446 177.246674,100.273872 
	C178.914093,99.505737 180.375397,98.832550 182.353455,98.003227 
M110.651237,151.096634 
	C113.930679,152.129761 114.964783,150.082336 115.804245,147.353561 
	C112.016037,145.739685 111.527115,150.825607 108.637115,150.692917 
	C109.115219,150.800140 109.593330,150.907364 110.651237,151.096634 
z"/>
</svg>