<svg version="1.1" id="Layer_1" xmlns="http://www.w3.org/2000/svg" xmlns:xlink="http://www.w3.org/1999/xlink" x="0px" y="0px"
	 width="100%" viewBox="0 0 256 272" enable-background="new 0 0 256 272" xml:space="preserve">
<path fill="#000000" opacity="1.000000" stroke="none" 
	d="
M147.428467,273.000000 
	C145.002594,268.100067 142.552109,263.693115 138.683685,259.751312 
	C134.927948,255.924332 132.824158,250.581818 130.558914,245.592117 
	C130.356232,245.145676 130.323410,244.446030 129.990753,244.260773 
	C123.584732,240.693542 123.400314,232.445709 117.893021,228.199051 
	C117.317947,227.755600 116.696617,226.752853 116.807968,226.138519 
	C117.557892,222.001007 114.916687,219.454941 112.693863,216.645767 
	C109.414108,212.500824 107.632233,207.518616 105.128006,202.984726 
	C102.740990,198.663040 100.788834,193.826431 96.581886,190.329773 
	C93.406136,187.690186 92.152306,183.039932 90.160614,179.361053 
	C88.768959,176.790527 86.376900,175.063751 85.430412,172.502548 
	C83.188339,166.435471 75.928467,161.561234 78.947800,154.424164 
	C81.171150,149.168625 80.997810,143.734177 82.655594,138.573029 
	C82.754128,138.266266 83.184128,137.982849 83.150887,137.729034 
	C82.232719,130.718384 86.441032,124.721764 86.974113,117.838341 
	C87.472496,111.402748 88.792458,104.676178 91.959183,98.661064 
	C92.538460,97.560738 92.810501,96.039024 92.594589,94.823708 
	C91.540298,88.889328 93.206352,82.892250 95.219154,77.972794 
	C97.282455,72.929901 95.924278,67.501633 98.036995,63.456066 
	C100.790428,58.183582 99.055023,52.531898 101.059669,47.937778 
	C104.006607,41.184204 104.052887,34.121334 105.664276,27.270483 
	C106.268318,24.702379 107.524055,23.843325 109.205627,25.933681 
	C112.190277,29.643887 116.731262,32.306805 117.493019,37.613205 
	C117.559380,38.075478 117.801575,38.613091 118.139565,38.920719 
	C123.350922,43.663765 124.550735,51.204384 129.013962,55.928593 
	C133.073517,60.225548 135.077011,65.472473 137.910416,70.095398 
	C141.342300,75.694733 146.994278,79.655350 149.319107,85.326897 
	C151.093643,89.656006 155.779892,92.432289 155.538803,97.651924 
	C155.510162,98.272285 156.385010,98.975357 156.915543,99.574081 
	C161.064087,104.255867 164.460342,109.383095 166.507996,115.349022 
	C166.760681,116.085175 167.332718,116.748924 167.869705,117.344391 
	C172.172913,122.116158 174.501160,128.050339 177.714935,133.459030 
	C180.283264,137.781418 181.200211,140.806686 177.594101,144.582611 
	C177.069672,145.131744 177.227081,146.544617 177.389832,147.503342 
	C178.530914,154.225601 176.199707,160.825226 174.682175,166.890762 
	C173.415039,171.955536 174.173080,177.777832 171.899460,181.707321 
	C169.117905,186.514679 171.269424,192.470276 167.039246,196.407013 
	C166.620346,196.796829 166.355301,197.668091 166.450027,198.245087 
	C167.445572,204.308289 165.890060,210.936295 163.721588,215.497208 
	C160.524750,222.221054 164.233765,230.057297 158.814178,235.720291 
	C158.607193,235.936554 158.443283,236.367081 158.505173,236.642502 
	C160.316177,244.701904 154.310699,251.635330 155.270676,259.634613 
	C155.781784,263.893646 152.367020,267.711517 153.120285,272.575562 
	C151.285645,273.000000 149.571289,273.000000 147.428467,273.000000 
M104.166328,87.234200 
	C101.692673,88.887283 101.270119,91.240608 101.254044,94.085564 
	C101.236862,97.126007 102.041870,100.206009 100.298782,103.270737 
	C97.794022,107.674660 96.153351,112.630943 95.520203,117.577286 
	C94.690704,124.057434 92.221603,130.379501 93.233559,137.086487 
	C93.318146,137.647095 93.002274,138.588562 92.567421,138.854736 
	C89.887451,140.495193 90.475098,143.107147 90.323128,145.555786 
	C90.106827,149.041016 91.433731,152.831924 87.896011,155.671951 
	C86.887650,156.481445 87.280449,158.338135 88.503258,159.206406 
	C89.709694,160.063095 89.867180,161.275894 90.444908,162.430023 
	C92.449074,166.433624 94.225266,170.967392 96.900078,174.125534 
	C100.492012,178.366547 103.346870,183.128906 105.746140,187.730194 
	C110.528915,196.902573 116.001305,205.678574 121.186356,214.567551 
	C124.643929,220.495041 128.271912,226.526535 132.124817,232.082184 
	C137.166245,239.351562 140.998795,247.918015 148.684418,253.424469 
	C150.781021,248.121780 150.255554,242.360916 151.889816,236.839539 
	C153.668869,230.828949 154.998001,223.751724 154.581482,217.009628 
	C154.189941,210.671555 159.388596,205.481110 157.902557,199.018524 
	C157.873108,198.890472 158.007187,198.702026 158.104309,198.570923 
	C162.523529,192.605209 161.758621,185.075211 163.109589,178.434372 
	C164.372452,172.226578 166.690475,165.707642 165.754547,159.010941 
	C165.674133,158.435638 165.956863,157.467468 166.383667,157.218979 
	C169.122757,155.624252 168.602310,153.011871 168.670166,150.557816 
	C168.737106,148.136810 168.248505,145.721176 170.806488,143.851654 
	C172.161713,142.861176 171.628571,141.090088 170.475632,139.459152 
	C168.016235,135.980118 165.515900,132.405060 163.856430,128.517578 
	C161.843735,123.802704 160.099350,119.047905 156.213547,115.499771 
	C155.591400,114.931694 155.075775,114.449028 154.768478,113.604401 
	C152.056992,106.151588 147.967056,99.588379 142.334427,93.939095 
	C138.489426,90.082718 136.064331,85.058998 133.961075,80.258583 
	C131.890518,75.532814 127.639366,72.536407 125.957352,67.528435 
	C124.701202,63.788414 120.990395,61.207264 119.120773,57.270939 
	C117.580437,54.027897 116.825073,49.861691 113.385170,47.479435 
	C111.568390,46.221249 109.781975,46.190926 109.662308,48.349430 
	C109.397362,53.128525 107.209778,57.642616 106.850830,61.966179 
	C106.171494,70.148888 103.080330,78.113121 104.166328,87.234200 
z"/>
</svg>