<svg version="1.1" id="Layer_1" xmlns="http://www.w3.org/2000/svg" xmlns:xlink="http://www.w3.org/1999/xlink" x="0px" y="0px"
	 width="100%" viewBox="0 0 240 256" enable-background="new 0 0 240 256" xml:space="preserve">
<path fill="#000000" opacity="1.000000" stroke="none" 
	d="
M241.000000,223.531342 
	C237.295975,223.771439 234.317871,226.599838 230.320236,226.087479 
	C227.307022,225.701263 224.205597,226.932037 221.504395,224.317444 
	C220.489471,223.335022 218.670273,223.200989 217.516983,224.764130 
	C215.974060,226.855408 214.754501,226.533920 213.271164,224.559158 
	C212.158188,223.077469 210.683212,223.249069 209.567871,224.833466 
	C207.444748,227.849365 204.959290,226.912811 202.801224,225.145172 
	C199.617676,222.537598 196.478256,222.558426 193.482208,225.003555 
	C192.333572,225.940964 191.269287,226.283005 189.945175,226.433777 
	C182.971359,227.228012 175.975082,227.049866 168.986557,226.832291 
	C167.549530,226.787537 165.955017,226.370636 164.749237,225.618484 
	C163.000351,224.527542 161.723557,223.959747 159.956146,225.693436 
	C158.306107,227.312012 155.924637,226.992264 153.767624,226.990540 
	C112.129440,226.957382 70.491257,226.920441 28.853096,226.866226 
	C27.191370,226.864059 25.529968,226.682434 23.868256,226.587234 
	C14.653841,226.059296 14.656578,226.059586 14.656384,217.012985 
	C14.656082,203.022507 15.497650,188.970993 14.493330,175.052795 
	C11.224371,129.750504 13.304944,84.408928 12.652402,39.092331 
	C12.593847,35.025948 11.889897,30.817072 18.393085,31.417810 
	C20.517122,31.614019 21.827120,29.075624 24.870230,28.957710 
	C28.010061,28.836048 29.475767,29.346804 30.550507,31.090597 
	C38.253113,28.204918 45.257160,26.387945 52.612545,31.072718 
	C54.814247,32.475018 58.071594,32.298153 60.190647,30.500612 
	C62.529766,28.516394 64.960075,28.649391 67.630516,28.650723 
	C110.763084,28.672235 153.895676,28.646603 197.028275,28.636145 
	C209.947205,28.633011 222.866425,28.688101 235.784760,28.601887 
	C237.818665,28.588314 239.288818,29.199705 240.728943,30.881565 
	C241.000000,95.020897 241.000000,159.041794 241.000000,223.531342 
M51.415516,59.494759 
	C52.488094,63.338997 56.509644,63.582428 58.807289,65.668304 
	C63.018185,69.491081 67.702629,72.742470 72.034004,76.340462 
	C78.249367,81.503448 84.890091,86.411888 90.692657,91.892525 
	C96.634331,97.504547 102.428139,103.332359 108.874191,108.333237 
	C111.999695,110.758026 115.461533,113.426834 120.250076,112.734848 
	C123.838234,112.216331 127.585785,112.898865 131.219162,112.569740 
	C135.448502,112.186623 139.936066,114.088097 143.909164,110.182114 
	C145.230560,108.883041 149.941666,109.056358 151.526703,110.406807 
	C154.968506,113.339211 157.339600,113.581970 160.330612,110.271202 
	C160.857056,109.688477 162.198395,109.688728 163.165344,109.681587 
	C170.396591,109.628181 177.635239,109.450447 184.857025,109.712402 
	C188.487823,109.844109 191.293350,107.520470 191.945145,105.295219 
	C194.049545,98.110794 197.853653,91.753357 200.619781,84.919174 
	C202.416138,80.480988 203.627441,75.798775 207.980057,72.688835 
	C209.716202,71.448357 211.061340,69.384811 211.907181,66.779930 
	C214.006439,60.315037 216.156189,53.675377 221.713242,48.908791 
	C224.017105,46.932652 225.559647,43.944805 224.432251,40.833508 
	C223.268402,37.621651 219.996613,38.476574 217.484085,38.484642 
	C189.188217,38.575474 160.890121,38.585953 132.598648,39.015350 
	C125.116623,39.128906 117.292351,36.924938 110.137047,41.118946 
	C109.771500,41.333214 109.068748,41.304806 108.679375,41.096741 
	C100.656906,36.809814 92.039093,39.722885 83.725273,39.031540 
	C82.598526,38.937843 81.080841,38.942844 80.339348,39.587128 
	C76.387016,43.021324 71.340446,37.701820 67.521553,41.345558 
	C64.915413,38.818642 62.081268,42.544811 59.207325,40.887318 
	C53.909008,37.831612 48.362270,37.847679 42.923168,40.842297 
	C41.790119,41.466118 40.663651,41.524319 39.799507,40.425999 
	C37.390358,37.364010 34.576305,38.390549 31.583036,39.473316 
	C32.217480,42.229973 33.747345,44.408474 35.564854,46.228054 
	C40.316826,50.985443 45.104507,55.744118 51.415516,59.494759 
M22.809484,49.649601 
	C22.666161,49.565163 22.531313,49.440498 22.377047,49.407986 
	C22.232929,49.377617 22.011473,49.388214 21.921268,49.478210 
	C20.960802,50.436504 21.395033,51.668682 21.394152,52.764946 
	C21.360237,94.883255 21.408361,137.001755 21.260820,179.119583 
	C21.249224,182.429565 23.615944,184.762360 23.446539,188.145050 
	C23.073206,195.599747 23.284834,203.090240 23.447023,210.562027 
	C23.511974,213.554138 26.068010,214.834427 27.723560,212.781525 
	C31.975885,207.508606 38.280098,205.638474 43.621990,202.281204 
	C45.575909,201.053192 47.210667,198.727295 49.861523,198.686127 
	C56.888794,198.576996 61.981133,193.367340 68.535973,191.528702 
	C73.503227,190.135376 78.797798,186.762329 83.415741,183.405899 
	C88.200958,179.927872 93.918953,178.210007 98.655342,174.467285 
	C104.558594,169.802521 110.101318,165.261734 107.459923,156.894821 
	C106.051750,152.434265 106.267906,148.655945 107.318962,144.122574 
	C108.527580,138.909622 108.124947,133.135712 107.461601,127.723175 
	C106.617012,120.831841 104.163307,114.061729 97.344223,111.021172 
	C91.548851,108.437080 87.526886,103.541588 83.110916,99.808136 
	C74.039284,92.138603 65.771614,83.625504 56.102829,76.376740 
	C50.058296,71.845093 42.033962,68.599640 38.681942,60.717354 
	C38.474571,60.229729 37.592064,59.675999 37.082508,59.728127 
	C34.061024,60.037205 33.170528,57.550274 31.932304,55.764389 
	C29.781275,52.661964 27.194513,50.432487 22.809484,49.649601 
M44.993561,216.441574 
	C45.989632,216.507706 46.985703,216.631653 47.981777,216.631699 
	C102.304794,216.634567 156.627808,216.627228 210.950821,216.618500 
	C211.783676,216.618362 212.634811,216.692764 213.446198,216.552155 
	C216.888535,215.955627 220.164291,211.750671 218.548447,209.682434 
	C215.243134,205.451752 212.144821,200.423615 207.723068,197.857162 
	C201.806473,194.423080 198.139496,189.266846 193.620148,184.693924 
	C191.199036,182.244095 189.583969,178.644409 185.100143,178.690689 
	C166.107147,178.886688 147.022278,180.044647 128.148514,178.573486 
	C114.841705,177.536255 104.938995,184.582169 93.549179,188.142471 
	C88.613419,195.934402 77.072327,193.705154 72.485420,202.026352 
	C66.499626,202.093140 62.029842,205.713974 56.919514,207.963272 
	C53.879337,209.301392 50.671249,211.776230 46.747112,211.847321 
	C44.921715,211.880417 43.570068,215.242477 44.993561,216.441574 
M209.460831,88.865578 
	C209.517532,90.669876 208.417252,91.697334 207.327301,93.026917 
	C206.020584,94.620903 203.955719,95.513649 203.346695,97.921059 
	C202.418961,101.588448 200.969955,105.059090 199.167389,108.522102 
	C197.038910,112.611214 194.937729,116.907394 195.147034,122.269699 
	C195.738007,137.410004 195.471039,152.589783 195.276474,167.750595 
	C195.227982,171.529938 195.894302,174.691208 199.142105,176.719437 
	C201.979233,178.491180 202.042160,183.138474 205.844925,183.489838 
	C208.921982,183.774170 210.960571,185.560684 212.158737,187.687195 
	C216.052887,194.598511 223.105148,197.925964 228.633026,202.953156 
	C230.582306,204.725861 232.379410,204.301559 232.557068,201.212280 
	C232.633545,199.882736 232.634155,198.547653 232.634567,197.215088 
	C232.648682,152.224915 232.658875,107.234741 232.667725,62.244572 
	C232.667984,60.911579 232.694016,59.576172 232.624649,58.246239 
	C232.548416,56.784653 232.789673,54.954670 230.809402,54.630951 
	C229.034149,54.340748 229.076248,56.195297 228.333847,57.200611 
	C226.586136,59.567219 225.862411,64.011864 224.340302,64.541092 
	C219.438065,66.245544 219.760666,70.922432 217.563126,73.989594 
	C214.434860,78.355835 212.218643,83.375542 209.460831,88.865578 
M186.650986,147.522614 
	C188.468948,138.292252 181.809692,130.336411 183.501617,120.909157 
	C182.020905,121.599083 180.919037,122.374290 180.699188,122.175247 
	C177.893265,119.634933 173.555252,123.632523 170.928818,119.753685 
	C170.340179,118.884354 168.077530,119.198868 166.642365,119.802536 
	C165.213058,120.403740 156.508575,122.491394 155.329773,122.392334 
	C154.041473,122.284081 152.585663,122.567757 151.763687,121.153992 
	C151.062241,119.947517 149.610977,119.351730 148.823013,120.040749 
	C145.599289,122.859634 141.678925,121.100830 138.380371,121.991119 
	C131.052811,123.968834 124.122253,121.451309 116.963005,121.595016 
	C116.843529,121.787071 116.527725,122.058105 116.526474,122.330605 
	C116.460426,136.632278 116.427498,150.934128 116.373589,165.235870 
	C116.362083,168.289749 118.357964,168.653915 120.736710,168.649918 
	C141.030365,168.615875 161.324280,168.537216 181.617462,168.626450 
	C185.406982,168.643112 186.641647,166.875854 186.627655,163.485489 
	C186.607071,158.495438 186.640762,153.505188 186.650986,147.522614 
z"/>
</svg>