<svg version="1.1" id="Layer_1" xmlns="http://www.w3.org/2000/svg" xmlns:xlink="http://www.w3.org/1999/xlink" x="0px" y="0px"
	 width="100%" viewBox="0 0 240 224" enable-background="new 0 0 240 224" xml:space="preserve">
<path fill="#000000" opacity="1.000000" stroke="none" 
	d="
M1.000000,94.454109 
	C4.936566,95.495575 8.125787,94.784492 10.243989,90.881294 
	C10.797667,89.861038 11.287470,88.780304 12.720347,88.736824 
	C17.620123,88.588142 21.189022,85.460449 25.286907,83.391045 
	C28.187134,81.926453 31.558800,81.578400 34.675732,79.992271 
	C38.262386,78.167114 42.194771,76.773979 44.644222,73.666420 
	C47.801403,69.660973 52.770271,70.390038 56.651733,68.032028 
	C64.974556,62.975842 74.785835,60.317905 82.947533,55.062641 
	C91.415352,49.610275 101.704453,48.188942 109.573799,41.367634 
	C112.409958,38.909187 117.032013,38.015579 120.073227,35.001484 
	C120.841454,34.240105 122.201546,34.344536 122.846329,35.068504 
	C125.717499,38.292297 130.530945,38.412010 133.289627,41.167976 
	C136.564438,44.439541 141.225128,43.091587 144.661179,45.964680 
	C146.031281,47.110310 148.274551,48.359024 150.194901,49.426277 
	C153.725128,51.388252 157.185562,53.632164 161.569702,52.694954 
	C162.026154,52.597374 162.796738,52.633999 163.006973,52.916687 
	C167.425613,58.858253 174.867233,59.753510 180.793472,62.998360 
	C186.026260,65.863525 190.845963,69.791679 197.439575,70.972618 
	C201.701477,71.735924 206.347412,75.033569 210.413940,77.902512 
	C211.078613,78.371437 211.746170,79.330696 212.365128,79.292747 
	C217.897491,78.953560 221.449005,83.362030 225.906006,84.793449 
	C230.489090,86.265373 234.758331,90.011787 240.573853,88.911835 
	C241.000000,95.021156 241.000000,101.042305 241.000000,107.531731 
	C235.374039,110.926514 228.224319,110.496170 223.696777,115.850075 
	C223.598007,115.966866 223.400131,116.108070 223.280289,116.083420 
	C213.620102,114.096413 208.837479,123.278282 201.064758,125.959129 
	C193.560776,128.547272 186.421799,132.724457 179.280182,136.514496 
	C176.106400,138.198822 171.999084,140.749832 167.664993,140.357910 
	C164.918991,140.109604 162.535202,141.775742 160.944260,142.957626 
	C156.752304,146.071762 151.310898,146.865448 147.595352,150.706833 
	C146.949692,151.374359 145.417480,151.216095 144.285553,151.372772 
	C143.137970,151.531616 141.327850,151.181870 140.930099,151.789490 
	C138.237091,155.903442 133.906891,156.752884 129.836914,158.643997 
	C125.607079,160.609390 123.094498,160.363159 118.886780,158.378052 
	C113.612022,155.889542 108.872971,152.278687 102.754372,150.981766 
	C97.491005,149.866119 92.413666,146.938965 87.486176,144.121643 
	C82.574333,141.313248 77.178574,139.148483 71.727356,137.205124 
	C65.947998,135.144775 60.098343,133.216293 54.548306,130.249298 
	C49.185642,127.382477 44.483555,123.179497 37.972050,122.066589 
	C33.942184,121.377831 29.730721,118.957710 26.668125,116.150391 
	C23.269871,113.035378 18.924871,113.310188 15.218569,111.462288 
	C10.649126,109.184044 6.958010,105.181534 1.359156,104.124115 
	C1.000000,100.969406 1.000000,97.938812 1.000000,94.454109 
M150.090302,61.734032 
	C147.816956,57.858109 143.597366,57.616070 140.176102,55.803070 
	C134.119919,52.593781 126.901520,52.540180 121.491386,48.093685 
	C120.751068,47.485226 119.638123,48.130135 118.744240,48.705471 
	C114.638252,51.348270 108.302437,50.185753 106.080612,56.125671 
	C105.995880,56.352192 105.149582,56.316414 104.654419,56.363365 
	C99.514931,56.850666 95.272537,59.445965 91.638733,62.743999 
	C89.828796,64.386688 88.474098,65.853706 85.847794,65.481735 
	C84.920662,65.350410 83.503601,65.432365 83.005081,66.013260 
	C76.690659,73.371147 65.264900,72.151459 59.344738,80.146477 
	C59.075382,80.510239 58.074703,80.414307 57.418697,80.395012 
	C55.202213,80.329811 53.620811,81.157005 51.692398,82.501038 
	C47.598297,85.354469 42.130058,86.470200 38.536076,89.739456 
	C35.152466,92.817345 30.827126,92.102364 27.247112,94.533691 
	C24.740444,96.236069 21.851257,98.773079 17.792288,99.421097 
	C21.575954,101.384178 25.221943,102.723373 28.216040,104.942223 
	C34.806316,109.826118 42.498962,112.690445 49.949696,115.160545 
	C56.067673,117.188797 60.807198,121.149101 66.570068,123.407166 
	C72.690399,125.805283 77.520660,131.423309 84.918213,130.671356 
	C86.243446,130.536667 87.285851,131.132095 88.453484,132.021606 
	C96.400208,138.075485 105.971809,140.818939 115.084579,144.409256 
	C117.264290,145.268051 119.545914,145.396149 121.699112,146.961243 
	C123.770767,148.467056 127.169243,148.409653 129.377930,147.064972 
	C134.231216,144.110229 138.819977,140.897980 144.914352,141.562866 
	C146.614304,141.748306 147.712952,140.516479 148.627579,139.357147 
	C149.774643,137.903198 151.566849,137.358505 152.773468,136.379623 
	C156.285110,133.530807 160.986832,134.261948 164.527344,131.279404 
	C167.965408,128.383179 172.392578,125.630966 176.695816,125.026924 
	C183.611176,124.056190 189.471603,120.307632 195.202560,117.610214 
	C203.503632,113.703094 211.987946,109.383240 219.804337,104.137634 
	C222.668945,102.215187 225.206985,98.899307 229.413544,99.012444 
	C227.671173,98.749001 225.928802,98.485558 224.269562,98.234688 
	C222.899506,93.364624 222.899353,93.365395 218.083878,92.387222 
	C217.596832,92.288300 216.983688,92.326233 216.647278,92.042198 
	C211.702301,87.867401 205.000824,87.546700 199.623672,83.778168 
	C193.683502,79.615051 186.336136,77.455513 179.590378,74.448654 
	C177.449615,73.494438 176.358902,70.640350 173.248657,71.326866 
	C171.299942,71.757011 169.597916,70.941017 167.845657,69.576912 
	C162.827576,65.670456 156.447006,64.618042 150.090302,61.734032 
z"/>
</svg>