<svg version="1.1" id="Layer_1" xmlns="http://www.w3.org/2000/svg" xmlns:xlink="http://www.w3.org/1999/xlink" x="0px" y="0px"
	 width="100%" viewBox="0 0 256 256" enable-background="new 0 0 256 256" xml:space="preserve">
<path fill="#000000" opacity="1.000000" stroke="none" 
	d="
M171.493591,48.098366 
	C176.708603,48.804832 177.340790,42.917328 181.443451,41.423534 
	C182.362686,45.451385 183.530319,48.697777 180.405533,51.896809 
	C177.948730,54.412010 179.741211,58.110760 178.026688,61.285820 
	C174.295975,68.194603 173.314850,76.305374 168.830307,83.092125 
	C167.187424,85.578384 167.388351,89.400505 166.772446,92.534233 
	C165.742737,97.773354 162.483963,101.886429 161.185394,106.526588 
	C159.654633,111.996559 157.330124,117.037148 155.461182,122.299599 
	C153.234116,128.570374 151.212860,134.937424 148.555237,141.023819 
	C146.824524,144.987457 147.006744,149.276077 144.617737,153.294754 
	C140.136841,160.832336 138.163376,169.647202 134.067810,177.555191 
	C132.134689,181.287796 128.852173,185.299774 130.337769,190.290115 
	C131.368896,193.753830 128.131073,195.711441 126.947762,198.083694 
	C124.922195,202.144470 127.029884,207.347931 122.602226,210.655167 
	C119.856674,212.705978 119.571350,212.303513 118.537827,209.362350 
	C117.394333,206.108246 117.520447,202.222519 114.399689,199.714035 
	C113.797821,199.230240 113.699913,197.875076 113.703812,196.923264 
	C113.723343,192.152496 111.184334,188.502640 108.422607,185.040955 
	C105.864273,181.834229 104.994514,177.840530 102.941872,174.358246 
	C98.820404,167.366241 95.217041,159.975311 92.296028,152.403320 
	C90.463936,147.654083 87.179062,143.460114 86.645569,138.218735 
	C86.518501,136.970322 85.962257,136.138565 84.981392,135.332779 
	C82.262672,133.099380 79.955299,130.615158 80.594109,126.603874 
	C80.816261,125.208931 80.006241,124.200775 78.868637,123.255714 
	C75.482269,120.442474 75.249626,115.837181 72.981339,112.278801 
	C71.016914,109.197121 74.456131,106.608955 76.701279,105.116364 
	C80.627777,102.505989 85.171410,100.846207 89.319069,98.540932 
	C95.431458,95.143677 101.223701,91.104027 107.530983,88.145256 
	C112.407944,85.857460 115.518547,81.956207 119.402504,78.767586 
	C122.801506,75.977081 127.365562,73.503128 131.763168,71.891365 
	C136.916885,70.002472 141.344055,66.840736 146.079163,64.366302 
	C152.308517,61.111008 158.362381,57.283287 164.578857,53.903866 
	C167.313934,52.417004 169.123917,50.334042 171.493591,48.098366 
M128.712997,175.310120 
	C129.608673,171.096069 130.346268,166.830429 132.855591,163.163834 
	C134.110535,161.330124 135.731857,159.923782 135.762466,157.192581 
	C135.807556,153.169891 137.940033,149.641281 139.519424,145.932419 
	C141.179901,142.033157 145.802704,138.393784 142.925491,133.191666 
	C141.297287,132.872604 141.618240,134.726318 140.728775,134.948380 
	C135.587296,136.231964 131.420990,139.552261 126.975471,142.080688 
	C124.497543,143.490036 120.844666,143.373077 119.499573,146.019547 
	C116.595810,151.732727 110.813904,153.353088 106.010529,156.339554 
	C103.384949,157.972015 101.880241,162.631744 104.379509,163.928146 
	C108.824951,166.234039 109.114914,170.964493 110.807213,174.362900 
	C114.290512,181.357956 118.809036,188.064713 120.345230,196.161011 
	C120.924774,191.606735 124.492805,188.726151 125.903526,184.636917 
	C126.924294,181.678024 125.167236,178.137329 128.712997,175.310120 
M113.396690,93.182991 
	C112.449951,94.087402 111.659309,95.366035 110.531532,95.836464 
	C102.184853,99.318199 94.731773,104.462204 86.711258,108.550049 
	C84.071671,109.895378 79.693138,111.825012 82.155731,115.713959 
	C86.621170,122.765808 88.240524,131.036362 92.535774,138.005829 
	C94.618126,141.384689 94.870735,145.949646 99.326912,148.971359 
	C98.321960,144.760574 102.570549,143.694458 102.608635,140.539551 
	C102.685257,134.193909 106.730446,129.163010 108.530128,123.364403 
	C109.930855,118.851196 113.999817,115.182823 113.760788,109.839226 
	C113.722931,108.992920 114.415016,108.417191 114.841591,107.722733 
	C117.436249,103.498680 117.375015,98.512238 118.542328,93.873512 
	C118.833099,92.718040 118.339806,91.531845 117.027519,91.044258 
	C115.366280,90.426994 114.580788,91.485947 113.396690,93.182991 
M159.400894,93.942551 
	C159.895432,92.589195 159.765076,91.185905 160.650482,89.775215 
	C162.979126,86.065063 165.149246,82.369102 165.910660,77.710556 
	C166.547256,73.815651 166.512512,69.232948 168.820312,66.080101 
	C171.013901,63.083256 170.796768,60.998116 169.484039,58.068378 
	C167.456985,59.793365 166.839005,62.149529 164.614746,63.289097 
	C158.541122,66.400818 151.429962,67.905685 147.267410,74.074554 
	C146.617172,75.038200 145.724594,75.380447 144.721115,75.305290 
	C138.764862,74.859222 135.188065,78.856644 131.015289,82.340363 
	C137.432709,87.213737 137.641510,95.143173 141.128067,101.384010 
	C143.617554,105.840111 146.562775,110.237160 147.887924,115.380569 
	C148.256622,116.811615 150.623657,116.981781 151.025833,115.524033 
	C152.479355,110.255363 156.663940,105.981560 156.623581,100.245209 
	C156.607239,97.925896 157.021774,95.990982 159.400894,93.942551 
M133.715118,128.939941 
	C136.630737,129.429657 137.488068,125.866867 140.084045,125.711403 
	C145.034073,125.414948 144.316635,121.245804 143.229446,119.129776 
	C142.012436,116.761070 141.213333,114.002861 139.618668,111.973373 
	C134.631760,105.626678 132.383560,97.935478 128.230743,90.611374 
	C126.226776,94.498642 123.610474,98.075493 122.605141,102.058907 
	C121.952103,104.646423 118.973381,105.740547 119.406624,108.495407 
	C120.103546,112.926933 117.835159,116.947708 116.842384,120.910248 
	C115.957436,124.442329 115.233643,128.500153 113.469490,131.758316 
	C110.976013,136.363388 108.354347,140.800262 107.152229,145.889801 
	C108.883385,146.957260 109.642990,146.083679 110.737747,145.098358 
	C112.497864,143.514236 113.691177,141.447479 116.256020,140.498962 
	C122.669685,138.127014 127.170998,132.652237 133.715118,128.939941 
z"/>
</svg>