<svg version="1.1" id="Layer_1" xmlns="http://www.w3.org/2000/svg" xmlns:xlink="http://www.w3.org/1999/xlink" x="0px" y="0px"
	 width="100%" viewBox="0 0 256 272" enable-background="new 0 0 256 272" xml:space="preserve">
<path fill="#000000" opacity="1.000000" stroke="none" 
	d="
M70.488167,28.103245 
	C71.118782,26.450779 71.476372,25.015938 71.688942,24.163012 
	C78.567863,18.362850 86.430229,19.649128 94.017647,19.642689 
	C139.000931,19.604511 183.984268,19.631617 228.967545,19.595060 
	C231.510605,19.592995 234.319931,20.379942 236.138016,17.406897 
	C236.779831,16.357325 238.601654,16.307240 239.072479,17.528067 
	C240.015808,19.974184 242.491028,19.214914 244.369705,20.605202 
	C244.369705,31.359465 244.356720,42.336433 244.381073,53.313316 
	C244.385727,55.412106 244.785202,57.104763 246.174240,59.125145 
	C248.026535,61.819309 249.098007,65.764648 245.597610,68.745857 
	C243.689301,70.371140 244.308167,71.740967 245.734711,73.366722 
	C247.867172,75.796997 248.924789,78.437363 245.562469,80.784325 
	C244.396255,81.598358 244.373657,82.706001 244.372833,83.867538 
	C244.361923,99.195129 241.989319,114.993851 244.915878,129.740311 
	C249.345932,152.062744 245.491867,174.206787 247.514084,196.297501 
	C248.121338,202.931259 244.901840,207.131470 240.945908,211.333069 
	C231.249817,221.631378 221.378311,231.784943 212.550903,242.841415 
	C210.726273,245.126816 207.983505,243.601562 206.550949,245.627167 
	C203.749756,249.588043 200.857910,253.490662 198.222488,257.559174 
	C197.483261,258.700409 196.738281,259.226654 195.520401,259.343323 
	C194.142960,259.475311 192.522263,259.720093 192.530548,261.363770 
	C192.552475,265.717651 189.638275,265.398346 186.739304,265.394928 
	C172.078110,265.377686 157.408295,265.690765 142.759232,265.270142 
	C135.340439,265.057098 128.253830,266.953735 120.494514,265.876404 
	C107.744987,264.106171 94.570732,265.395081 81.575554,265.394257 
	C81.242348,265.394226 80.865631,265.292664 80.582443,265.412109 
	C76.041100,267.327515 70.298607,264.869446 67.086548,266.268219 
	C59.786015,269.447418 52.730972,268.323578 45.682816,268.192291 
	C39.340012,268.074188 33.046265,268.641418 26.721132,268.564240 
	C20.283472,268.485687 17.654144,266.298798 17.650265,259.838776 
	C17.623457,215.199692 17.624613,170.560608 17.567448,125.921577 
	C17.564240,123.416321 18.468130,120.560822 15.270913,118.896339 
	C14.215898,118.347107 14.683047,116.744331 14.669902,115.607498 
	C14.629450,112.109261 14.743805,108.607430 14.633773,105.112160 
	C14.377897,96.984032 17.066416,89.887680 21.115160,82.896660 
	C28.849461,69.541748 39.675621,58.851883 50.710850,48.523411 
	C55.510082,44.031548 60.632389,39.950474 64.808113,34.787666 
	C65.666443,33.726444 66.703659,32.926212 66.626526,31.510637 
	C66.482239,28.862627 68.455505,28.744997 70.488167,28.103245 
M183.576599,166.512253 
	C182.943542,160.321640 185.111191,153.885910 181.874496,147.902679 
	C181.388748,147.004745 182.353745,146.060989 182.628067,145.137604 
	C184.464874,138.955124 184.431763,132.440018 183.005905,126.433151 
	C181.776581,121.254295 180.872620,116.637474 183.148621,111.681358 
	C183.996353,109.835381 184.280319,107.380539 183.295517,105.850128 
	C181.400345,102.904984 181.568069,99.837776 181.660950,96.734795 
	C181.758926,93.461746 180.337982,92.359680 177.174133,92.366173 
	C147.008850,92.428101 116.843315,92.438568 86.678116,92.359329 
	C82.685280,92.348846 81.227043,93.677299 81.260719,97.887878 
	C81.447304,121.218773 81.203552,144.553329 81.428177,167.883560 
	C81.495674,174.894241 79.817818,182.124954 83.190353,188.930008 
	C83.645973,189.849350 83.636719,191.536957 83.076454,192.321869 
	C81.336472,194.759476 83.254173,195.862183 84.421593,197.333984 
	C88.675903,193.454407 93.707939,196.508102 98.320671,195.921478 
	C106.658310,194.861145 115.223343,195.569183 123.693405,195.573944 
	C141.521988,195.583954 159.351700,195.513733 177.178467,195.705444 
	C182.253586,195.760010 183.513123,195.114563 183.577362,190.006973 
	C183.671677,182.508606 183.585114,175.007935 183.576599,166.512253 
M51.288460,225.913467 
	C56.890125,219.811218 62.720631,213.898529 67.997902,207.527573 
	C70.678246,204.291763 74.717667,201.840012 74.700752,196.631271 
	C74.593163,163.493073 74.594269,130.354172 74.720184,97.216095 
	C74.734612,93.417480 73.384628,92.344231 69.788406,92.378036 
	C55.968246,92.507973 42.145393,92.480125 28.324907,92.357613 
	C24.820999,92.326553 23.281414,93.293777 23.298878,97.164970 
	C23.431080,126.472603 23.368053,155.781097 23.383028,185.089325 
	C23.383776,186.554489 22.969627,188.397507 24.512993,189.197067 
	C26.913094,190.440460 26.358030,192.464478 26.358694,194.385651 
	C26.364216,210.372040 26.326614,226.358490 26.377466,242.344696 
	C26.383944,244.380676 25.761209,246.645706 27.892813,248.725586 
	C32.361988,243.525299 37.289261,238.978577 42.382687,234.555908 
	C45.230091,232.083466 47.184280,228.382812 51.288460,225.913467 
M83.126724,31.581623 
	C81.185394,33.381012 81.342468,35.743725 81.344788,38.085232 
	C81.357513,50.908649 81.559166,63.737175 81.245247,76.552910 
	C81.126587,81.397018 82.646210,82.776054 87.434006,82.743362 
	C116.743393,82.543251 146.054993,82.689140 175.365250,82.570694 
	C180.143906,82.551392 186.353104,84.888641 187.662628,76.933403 
	C187.698288,76.716782 188.321899,76.644760 188.460876,76.390335 
	C191.587524,70.666580 197.003311,66.985962 201.169388,62.186111 
	C208.743286,53.460022 216.651047,45.024139 224.370697,36.423359 
	C225.042694,35.674675 225.479263,34.774410 226.633560,34.713936 
	C228.743423,34.603401 230.986023,34.376633 230.360901,31.441401 
	C229.769012,28.662140 227.250046,29.422590 225.391922,29.421021 
	C179.760483,29.382462 134.129013,29.385128 88.497543,29.399982 
	C86.713791,29.400564 84.757164,29.010717 83.126724,31.581623 
M153.198013,255.777924 
	C153.904984,256.420746 154.611938,257.063538 155.319290,257.705933 
	C158.677017,255.108398 158.603577,255.455627 162.673508,256.691040 
	C165.002136,257.397888 167.861679,254.962708 170.259338,257.328674 
	C172.457001,254.119202 175.749847,255.864227 178.498734,255.734482 
	C181.771484,255.579971 183.566071,254.569794 183.563049,251.137024 
	C183.550827,237.309738 183.567963,223.482422 183.535294,209.655197 
	C183.528824,206.914764 182.343948,205.234543 179.288986,205.396942 
	C160.049438,206.419739 140.679596,203.190811 121.457512,207.679565 
	C118.725296,208.317596 114.555084,209.698822 111.229385,207.867004 
	C109.935173,207.154144 108.626114,207.611099 107.896774,207.464966 
	C104.311348,206.746567 100.986633,206.193130 97.568077,207.909378 
	C97.440315,207.973511 96.870094,207.283813 96.586548,206.887772 
	C95.433990,205.277924 93.709236,205.535400 92.061897,205.375061 
	C84.502731,204.639297 79.022591,208.312698 74.781837,213.954376 
	C70.363106,219.832809 62.802856,223.443115 61.762966,231.779678 
	C56.311382,233.469055 43.819912,245.909729 35.585144,257.859283 
	C37.788658,258.974487 40.158379,258.605621 42.465153,258.617737 
	C50.461769,258.659790 58.608639,257.691101 66.413010,258.919647 
	C74.099350,260.129547 81.370125,254.619263 88.905975,258.453674 
	C89.352196,258.680725 90.547295,258.400116 90.735558,258.025146 
	C93.497314,252.524872 98.309288,258.983124 101.470406,256.133331 
	C105.445045,260.828125 110.840660,258.585571 115.467644,258.443176 
	C121.281815,258.264221 127.768463,261.160980 132.939423,255.918503 
	C133.210220,255.643921 134.565170,255.829071 134.732254,256.152771 
	C137.456696,261.431366 139.909744,257.239960 142.245422,255.759811 
	C145.221512,259.358429 145.410233,259.461273 148.818634,256.621307 
	C150.031601,255.610641 151.238541,255.769760 153.198013,255.777924 
M235.862640,54.031166 
	C240.583679,49.654766 238.143860,44.321007 238.394470,39.012032 
	C233.522354,41.067795 231.655960,45.433174 228.863907,48.627522 
	C226.697128,51.106495 223.664841,50.181259 221.535614,52.888660 
	C214.814667,61.434620 207.363235,69.437126 199.834732,77.305771 
	C195.037399,82.319832 190.329041,87.093742 190.334900,94.657639 
	C190.359589,126.472061 190.403091,158.286728 190.279510,190.100693 
	C190.263504,194.220490 191.653473,195.733139 195.763992,195.680740 
	C208.087967,195.523621 220.419266,195.448532 232.739212,195.722687 
	C237.320206,195.824646 239.183258,194.443558 238.676620,189.779404 
	C237.108536,175.343796 241.657578,160.571640 235.837296,146.276154 
	C234.283203,142.459061 237.480865,137.794891 235.726746,133.450684 
	C235.397278,132.634750 235.761307,131.426514 236.760620,130.836884 
	C238.672165,129.708969 238.633621,127.848373 238.635727,126.000717 
	C238.642365,120.170876 238.644379,114.341003 238.635986,108.511169 
	C238.633820,107.006546 238.477386,105.672218 237.232285,104.449028 
	C234.413742,101.680099 235.251587,98.928535 237.835907,96.300095 
	C234.601273,94.503120 235.093323,91.716873 236.364822,89.157692 
	C236.888702,88.103249 237.026016,87.775635 236.764221,86.464279 
	C235.443329,79.847923 233.607452,73.042694 238.029816,66.727821 
	C238.750305,65.699013 238.978867,64.164093 238.042664,63.484482 
	C234.853699,61.169521 235.713654,57.950340 235.862640,54.031166 
M190.358963,242.832718 
	C190.429413,244.145996 190.224579,245.648148 191.788132,246.249268 
	C193.390259,246.865204 193.935181,245.439774 194.947937,244.593353 
	C201.497467,239.119461 205.932129,231.674332 213.398209,226.824570 
	C219.199310,223.056351 223.203796,216.547714 228.105713,211.350357 
	C229.210678,210.178787 231.051529,209.584747 230.300674,207.428314 
	C229.493652,205.110596 227.506210,205.405869 225.709442,205.401382 
	C216.557663,205.378525 207.405624,205.359482 198.253983,205.403000 
	C192.132965,205.432114 190.394180,207.206024 190.359726,213.517502 
	C190.307968,223.001846 190.348206,232.486710 190.358963,242.832718 
M57.592003,84.690453 
	C58.598976,82.878639 60.560287,81.639709 62.072117,82.676979 
	C65.214920,84.833275 67.910416,82.394684 70.789001,82.596359 
	C73.561302,82.790588 74.650543,81.348259 74.641907,78.677513 
	C74.605919,67.547852 74.644348,56.417950 74.607513,45.288296 
	C74.603355,44.033131 74.873444,42.441929 73.075699,42.042633 
	C71.528183,41.698917 70.677322,42.760395 69.855278,43.875648 
	C67.510353,47.056988 65.187836,50.103642 62.202435,52.914574 
	C55.536041,59.191376 47.923073,64.620506 42.696842,72.348434 
	C42.029758,73.334839 41.443867,74.033890 40.223019,74.503555 
	C36.966988,75.756149 34.787842,78.248840 33.097794,81.619621 
	C34.166214,81.969254 34.930901,82.432991 35.696907,82.435181 
	C40.340031,82.448486 44.983891,82.379341 49.626614,82.291061 
	C52.413090,82.238083 55.289711,81.813683 57.592003,84.690453 
z"/>
</svg>