<svg version="1.1" id="Layer_1" xmlns="http://www.w3.org/2000/svg" xmlns:xlink="http://www.w3.org/1999/xlink" x="0px" y="0px"
	 width="100%" viewBox="0 0 160 160" enable-background="new 0 0 160 160" xml:space="preserve">
<path fill="#000000" opacity="1.000000" stroke="none" 
	d="
M82.602081,152.534378 
	C76.244751,143.500580 72.729370,133.380035 67.622200,124.076111 
	C58.526722,107.506516 49.766327,90.751381 40.992386,74.007523 
	C36.448120,65.335411 32.042362,56.584431 27.830685,47.746769 
	C25.397528,42.641102 26.113527,41.775581 31.884176,41.769863 
	C50.160400,41.751755 68.437500,41.873730 86.712547,41.727962 
	C95.279121,41.659634 103.839325,40.992874 112.406975,40.798431 
	C120.014526,40.625778 127.628448,40.707035 135.239441,40.724533 
	C138.720657,40.732536 139.885513,42.310425 138.086365,45.471920 
	C130.542648,58.727814 124.423820,72.728493 117.869362,86.442337 
	C109.426659,104.106918 99.418961,120.999870 91.974785,139.145874 
	C90.466232,142.823135 88.679634,146.414658 86.682068,149.848404 
	C85.933090,151.135864 85.644302,153.780960 82.602081,152.534378 
M41.706718,47.384869 
	C39.474354,47.669281 37.079929,46.712746 34.251343,48.638554 
	C49.521561,80.744461 67.315750,111.516769 83.668243,144.283905 
	C100.175110,110.967400 115.940704,79.147034 131.677612,47.384544 
	C101.292145,47.384544 71.970665,47.384544 41.706718,47.384869 
z"/>
</svg>