<svg version="1.1" id="Layer_1" xmlns="http://www.w3.org/2000/svg" xmlns:xlink="http://www.w3.org/1999/xlink" x="0px" y="0px"
	 width="100%" viewBox="0 0 160 144" enable-background="new 0 0 160 144" xml:space="preserve">
<path fill="#000000" opacity="1.000000" stroke="none" 
	d="
M65.129211,128.331329 
	C53.242016,128.324371 41.803856,128.349838 30.365990,128.303329 
	C24.543386,128.279663 23.710871,127.083466 26.405443,121.797813 
	C38.466835,98.138275 49.511616,73.975121 61.982273,50.514591 
	C67.270805,40.565491 71.770828,30.198030 76.670151,20.040449 
	C77.429817,18.465469 77.688232,16.159889 79.945236,16.086267 
	C82.218040,16.012133 82.772858,18.344477 83.466568,19.857327 
	C92.190887,38.883289 102.895500,56.883610 112.211304,75.604050 
	C119.900261,91.055298 128.054291,106.274612 135.933701,121.631882 
	C138.500290,126.634285 138.088898,127.237167 132.413879,127.244843 
	C115.090698,127.268265 97.766876,127.323547 80.444611,127.192490 
	C75.434021,127.154587 70.512604,127.683220 65.129211,128.331329 
M100.663078,63.812489 
	C92.385941,51.990719 87.965012,38.057468 79.693893,24.372740 
	C64.716820,58.223358 47.084084,89.230461 31.902826,122.440361 
	C64.942680,123.209961 96.699829,122.080826 129.554230,121.397186 
	C121.148430,100.953278 109.552803,83.456085 100.663078,63.812489 
z"/>
</svg>