<svg version="1.1" id="Layer_1" xmlns="http://www.w3.org/2000/svg" xmlns:xlink="http://www.w3.org/1999/xlink" x="0px" y="0px"
	 width="100%" viewBox="0 0 163 154" enable-background="new 0 0 163 154" xml:space="preserve">
<path fill="none" opacity="1.000000" stroke="#000000" stroke-linecap="round" stroke-linejoin="round" stroke-width="3.000000"
	d="
M76.000000,31.000000 
	C80.983894,36.570724 83.912483,43.366894 86.917351,50.037235 
	C89.587181,55.963860 92.126778,61.900993 95.433014,67.539284 
	C100.032570,75.383171 104.259415,83.451889 108.448448,91.526749 
	C109.866913,94.261024 108.913483,95.563240 105.500099,95.568069 
	C85.333237,95.596596 65.166664,95.833328 45.000000,96.000000 
"/>
<path fill="none" opacity="1.000000" stroke="#000000" stroke-linecap="round" stroke-linejoin="round" stroke-width="3.000000"
	d="
M75.500000,26.500000 
	C77.507156,30.502386 73.603958,32.605801 72.372467,35.444675 
	C67.983032,45.563328 64.563309,56.202515 58.422329,65.448410 
	C53.080124,73.491669 50.167885,82.672050 45.477650,90.987396 
	C44.491684,92.735420 45.701969,95.224960 43.500000,96.500000 
"/>
</svg>