<svg version="1.1" id="Layer_1" xmlns="http://www.w3.org/2000/svg" xmlns:xlink="http://www.w3.org/1999/xlink" x="0px" y="0px"
	 width="100%" viewBox="0 0 160 160" enable-background="new 0 0 160 160" xml:space="preserve">
<path fill="#000000" opacity="1.000000" stroke="none" 
	d="
M47.242874,125.102600 
	C46.909832,128.653046 44.505436,128.952576 41.849724,129.054413 
	C37.208385,129.232391 32.559616,128.605957 27.914371,129.649918 
	C24.987926,130.307602 24.235783,128.331894 25.339840,126.040596 
	C34.336712,107.368973 42.578495,88.261185 52.770863,70.260475 
	C61.160294,55.443916 66.889786,39.433777 75.369576,24.747438 
	C76.837738,22.204685 78.542099,19.798309 80.262703,17.134924 
	C82.898643,18.828131 83.822922,21.128996 84.861885,23.292759 
	C95.286613,45.003422 106.815186,66.138435 118.123726,87.390892 
	C124.678162,99.708824 130.841171,112.234558 137.253998,124.628662 
	C138.809662,127.635300 137.323990,128.763321 134.714279,128.865234 
	C129.915070,129.052643 125.103371,128.894958 120.297691,128.951263 
	C117.248909,128.986969 115.693123,126.848923 112.992378,124.553032 
	C118.470314,121.990135 123.705315,123.638527 129.240417,122.425819 
	C115.145012,89.724617 96.401520,59.776966 81.370697,27.935562 
	C78.842155,29.633883 34.387035,116.310204 32.613701,122.891167 
	C37.114082,125.621071 42.460674,122.621269 47.242874,125.102600 
z"/>
</svg>