<svg version="1.1" id="Layer_1" xmlns="http://www.w3.org/2000/svg" xmlns:xlink="http://www.w3.org/1999/xlink" x="0px" y="0px"
	 width="100%" viewBox="0 0 175 200" enable-background="new 0 0 175 200" xml:space="preserve">
<path fill="none" opacity="1.000000" stroke="#000000" stroke-linecap="round" stroke-linejoin="round" stroke-width="5.000000"
	d="
M89.000000,102.500000 
	C78.192856,112.371101 70.195114,124.666328 60.536152,135.532135 
	C55.662453,141.014771 51.350208,147.001144 46.403332,152.411606 
	C44.601585,154.382187 44.451084,156.261475 44.500000,158.500000 
"/>
<path fill="none" opacity="1.000000" stroke="#000000" stroke-linecap="round" stroke-linejoin="round" stroke-width="5.000000"
	d="
M135.000000,43.500000 
	C135.573593,48.060150 131.612198,50.137497 129.389496,52.911453 
	C119.477287,65.282005 108.956696,77.167305 99.125778,89.599464 
	C96.109695,93.413597 91.824158,96.246445 90.000000,101.000000 
"/>
<path fill="none" opacity="1.000000" stroke="#000000" stroke-linecap="round" stroke-linejoin="round" stroke-width="5.000000"
	d="
M91.000000,102.000000 
	C102.079300,114.147881 112.740051,126.649918 123.036530,139.470657 
	C126.133636,143.327042 129.647110,146.851395 133.008575,150.492081 
	C134.601135,152.216934 136.279053,153.860474 136.000000,156.500000 
"/>
<path fill="none" opacity="1.000000" stroke="#000000" stroke-linecap="round" stroke-linejoin="round" stroke-width="5.000000"
	d="
M43.500000,43.500000 
	C43.754803,45.017452 43.014011,46.416111 44.406475,48.078346 
	C51.238018,56.233433 58.416367,64.078300 65.362701,72.118614 
	C71.619682,79.361015 77.670258,86.804054 84.004410,93.996117 
	C85.641777,95.855255 87.333336,97.666664 89.000000,99.500000 
"/>
</svg>