<svg version="1.1" id="Layer_1" xmlns="http://www.w3.org/2000/svg" xmlns:xlink="http://www.w3.org/1999/xlink" x="0px" y="0px"
	 width="100%" viewBox="0 0 100 102" enable-background="new 0 0 100 102" xml:space="preserve">
<path fill="none" opacity="1.000000" stroke="#000000" stroke-linecap="round" stroke-linejoin="round" stroke-width="5.000000"
	d="
M84.500000,52.000000 
	C76.666664,52.000000 68.833321,51.991650 61.000011,52.006054 
	C59.114033,52.009521 57.155972,51.691177 55.500000,53.000000 
"/>
<path fill="none" opacity="1.000000" stroke="#000000" stroke-linecap="round" stroke-linejoin="round" stroke-width="4.000000"
	d="
M53.000000,51.500004 
	C51.164715,51.384594 49.329430,51.269184 47.097389,51.128822 
	C45.885231,56.250343 41.232906,58.353199 36.943996,60.381584 
	C32.258965,62.597309 28.383999,65.918167 23.982086,68.469086 
	C22.913967,69.088066 23.849880,69.879135 23.500000,70.500000 
"/>
<path fill="none" opacity="1.000000" stroke="#000000" stroke-linecap="round" stroke-linejoin="round" stroke-width="5.000000"
	d="
M45.500000,52.500000 
	C37.352306,51.403744 29.164158,52.289604 21.000000,52.000000 
"/>
<path fill="none" opacity="1.000000" stroke="#000000" stroke-linecap="round" stroke-linejoin="round" stroke-width="3.000000"
	d="
M78.500000,33.500000 
	C70.084595,39.045971 62.233475,45.421780 52.675518,50.158352 
	C59.815624,59.488213 70.342178,62.935726 78.500000,69.500000 
"/>
<path fill="none" opacity="1.000000" stroke="#000000" stroke-linecap="round" stroke-linejoin="round" stroke-width="4.000000"
	d="
M24.500000,35.000000 
	C29.876030,39.809982 36.825829,42.131840 42.608162,46.351795 
	C43.755844,47.189377 44.768013,48.258118 46.000000,49.000000 
"/>
</svg>