<svg version="1.1" id="Layer_1" xmlns="http://www.w3.org/2000/svg" xmlns:xlink="http://www.w3.org/1999/xlink" x="0px" y="0px"
	 width="100%" viewBox="0 0 192 192" enable-background="new 0 0 192 192" xml:space="preserve">
<path fill="#000000" opacity="1.000000" stroke="none" 
	d="
M193.000000,82.555832 
	C188.532654,81.659103 184.058121,83.015862 179.586838,82.997902 
	C163.260590,82.932312 146.933762,83.008362 130.607162,83.030342 
	C128.785675,83.032791 126.964172,83.030678 124.289261,83.030678 
	C127.330994,86.308273 129.191071,89.157379 133.107239,90.512756 
	C139.971771,92.888557 144.949463,98.840797 151.086761,102.030991 
	C156.145218,104.660408 160.244873,108.902039 165.758545,110.586151 
	C168.762070,111.503548 171.493896,112.708031 173.438034,115.413849 
	C175.339890,118.060860 178.967514,117.996529 181.392365,120.057198 
	C182.518677,121.014351 183.816574,121.908035 184.574890,123.088737 
	C185.839447,125.057686 185.671570,127.086655 183.894562,128.955795 
	C182.181198,130.758011 180.459930,130.866852 178.641434,129.413177 
	C174.114929,125.794746 168.146484,124.099106 163.960144,120.804665 
	C158.093170,116.187691 151.598038,112.730774 145.697067,108.332138 
	C140.851913,104.720512 135.428452,102.205986 130.141525,99.414841 
	C129.430954,99.039711 128.252747,99.038361 127.942825,98.493340 
	C123.500542,90.680847 113.476364,90.516655 108.059418,83.916527 
	C106.776207,82.353035 104.281372,82.105568 102.004478,84.419792 
	C98.630867,87.848709 94.290009,90.314400 90.480759,93.188179 
	C82.972855,98.852303 73.988670,101.800407 66.714447,107.186111 
	C60.667896,111.662865 53.771896,114.824989 48.101379,119.964630 
	C44.652679,123.090439 40.116623,125.200127 36.226566,128.081802 
	C33.862099,129.833374 30.587950,128.943970 28.718678,125.617813 
	C27.269918,123.039902 27.534351,121.940498 30.211302,120.195122 
	C35.497040,116.748810 40.997242,113.687340 46.578110,110.854233 
	C48.925655,109.662506 50.369682,108.182266 52.079159,106.372322 
	C55.401917,102.854279 60.461834,101.579796 64.204315,98.600723 
	C71.303680,92.949509 80.164581,90.232246 87.543465,84.599976 
	C85.919579,82.449722 84.083649,82.950958 82.317650,82.944511 
	C74.824303,82.917130 67.316963,83.062653 59.843010,82.642334 
	C54.702316,82.353241 53.457188,80.330269 54.072971,74.838516 
	C65.140923,73.898048 76.475510,75.643791 87.674721,72.953979 
	C82.447670,69.794151 78.440102,65.691521 73.261963,62.956459 
	C68.235443,60.301483 63.411953,56.766369 58.871708,53.150444 
	C57.434483,52.005817 55.833607,51.994404 54.598785,51.160511 
	C46.178375,45.474041 37.415768,40.345367 28.848948,34.908089 
	C25.736300,32.932522 28.231386,29.705612 29.793337,27.506615 
	C31.178095,25.557079 33.159702,25.936472 35.037628,27.278776 
	C39.390228,30.389919 44.164101,33.019188 48.097729,36.582787 
	C53.468681,41.448494 60.473480,43.309429 66.280823,47.550404 
	C71.550117,51.398449 76.551315,56.512184 83.637154,57.874599 
	C85.784508,58.287479 88.288582,59.998623 89.437157,61.853348 
	C92.706512,67.132706 99.214233,67.659241 103.079155,71.896629 
	C103.675873,72.550850 104.671379,72.655609 105.394104,72.166359 
	C112.625092,67.271278 120.520294,63.381573 128.067245,59.153797 
	C137.567917,53.831566 145.175034,46.068932 154.898148,41.074467 
	C160.825378,38.029823 167.182922,35.384136 172.615173,31.251120 
	C174.805954,29.584288 175.356750,26.127405 179.469955,26.355366 
	C182.412369,26.518438 183.631729,27.665699 184.628204,29.836662 
	C185.831924,32.459152 183.658279,34.356026 182.177979,35.006477 
	C176.007797,37.717659 170.439285,41.690975 164.892380,45.154613 
	C157.509979,49.764393 149.613281,53.862923 142.840195,59.473957 
	C137.832001,63.622894 132.710693,67.560890 126.829109,70.371658 
	C125.744514,70.889977 124.434265,70.992035 124.608810,72.510948 
	C124.803413,74.204369 126.295097,74.413315 127.618668,74.542076 
	C128.939850,74.670616 130.280487,74.609459 131.612640,74.613121 
	C151.770203,74.668617 171.927750,74.721077 192.542664,74.887131 
	C193.000000,77.370560 193.000000,79.741112 193.000000,82.555832 
z"/>
</svg>