<svg version="1.1" id="Layer_1" xmlns="http://www.w3.org/2000/svg" xmlns:xlink="http://www.w3.org/1999/xlink" x="0px" y="0px"
	 width="100%" viewBox="0 0 192 176" enable-background="new 0 0 192 176" xml:space="preserve">
<path fill="#000000" opacity="1.000000" stroke="none" 
	d="
M193.000000,94.539368 
	C185.862900,94.031273 178.721252,95.079689 171.577316,94.982658 
	C156.448441,94.777199 141.314835,94.920044 126.039513,94.920044 
	C126.579308,98.860870 130.241791,97.804291 132.171539,99.550217 
	C138.546951,105.318298 146.860153,108.397087 154.090775,112.953468 
	C159.076096,116.094986 164.711777,118.600029 168.847763,123.352310 
	C170.952774,125.770973 174.568878,127.249626 177.783691,128.201736 
	C180.113419,128.891739 181.438248,130.173981 182.715073,131.842209 
	C184.027298,133.556656 186.588394,135.019684 183.936890,137.663589 
	C181.382645,140.210541 178.141983,140.310547 175.831192,138.384308 
	C167.979156,131.838898 158.738373,127.537003 150.385162,121.855675 
	C140.688339,115.260490 129.751587,110.454948 120.861961,102.948318 
	C116.967583,99.659805 111.961075,99.179710 108.636757,95.571297 
	C106.549522,93.305687 99.227654,95.605865 97.620094,98.453171 
	C95.138481,102.848595 90.659378,104.190369 86.903358,106.443962 
	C80.308929,110.400635 73.001404,113.188004 66.494865,117.266495 
	C60.155128,121.240425 54.605309,126.453979 48.405663,130.678604 
	C43.673767,133.903076 38.664310,136.892883 33.412666,139.127869 
	C29.138117,140.947021 29.567152,136.067657 28.494436,134.022797 
	C27.205273,131.565323 29.174459,129.725388 31.390419,128.761063 
	C38.063774,125.857010 44.140335,122.338486 49.923004,117.632729 
	C55.546398,113.056580 62.262707,109.511024 68.626160,105.728615 
	C72.474159,103.441368 75.969650,100.362434 80.963959,100.294090 
	C82.742157,100.269745 83.327255,97.817719 84.281364,96.260033 
	C82.758324,93.967644 80.430122,94.421280 78.375061,94.422035 
	C61.223007,94.428329 44.067192,94.334358 26.922010,94.707314 
	C23.337679,94.785278 21.367893,92.906952 19.394131,90.966606 
	C17.161285,88.771553 19.573786,84.161713 23.402824,83.827850 
	C30.379431,83.219536 37.377384,83.507141 44.265274,85.117996 
	C45.694088,85.452148 47.392021,85.940742 48.651497,85.486450 
	C58.360271,81.984489 68.266197,84.164940 78.102547,84.052734 
	C81.925110,84.009132 85.700615,83.173233 89.453819,85.276482 
	C86.741623,78.888824 80.069855,78.042839 75.433212,74.565964 
	C68.143280,69.099480 59.891590,64.968521 52.495995,59.722309 
	C46.262234,55.300262 39.118580,52.720932 32.977192,48.302277 
	C30.741331,46.693600 29.386297,44.517944 27.909382,42.429390 
	C30.551435,37.831429 33.713379,37.349052 37.848663,40.210037 
	C40.979687,42.376225 44.538269,44.153549 47.559147,46.289326 
	C56.407516,52.545177 65.987801,57.607311 75.077545,63.420563 
	C79.791519,66.435326 84.097282,70.503708 89.421753,72.396492 
	C94.030998,74.035027 96.651192,77.974518 100.528679,80.427078 
	C104.907021,83.196449 107.799263,83.659050 110.744324,79.431671 
	C113.414986,75.598190 117.908188,76.135216 121.334450,74.012886 
	C129.280914,69.090614 137.004700,63.722546 144.679993,58.513897 
	C154.598419,51.782993 164.532669,45.270943 175.189423,39.823494 
	C175.770142,39.526646 176.212097,38.951244 176.798218,38.673298 
	C178.981689,37.637863 180.345078,33.111320 183.778839,37.673801 
	C186.863571,41.772480 184.508575,44.628246 181.940247,46.530006 
	C177.234787,50.014214 171.546509,52.179127 166.875427,55.699974 
	C159.251434,61.446609 148.889175,62.581501 142.710114,70.866905 
	C140.302658,74.095039 135.534744,75.370399 131.968536,76.857002 
	C127.596985,78.679314 126.048180,83.227386 121.663353,84.740906 
	C125.673607,82.688087 129.768921,86.778870 133.700958,83.892540 
	C135.526947,82.552170 137.933182,83.757668 140.071136,83.725357 
	C148.880463,83.592247 157.732513,83.123947 166.487091,83.814796 
	C171.116028,84.180077 175.868347,84.303383 180.499939,84.758919 
	C184.030609,85.106171 188.410828,84.177383 192.654663,83.100319 
	C193.000000,86.692909 193.000000,90.385818 193.000000,94.539368 
z"/>
</svg>