<svg version="1.1" id="Layer_1" xmlns="http://www.w3.org/2000/svg" xmlns:xlink="http://www.w3.org/1999/xlink" x="0px" y="0px"
	 width="100%" viewBox="0 0 192 208" enable-background="new 0 0 192 208" xml:space="preserve">
<path fill="#000000" opacity="1.000000" stroke="none" 
	d="
M71.988861,160.985962 
	C71.874847,164.567383 68.253494,165.980865 67.937668,169.119675 
	C67.817551,170.313461 66.427803,170.215805 65.444893,170.113739 
	C64.217827,169.986313 63.913681,169.020493 63.742504,167.983459 
	C63.067902,163.896622 63.659477,159.849594 66.011734,156.590393 
	C70.610336,150.218704 73.373520,142.853836 77.432190,136.302643 
	C82.147598,128.691360 85.764137,120.558937 90.306938,112.907310 
	C92.255081,109.625977 91.617157,106.599678 90.557121,103.073433 
	C86.772987,90.485466 78.680222,80.172928 73.114319,68.568077 
	C69.817581,61.694401 64.916077,55.749653 62.460823,48.376736 
	C61.248486,44.736195 61.964500,42.810364 65.855827,40.155605 
	C74.284172,57.956448 85.683998,73.718971 93.100777,92.278564 
	C94.866592,89.298058 94.597939,86.764740 94.604843,84.314217 
	C94.650345,68.154007 94.608704,51.993439 94.703728,35.833618 
	C94.714912,33.931511 93.710251,30.685873 97.112778,30.962412 
	C100.038681,31.200212 102.069565,34.409534 100.978096,36.719654 
	C98.141853,42.722610 99.979393,48.845455 99.362122,54.861275 
	C99.311371,55.355904 99.396645,55.864281 99.348305,56.359398 
	C98.527946,64.762688 100.281891,72.984489 101.123970,81.268112 
	C101.310158,83.099686 101.697449,84.875969 100.594063,86.574768 
	C99.672119,87.994225 100.497810,88.648842 101.490166,89.062439 
	C109.657646,72.765633 120.367622,58.043266 127.500832,41.380337 
	C133.175110,43.172886 132.472458,43.500565 130.296753,49.327835 
	C127.680557,56.334862 123.354179,62.532898 121.399734,69.764198 
	C121.140770,70.722336 121.197426,71.795723 120.251259,72.415184 
	C115.074745,75.804291 113.373016,81.422546 111.209763,86.689903 
	C108.761269,92.651802 103.814735,97.224937 102.116440,103.631371 
	C101.578743,105.659714 101.386871,107.304123 102.079216,109.342751 
	C105.180580,118.474785 110.552193,126.544121 115.291634,134.698792 
	C120.676567,143.964081 125.639259,153.272995 129.570831,163.192871 
	C129.747559,163.638733 130.034286,164.199265 130.421234,164.377411 
	C132.632462,165.395432 132.499390,167.199066 131.991821,169.037796 
	C131.672913,170.193085 130.552155,170.258011 129.534790,170.274841 
	C127.228027,170.312973 125.691116,168.878540 124.933319,167.053329 
	C120.132149,155.489471 112.863869,145.244751 107.270737,134.095078 
	C105.986298,131.534622 105.050980,128.065033 101.209427,125.601463 
	C101.209427,133.891159 101.375999,141.425369 101.159782,148.948547 
	C100.966698,155.666611 102.847122,162.523041 100.000801,169.087128 
	C99.632683,169.936066 99.717644,170.752487 100.280365,171.426437 
	C101.856941,173.314651 101.049049,174.673813 99.523239,176.109558 
	C98.404472,177.162308 97.189461,177.576721 95.917175,176.915802 
	C94.039734,175.940521 94.695930,173.982040 94.689453,172.429108 
	C94.626160,157.268600 94.657684,142.107727 94.611710,126.947090 
	C94.605919,125.037666 94.963020,123.022446 93.336571,119.874863 
	C87.936188,135.179489 79.817528,147.786514 71.988861,160.985962 
z"/>
</svg>