<svg version="1.1" id="Layer_1" xmlns="http://www.w3.org/2000/svg" xmlns:xlink="http://www.w3.org/1999/xlink" x="0px" y="0px"
	 width="100%" viewBox="0 0 208 192" enable-background="new 0 0 208 192" xml:space="preserve">
<path fill="#000000" opacity="1.000000" stroke="none" 
	d="
M1.000000,80.458069 
	C2.806511,80.215851 4.612757,80.616959 6.419573,80.619537 
	C30.570936,80.654015 54.722382,80.636292 78.873795,80.618889 
	C80.863037,80.617455 82.875412,80.707947 85.204353,79.705460 
	C76.046646,74.815643 67.768661,68.981270 59.239429,63.655876 
	C52.930794,59.716953 45.320683,56.940063 40.366497,50.760132 
	C39.969078,50.264389 39.397087,49.848099 38.822533,49.564362 
	C33.944859,47.155605 29.206902,44.743069 24.675083,41.482349 
	C20.737986,38.649536 15.850065,36.627499 11.585526,33.840408 
	C9.172453,32.263348 7.869898,30.150940 7.617321,27.424978 
	C7.473297,25.870600 6.788238,23.685194 8.764135,23.000225 
	C10.705932,22.327076 13.481858,21.572552 14.807877,23.474680 
	C16.035860,25.236177 17.610571,25.899044 19.216114,26.267696 
	C25.155746,27.631510 29.175926,32.118862 33.841774,35.362381 
	C37.392094,37.830429 41.298992,39.348305 45.006893,41.251957 
	C47.915680,42.745338 50.903210,44.233055 52.931999,46.536579 
	C57.372814,51.578758 63.485428,53.857048 68.982468,57.043171 
	C76.566223,61.438774 83.358055,66.986427 90.951134,71.335495 
	C93.430618,72.755653 96.204788,73.476006 98.468933,75.508530 
	C102.266380,78.917480 105.756737,76.292160 108.579765,73.737511 
	C110.359329,72.127121 112.406342,71.453178 114.261177,70.325836 
	C118.621101,67.675926 123.673759,66.160217 127.424957,62.452354 
	C129.837906,60.067307 133.058365,58.714439 135.896088,56.942383 
	C146.585907,50.266968 156.526535,42.508854 167.977112,36.850521 
	C174.793564,33.482159 181.888901,29.538485 187.272491,23.442507 
	C188.788071,21.726389 191.987915,21.321196 194.511826,20.720709 
	C197.148041,20.093502 199.064850,21.678122 200.030289,23.942629 
	C200.977570,26.164555 200.228104,28.817396 198.177856,29.563757 
	C195.396210,30.576374 194.258438,34.045872 190.812103,33.862633 
	C189.408722,33.788021 188.526550,35.261719 187.969879,36.415974 
	C187.173355,38.067577 185.900894,38.965828 184.309738,39.566505 
	C175.630905,42.842785 168.333313,48.607140 160.237579,52.938717 
	C154.745590,55.877190 149.780563,59.348339 145.161179,63.833164 
	C140.527374,68.331985 133.770767,70.597572 128.099930,74.093987 
	C125.104828,75.940651 123.061859,79.333290 119.046165,79.840195 
	C122.135246,80.100449 125.223778,80.578957 128.313492,80.586594 
	C154.130295,80.650429 179.947296,80.630791 205.764236,80.616722 
	C206.585220,80.616280 207.406067,80.404678 208.613495,80.145760 
	C209.000000,83.361290 209.000000,86.722572 209.000000,90.541931 
	C204.034164,89.707718 199.062607,91.100166 194.086716,91.001816 
	C183.430481,90.791176 172.720169,91.527565 162.121017,90.715012 
	C151.312393,89.886391 140.555161,92.177223 129.789856,90.505249 
	C128.424133,90.293137 126.912941,91.017769 125.236450,91.355255 
	C127.030846,96.669678 132.231445,97.163628 135.756454,99.563011 
	C141.441010,103.432304 147.719589,106.222939 153.395538,110.408615 
	C157.628448,113.530144 163.019104,116.224159 167.434708,119.336952 
	C174.717514,124.471016 183.543884,127.422325 189.483871,134.431152 
	C191.018127,136.241470 193.349396,135.924088 195.224731,137.014984 
	C200.872208,140.300186 201.197021,140.586395 198.751724,146.458023 
	C198.315125,147.506378 198.112320,148.652084 197.690353,150.146774 
	C192.972015,148.720886 189.057663,146.032089 185.620819,143.135681 
	C183.163239,141.064560 180.692642,139.541626 177.819229,138.328537 
	C175.160492,137.206085 172.395844,136.315628 170.591324,133.612411 
	C168.770386,130.884598 165.232544,130.375412 162.573517,128.727081 
	C157.065277,125.312546 151.461319,122.249214 146.987122,117.378014 
	C145.637314,115.908440 143.289368,115.316559 141.346191,114.438705 
	C136.223221,112.124313 131.707657,108.950661 127.063736,105.779137 
	C120.533699,101.319511 114.116096,96.297920 106.524879,93.620712 
	C104.727715,92.986900 103.624229,91.547585 102.207649,91.102470 
	C93.159302,95.589851 85.798889,102.459526 77.104958,106.724564 
	C69.198692,110.603203 61.429359,114.929031 55.123802,120.524506 
	C50.560860,124.573624 43.694641,125.006714 40.736618,130.833817 
	C33.195457,131.025345 29.267035,138.166641 22.787449,140.201248 
	C18.795948,141.454575 17.059240,145.240723 13.556241,147.049042 
	C11.981986,147.861694 10.768390,148.579376 9.167659,148.127472 
	C7.202929,147.572815 7.777404,145.755966 7.631066,144.345230 
	C7.230733,140.485916 8.460821,137.737518 11.502425,134.841827 
	C16.656977,129.934540 23.133799,127.492393 28.966232,123.936440 
	C35.257713,120.100616 41.283195,115.678513 48.412666,113.233803 
	C51.141014,112.298256 52.836021,109.499382 55.043720,107.669144 
	C62.889534,101.164757 71.690712,96.417336 80.763115,91.784271 
	C79.257202,90.435165 77.550743,90.403374 75.936005,90.459770 
	C51.797554,91.302910 27.660030,91.187134 3.521042,90.511551 
	C2.868925,90.493301 2.210818,90.689110 1.277752,90.892548 
	C1.000000,87.638710 1.000000,84.277428 1.000000,80.458069 
z"/>
</svg>