<?xml version="1.0" encoding="UTF-8"?>
<svg version="1.1" xmlns="http://www.w3.org/2000/svg" width="200" height="208">
<path d="M0 0 C66 0 132 0 200 0 C200 68.64 200 137.28 200 208 C134 208 68 208 0 208 C0 139.36 0 70.72 0 0 Z " fill="#FDFDFD" transform="translate(0,0)"/>
<path d="M0 0 C66 0 132 0 200 0 C200 68.64 200 137.28 200 208 C134 208 68 208 0 208 C0 139.36 0 70.72 0 0 Z M58.078125 25.73828125 C56 27 56 27 53.6015625 27.84765625 C50.21179157 29.34913136 47.78214467 31.60533054 45.125 34.125 C44.59688721 34.62 44.06877441 35.115 43.5246582 35.625 C36.03895169 42.71901924 30.33848607 50.15978421 25 59 C24.51273438 59.79019531 24.02546875 60.58039062 23.5234375 61.39453125 C21.68591027 64.53717397 20.01343853 67.75089309 18.375 71 C18.06304688 71.60328125 17.75109375 72.2065625 17.4296875 72.828125 C14.15325159 79.32450655 13.83309909 84.94026162 13.796875 92.0703125 C13.79117493 92.94718719 13.78547485 93.82406189 13.77960205 94.72750854 C13.7701749 96.58167321 13.76362717 98.43585445 13.75976562 100.29003906 C13.75010435 103.09470785 13.71907771 105.89862932 13.6875 108.703125 C13.61180903 121.3233279 14.34638225 131.5318724 21.33203125 142.3984375 C23.1472195 145.22962105 24.78707448 148.1325311 26.4375 151.0625 C29.55672706 156.42152446 33.03860047 161.23905194 37 166 C37.56203125 166.69609375 38.1240625 167.3921875 38.703125 168.109375 C40.0830996 169.78410146 41.53519923 171.39893869 43 173 C43.66 173 44.32 173 45 173 C45 173.66 45 174.32 45 175 C55.913848 185.12827539 72.76541673 191.49353374 87 195 C87.7321875 195.18820313 88.464375 195.37640625 89.21875 195.5703125 C108.88958445 198.60934591 127.78538974 194.67826015 145 185 C146.00160156 184.51789063 147.00320312 184.03578125 148.03515625 183.5390625 C150.85796047 182.0737333 153.15443402 180.49042064 155.625 178.5 C160 175 160 175 162.2734375 173.40625 C162.84320313 172.9421875 163.41296875 172.478125 164 172 C164 171.34 164 170.68 164 170 C164.9590625 169.5978125 164.9590625 169.5978125 165.9375 169.1875 C168.33131686 168.11332248 168.33131686 168.11332248 169 165 C169.66 164.67 170.32 164.34 171 164 C171 163.34 171 162.68 171 162 C171.58910156 161.75894531 172.17820313 161.51789063 172.78515625 161.26953125 C180.00463378 157.13138275 184.07709604 146.90471473 186.38525391 139.28027344 C193.84116931 111.62409795 194.95973582 82.13279269 180.4921875 56.30859375 C179.03607247 53.87856541 179.03607247 53.87856541 176.75 51.75 C174.4315064 49.4315064 172.49411394 47.15051309 170.5 44.5625 C169.901875 43.78648438 169.30375 43.01046875 168.6875 42.2109375 C167.67882617 40.88938799 166.67650432 39.56289572 165.6875 38.2265625 C162.6876833 34.33864218 159.28834946 32.20335577 155 30 C153.72677377 29.25406948 152.45586669 28.50416398 151.1875 27.75 C148.31385666 25.8395804 148.31385666 25.8395804 146 26 C146 25.34 146 24.68 146 24 C116.59446239 9.77151406 86.33237305 7.19007885 58.078125 25.73828125 Z " fill="#FCFCFC" transform="translate(0,0)"/>
<path d="M0 0 C7.2801141 -0.23484239 14.43634019 0.65842234 21.64453125 1.58203125 C22.57265625 1.69949707 23.50078125 1.81696289 24.45703125 1.93798828 C30.10882689 2.73506249 35.00118718 4.0671907 40.26953125 6.26953125 C40.26953125 6.92953125 40.26953125 7.58953125 40.26953125 8.26953125 C40.82423096 8.42518555 41.37893066 8.58083984 41.95043945 8.74121094 C47.81910005 10.5221144 52.48955216 12.94906374 57.45703125 16.51953125 C58.18317627 17.03821777 58.90932129 17.5569043 59.6574707 18.09130859 C75.95061594 30.14357733 85.18086749 44.57740003 92.26953125 63.26953125 C92.57890625 63.99914062 92.88828125 64.72875 93.20703125 65.48046875 C102.08064019 86.6477234 100.35961835 112.84478985 92.24755859 133.92529297 C90.10558894 139.13214807 87.75491473 144.21859062 85.26953125 149.26953125 C84.60953125 149.26953125 83.94953125 149.26953125 83.26953125 149.26953125 C83.08390625 149.92953125 82.89828125 150.58953125 82.70703125 151.26953125 C81.01988312 154.79053605 78.8771424 157.21714761 76.2578125 160.0859375 C74.91077785 161.56529383 73.59611849 163.07466946 72.3125 164.609375 C68.58317546 169.03013249 65.12231539 172.41100849 60.03125 175.19921875 C58.22704956 176.19783624 58.22704956 176.19783624 56.8671875 177.6875 C54.78823193 179.74612349 52.49677495 181.15356418 50.01953125 182.70703125 C49.106875 183.28324219 48.19421875 183.85945312 47.25390625 184.453125 C46.2690625 185.05253906 45.28421875 185.65195313 44.26953125 186.26953125 C43.17640625 186.94628906 42.08328125 187.62304688 40.95703125 188.3203125 C23.6353774 198.07258277 -1.32458201 198.11642185 -20.04296875 193.14453125 C-27.86892637 190.86985554 -35.37460179 187.76146809 -42.73046875 184.26953125 C-42.73046875 183.60953125 -42.73046875 182.94953125 -42.73046875 182.26953125 C-43.80941406 181.90021484 -43.80941406 181.90021484 -44.91015625 181.5234375 C-48.04291109 180.13061991 -50.23811997 178.41216761 -52.85546875 176.20703125 C-56.46103827 173.15816627 -56.46103827 173.15816627 -60.73046875 171.26953125 C-66.73821963 165.59642962 -71.64531942 158.48258308 -76.55664062 151.84960938 C-77.5945903 150.45243586 -78.65322193 149.07067869 -79.71484375 147.69140625 C-94.24220631 127.25025008 -94.10391314 97.03756043 -90.3671875 73.265625 C-89.53576237 69.3533362 -88.2821953 65.9548818 -86.73046875 62.26953125 C-85.98100344 59.61651603 -85.35412801 56.95606345 -84.73046875 54.26953125 C-84.07046875 54.26953125 -83.41046875 54.26953125 -82.73046875 54.26953125 C-82.73046875 53.27953125 -82.73046875 52.28953125 -82.73046875 51.26953125 C-82.07046875 51.26953125 -81.41046875 51.26953125 -80.73046875 51.26953125 C-80.61566162 50.68526367 -80.50085449 50.10099609 -80.38256836 49.49902344 C-79.253137 45.63756063 -76.67011735 42.71524055 -74.29296875 39.51953125 C-73.78958984 38.82214844 -73.28621094 38.12476563 -72.76757812 37.40625 C-72.28224609 36.74753906 -71.79691406 36.08882812 -71.296875 35.41015625 C-70.85287354 34.80719727 -70.40887207 34.20423828 -69.95141602 33.58300781 C-69.34704712 32.93283691 -69.34704712 32.93283691 -68.73046875 32.26953125 C-68.07046875 32.26953125 -67.41046875 32.26953125 -66.73046875 32.26953125 C-66.47523437 31.67914063 -66.22 31.08875 -65.95703125 30.48046875 C-62.37521609 24.02407582 -54.59660829 19.5582215 -48.73046875 15.26953125 C-48.16585937 14.810625 -47.60125 14.35171875 -47.01953125 13.87890625 C-32.58557108 3.73079774 -17.18379976 1.24155202 0 0 Z M-41.65234375 19.0078125 C-43.73046875 20.26953125 -43.73046875 20.26953125 -46.12890625 21.1171875 C-49.51867718 22.61866261 -51.94832408 24.87486179 -54.60546875 27.39453125 C-55.13358154 27.88953125 -55.66169434 28.38453125 -56.20581055 28.89453125 C-63.69151706 35.98855049 -69.39198268 43.42931546 -74.73046875 52.26953125 C-75.21773437 53.05972656 -75.705 53.84992187 -76.20703125 54.6640625 C-78.04455848 57.80670522 -79.71703022 61.02042434 -81.35546875 64.26953125 C-81.66742188 64.8728125 -81.979375 65.47609375 -82.30078125 66.09765625 C-85.57721716 72.5940378 -85.89736966 78.20979287 -85.93359375 85.33984375 C-85.93929382 86.21671844 -85.9449939 87.09359314 -85.9508667 87.99703979 C-85.96029385 89.85120446 -85.96684158 91.7053857 -85.97070312 93.55957031 C-85.9803644 96.3642391 -86.01139104 99.16816057 -86.04296875 101.97265625 C-86.11865972 114.59285915 -85.3840865 124.80140365 -78.3984375 135.66796875 C-76.58324925 138.4991523 -74.94339427 141.40206235 -73.29296875 144.33203125 C-70.17374169 149.69105571 -66.69186828 154.50858319 -62.73046875 159.26953125 C-62.1684375 159.965625 -61.60640625 160.66171875 -61.02734375 161.37890625 C-59.64736915 163.05363271 -58.19526952 164.66846994 -56.73046875 166.26953125 C-56.07046875 166.26953125 -55.41046875 166.26953125 -54.73046875 166.26953125 C-54.73046875 166.92953125 -54.73046875 167.58953125 -54.73046875 168.26953125 C-43.81662075 178.39780664 -26.96505202 184.76306499 -12.73046875 188.26953125 C-11.99828125 188.45773438 -11.26609375 188.6459375 -10.51171875 188.83984375 C9.1591157 191.87887716 28.05492099 187.9477914 45.26953125 178.26953125 C46.27113281 177.78742188 47.27273437 177.3053125 48.3046875 176.80859375 C51.12749172 175.34326455 53.42396527 173.75995189 55.89453125 171.76953125 C60.26953125 168.26953125 60.26953125 168.26953125 62.54296875 166.67578125 C63.11273438 166.21171875 63.6825 165.74765625 64.26953125 165.26953125 C64.26953125 164.60953125 64.26953125 163.94953125 64.26953125 163.26953125 C65.22859375 162.86734375 65.22859375 162.86734375 66.20703125 162.45703125 C68.60084811 161.38285373 68.60084811 161.38285373 69.26953125 158.26953125 C69.92953125 157.93953125 70.58953125 157.60953125 71.26953125 157.26953125 C71.26953125 156.60953125 71.26953125 155.94953125 71.26953125 155.26953125 C71.85863281 155.02847656 72.44773438 154.78742188 73.0546875 154.5390625 C80.27416503 150.400914 84.34662729 140.17424598 86.65478516 132.54980469 C94.11070056 104.8936292 95.22926707 75.40232394 80.76171875 49.578125 C79.30560372 47.14809666 79.30560372 47.14809666 77.01953125 45.01953125 C74.70103765 42.70103765 72.76364519 40.42004434 70.76953125 37.83203125 C70.17140625 37.05601563 69.57328125 36.28 68.95703125 35.48046875 C67.94835742 34.15891924 66.94603557 32.83242697 65.95703125 31.49609375 C62.95721455 27.60817343 59.55788071 25.47288702 55.26953125 23.26953125 C53.99630502 22.52360073 52.72539794 21.77369523 51.45703125 21.01953125 C48.58338791 19.10911165 48.58338791 19.10911165 46.26953125 19.26953125 C46.26953125 18.60953125 46.26953125 17.94953125 46.26953125 17.26953125 C16.86399364 3.04104531 -13.3980957 0.4596101 -41.65234375 19.0078125 Z " fill="#090909" transform="translate(99.73046875,6.73046875)"/>
</svg>
