<svg version="1.1" id="Layer_1" xmlns="http://www.w3.org/2000/svg" xmlns:xlink="http://www.w3.org/1999/xlink" x="0px" y="0px"
	 width="100%" viewBox="0 0 172 179" enable-background="new 0 0 172 179" xml:space="preserve">
<path fill="#FEFEFE" opacity="1.000000" stroke="none" 
	d="
M120.000000,180.000000 
	C80.000000,180.000000 40.500004,180.000000 1.000005,180.000000 
	C1.000004,120.333336 1.000004,60.666679 1.000002,1.000013 
	C58.333324,1.000009 115.666649,1.000009 172.999969,1.000004 
	C172.999985,60.666653 172.999985,120.333305 173.000000,179.999969 
	C155.500000,180.000000 138.000000,180.000000 120.000000,180.000000 
M80.667145,81.142342 
	C72.249344,91.098671 63.818684,101.044174 55.417835,111.014786 
	C48.863228,118.794182 42.262009,126.537193 35.869194,134.448044 
	C34.225426,136.482147 32.165516,139.215302 36.408329,140.870148 
	C39.787529,137.078262 43.253693,133.430649 46.441837,129.554352 
	C51.173008,123.802017 55.576031,117.778000 60.352047,112.064659 
	C71.096809,99.211151 81.984566,86.477180 92.814812,73.695145 
	C104.415230,60.004135 116.045250,46.337997 127.590057,32.600258 
	C129.606873,30.200346 131.361115,27.497049 126.998207,24.818136 
	C111.684990,43.414707 96.387543,61.992130 80.667145,81.142342 
z"/>
<path fill="#0D0D0D" opacity="1.000000" stroke="none" 
	d="
M80.878616,80.855949 
	C96.387543,61.992130 111.684990,43.414707 126.998207,24.818136 
	C131.361115,27.497049 129.606873,30.200346 127.590057,32.600258 
	C116.045250,46.337997 104.415230,60.004135 92.814812,73.695145 
	C81.984566,86.477180 71.096809,99.211151 60.352047,112.064659 
	C55.576031,117.778000 51.173008,123.802017 46.441837,129.554352 
	C43.253693,133.430649 39.787529,137.078262 36.408329,140.870148 
	C32.165516,139.215302 34.225426,136.482147 35.869194,134.448044 
	C42.262009,126.537193 48.863228,118.794182 55.417835,111.014786 
	C63.818684,101.044174 72.249344,91.098671 80.878616,80.855949 
z"/>
</svg>