<svg version="1.1" id="Layer_1" xmlns="http://www.w3.org/2000/svg" xmlns:xlink="http://www.w3.org/1999/xlink" x="0px" y="0px"
	 width="100%" viewBox="0 0 173 172" enable-background="new 0 0 173 172" xml:space="preserve">
<path fill="#FEFEFE" opacity="1.000000" stroke="none" 
	d="
M117.000000,173.000000 
	C78.000000,173.000000 39.500004,173.000000 1.000005,173.000000 
	C1.000003,115.666672 1.000003,58.333344 1.000002,1.000013 
	C58.666656,1.000009 116.333313,1.000009 173.999969,1.000004 
	C173.999985,58.333324 173.999985,115.666649 174.000000,172.999985 
	C155.166672,173.000000 136.333328,173.000000 117.000000,173.000000 
M86.478210,73.021194 
	C103.090462,92.168663 119.702721,111.316132 136.302170,130.448837 
	C139.788681,128.507233 139.857590,126.437187 137.161285,123.765907 
	C133.856476,120.491814 130.651825,117.096581 127.629852,113.560593 
	C115.574608,99.454865 103.620781,85.262535 91.602921,71.124771 
	C81.689003,59.462051 71.796898,47.779865 61.780331,36.205658 
	C55.993530,29.518976 49.979244,23.029160 43.983902,16.357895 
	C42.881065,17.643497 41.918190,18.765944 41.125057,19.690521 
	C56.136154,37.353596 71.067009,54.922249 86.478210,73.021194 
z"/>
<path fill="#0D0D0D" opacity="1.000000" stroke="none" 
	d="
M86.238037,72.756050 
	C71.067009,54.922249 56.136154,37.353596 41.125057,19.690521 
	C41.918190,18.765944 42.881065,17.643497 43.983902,16.357895 
	C49.979244,23.029160 55.993530,29.518976 61.780331,36.205658 
	C71.796898,47.779865 81.689003,59.462051 91.602921,71.124771 
	C103.620781,85.262535 115.574608,99.454865 127.629852,113.560593 
	C130.651825,117.096581 133.856476,120.491814 137.161285,123.765907 
	C139.857590,126.437187 139.788681,128.507233 136.302170,130.448837 
	C119.702721,111.316132 103.090462,92.168663 86.238037,72.756050 
z"/>
</svg>