<svg version="1.1" id="Layer_1" xmlns="http://www.w3.org/2000/svg" xmlns:xlink="http://www.w3.org/1999/xlink" x="0px" y="0px"
	 width="100%" viewBox="0 0 175 178" enable-background="new 0 0 175 178" xml:space="preserve">
<path fill="#FEFEFE" opacity="1.000000" stroke="none" 
	d="
M90.000000,179.000000 
	C60.000000,179.000000 30.500004,179.000000 1.000004,179.000000 
	C1.000003,119.666672 1.000003,60.333344 1.000001,1.000012 
	C59.333324,1.000008 117.666649,1.000008 175.999969,1.000004 
	C175.999985,60.333324 175.999985,119.666649 176.000000,178.999985 
	C147.500000,179.000000 119.000000,179.000000 90.000000,179.000000 
M76.544426,73.119217 
	C83.743095,81.583748 90.941765,90.048271 98.140434,98.512802 
	C98.569939,98.176437 98.999443,97.840073 99.428955,97.503708 
	C98.819847,96.244453 98.444778,94.784973 97.565315,93.757027 
	C89.057877,83.813217 80.456871,73.949524 71.901985,64.046196 
	C68.313217,59.891758 64.841232,55.633442 61.155396,51.568092 
	C60.290081,50.613678 58.773434,50.249794 57.556435,49.614235 
	C57.391479,50.000614 57.226524,50.386990 57.061569,50.773369 
	C63.393333,58.047451 69.725098,65.321533 76.544426,73.119217 
z"/>
<path fill="#1B1B1B" opacity="1.000000" stroke="none" 
	d="
M76.300644,72.857422 
	C69.725098,65.321533 63.393333,58.047451 57.061569,50.773369 
	C57.226524,50.386990 57.391479,50.000614 57.556435,49.614235 
	C58.773434,50.249794 60.290081,50.613678 61.155396,51.568092 
	C64.841232,55.633442 68.313217,59.891758 71.901985,64.046196 
	C80.456871,73.949524 89.057877,83.813217 97.565315,93.757027 
	C98.444778,94.784973 98.819847,96.244453 99.428955,97.503708 
	C98.999443,97.840073 98.569939,98.176437 98.140434,98.512802 
	C90.941765,90.048271 83.743095,81.583748 76.300644,72.857422 
z"/>
</svg>