<svg version="1.1" id="Layer_1" xmlns="http://www.w3.org/2000/svg" xmlns:xlink="http://www.w3.org/1999/xlink" x="0px" y="0px"
	 width="100%" viewBox="0 0 176 176" enable-background="new 0 0 176 176" xml:space="preserve">
<path fill="#000000" opacity="1.000000" stroke="none" 
	d="
M109.143883,32.264496 
	C117.484108,32.022896 125.438705,31.824339 133.394455,31.701044 
	C139.797211,31.601814 140.312988,32.101395 140.320526,38.377563 
	C140.345566,59.207745 139.872147,80.052444 140.516220,100.862900 
	C140.922638,113.994652 141.145187,127.120819 141.404526,140.251938 
	C141.481689,144.158859 140.228546,145.518066 136.259155,145.450821 
	C124.264374,145.247635 112.259521,145.180420 100.266632,145.436462 
	C84.116058,145.781296 67.975639,146.590042 51.825485,146.972488 
	C44.227718,147.152420 43.690098,146.383896 43.687336,138.666016 
	C43.677864,112.169823 43.747929,85.673347 43.635311,59.177631 
	C43.605675,52.205959 43.179432,45.224850 42.644581,38.270435 
	C42.298901,33.775700 44.170357,32.564911 48.427593,32.600830 
	C67.881485,32.764957 87.337563,32.671967 106.792839,32.652435 
	C107.448242,32.651775 108.103455,32.448742 109.143883,32.264496 
M77.526253,38.081974 
	C67.799911,36.162128 58.141773,38.157383 47.979488,38.126736 
	C47.979488,40.387325 47.970509,42.189316 47.980865,43.991192 
	C48.096371,64.083160 47.853775,84.186356 48.479149,104.262497 
	C48.810535,114.900909 48.760117,125.532028 49.001003,136.163940 
	C49.056271,138.603195 49.047909,140.700531 52.637291,140.695679 
	C76.752640,140.663116 100.868217,140.840210 124.983757,140.849457 
	C128.725571,140.850891 132.467590,140.341064 136.650696,140.035446 
	C136.650696,137.446213 136.655594,135.309006 136.649918,133.171829 
	C136.605865,116.555519 136.592896,99.948799 135.849701,83.332024 
	C135.233063,69.544258 135.653702,55.709152 135.666214,41.895065 
	C135.668533,39.328167 135.486526,37.305443 132.054443,37.322956 
	C114.164604,37.414242 96.269669,37.046429 77.526253,38.081974 
z"/>
</svg>