<svg version="1.1" id="Layer_1" xmlns="http://www.w3.org/2000/svg" xmlns:xlink="http://www.w3.org/1999/xlink" x="0px" y="0px"
	 width="100%" viewBox="0 0 176 157" enable-background="new 0 0 176 157" xml:space="preserve">
<path fill="#FDFDFD" opacity="1.000000" stroke="none" 
	d="
M98.000000,158.000000 
	C65.333336,158.000000 33.166676,158.000000 1.000009,158.000000 
	C1.000006,105.666679 1.000006,53.333355 1.000003,1.000023 
	C59.666653,1.000015 118.333305,1.000015 176.999969,1.000008 
	C176.999969,53.333309 176.999969,105.666618 176.999985,157.999969 
	C150.833328,158.000000 124.666664,158.000000 98.000000,158.000000 
M127.500153,24.292576 
	C92.745209,24.798223 57.990269,25.303871 23.785830,25.801508 
	C23.785830,63.369514 23.785830,100.710342 23.785830,138.056259 
	C42.242958,138.056259 59.901619,138.167725 77.558029,138.016556 
	C89.082512,137.917877 100.602112,137.296646 112.126816,137.165405 
	C125.789513,137.009827 139.455368,137.121552 153.119827,137.135498 
	C156.089661,137.138535 158.237198,137.069748 157.356140,132.725113 
	C156.501236,128.509338 156.809784,124.034523 156.804688,119.673225 
	C156.769562,89.678078 156.786224,59.682854 156.786224,29.687658 
	C156.786224,28.066549 156.786224,26.445440 156.786224,24.292587 
	C147.069153,24.292587 137.784668,24.292587 127.500153,24.292576 
z"/>
<path fill="#0D0D0D" opacity="1.000000" stroke="none" 
	d="
M128.000168,24.292582 
	C137.784668,24.292587 147.069153,24.292587 156.786224,24.292587 
	C156.786224,26.445440 156.786224,28.066549 156.786224,29.687658 
	C156.786224,59.682854 156.769562,89.678078 156.804688,119.673225 
	C156.809784,124.034523 156.501236,128.509338 157.356140,132.725113 
	C158.237198,137.069748 156.089661,137.138535 153.119827,137.135498 
	C139.455368,137.121552 125.789513,137.009827 112.126816,137.165405 
	C100.602112,137.296646 89.082512,137.917877 77.558029,138.016556 
	C59.901619,138.167725 42.242958,138.056259 23.785830,138.056259 
	C23.785830,100.710342 23.785830,63.369514 23.785830,25.801508 
	C57.990269,25.303871 92.745209,24.798223 128.000168,24.292582 
M151.912567,57.500023 
	C151.912567,47.718517 151.912567,37.937008 151.912567,29.279087 
	C110.119705,29.279087 68.686050,29.279087 27.658964,29.279087 
	C27.658964,64.890755 27.658964,99.242561 27.658964,133.076111 
	C69.727753,133.076111 111.117699,133.076111 151.912567,133.076111 
	C151.912567,107.717400 151.912567,83.108719 151.912567,57.500023 
z"/>
<path fill="#FDFDFD" opacity="1.000000" stroke="none" 
	d="
M151.912567,58.000027 
	C151.912567,83.108719 151.912567,107.717400 151.912567,133.076111 
	C111.117699,133.076111 69.727753,133.076111 27.658964,133.076111 
	C27.658964,99.242561 27.658964,64.890755 27.658964,29.279087 
	C68.686050,29.279087 110.119705,29.279087 151.912567,29.279087 
	C151.912567,37.937008 151.912567,47.718517 151.912567,58.000027 
z"/>
</svg>