<svg version="1.1" id="Layer_1" xmlns="http://www.w3.org/2000/svg" xmlns:xlink="http://www.w3.org/1999/xlink" x="0px" y="0px"
	 width="100%" viewBox="0 0 174 196" enable-background="new 0 0 174 196" xml:space="preserve">
<path fill="#FEFEFE" opacity="1.000000" stroke="none" 
	d="
M175.000000,65.000000 
	C175.000000,109.303703 175.000000,153.107407 175.000000,196.955551 
	C117.068863,196.955551 59.137688,196.955551 1.103255,196.955551 
	C1.103255,131.779816 1.103255,66.559410 1.103255,1.169501 
	C58.999592,1.169501 116.999756,1.169501 175.000000,1.169501 
	C175.000000,22.195360 175.000000,43.347679 175.000000,65.000000 
M124.499893,174.887817 
	C134.501404,174.887817 144.502914,174.887817 154.833267,174.887817 
	C154.833267,172.860001 154.848190,171.382843 154.831055,169.906052 
	C154.518951,143.014145 154.102509,116.123001 153.919022,89.230247 
	C153.766739,66.911606 153.794510,44.590359 153.971436,22.272078 
	C154.004395,18.113695 152.797485,16.710489 148.574783,16.849535 
	C131.878784,17.399313 115.174751,17.857023 98.470947,17.981846 
	C74.153847,18.163553 49.834381,18.028442 25.515923,18.028416 
	C23.757397,18.028414 21.998869,18.028416 20.830872,18.028416 
	C20.830872,70.657784 20.830872,122.628075 20.830872,174.887817 
	C55.592751,174.887817 89.546333,174.887817 124.499893,174.887817 
z"/>
<path fill="#101010" opacity="1.000000" stroke="none" 
	d="
M123.999908,174.887817 
	C89.546333,174.887817 55.592751,174.887817 20.830872,174.887817 
	C20.830872,122.628075 20.830872,70.657784 20.830872,18.028416 
	C21.998869,18.028416 23.757397,18.028414 25.515923,18.028416 
	C49.834381,18.028442 74.153847,18.163553 98.470947,17.981846 
	C115.174751,17.857023 131.878784,17.399313 148.574783,16.849535 
	C152.797485,16.710489 154.004395,18.113695 153.971436,22.272078 
	C153.794510,44.590359 153.766739,66.911606 153.919022,89.230247 
	C154.102509,116.123001 154.518951,143.014145 154.831055,169.906052 
	C154.848190,171.382843 154.833267,172.860001 154.833267,174.887817 
	C144.502914,174.887817 134.501404,174.887817 123.999908,174.887817 
M89.661072,22.720362 
	C67.843819,23.087688 46.026573,23.455015 25.004286,23.808958 
	C25.004286,34.715736 25.004286,45.151638 25.004284,55.587536 
	C25.004278,89.396248 24.985739,123.204987 25.038929,157.013611 
	C25.043255,159.761871 26.352058,162.750443 25.625271,165.203903 
	C24.354038,169.495270 26.085913,170.318008 29.604847,170.158234 
	C36.998779,169.822495 44.389500,169.174026 51.783360,169.146774 
	C59.135994,169.119659 66.493027,169.999649 73.844307,169.947098 
	C90.638779,169.827011 107.430183,169.329605 124.224312,169.087326 
	C132.669205,168.965500 141.117294,169.066055 149.219101,169.066055 
	C149.219101,120.110962 149.219101,71.563416 149.219101,22.720350 
	C129.199127,22.720350 109.911346,22.720350 89.661072,22.720362 
z"/>
<path fill="#FEFEFE" opacity="1.000000" stroke="none" 
	d="
M90.142319,22.720356 
	C109.911346,22.720350 129.199127,22.720350 149.219101,22.720350 
	C149.219101,71.563416 149.219101,120.110962 149.219101,169.066055 
	C141.117294,169.066055 132.669205,168.965500 124.224312,169.087326 
	C107.430183,169.329605 90.638779,169.827011 73.844307,169.947098 
	C66.493027,169.999649 59.135994,169.119659 51.783360,169.146774 
	C44.389500,169.174026 36.998779,169.822495 29.604847,170.158234 
	C26.085913,170.318008 24.354038,169.495270 25.625271,165.203903 
	C26.352058,162.750443 25.043255,159.761871 25.038929,157.013611 
	C24.985739,123.204987 25.004278,89.396248 25.004284,55.587536 
	C25.004286,45.151638 25.004286,34.715736 25.004286,23.808958 
	C46.026573,23.455015 67.843819,23.087688 90.142319,22.720356 
z"/>
</svg>