<svg version="1.1" id="Layer_1" xmlns="http://www.w3.org/2000/svg" xmlns:xlink="http://www.w3.org/1999/xlink" x="0px" y="0px"
	 width="100%" viewBox="0 0 256 288" enable-background="new 0 0 256 288" xml:space="preserve">
<path fill="#000000" opacity="1.000000" stroke="none" 
	d="
M60.381912,27.101213 
	C65.199615,26.368032 69.801704,26.650707 74.387032,26.648693 
	C110.375633,26.632883 146.364410,26.684914 182.352585,26.557596 
	C186.632477,26.542459 189.091843,28.266872 191.714325,31.554365 
	C196.970016,38.142826 202.929199,44.175858 208.677872,50.363960 
	C217.418625,59.772888 226.213165,69.131470 234.382660,79.051102 
	C234.694702,79.430008 234.841431,80.027962 235.224380,80.253326 
	C242.972397,84.813225 243.653778,91.897873 243.510605,100.094528 
	C243.082886,124.579277 243.335602,149.076309 243.378830,173.568451 
	C243.385147,177.148819 243.414429,180.573990 244.880096,184.199036 
	C246.117203,187.258774 246.412094,191.385178 244.169296,194.762527 
	C243.476929,195.805130 243.054459,197.134216 243.679291,198.072083 
	C246.431946,202.203720 245.317581,206.791885 245.341202,211.179672 
	C245.446167,230.672791 245.372528,250.166931 245.345901,269.660675 
	C245.335678,277.149139 244.098740,278.365662 236.693665,278.386902 
	C204.709076,278.478516 172.721848,278.121368 140.741638,278.944824 
	C139.145752,278.985931 137.382675,278.394806 136.215210,280.219971 
	C135.912964,280.692444 135.032913,281.247894 134.607529,281.122620 
	C124.598686,278.175140 114.740837,282.687378 104.673859,281.580322 
	C96.319756,280.661621 87.784279,281.392303 79.246933,281.392303 
	C78.769157,274.238007 72.647324,271.685089 69.543709,266.978760 
	C66.311081,262.076782 61.902573,257.611115 57.138039,254.153931 
	C52.375572,250.698273 51.122971,244.308899 45.962891,241.790527 
	C41.522152,239.623230 40.943367,233.588470 35.423080,232.493103 
	C33.825611,232.176132 33.382050,228.854355 31.768248,226.966385 
	C27.421635,221.881348 21.334904,217.901932 21.426722,209.300690 
	C21.874882,167.318893 21.640543,125.329620 21.585339,83.343079 
	C21.581377,80.329933 22.011971,77.440361 19.475552,74.519379 
	C18.184473,73.032547 18.853340,69.090485 18.777538,66.307899 
	C18.451002,54.321266 18.693022,42.319790 18.663898,30.323877 
	C18.657879,27.845554 19.599815,26.646563 22.178045,26.670706 
	C34.821663,26.789103 47.465839,26.847605 60.381912,27.101213 
M182.650269,181.500046 
	C182.649918,156.021408 182.649765,130.542755 182.649078,105.064117 
	C182.648834,95.901459 182.154343,95.453491 173.060791,96.567070 
	C171.623840,96.743027 170.086334,96.593742 169.156937,98.247505 
	C168.475586,99.459854 167.304794,99.441010 166.153458,98.666550 
	C160.556839,94.901947 155.044754,95.149643 149.531662,98.923286 
	C148.958176,99.315826 147.691162,99.458763 147.212097,99.098175 
	C144.649979,97.169655 141.407578,97.913017 138.567078,96.713020 
	C136.408356,95.801064 133.381424,95.998581 130.821869,98.401527 
	C128.765320,100.332214 125.230881,100.235809 122.547462,98.502853 
	C121.599251,97.890488 121.503311,97.809036 120.320335,98.292229 
	C114.322708,100.742050 107.978142,98.929550 101.783302,99.245193 
	C100.428383,99.314224 100.256454,96.018303 98.881783,97.626518 
	C96.503593,100.408737 93.645493,99.204796 91.008621,99.319656 
	C84.681038,99.595322 84.349167,99.780907 84.347664,106.292938 
	C84.340538,137.100464 84.346764,167.907990 84.353806,198.715515 
	C84.355522,206.198410 86.639885,208.528061 94.119408,208.601456 
	C98.948212,208.648834 103.778839,208.669357 108.606850,208.590988 
	C112.701859,208.524506 116.695206,204.697678 120.970596,208.483643 
	C121.745117,209.169495 123.582741,208.666641 124.449913,207.324005 
	C125.608894,205.529572 126.641754,205.446716 128.408218,206.942352 
	C131.444931,209.513489 138.527695,209.417740 141.635895,206.832031 
	C142.826752,205.841339 143.960739,205.683075 145.261658,205.678879 
	C156.162094,205.643738 167.063477,205.557587 177.962646,205.670456 
	C181.393539,205.705994 182.767853,204.435410 182.683319,200.983459 
	C182.532486,194.825745 182.646423,188.661514 182.650269,181.500046 
M78.637756,194.418945 
	C78.638809,185.254471 78.699684,176.089401 78.605476,166.925903 
	C78.576141,164.072266 79.597290,160.875259 76.370789,158.751389 
	C75.500114,158.178253 75.617661,156.620834 76.498802,156.109573 
	C79.339722,154.461243 78.279961,151.776031 78.663719,149.419220 
	C80.117729,140.489441 75.420395,131.592224 78.584854,122.640930 
	C78.942436,121.629456 78.984909,119.809387 78.372131,119.262970 
	C73.711472,115.107048 76.217155,109.719841 75.669754,104.892166 
	C75.292061,101.561180 75.176582,98.544052 73.500328,95.150421 
	C71.996948,92.106773 69.012566,91.127914 67.939041,88.667786 
	C64.832909,81.549713 59.940266,76.274673 53.341904,72.438286 
	C52.592476,72.002556 51.661968,71.689705 51.749924,70.767586 
	C52.165565,66.410088 48.517235,66.566124 46.310928,65.240196 
	C40.521866,57.744556 31.344030,52.938072 28.187897,42.064167 
	C27.856302,46.328419 27.390322,49.552010 27.387188,52.776051 
	C27.339434,101.931015 27.390511,151.086136 27.280994,200.240906 
	C27.271830,204.354187 28.565287,205.787582 32.719955,205.719452 
	C45.899414,205.503342 59.087086,205.448639 72.265396,205.681534 
	C77.022202,205.765625 79.199265,204.250000 78.659546,199.384354 
	C78.513481,198.067566 78.638168,196.720764 78.637756,194.418945 
M219.451996,268.623871 
	C223.175095,268.448761 226.967316,269.088959 231.194290,268.032562 
	C223.998001,260.112518 217.242676,252.694641 210.506516,245.259415 
	C203.904343,237.972076 197.584641,230.401581 190.609009,223.492416 
	C187.553024,220.465561 185.769852,215.394211 180.206848,215.397369 
	C150.072464,215.414429 119.938011,215.432938 89.803741,215.371399 
	C85.778145,215.363174 84.225624,216.927322 84.291824,221.049988 
	C84.484268,233.034027 84.349281,245.023224 84.354378,257.010406 
	C84.355965,260.744263 83.387833,265.329803 87.479988,267.141266 
	C91.046463,268.720032 94.077843,271.709991 98.415497,271.662109 
	C108.903038,271.546356 119.392769,271.642639 129.881317,271.590729 
	C131.349411,271.583466 133.410797,271.765350 134.174164,270.927368 
	C136.719894,268.132812 139.853806,268.642578 142.941620,268.624298 
	C148.471085,268.591553 154.000961,268.635712 159.530655,268.636566 
	C179.176300,268.639496 198.821945,268.637756 219.451996,268.623871 
M137.490158,89.644310 
	C143.020935,88.803986 149.106705,91.767334 154.072952,87.113609 
	C156.477142,89.877777 159.448242,90.994041 162.198547,88.416878 
	C164.333069,86.416733 165.039429,87.379890 166.988815,88.588058 
	C170.345810,90.668602 174.603867,90.440315 178.015503,88.891396 
	C181.095032,87.493263 182.895081,84.684502 182.776443,80.491646 
	C182.413651,67.671120 182.463425,54.829865 182.745148,42.005291 
	C182.837860,37.785145 181.450165,36.414536 177.417084,36.584026 
	C171.102737,36.849388 164.774567,36.888332 158.453156,36.854660 
	C151.959366,36.820072 145.466736,36.580692 138.973480,36.435760 
	C133.275757,36.308586 127.937912,38.301292 121.786415,36.863094 
	C114.869888,35.246037 107.149872,37.450695 99.923843,36.664730 
	C92.626686,35.871025 85.450615,38.205166 78.200188,36.594078 
	C76.670517,36.254173 74.857307,36.761059 73.178886,38.060585 
	C70.098381,40.445683 66.071930,40.296947 63.018833,38.341808 
	C59.923595,36.359699 57.280041,36.220818 54.373154,37.848091 
	C53.410736,38.386845 52.842903,38.862312 51.799618,38.091717 
	C47.765690,35.112186 43.104256,36.830894 38.720631,36.486626 
	C37.392525,36.382320 35.942024,36.581566 35.553471,38.263721 
	C35.225510,39.683578 35.786552,40.642658 36.955490,41.665852 
	C43.923462,47.765049 48.921387,55.700512 57.004971,60.973354 
	C62.745857,64.718079 66.929062,70.973465 71.462708,76.396523 
	C73.863823,79.268692 78.099464,81.600441 78.667435,84.685448 
	C79.748619,90.558083 83.312088,89.641319 87.002907,89.643936 
	C103.499619,89.655624 119.996361,89.646065 137.490158,89.644310 
M236.657120,130.500092 
	C236.657379,121.007545 236.513824,111.511757 236.727798,102.024033 
	C236.814896,98.161812 235.354156,96.457138 231.597916,96.456535 
	C219.441101,96.454590 207.284027,96.473640 195.127670,96.391167 
	C191.779663,96.368454 188.933212,98.895515 188.844955,100.919289 
	C188.545319,107.790413 186.187958,115.084183 191.084366,121.686279 
	C189.802734,123.486694 186.797668,125.282013 188.997269,127.856689 
	C192.291046,131.712097 192.689926,135.178711 189.215942,139.010468 
	C188.064163,140.280869 187.958069,142.057556 189.355530,143.002441 
	C191.820801,144.669312 191.333435,147.015915 191.337341,149.262512 
	C191.369186,167.581436 191.433853,185.900970 191.305283,204.219040 
	C191.273407,208.758469 191.946823,212.471680 196.045090,215.377426 
	C198.776596,217.314087 200.735626,220.344742 203.025131,222.899460 
	C210.802109,231.577271 218.319748,240.510101 226.490479,248.799438 
	C229.131622,251.478958 234.023788,251.711639 235.652634,256.299835 
	C236.240433,255.173645 236.480331,254.536865 236.481430,253.899673 
	C236.552155,213.099838 236.603470,172.299973 236.657120,130.500092 
M78.083939,260.991211 
	C79.303169,246.900009 78.368881,232.782074 78.600098,218.678482 
	C78.650986,215.574356 76.439606,215.399750 74.135780,215.400787 
	C67.488457,215.403793 60.838657,215.279846 54.194565,215.423965 
	C48.418228,215.549271 42.582336,214.704147 36.465023,216.219528 
	C39.356113,219.784180 41.913036,223.230347 44.772591,226.403809 
	C51.522091,233.894226 58.199749,241.471268 65.332550,248.586121 
	C69.563385,252.806351 72.384430,258.393707 78.083939,260.991211 
M188.349396,64.500481 
	C188.348755,69.990105 188.581680,75.492935 188.272537,80.965126 
	C188.031219,85.236435 189.285248,86.912926 193.830521,86.729187 
	C202.301025,86.386765 210.794937,86.656166 219.278244,86.577988 
	C221.825623,86.554512 224.466537,87.038963 227.647079,85.791718 
	C214.699738,71.375557 202.137100,57.387741 188.972717,42.729931 
	C187.845490,50.024277 188.560455,56.790730 188.349396,64.500481 
z"/>
</svg>