<svg version="1.1" id="Layer_1" xmlns="http://www.w3.org/2000/svg" xmlns:xlink="http://www.w3.org/1999/xlink" x="0px" y="0px"
	 width="100%" viewBox="0 0 256 368" enable-background="new 0 0 256 368" xml:space="preserve">
<path fill="#000000" opacity="1.000000" stroke="none" 
	d="
M145.571320,30.471407 
	C149.891800,34.825077 153.350449,39.778000 157.989334,43.065556 
	C170.550186,51.967384 178.798187,64.971962 189.897263,75.204346 
	C191.422516,76.610481 192.650970,78.421158 193.000916,80.106209 
	C193.917877,84.521477 196.038620,87.202591 200.591522,87.792465 
	C201.784409,87.947021 202.122513,88.845848 202.298126,89.916756 
	C202.898376,93.577141 204.178726,96.593544 208.617783,96.836159 
	C210.116348,96.918068 210.266571,98.277489 210.335754,99.464493 
	C210.433670,101.144753 211.047958,102.427216 212.884033,102.599762 
	C214.839081,102.783485 215.308289,104.006134 215.362854,105.676300 
	C215.396362,106.702225 215.627853,108.007034 216.686096,108.132317 
	C223.087891,108.890305 225.146500,114.903488 228.966110,118.559464 
	C236.542542,125.811333 243.306061,133.917267 250.331177,141.737015 
	C252.097366,143.702988 253.334564,145.902863 253.483734,148.789398 
	C254.524750,168.933289 254.081390,189.085159 254.004440,209.235382 
	C253.982178,215.065506 253.653915,220.911087 253.979111,226.720871 
	C254.262756,231.788177 252.386749,235.293182 248.886047,238.928879 
	C238.559311,249.653900 228.534637,260.686371 218.739853,271.902466 
	C208.334549,283.817719 197.286240,295.123169 186.552963,306.726013 
	C185.606537,307.749115 185.642731,308.829346 185.589676,309.931824 
	C185.481903,312.171722 183.687637,314.550110 182.572800,314.707306 
	C175.500595,315.704468 173.443100,322.085846 169.594910,326.321960 
	C161.654678,335.062622 153.203094,343.320648 145.408661,352.180481 
	C141.229584,356.930786 137.553085,362.121521 131.667297,366.023315 
	C129.384872,362.048035 123.352409,361.683502 122.111031,356.156830 
	C121.878471,355.121490 120.522156,355.122040 119.578804,354.827576 
	C115.644958,353.599487 113.156349,350.759003 111.775185,347.085205 
	C110.915665,344.798950 110.353462,342.621216 107.439415,342.332367 
	C106.979774,342.286804 106.198135,341.979431 106.159248,341.708008 
	C104.883865,332.805817 95.378876,331.344971 90.885796,324.976624 
	C86.611961,318.919037 80.303673,313.766113 75.353348,307.991638 
	C67.425179,298.743500 58.542831,290.323090 51.344193,280.410278 
	C47.671074,275.352234 41.303276,273.103149 37.138687,268.326019 
	C31.395433,261.738007 24.766748,255.824066 19.748789,248.748108 
	C17.638662,245.772552 15.421310,241.956879 15.483680,237.227814 
	C15.819754,211.745407 16.136677,186.241211 15.392327,160.775726 
	C15.048101,148.999130 19.727758,140.496841 27.618105,132.872116 
	C29.806131,130.757751 32.757023,129.213409 32.802807,125.544785 
	C32.817383,124.377220 33.912411,124.150017 34.771313,123.615303 
	C37.500061,121.916512 39.682461,120.088318 41.038872,116.622505 
	C42.163467,113.749031 46.401142,112.522583 48.736271,109.784431 
	C56.651951,100.502617 65.458656,92.030540 73.037590,82.411667 
	C84.628304,67.701202 96.453308,53.176300 109.551804,39.725376 
	C117.135223,31.937923 124.237778,23.682196 131.894577,15.265851 
	C136.713043,20.216787 141.806549,24.494673 145.571320,30.471407 
M168.563461,229.073181 
	C175.705826,221.508286 182.012436,213.149399 190.197311,206.562912 
	C191.374756,205.615433 192.278488,203.795700 192.467712,202.274948 
	C192.763565,199.897507 193.604111,198.996338 196.020096,198.447586 
	C199.420944,197.675110 201.649719,190.043091 199.163422,187.565857 
	C195.092560,183.509842 192.120148,178.552490 187.831909,174.657974 
	C185.360748,172.413681 182.647949,169.907761 182.549667,165.992065 
	C182.517593,164.714371 181.793060,163.637680 180.459198,163.575623 
	C176.654434,163.398636 175.029114,160.298447 172.667725,158.114944 
	C166.961548,152.838577 163.656906,145.034439 155.748657,142.063751 
	C154.641724,141.647949 154.659683,140.443649 154.680161,139.472641 
	C154.715683,137.790085 153.672699,136.751541 152.721420,135.583969 
	C147.319489,128.953751 139.772446,124.914459 133.677643,119.104111 
	C131.915604,120.245056 130.288727,120.896484 129.214264,122.058640 
	C121.539955,130.359161 113.934158,138.724350 106.395584,147.148636 
	C100.984497,153.195450 96.309898,160.066055 90.206940,165.282410 
	C84.174530,170.438492 81.691483,178.726028 74.179092,182.347336 
	C73.670540,182.592468 73.418953,183.819778 73.420692,184.589447 
	C73.425720,186.822601 72.044769,188.568039 70.698257,189.724319 
	C68.442131,191.661743 68.569305,193.841171 68.324493,196.379135 
	C67.793098,201.888123 74.665070,202.629715 74.962646,207.422379 
	C80.230103,206.779190 79.821373,212.304962 82.431412,214.595490 
	C84.744873,216.625748 86.354530,219.262329 89.783287,219.116135 
	C90.213463,220.857513 90.216164,222.516785 90.977448,223.679306 
	C95.492828,230.574554 102.367233,235.358734 107.765053,241.529419 
	C110.821678,245.023666 114.631271,248.993866 119.033958,251.867935 
	C123.954002,255.079758 126.598495,260.924896 131.335785,264.652466 
	C133.026199,265.982544 133.920868,266.868988 135.698837,264.890747 
	C141.897995,257.993317 148.145432,251.135147 154.532425,244.412079 
	C159.146347,239.555389 162.839661,233.849884 168.563461,229.073181 
M93.833214,147.376251 
	C105.264748,134.593964 116.544838,121.669724 128.269913,109.162613 
	C130.337250,106.957375 130.627548,105.042587 130.629135,102.609344 
	C130.643173,81.287918 130.642410,59.966442 130.595398,38.645088 
	C130.591553,36.900143 131.139435,34.971615 129.503143,33.329739 
	C128.243820,34.048309 126.586166,34.470280 125.783028,35.536133 
	C119.882248,43.367138 112.853661,50.177456 106.294563,57.409218 
	C96.363495,68.358765 86.503395,79.377754 76.324814,90.093361 
	C74.368538,92.152855 73.095947,94.060074 73.033394,97.108528 
	C67.723816,96.205894 68.984367,101.245346 66.979126,103.416946 
	C62.568684,108.193275 58.298126,112.836372 52.935066,116.890648 
	C45.484421,122.523064 40.195259,130.930969 33.414978,137.573151 
	C30.508242,140.420685 31.516653,146.998550 24.933943,146.012146 
	C24.980211,149.719055 23.689714,153.119370 29.230156,154.068359 
	C31.804863,154.509369 34.646454,157.954712 34.989349,160.907806 
	C35.444756,164.829865 37.237087,166.044281 40.521980,165.993591 
	C41.796303,167.667160 40.691002,170.485764 42.646339,171.059067 
	C49.827320,173.164566 52.405148,180.020767 57.076836,184.661331 
	C59.809723,187.376007 61.062870,187.032822 63.151375,184.134521 
	C69.127205,175.841614 77.019691,169.223785 82.765388,160.509750 
	C85.574867,156.248840 88.359016,150.836899 93.833214,147.376251 
M63.122391,205.202744 
	C61.525669,202.741791 59.940407,203.232239 57.293362,204.131714 
	C53.680470,205.359375 52.723301,208.709000 50.144554,210.614029 
	C46.102444,213.600128 42.631813,217.126572 40.255539,222.088364 
	C37.345871,222.020874 35.595787,224.223862 33.468384,226.418320 
	C30.615776,229.360855 30.396517,233.536118 27.682686,236.450165 
	C23.024405,241.452103 23.137878,241.628265 29.752615,243.366150 
	C30.945152,244.905304 30.279045,246.925522 31.772375,248.718903 
	C39.744167,258.292542 48.691196,266.847778 58.111950,274.918945 
	C62.100811,278.336395 65.103905,282.576996 68.643646,286.360504 
	C78.633606,297.038361 88.550858,307.794006 98.176460,318.799133 
	C103.614334,325.016418 109.477127,330.843689 114.813309,337.178192 
	C117.375252,340.219482 119.941879,346.358185 126.407875,343.681610 
	C128.397491,339.941010 125.242722,335.145996 128.999634,331.873993 
	C126.511925,329.014923 128.206940,327.138275 130.276489,324.983429 
	C131.149734,324.074127 130.508606,322.368988 129.123978,321.616241 
	C128.176590,321.101227 127.286484,320.445770 127.474304,319.364563 
	C128.156830,315.435364 126.289856,311.216827 129.618881,307.499878 
	C131.312943,305.608429 131.595474,302.498108 128.981552,300.345642 
	C127.464478,299.096405 127.450172,297.874481 128.936661,296.660797 
	C130.224319,295.609497 130.561340,294.209167 130.615356,292.662537 
	C130.837540,286.299164 126.180031,280.954407 126.792763,274.490601 
	C126.821022,274.192413 126.034729,273.881012 125.770424,273.481415 
	C122.495621,268.530365 117.363762,265.191925 113.901787,260.593781 
	C107.106560,251.568420 98.751625,244.029541 91.468994,235.482681 
	C82.669991,225.156219 72.941742,215.621536 63.122391,205.202744 
M188.431412,219.582275 
	C185.917221,224.793411 181.939697,228.729095 177.758301,232.645050 
	C170.477402,239.463806 166.029251,249.181915 156.339371,253.588989 
	C155.894241,253.791428 155.678955,254.699875 155.529831,255.321091 
	C154.173401,260.971893 150.703888,264.396637 145.144974,265.301727 
	C143.713058,266.827332 145.061279,269.103882 142.992584,270.313202 
	C138.549637,272.910492 136.550323,277.443878 136.474503,282.105042 
	C136.162872,301.266052 136.327133,320.435150 136.370850,339.601166 
	C136.375595,341.681915 135.963303,343.935791 137.699539,345.759064 
	C138.623337,345.305847 139.769516,345.099304 140.329849,344.413849 
	C146.187653,337.248016 152.784042,331.036591 159.870575,324.961456 
	C166.422501,319.344604 174.113220,313.352875 176.877457,304.078125 
	C177.235474,302.876923 178.283615,302.676117 179.268234,302.712524 
	C181.498993,302.795105 182.414581,301.241699 183.456329,299.705597 
	C188.210312,292.695557 192.526917,285.391724 198.755951,279.445892 
	C203.601700,274.820435 208.120682,269.839569 212.621796,264.868958 
	C221.058380,255.552338 229.315582,246.072479 237.817810,236.817078 
	C238.950714,235.583771 239.476593,234.515457 239.605453,232.978577 
	C240.013260,228.114716 233.577484,218.059982 228.546448,216.599442 
	C225.905396,215.832733 224.449844,214.088638 222.690048,212.378632 
	C217.795715,207.622818 212.794495,202.976990 207.602692,198.067581 
	C202.176239,205.505188 193.679520,210.622833 188.431412,219.582275 
M176.568771,147.797729 
	C176.850357,148.203293 177.109955,148.626328 177.416779,149.011810 
	C182.990280,156.014603 191.121201,161.041824 193.829163,170.279434 
	C193.974716,170.776001 194.809601,171.413071 195.317459,171.407639 
	C200.158997,171.356079 202.118561,175.098526 204.276382,178.334991 
	C206.516953,181.695602 210.398819,181.575684 211.713531,179.488846 
	C214.545746,174.993240 220.748932,174.092239 222.195450,168.182220 
	C223.172928,164.188522 227.952438,163.550247 230.801819,161.337967 
	C234.864975,158.183319 236.921402,152.488220 239.987045,147.981705 
	C241.131485,146.299393 239.897964,145.528824 239.115219,144.595734 
	C236.146698,141.057068 233.401688,137.257660 230.022095,134.156174 
	C226.069534,130.528885 222.794037,126.283600 217.810104,123.512611 
	C213.820984,121.294708 213.104523,115.402023 208.404587,112.698036 
	C204.885788,110.673584 202.218613,106.865913 199.710526,103.456276 
	C195.597885,97.865334 188.955612,94.342331 187.119690,86.745407 
	C186.458862,84.010880 183.425140,80.806618 180.742294,79.832245 
	C175.920944,78.081184 174.843842,73.437317 171.727631,70.479301 
	C170.776718,69.576675 170.439713,67.788506 168.777374,67.620300 
	C166.517715,67.391647 165.632904,66.202965 165.496628,64.051430 
	C165.415024,62.762894 164.413940,62.134869 163.255188,61.639462 
	C159.506943,60.036934 157.126816,56.931278 154.492813,53.961113 
	C149.119186,47.901695 143.992142,41.552811 137.715591,36.315987 
	C137.255524,36.806580 137.101746,36.908974 137.033524,37.052135 
	C133.611420,44.233021 140.426331,51.648052 136.560364,58.839222 
	C136.465088,59.016418 136.763184,59.449230 136.940323,59.722267 
	C140.828018,65.714470 140.887085,71.743576 137.106140,77.797577 
	C136.522842,78.731552 136.209991,79.764503 137.051117,80.532280 
	C140.665497,83.831467 140.229568,86.892540 137.012863,90.242760 
	C136.270309,91.016144 136.621872,92.783234 136.337509,94.063622 
	C135.344574,98.534462 138.539993,102.019569 139.119781,105.964569 
	C139.986298,111.860527 143.091492,115.293678 148.046356,117.622917 
	C148.953308,118.049263 149.922699,118.112465 150.217651,119.318985 
	C152.628387,129.180389 163.233475,132.485641 167.492630,140.875519 
	C172.009933,140.889008 173.295395,145.093689 176.568771,147.797729 
M242.745468,211.050873 
	C244.001282,209.072784 244.727493,207.041626 244.704193,204.568649 
	C244.584930,191.919586 244.685898,179.268585 244.623749,166.618683 
	C244.614670,164.769028 245.390076,161.863205 242.699753,161.701431 
	C240.336517,161.559326 237.776657,163.136627 237.476349,165.985519 
	C237.047394,170.054840 233.905762,173.634567 231.527054,174.498505 
	C224.810913,176.937775 222.228546,182.968292 217.682434,187.219406 
	C215.283997,189.462204 215.587463,190.557465 217.645126,193.197678 
	C222.572479,199.520035 228.589264,204.420410 235.151321,208.728836 
	C237.012039,209.950531 237.745972,211.987671 239.706268,213.146011 
	C241.986938,214.493652 242.232468,213.406052 242.745468,211.050873 
M31.016478,218.535110 
	C32.883785,216.856903 34.558254,215.076462 34.684185,212.350830 
	C34.730019,211.358810 34.800781,210.096619 36.007332,209.959824 
	C42.610748,209.211029 44.548531,202.818420 48.962505,199.454529 
	C52.516640,196.745926 51.792400,193.473724 49.847744,190.759354 
	C45.108105,184.143707 37.705879,179.952667 33.151699,173.084122 
	C32.923645,172.740173 32.276146,172.596878 31.796928,172.511063 
	C30.189207,172.223190 29.505310,171.173828 29.592884,169.684799 
	C29.779406,166.513321 27.506746,166.046555 25.082888,165.291626 
	C24.822729,166.068817 24.446182,166.671478 24.444366,167.275238 
	C24.394281,183.918182 24.297821,200.561859 24.423595,217.203796 
	C24.454929,221.349838 26.170258,221.718750 31.016478,218.535110 
z"/>
</svg>