<svg version="1.1" id="Layer_1" xmlns="http://www.w3.org/2000/svg" xmlns:xlink="http://www.w3.org/1999/xlink" x="0px" y="0px"
	 width="100%" viewBox="0 0 256 288" enable-background="new 0 0 256 288" xml:space="preserve">
<path fill="#000000" opacity="1.000000" stroke="none" 
	d="
M109.844421,18.355106 
	C112.872948,16.650846 114.851540,15.704999 118.565063,18.090757 
	C121.166084,19.761786 126.633003,20.268429 129.973633,16.470381 
	C130.736740,15.602793 131.923004,15.340861 132.704559,15.698107 
	C136.833984,17.585655 140.842239,14.756025 144.932007,15.592756 
	C152.490311,17.139109 160.061050,15.171543 167.654739,15.547817 
	C175.632278,15.943110 183.644623,15.635962 191.641754,15.635540 
	C199.638885,15.635118 207.636002,15.631592 215.633133,15.634598 
	C223.630249,15.637604 231.627426,15.635677 239.624451,15.664898 
	C240.940094,15.669704 242.255203,15.823598 244.342606,15.958475 
	C244.342606,22.665333 244.290649,29.263405 244.367767,35.859970 
	C244.399307,38.559021 245.405167,40.934437 246.358307,43.497757 
	C248.418579,49.038601 248.571304,55.574215 246.287857,61.307980 
	C245.663422,62.875896 246.441818,62.850609 246.604858,63.655968 
	C248.061081,70.849663 247.497971,78.102272 246.913345,85.336678 
	C246.887329,85.658592 245.867432,85.900192 245.276199,86.196373 
	C246.854782,87.909691 249.507889,89.414688 246.075790,91.624557 
	C244.660706,92.535713 245.968826,92.759285 246.309601,93.344749 
	C247.824753,95.947777 248.346970,98.454163 245.600571,100.720879 
	C243.797028,102.209396 244.045380,103.871132 245.615158,105.418686 
	C248.574097,108.335709 247.951477,112.025360 246.515289,114.944206 
	C245.734589,116.530876 246.166901,116.647049 246.674362,117.824120 
	C247.869949,120.597397 248.375854,123.593239 244.222443,125.705704 
	C247.153519,126.554741 247.400940,128.430023 247.393448,130.710144 
	C247.321213,152.701935 247.285004,174.694534 247.436447,196.685547 
	C247.455917,199.512985 246.224411,201.220612 244.517517,203.046082 
	C240.382797,207.468018 237.860733,213.623566 233.468750,217.261978 
	C217.268707,230.682449 205.204895,247.876938 190.477890,262.592621 
	C189.395340,263.674347 188.804642,264.481964 187.276245,263.702759 
	C180.839157,260.420898 169.233475,260.991425 161.775284,263.269257 
	C160.050461,263.796051 155.517426,266.637787 153.118103,262.250275 
	C152.540497,261.194031 150.665085,261.178223 150.050583,262.222137 
	C148.255905,265.270752 145.432571,264.314148 142.924438,264.357483 
	C136.928391,264.461151 130.928650,264.333466 124.931717,264.406616 
	C120.516327,264.460449 116.169075,262.796875 111.658684,264.278564 
	C109.803223,264.888092 107.649467,264.371429 106.570930,260.781891 
	C105.547188,264.483398 103.566002,264.966309 101.338409,264.394165 
	C97.714066,263.463226 93.538986,265.043182 90.369041,261.810516 
	C89.646606,261.073792 87.657280,261.119202 87.133942,262.034760 
	C85.271271,265.293457 82.283379,264.353516 79.616699,264.361481 
	C61.789928,264.414673 43.962887,264.402740 26.136002,264.372162 
	C20.071814,264.361755 17.651863,262.034271 17.649412,256.122223 
	C17.625990,199.642578 17.643013,143.162933 17.612186,86.683296 
	C17.608786,80.454727 22.779593,77.483017 26.040924,73.497543 
	C30.796057,67.686562 37.297104,63.325615 39.993530,55.818096 
	C40.690933,53.876358 43.349083,54.565388 44.850090,52.851864 
	C52.678570,43.915062 60.869240,35.295628 68.929222,26.561462 
	C70.777412,24.558685 71.790359,22.196535 71.657928,19.274551 
	C74.137024,18.353270 77.130875,18.879696 78.522697,15.853585 
	C79.024841,14.761789 81.057404,14.789799 82.258698,15.269078 
	C88.336563,17.693960 94.803513,13.461825 100.435883,15.941470 
	C103.523720,17.300886 107.814568,13.019614 109.844421,18.355106 
M131.499695,194.640991 
	C146.484573,194.639450 161.469467,194.650208 176.454330,194.630951 
	C183.506668,194.621887 183.578995,194.595840 183.587799,187.491272 
	C183.625351,157.188187 183.617447,126.885071 183.619766,96.581963 
	C183.619843,95.584534 183.813965,94.482239 183.465454,93.609360 
	C182.428024,91.010941 181.450089,88.373398 177.777130,88.380814 
	C147.141357,88.442635 116.505424,88.447144 85.869583,88.416634 
	C82.524681,88.413300 81.171127,89.671486 81.307907,93.170670 
	C82.563774,125.297478 78.980606,157.514069 83.197739,189.608719 
	C83.705582,193.473694 84.723381,194.748199 88.542252,194.704819 
	C102.526489,194.545914 116.513634,194.642471 131.499695,194.640991 
M208.586807,229.099945 
	C209.313568,228.455673 210.264297,227.942322 210.730087,227.145508 
	C213.404861,222.569946 218.550018,219.843018 220.676346,215.173431 
	C223.014435,210.038818 231.005142,211.119720 231.398865,204.419312 
	C231.418839,204.079453 232.809647,203.785904 233.582520,203.532852 
	C234.630798,203.189636 235.273270,202.508209 235.459229,201.431137 
	C236.716980,194.145981 239.626114,187.249313 238.822617,179.473312 
	C238.039322,171.892822 238.714661,164.167267 238.623260,156.506897 
	C238.585251,153.320847 239.517212,149.938141 236.201721,147.373901 
	C235.013153,146.454636 235.050674,143.621796 236.164200,142.731598 
	C239.577103,140.003128 238.592773,136.442108 238.618042,133.102219 
	C238.705017,121.610703 238.618530,110.117973 238.671188,98.626038 
	C238.686401,95.305534 238.976761,91.977524 236.033386,90.002487 
	C239.611038,83.211861 240.049652,76.686768 236.805511,70.102585 
	C236.202148,68.878067 236.100159,68.125450 236.832840,66.986237 
	C239.448654,62.919048 239.995407,58.866959 236.440750,54.945450 
	C235.713242,54.142841 235.502380,52.924164 236.357239,52.234440 
	C240.608795,48.804234 237.943054,44.165134 238.577271,40.121128 
	C238.823563,38.550735 237.859161,37.686970 236.216049,37.581722 
	C234.646927,37.481220 233.650085,37.991680 233.400223,39.658783 
	C233.212265,40.912754 233.603180,42.476635 231.973953,43.090202 
	C226.837784,45.024460 224.391708,49.917744 220.562714,53.260033 
	C215.191620,57.948380 212.938324,66.028557 204.849792,67.743286 
	C203.980057,67.927666 203.387207,68.804771 203.488754,69.641609 
	C203.921234,73.204803 201.288849,73.569519 199.107773,73.977829 
	C197.723480,75.624924 199.182114,78.464828 196.920059,78.971008 
	C190.300095,80.452354 190.544479,86.136963 190.504913,90.538239 
	C190.208572,123.513123 190.341202,156.491913 190.362045,189.469452 
	C190.363281,191.425217 190.336151,193.266510 191.639450,195.134964 
	C193.932800,198.422821 189.856140,201.575989 190.559021,204.478470 
	C192.416870,212.150085 189.262833,219.611252 190.371429,227.153915 
	C190.537064,228.280807 190.606537,229.577377 191.213028,230.455139 
	C193.137558,233.240463 192.915970,236.556625 191.937347,239.064880 
	C190.847916,241.857101 191.705734,243.249420 193.277878,244.959518 
	C199.138885,240.690964 202.531479,234.082108 208.586807,229.099945 
M188.136902,75.570717 
	C190.812531,73.503036 190.711945,68.398537 192.376755,67.802773 
	C196.190582,66.437958 196.859695,63.528881 198.858383,60.990238 
	C204.585098,53.716381 211.139511,47.099701 217.232224,40.105919 
	C219.945175,36.991756 225.720993,36.709068 225.295975,31.268723 
	C227.228302,30.077812 230.680237,31.645729 230.224670,27.973616 
	C229.846756,24.927525 227.223404,25.443907 225.101044,25.391277 
	C224.101715,25.366495 223.101288,25.384098 222.101364,25.384184 
	C189.103699,25.387018 156.106018,25.390837 123.108345,25.392656 
	C110.942535,25.393328 98.775383,25.490534 86.611717,25.328072 
	C82.782669,25.276930 81.032951,26.504652 81.337173,30.493067 
	C81.551971,33.309010 81.354294,36.155876 81.352905,38.988945 
	C81.348885,47.155018 81.396080,55.321434 81.333061,63.487022 
	C81.297829,68.051590 83.517273,72.417969 81.528069,77.245934 
	C80.186607,80.501762 82.679382,81.717094 86.027344,81.697327 
	C104.358742,81.589104 122.693718,81.466881 141.021881,81.733063 
	C148.339172,81.839333 155.293976,80.628723 162.394409,79.121475 
	C166.166290,78.320793 171.117645,76.143333 174.552322,81.126167 
	C175.080841,81.892914 177.929459,82.115303 178.744843,81.436325 
	C181.448227,79.185173 185.470886,79.088982 188.136902,75.570717 
M65.520393,209.154266 
	C66.608833,204.742706 69.575058,201.368484 72.462814,198.222504 
	C74.161690,196.371689 74.652252,194.747299 74.651703,192.557632 
	C74.643707,160.573792 74.660133,128.589920 74.634842,96.606102 
	C74.630501,91.118660 71.938995,88.431061 66.493050,88.418022 
	C53.667389,88.387314 40.840942,88.488846 28.016245,88.375351 
	C24.670691,88.345749 23.283810,89.328461 23.297567,92.927544 
	C23.413462,123.245094 23.369549,153.563248 23.383844,183.881226 
	C23.384544,185.362350 23.004114,187.183502 24.379351,188.080734 
	C26.679123,189.581177 26.336826,191.725967 26.338396,193.845261 
	C26.350115,209.670593 26.332987,225.495926 26.359112,241.321213 
	C26.362495,243.370483 25.989887,245.548492 27.424669,247.354752 
	C31.895088,245.381088 32.356396,240.345276 36.393562,237.743286 
	C41.721302,234.309494 46.254322,228.834015 49.608524,223.627472 
	C53.186237,218.074036 60.989346,217.203705 62.528355,210.188431 
	C62.611862,209.807785 64.021881,209.718170 65.520393,209.154266 
M47.605221,240.284134 
	C45.075706,246.181854 38.416527,248.403244 35.154613,253.653290 
	C36.422596,254.830200 37.642223,254.611359 38.770245,254.611786 
	C82.901955,254.628555 127.033676,254.627792 171.165390,254.617340 
	C172.480179,254.617035 174.218521,254.994553 174.925507,253.808563 
	C177.054825,250.236588 178.947952,251.995468 180.609528,254.013229 
	C183.359146,251.331940 183.706192,248.356140 183.670013,245.071991 
	C183.541595,233.415985 183.531998,221.756668 183.673141,210.100967 
	C183.714111,206.717697 183.241302,203.179810 180.236557,201.941635 
	C177.464157,200.799210 173.704758,200.112442 171.094543,203.357819 
	C170.363770,204.266403 169.332047,204.424835 168.446976,203.760406 
	C163.405396,199.975708 158.543243,200.073166 153.459229,203.850708 
	C152.064560,204.886963 149.919296,204.944046 148.652939,202.935226 
	C147.668579,201.373734 145.832581,200.887894 144.787247,201.862991 
	C141.018250,205.378723 136.457687,204.314072 132.192276,204.354736 
	C116.539536,204.504044 100.884171,204.358368 85.230324,204.433014 
	C83.005150,204.443634 79.248589,203.707718 78.909592,205.884705 
	C78.037804,211.483261 73.126961,213.640869 70.380760,217.536911 
	C66.934532,222.426117 63.187889,228.200714 58.150684,230.556641 
	C53.305321,232.822815 51.497227,236.884995 47.605221,240.284134 
M52.730167,58.114136 
	C46.472012,65.707382 38.841618,72.145233 32.934376,80.392792 
	C34.150635,80.937737 34.599792,81.312187 35.052528,81.316566 
	C47.209969,81.434181 59.367695,81.531273 71.525581,81.586578 
	C74.286324,81.599136 74.651550,79.671089 74.644379,77.470337 
	C74.624840,71.471100 74.648079,65.471725 74.646698,59.472408 
	C74.645279,53.306469 74.649956,47.140442 74.614540,40.974670 
	C74.608025,39.841145 74.776459,38.507812 73.410271,37.958084 
	C72.489044,37.587402 71.224632,37.305962 70.697845,38.345070 
	C68.907425,41.876793 63.966228,43.055645 63.938499,48.111488 
	C63.930180,49.628838 62.625763,52.418991 59.957779,52.591858 
	C56.569717,52.811382 54.889114,55.179436 52.730167,58.114136 
z"/>
</svg>