<svg version="1.1" id="Layer_1" xmlns="http://www.w3.org/2000/svg" xmlns:xlink="http://www.w3.org/1999/xlink" x="0px" y="0px"
	 width="100%" viewBox="0 0 144 160" enable-background="new 0 0 144 160" xml:space="preserve">
<path fill="#000000" opacity="1.000000" stroke="none" 
	d="
M35.082336,82.733452 
	C49.230053,82.731758 62.889366,82.711838 76.548569,82.743698 
	C79.613831,82.750847 81.074715,82.199554 81.262550,78.294807 
	C81.894028,65.168114 79.988998,52.117268 80.621895,39.007980 
	C80.902733,33.191074 80.650764,27.349617 80.701782,21.519840 
	C80.720604,19.368912 80.571861,16.568218 83.610893,16.748819 
	C86.247452,16.905502 85.292030,19.599291 85.300507,21.236322 
	C85.374649,35.561546 85.329643,49.887337 85.359100,64.212875 
	C85.366936,68.024673 86.088753,71.909935 85.992691,75.588951 
	C85.834831,81.634621 88.835335,81.862610 93.314926,81.810913 
	C107.469391,81.647560 121.626488,81.680687 135.782440,81.708633 
	C138.123962,81.713257 141.276382,80.931717 141.066711,85.004379 
	C140.863800,88.946136 137.585098,88.129555 135.409134,87.991661 
	C120.477112,87.045357 105.579842,88.929680 90.664680,88.370697 
	C86.927048,88.230614 86.293419,90.204132 86.308144,93.360306 
	C86.388931,110.683914 86.346184,128.008102 86.345390,145.332092 
	C86.345337,146.498123 86.490654,147.688370 86.305992,148.824722 
	C86.001144,150.700668 87.404434,153.842651 83.865906,153.699570 
	C80.933167,153.580994 81.705162,150.780869 81.698799,148.953903 
	C81.637878,131.463547 81.664642,113.972908 81.656944,96.482353 
	C81.653381,88.386604 81.643120,88.308311 73.489075,88.405251 
	C61.950611,88.542435 50.411041,88.007317 38.871147,89.258080 
	C35.078846,89.669106 31.151646,87.907066 27.152969,89.203728 
	C25.705858,89.672997 24.733330,88.264488 24.633572,86.768402 
	C24.493702,84.670723 25.406250,83.100365 27.606781,82.888565 
	C29.919355,82.665970 32.263531,82.771683 35.082336,82.733452 
z"/>
</svg>