<svg version="1.1" id="Layer_1" xmlns="http://www.w3.org/2000/svg" xmlns:xlink="http://www.w3.org/1999/xlink" x="0px" y="0px"
	 width="100%" viewBox="0 0 158 153" enable-background="new 0 0 158 153" xml:space="preserve">
<path fill="#FDFDFD" opacity="1.000000" stroke="none" 
	d="
M104.000000,154.000000 
	C69.333336,154.000000 35.166676,154.000000 1.000009,154.000000 
	C1.000006,103.000008 1.000006,52.000019 1.000003,1.000023 
	C53.666653,1.000015 106.333305,1.000015 158.999969,1.000008 
	C158.999969,51.999981 158.999969,102.999962 158.999985,153.999969 
	C140.833328,154.000000 122.666664,154.000000 104.000000,154.000000 
M96.642937,57.152267 
	C104.467339,47.894833 112.293663,38.639027 120.115120,29.379097 
	C122.874176,26.112619 122.868729,26.108021 119.890724,22.878349 
	C106.999756,38.088428 94.131317,53.271919 81.178268,68.555244 
	C67.592110,53.013153 54.529743,38.070267 41.467381,23.127378 
	C40.986332,23.317640 40.505283,23.507902 40.024231,23.698164 
	C40.461742,25.322767 40.484196,27.251650 41.411797,28.516975 
	C44.661976,32.950481 48.118855,37.245289 51.693016,41.425373 
	C56.753159,47.343353 62.034168,53.071968 67.131676,58.958679 
	C71.011116,63.438744 74.751907,68.038872 78.278671,72.255920 
	C65.167397,88.161560 52.510777,103.515656 39.753601,118.991730 
	C40.724754,120.125015 41.562130,121.102180 42.539192,122.242355 
	C55.336342,106.683723 68.033615,91.246521 80.902298,75.600922 
	C88.351501,83.818329 95.452446,91.651558 102.573997,99.507523 
	C106.545151,97.087135 103.660599,94.892433 101.960030,92.884010 
	C96.047470,85.901077 90.019051,79.016235 84.038063,72.097992 
	C88.250885,67.088966 92.207726,62.384293 96.642937,57.152267 
z"/>
<path fill="#0D0D0D" opacity="1.000000" stroke="none" 
	d="
M96.403755,57.415943 
	C92.207726,62.384293 88.250885,67.088966 84.038063,72.097992 
	C90.019051,79.016235 96.047470,85.901077 101.960030,92.884010 
	C103.660599,94.892433 106.545151,97.087135 102.573997,99.507523 
	C95.452446,91.651558 88.351501,83.818329 80.902298,75.600922 
	C68.033615,91.246521 55.336342,106.683723 42.539192,122.242355 
	C41.562130,121.102180 40.724754,120.125015 39.753601,118.991730 
	C52.510777,103.515656 65.167397,88.161560 78.278671,72.255920 
	C74.751907,68.038872 71.011116,63.438744 67.131676,58.958679 
	C62.034168,53.071968 56.753159,47.343353 51.693016,41.425373 
	C48.118855,37.245289 44.661976,32.950481 41.411797,28.516975 
	C40.484196,27.251650 40.461742,25.322767 40.024231,23.698164 
	C40.505283,23.507902 40.986332,23.317640 41.467381,23.127378 
	C54.529743,38.070267 67.592110,53.013153 81.178268,68.555244 
	C94.131317,53.271919 106.999756,38.088428 119.890724,22.878349 
	C122.868729,26.108021 122.874176,26.112619 120.115120,29.379097 
	C112.293663,38.639027 104.467339,47.894833 96.403755,57.415943 
z"/>
</svg>