<svg version="1.1" id="Layer_1" xmlns="http://www.w3.org/2000/svg" xmlns:xlink="http://www.w3.org/1999/xlink" x="0px" y="0px"
	 width="100%" viewBox="0 0 155 135" enable-background="new 0 0 155 135" xml:space="preserve">
<path fill="none" opacity="1.000000" stroke="#000000" stroke-linecap="round" stroke-linejoin="round" stroke-width="4.000000"
	d="
M75.000000,68.000000 
	C70.166664,73.833328 65.138878,79.518196 60.545155,85.534477 
	C53.492111,94.771675 44.856655,102.707024 38.529190,112.518822 
	C37.975815,113.376923 37.833336,114.500000 37.500000,115.500000 
"/>
<path fill="none" opacity="1.000000" stroke="#000000" stroke-linecap="round" stroke-linejoin="round" stroke-width="5.000000"
	d="
M115.500000,18.500000 
	C114.949623,22.048698 111.889015,24.080709 109.831001,26.346497 
	C102.179604,34.770363 95.300758,43.805771 87.999886,52.499908 
	C84.500511,56.667095 81.000000,60.833332 77.500000,65.000000 
"/>
<path fill="none" opacity="1.000000" stroke="#000000" stroke-linecap="round" stroke-linejoin="round" stroke-width="5.000000"
	d="
M78.000000,68.000000 
	C88.739914,80.437500 99.827034,92.574852 110.067207,105.446533 
	C111.733826,107.541435 114.379997,108.846115 115.500000,111.500000 
"/>
<path fill="none" opacity="1.000000" stroke="#000000" stroke-linecap="round" stroke-linejoin="round" stroke-width="5.000000"
	d="
M37.500000,21.000000 
	C48.257526,33.897324 59.871754,46.068306 70.039169,59.470284 
	C71.591667,61.516678 73.666664,63.166668 75.500000,65.000000 
"/>
</svg>