<svg version="1.1" id="Layer_1" xmlns="http://www.w3.org/2000/svg" xmlns:xlink="http://www.w3.org/1999/xlink" x="0px" y="0px"
	 width="100%" viewBox="0 0 156 146" enable-background="new 0 0 156 146" xml:space="preserve">
<path fill="#FEFEFE" opacity="1.000000" stroke="none" 
	d="
M109.000000,147.000000 
	C72.666679,147.000000 36.833355,147.000000 1.000024,147.000000 
	C1.000016,98.333359 1.000016,49.666718 1.000008,1.000057 
	C52.999958,1.000038 104.999916,1.000038 156.999908,1.000019 
	C156.999939,49.666611 156.999939,98.333221 156.999969,146.999908 
	C141.166672,147.000000 125.333336,147.000000 109.000000,147.000000 
M64.119064,43.363178 
	C54.031467,31.214823 54.031467,31.214823 50.804878,32.236565 
	C59.577515,42.633575 68.240685,52.900848 76.845749,63.099251 
	C75.994431,64.631981 75.417427,66.186035 74.417381,67.388168 
	C67.657112,75.514503 60.761417,83.528564 54.041466,91.687607 
	C53.146557,92.774162 52.996254,94.473991 52.501122,95.889809 
	C52.894810,96.024406 53.288498,96.159012 53.682186,96.293617 
	C62.137146,86.190338 70.592102,76.087067 79.174149,65.831932 
	C88.266396,76.124565 96.966797,85.973625 105.667206,95.822693 
	C106.143311,95.504227 106.619423,95.185768 107.095528,94.867310 
	C106.598579,93.653336 106.375870,92.201263 105.561310,91.263046 
	C99.027016,83.736885 92.487572,76.209465 85.732841,68.882362 
	C80.974182,63.720470 80.856392,63.496014 85.334930,58.147659 
	C92.654633,49.406357 99.902428,40.604847 107.180557,31.828737 
	C106.569939,31.267635 105.959312,30.706535 105.348694,30.145435 
	C99.870872,33.660797 97.265396,40.075283 92.903290,44.695705 
	C88.093246,49.790592 83.718544,55.296482 79.037003,60.760132 
	C73.956299,54.833977 69.270058,49.367924 64.119064,43.363178 
z"/>
<path fill="#131313" opacity="1.000000" stroke="none" 
	d="
M64.351440,43.632526 
	C69.270058,49.367924 73.956299,54.833977 79.037003,60.760132 
	C83.718544,55.296482 88.093246,49.790592 92.903290,44.695705 
	C97.265396,40.075283 99.870872,33.660797 105.348694,30.145435 
	C105.959312,30.706535 106.569939,31.267635 107.180557,31.828737 
	C99.902428,40.604847 92.654633,49.406357 85.334930,58.147659 
	C80.856392,63.496014 80.974182,63.720470 85.732841,68.882362 
	C92.487572,76.209465 99.027016,83.736885 105.561310,91.263046 
	C106.375870,92.201263 106.598579,93.653336 107.095528,94.867310 
	C106.619423,95.185768 106.143311,95.504227 105.667206,95.822693 
	C96.966797,85.973625 88.266396,76.124565 79.174149,65.831932 
	C70.592102,76.087067 62.137146,86.190338 53.682186,96.293617 
	C53.288498,96.159012 52.894810,96.024406 52.501122,95.889809 
	C52.996254,94.473991 53.146557,92.774162 54.041466,91.687607 
	C60.761417,83.528564 67.657112,75.514503 74.417381,67.388168 
	C75.417427,66.186035 75.994431,64.631981 76.845749,63.099251 
	C68.240685,52.900848 59.577515,42.633575 50.804878,32.236565 
	C54.031467,31.214823 54.031467,31.214823 64.351440,43.632526 
z"/>
</svg>